<svg width="87" height="21" viewBox="0 0 87 21" fill="none" xmlns="http://www.w3.org/2000/svg">
<g id="abcm-logo 1" clip-path="url(#clip0_16482_50031)">
<g id="Clip path group">
<mask id="mask0_16482_50031" style="mask-type:luminance" maskUnits="userSpaceOnUse" x="0" y="0" width="87" height="21">
<g id="clip0_328_1583">
<path id="Vector" d="M86.3072 0.210007H0.151855V20.37H86.3072V0.210007Z" fill="white"/>
</g>
</mask>
<g mask="url(#mask0_16482_50031)">
<g id="Group">
<path id="Vector_2" d="M3.2849 10.6436C5.01442 10.6436 6.41793 11.987 6.41793 13.6424V17.2216C6.41793 18.877 5.01442 20.2204 3.2849 20.2204C1.55536 20.2204 0.151855 18.877 0.151855 17.2216V13.6424C0.151855 11.987 1.55536 10.6436 3.2849 10.6436Z" fill="#FF6805"/>
<path id="Vector_3" d="M11.7584 0.210007C13.4879 0.210007 14.893 1.55339 14.893 3.20881V17.2214C14.893 18.8768 13.4895 20.2202 11.76 20.2202C10.0304 20.2202 8.62695 18.8768 8.62695 17.2214V3.20881C8.62535 1.55339 10.0304 0.210007 11.7584 0.210007Z" fill="#05F2F2"/>
<path id="Vector_4" d="M20.233 0.210007C21.9625 0.210007 23.366 1.55339 23.366 3.20881V6.78802C23.366 8.44343 21.9625 9.78685 20.233 9.78685C18.5034 9.78685 17.0999 8.44343 17.0999 6.78802V3.20881C17.0999 1.55339 18.5034 0.210007 20.233 0.210007Z" fill="white"/>
<path id="Vector_5" d="M28.3525 20.211H24.5527L29.2262 8.81177H33.9144L38.2863 20.211H34.4262L33.5525 17.7863H29.2865L28.3525 20.211ZM31.7301 12.6781L31.4888 11.7263L31.2475 12.7078L30.1929 15.3914H32.7114L31.7317 12.6781H31.7301Z" fill="white"/>
<path id="Vector_6" d="M48.013 20.211H39.7371V8.81177H47.7425C49.2047 8.81177 50.1697 9.17221 50.7125 9.69175C51.195 10.1536 51.4363 10.8027 51.4363 11.6249C51.4363 12.4472 51.2407 13.1118 50.7875 13.5878C50.486 13.906 49.9284 14.179 49.4459 14.2509C50.1387 14.3226 50.8934 14.7127 51.3303 15.2182C51.7068 15.6363 51.9024 16.301 51.9024 17.0655C51.9024 17.83 51.6319 18.6819 51.1493 19.1718C50.5006 19.8505 49.4752 20.211 48.013 20.211ZM47.3039 11.5094C47.1083 11.3223 46.7758 11.2505 46.3389 11.2505H43.3396V13.3724H46.4758C46.8378 13.3724 47.1393 13.2866 47.3349 13.0838C47.5012 12.9105 47.6072 12.6516 47.6072 12.3052C47.6072 11.9588 47.5012 11.6842 47.3056 11.511L47.3039 11.5094ZM48.0424 16.7769C48.0424 16.4165 47.9674 16.1278 47.7555 15.925C47.5453 15.7518 47.2273 15.6504 46.8362 15.6504H43.3379V17.7708H46.8052C47.2127 17.7708 47.5583 17.699 47.7702 17.5117C47.9658 17.3526 48.0407 17.0936 48.0407 16.7753L48.0424 16.7769Z" fill="white"/>
<path id="Vector_7" d="M65.336 17.7863C64.5063 19.4745 62.8339 20.3685 59.6225 20.3685C57.4056 20.3685 55.7934 19.9067 54.7534 18.9253C53.7591 17.9735 53.2766 16.5163 53.2766 14.4957C53.2766 12.678 53.7281 11.2785 54.6328 10.3111C55.6875 9.2143 57.3306 8.651 59.6975 8.651C63.3456 8.651 64.9431 9.94914 65.4713 11.5515C65.6979 12.2146 65.7728 13.0088 65.7728 13.4566H62.0498C62.0498 13.0822 61.9438 12.6203 61.7335 12.2739C61.3863 11.6967 60.8288 11.408 59.6535 11.408C58.6591 11.408 58.025 11.6685 57.6175 12.2162C57.2409 12.7061 57.1057 13.5003 57.1057 14.5394C57.1057 15.7377 57.2866 16.4726 57.6778 16.9484C58.1294 17.5117 58.8531 17.6989 59.6828 17.6989C60.7685 17.6989 61.357 17.3806 61.6732 16.9625C61.9601 16.602 62.0498 16.212 62.0808 15.7361H65.8039C65.7729 16.198 65.7142 17.092 65.336 17.7847V17.7863Z" fill="white"/>
<path id="Vector_8" d="M78.5284 20.211V13.775L76.3734 20.211H73.2224L71.0658 13.775V20.211H67.6279V8.81177H72.528L74.8036 15.666L77.2161 8.81177H81.9499V20.211H78.5284Z" fill="white"/>
<path id="Vector_9" d="M82.6688 5.55036V7.14962H81.9777V5.55036H81.2751V5.04329H83.3763V5.55036H82.6688Z" fill="white"/>
<path id="Vector_10" d="M85.6748 7.15126V5.96234L85.2769 7.15126H84.695L84.2974 5.96234V7.15126H83.6616V5.04492H84.5666L84.9872 6.31184L85.4315 5.04492H86.3074V7.15126H85.6748Z" fill="white"/>
</g>
</g>
</g>
</g>
<defs>
<clipPath id="clip0_16482_50031">
<rect width="87" height="21" fill="white"/>
</clipPath>
</defs>
</svg>
