<svg width="103" height="25" viewBox="0 0 103 25" fill="none" xmlns="http://www.w3.org/2000/svg">
<g clip-path="url(#clip0_328_1583)">
<path d="M3.88892 12.6709C5.93652 12.6709 7.59815 14.2702 7.59815 16.2409V20.5019C7.59815 22.4726 5.93652 24.0719 3.88892 24.0719C1.84131 24.0719 0.179688 22.4726 0.179688 20.5019V16.2409C0.179688 14.2702 1.84131 12.6709 3.88892 12.6709Z" fill="#FF6805"/>
<path d="M13.9207 0.25C15.9683 0.25 17.6318 1.84926 17.6318 3.82V20.5017C17.6318 22.4724 15.9702 24.0717 13.9226 24.0717C11.875 24.0717 10.2134 22.4724 10.2134 20.5017V3.82C10.2115 1.84926 11.875 0.25 13.9207 0.25Z" fill="#05F2F2"/>
<path d="M23.9539 0.25C26.0015 0.25 27.6631 1.84926 27.6631 3.82V8.08097C27.6631 10.0517 26.0015 11.651 23.9539 11.651C21.9063 11.651 20.2446 10.0517 20.2446 8.08097V3.82C20.2446 1.84926 21.9063 0.25 23.9539 0.25Z" fill="#2947F2"/>
<path d="M33.5667 24.0607H29.0681L34.6011 10.4902H40.1514L45.3274 24.0607H40.7574L39.723 21.1742H34.6725L33.5667 24.0607ZM37.5654 15.093L37.2798 13.9599L36.9941 15.1283L35.7455 18.3231H38.7272L37.5673 15.093H37.5654Z" fill="#01031C"/>
<path d="M56.8429 24.0607H47.0449V10.4902H56.5226C58.2537 10.4902 59.3962 10.9193 60.0388 11.5378C60.6101 12.0876 60.8957 12.8603 60.8957 13.8392C60.8957 14.8181 60.6641 15.6093 60.1276 16.1759C59.7706 16.5548 59.1105 16.8798 58.5393 16.9653C59.3595 17.0507 60.253 17.5151 60.7702 18.1169C61.216 18.6147 61.4476 19.406 61.4476 20.3161C61.4476 21.2262 61.1273 22.2404 60.556 22.8236C59.7879 23.6316 58.574 24.0607 56.8429 24.0607ZM56.0034 13.7017C55.7718 13.4789 55.3781 13.3934 54.8609 13.3934H51.31V15.9195H55.023C55.4515 15.9195 55.8085 15.8174 56.0401 15.5759C56.2369 15.3697 56.3624 15.0614 56.3624 14.649C56.3624 14.2367 56.2369 13.9098 56.0054 13.7036L56.0034 13.7017ZM56.8777 19.9725C56.8777 19.5434 56.7889 19.1998 56.538 18.9583C56.2891 18.7521 55.9127 18.6314 55.4496 18.6314H51.308V21.1557H55.4129C55.8954 21.1557 56.3045 21.0702 56.5554 20.8473C56.787 20.6579 56.8757 20.3495 56.8757 19.9706L56.8777 19.9725Z" fill="#01031C"/>
<path d="M77.3517 21.1741C76.3694 23.1839 74.3894 24.2482 70.5875 24.2482C67.9628 24.2482 66.0542 23.6984 64.8229 22.5301C63.6457 21.397 63.0745 19.6622 63.0745 17.2568C63.0745 15.0929 63.609 13.4268 64.6801 12.2751C65.9288 10.9694 67.8741 10.2988 70.6763 10.2988C74.9953 10.2988 76.8866 11.8442 77.5119 13.7518C77.7802 14.5412 77.8689 15.4867 77.8689 16.0197H73.4611C73.4611 15.574 73.3356 15.0242 73.0867 14.6118C72.6756 13.9246 72.0156 13.5809 70.6242 13.5809C69.4469 13.5809 68.6962 13.8911 68.2137 14.5431C67.7679 15.1263 67.6078 16.0718 67.6078 17.3088C67.6078 18.7353 67.822 19.6102 68.2851 20.1767C68.8197 20.8472 69.6766 21.0701 70.6589 21.0701C71.9442 21.0701 72.6409 20.6912 73.0153 20.1934C73.3549 19.7643 73.4611 19.3 73.4978 18.7335H77.9056C77.8689 19.2833 77.7995 20.3476 77.3517 21.1723V21.1741Z" fill="#01031C"/>
<path d="M92.9703 24.0607V16.3988L90.419 24.0607H86.6885L84.1353 16.3988V24.0607H80.0652V10.4902H85.8664L88.5605 18.65L91.4167 10.4902H97.0211V24.0607H92.9703Z" fill="#01031C"/>
<path d="M97.8722 6.60757V8.51145H97.0539V6.60757H96.2222V6.00391H98.7098V6.60757H97.8722Z" fill="#01031C"/>
<path d="M101.431 8.51341V7.09803L100.96 8.51341H100.271L99.8003 7.09803V8.51341H99.0476V6.00586H100.119L100.617 7.5141L101.143 6.00586H102.18V8.51341H101.431Z" fill="#01031C"/>
</g>
<defs>
<clipPath id="clip0_328_1583">
<rect width="102" height="24" fill="white" transform="translate(0.179688 0.25)"/>
</clipPath>
</defs>
</svg>
