<svg width="134" height="41" viewBox="0 0 134 41" fill="none" xmlns="http://www.w3.org/2000/svg">
<g clip-path="url(#clip0_398_2825)">
<mask id="mask0_398_2825" style="mask-type:luminance" maskUnits="userSpaceOnUse" x="-15" y="0" width="149" height="41">
<path d="M-15 0H134V41H-15V0Z" fill="white"/>
</mask>
<g mask="url(#mask0_398_2825)">
<path d="M4.79165 36.625C2.1324 36.625 -0.0235596 34.4443 -0.0235596 31.7543V25.9403C-0.0235596 23.2503 2.1324 21.0693 4.79165 21.0693C7.4509 21.0693 9.60661 23.25 9.60661 25.9401V31.754C9.60661 34.4443 7.4509 36.625 4.79165 36.625Z" fill="#9CA3AF"/>
<path d="M17.8151 36.625C15.1558 36.625 12.9999 34.4443 12.9999 31.7543L13.0001 8.99517C13.0001 6.30512 15.1558 4.12444 17.8151 4.12444C20.4743 4.12444 22.6303 6.30512 22.6303 8.99517L22.6301 31.754C22.6301 34.4443 20.4743 36.625 17.8151 36.625Z" fill="#9CA3AF"/>
<path d="M30.8366 19.6797C28.1773 19.6797 26.0214 17.499 26.0214 14.809V8.99501C26.0214 6.30496 28.1773 4.12403 30.8366 4.12403C33.4958 4.12403 35.6518 6.30471 35.6515 8.99476V14.8087C35.6515 17.499 33.4958 19.6797 30.8366 19.6797Z" fill="#9CA3AF"/>
<path d="M48.6042 24.3869L48.2334 22.8395L47.8624 24.4337L46.2401 28.7946H50.1106L48.6042 24.3869ZM43.4125 36.625H37.5721L44.757 18.1036H51.9647L58.6858 36.625H52.7528L51.4083 32.6864H44.8497L43.4125 36.625Z" fill="#111827"/>
<path d="M73.6801 31.045C73.6801 30.4588 73.5641 29.99 73.2397 29.6618C72.9152 29.3805 72.4285 29.2163 71.8257 29.2163H66.4489V32.6628H71.7797C72.4054 32.6628 72.9383 32.5455 73.2627 32.2408C73.5641 31.9829 73.6801 31.5607 73.6801 31.045ZM72.5445 22.4875C72.2431 22.1829 71.7333 22.0655 71.0609 22.0655H66.4489V25.512H71.2698C71.8257 25.512 72.2895 25.3714 72.5908 25.043C72.8459 24.7617 73.0077 24.3397 73.0077 23.7771C73.0077 23.2379 72.8459 22.769 72.5445 22.4875ZM73.6335 36.625H60.9099V18.1036H73.2166C75.4645 18.1036 76.9481 18.6895 77.7823 19.5336C78.5241 20.2837 78.8944 21.3387 78.8944 22.6753C78.8944 24.0584 78.5935 25.0901 77.8983 25.8638C77.4343 26.3795 76.5771 26.825 75.8355 26.9423C76.9015 27.0592 78.0601 27.6925 78.7325 28.513C79.3117 29.1927 79.6134 30.2713 79.6134 31.514C79.6134 32.8032 79.196 34.1397 78.4547 34.9367C77.4579 36.0388 75.8819 36.625 73.6335 36.625Z" fill="#111827"/>
<path d="M100.262 32.6862C98.9868 35.4292 96.4147 36.8828 91.478 36.8828C88.0712 36.8828 85.5908 36.1327 83.992 34.5384C82.4624 32.9908 81.7206 30.6228 81.7206 27.3406C81.7206 24.3867 82.416 22.1123 83.8064 20.5416C85.429 18.7598 87.9552 17.8454 91.5935 17.8454C97.2024 17.8454 99.6592 19.9557 100.47 22.5578C100.818 23.6363 100.934 24.926 100.934 25.6525H95.2095C95.2095 25.043 95.0472 24.2929 94.7227 23.7301C94.1894 22.7924 93.3321 22.3233 91.5241 22.3233C89.9947 22.3233 89.0214 22.7453 88.3956 23.6363C87.8157 24.4336 87.6073 25.723 87.6073 27.411C87.6073 29.3568 87.8858 30.5526 88.4881 31.3263C89.1833 32.2407 90.2961 32.5453 91.5707 32.5453C93.2392 32.5453 94.1433 32.0296 94.6298 31.3499C95.0699 30.7635 95.2095 30.1307 95.2556 29.3568H100.98C100.934 30.1071 100.841 31.5607 100.262 32.6862Z" fill="#111827"/>
<path d="M115.52 17.2102C115.52 16.5389 115.239 15.9509 114.243 15.9509C113.396 15.9509 112.815 16.5052 112.815 17.3108V22.3984H109.263V17.143C109.263 16.4378 108.848 15.9509 108.019 15.9509C107.106 15.9509 106.558 16.6058 106.558 17.3108V22.3984H102.773V13.1638H106.442V14.5237C106.873 13.55 108.135 12.9793 109.578 12.9793C111.023 12.9793 112.019 13.5166 112.5 14.5744C112.799 13.6676 113.877 12.9793 115.637 12.9793C117.96 12.9793 118.94 14.2553 118.94 16.2533C118.94 21.1894 118.94 22.2976 119.023 22.3984H115.637C115.52 22.3984 115.52 21.3574 115.52 17.2102Z" fill="#111827"/>
</g>
<path d="M5 21C7.76015 21 10 23.2444 10 26.0101V31.9899C10 34.7556 7.76015 37 5 37C2.23985 37 0 34.7556 0 31.9899V26.0101C0 23.2444 2.23985 21 5 21Z" fill="green"/>
<path d="M17.9974 4C20.7575 4 23 6.21544 23 8.9455V32.0545C23 34.7846 20.7601 37 18 37C15.2399 37 13 34.7846 13 32.0545V8.9455C12.9974 6.21544 15.2399 4 17.9974 4Z" fill="red"/>
<path d="M31 4C33.7601 4 36 6.24438 36 9.0101V14.9899C36 17.7556 33.7601 20 31 20C28.2399 20 26 17.7556 26 14.9899V9.0101C26 6.24438 28.2399 4 31 4Z" fill="blue"/>
</g>
<defs>
<clipPath id="clip0_398_2825">
<rect width="134" height="41" fill="white"/>
</clipPath>
</defs>
</svg>
