<svg width="23" height="51" viewBox="0 0 23 51" fill="none" xmlns="http://www.w3.org/2000/svg">
<path d="M18.1931 23.8711V13.0543C18.1931 12.8279 18.1619 12.6032 18.1368 12.3781C18.0221 11.3519 18.3272 9.70599 20.3206 9.33676C21.1186 9.19006 21.5775 8.3067 21.8153 7.0946C22.332 4.46125 18.8677 3.2225 16.3704 4.20478V4.20478C14.4637 4.95471 11.7749 6.3747 11.4489 8.3974C10.4575 14.5499 7.84057 23.3718 2.28158 29.4286C1.42919 30.3573 1.1164 31.6877 1.5966 32.8533L7.03161 46.0454C8.07399 48.5755 11.6821 48.5035 12.6226 45.9338L13.2519 44.2147" stroke="#2947F2" stroke-width="2" stroke-linecap="round" stroke-linejoin="round"/>
<path d="M14.7918 30.6727C14.7918 30.6727 15.5426 26.3075 17.256 26.4651C20.5401 26.7664 18.5728 33.868 18.5728 33.868C18.5728 33.868 17.256 36.8295 16.2618 36.6186C13.7573 36.0881 14.7918 30.6727 14.7918 30.6727Z" fill="white" stroke="#FF6805" stroke-width="2" stroke-linecap="round" stroke-linejoin="round"/>
</svg>
