<svg width="15" height="11" viewBox="0 0 15 11" fill="none" xmlns="http://www.w3.org/2000/svg">
<path d="M4.70902 0.443322C4.51376 0.248059 4.19718 0.248059 4.00192 0.443322L0.819935 3.6253C0.624673 3.82056 0.624673 4.13715 0.819935 4.33241C1.0152 4.52767 1.33178 4.52767 1.52704 4.33241L4.35547 1.50398L7.1839 4.33241C7.37916 4.52767 7.69574 4.52767 7.891 4.33241C8.08626 4.13715 8.08626 3.82056 7.891 3.6253L4.70902 0.443322ZM3.85547 10.1953C3.85547 10.4715 4.07933 10.6953 4.35547 10.6953C4.63161 10.6953 4.85547 10.4715 4.85547 10.1953H3.85547ZM3.85547 0.796875V10.1953H4.85547V0.796875H3.85547Z" fill="white"/>
<path d="M11.1211 10.5489C10.9259 10.7441 10.6093 10.7441 10.414 10.5489L7.23204 7.36689C7.03678 7.17162 7.03678 6.85504 7.23204 6.65978C7.42731 6.46452 7.74389 6.46452 7.93915 6.65978L10.7676 9.48821L13.596 6.65978C13.7913 6.46452 14.1078 6.46452 14.3031 6.65978C14.4984 6.85504 14.4984 7.17162 14.3031 7.36689L11.1211 10.5489ZM10.2676 0.796875C10.2676 0.520733 10.4914 0.296875 10.7676 0.296875C11.0437 0.296875 11.2676 0.520733 11.2676 0.796875H10.2676ZM10.2676 10.1953V0.796875H11.2676V10.1953H10.2676Z" fill="white"/>
</svg>
