<svg width="10" height="11" viewBox="0 0 10 11" fill="none" xmlns="http://www.w3.org/2000/svg">
<path d="M5.35355 0.443322C5.15829 0.248059 4.84171 0.248059 4.64645 0.443322L1.46447 3.6253C1.2692 3.82056 1.2692 4.13715 1.46447 4.33241C1.65973 4.52767 1.97631 4.52767 2.17157 4.33241L5 1.50398L7.82843 4.33241C8.02369 4.52767 8.34027 4.52767 8.53553 4.33241C8.7308 4.13715 8.7308 3.82056 8.53553 3.6253L5.35355 0.443322ZM4.5 10.1953C4.5 10.4715 4.72386 10.6953 5 10.6953C5.27614 10.6953 5.5 10.4715 5.5 10.1953H4.5ZM4.5 0.796875V10.1953H5.5V0.796875H4.5Z" fill="black"/>
</svg>
