<svg width="21" height="21" viewBox="0 0 21 21" fill="none" xmlns="http://www.w3.org/2000/svg">
<path d="M16.9592 15H13.6C13.0399 15 12.7599 15 12.546 15.109C12.3578 15.2049 12.2049 15.3578 12.109 15.546C12 15.7599 12 16.0399 12 16.6V19.9592M17 14.1031V7.2C17 6.07989 17 5.51984 16.782 5.09202C16.5903 4.71569 16.2843 4.40973 15.908 4.21799C15.4802 4 14.9201 4 13.8 4H4.2C3.0799 4 2.51984 4 2.09202 4.21799C1.71569 4.40973 1.40973 4.71569 1.21799 5.09202C1 5.51984 1 6.0799 1 7.2V16.8C1 17.9201 1 18.4802 1.21799 18.908C1.40973 19.2843 1.71569 19.5903 2.09202 19.782C2.51984 20 3.0799 20 4.2 20H11.1031C11.5923 20 11.8369 20 12.067 19.9447C12.2711 19.8957 12.4662 19.8149 12.6451 19.7053C12.847 19.5816 13.0199 19.4086 13.3658 19.0627L16.0627 16.3658C16.4086 16.0199 16.5816 15.847 16.7053 15.6451C16.8149 15.4662 16.8957 15.2711 16.9447 15.067C17 14.8369 17 14.5923 17 14.1031Z" stroke="#6B7280" stroke-linecap="round" stroke-linejoin="round"/>
<circle cx="16" cy="5" r="4.5" fill="#DC2626" stroke="white"/>
</svg>
