<svg width="12" height="13" viewBox="0 0 12 13" fill="none" xmlns="http://www.w3.org/2000/svg">
<path d="M4.50336 7.81097V7.43681C4.50376 7.18884 4.60244 6.95115 4.77777 6.77581C4.95311 6.60047 5.1908 6.50179 5.43877 6.5014H5.62585V6.12724C5.62585 6.028 5.66527 5.93283 5.73544 5.86266C5.80561 5.79249 5.90078 5.75307 6.00001 5.75307C6.09925 5.75307 6.19442 5.79249 6.26459 5.86266C6.33476 5.93283 6.37418 6.028 6.37418 6.12724V6.5014H6.93542C7.03466 6.5014 7.12983 6.54082 7.19999 6.61099C7.27016 6.68116 7.30958 6.77633 7.30958 6.87556C7.30958 6.9748 7.27016 7.06997 7.19999 7.14014C7.12983 7.2103 7.03466 7.24972 6.93542 7.24972H5.43877C5.38915 7.24972 5.34157 7.26943 5.30648 7.30452C5.2714 7.3396 5.25169 7.38719 5.25169 7.43681V7.81097C5.25169 7.86059 5.2714 7.90817 5.30648 7.94326C5.34157 7.97834 5.38915 7.99805 5.43877 7.99805H6.56126C6.80922 7.99845 7.04692 8.09713 7.22225 8.27246C7.39759 8.4478 7.49627 8.6855 7.49667 8.93346V9.30762C7.49627 9.55559 7.39759 9.79328 7.22225 9.96862C7.04692 10.144 6.80922 10.2426 6.56126 10.243H6.37418V10.6172C6.37418 10.7164 6.33476 10.8116 6.26459 10.8818C6.19442 10.9519 6.09925 10.9914 6.00001 10.9914C5.90078 10.9914 5.80561 10.9519 5.73544 10.8818C5.66527 10.8116 5.62585 10.7164 5.62585 10.6172V10.243H5.0646C4.96537 10.243 4.8702 10.2036 4.80003 10.1334C4.72986 10.0633 4.69044 9.9681 4.69044 9.86887C4.69044 9.76963 4.72986 9.67446 4.80003 9.60429C4.8702 9.53412 4.96537 9.4947 5.0646 9.4947H6.56126C6.61087 9.4947 6.65846 9.47499 6.69354 9.43991C6.72863 9.40482 6.74834 9.35724 6.74834 9.30762V8.93346C6.74834 8.88384 6.72863 8.83626 6.69354 8.80117C6.65846 8.76609 6.61087 8.74638 6.56126 8.74638H5.43877C5.1908 8.74598 4.95311 8.6473 4.77777 8.47197C4.60244 8.29663 4.50376 8.05893 4.50336 7.81097ZM0.761729 10.243V7.99805C0.759881 7.09823 1.01485 6.21656 1.49669 5.45662C1.97854 4.69667 2.66723 4.09001 3.48189 3.7079L2.61309 2.03539C2.51018 1.83779 2.45995 1.61699 2.46724 1.39432C2.47453 1.17165 2.53909 0.954618 2.6547 0.76417C2.77031 0.573721 2.93306 0.416288 3.12724 0.307066C3.32142 0.197843 3.54047 0.140519 3.76327 0.140625H8.23676C8.45947 0.14073 8.6784 0.198189 8.87246 0.307464C9.06652 0.41674 9.22917 0.57415 9.34473 0.76453C9.4603 0.954909 9.52489 1.17184 9.53228 1.39443C9.53967 1.61702 9.48962 1.83776 9.38694 2.03539L8.99332 2.80018L9.54259 2.44547C9.62591 2.39464 9.72579 2.37838 9.82093 2.40015C9.91607 2.42192 9.99894 2.48001 10.0519 2.56202C10.1048 2.64403 10.1235 2.74347 10.1042 2.83913C10.0848 2.93479 10.0288 3.0191 9.94818 3.07406L9.01427 3.67871L10.5581 3.94961C10.6558 3.96677 10.7427 4.02207 10.7997 4.10332C10.8567 4.18458 10.8791 4.28514 10.8619 4.38289C10.8447 4.48063 10.7894 4.56755 10.7082 4.62453C10.6269 4.68151 10.5264 4.70387 10.4286 4.68671L9.77831 4.57296C10.2407 5.01538 10.6086 5.54706 10.8595 6.13579C11.1105 6.72452 11.2393 7.35806 11.2383 7.99805V10.243C11.2383 10.9377 10.9624 11.6039 10.4712 12.095C9.97998 12.5862 9.31379 12.8622 8.61915 12.8622H3.38087C2.68623 12.8622 2.02004 12.5862 1.52886 12.095C1.03767 11.6039 0.761729 10.9377 0.761729 10.243ZM3.2761 1.69041L4.22124 3.50809H5.10651L4.89623 2.878C4.86487 2.78373 4.87225 2.68086 4.91674 2.59203C4.96122 2.50319 5.03918 2.43567 5.13345 2.40431C5.22772 2.37295 5.33059 2.38033 5.41943 2.42482C5.50826 2.4693 5.57578 2.54726 5.60714 2.64153L5.896 3.50809H6.10403L6.39288 2.64153C6.42424 2.54726 6.49177 2.4693 6.5806 2.42482C6.66943 2.38033 6.7723 2.37295 6.86657 2.40431C6.96085 2.43567 7.0388 2.50319 7.08329 2.59203C7.12778 2.68086 7.13515 2.78373 7.10379 2.878L6.89351 3.50809H7.77878L8.72392 1.69041C8.76739 1.60677 8.78856 1.51334 8.78541 1.41913C8.78226 1.32492 8.75488 1.23311 8.70592 1.15256C8.65696 1.07201 8.58807 1.00544 8.50589 0.959268C8.42371 0.913094 8.33102 0.888877 8.23676 0.888951H3.76327C3.66908 0.889088 3.57652 0.913439 3.49446 0.959666C3.41241 1.00589 3.34362 1.07244 3.2947 1.15292C3.24578 1.2334 3.21837 1.32511 3.21512 1.41923C3.21186 1.51336 3.23286 1.60674 3.2761 1.69041ZM1.51006 10.243C1.51006 10.7392 1.70716 11.2151 2.058 11.5659C2.40885 11.9167 2.8847 12.1138 3.38087 12.1138H8.61915C9.11533 12.1138 9.59118 11.9167 9.94202 11.5659C10.2929 11.2151 10.49 10.7392 10.49 10.243V7.99805C10.4938 7.19028 10.2528 6.40032 9.79853 5.73235C9.34431 5.06438 8.69829 4.54978 7.94566 4.25642H7.93967H4.06409H4.05436C3.30174 4.54978 2.65571 5.06438 2.20149 5.73235C1.74727 6.40032 1.50619 7.19028 1.51006 7.99805V10.243Z" fill="black"/>
</svg>
