<svg width="12" height="13" viewBox="0 0 12 13" fill="none" xmlns="http://www.w3.org/2000/svg">
<path d="M6.12424 12.0626C6.5373 11.7998 6.95159 11.5383 7.36466 11.2755C7.55164 11.157 7.74107 11.0397 7.92316 10.9126C8.33867 10.6229 8.72607 10.2905 9.07193 9.92024C9.7563 9.18576 10.2806 8.31319 10.6093 7.36485C10.8831 6.5766 11.0004 5.75046 11.0004 4.91821C11.0004 4.39027 11.0004 3.86233 11.0004 3.33438C11.0004 3.31972 11.0004 3.30627 11.0004 3.29161C11.0004 3.18162 10.9246 3.08752 10.8207 3.05574C10.767 3.03986 10.712 3.02397 10.6582 3.00686C10.6069 2.99097 10.5555 2.97264 10.5054 2.95431C10.4798 2.94453 10.4553 2.93476 10.4309 2.92498C10.4236 2.92131 10.404 2.91154 10.3979 2.91154C10.426 2.92376 10.4321 2.9262 10.415 2.91887C10.4065 2.9152 10.3991 2.91154 10.3906 2.90787C10.1914 2.81988 10.0007 2.71234 9.82351 2.58524C9.80396 2.5718 9.78563 2.55835 9.7673 2.54369C9.76485 2.54124 9.71841 2.50702 9.75019 2.53147C9.77707 2.55224 9.74652 2.52902 9.74041 2.52413C9.69642 2.48992 9.65364 2.45447 9.61209 2.41781C9.53143 2.34693 9.45322 2.27116 9.37989 2.19172C9.34445 2.15262 9.30901 2.11351 9.27602 2.07318C9.25891 2.05363 9.2418 2.03285 9.22591 2.01208C9.2198 2.00474 9.21124 1.98886 9.20391 1.98397C9.22224 2.00841 9.22591 2.0133 9.21491 1.99863C9.21002 1.9913 9.20391 1.98519 9.19902 1.97786C9.13548 1.89353 9.07681 1.80554 9.02182 1.71511C8.95827 1.60879 8.89961 1.4988 8.84828 1.38637C8.8434 1.37537 8.83851 1.36437 8.83362 1.35337C8.82995 1.34481 8.82629 1.33748 8.82262 1.32893C8.81529 1.31182 8.81773 1.31793 8.82995 1.34604C8.82995 1.32159 8.80551 1.28615 8.79696 1.26293C8.77496 1.20672 8.7554 1.1505 8.73707 1.09306C8.70408 0.990407 8.61242 0.913415 8.50121 0.913415C8.335 0.913415 8.1688 0.913415 8.00259 0.913415C7.60419 0.913415 7.20457 0.913415 6.80617 0.913415C6.32588 0.913415 5.8456 0.913415 5.36532 0.913415C4.94858 0.913415 4.53185 0.913415 4.11512 0.913415C3.91347 0.913415 3.7106 0.906083 3.50896 0.913415C3.50651 0.913415 3.50285 0.913415 3.5004 0.913415C3.38919 0.913415 3.29754 0.990407 3.26454 1.09306C3.24987 1.13828 3.23399 1.18472 3.2181 1.22872C3.20832 1.25438 3.19855 1.27882 3.18877 1.30448C3.18388 1.31793 3.17899 1.33259 3.17166 1.34604C3.1851 1.31915 3.18388 1.31671 3.17166 1.34481C3.12766 1.44503 3.07878 1.54279 3.02501 1.63812C2.97124 1.73222 2.91258 1.8251 2.85025 1.91309C2.83558 1.93509 2.8197 1.95586 2.80381 1.97664C2.7977 1.98397 2.78548 1.99619 2.78303 2.00474C2.79648 1.97053 2.80259 1.9803 2.78914 1.99741C2.75248 2.04263 2.71582 2.08785 2.67671 2.13184C2.60705 2.21006 2.53373 2.28583 2.45674 2.35793C2.41763 2.39337 2.37852 2.42881 2.33819 2.46303C2.31864 2.48014 2.29786 2.49725 2.27709 2.51314C2.26853 2.52047 2.25876 2.5278 2.24898 2.53513C2.23431 2.54613 2.2392 2.54247 2.26364 2.52413C2.25631 2.52902 2.2502 2.53513 2.24287 2.54002C2.07055 2.66834 1.88602 2.77955 1.6917 2.87243C1.66237 2.88587 1.63304 2.89932 1.60249 2.91276C1.58783 2.91887 1.55239 2.93965 1.60371 2.91276C1.59027 2.92009 1.57561 2.92376 1.56216 2.92987C1.5035 2.95309 1.44484 2.97509 1.38496 2.99464C1.31652 3.01664 1.24808 3.03741 1.17965 3.05819C1.07699 3.08874 1 3.18529 1 3.29405C1 3.78533 1 4.27662 1 4.7679C1 5.02698 1 5.28606 1.01833 5.54515C1.05622 6.04987 1.14298 6.55338 1.28597 7.03977C1.56705 8.00278 2.05222 8.89857 2.69871 9.66482C3.01279 10.0376 3.36597 10.3761 3.75215 10.6755C3.98924 10.86 4.23732 11.0262 4.4903 11.1863C4.94125 11.4723 5.3922 11.7583 5.84316 12.0442C5.85415 12.0516 5.86638 12.0589 5.87737 12.0662C5.98492 12.1347 6.15112 12.0919 6.21223 11.9782C6.27578 11.8573 6.24034 11.7167 6.12424 11.6434C5.71484 11.3843 5.30543 11.124 4.89603 10.8649C4.71761 10.7513 4.53674 10.6401 4.36198 10.5203C4.26054 10.4506 4.15789 10.381 4.06257 10.3028C4.11145 10.3431 4.03446 10.2808 4.02468 10.2734C4.00268 10.2563 3.98191 10.2392 3.95991 10.2209C3.9098 10.1805 3.86092 10.139 3.81204 10.0974C3.6275 9.93857 3.45152 9.76992 3.28531 9.5915C3.20221 9.50351 3.12155 9.41307 3.04334 9.32019C3.0079 9.27864 2.97368 9.23709 2.93946 9.19432C2.92113 9.1711 2.90158 9.14666 2.88325 9.12344C2.85636 9.08922 2.88325 9.12466 2.88813 9.12955C2.87469 9.11366 2.86247 9.09655 2.85025 9.07944C2.70726 8.8888 2.57283 8.69204 2.45062 8.48795C2.32597 8.28141 2.21232 8.06877 2.10966 7.85124C2.084 7.79624 2.05955 7.74125 2.03511 7.68626C2.03022 7.67526 2.02534 7.66426 2.02045 7.65326C2.01923 7.65082 1.99601 7.59582 2.01189 7.63248C2.02778 7.66915 2.00456 7.61415 2.00334 7.61171C1.99601 7.5946 1.9899 7.57871 1.98256 7.5616C1.93735 7.44917 1.89457 7.33674 1.85547 7.22186C1.77603 6.99211 1.71004 6.75991 1.65504 6.52282C1.62816 6.40428 1.60371 6.28451 1.58294 6.16475C1.57316 6.11098 1.56461 6.05598 1.55605 6.00221C1.55116 5.97288 1.55116 5.93988 1.54261 5.91178C1.55605 5.9631 1.54628 5.93744 1.54383 5.92155C1.54139 5.90078 1.53894 5.87878 1.5365 5.858C1.49861 5.54393 1.48762 5.22863 1.48762 4.9121C1.48762 4.38783 1.48762 3.86355 1.48762 3.33805C1.48762 3.32338 1.48762 3.30994 1.48762 3.29527C1.42773 3.37349 1.36785 3.45292 1.30797 3.53114C1.71004 3.41015 2.095 3.24884 2.43718 3.00197C2.82581 2.72211 3.15699 2.37015 3.40386 1.9583C3.54073 1.72977 3.65194 1.48169 3.7326 1.22749C3.65439 1.28738 3.57495 1.34726 3.49674 1.40714C3.66294 1.40714 3.82915 1.40714 3.99535 1.40714C4.39375 1.40714 4.79338 1.40714 5.19178 1.40714C5.67206 1.40714 6.15235 1.40714 6.63263 1.40714C7.04936 1.40714 7.4661 1.40714 7.88283 1.40714C8.08448 1.40714 8.28734 1.4157 8.48899 1.40714C8.49143 1.40714 8.4951 1.40714 8.49754 1.40714C8.41933 1.34726 8.33989 1.28738 8.26168 1.22749C8.55009 2.12818 9.2088 2.89809 10.0667 3.30139C10.2684 3.39549 10.4749 3.46759 10.6875 3.53114C10.6277 3.45292 10.5678 3.37349 10.5079 3.29527C10.5079 3.78167 10.5079 4.26806 10.5079 4.75445C10.5079 5.00254 10.5091 5.25185 10.492 5.49993C10.4834 5.62214 10.4724 5.74557 10.4578 5.86656C10.4566 5.88 10.4456 5.98144 10.4529 5.91055C10.4504 5.93744 10.4456 5.96555 10.4407 5.99243C10.4309 6.05598 10.4211 6.11953 10.4101 6.18186C10.3673 6.42139 10.3124 6.65848 10.2451 6.8919C10.1791 7.12165 10.1009 7.34651 10.0105 7.56771C10.0007 7.59338 9.99094 7.61782 9.97994 7.64348C10.0068 7.58238 9.96894 7.67037 9.96161 7.68503C9.93595 7.74247 9.91028 7.80113 9.8834 7.85735C9.83329 7.96367 9.78074 8.06877 9.72575 8.17265C9.61209 8.38529 9.48744 8.59183 9.35179 8.79103C9.28457 8.89124 9.21369 8.98901 9.14159 9.08555C9.13303 9.09777 9.12325 9.10999 9.1147 9.12099C9.09148 9.15155 9.15136 9.07455 9.1147 9.12222C9.09637 9.14544 9.07681 9.16988 9.05848 9.1931C9.0206 9.24076 8.98271 9.2872 8.94361 9.33364C8.78718 9.5194 8.61975 9.69538 8.44499 9.86403C8.357 9.94835 8.26657 10.0302 8.17369 10.1097C8.13214 10.1451 8.08936 10.1805 8.04659 10.216C8.02337 10.2355 7.99893 10.2551 7.97449 10.2734C7.96471 10.2808 7.95493 10.2881 7.94516 10.2966C7.93538 10.304 7.9256 10.3113 7.91583 10.3199C7.93905 10.3028 7.94271 10.2991 7.92927 10.3101C7.71174 10.4763 7.48443 10.6254 7.25345 10.772C6.80617 11.0556 6.35888 11.3403 5.91037 11.6238C5.89937 11.6312 5.88715 11.6385 5.87615 11.6458C5.76861 11.7143 5.71484 11.867 5.78816 11.9807C5.85904 12.0821 6.00814 12.1359 6.12424 12.0626Z" fill="white" stroke="white" stroke-width="0.3"/>
<path d="M3.68297 6.67009C4.10092 7.08804 4.51888 7.506 4.93806 7.92518C4.99794 7.98506 5.05782 8.04494 5.11648 8.1036C5.20936 8.19648 5.36823 8.1977 5.46234 8.1036C5.78497 7.78097 6.10882 7.45711 6.43146 7.13448C6.94229 6.62365 7.45435 6.11159 7.96518 5.60076C8.0825 5.48343 8.20105 5.36489 8.31837 5.24757C8.4088 5.15713 8.41613 4.99093 8.31837 4.90172C8.2206 4.8125 8.06906 4.80517 7.97251 4.90172C7.64988 5.22435 7.32603 5.5482 7.00339 5.87084C6.49256 6.38167 5.9805 6.89373 5.46967 7.40456C5.35235 7.52189 5.2338 7.64043 5.11648 7.75775C5.23136 7.75775 5.34746 7.75775 5.46234 7.75775C5.04438 7.33979 4.62642 6.92184 4.20725 6.50266C4.14736 6.44278 4.08748 6.38289 4.02882 6.32423C3.93839 6.2338 3.77218 6.22647 3.68297 6.32423C3.59375 6.422 3.58642 6.57354 3.68297 6.67009Z" fill="white" stroke="white" stroke-width="0.3"/>
</svg>
