<svg width="13" height="16" viewBox="0 0 13 16" fill="none" xmlns="http://www.w3.org/2000/svg">
<path d="M2.25065 15.582C1.86107 15.582 1.52768 15.4434 1.25048 15.1662C0.972818 14.8886 0.833984 14.5549 0.833984 14.1654V7.08203C0.833984 6.69245 0.972818 6.35882 1.25048 6.08116C1.52768 5.80396 1.86107 5.66536 2.25065 5.66536H2.95898V4.2487C2.95898 3.26884 3.30441 2.43348 3.99528 1.74261C4.68567 1.05223 5.52079 0.707031 6.50065 0.707031C7.48051 0.707031 8.31587 1.05223 9.00673 1.74261C9.69712 2.43348 10.0423 3.26884 10.0423 4.2487V5.66536H10.7507C11.1402 5.66536 11.4739 5.80396 11.7515 6.08116C12.0287 6.35882 12.1673 6.69245 12.1673 7.08203V14.1654C12.1673 14.5549 12.0287 14.8886 11.7515 15.1662C11.4739 15.4434 11.1402 15.582 10.7507 15.582H2.25065ZM6.50065 12.0404C6.89023 12.0404 7.22386 11.9018 7.50153 11.6246C7.77872 11.3469 7.91732 11.0133 7.91732 10.6237C7.91732 10.2341 7.77872 9.90049 7.50153 9.62282C7.22386 9.34563 6.89023 9.20703 6.50065 9.20703C6.11107 9.20703 5.77768 9.34563 5.50048 9.62282C5.22282 9.90049 5.08398 10.2341 5.08398 10.6237C5.08398 11.0133 5.22282 11.3469 5.50048 11.6246C5.77768 11.9018 6.11107 12.0404 6.50065 12.0404ZM4.37565 5.66536H8.62565V4.2487C8.62565 3.65842 8.41905 3.15668 8.00586 2.74349C7.59266 2.3303 7.09093 2.1237 6.50065 2.1237C5.91037 2.1237 5.40864 2.3303 4.99544 2.74349C4.58225 3.15668 4.37565 3.65842 4.37565 4.2487V5.66536Z" fill="white"/>
</svg>
