<svg width="10" height="11" viewBox="0 0 10 11" fill="none" xmlns="http://www.w3.org/2000/svg">
<path d="M5.35355 10.5489C5.15829 10.7441 4.84171 10.7441 4.64645 10.5489L1.46447 7.36689C1.2692 7.17162 1.2692 6.85504 1.46447 6.65978C1.65973 6.46452 1.97631 6.46452 2.17157 6.65978L5 9.48821L7.82843 6.65978C8.02369 6.46452 8.34027 6.46452 8.53553 6.65978C8.7308 6.85504 8.7308 7.17162 8.53553 7.36689L5.35355 10.5489ZM4.5 0.796875C4.5 0.520733 4.72386 0.296875 5 0.296875C5.27614 0.296875 5.5 0.520733 5.5 0.796875H4.5ZM4.5 10.1953V0.796875H5.5V10.1953H4.5Z" fill="black"/>
</svg>
