<svg width="27" height="27" viewBox="0 0 27 27" fill="none" xmlns="http://www.w3.org/2000/svg">
<path d="M16.1707 8.57031C16.1707 8.57031 20.9005 12.1411 20.2729 18.9472C20.2729 18.9472 22.2475 19.4785 21.8178 21.3601C21.4395 23.0165 18.2458 23.0002 18.2458 23.0002H8.86722C8.86722 23.0002 5.67358 23.0154 5.29529 21.3601C4.8667 19.4785 6.84017 18.9472 6.84017 18.9472C6.21151 12.1411 10.9445 8.57031 10.9445 8.57031" stroke="#2947F2" stroke-linecap="round" stroke-linejoin="round"/>
<path d="M13.5562 16.1877C12.4978 16.1877 11.6406 15.4869 11.6406 14.6232C11.6406 13.7594 12.4978 13.0586 13.5562 13.0586C14.6145 13.0586 15.4717 13.7583 15.4717 14.6232" stroke="#FF6805" stroke-linecap="round" stroke-linejoin="round"/>
<path d="M13.5562 16.1914C14.6134 16.1914 15.4717 16.8911 15.4717 17.7559C15.4717 18.6208 14.6134 19.3184 13.5562 19.3184C12.4989 19.3184 11.6406 18.6175 11.6406 17.7538" stroke="#FF6805" stroke-linecap="round" stroke-linejoin="round"/>
<path d="M13.5547 12.2227V20.1581" stroke="#FF6805" stroke-linecap="round" stroke-linejoin="round"/>
<path d="M15.6431 6.44922H11.3846C10.7795 6.44922 10.2891 6.93946 10.2891 7.5442C10.2891 8.14894 10.7795 8.63915 11.3846 8.63915H15.6431C16.2482 8.63915 16.7387 8.14894 16.7387 7.5442C16.7387 6.93946 16.2482 6.44922 15.6431 6.44922Z" stroke="#2947F2" stroke-linecap="round" stroke-linejoin="round"/>
<path d="M11.6146 6.26021L9.82812 3.97186C9.82812 3.97186 10.0752 2.69922 13.4809 2.69922" stroke="#2947F2" stroke-linecap="round" stroke-linejoin="round"/>
<path d="M15.4278 6.26021L17.2142 3.97186C17.2142 3.97186 16.9672 2.69922 13.5625 2.69922" stroke="#2947F2" stroke-linecap="round" stroke-linejoin="round"/>
</svg>
