<svg width="222" height="170" viewBox="0 0 222 170" fill="none" xmlns="http://www.w3.org/2000/svg">
<path fill-rule="evenodd" clip-rule="evenodd" d="M0.498718 35.4093H131.499C124.693 12.3952 91.4987 13.4093 91.4987 13.4093C91.4987 13.4093 86.9987 0 63.9987 0C40.9987 0 35.4987 15.7686 35.4987 15.7686C35.4987 15.7686 0.498718 12.2071 0.498718 35.4093Z" fill="url(#paint0_linear)"/>
<ellipse opacity="0.06" rx="68.5" ry="8" transform="matrix(-1 0 0 1 152.999 151)" fill="#1A1D21"/>
<rect x="119.64" y="102.958" width="91" height="48" fill="white"/>
<rect x="119.64" y="102.958" width="91" height="48" fill="url(#paint1_linear)"/>
<path d="M139.972 87.9581H189.855L210.64 102.958H124.628C124.628 102.958 120.431 102.958 118.64 101.245C121.219 101.337 124.561 99.0741 124.561 99.0741L139.972 87.9581Z" fill="url(#paint2_linear)"/>
<path d="M140.576 87.9581H190.239L203.214 97.3609C203.214 97.3609 207.314 99.9581 212.64 97.4394C209.637 102.958 200.539 102.958 200.539 102.958H139.325C139.325 102.958 126.377 102.958 121.64 97.4394C124.285 98.0955 127.089 97.6204 129.358 96.1316L140.576 87.9581Z" fill="url(#paint3_linear)"/>
<path d="M119.904 112.958C119.904 112.958 117.524 115.291 117.644 116.958C122.523 114.291 145.64 113.758 145.64 113.758H119.904V112.958Z" fill="url(#paint4_linear)"/>
<path d="M211.607 137.958C212.162 138.498 212.525 139.2 212.64 139.958C211.137 138.721 194.64 138.577 194.64 138.577H211.607V137.958Z" fill="url(#paint5_linear)"/>
<path d="M210.64 108.325C211.39 108.975 213.458 109.642 214.312 110.006C213.185 111.65 209.826 110.859 208.174 110.788C206.294 110.699 198.64 110.006 198.64 110.006H210.64V108.325Z" fill="url(#paint6_linear)"/>
<path d="M120.308 135.958C119.876 136.308 119.281 136.528 118.64 136.574C119.183 137.132 121.226 136.99 124.084 136.725C126.67 136.488 133.64 136.28 133.64 136.28H120.308V135.958Z" fill="url(#paint7_linear)"/>
<path d="M191.64 127.825C191.64 127.825 208.072 128.926 212.64 130.958C212.625 129.424 211.947 127.969 210.776 126.958V127.825H191.64Z" fill="url(#paint8_linear)"/>
<path d="M153.64 102.625C153.64 102.625 160.183 102.445 161.012 102.335C162.524 102.145 172.64 102.625 172.64 102.625H153.64Z" fill="url(#paint9_linear)"/>
<path d="M162.64 132.661C162.64 132.661 164.841 132.441 165.664 132.301C167.19 132.101 178.64 132.631 178.64 132.631L162.64 132.661Z" fill="url(#paint10_linear)"/>
<path d="M208.64 116.606C208.64 116.606 197.721 116.266 196.694 116.316C195.14 116.386 192.64 116.606 192.64 116.606H208.64Z" fill="url(#paint11_linear)"/>
<path d="M124.306 124.958C123.391 125.377 122.773 126.118 122.64 126.958C124.006 126.222 133.459 124.958 142.64 124.958L124.306 124.958Z" fill="url(#paint12_linear)"/>
<path fill-rule="evenodd" clip-rule="evenodd" d="M36.4987 32.0841C42.1454 45.7112 58.6586 50.7741 64.4222 64.5736C74.9479 58.5425 85.4736 52.5102 95.9993 46.4792C89.6827 28.4021 69.5515 21.2494 63.1184 3C54.2452 12.6945 45.372 22.3895 36.4987 32.0841Z" fill="url(#paint13_linear)"/>
<path fill-rule="evenodd" clip-rule="evenodd" d="M47.5175 28.6374C45.7313 30.4449 43.9459 32.2525 42.1597 34.06C41.8348 34.389 41.2896 34.3295 41.0401 33.9406C40.7808 33.5365 40.531 33.1251 40.291 32.7058C40.1343 32.4317 40.1798 32.0855 40.3977 31.8566C42.1585 30.0039 43.9192 28.1512 45.68 26.2985C46.0111 25.9507 46.585 26.0183 46.8226 26.436C47.0744 26.8799 47.3374 27.316 47.6094 27.7438C47.7899 28.0281 47.7542 28.3978 47.5175 28.6374Z" fill="#C2C4C6"/>
<path fill-rule="evenodd" clip-rule="evenodd" d="M58.4671 26.5054C54.8213 29.917 51.1754 33.3282 47.5295 36.7398C47.2411 37.0094 46.7858 36.9938 46.522 36.7C46.5088 36.6853 46.4953 36.6705 46.4822 36.6557C46.2282 36.3722 46.2492 35.937 46.5244 35.674C50.1375 32.2238 53.7509 28.7741 57.3644 25.3239C57.661 25.0404 58.1332 25.0695 58.3978 25.383C58.4384 25.4305 58.4786 25.4785 58.5192 25.5261C58.7662 25.8154 58.7449 26.2457 58.4671 26.5054Z" fill="#C2C4C6"/>
<path fill-rule="evenodd" clip-rule="evenodd" d="M45.7379 38.4162L45.5898 38.5544C45.3034 38.8223 44.8526 38.808 44.5892 38.5179C44.5806 38.5085 44.572 38.4991 44.5633 38.4892C44.3078 38.2074 44.3274 37.7717 44.6023 37.5091L44.7467 37.3713C45.0335 37.0972 45.4921 37.1104 45.7584 37.4053C45.7637 37.4115 45.7699 37.418 45.7756 37.4246C46.0349 37.7114 46.0201 38.152 45.7379 38.4162Z" fill="#C2C4C6"/>
<path fill-rule="evenodd" clip-rule="evenodd" d="M86.6056 44.1695C79.4135 48.6851 72.2211 53.2011 65.029 57.7166C64.7078 57.9185 64.2885 57.8291 64.0695 57.5193C64.0641 57.5111 64.0584 57.5029 64.0522 57.4951C63.8213 57.1677 63.9152 56.7128 64.2524 56.4957C71.3977 51.9067 78.543 47.3173 85.6887 42.7279C86.0152 42.5178 86.4534 42.6077 86.6646 42.9338C86.72 43.02 86.7754 43.1061 86.8308 43.1927C87.0404 43.5225 86.9366 43.9619 86.6056 44.1695Z" fill="#C2C4C6"/>
<path fill-rule="evenodd" clip-rule="evenodd" d="M68.8287 46.0661C65.9652 48.0787 63.1012 50.0914 60.2381 52.1041C59.9563 52.3018 59.5752 52.2678 59.3307 52.0257C59.3274 52.0224 59.3237 52.0187 59.3204 52.0155C59.009 51.7078 59.0513 51.1937 59.407 50.9386C62.2455 48.9004 65.0836 46.8619 67.922 44.8238C68.2059 44.6199 68.5973 44.6523 68.8414 44.9022C68.8701 44.9309 68.898 44.96 68.9263 44.9892C69.2316 45.303 69.1864 45.8142 68.8287 46.0661Z" fill="#C2C4C6"/>
<path fill-rule="evenodd" clip-rule="evenodd" d="M59.1722 39.4482C56.9954 41.2312 54.8191 43.0141 52.6423 44.797C52.2177 45.1449 51.6036 45.1379 51.188 44.779C49.8572 43.6286 48.5431 42.4668 47.282 41.2636C46.8107 40.8143 46.8271 40.0558 47.3087 39.6177C49.4071 37.7071 51.5059 35.797 53.6043 33.8865C54.0527 33.4787 54.7383 33.5005 55.167 33.9288C56.4712 35.2317 57.8315 36.4895 59.2108 37.733C59.7252 38.197 59.7084 39.0093 59.1722 39.4482Z" fill="#C2C4C6"/>
<path fill-rule="evenodd" clip-rule="evenodd" d="M73.5009 27.7111C69.7409 30.7908 65.9814 33.8706 62.2215 36.9503C61.7895 37.3043 61.1627 37.2904 60.7479 36.9158C59.2862 35.594 57.8421 34.2582 56.4604 32.8728C56.0075 32.4191 56.033 31.6761 56.5068 31.2446C60.1264 27.949 63.7468 24.6539 67.3664 21.3588C67.8239 20.942 68.527 20.9748 68.9512 21.4253C70.4351 23.0002 71.9883 24.5177 73.5624 26.018C74.0551 26.4869 74.0268 27.2803 73.5009 27.7111Z" fill="#C2C4C6"/>
<path fill-rule="evenodd" clip-rule="evenodd" d="M49.6083 30.6005C48.2906 31.8845 46.9729 33.1686 45.6556 34.4527C45.3455 34.7542 44.8433 34.7144 44.5799 34.3715C44.5767 34.3678 44.5742 34.3637 44.5709 34.36C44.3518 34.0749 44.3838 33.6695 44.6386 33.4164C45.9448 32.1176 47.2511 30.8191 48.5573 29.5207C48.865 29.2151 49.3729 29.2471 49.6338 29.5929L49.676 29.6487C49.8959 29.9392 49.8693 30.3461 49.6083 30.6005Z" fill="#C2C4C6"/>
<path fill-rule="evenodd" clip-rule="evenodd" d="M43.8785 36.1843L43.732 36.3274C43.4285 36.6224 42.9378 36.5851 42.6781 36.2507C42.6748 36.247 42.6724 36.2433 42.6695 36.2396C42.4521 35.9599 42.482 35.5603 42.7331 35.3104L42.8783 35.166C43.1774 34.869 43.6701 34.8965 43.9286 35.2288C43.9322 35.2329 43.9355 35.2374 43.9384 35.2415C44.1608 35.5266 44.1374 35.932 43.8785 36.1843Z" fill="#C2C4C6"/>
<path fill-rule="evenodd" clip-rule="evenodd" d="M131.682 98.6285C148.873 102.633 166.065 106.638 183.256 110.643C180.972 89.6461 201.256 76.5506 199.07 55.1587C185.607 48.4618 172.145 41.7646 158.682 35.0677C158.722 59.2907 131.739 74.01 131.682 98.6285Z" fill="white"/>
<path fill-rule="evenodd" clip-rule="evenodd" d="M131.682 98.6285C148.873 102.633 166.065 106.638 183.256 110.643C180.972 89.6461 201.256 76.5506 199.07 55.1587C185.607 48.4618 172.145 41.7646 158.682 35.0677C158.722 59.2907 131.739 74.01 131.682 98.6285Z" fill="url(#paint14_linear)"/>
<path fill-rule="evenodd" clip-rule="evenodd" d="M193.003 60.4679C182.793 55.7788 172.584 51.0896 162.375 46.4005C161.57 46.0313 161.142 45.1501 161.334 44.2857C161.372 44.1122 161.41 43.9382 161.446 43.7639C161.692 42.57 162.985 41.9182 164.085 42.4441C174.254 47.3096 184.424 52.1751 194.594 57.0403C195.29 57.3734 195.715 58.1016 195.654 58.8712C195.653 58.8847 195.652 58.8979 195.651 58.9114C195.547 60.2098 194.187 61.0115 193.003 60.4679Z" fill="#C2C4C6"/>
<path fill-rule="evenodd" clip-rule="evenodd" d="M171.39 69.522C165.6 67.3099 159.809 65.0975 154.018 62.8854C153.446 62.6668 153.214 61.978 153.542 61.4606C153.593 61.3806 153.644 61.3002 153.694 61.2202C153.944 60.8256 154.436 60.6619 154.87 60.8317C160.633 63.0848 166.396 65.3379 172.158 67.591C172.712 67.8076 172.942 68.4644 172.647 68.9805L172.58 69.0982C172.343 69.5134 171.837 69.6927 171.39 69.522Z" fill="#C2C4C6"/>
<path fill-rule="evenodd" clip-rule="evenodd" d="M182.789 77.9439C172.401 74.1524 162.013 70.3609 151.626 66.5689C151.034 66.3532 150.803 65.6401 151.153 65.1163C151.205 65.0383 151.258 64.96 151.31 64.8816C151.56 64.5066 152.034 64.3532 152.456 64.5107C162.795 68.3749 173.133 72.239 183.472 76.1031C184.028 76.3111 184.271 76.9646 183.984 77.484C183.981 77.4897 183.978 77.4955 183.975 77.5012C183.743 77.9205 183.239 78.108 182.789 77.9439Z" fill="#C2C4C6"/>
<path fill-rule="evenodd" clip-rule="evenodd" d="M165.425 83.5082C158.552 81.3142 151.678 79.1206 144.805 76.9266C144.2 76.7334 143.942 76.0224 144.277 75.4834C144.324 75.4079 144.372 75.3324 144.419 75.2565C144.656 74.8783 145.121 74.7117 145.546 74.8504C152.388 77.0903 159.229 79.3303 166.071 81.5706C166.648 81.7593 166.915 82.4264 166.622 82.9585C166.606 82.988 166.59 83.0176 166.574 83.0467C166.35 83.4557 165.869 83.6502 165.425 83.5082Z" fill="#C2C4C6"/>
<path fill-rule="evenodd" clip-rule="evenodd" d="M156.237 84.8351C151.689 83.4546 147.14 82.0742 142.592 80.6933C141.996 80.5123 141.725 79.8281 142.028 79.2845C142.071 79.2074 142.114 79.1306 142.157 79.0535C142.382 78.6543 142.857 78.4685 143.294 78.6047C147.822 80.0155 152.35 81.4268 156.878 82.8376C157.451 83.0161 157.73 83.6667 157.458 84.2009C157.434 84.2472 157.41 84.2936 157.387 84.34C157.173 84.7625 156.69 84.9726 156.237 84.8351Z" fill="#C2C4C6"/>
<path fill-rule="evenodd" clip-rule="evenodd" d="M173.54 65.6583C167.821 63.365 162.102 61.0713 156.383 58.778C155.875 58.5741 155.668 57.9694 155.939 57.4944C157.505 54.7465 158.888 51.9368 159.947 49.0138C160.124 48.526 160.683 48.2962 161.156 48.5087C166.636 50.9673 172.115 53.426 177.594 55.8846C178.004 56.0688 178.221 56.5303 178.09 56.9611C177.223 59.8168 176.038 62.5576 174.676 65.2353C174.465 65.6489 173.97 65.831 173.54 65.6583Z" fill="#C2C4C6"/>
<path fill-rule="evenodd" clip-rule="evenodd" d="M149.95 34.8219L169.16 164.165H122.201L149.95 34.8219Z" fill="url(#paint15_linear)"/>
<path opacity="0.06" fill-rule="evenodd" clip-rule="evenodd" d="M81.7967 170L78.6813 169.994C45.3588 169.859 20.4664 167.568 21.5317 164.762C20.4445 161.898 46.3964 159.571 78.6219 159.525L82.5241 159.531C113.844 159.666 138.8 161.956 139.865 164.762C138.767 167.655 112.277 170 81.7967 170Z" fill="#1A1D21"/>
<path d="M62.2463 28.5885H144.505C147.942 28.5885 150.728 31.3745 150.728 34.8112C150.728 35.1734 150.696 35.535 150.633 35.8917L128.963 158.79C128.438 161.764 125.855 163.932 122.835 163.932H40.5761C37.1394 163.932 34.3534 161.146 34.3534 157.709C34.3534 157.347 34.385 156.985 34.4479 156.629L56.1182 33.7306C56.6426 30.7567 59.2265 28.5885 62.2463 28.5885Z" fill="url(#paint16_linear)"/>
<path d="M62.2463 28.5885H144.505C147.942 28.5885 150.728 31.3745 150.728 34.8112C150.728 35.1734 150.696 35.535 150.633 35.8917L128.963 158.79C128.438 161.764 125.855 163.932 122.835 163.932H40.5761C37.1394 163.932 34.3534 161.146 34.3534 157.709C34.3534 157.347 34.385 156.985 34.4479 156.629L56.1182 33.7306C56.6426 30.7567 59.2265 28.5885 62.2463 28.5885Z" fill="url(#paint17_linear)"/>
<path d="M58.7986 28.5885H141.057C144.494 28.5885 147.28 31.3745 147.28 34.8112C147.28 35.1734 147.248 35.535 147.185 35.8917L125.515 158.79C124.991 161.764 122.407 163.932 119.387 163.932H37.1283C33.6916 163.932 30.9056 161.146 30.9056 157.709C30.9056 157.347 30.9373 156.985 31.0002 156.629L52.6704 33.7306C53.1948 30.7567 55.7787 28.5885 58.7986 28.5885Z" fill="url(#paint18_linear)"/>
<path opacity="0.432501" fill-rule="evenodd" clip-rule="evenodd" d="M60.9872 93.9267H115.436L112.693 109.483H58.2441L60.9872 93.9267Z" fill="url(#paint19_linear)"/>
<path opacity="0.432501" fill-rule="evenodd" clip-rule="evenodd" d="M31.4294 93.9267H46.9861L44.2431 109.483H28.6863L31.4294 93.9267Z" fill="url(#paint20_linear)"/>
<path opacity="0.239304" d="M50.5559 115.706H59.842C60.7011 115.706 61.3976 116.403 61.3976 117.262C61.3976 117.352 61.3897 117.443 61.374 117.532L59.7282 126.866C59.5971 127.609 58.9511 128.151 58.1961 128.151H48.9101C48.0509 128.151 47.3544 127.455 47.3544 126.596C47.3544 126.505 47.3623 126.415 47.3781 126.326L49.0239 116.992C49.155 116.248 49.801 115.706 50.5559 115.706Z" fill="white"/>
<path opacity="0.239304" d="M75.4466 115.706H117.402C118.261 115.706 118.957 116.403 118.957 117.262C118.957 117.352 118.95 117.443 118.934 117.532L117.288 126.866C117.157 127.609 116.511 128.151 115.756 128.151H73.8008C72.9416 128.151 72.2451 127.455 72.2451 126.596C72.2451 126.505 72.253 126.415 72.2688 126.326L73.9146 116.992C74.0457 116.248 74.6917 115.706 75.4466 115.706Z" fill="white"/>
<path opacity="0.239304" d="M47.4446 140.597H56.7306C57.5898 140.597 58.2863 141.293 58.2863 142.152C58.2863 142.243 58.2783 142.333 58.2626 142.423L56.6168 151.757C56.4857 152.5 55.8397 153.042 55.0847 153.042H45.7987C44.9395 153.042 44.243 152.346 44.243 151.487C44.243 151.396 44.251 151.306 44.2667 151.216L45.9125 141.882C46.0436 141.139 46.6896 140.597 47.4446 140.597Z" fill="white"/>
<path opacity="0.239304" d="M72.3353 140.597H114.29C115.15 140.597 115.846 141.293 115.846 142.152C115.846 142.243 115.838 142.333 115.822 142.423L114.177 151.757C114.046 152.5 113.4 153.042 112.645 153.042H70.6895C69.8303 153.042 69.1338 152.346 69.1338 151.487C69.1338 151.396 69.1417 151.306 69.1574 151.216L70.8033 141.882C70.9344 141.139 71.5803 140.597 72.3353 140.597Z" fill="white"/>
<g filter="url(#filter0_d)">
<path d="M90.6629 41.0339H132.618C133.477 41.0339 134.174 41.7304 134.174 42.5895C134.174 42.6801 134.166 42.7705 134.15 42.8597L132.504 52.1937C132.373 52.9372 131.727 53.4792 130.972 53.4792H89.0171C88.1579 53.4792 87.4614 52.7827 87.4614 51.9236C87.4614 51.833 87.4693 51.7426 87.4851 51.6534L89.1309 42.3194C89.262 41.5759 89.908 41.0339 90.6629 41.0339Z" fill="white"/>
</g>
<path opacity="0.0977282" fill-rule="evenodd" clip-rule="evenodd" d="M96.6353 44.1452H126.646C128.11 44.1452 129.297 45.3321 129.297 46.7962C129.297 46.9505 129.283 47.1046 129.256 47.2565L129.161 47.7968C128.899 49.2838 127.607 50.3679 126.097 50.3679H96.0867C94.6226 50.3679 93.4357 49.181 93.4357 47.7169C93.4357 47.5626 93.4492 47.4085 93.476 47.2565L93.5713 46.7163C93.8335 45.2293 95.1254 44.1452 96.6353 44.1452Z" fill="black"/>
<path opacity="0.239304" d="M56.7787 75.1766H66.0647C66.9239 75.1766 67.6204 75.8731 67.6204 76.7323C67.6204 76.8229 67.6125 76.9133 67.5967 77.0024L65.9509 86.3365C65.8198 87.08 65.1738 87.622 64.4189 87.622H55.1328C54.2736 87.622 53.5771 86.9255 53.5771 86.0663C53.5771 85.9758 53.5851 85.8854 53.6008 85.7962L55.2466 76.4622C55.3777 75.7187 56.0237 75.1766 56.7787 75.1766Z" fill="white"/>
<path opacity="0.239304" d="M81.6693 75.1766H123.624C124.484 75.1766 125.18 75.8731 125.18 76.7323C125.18 76.8229 125.172 76.9133 125.157 77.0024L123.511 86.3365C123.38 87.08 122.734 87.622 121.979 87.622H80.0235C79.1643 87.622 78.4678 86.9255 78.4678 86.0663C78.4678 85.9758 78.4757 85.8854 78.4915 85.7962L80.1373 76.4622C80.2684 75.7187 80.9144 75.1766 81.6693 75.1766Z" fill="white"/>
<path opacity="0.239304" d="M56.7787 75.1766H66.0647C66.9239 75.1766 67.6204 75.8731 67.6204 76.7323C67.6204 76.8229 67.6125 76.9133 67.5967 77.0024L65.9509 86.3365C65.8198 87.08 65.1738 87.622 64.4189 87.622H55.1328C54.2736 87.622 53.5771 86.9255 53.5771 86.0663C53.5771 85.9758 53.5851 85.8854 53.6008 85.7962L55.2466 76.4622C55.3777 75.7187 56.0237 75.1766 56.7787 75.1766Z" fill="white"/>
<path opacity="0.239304" d="M81.6693 75.1766H123.624C124.484 75.1766 125.18 75.8731 125.18 76.7323C125.18 76.8229 125.172 76.9133 125.157 77.0024L123.511 86.3365C123.38 87.08 122.734 87.622 121.979 87.622H80.0235C79.1643 87.622 78.4678 86.9255 78.4678 86.0663C78.4678 85.9758 78.4757 85.8854 78.4915 85.7962L80.1373 76.4622C80.2684 75.7187 80.9144 75.1766 81.6693 75.1766Z" fill="white"/>
<g filter="url(#filter1_d)">
<path d="M65.7722 41.0339H75.0582C75.9174 41.0339 76.6139 41.7304 76.6139 42.5895C76.6139 42.6801 76.606 42.7705 76.5903 42.8597L74.9444 52.1937C74.8133 52.9372 74.1673 53.4792 73.4124 53.4792H64.1264C63.2672 53.4792 62.5707 52.7827 62.5707 51.9236C62.5707 51.833 62.5786 51.7426 62.5943 51.6534L64.2402 42.3194C64.3713 41.5759 65.0172 41.0339 65.7722 41.0339Z" fill="white"/>
</g>
<g filter="url(#filter2_d)">
<path d="M34.9198 82.955H46.6853C47.7163 82.955 48.5521 83.7908 48.5521 84.8218C48.5521 84.9305 48.5426 85.0389 48.5238 85.146L46.5488 96.3468C46.3914 97.239 45.6163 97.8894 44.7103 97.8894H32.9448C31.9138 97.8894 31.078 97.0536 31.078 96.0226C31.078 95.914 31.0875 95.8055 31.1064 95.6985L33.0814 84.4976C33.2387 83.6054 34.0139 82.955 34.9198 82.955Z" fill="white"/>
</g>
<g filter="url(#filter3_d)">
<path d="M64.4776 82.955H115.135C116.166 82.955 117.002 83.7908 117.002 84.8218C117.002 84.9305 116.992 85.0389 116.973 85.146L114.998 96.3468C114.841 97.239 114.066 97.8894 113.16 97.8894H62.5025C61.4715 97.8894 60.6357 97.0536 60.6357 96.0226C60.6357 95.914 60.6452 95.8055 60.6641 95.6985L62.6391 84.4976C62.7964 83.6054 63.5716 82.955 64.4776 82.955Z" fill="white"/>
</g>
<path opacity="0.12" fill-rule="evenodd" clip-rule="evenodd" d="M71.9555 86.6886H107.968C109.725 86.6886 111.149 88.1129 111.149 89.8698C111.149 90.055 111.133 90.2398 111.101 90.4222L110.987 91.0705C110.672 92.8549 109.122 94.1558 107.31 94.1558H71.2972C69.5402 94.1558 68.116 92.7315 68.116 90.9746C68.116 90.7894 68.1321 90.6046 68.1643 90.4222L68.2786 89.7739C68.5932 87.9895 70.1436 86.6886 71.9555 86.6886Z" fill="url(#paint21_linear)"/>
<path fill-rule="evenodd" clip-rule="evenodd" d="M38.4065 93.2094L36.674 91.4769C36.3322 91.1351 36.3322 90.5811 36.674 90.2393C37.0157 89.8976 37.5698 89.8976 37.9115 90.2393L39.0253 91.3531L43.1091 87.2693C43.4508 86.9275 44.0049 86.9275 44.3466 87.2693C44.6884 87.611 44.6884 88.1651 44.3466 88.5068L39.644 93.2094C39.3023 93.5511 38.7482 93.5511 38.4065 93.2094Z" fill="url(#paint22_linear)"/>
<path fill-rule="evenodd" clip-rule="evenodd" d="M67.3813 49.5792L65.9375 48.1354C65.6527 47.8506 65.6527 47.3889 65.9375 47.1041C66.2223 46.8194 66.684 46.8194 66.9688 47.1041L67.8969 48.0323L71.3001 44.6291C71.5849 44.3443 72.0466 44.3443 72.3314 44.6291C72.6162 44.9139 72.6162 45.3756 72.3314 45.6604L68.4126 49.5792C68.1278 49.864 67.6661 49.864 67.3813 49.5792Z" fill="#D1D2D5"/>
<rect x="132.661" y="108.013" width="6.22404" height="17.1536" transform="rotate(-59.59 132.661 108.013)" fill="#2D3239"/>
<rect x="132.661" y="108.013" width="3.33933" height="17.1536" transform="rotate(-59.59 132.661 108.013)" fill="#1A1D21" fill-opacity="0.4"/>
<circle cx="112.342" cy="92.4833" r="30.0516" fill="#545B63"/>
<circle cx="112.342" cy="92.4833" r="23.3027" fill="url(#paint23_linear)"/>
<circle opacity="0.10615" cx="112.342" cy="92.4833" r="23.3027" fill="white"/>
<mask id="mask0" mask-type="alpha" maskUnits="userSpaceOnUse" x="89" y="69" width="47" height="47">
<circle cx="112.342" cy="92.4833" r="23.3027" fill="white"/>
</mask>
<g mask="url(#mask0)">
<g filter="url(#filter4_d)">
<path d="M78.7897 83.1309C78.7897 81.2866 80.2847 79.7915 82.129 79.7915H123.731C125.826 79.7915 127.403 81.6979 127.011 83.7557L123.831 100.452C123.531 102.027 122.154 103.167 120.551 103.167H82.129C80.2847 103.167 78.7897 101.672 78.7897 99.8275V83.1309Z" fill="white"/>
</g>
<rect opacity="0.12" x="78.7897" y="85.9137" width="38.9588" height="11.1311" rx="5.56555" fill="url(#paint24_linear)"/>
</g>
<path d="M143.161 117.226L148.978 107.315C149.502 106.422 150.651 106.123 151.544 106.648L180.371 123.567C184.032 125.716 185.258 130.426 183.109 134.087C180.961 137.748 176.251 138.974 172.59 136.825L143.827 119.943C143.355 119.693 143.013 119.253 142.885 118.734C142.758 118.215 142.858 117.667 143.161 117.226Z" fill="#545B63"/>
<mask id="mask1" mask-type="alpha" maskUnits="userSpaceOnUse" x="142" y="106" width="43" height="32">
<path d="M143.161 117.226L148.978 107.315C149.502 106.422 150.651 106.123 151.544 106.648L180.371 123.567C184.032 125.716 185.258 130.426 183.109 134.087C180.961 137.748 176.251 138.974 172.59 136.825L143.827 119.943C143.355 119.693 143.013 119.253 142.885 118.734C142.758 118.215 142.858 117.667 143.161 117.226Z" fill="white"/>
</mask>
<g mask="url(#mask1)">
<path d="M140.348 121.771L147.109 110.252L179.752 129.411C182.208 130.852 182.685 134.599 180.818 137.78C178.951 140.962 175.446 142.372 172.991 140.931L140.348 121.771Z" fill="#1A1D21" fill-opacity="0.24"/>
</g>
<path opacity="0.4" d="M124.134 72.3864C121.704 70.9418 119.029 69.9568 116.242 69.4806L89.3771 96.364C90.1834 101.22 92.5066 105.696 96.0136 109.15L129.009 76.1921C127.557 74.7159 125.918 73.4364 124.134 72.3864Z" fill="url(#paint25_linear)"/>
<path opacity="0.4" d="M131.371 79.0417L98.9007 111.512C99.4256 111.887 99.988 112.243 100.55 112.58C101.113 112.918 101.619 113.18 102.163 113.443L133.302 82.3037C132.76 81.1589 132.114 80.0669 131.371 79.0417Z" fill="url(#paint26_linear)"/>
<defs>
<filter id="filter0_d" x="80.7828" y="34.3552" width="60.0696" height="25.8027" filterUnits="userSpaceOnUse" color-interpolation-filters="sRGB">
<feFlood flood-opacity="0" result="BackgroundImageFix"/>
<feColorMatrix in="SourceAlpha" type="matrix" values="0 0 0 0 0 0 0 0 0 0 0 0 0 0 0 0 0 0 127 0"/>
<feOffset/>
<feGaussianBlur stdDeviation="3.33933"/>
<feColorMatrix type="matrix" values="0 0 0 0 0 0 0 0 0 0 0 0 0 0 0 0 0 0 0.239074 0"/>
<feBlend mode="normal" in2="BackgroundImageFix" result="effect1_dropShadow"/>
<feBlend mode="normal" in="SourceGraphic" in2="effect1_dropShadow" result="shape"/>
</filter>
<filter id="filter1_d" x="55.892" y="34.3552" width="27.4005" height="25.8027" filterUnits="userSpaceOnUse" color-interpolation-filters="sRGB">
<feFlood flood-opacity="0" result="BackgroundImageFix"/>
<feColorMatrix in="SourceAlpha" type="matrix" values="0 0 0 0 0 0 0 0 0 0 0 0 0 0 0 0 0 0 127 0"/>
<feOffset/>
<feGaussianBlur stdDeviation="3.33933"/>
<feColorMatrix type="matrix" values="0 0 0 0 0 0 0 0 0 0 0 0 0 0 0 0 0 0 0.239074 0"/>
<feBlend mode="normal" in2="BackgroundImageFix" result="effect1_dropShadow"/>
<feBlend mode="normal" in="SourceGraphic" in2="effect1_dropShadow" result="shape"/>
</filter>
<filter id="filter2_d" x="6.58959" y="67.3715" width="66.451" height="63.9113" filterUnits="userSpaceOnUse" color-interpolation-filters="sRGB">
<feFlood flood-opacity="0" result="BackgroundImageFix"/>
<feColorMatrix in="SourceAlpha" type="matrix" values="0 0 0 0 0 0 0 0 0 0 0 0 0 0 0 0 0 0 127 0"/>
<feOffset dy="8.90488"/>
<feGaussianBlur stdDeviation="12.2442"/>
<feColorMatrix type="matrix" values="0 0 0 0 0.101961 0 0 0 0 0.113725 0 0 0 0 0.129412 0 0 0 0.520952 0"/>
<feBlend mode="normal" in2="BackgroundImageFix" result="effect1_dropShadow"/>
<feBlend mode="normal" in="SourceGraphic" in2="effect1_dropShadow" result="shape"/>
</filter>
<filter id="filter3_d" x="36.1473" y="67.3715" width="105.343" height="63.9113" filterUnits="userSpaceOnUse" color-interpolation-filters="sRGB">
<feFlood flood-opacity="0" result="BackgroundImageFix"/>
<feColorMatrix in="SourceAlpha" type="matrix" values="0 0 0 0 0 0 0 0 0 0 0 0 0 0 0 0 0 0 127 0"/>
<feOffset dy="8.90488"/>
<feGaussianBlur stdDeviation="12.2442"/>
<feColorMatrix type="matrix" values="0 0 0 0 0.101961 0 0 0 0 0.113725 0 0 0 0 0.129412 0 0 0 0.520952 0"/>
<feBlend mode="normal" in2="BackgroundImageFix" result="effect1_dropShadow"/>
<feBlend mode="normal" in="SourceGraphic" in2="effect1_dropShadow" result="shape"/>
</filter>
<filter id="filter4_d" x="69.8848" y="75.3391" width="66.0915" height="41.1851" filterUnits="userSpaceOnUse" color-interpolation-filters="sRGB">
<feFlood flood-opacity="0" result="BackgroundImageFix"/>
<feColorMatrix in="SourceAlpha" type="matrix" values="0 0 0 0 0 0 0 0 0 0 0 0 0 0 0 0 0 0 127 0"/>
<feOffset dy="4.45244"/>
<feGaussianBlur stdDeviation="4.45244"/>
<feColorMatrix type="matrix" values="0 0 0 0 0 0 0 0 0 0 0 0 0 0 0 0 0 0 0.146799 0"/>
<feBlend mode="normal" in2="BackgroundImageFix" result="effect1_dropShadow"/>
<feBlend mode="normal" in="SourceGraphic" in2="effect1_dropShadow" result="shape"/>
</filter>
<linearGradient id="paint0_linear" x1="27.8897" y1="14.8076" x2="27.8897" y2="35.4093" gradientUnits="userSpaceOnUse">
<stop stop-color="#EBECF0" stop-opacity="0.64"/>
<stop offset="1" stop-color="white" stop-opacity="0.01"/>
</linearGradient>
<linearGradient id="paint1_linear" x1="210.416" y1="150.823" x2="210.231" y2="103.408" gradientUnits="userSpaceOnUse">
<stop stop-color="white"/>
<stop offset="1" stop-color="#DCDCDC"/>
</linearGradient>
<linearGradient id="paint2_linear" x1="64.0505" y1="87.2367" x2="64.0029" y2="120.299" gradientUnits="userSpaceOnUse">
<stop stop-color="#E5E5E5"/>
<stop offset="1" stop-color="#B2B2B2"/>
</linearGradient>
<linearGradient id="paint3_linear" x1="144.39" y1="87.9581" x2="144.39" y2="95.4581" gradientUnits="userSpaceOnUse">
<stop stop-color="#EBECF0"/>
<stop offset="1" stop-color="white"/>
</linearGradient>
<linearGradient id="paint4_linear" x1="131.732" y1="119.573" x2="132.448" y2="111.876" gradientUnits="userSpaceOnUse">
<stop stop-color="#E5E5E5"/>
<stop offset="1" stop-color="#B2B2B2"/>
</linearGradient>
<linearGradient id="paint5_linear" x1="226.734" y1="140.163" x2="226.54" y2="137.082" gradientUnits="userSpaceOnUse">
<stop stop-color="#E5E5E5"/>
<stop offset="1" stop-color="#B2B2B2"/>
</linearGradient>
<linearGradient id="paint6_linear" x1="228.244" y1="109.78" x2="227.128" y2="103.545" gradientUnits="userSpaceOnUse">
<stop stop-color="#E5E5E5"/>
<stop offset="1" stop-color="#B2B2B2"/>
</linearGradient>
<linearGradient id="paint7_linear" x1="120.879" y1="137.416" x2="121.007" y2="135.567" gradientUnits="userSpaceOnUse">
<stop stop-color="#E5E5E5"/>
<stop offset="1" stop-color="#B2B2B2"/>
</linearGradient>
<linearGradient id="paint8_linear" x1="247.148" y1="131.532" x2="245.898" y2="118.227" gradientUnits="userSpaceOnUse">
<stop stop-color="#E5E5E5"/>
<stop offset="1" stop-color="#B2B2B2"/>
</linearGradient>
<linearGradient id="paint9_linear" x1="153.573" y1="102.955" x2="172.573" y2="102.955" gradientUnits="userSpaceOnUse">
<stop stop-color="#D8D8D8"/>
<stop offset="1" stop-color="#808080"/>
</linearGradient>
<linearGradient id="paint10_linear" x1="162.64" y1="132.972" x2="178.667" y2="132.972" gradientUnits="userSpaceOnUse">
<stop stop-color="#E5E5E5"/>
<stop offset="1" stop-color="#B2B2B2"/>
</linearGradient>
<linearGradient id="paint11_linear" x1="155.261" y1="115.282" x2="155.313" y2="120.531" gradientUnits="userSpaceOnUse">
<stop stop-color="#E5E5E5"/>
<stop offset="1" stop-color="#B2B2B2"/>
</linearGradient>
<linearGradient id="paint12_linear" x1="134.43" y1="128.838" x2="134.707" y2="124.114" gradientUnits="userSpaceOnUse">
<stop stop-color="#E5E5E5"/>
<stop offset="1" stop-color="#B2B2B2"/>
</linearGradient>
<linearGradient id="paint13_linear" x1="60" y1="8" x2="83.5" y2="40" gradientUnits="userSpaceOnUse">
<stop stop-color="white"/>
<stop offset="1" stop-color="#EBEBEB"/>
</linearGradient>
<linearGradient id="paint14_linear" x1="146.862" y1="53.1975" x2="146.862" y2="94.807" gradientUnits="userSpaceOnUse">
<stop stop-opacity="0.1"/>
<stop offset="1" stop-color="white" stop-opacity="0.01"/>
</linearGradient>
<linearGradient id="paint15_linear" x1="132.512" y1="53.9942" x2="200.044" y2="139.881" gradientUnits="userSpaceOnUse">
<stop stop-opacity="0.16"/>
<stop offset="1" stop-color="white" stop-opacity="0.01"/>
</linearGradient>
<linearGradient id="paint16_linear" x1="-23.8337" y1="28.5885" x2="-23.8337" y2="163.932" gradientUnits="userSpaceOnUse">
<stop stop-color="#FF8E3C"/>
<stop offset="1" stop-color="#FF4244"/>
</linearGradient>
<linearGradient id="paint17_linear" x1="34.3534" y1="28.5885" x2="34.3534" y2="163.932" gradientUnits="userSpaceOnUse">
<stop stop-opacity="0.317444"/>
<stop offset="1" stop-opacity="0.3181"/>
</linearGradient>
<linearGradient id="paint18_linear" x1="-27.2815" y1="28.5885" x2="-27.2815" y2="163.932" gradientUnits="userSpaceOnUse">
<stop stop-color="#FF8E3C"/>
<stop offset="1" stop-color="#FF4244"/>
</linearGradient>
<linearGradient id="paint19_linear" x1="59.7956" y1="94.7707" x2="59.7956" y2="109.483" gradientUnits="userSpaceOnUse">
<stop stop-color="white"/>
<stop offset="1" stop-color="white" stop-opacity="0.01"/>
</linearGradient>
<linearGradient id="paint20_linear" x1="29.1828" y1="94.7707" x2="29.1828" y2="109.483" gradientUnits="userSpaceOnUse">
<stop stop-color="white"/>
<stop offset="1" stop-color="white" stop-opacity="0.01"/>
</linearGradient>
<linearGradient id="paint21_linear" x1="68.116" y1="86.6886" x2="70.6317" y2="101.187" gradientUnits="userSpaceOnUse">
<stop stop-color="#FF4F42"/>
<stop offset="1" stop-color="#FF8E3C"/>
</linearGradient>
<linearGradient id="paint22_linear" x1="36.4177" y1="87.013" x2="42.6921" y2="94.9721" gradientUnits="userSpaceOnUse">
<stop stop-color="#FF4F42"/>
<stop offset="1" stop-color="#FF8E3C"/>
</linearGradient>
<linearGradient id="paint23_linear" x1="164.772" y1="173.935" x2="183.274" y2="38.0498" gradientUnits="userSpaceOnUse">
<stop stop-color="#FF4244"/>
<stop offset="1" stop-color="#FF8E3C"/>
</linearGradient>
<linearGradient id="paint24_linear" x1="78.7897" y1="85.9137" x2="84.6703" y2="106.496" gradientUnits="userSpaceOnUse">
<stop stop-color="#FF4F42"/>
<stop offset="1" stop-color="#FF8E3C"/>
</linearGradient>
<linearGradient id="paint25_linear" x1="112.354" y1="59.6737" x2="87.9412" y2="83.272" gradientUnits="userSpaceOnUse">
<stop stop-color="white"/>
<stop offset="1" stop-color="white" stop-opacity="0.01"/>
</linearGradient>
<linearGradient id="paint26_linear" x1="118.845" y1="70.5371" x2="97.6736" y2="91.0216" gradientUnits="userSpaceOnUse">
<stop stop-color="white"/>
<stop offset="1" stop-color="white" stop-opacity="0.01"/>
</linearGradient>
</defs>
</svg>
