<svg width="29" height="22" viewBox="0 0 29 22" fill="none" xmlns="http://www.w3.org/2000/svg">
<g id="Albania (AL)">
<g clip-path="url(#clip0_19469_12529)">
<path id="Vector" d="M0 0.226562H29V21.9766H0V0.226562Z" fill="#FF0000"/>
<path id="a" d="M12.325 4.4541C12.1165 4.4541 11.7676 4.52207 11.7722 4.68066C11.1831 4.58551 11.1242 4.82566 11.1605 5.04316C11.2148 4.95707 11.2828 4.90723 11.3372 4.9027C11.4142 4.8891 11.4958 4.91629 11.5819 4.96613C11.6631 5.01707 11.7364 5.07967 11.7994 5.15191C11.5909 5.20176 11.4278 5.17004 11.2647 5.14285C11.1725 5.1232 11.0849 5.08631 11.0064 5.0341C10.9384 4.98879 10.9158 4.94348 10.8115 4.83926C10.6892 4.71238 10.5578 4.74863 10.5986 4.94348C10.6937 5.12473 10.8523 5.20629 11.0517 5.24254C11.1469 5.25613 11.2919 5.28785 11.455 5.28785C11.6181 5.28785 11.7994 5.2652 11.899 5.28785C11.8401 5.3241 11.7722 5.39207 11.6362 5.41473C11.5003 5.44191 11.2964 5.33316 11.1695 5.30598C11.1831 5.4102 11.319 5.50988 11.5819 5.56426C12.0169 5.65488 12.3748 5.72738 12.615 5.85879C12.8049 5.96468 12.9726 6.10623 13.1089 6.27566C13.3219 6.52488 13.3355 6.71973 13.3445 6.76504C13.3898 7.16379 13.2494 7.39035 12.9865 7.46285C12.8597 7.49457 12.624 7.43113 12.5425 7.33145C12.4519 7.23176 12.3748 7.05957 12.3975 6.7877C12.4201 6.68801 12.538 6.4116 12.4383 6.35723C11.9658 6.09762 11.4769 5.86906 10.9747 5.67301C10.8614 5.62769 10.7708 5.78176 10.7345 5.8452C10.3999 5.79856 10.0799 5.67798 9.79777 5.49222C9.51561 5.30646 9.27836 5.06019 9.10327 4.77129C8.91295 4.42691 8.59124 4.77129 8.64561 5.10207C8.73171 5.46457 9.00811 5.72738 9.34342 5.9177C9.68327 6.10348 10.1137 6.28926 10.5442 6.2802C10.7798 6.32551 10.7753 6.62457 10.4989 6.68348C9.95061 6.68348 9.51108 6.67441 9.09874 6.27566C8.78608 5.9902 8.61389 6.33004 8.69999 6.52035C8.85405 7.11394 9.70139 7.2816 10.5578 7.09129C10.8931 7.03691 10.6937 7.39035 10.6031 7.39488C10.2406 7.65316 9.6017 7.90238 9.0353 7.39488C8.77702 7.19551 8.6003 7.35863 8.69999 7.6441C8.94921 8.39176 9.90983 8.23316 10.5669 7.87066C10.7345 7.77551 10.8886 7.99301 10.6847 8.16066C9.86452 8.7316 9.45671 8.74066 9.08514 8.52316C8.62296 8.33738 8.58671 8.84941 8.85858 9.0216C9.16217 9.20285 9.93702 9.06691 10.508 8.70441C10.7526 8.52316 10.7617 8.80863 10.6076 8.92191C9.93249 9.50644 9.66514 9.66051 8.9628 9.56535C8.61389 9.53816 8.61842 9.96863 8.8903 10.1363C9.26639 10.3674 10.0005 9.98676 10.5669 9.51098C10.807 9.3841 10.8478 9.59254 10.73 9.84176C10.4792 10.1967 10.1381 10.4782 9.74217 10.6574C9.42499 10.7797 9.12592 10.7616 8.91296 10.6891C8.65014 10.5985 8.61842 10.8704 8.76342 11.115C8.84952 11.2646 9.20749 11.3099 9.59717 11.1739C9.98686 11.038 10.4037 10.7118 10.6892 10.3357C10.9384 10.1136 10.9112 10.4082 10.7934 10.6166C10.2225 11.5229 9.69686 11.8582 9.00358 11.8038C8.69999 11.7494 8.62749 11.985 8.82233 12.2116C9.16671 12.4925 9.59264 12.4835 9.97327 12.2025C10.304 11.8854 10.943 11.1875 11.2783 10.816C11.5139 10.6302 11.5909 10.816 11.5184 11.1966C11.455 11.4141 11.3009 11.6497 10.8705 11.8129C10.5759 11.9805 10.798 12.2116 11.0155 12.2207C11.1378 12.2207 11.3825 12.0757 11.5728 11.8672C11.8175 11.5863 11.8356 11.4005 11.9715 10.9655C12.0984 10.7571 12.3295 10.8568 12.3295 11.0743C12.2162 11.5093 12.1256 11.5863 11.899 11.763C11.6861 11.9669 12.0486 12.0349 12.1709 11.9488C12.5244 11.7132 12.6512 11.405 12.769 11.1241C12.8597 10.9247 13.1044 11.0199 12.9865 11.3507C12.7147 12.1391 12.2615 12.4472 11.4776 12.6104C11.4006 12.6239 11.3508 12.6693 11.378 12.7599L11.6951 13.0771C11.2103 13.2221 10.8161 13.3036 10.3267 13.4396L9.65608 12.9955C9.59717 12.8505 9.56546 12.6239 9.21202 12.7825C8.97639 12.6738 8.86311 12.7146 8.73171 12.8279C8.92202 12.8279 9.00358 12.8822 9.08061 12.9683C9.1803 13.2266 9.40686 13.2538 9.63796 13.1813C9.78749 13.3036 9.86452 13.4033 10.0186 13.5302L9.26186 13.5075C8.98999 13.2221 8.78155 13.2357 8.59124 13.4622C8.44171 13.4849 8.3828 13.4849 8.28311 13.6616C8.43717 13.5982 8.53686 13.58 8.60483 13.648C8.8903 13.8157 9.07608 13.7794 9.21655 13.648L10.0095 13.6979C9.90983 13.7885 9.77389 13.8338 9.66967 13.9154C9.26186 13.7975 9.04436 13.9607 8.97186 14.2914C8.91459 14.424 8.89575 14.5701 8.91749 14.7129C8.95374 14.5769 9.02171 14.4636 9.13952 14.3957C9.50202 14.4863 9.63796 14.3368 9.66061 14.1193C9.84186 13.9743 10.1047 13.9425 10.2814 13.7975C10.4898 13.861 10.5895 13.9018 10.798 13.9697C10.8705 14.1963 11.0381 14.2824 11.31 14.2235C11.6272 14.2325 11.5728 14.3685 11.6 14.4727C11.6906 14.3232 11.6861 14.1736 11.4867 14.0377C11.4142 13.8429 11.2511 13.7522 11.0426 13.8655C10.8433 13.8111 10.7934 13.7296 10.594 13.6707C11.0925 13.5121 11.4459 13.4758 11.9444 13.3172L12.2933 13.6254C12.3612 13.6661 12.4247 13.6752 12.4655 13.6254C12.7781 13.1722 12.9186 12.778 13.204 12.4789C13.3173 12.3521 13.4578 12.1889 13.6119 12.1482C13.6889 12.1255 13.784 12.1391 13.8475 12.2071C13.9064 12.2705 13.9562 12.3929 13.9381 12.5786C13.9064 12.8369 13.843 12.923 13.7705 13.0771C13.6934 13.2357 13.6073 13.3308 13.5122 13.4532C13.3309 13.6933 13.0862 13.8338 12.9412 13.9289C12.6512 14.1147 12.5334 14.0332 12.3069 14.0196C12.0169 14.0513 11.9444 14.1918 12.18 14.3866C12.3975 14.5044 12.5969 14.518 12.76 14.4863C12.8959 14.4591 13.059 14.2824 13.1769 14.1872C13.3037 14.0377 13.5212 14.2144 13.3717 14.3911C13.1044 14.7083 12.8415 14.9168 12.5108 14.9122C12.1619 14.9575 12.2298 15.1524 12.4564 15.2475C12.8733 15.4152 13.2448 15.098 13.4351 14.885C13.5801 14.7264 13.6844 14.7219 13.6617 14.9711C13.5122 15.4197 13.3173 15.5919 12.9911 15.6146C12.7283 15.5874 12.7237 15.7958 12.9186 15.9318C13.3536 16.2308 13.6708 15.7143 13.8203 15.4061C13.9245 15.1252 14.0876 15.2566 14.1058 15.4877C14.1058 15.8004 13.9698 16.0496 13.5937 16.3668C13.8792 16.8244 14.2145 17.2911 14.5 17.7488L15.37 8.05191L14.5 6.52488C14.4094 6.44332 14.1012 6.08082 14.0242 6.02645C13.9925 5.99926 13.9789 5.98113 14.0197 5.96301C14.0605 5.94488 14.1556 5.92676 14.2236 5.9177C14.0423 5.73191 13.8792 5.67301 13.5303 5.57332C13.6164 5.53707 13.698 5.5552 13.9517 5.54613C13.796 5.33693 13.5838 5.17657 13.34 5.08394C13.5303 4.94801 13.5665 4.93895 13.7569 4.78035C13.4567 4.75716 13.1602 4.69938 12.8733 4.60816C12.7019 4.52674 12.5181 4.47466 12.3295 4.4541H12.325ZM12.3612 4.83473C12.5334 4.83473 12.6376 4.89363 12.6376 4.96613C12.6376 5.03863 12.5334 5.09754 12.3612 5.09754C12.189 5.09754 12.0803 5.02957 12.0803 4.9616C12.0803 4.8891 12.189 4.83473 12.3612 4.83473Z" fill="#000001"/>
<path id="a_2" d="M16.675 4.4541C16.8835 4.4541 17.2324 4.52207 17.2278 4.68066C17.8169 4.58551 17.8758 4.82566 17.8395 5.04316C17.7852 4.95707 17.7172 4.90723 17.6628 4.9027C17.5858 4.8891 17.5042 4.91629 17.4181 4.96613C17.3369 5.01707 17.2636 5.07967 17.2006 5.15191C17.4091 5.20176 17.5722 5.17004 17.7353 5.14285C17.8275 5.1232 17.9151 5.08631 17.9936 5.0341C18.0616 4.98879 18.0842 4.94348 18.1885 4.83926C18.3108 4.71238 18.4422 4.74863 18.4014 4.94348C18.3063 5.12473 18.1477 5.20629 17.9483 5.24254C17.8531 5.25613 17.7081 5.28785 17.545 5.28785C17.3819 5.28785 17.2006 5.2652 17.101 5.28785C17.1599 5.3241 17.2278 5.39207 17.3638 5.41473C17.4997 5.44191 17.7036 5.33316 17.8305 5.30598C17.8169 5.4102 17.681 5.50988 17.4181 5.56426C16.9831 5.65488 16.6252 5.72738 16.385 5.85879C16.1951 5.96468 16.0274 6.10623 15.8911 6.27566C15.6781 6.52488 15.6645 6.71973 15.6555 6.76504C15.6102 7.16379 15.7506 7.39035 16.0135 7.46285C16.1403 7.49457 16.376 7.43113 16.4575 7.33145C16.5481 7.23176 16.6252 7.05957 16.6025 6.7877C16.5799 6.68801 16.462 6.4116 16.5617 6.35723C17.0342 6.09762 17.5231 5.86906 18.0253 5.67301C18.1386 5.62769 18.2292 5.78176 18.2655 5.8452C18.6001 5.79856 18.9201 5.67798 19.2022 5.49222C19.4844 5.30646 19.7216 5.06019 19.8967 4.77129C20.087 4.42691 20.4088 4.77129 20.3544 5.10207C20.2683 5.46457 19.9919 5.72738 19.6566 5.9177C19.3167 6.10348 18.8863 6.28926 18.4558 6.2802C18.2202 6.32551 18.2247 6.62457 18.5011 6.68348C19.0494 6.68348 19.4889 6.67441 19.9013 6.27566C20.2139 5.9902 20.3861 6.33004 20.3 6.52035C20.146 7.11394 19.2986 7.2816 18.4422 7.09129C18.1069 7.03691 18.3063 7.39035 18.3969 7.39488C18.7594 7.65316 19.3983 7.90238 19.9647 7.39488C20.223 7.19551 20.3997 7.35863 20.3 7.6441C20.0508 8.39176 19.0902 8.23316 18.4331 7.87066C18.2655 7.77551 18.1114 7.99301 18.3153 8.16066C19.1355 8.7316 19.5433 8.74066 19.9149 8.52316C20.377 8.33738 20.4133 8.84941 20.1414 9.0216C19.8378 9.20285 19.063 9.06691 18.492 8.70441C18.2474 8.52316 18.2383 8.80863 18.3924 8.92191C19.0675 9.50644 19.3349 9.66051 20.0372 9.56535C20.3861 9.53816 20.3816 9.96863 20.1097 10.1363C19.7336 10.3674 18.9995 9.98676 18.4331 9.51098C18.193 9.3841 18.1522 9.59254 18.27 9.84176C18.5208 10.1967 18.8619 10.4782 19.2578 10.6574C19.575 10.7797 19.8741 10.7616 20.087 10.6891C20.3499 10.5985 20.3816 10.8704 20.2366 11.115C20.1505 11.2646 19.7925 11.3099 19.4028 11.1739C19.0131 11.038 18.5963 10.7118 18.3108 10.3357C18.0616 10.1136 18.0888 10.4082 18.2066 10.6166C18.7775 11.5229 19.3031 11.8582 19.9964 11.8038C20.3 11.7494 20.3725 11.985 20.1777 12.2116C19.8333 12.4925 19.4074 12.4835 19.0267 12.2025C18.696 11.8854 18.057 11.1875 17.7217 10.816C17.4861 10.6302 17.4091 10.816 17.4816 11.1966C17.545 11.4141 17.6991 11.6497 18.1295 11.8129C18.4241 11.9805 18.202 12.2116 17.9845 12.2207C17.8622 12.2207 17.6175 12.0757 17.4272 11.8672C17.1825 11.5863 17.1644 11.4005 17.0285 10.9655C16.9016 10.7571 16.6705 10.8568 16.6705 11.0743C16.7838 11.5093 16.8744 11.5863 17.101 11.763C17.3139 11.9669 16.9514 12.0349 16.8291 11.9488C16.4756 11.7132 16.3488 11.405 16.231 11.1241C16.1403 10.9247 15.8956 11.0199 16.0135 11.3507C16.2853 12.1391 16.7385 12.4472 17.5224 12.6104C17.5994 12.6239 17.6492 12.6693 17.622 12.7599L17.3049 13.0771C17.7897 13.2221 18.1839 13.3036 18.6733 13.4396L19.3439 12.9955C19.4028 12.8505 19.4345 12.6239 19.788 12.7825C20.0236 12.6738 20.1369 12.7146 20.2683 12.8279C20.078 12.8279 19.9964 12.8822 19.9194 12.9683C19.8197 13.2266 19.5931 13.2538 19.362 13.1813C19.2125 13.3036 19.1355 13.4033 18.9814 13.5302L19.7381 13.5075C20.01 13.2221 20.2185 13.2357 20.4088 13.4622C20.5583 13.4849 20.6172 13.4849 20.7169 13.6616C20.5628 13.5982 20.4631 13.58 20.3952 13.648C20.1097 13.8157 19.9239 13.7794 19.7835 13.648L18.9905 13.6979C19.0902 13.7885 19.2261 13.8338 19.3303 13.9154C19.7381 13.7975 19.9556 13.9607 20.0281 14.2914C20.0854 14.424 20.1043 14.5701 20.0825 14.7129C20.0463 14.5769 19.9783 14.4636 19.8605 14.3957C19.498 14.4863 19.362 14.3368 19.3394 14.1193C19.1581 13.9743 18.8953 13.9425 18.7186 13.7975C18.5102 13.861 18.4105 13.9018 18.202 13.9697C18.1295 14.1963 17.9619 14.2824 17.69 14.2235C17.3728 14.2325 17.4272 14.3685 17.4 14.4727C17.3094 14.3232 17.3139 14.1736 17.5133 14.0377C17.5858 13.8429 17.7489 13.7522 17.9574 13.8655C18.1567 13.8111 18.2066 13.7296 18.406 13.6707C17.9075 13.5121 17.5541 13.4758 17.0556 13.3172L16.7067 13.6254C16.6388 13.6661 16.5753 13.6752 16.5345 13.6254C16.2219 13.1722 16.0814 12.778 15.796 12.4789C15.6827 12.3521 15.5422 12.1889 15.3881 12.1482C15.3111 12.1255 15.216 12.1391 15.1525 12.2071C15.0936 12.2705 15.0438 12.3929 15.0619 12.5786C15.0936 12.8369 15.157 12.923 15.2295 13.0771C15.3066 13.2357 15.3927 13.3308 15.4878 13.4532C15.6691 13.6933 15.9138 13.8338 16.0588 13.9289C16.3488 14.1147 16.4666 14.0332 16.6931 14.0196C16.9831 14.0513 17.0556 14.1918 16.82 14.3866C16.6025 14.5044 16.4031 14.518 16.24 14.4863C16.1041 14.4591 15.941 14.2824 15.8231 14.1872C15.6963 14.0377 15.4788 14.2144 15.6283 14.3911C15.8956 14.7083 16.1585 14.9168 16.4892 14.9122C16.8381 14.9575 16.7702 15.1524 16.5436 15.2475C16.1267 15.4152 15.7552 15.098 15.5649 14.885C15.4199 14.7264 15.3156 14.7219 15.3383 14.9711C15.4878 15.4197 15.6827 15.5919 16.0089 15.6146C16.2717 15.5874 16.2763 15.7958 16.0814 15.9318C15.6464 16.2308 15.3292 15.7143 15.1797 15.4061C15.0755 15.1252 14.9124 15.2566 14.8942 15.4877C14.8942 15.8004 15.0302 16.0496 15.4063 16.3668C15.1208 16.8244 14.7855 17.2911 14.5 17.7488L13.63 8.05191L14.5 6.52488C14.5906 6.44332 14.8988 6.08082 14.9758 6.02645C15.0075 5.99926 15.0211 5.98113 14.9803 5.96301C14.9395 5.94488 14.8444 5.92676 14.7764 5.9177C14.9577 5.73191 15.1208 5.67301 15.4697 5.57332C15.3836 5.53707 15.302 5.5552 15.0483 5.54613C15.204 5.33693 15.4162 5.17657 15.66 5.08394C15.4697 4.94801 15.4335 4.93895 15.2431 4.78035C15.5433 4.75716 15.8398 4.69938 16.1267 4.60816C16.2981 4.52674 16.4819 4.47466 16.6705 4.4541H16.675ZM16.6388 4.83473C16.4666 4.83473 16.3624 4.89363 16.3624 4.96613C16.3624 5.03863 16.4666 5.09754 16.6388 5.09754C16.811 5.09754 16.9197 5.02957 16.9197 4.9616C16.9197 4.8891 16.811 4.83473 16.6388 4.83473Z" fill="#000001"/>
</g>
</g>
<defs>
<clipPath id="clip0_19469_12529">
<rect y="0.226562" width="29" height="21.75" rx="3" fill="white"/>
</clipPath>
</defs>
</svg>
