<svg width="19" height="20" viewBox="0 0 19 20" fill="none" xmlns="http://www.w3.org/2000/svg">
<path d="M14.25 7.33333C14.25 6.07355 13.7496 4.86537 12.8588 3.97457C11.968 3.08377 10.7598 2.58333 9.5 2.58333C8.24022 2.58333 7.03204 3.08377 6.14124 3.97457C5.25044 4.86537 4.75 6.07355 4.75 7.33333C4.75 12.875 2.375 14.4583 2.375 14.4583H16.625C16.625 14.4583 14.25 12.875 14.25 7.33333Z" stroke="white" stroke-width="0.791667" stroke-linecap="round" stroke-linejoin="round"/>
<path d="M10.8696 17.625C10.7304 17.8649 10.5306 18.0641 10.2903 18.2025C10.0499 18.341 9.7774 18.4139 9.50001 18.4139C9.22263 18.4139 8.95012 18.341 8.70975 18.2025C8.46939 18.0641 8.26962 17.8649 8.13043 17.625" stroke="white" stroke-width="0.791667" stroke-linecap="round" stroke-linejoin="round"/>
<circle cx="14" cy="4" r="3.5" fill="#DC2626" stroke="white"/>
</svg>
