<svg width="25" height="20" viewBox="0 0 25 20" fill="none" xmlns="http://www.w3.org/2000/svg">
<g clip-path="url(#clip0_2369_40929)">
<path d="M0.033057 17.5828C0.104792 16.9935 0.524167 16.5289 0.83134 16.0339C3.91779 11.0669 7.00608 6.10335 10.0907 1.13629C10.5671 0.370757 11.2385 -0.0458351 12.1728 0.00401362C12.8902 0.0431804 13.4567 0.372538 13.8375 0.95826C14.3727 1.78432 14.8822 2.62463 15.4028 3.45959C18.1453 7.86764 20.8767 12.2828 23.6339 16.682C24.3715 17.8605 23.9411 19.1263 22.9993 19.6836C22.6885 19.8687 22.3537 19.9791 21.9858 19.9898C21.8847 19.9916 21.7835 19.9969 21.6824 19.9969C15.2427 19.9969 8.80314 19.9933 2.36353 20.0005C1.48799 20.0005 0.794553 19.7031 0.340231 18.9697C0.1986 18.7418 0.0845592 18.4836 0.0348964 18.2184C-0.00556957 18.0101 0.00914533 17.7929 0.0348964 17.5828H0.033057ZM12.0183 18.4836C15.2188 18.4836 18.4212 18.4836 21.6217 18.4836C21.7375 18.4836 21.8571 18.4801 21.9711 18.4587C22.2857 18.4 22.4788 18.1596 22.4347 17.8534C22.4144 17.7163 22.3464 17.581 22.2728 17.46C20.1336 14.0133 17.9908 10.5684 15.8497 7.12347C14.77 5.38767 13.6958 3.65009 12.6069 1.92141C12.5095 1.76652 12.3402 1.61697 12.1692 1.54932C11.8841 1.43716 11.6541 1.57959 11.4389 1.92497C8.22926 7.08609 5.02141 12.2472 1.81356 17.4083C1.76206 17.492 1.70688 17.5757 1.66641 17.6647C1.50455 18.0225 1.69952 18.3857 2.09314 18.4587C2.19983 18.4783 2.31019 18.4818 2.41871 18.4818C5.6192 18.4818 8.82153 18.4818 12.022 18.4818L12.0183 18.4836Z" fill="#2947F2"/>
<path d="M13.0593 7.93813C12.9968 9.57067 12.9324 11.205 12.8698 12.8375C12.8698 12.8749 12.8698 12.9141 12.8606 12.9497C12.7889 13.2648 12.3732 13.4767 11.9079 13.4393C11.4407 13.4019 11.196 13.1989 11.1831 12.8269C11.1114 10.9522 11.0415 9.07575 10.9735 7.20108C10.9477 6.51388 11.5473 6.08305 12.2996 6.24505C12.8422 6.36077 13.0942 6.67589 13.0795 7.21176C13.074 7.45388 13.0795 7.69601 13.0795 7.93813C13.074 7.93813 13.0685 7.93813 13.063 7.93813H13.0593Z" fill="#FF6805"/>
<path d="M13.1482 15.5033C13.1445 16.089 12.6258 16.5875 12.0243 16.5804C11.4229 16.5733 10.9373 16.0908 10.9336 15.4997C10.9318 14.8998 11.4247 14.412 12.0391 14.4102C12.635 14.4066 13.15 14.9158 13.1464 15.5051L13.1482 15.5033Z" fill="#FF6805"/>
</g>
<defs>
<clipPath id="clip0_2369_40929">
<rect width="24" height="20" fill="white" transform="translate(0.0078125)"/>
</clipPath>
</defs>
</svg>
