<svg width="26" height="25" viewBox="0 0 26 25" fill="none" xmlns="http://www.w3.org/2000/svg">
<g id="Flags">
<g clip-path="url(#clip0_19569_40121)">
<g id="Group">
<g id="Group_2">
<path id="Vector" d="M54.1626 0.349609H-12.5273V24.6496H54.1626V0.349609Z" fill="white"/>
<path id="Vector_2" d="M54.1626 0.349609H-12.5273V3.04961H54.1626V0.349609Z" fill="#B22234"/>
<path id="Vector_3" d="M54.1626 5.75H-12.5273V8.45002H54.1626V5.75Z" fill="#B22234"/>
<path id="Vector_4" d="M54.1626 11.1504H-12.5273V13.8504H54.1626V11.1504Z" fill="#B22234"/>
<path id="Vector_5" d="M54.1626 16.5488H-12.5273V19.2488H54.1626V16.5488Z" fill="#B22234"/>
<path id="Vector_6" d="M54.1626 21.9492H-12.5273V24.6492H54.1626V21.9492Z" fill="#B22234"/>
<path id="Vector_7" d="M14.1486 0.349609H-12.5273V13.8496H14.1486V0.349609Z" fill="#3C3B6E"/>
<path id="Vector_8" d="M9.65728 1.42383L9.41455 2.17115H8.62891L9.26442 2.6328L9.02181 3.37978L9.65728 2.91813L10.2927 3.37978L10.0501 2.63273L10.6853 2.17115H9.89999L9.65728 1.42383Z" fill="white"/>
<path id="Vector_9" d="M7.44605 3.31836L7.20339 4.06537H6.41797L7.05346 4.52704L6.81061 5.27405L7.44615 4.81235L8.08152 5.27405L7.83884 4.52704L8.47436 4.06537H7.68874L7.44605 3.31836Z" fill="white"/>
<path id="Vector_10" d="M11.8679 3.31836L11.6252 4.06537H10.8398L11.4753 4.52702L11.2324 5.27405L11.868 4.81235L12.5033 5.27405L12.2607 4.52709L12.8962 4.06537H12.1108L11.8679 3.31836Z" fill="white"/>
<path id="Vector_11" d="M5.23143 5.21289L4.98874 5.9599H4.20312L4.83869 6.4216L4.59598 7.16882L5.23133 6.70715L5.86685 7.16882L5.62395 6.4216L6.25949 5.9599H5.47406L5.23143 5.21289ZM5.23128 6.29412H5.23126L5.23133 6.294L5.23136 6.29407L5.23128 6.29412Z" fill="white"/>
<path id="Vector_12" d="M9.65728 5.21289L9.4146 5.9599H8.62891L9.26452 6.42162L9.02181 7.16882L9.65726 6.70719L10.2927 7.16882L10.0499 6.42155L10.6853 5.9599H9.89994L9.65728 5.21289ZM9.65728 6.29412L9.65721 6.29407L9.65726 6.294L9.65733 6.29412H9.65728Z" fill="white"/>
<path id="Vector_13" d="M3.0202 7.10938L2.77756 7.85631H1.99219L2.62746 8.31793L2.38475 9.06499L3.0202 8.60331L3.65564 9.06499L3.41298 8.31803L4.04855 7.85631H3.26288L3.0202 7.10938Z" fill="white"/>
<path id="Vector_14" d="M7.44605 7.10938L7.20339 7.85631H6.41797L7.05349 8.31798L6.81061 9.06499L7.44615 8.60327L8.08152 9.06499L7.83884 8.31798L8.47436 7.85631H7.68874L7.44605 7.10938Z" fill="white"/>
<path id="Vector_15" d="M11.8679 7.10938L11.6252 7.85631H10.8398L11.4753 8.31793L11.2324 9.06499L11.868 8.60327L12.5033 9.06499L12.2606 8.31803L12.8962 7.85631H12.1108L11.8679 7.10938Z" fill="white"/>
<path id="Vector_16" d="M5.47409 9.75086L5.23143 9.00391L4.98874 9.75086H4.20312L4.83864 10.2126L4.59596 10.9595L5.23133 10.4978L5.86685 10.9595L5.62402 10.2125L6.25949 9.75086H5.47409Z" fill="white"/>
<path id="Vector_17" d="M9.89994 9.75086L9.65728 9.00391L9.4146 9.75086H8.62891L9.2645 10.2126L9.02181 10.9595L9.65728 10.4979L10.2927 10.9595L10.05 10.2125L10.6853 9.75086H9.89994Z" fill="white"/>
<path id="Vector_18" d="M3.26288 11.6473L3.0202 10.9004L2.77754 11.6473H1.99219L2.62744 12.109L2.38475 12.856L3.0202 12.3943L3.65564 12.856L3.41298 12.1091L4.04855 11.6473H3.26288Z" fill="white"/>
<path id="Vector_19" d="M7.68874 11.6473L7.44605 10.9004L7.20339 11.6473H6.41797L7.05349 12.109L6.81061 12.856L7.44615 12.3943L8.08152 12.856L7.83884 12.109L8.47436 11.6473H7.68874Z" fill="white"/>
<path id="Vector_20" d="M12.1108 11.6473L11.8679 10.9004L11.6252 11.6473H10.8398L11.4753 12.109L11.2324 12.856L11.868 12.3943L12.5033 12.856L12.2606 12.1091L12.8962 11.6473H12.1108Z" fill="white"/>
</g>
</g>
</g>
</g>
<defs>
<clipPath id="clip0_19569_40121">
<rect x="0.851562" y="0.349609" width="24.3" height="24.3" rx="12.15" fill="white"/>
</clipPath>
</defs>
</svg>
