<svg xmlns="http://www.w3.org/2000/svg" width="19" height="19" viewBox="0 0 19 19" fill="none">
  <path d="M14.25 6.3335C14.25 5.07372 13.7496 3.86554 12.8588 2.97474C11.968 2.08394 10.7598 1.5835 9.5 1.5835C8.24022 1.5835 7.03204 2.08394 6.14124 2.97474C5.25044 3.86554 4.75 5.07372 4.75 6.3335C4.75 11.8752 2.375 13.4585 2.375 13.4585H16.625C16.625 13.4585 14.25 11.8752 14.25 6.3335Z" stroke="#374151" stroke-linecap="round" stroke-linejoin="round"/>
  <path d="M10.8695 16.625C10.7304 16.8649 10.5306 17.0641 10.2902 17.2025C10.0499 17.341 9.77734 17.4139 9.49995 17.4139C9.22257 17.4139 8.95005 17.341 8.70969 17.2025C8.46933 17.0641 8.26955 16.8649 8.13037 16.625" stroke="#374151" stroke-linecap="round" stroke-linejoin="round"/>
  <circle cx="14" cy="4" r="3.5" fill="#DC2626" stroke="white"/>
</svg>