<svg width="524" height="217" viewBox="0 0 524 217" fill="none" xmlns="http://www.w3.org/2000/svg">
<g clip-path="url(#clip0_18938_45125)">
<g filter="url(#filter0_i_18938_45125)">
<path fill-rule="evenodd" clip-rule="evenodd" d="M-177 236C-178.105 236 -179 235.105 -179 234V167.792C-179 166.547 -177.875 165.604 -176.649 165.823L-174.725 166.165C-174.133 166.27 -173.525 166.104 -173.069 165.711L-172.688 165.382C-171.713 164.542 -170.212 164.827 -169.612 165.965L-168.516 168.045C-167.976 169.071 -166.68 169.424 -165.694 168.813L-161.633 166.298C-160.553 165.63 -159.132 166.123 -158.699 167.317L-157.854 169.647C-157.702 170.066 -157.415 170.422 -157.038 170.659L-151.731 173.994L-149.899 175.223C-148.571 176.115 -146.785 175.162 -146.785 173.562V142.922C-146.785 142.057 -146.228 141.289 -145.405 141.021L-140.728 139.496C-139.905 139.228 -139.348 138.46 -139.348 137.595V131.419C-139.348 131.238 -139.29 131.062 -139.183 130.916C-138.698 130.259 -137.656 130.602 -137.656 131.419V136.47V140.247C-137.656 140.645 -137.537 141.034 -137.315 141.365L-133.874 146.472C-133.709 146.716 -133.492 146.922 -133.238 147.073L-131.315 148.217C-131.005 148.401 -130.652 148.499 -130.292 148.499H-126.602C-125.497 148.499 -124.602 147.603 -124.602 146.499V143.363C-124.602 142.812 -124.374 142.284 -123.972 141.906L-119.479 137.682C-119.35 137.56 -119.237 137.422 -119.144 137.27L-116.137 132.364C-115.989 132.123 -115.894 131.854 -115.858 131.574L-115.329 127.451C-115.148 126.042 -113.596 125.265 -112.36 125.965L-112 126.169C-110.831 126.831 -109.356 126.176 -109.062 124.866L-107.174 116.441C-106.928 115.342 -105.824 114.663 -104.733 114.939L-103.264 115.31C-102 115.629 -100.774 114.674 -100.774 113.371V108.079C-100.774 107.373 -100.401 106.718 -99.7925 106.358L-99.3284 106.084C-98.1134 105.364 -96.562 106.145 -96.4157 107.55L-96.1997 109.623C-96.0736 110.833 -94.4731 111.177 -93.8619 110.124C-93.7556 109.941 -93.6048 109.788 -93.4234 109.679L-91.2593 108.375C-89.9264 107.572 -88.2274 108.532 -88.2274 110.089V115.535C-88.2274 116.017 -88.0537 116.482 -87.7383 116.846L-84.4935 120.587C-84.4104 120.682 -84.3367 120.786 -84.2732 120.895L-81.8746 125.04C-80.9055 126.715 -78.345 126.028 -78.345 124.093C-78.345 123.749 -78.2513 123.412 -78.0741 123.117L-74.0594 116.446C-73.9938 116.337 -73.9179 116.234 -73.8327 116.14L-72.1384 114.256C-71.1951 113.207 -69.4917 113.438 -68.8618 114.7L-66.0713 120.292C-65.9276 120.58 -65.7166 120.829 -65.4562 121.018L-63.1469 122.693C-61.8247 123.653 -59.9725 122.708 -59.9725 121.074V116.282V115.201C-59.9725 113.74 -58.458 112.772 -57.1326 113.386L-53.7137 114.968C-52.3883 115.581 -50.8738 114.613 -50.8738 113.153V110.376C-50.8738 110.028 -50.7832 109.686 -50.6109 109.385L-44.3621 98.4329L-40.519 89.8236C-40.4045 89.5671 -40.3453 89.2893 -40.3453 89.0084V83.6339C-40.3453 81.8112 -38.1063 80.9385 -36.8728 82.2805L-35.3432 83.9446C-35.0186 84.2978 -34.8385 84.7599 -34.8385 85.2396C-34.8385 87.1753 -32.2934 87.8874 -31.2889 86.2327L-24.9474 75.7862L-20.8718 70.6263C-20.1148 69.6678 -18.6829 69.6058 -17.8459 70.4953L-14.9772 73.5436C-14.6996 73.8386 -14.3389 74.0424 -13.943 74.1279L-7.84262 75.4454C-6.92198 75.6442 -6.26483 76.4585 -6.26483 77.4003V83.6175C-6.26483 84.176 -6.03128 84.7091 -5.6207 85.0878L-1.39601 88.9838C-1.07872 89.2764 -0.864609 89.6638 -0.785629 90.0881L2.16544 105.945C2.46585 107.559 4.47598 108.144 5.59514 106.942L7.00296 105.431C7.70961 104.672 8.87885 104.58 9.69638 105.217L12.0659 107.065C12.8358 107.666 13.9269 107.622 14.6469 106.963L21.97 100.254L25.2598 97.3775C26.216 96.5414 27.6993 96.797 28.3206 97.9049L31.691 103.915C31.7564 104.032 31.8333 104.141 31.9206 104.243L36.2655 109.282C36.5785 109.646 36.7507 110.109 36.7507 110.588V115.532C36.7507 116.015 36.9258 116.483 37.2437 116.847L39.2216 119.113C40.031 120.041 41.4783 120.024 42.2658 119.078L44.7976 116.036C45.6734 114.983 47.3238 115.102 48.0397 116.269L50.481 120.249C50.6741 120.564 50.7762 120.926 50.7762 121.295V123.934C50.7762 124.598 51.1059 125.219 51.6562 125.591L54.9696 127.831C55.5198 128.203 55.8495 128.824 55.8495 129.488V133.203C55.8495 135.062 58.1644 135.916 59.371 134.501L64.0764 128.986C64.3852 128.624 64.5549 128.164 64.5549 127.688V117.43C64.5549 116.719 64.9322 116.061 65.5459 115.703L75.3069 110C75.4822 109.897 75.6409 109.769 75.7776 109.619L78.8806 106.207C80.0176 104.957 82.0976 105.761 82.0976 107.451C82.0976 107.874 82.2429 108.285 82.5092 108.614L86.628 113.704C86.7292 113.829 86.8452 113.941 86.9734 114.039L89.9992 116.336C90.996 117.092 92.4352 116.758 92.9962 115.639L95.7824 110.084C95.8618 109.925 95.9619 109.778 96.08 109.646L99.6029 105.71C100.383 104.838 101.742 104.82 102.546 105.67L104.302 107.527C104.653 107.898 104.849 108.39 104.849 108.901V122.209C104.849 123.029 105.349 123.766 106.112 124.068L110.791 125.922C112.104 126.442 113.528 125.475 113.528 124.063V118.283C113.528 117.96 113.606 117.642 113.756 117.356L119.266 106.822C119.36 106.641 119.482 106.476 119.626 106.332L119.89 106.069C121.151 104.813 123.301 105.706 123.301 107.486V118.161C123.301 118.904 123.713 119.585 124.371 119.931L128.596 122.152C128.705 122.209 128.808 122.276 128.904 122.352L133.357 125.864C134.175 126.509 135.352 126.418 136.061 125.653L140.629 120.73L144.268 117.775C145.229 116.994 146.662 117.266 147.271 118.345L151.898 126.549C152.068 126.849 152.156 127.187 152.156 127.532V132.932C152.156 133.669 152.562 134.346 153.211 134.695L159.14 137.876C159.961 138.317 160.978 138.132 161.591 137.431L166.928 131.331C167.039 131.204 167.165 131.092 167.304 130.997L170.013 129.145C171.34 128.238 173.142 129.188 173.142 130.796V132.836C173.142 133.623 173.603 134.337 174.32 134.66L182.828 138.49C183.032 138.582 183.219 138.708 183.382 138.862L187.99 143.225C188.605 143.808 189.521 143.939 190.275 143.554L201.235 137.953C202.562 137.275 204.136 138.238 204.136 139.728V140.01C204.136 141.258 205.378 142.126 206.55 141.696C206.947 141.551 207.383 141.55 207.78 141.693L213.885 143.902C214.406 144.09 214.825 144.486 215.043 144.995L217.655 151.095C218.249 152.48 220.103 152.737 221.05 151.564L226.076 145.34C226.625 144.66 227.552 144.415 228.365 144.736L233.473 146.751C233.629 146.812 233.777 146.893 233.913 146.992L243.734 154.115C244.74 154.844 246.161 154.489 246.706 153.372L252.326 141.846C252.447 141.599 252.618 141.379 252.828 141.2L256.16 138.363C256.58 138.006 257.128 137.838 257.676 137.898L263.571 138.55C264.035 138.601 264.502 138.488 264.892 138.232L275.31 131.362C275.533 131.216 275.782 131.115 276.044 131.066L284.156 129.55C284.572 129.472 284.953 129.264 285.244 128.956L286.586 127.533C286.919 127.18 287.112 126.718 287.129 126.233L287.328 120.722C287.351 120.079 287.683 119.487 288.219 119.13L294.699 114.815C295.256 114.444 295.591 113.819 295.591 113.15V109.165C295.591 108.693 295.758 108.237 296.062 107.876L299.703 103.557C300.007 103.196 300.173 102.74 300.173 102.268V96.5886C300.173 96.2577 300.255 95.932 300.412 95.6406L302.146 92.4196C302.647 91.4889 303.786 91.1087 304.746 91.5517L311.43 94.6374C311.93 94.868 312.502 94.8826 313.013 94.6779L337.006 85.059C337.84 84.7249 338.794 84.9871 339.339 85.7002L342.891 90.3433C343.636 91.3172 345.074 91.3976 345.923 90.5129L351.141 85.0741C351.499 84.7017 351.698 84.2055 351.698 83.6894V67.5735C351.698 67.2478 351.778 66.9271 351.93 66.6391L357.975 55.1994L362.216 45.8287C362.826 44.4801 364.639 44.2389 365.581 45.3809L368.171 48.5219C368.365 48.7572 368.503 49.0337 368.573 49.3304L372.497 65.7812L374.293 81.9223C374.537 84.109 377.618 84.3568 378.208 82.2372L382.585 66.5065C382.715 66.0389 383.011 65.6347 383.417 65.369L385.963 63.7036C387.293 62.8333 389.058 63.7877 389.058 65.3772V81.4418C389.058 82.8826 390.535 83.8507 391.856 83.2756L397.841 80.6702C398.126 80.5463 398.378 80.3579 398.577 80.1198L403.688 74.011C403.989 73.6511 404.154 73.1968 404.154 72.7276V66.8515C404.154 66.1828 404.488 65.5584 405.045 65.1874L408.825 62.6671C409.669 62.1038 410.802 62.263 411.459 63.0374L414.412 66.5179C414.718 66.8792 414.886 67.3377 414.886 67.8116V75.259C414.886 75.371 414.896 75.4828 414.914 75.5932L417.654 91.7605C417.995 93.7728 420.777 94.0418 421.497 92.1321L423.72 86.2378C423.821 85.9704 423.978 85.7277 424.18 85.5261L428.021 81.7034C428.725 81.0022 429.838 80.9247 430.632 81.5215L433.792 83.8937C434.295 84.2715 434.591 84.8639 434.591 85.4931V87.2531C434.591 87.8549 434.862 88.4246 435.329 88.8044L438.639 91.4978C439.828 92.4655 441.619 91.7901 441.873 90.2781L445.75 67.221C445.766 67.1255 445.789 67.0314 445.819 66.9392L450.391 52.748C450.537 52.2939 450.841 51.9071 451.248 51.6573L455.503 49.0425C455.679 48.9345 455.837 48.7999 455.972 48.6436L457.398 46.9872C458.608 45.5819 460.914 46.4378 460.914 48.2923V59.7103V62.2583C460.914 63.8109 462.606 64.7714 463.939 63.9757L467.408 61.9049C467.658 61.756 467.872 61.5544 468.036 61.3142L471.056 56.8848C472.058 55.4155 474.356 56.1246 474.356 57.903C474.356 58.9011 475.166 59.7103 476.164 59.7103H483.103C484.208 59.7103 485.103 60.6057 485.103 61.7103V70.4116C485.103 70.7312 485.18 71.0461 485.327 71.33L489.611 79.6176C490.468 81.2757 492.928 80.9598 493.339 79.1389L496.064 67.0483C496.474 65.2257 498.938 64.9116 499.793 66.5727L506.731 80.051C506.876 80.3341 506.953 80.6479 506.953 80.9664V87.8003C506.953 89.0747 508.128 90.0241 509.374 89.7553L515.286 88.4801C516.063 88.3125 516.865 88.6208 517.33 89.2655L522.027 95.7797C522.994 97.121 525.078 96.7762 525.562 95.1949L528.593 85.282C528.747 84.7771 529.095 84.3537 529.56 84.1042L534.244 81.5928C535.33 81.0103 536.68 81.5395 537.08 82.705L537.725 84.5796C538.403 86.5517 541.269 86.2995 541.592 84.2392L542.854 76.1968C543.065 74.8477 544.537 74.1028 545.749 74.7308L546.239 74.9846C546.78 75.2644 547.418 75.2831 547.973 75.0356L555.079 71.87C556.216 71.3633 557.535 72.0079 557.834 73.2167L559.711 80.8024C559.98 81.8901 561.09 82.5446 562.172 82.2534L567.894 80.7134C568.441 80.566 569.026 80.658 569.502 80.9665L575.515 84.8654C576.365 85.4167 577.493 85.2449 578.141 84.4653L583.967 77.453C584.029 77.3786 584.085 77.2999 584.136 77.2175L587.887 71.0772C587.96 70.958 588.045 70.8468 588.141 70.7453L594.592 63.9266C595.59 62.8721 597.343 63.1984 597.895 64.5411L598.783 66.7028C599.556 68.5844 602.318 68.2447 602.612 66.2319L605.2 48.5165C605.439 46.88 607.448 46.2244 608.607 47.4049L610.981 49.8244C612 50.8634 613.753 50.5001 614.275 49.1414L624.094 23.6043C624.979 21.301 628.435 22.3307 627.916 24.743L623.876 43.5035C623.738 44.1447 623.923 44.8128 624.372 45.2915L630.046 51.3509C631.057 52.431 632.851 52.0768 633.376 50.6933L645.303 19.2555C646.123 17.0949 649.345 17.8151 649.167 20.1191L647.28 44.5272V51.4334C647.28 51.8316 647.399 52.2207 647.621 52.551L651.624 58.4912C652.528 59.8334 654.569 59.6015 655.149 58.0906L658.693 48.8642C659.395 47.0354 662.035 47.2021 662.502 49.1046L664.865 58.7379C665.016 59.35 665.445 59.8554 666.025 60.102L673.973 63.4808C674.305 63.6222 674.593 63.8512 674.806 64.1433L677.132 67.3337C678.144 68.7227 680.321 68.2721 680.699 66.5953L685.018 47.4274L689.891 31.74C690.344 30.2848 692.192 29.8495 693.246 30.9499L701.363 39.4247C702.548 40.6612 701.703 42.7161 699.992 42.7626C698.173 42.8121 697.384 45.0877 698.782 46.2521L699.826 47.1215C700.869 47.9899 702.456 47.5895 702.962 46.3302L710.918 26.5296C711.817 24.2919 715.176 25.2638 714.741 27.6358L702.938 92.0293C702.574 94.0175 705.199 95.0738 706.313 93.3872C706.979 92.38 708.413 92.2655 709.23 93.1545L710.862 94.9321C712.096 96.2747 714.335 95.4021 714.335 93.5791V81.6909C714.335 81.2571 714.476 80.8351 714.737 80.4885L723.399 68.9745C724.34 67.7245 726.287 67.9893 726.859 69.4452L731.41 81.0226L734.154 87.6778C734.283 87.9905 734.489 88.2655 734.753 88.4769L738.41 91.405L743.909 96.624C744.951 97.6127 746.664 97.2136 747.162 95.8664L750.319 87.3204C750.856 85.8678 752.769 85.55 753.747 86.751L755.825 89.305C756.675 90.3486 758.292 90.2725 759.039 89.1539L763.385 82.6528C763.99 81.7473 765.208 81.4925 766.126 82.0797L770.805 85.0749C772.064 85.8808 773.73 85.0711 773.874 83.5833L775.537 66.4076C775.556 66.214 775.603 66.0243 775.676 65.8443L780.78 53.3451C781.514 51.548 784.121 51.7448 784.576 53.6319L786.701 62.432C787.154 64.3094 789.742 64.5175 790.489 62.7368L800.297 39.3744C800.441 39.0313 800.718 38.7614 801.065 38.6266C801.713 38.3744 802.448 38.648 802.774 39.2632L803.789 41.179C803.976 41.5313 804.263 41.8197 804.615 42.0074L810.756 45.2834C811.408 45.6311 811.815 46.3095 811.815 47.048V59.0843C811.815 59.4919 811.939 59.8897 812.172 60.2245L821.603 73.8161C821.686 73.9361 821.782 74.0466 821.89 74.1456L829.442 81.116C830.224 81.837 831.432 81.8208 832.194 81.0792L844.62 68.9793C844.737 68.8648 844.869 68.7652 845.011 68.6828L845.887 68.1737C846.901 67.5844 848.203 67.9908 848.702 69.0526L851.788 75.6212C851.839 75.731 851.901 75.8358 851.972 75.9344L855.859 81.3677C856.31 81.9988 857.086 82.3118 857.849 82.1707L862.723 81.2692C863.529 81.1203 864.343 81.4774 864.78 82.1704L868.408 87.9344C868.521 88.1131 868.661 88.2729 868.823 88.4078L876.536 94.81L878.754 96.5524C879.619 97.2326 880.872 97.0851 881.556 96.2223L889.433 86.2887C890.61 84.8039 893 85.6364 893 87.5313V234C893 235.105 892.105 236 891 236H256.818H-177Z" fill="url(#paint0_linear_18938_45125)" fill-opacity="0.6"/>
</g>
<path d="M-176 165.848L-170.316 161.035C-169.016 159.934 -167.023 160.858 -167.023 162.561V165.045C-167.023 166.842 -164.837 167.728 -163.587 166.436L-159.963 162.695C-158.948 161.647 -157.187 162.004 -156.661 163.366L-154.339 169.376C-154.186 169.772 -153.911 170.108 -153.554 170.338L-152.489 171.022C-151.158 171.876 -149.408 170.92 -149.408 169.339V142.893C-149.408 142.059 -148.891 141.313 -148.111 141.02L-143.127 139.151C-142.346 138.858 -141.829 138.112 -141.829 137.278V131.842C-141.829 131.408 -141.688 130.986 -141.428 130.64L-137.596 125.546C-136.441 124.011 -133.997 124.827 -133.997 126.748V135.856V140.834C-133.997 141.27 -133.854 141.695 -133.59 142.043L-130.097 146.644C-129.977 146.801 -129.882 146.975 -129.813 147.16L-129.591 147.761C-128.817 149.855 -125.715 149.3 -125.715 147.068V144.991C-125.715 144.503 -125.537 144.032 -125.213 143.666L-120.788 138.664L-116.679 134.754C-116.283 134.377 -116.058 133.853 -116.058 133.306V127.526C-116.058 125.892 -114.204 124.947 -112.882 125.909L-112.551 126.15C-111.229 127.111 -109.375 126.166 -109.375 124.532V114.784C-109.375 113.446 -108.086 112.485 -106.803 112.868L-105.839 113.155C-104.557 113.538 -103.268 112.577 -103.268 111.239V107.755C-103.268 107.028 -102.873 106.359 -102.238 106.006L-99.0845 104.257C-98.9181 104.165 -98.7658 104.049 -98.6321 103.914L-96.6629 101.922C-95.4064 100.65 -93.2404 101.54 -93.2404 103.328V106.681C-93.2404 108.085 -91.7077 108.95 -90.5055 108.226V108.226C-89.3033 107.501 -87.7706 108.367 -87.7706 109.771V115.566C-87.7706 116.047 -87.5971 116.512 -87.2818 116.876L-84.0383 120.618C-83.9553 120.714 -83.8816 120.817 -83.8182 120.927L-81.4216 125.071C-80.4532 126.746 -77.8927 126.059 -77.8927 124.124V124.124C-77.8927 123.781 -77.7992 123.444 -77.6222 123.15L-73.6091 116.476C-73.5435 116.367 -73.4677 116.265 -73.3826 116.17L-71.6905 114.287C-70.7472 113.238 -69.043 113.469 -68.4132 114.732L-65.6247 120.324C-65.4811 120.611 -65.2702 120.86 -65.0099 121.049L-62.7037 122.724C-61.3816 123.683 -59.5288 122.739 -59.5288 121.105V116.312V115.231C-59.5288 113.77 -58.0139 112.802 -56.6884 113.416L-53.2748 114.997C-51.9493 115.611 -50.4344 114.643 -50.4344 113.182V110.404C-50.4344 110.057 -50.3439 109.715 -50.1718 109.414L-43.9256 98.4592L-40.0843 89.8477C-39.9699 89.5913 -39.9108 89.3137 -39.9108 89.0329V83.6583C-39.9108 81.8353 -37.671 80.9628 -36.4378 82.3054L-34.9107 83.968C-34.5864 84.321 -34.4065 84.7829 -34.4065 85.2622V85.2622C-34.4065 87.1977 -31.8614 87.9094 -30.8575 86.2545L-24.52 75.8074L-20.4474 70.6476C-19.6903 69.6885 -18.2576 69.6264 -17.4205 70.5166L-14.5547 73.5641C-14.2771 73.8593 -13.9163 74.0632 -13.5202 74.1488L-7.42366 75.4664C-6.50315 75.6654 -5.84615 76.4795 -5.84615 77.4213V83.6411C-5.84615 84.1994 -5.6128 84.7322 -5.20252 85.1109L-0.979474 89.0081C-0.662398 89.3007 -0.448448 89.688 -0.36956 90.1122L2.57992 105.972C2.88022 107.586 4.89111 108.171 6.01015 106.969L7.41449 105.46C8.12124 104.701 9.29118 104.608 10.1089 105.246L12.4748 107.092C13.245 107.693 14.3367 107.65 15.0568 106.99L22.3756 100.28L25.6622 97.4049C26.6186 96.5681 28.1026 96.8238 28.7239 97.9324L32.092 103.943C32.1574 104.059 32.2343 104.169 32.3215 104.27L36.6646 109.311C36.9773 109.674 37.1494 110.138 37.1494 110.617V115.563C37.1494 116.046 37.3243 116.513 37.642 116.877L39.6179 119.143C40.4274 120.071 41.8755 120.054 42.663 119.107L45.1912 116.068C46.067 115.015 47.7182 115.133 48.434 116.301L50.8735 120.281C51.0663 120.595 51.1684 120.957 51.1684 121.326V123.967C51.1684 124.631 51.4979 125.251 52.0478 125.623L55.3599 127.864C55.9098 128.236 56.2393 128.856 56.2393 129.52V133.236C56.2393 135.095 58.5549 135.948 59.7612 134.534L64.4625 129.019C64.7711 128.657 64.9406 128.197 64.9406 127.722V117.46C64.9406 116.749 65.3177 116.092 65.9311 115.733L75.6875 110.029C75.8628 109.926 76.0215 109.798 76.1581 109.647L79.2582 106.236C80.3948 104.986 82.4751 105.79 82.4751 107.48V107.48C82.4751 107.903 82.6202 108.313 82.8863 108.642L87.0034 113.734C87.1046 113.859 87.2206 113.971 87.3487 114.069L90.3715 116.365C91.3685 117.122 92.8083 116.788 93.3693 115.668L96.1537 110.113C96.233 109.954 96.333 109.807 96.451 109.675L99.9712 105.74C100.752 104.867 102.112 104.848 102.916 105.699L104.669 107.556C105.02 107.927 105.215 108.418 105.215 108.929V122.241C105.215 123.061 105.716 123.798 106.478 124.1L111.154 125.954C112.467 126.475 113.891 125.507 113.891 124.095V118.313C113.891 117.99 113.969 117.673 114.118 117.387L119.626 106.85C119.72 106.669 119.842 106.504 119.986 106.36L120.248 106.099C121.508 104.842 123.66 105.735 123.66 107.516V118.192C123.66 118.935 124.071 119.616 124.729 119.962L128.952 122.184C129.061 122.241 129.164 122.308 129.26 122.384L133.709 125.895C134.528 126.541 135.706 126.45 136.415 125.685L140.979 120.762L144.615 117.807C145.577 117.026 147.01 117.298 147.619 118.377L152.244 126.582C152.413 126.882 152.501 127.22 152.501 127.564V132.967C152.501 133.704 152.906 134.381 153.555 134.729L159.481 137.911C160.302 138.352 161.319 138.167 161.932 137.465L167.266 131.365C167.377 131.238 167.503 131.126 167.642 131.03L171.749 128.221C172.69 127.577 173.978 127.85 174.579 128.819L177.708 133.873C177.827 134.065 177.977 134.236 178.153 134.377L183.467 138.664L188.133 143.086C188.834 143.751 189.91 143.819 190.69 143.248L196.952 138.664L204.513 134.463C205.846 133.722 207.484 134.686 207.484 136.211V140.104C207.484 140.946 208.011 141.698 208.803 141.984L214.464 144.034C214.825 144.164 215.141 144.396 215.374 144.701L218.639 148.981C219.341 149.901 220.675 150.035 221.546 149.273L226.391 145.036C226.955 144.543 227.746 144.406 228.442 144.681L233.879 146.827C233.97 146.863 234.058 146.905 234.143 146.954L242.497 151.767C243.484 152.335 244.745 151.966 245.27 150.956L250.07 141.726C250.146 141.58 250.239 141.445 250.348 141.322L254.345 136.811C254.861 136.229 255.669 135.999 256.415 136.222L263.687 138.397C264.254 138.566 264.867 138.476 265.361 138.15L275.758 131.291C275.875 131.213 276.001 131.148 276.132 131.097L285.262 127.536C286.03 127.236 286.536 126.497 286.536 125.673V120.471C286.536 119.802 286.87 119.177 287.427 118.806L293.867 114.516C294.423 114.145 294.758 113.52 294.758 112.851V108.864C294.758 108.392 294.924 107.936 295.228 107.575L298.868 103.255C299.171 102.895 299.338 102.438 299.338 101.967V96.5595C299.338 96.0588 299.526 95.5764 299.864 95.2074L303.696 91.0303C304.477 90.1792 305.814 90.1645 306.614 90.9982L310.257 94.798C310.825 95.3912 311.699 95.5762 312.459 95.2645L337.257 85.098C338.094 84.7551 339.056 85.0158 339.605 85.7339L343.146 90.3665C343.891 91.341 345.33 91.4215 346.179 90.5361L351.394 85.0972C351.751 84.7248 351.95 84.2289 351.95 83.713V67.5924C351.95 67.2669 352.03 66.9464 352.182 66.6586L358.224 55.2159L362.462 45.8448C363.072 44.4955 364.886 44.2543 365.828 45.397L368.415 48.5371C368.609 48.7723 368.747 49.0488 368.817 49.3453L372.739 65.8001L374.534 81.94C374.778 84.127 377.859 84.3748 378.449 82.2548L382.823 66.5253C382.953 66.0578 383.248 65.6535 383.654 65.3878L386.197 63.7233C387.527 62.8525 389.292 63.8068 389.292 65.3966V81.4642C389.292 82.9051 390.77 83.8732 392.091 83.2978L398.071 80.6926C398.356 80.5686 398.608 80.3801 398.807 80.1419L403.916 74.0315C404.217 73.6717 404.382 73.2176 404.382 72.7486V66.87C404.382 66.2015 404.716 65.5773 405.272 65.2063L409.049 62.6862C409.894 62.1223 411.027 62.2817 411.684 63.0567L414.635 66.5372C414.941 66.8985 415.109 67.3568 415.109 67.8304V75.2803C415.109 75.3921 415.118 75.5038 415.137 75.6141L417.875 91.7819C418.215 93.7947 420.998 94.0636 421.718 92.1533L423.939 86.2612C424.039 85.9938 424.196 85.7512 424.399 85.5495L428.236 81.7269C428.941 81.0251 430.054 80.9475 430.849 81.5449L434.006 83.9169C434.509 84.2946 434.804 84.8869 434.804 85.5158V87.2775C434.804 87.879 435.075 88.4486 435.542 88.8284L438.848 91.521C440.038 92.4894 441.83 91.8139 442.084 90.3015L445.958 67.2401C445.974 67.1447 445.997 67.0506 446.027 66.9585L450.597 52.7637C450.743 52.3097 451.047 51.9228 451.453 51.673L455.707 49.0577C455.883 48.9496 456.041 48.815 456.175 48.6586L457.599 47.0043C458.809 45.5983 461.115 46.454 461.115 48.3088V59.7278V62.276C461.115 63.8288 462.807 64.7893 464.14 63.9931L467.606 61.923C467.856 61.774 468.07 61.5723 468.234 61.3321L471.251 56.9035C472.253 55.4339 474.551 56.1426 474.551 57.9209V57.9209C474.551 58.9188 475.36 59.7278 476.358 59.7278H483.293C484.398 59.7278 485.293 60.6232 485.293 61.7278V70.4319C485.293 70.7513 485.37 71.0661 485.516 71.3499L489.797 79.6368C490.654 81.2955 493.115 80.9796 493.525 79.1583L496.248 67.07C496.659 65.247 499.123 64.9329 499.978 66.5947L506.911 80.0735C507.056 80.3564 507.132 80.6701 507.132 80.9883V87.8244C507.132 89.0989 508.308 90.0483 509.554 89.7794L515.461 88.5044C516.238 88.3366 517.041 88.6451 517.506 89.2903L522.198 95.8032C523.165 97.1453 525.25 96.8004 525.733 95.2186L528.762 85.3051C528.917 84.8002 529.264 84.3768 529.729 84.1272L534.409 81.6162C535.496 81.0332 536.846 81.5625 537.246 82.7285L537.889 84.5989C538.567 86.5714 541.433 86.3193 541.756 84.2586L543.017 76.2186C543.228 74.8692 544.7 74.1242 545.913 74.7527L546.4 75.0052C546.94 75.2853 547.579 75.304 548.135 75.0562L555.235 71.891C556.372 71.3839 557.692 72.0287 557.991 73.2378L559.866 80.8244C560.135 81.9125 561.245 82.5671 562.327 82.2756L568.044 80.7359C568.592 80.5884 569.177 80.6805 569.653 80.9893L575.661 84.8877C576.512 85.4396 577.641 85.2676 578.289 84.4875L584.111 77.4745C584.173 77.4002 584.229 77.3215 584.279 77.239L588.029 71.0973C588.102 70.9781 588.187 70.8669 588.283 70.7654L594.73 63.9468C595.727 62.8916 597.481 63.2179 598.033 64.5612L598.918 66.7181C599.691 68.6003 602.454 68.2607 602.748 66.2475L605.334 48.5329C605.573 46.8959 607.583 46.2404 608.741 47.4216L611.111 49.8381C612.13 50.8778 613.883 50.5144 614.406 49.1551L624.215 23.6244C625.1 21.3209 628.556 22.3499 628.037 24.7624L624.002 43.5182C623.864 44.159 624.049 44.8268 624.496 45.3054L630.167 51.3648C631.178 52.4456 632.972 52.0914 633.497 50.7073L645.416 19.2703C646.235 17.1093 649.458 17.8292 649.28 20.1334L647.394 44.5413V51.4495C647.394 51.8475 647.513 52.2365 647.735 52.5666L651.735 58.5064C652.639 59.8493 654.681 59.6174 655.261 58.1059L658.8 48.8825C659.502 47.0532 662.143 47.2198 662.61 49.1228L664.972 58.7556C665.122 59.3675 665.551 59.873 666.131 60.1197L674.074 63.499C674.407 63.6406 674.695 63.8697 674.908 64.1619L677.23 67.3506C678.243 68.7403 680.421 68.2897 680.798 66.6125L685.079 47.6036C685.103 47.4962 685.136 47.391 685.177 47.289L690.645 33.8534C690.865 33.3118 691.312 32.8938 691.867 32.7094L698.981 30.3451C700.79 29.7438 702.334 31.7745 701.272 33.3576L695.86 41.4217C695.289 42.2724 695.453 43.4169 696.24 44.0727L699.915 47.1348C700.958 48.0039 702.545 47.6034 703.051 46.3435L710.999 26.5481C711.898 24.3101 715.257 25.2814 714.823 27.6536L703.026 92.0562C702.662 94.0436 705.287 95.0989 706.4 93.4126V93.4126C707.065 92.4053 708.499 92.2909 709.316 93.18L710.945 94.9553C712.178 96.2986 714.419 95.4262 714.419 93.6029V81.7129C714.419 81.2794 714.559 80.8576 714.82 80.5111L723.477 68.9961C724.417 67.7454 726.365 68.0102 726.937 69.4667L731.485 81.0449L734.228 87.7019C734.357 88.0145 734.562 88.2895 734.826 88.5009L738.482 91.4297L743.977 96.6483C745.019 97.6377 746.733 97.2386 747.23 95.8908L750.385 87.3459C750.922 85.8927 752.835 85.5748 753.813 86.7766L755.888 89.3277C756.737 90.372 758.355 90.2959 759.103 89.1766L763.444 82.6765C764.05 81.7704 765.269 81.5155 766.186 82.1033L770.86 85.097C772.119 85.9035 773.785 85.0937 773.929 83.6055L775.592 66.4264C775.611 66.233 775.657 66.0433 775.731 65.8634L781.265 52.3023C781.95 50.6244 784.334 50.6493 784.984 52.3413L786.556 56.4362C787.199 58.1128 789.555 58.1574 790.261 56.5064L797.681 39.1685C797.811 38.8664 798.013 38.6008 798.269 38.3952L801.241 36.0118C802.174 35.2636 803.55 35.496 804.186 36.5089L806.935 40.8887C807.11 41.1688 807.353 41.401 807.641 41.5644L813.801 45.0655C814.427 45.421 814.813 46.085 814.813 46.8044V58.853C814.813 59.2598 814.937 59.657 815.169 59.9915L824.45 73.3959C824.53 73.5116 824.622 73.6185 824.725 73.7148L829.457 78.1618C830.243 78.9004 831.473 78.8826 832.238 78.1216L841.985 68.4169C842.15 68.2528 842.342 68.1187 842.553 68.0206L847.804 65.5789C848.807 65.1125 849.998 65.5488 850.462 66.5527L854.653 75.6119C854.713 75.7418 854.787 75.8649 854.874 75.9791L857.94 80.0313C858.408 80.6499 859.192 80.942 859.95 80.7808L864.717 79.7681C865.517 79.5981 866.34 79.9328 866.795 80.6133L871.674 87.9144C871.791 88.0894 871.935 88.2448 872.1 88.375L878.651 93.5294C879.558 94.2429 880.879 94.0431 881.534 93.0933L887.769 84.0558L893 75.8074" stroke="#2947F2"/>
<path d="M6.615 198.15C5.89833 198.15 5.29333 197.992 4.8 197.675C4.30667 197.355 3.93333 196.913 3.68 196.35C3.42667 195.787 3.3 195.137 3.3 194.4C3.3 193.663 3.42667 193.013 3.68 192.45C3.93333 191.887 4.30667 191.447 4.8 191.13C5.29333 190.81 5.89833 190.65 6.615 190.65C7.335 190.65 7.94 190.81 8.43 191.13C8.92333 191.447 9.29667 191.887 9.55 192.45C9.80667 193.013 9.935 193.663 9.935 194.4C9.935 195.137 9.80667 195.787 9.55 196.35C9.29667 196.913 8.92333 197.355 8.43 197.675C7.94 197.992 7.335 198.15 6.615 198.15ZM6.615 197.445C7.17833 197.445 7.64833 197.317 8.025 197.06C8.40167 196.803 8.68333 196.447 8.87 195.99C9.06 195.53 9.155 195 9.155 194.4C9.155 193.8 9.06 193.272 8.87 192.815C8.68333 192.358 8.40167 192.002 8.025 191.745C7.64833 191.488 7.17833 191.358 6.615 191.355C6.05167 191.355 5.58333 191.483 5.21 191.74C4.83667 191.997 4.555 192.355 4.365 192.815C4.17833 193.272 4.08333 193.8 4.08 194.4C4.07667 195 4.16833 195.528 4.355 195.985C4.545 196.438 4.82833 196.795 5.205 197.055C5.58167 197.312 6.05167 197.442 6.615 197.445ZM13.1763 198.15C12.633 198.15 12.173 198.028 11.7963 197.785C11.4197 197.542 11.133 197.207 10.9363 196.78C10.743 196.35 10.643 195.857 10.6363 195.3C10.643 194.733 10.7463 194.237 10.9463 193.81C11.1463 193.38 11.4347 193.047 11.8113 192.81C12.188 192.57 12.6447 192.45 13.1813 192.45C13.728 192.45 14.203 192.583 14.6063 192.85C15.013 193.117 15.2913 193.482 15.4413 193.945L14.7213 194.175C14.5947 193.852 14.393 193.602 14.1163 193.425C13.843 193.245 13.5297 193.155 13.1763 193.155C12.7797 193.155 12.4513 193.247 12.1913 193.43C11.9313 193.61 11.738 193.862 11.6113 194.185C11.4847 194.508 11.4197 194.88 11.4163 195.3C11.423 195.947 11.573 196.467 11.8663 196.86C12.1597 197.25 12.5963 197.445 13.1763 197.445C13.543 197.445 13.8547 197.362 14.1113 197.195C14.3713 197.025 14.568 196.778 14.7013 196.455L15.4413 196.675C15.2413 197.155 14.948 197.522 14.5613 197.775C14.1747 198.025 13.713 198.15 13.1763 198.15ZM19.4134 198C19.1101 198.063 18.8101 198.088 18.5134 198.075C18.2201 198.062 17.9568 197.998 17.7234 197.885C17.4934 197.772 17.3184 197.595 17.1984 197.355C17.1018 197.155 17.0484 196.953 17.0384 196.75C17.0318 196.543 17.0284 196.308 17.0284 196.045V191.1H17.7584V196.015C17.7584 196.242 17.7601 196.432 17.7634 196.585C17.7701 196.735 17.8051 196.868 17.8684 196.985C17.9884 197.208 18.1784 197.342 18.4384 197.385C18.7018 197.428 19.0268 197.418 19.4134 197.355V198ZM15.8734 193.23V192.6H19.4134V193.23H15.8734Z" fill="#909199"/>
<path d="M75.7 198V190.8H76.44L80.405 196.7V190.8H81.145V198H80.405L76.44 192.095V198H75.7ZM84.8007 198.15C84.264 198.15 83.8057 198.028 83.4257 197.785C83.0457 197.542 82.754 197.205 82.5507 196.775C82.3474 196.345 82.2457 195.852 82.2457 195.295C82.2457 194.728 82.349 194.232 82.5557 193.805C82.7624 193.378 83.0557 193.047 83.4357 192.81C83.819 192.57 84.274 192.45 84.8007 192.45C85.3407 192.45 85.8007 192.572 86.1807 192.815C86.564 193.055 86.8557 193.39 87.0557 193.82C87.259 194.247 87.3607 194.738 87.3607 195.295C87.3607 195.862 87.259 196.36 87.0557 196.79C86.8524 197.217 86.559 197.55 86.1757 197.79C85.7924 198.03 85.334 198.15 84.8007 198.15ZM84.8007 197.445C85.4007 197.445 85.8474 197.247 86.1407 196.85C86.434 196.45 86.5807 195.932 86.5807 195.295C86.5807 194.642 86.4324 194.122 86.1357 193.735C85.8424 193.348 85.3974 193.155 84.8007 193.155C84.3974 193.155 84.064 193.247 83.8007 193.43C83.5407 193.61 83.3457 193.862 83.2157 194.185C83.089 194.505 83.0257 194.875 83.0257 195.295C83.0257 195.945 83.1757 196.467 83.4757 196.86C83.7757 197.25 84.2174 197.445 84.8007 197.445ZM89.7284 198L87.7684 192.6H88.5134L90.1084 197.04L91.6934 192.6H92.4484L90.4884 198H89.7284Z" fill="#909199"/>
<path d="M145.7 198V190.8H147.885C147.962 190.8 148.092 190.802 148.275 190.805C148.462 190.808 148.64 190.822 148.81 190.845C149.357 190.922 149.813 191.125 150.18 191.455C150.547 191.785 150.822 192.205 151.005 192.715C151.188 193.225 151.28 193.787 151.28 194.4C151.28 195.013 151.188 195.575 151.005 196.085C150.822 196.595 150.547 197.015 150.18 197.345C149.813 197.675 149.357 197.878 148.81 197.955C148.643 197.975 148.465 197.988 148.275 197.995C148.085 197.998 147.955 198 147.885 198H145.7ZM146.46 197.295H147.885C148.022 197.295 148.168 197.292 148.325 197.285C148.485 197.275 148.622 197.258 148.735 197.235C149.155 197.162 149.493 196.992 149.75 196.725C150.01 196.458 150.2 196.125 150.32 195.725C150.44 195.322 150.5 194.88 150.5 194.4C150.5 193.917 150.44 193.473 150.32 193.07C150.2 192.667 150.01 192.333 149.75 192.07C149.49 191.807 149.152 191.638 148.735 191.565C148.622 191.542 148.483 191.527 148.32 191.52C148.16 191.51 148.015 191.505 147.885 191.505H146.46V197.295ZM154.704 198.15C154.177 198.15 153.72 198.033 153.334 197.8C152.95 197.567 152.652 197.238 152.439 196.815C152.225 196.392 152.119 195.895 152.119 195.325C152.119 194.735 152.224 194.225 152.434 193.795C152.644 193.365 152.939 193.033 153.319 192.8C153.702 192.567 154.154 192.45 154.674 192.45C155.207 192.45 155.662 192.573 156.039 192.82C156.415 193.063 156.7 193.413 156.894 193.87C157.087 194.327 157.175 194.872 157.159 195.505H156.409V195.245C156.395 194.545 156.244 194.017 155.954 193.66C155.667 193.303 155.247 193.125 154.694 193.125C154.114 193.125 153.669 193.313 153.359 193.69C153.052 194.067 152.899 194.603 152.899 195.3C152.899 195.98 153.052 196.508 153.359 196.885C153.669 197.258 154.107 197.445 154.674 197.445C155.06 197.445 155.397 197.357 155.684 197.18C155.974 197 156.202 196.742 156.369 196.405L157.054 196.67C156.84 197.14 156.525 197.505 156.109 197.765C155.695 198.022 155.227 198.15 154.704 198.15ZM152.639 195.505V194.89H156.764V195.505H152.639ZM160.508 198.15C159.965 198.15 159.505 198.028 159.128 197.785C158.752 197.542 158.465 197.207 158.268 196.78C158.075 196.35 157.975 195.857 157.968 195.3C157.975 194.733 158.078 194.237 158.278 193.81C158.478 193.38 158.767 193.047 159.143 192.81C159.52 192.57 159.977 192.45 160.513 192.45C161.06 192.45 161.535 192.583 161.938 192.85C162.345 193.117 162.623 193.482 162.773 193.945L162.053 194.175C161.927 193.852 161.725 193.602 161.448 193.425C161.175 193.245 160.862 193.155 160.508 193.155C160.112 193.155 159.783 193.247 159.523 193.43C159.263 193.61 159.07 193.862 158.943 194.185C158.817 194.508 158.752 194.88 158.748 195.3C158.755 195.947 158.905 196.467 159.198 196.86C159.492 197.25 159.928 197.445 160.508 197.445C160.875 197.445 161.187 197.362 161.443 197.195C161.703 197.025 161.9 196.778 162.033 196.455L162.773 196.675C162.573 197.155 162.28 197.522 161.893 197.775C161.507 198.025 161.045 198.15 160.508 198.15Z" fill="#909199"/>
<path d="M217.5 197.995L217.505 197.325L220.76 194.385C221.04 194.132 221.225 193.892 221.315 193.665C221.408 193.435 221.455 193.195 221.455 192.945C221.455 192.648 221.385 192.38 221.245 192.14C221.105 191.9 220.917 191.71 220.68 191.57C220.443 191.427 220.178 191.355 219.885 191.355C219.578 191.355 219.305 191.428 219.065 191.575C218.825 191.722 218.635 191.915 218.495 192.155C218.358 192.395 218.292 192.657 218.295 192.94H217.545C217.545 192.503 217.648 192.112 217.855 191.765C218.062 191.418 218.342 191.147 218.695 190.95C219.048 190.75 219.448 190.65 219.895 190.65C220.332 190.65 220.723 190.753 221.07 190.96C221.42 191.163 221.695 191.44 221.895 191.79C222.098 192.137 222.2 192.523 222.2 192.95C222.2 193.25 222.163 193.515 222.09 193.745C222.02 193.972 221.908 194.183 221.755 194.38C221.605 194.573 221.413 194.773 221.18 194.98L218.29 197.59L218.175 197.29H222.2V197.995H217.5ZM225.753 198.15C225.31 198.15 224.91 198.047 224.553 197.84C224.2 197.633 223.92 197.353 223.713 197C223.506 196.643 223.403 196.243 223.403 195.8V193C223.403 192.557 223.506 192.158 223.713 191.805C223.92 191.448 224.2 191.167 224.553 190.96C224.91 190.753 225.31 190.65 225.753 190.65C226.196 190.65 226.595 190.753 226.948 190.96C227.305 191.167 227.586 191.448 227.793 191.805C228 192.158 228.103 192.557 228.103 193V195.8C228.103 196.243 228 196.643 227.793 197C227.586 197.353 227.305 197.633 226.948 197.84C226.595 198.047 226.196 198.15 225.753 198.15ZM225.753 197.44C226.05 197.44 226.32 197.368 226.563 197.225C226.806 197.078 227 196.883 227.143 196.64C227.286 196.397 227.358 196.128 227.358 195.835V192.965C227.358 192.668 227.286 192.398 227.143 192.155C227 191.912 226.806 191.718 226.563 191.575C226.32 191.428 226.05 191.355 225.753 191.355C225.456 191.355 225.186 191.428 224.943 191.575C224.7 191.718 224.506 191.912 224.363 192.155C224.22 192.398 224.148 192.668 224.148 192.965V195.835C224.148 196.128 224.22 196.397 224.363 196.64C224.506 196.883 224.7 197.078 224.943 197.225C225.186 197.368 225.456 197.44 225.753 197.44ZM229.307 197.995L229.312 197.325L232.567 194.385C232.847 194.132 233.032 193.892 233.122 193.665C233.215 193.435 233.262 193.195 233.262 192.945C233.262 192.648 233.192 192.38 233.052 192.14C232.912 191.9 232.723 191.71 232.487 191.57C232.25 191.427 231.985 191.355 231.692 191.355C231.385 191.355 231.112 191.428 230.872 191.575C230.632 191.722 230.442 191.915 230.302 192.155C230.165 192.395 230.098 192.657 230.102 192.94H229.352C229.352 192.503 229.455 192.112 229.662 191.765C229.868 191.418 230.148 191.147 230.502 190.95C230.855 190.75 231.255 190.65 231.702 190.65C232.138 190.65 232.53 190.753 232.877 190.96C233.227 191.163 233.502 191.44 233.702 191.79C233.905 192.137 234.007 192.523 234.007 192.95C234.007 193.25 233.97 193.515 233.897 193.745C233.827 193.972 233.715 194.183 233.562 194.38C233.412 194.573 233.22 194.773 232.987 194.98L230.097 197.59L229.982 197.29H234.007V197.995H229.307ZM237.145 198.145C236.788 198.145 236.46 198.082 236.16 197.955C235.86 197.828 235.601 197.648 235.385 197.415C235.168 197.178 235.01 196.897 234.91 196.57L235.61 196.36C235.73 196.717 235.926 196.987 236.2 197.17C236.476 197.353 236.788 197.442 237.135 197.435C237.455 197.428 237.73 197.357 237.96 197.22C238.193 197.083 238.371 196.893 238.495 196.65C238.618 196.407 238.68 196.125 238.68 195.805C238.68 195.315 238.536 194.922 238.25 194.625C237.966 194.325 237.591 194.175 237.125 194.175C236.995 194.175 236.858 194.193 236.715 194.23C236.571 194.263 236.438 194.312 236.315 194.375L235.945 193.79L238.745 191.205L238.865 191.505H235.195V190.8H239.355V191.515L236.915 193.845L236.905 193.555C237.405 193.492 237.845 193.548 238.225 193.725C238.605 193.902 238.901 194.172 239.115 194.535C239.331 194.895 239.44 195.318 239.44 195.805C239.44 196.265 239.34 196.672 239.14 197.025C238.943 197.375 238.671 197.65 238.325 197.85C237.978 198.047 237.585 198.145 237.145 198.145Z" fill="#909199"/>
<path d="M286.7 198V190.8H290.835V191.535H287.435V194.035H290.235V194.765H287.435V198H286.7ZM293.878 198.15C293.351 198.15 292.894 198.033 292.508 197.8C292.124 197.567 291.826 197.238 291.613 196.815C291.399 196.392 291.293 195.895 291.293 195.325C291.293 194.735 291.398 194.225 291.608 193.795C291.818 193.365 292.113 193.033 292.493 192.8C292.876 192.567 293.328 192.45 293.848 192.45C294.381 192.45 294.836 192.573 295.213 192.82C295.589 193.063 295.874 193.413 296.068 193.87C296.261 194.327 296.349 194.872 296.333 195.505H295.583V195.245C295.569 194.545 295.418 194.017 295.128 193.66C294.841 193.303 294.421 193.125 293.868 193.125C293.288 193.125 292.843 193.313 292.533 193.69C292.226 194.067 292.073 194.603 292.073 195.3C292.073 195.98 292.226 196.508 292.533 196.885C292.843 197.258 293.281 197.445 293.848 197.445C294.234 197.445 294.571 197.357 294.858 197.18C295.148 197 295.376 196.742 295.543 196.405L296.228 196.67C296.014 197.14 295.699 197.505 295.283 197.765C294.869 198.022 294.401 198.15 293.878 198.15ZM291.813 195.505V194.89H295.938V195.505H291.813ZM299.867 198.15C299.371 198.15 298.951 198.025 298.607 197.775C298.264 197.522 298.004 197.18 297.827 196.75C297.651 196.317 297.562 195.832 297.562 195.295C297.562 194.748 297.651 194.262 297.827 193.835C298.007 193.405 298.271 193.067 298.617 192.82C298.964 192.573 299.391 192.45 299.897 192.45C300.391 192.45 300.814 192.575 301.167 192.825C301.521 193.075 301.791 193.415 301.977 193.845C302.167 194.275 302.262 194.758 302.262 195.295C302.262 195.835 302.167 196.32 301.977 196.75C301.787 197.18 301.514 197.522 301.157 197.775C300.801 198.025 300.371 198.15 299.867 198.15ZM297.437 198V190.8H298.177V193.935H298.097V198H297.437ZM299.792 197.465C300.169 197.465 300.482 197.37 300.732 197.18C300.982 196.99 301.169 196.732 301.292 196.405C301.419 196.075 301.482 195.705 301.482 195.295C301.482 194.888 301.421 194.522 301.297 194.195C301.174 193.868 300.986 193.61 300.732 193.42C300.482 193.23 300.164 193.135 299.777 193.135C299.401 193.135 299.087 193.227 298.837 193.41C298.591 193.593 298.406 193.848 298.282 194.175C298.159 194.498 298.097 194.872 298.097 195.295C298.097 195.712 298.159 196.085 298.282 196.415C298.406 196.742 298.592 196.998 298.842 197.185C299.092 197.372 299.409 197.465 299.792 197.465Z" fill="#909199"/>
<path d="M357.7 198V190.8H358.375L361.205 196.855L364.02 190.8H364.705V197.995H364.005V192.44L361.44 198H360.965L358.405 192.44V198H357.7ZM367.653 198.15C367.247 198.15 366.905 198.077 366.628 197.93C366.355 197.783 366.15 197.588 366.013 197.345C365.877 197.102 365.808 196.837 365.808 196.55C365.808 196.257 365.867 196.007 365.983 195.8C366.103 195.59 366.265 195.418 366.468 195.285C366.675 195.152 366.913 195.05 367.183 194.98C367.457 194.913 367.758 194.855 368.088 194.805C368.422 194.752 368.747 194.707 369.063 194.67C369.383 194.63 369.663 194.592 369.903 194.555L369.643 194.715C369.653 194.182 369.55 193.787 369.333 193.53C369.117 193.273 368.74 193.145 368.203 193.145C367.833 193.145 367.52 193.228 367.263 193.395C367.01 193.562 366.832 193.825 366.728 194.185L366.013 193.975C366.137 193.492 366.385 193.117 366.758 192.85C367.132 192.583 367.617 192.45 368.213 192.45C368.707 192.45 369.125 192.543 369.468 192.73C369.815 192.913 370.06 193.18 370.203 193.53C370.27 193.687 370.313 193.862 370.333 194.055C370.353 194.248 370.363 194.445 370.363 194.645V198H369.708V196.645L369.898 196.725C369.715 197.188 369.43 197.542 369.043 197.785C368.657 198.028 368.193 198.15 367.653 198.15ZM367.738 197.515C368.082 197.515 368.382 197.453 368.638 197.33C368.895 197.207 369.102 197.038 369.258 196.825C369.415 196.608 369.517 196.365 369.563 196.095C369.603 195.922 369.625 195.732 369.628 195.525C369.632 195.315 369.633 195.158 369.633 195.055L369.913 195.2C369.663 195.233 369.392 195.267 369.098 195.3C368.808 195.333 368.522 195.372 368.238 195.415C367.958 195.458 367.705 195.51 367.478 195.57C367.325 195.613 367.177 195.675 367.033 195.755C366.89 195.832 366.772 195.935 366.678 196.065C366.588 196.195 366.543 196.357 366.543 196.55C366.543 196.707 366.582 196.858 366.658 197.005C366.738 197.152 366.865 197.273 367.038 197.37C367.215 197.467 367.448 197.515 367.738 197.515ZM371.665 198V192.6H372.325V193.9L372.195 193.73C372.255 193.57 372.333 193.423 372.43 193.29C372.527 193.153 372.632 193.042 372.745 192.955C372.885 192.832 373.048 192.738 373.235 192.675C373.422 192.608 373.61 192.57 373.8 192.56C373.99 192.547 374.163 192.56 374.32 192.6V193.29C374.123 193.24 373.908 193.228 373.675 193.255C373.442 193.282 373.227 193.375 373.03 193.535C372.85 193.675 372.715 193.843 372.625 194.04C372.535 194.233 372.475 194.44 372.445 194.66C372.415 194.877 372.4 195.092 372.4 195.305V198H371.665Z" fill="#909199"/>
<path d="M428.7 198V190.8H429.375L432.205 196.855L435.02 190.8H435.705V197.995H435.005V192.44L432.44 198H431.965L429.405 192.44V198H428.7ZM438.653 198.15C438.247 198.15 437.905 198.077 437.628 197.93C437.355 197.783 437.15 197.588 437.013 197.345C436.877 197.102 436.808 196.837 436.808 196.55C436.808 196.257 436.867 196.007 436.983 195.8C437.103 195.59 437.265 195.418 437.468 195.285C437.675 195.152 437.913 195.05 438.183 194.98C438.457 194.913 438.758 194.855 439.088 194.805C439.422 194.752 439.747 194.707 440.063 194.67C440.383 194.63 440.663 194.592 440.903 194.555L440.643 194.715C440.653 194.182 440.55 193.787 440.333 193.53C440.117 193.273 439.74 193.145 439.203 193.145C438.833 193.145 438.52 193.228 438.263 193.395C438.01 193.562 437.832 193.825 437.728 194.185L437.013 193.975C437.137 193.492 437.385 193.117 437.758 192.85C438.132 192.583 438.617 192.45 439.213 192.45C439.707 192.45 440.125 192.543 440.468 192.73C440.815 192.913 441.06 193.18 441.203 193.53C441.27 193.687 441.313 193.862 441.333 194.055C441.353 194.248 441.363 194.445 441.363 194.645V198H440.708V196.645L440.898 196.725C440.715 197.188 440.43 197.542 440.043 197.785C439.657 198.028 439.193 198.15 438.653 198.15ZM438.738 197.515C439.082 197.515 439.382 197.453 439.638 197.33C439.895 197.207 440.102 197.038 440.258 196.825C440.415 196.608 440.517 196.365 440.563 196.095C440.603 195.922 440.625 195.732 440.628 195.525C440.632 195.315 440.633 195.158 440.633 195.055L440.913 195.2C440.663 195.233 440.392 195.267 440.098 195.3C439.808 195.333 439.522 195.372 439.238 195.415C438.958 195.458 438.705 195.51 438.478 195.57C438.325 195.613 438.177 195.675 438.033 195.755C437.89 195.832 437.772 195.935 437.678 196.065C437.588 196.195 437.543 196.357 437.543 196.55C437.543 196.707 437.582 196.858 437.658 197.005C437.738 197.152 437.865 197.273 438.038 197.37C438.215 197.467 438.448 197.515 438.738 197.515ZM442.665 198V192.6H443.325V193.9L443.195 193.73C443.255 193.57 443.333 193.423 443.43 193.29C443.527 193.153 443.632 193.042 443.745 192.955C443.885 192.832 444.048 192.738 444.235 192.675C444.422 192.608 444.61 192.57 444.8 192.56C444.99 192.547 445.163 192.56 445.32 192.6V193.29C445.123 193.24 444.908 193.228 444.675 193.255C444.442 193.282 444.227 193.375 444.03 193.535C443.85 193.675 443.715 193.843 443.625 194.04C443.535 194.233 443.475 194.44 443.445 194.66C443.415 194.877 443.4 195.092 443.4 195.305V198H442.665Z" fill="#909199"/>
</g>
<path d="M494.162 153.174C493.734 153.174 493.34 153.098 492.98 152.946C492.62 152.794 492.31 152.578 492.05 152.298C491.79 152.014 491.6 151.676 491.48 151.284L492.32 151.032C492.464 151.46 492.7 151.784 493.028 152.004C493.36 152.224 493.734 152.33 494.15 152.322C494.534 152.314 494.864 152.228 495.14 152.064C495.42 151.9 495.634 151.672 495.782 151.38C495.93 151.088 496.004 150.75 496.004 150.366C496.004 149.778 495.832 149.306 495.488 148.95C495.148 148.59 494.698 148.41 494.138 148.41C493.982 148.41 493.818 148.432 493.646 148.476C493.474 148.516 493.314 148.574 493.166 148.65L492.722 147.948L496.082 144.846L496.226 145.206H491.822V144.36H496.814V145.218L493.886 148.014L493.874 147.666C494.474 147.59 495.002 147.658 495.458 147.87C495.914 148.082 496.27 148.406 496.526 148.842C496.786 149.274 496.916 149.782 496.916 150.366C496.916 150.918 496.796 151.406 496.556 151.83C496.32 152.25 495.994 152.58 495.578 152.82C495.162 153.056 494.69 153.174 494.162 153.174ZM498.641 153V151.974H499.667V153H498.641ZM501.982 153L505.162 145.218H501.16V144.36H506.104V145.218L502.93 153H501.982ZM510.363 153.18C509.831 153.18 509.351 153.056 508.923 152.808C508.499 152.56 508.163 152.224 507.915 151.8C507.667 151.372 507.543 150.892 507.543 150.36V147C507.543 146.468 507.667 145.99 507.915 145.566C508.163 145.138 508.499 144.8 508.923 144.552C509.351 144.304 509.831 144.18 510.363 144.18C510.895 144.18 511.373 144.304 511.797 144.552C512.225 144.8 512.563 145.138 512.811 145.566C513.059 145.99 513.183 146.468 513.183 147V150.36C513.183 150.892 513.059 151.372 512.811 151.8C512.563 152.224 512.225 152.56 511.797 152.808C511.373 153.056 510.895 153.18 510.363 153.18ZM510.363 152.328C510.719 152.328 511.043 152.242 511.335 152.07C511.627 151.894 511.859 151.66 512.031 151.368C512.203 151.076 512.289 150.754 512.289 150.402V146.958C512.289 146.602 512.203 146.278 512.031 145.986C511.859 145.694 511.627 145.462 511.335 145.29C511.043 145.114 510.719 145.026 510.363 145.026C510.007 145.026 509.683 145.114 509.391 145.29C509.099 145.462 508.867 145.694 508.695 145.986C508.523 146.278 508.437 146.602 508.437 146.958V150.402C508.437 150.754 508.523 151.076 508.695 151.368C508.867 151.66 509.099 151.894 509.391 152.07C509.683 152.242 510.007 152.328 510.363 152.328Z" fill="#3B3B44"/>
<path d="M494.162 116.174C493.734 116.174 493.34 116.098 492.98 115.946C492.62 115.794 492.31 115.578 492.05 115.298C491.79 115.014 491.6 114.676 491.48 114.284L492.32 114.032C492.464 114.46 492.7 114.784 493.028 115.004C493.36 115.224 493.734 115.33 494.15 115.322C494.534 115.314 494.864 115.228 495.14 115.064C495.42 114.9 495.634 114.672 495.782 114.38C495.93 114.088 496.004 113.75 496.004 113.366C496.004 112.778 495.832 112.306 495.488 111.95C495.148 111.59 494.698 111.41 494.138 111.41C493.982 111.41 493.818 111.432 493.646 111.476C493.474 111.516 493.314 111.574 493.166 111.65L492.722 110.948L496.082 107.846L496.226 108.206H491.822V107.36H496.814V108.218L493.886 111.014L493.874 110.666C494.474 110.59 495.002 110.658 495.458 110.87C495.914 111.082 496.27 111.406 496.526 111.842C496.786 112.274 496.916 112.782 496.916 113.366C496.916 113.918 496.796 114.406 496.556 114.83C496.32 115.25 495.994 115.58 495.578 115.82C495.162 116.056 494.69 116.174 494.162 116.174ZM498.641 116V114.974H499.667V116H498.641ZM501.982 116L505.162 108.218H501.16V107.36H506.104V108.218L502.93 116H501.982ZM510.093 116.18C509.645 116.18 509.231 116.088 508.851 115.904C508.471 115.72 508.147 115.466 507.879 115.142C507.611 114.818 507.419 114.446 507.303 114.026L508.149 113.798C508.225 114.11 508.363 114.38 508.563 114.608C508.763 114.832 508.997 115.006 509.265 115.13C509.537 115.254 509.821 115.316 510.117 115.316C510.501 115.316 510.845 115.224 511.149 115.04C511.457 114.852 511.701 114.604 511.881 114.296C512.061 113.988 512.151 113.65 512.151 113.282C512.151 112.902 512.057 112.56 511.869 112.256C511.681 111.948 511.433 111.704 511.125 111.524C510.817 111.344 510.481 111.254 510.117 111.254C509.709 111.254 509.357 111.344 509.061 111.524C508.765 111.7 508.529 111.922 508.353 112.19L507.549 111.854L507.813 107.36H512.427V108.206H508.203L508.641 107.792L508.407 111.626L508.185 111.332C508.433 111.048 508.733 110.826 509.085 110.666C509.437 110.506 509.807 110.426 510.195 110.426C510.727 110.426 511.207 110.554 511.635 110.81C512.063 111.062 512.403 111.404 512.655 111.836C512.907 112.268 513.033 112.75 513.033 113.282C513.033 113.81 512.899 114.294 512.631 114.734C512.363 115.17 512.007 115.52 511.563 115.784C511.119 116.048 510.629 116.18 510.093 116.18Z" fill="#3B3B44"/>
<path d="M494.162 79.174C493.734 79.174 493.34 79.098 492.98 78.946C492.62 78.794 492.31 78.578 492.05 78.298C491.79 78.014 491.6 77.676 491.48 77.284L492.32 77.032C492.464 77.46 492.7 77.784 493.028 78.004C493.36 78.224 493.734 78.33 494.15 78.322C494.534 78.314 494.864 78.228 495.14 78.064C495.42 77.9 495.634 77.672 495.782 77.38C495.93 77.088 496.004 76.75 496.004 76.366C496.004 75.778 495.832 75.306 495.488 74.95C495.148 74.59 494.698 74.41 494.138 74.41C493.982 74.41 493.818 74.432 493.646 74.476C493.474 74.516 493.314 74.574 493.166 74.65L492.722 73.948L496.082 70.846L496.226 71.206H491.822V70.36H496.814V71.218L493.886 74.014L493.874 73.666C494.474 73.59 495.002 73.658 495.458 73.87C495.914 74.082 496.27 74.406 496.526 74.842C496.786 75.274 496.916 75.782 496.916 76.366C496.916 76.918 496.796 77.406 496.556 77.83C496.32 78.25 495.994 78.58 495.578 78.82C495.162 79.056 494.69 79.174 494.162 79.174ZM498.641 79V77.974H499.667V79H498.641ZM504.154 79.18C503.614 79.18 503.136 79.072 502.72 78.856C502.308 78.64 501.984 78.338 501.748 77.95C501.516 77.558 501.4 77.1 501.4 76.576C501.4 76.04 501.53 75.564 501.79 75.148C502.05 74.728 502.446 74.41 502.978 74.194L502.966 74.542C502.522 74.378 502.184 74.11 501.952 73.738C501.72 73.366 501.604 72.954 501.604 72.502C501.604 72.022 501.714 71.61 501.934 71.266C502.154 70.918 502.454 70.65 502.834 70.462C503.218 70.274 503.658 70.18 504.154 70.18C504.65 70.18 505.09 70.274 505.474 70.462C505.858 70.65 506.16 70.918 506.38 71.266C506.6 71.61 506.71 72.022 506.71 72.502C506.71 72.954 506.598 73.364 506.374 73.732C506.154 74.1 505.816 74.37 505.36 74.542L505.33 74.194C505.862 74.406 506.26 74.722 506.524 75.142C506.792 75.562 506.926 76.04 506.926 76.576C506.926 77.1 506.808 77.558 506.572 77.95C506.336 78.338 506.01 78.64 505.594 78.856C505.178 79.072 504.698 79.18 504.154 79.18ZM504.154 78.334C504.698 78.334 505.14 78.184 505.48 77.884C505.82 77.58 505.99 77.144 505.99 76.576C505.99 76 505.822 75.564 505.486 75.268C505.15 74.968 504.706 74.818 504.154 74.818C503.602 74.818 503.16 74.968 502.828 75.268C502.496 75.564 502.33 76 502.33 76.576C502.33 77.144 502.498 77.58 502.834 77.884C503.17 78.184 503.61 78.334 504.154 78.334ZM504.154 73.966C504.634 73.966 505.024 73.844 505.324 73.6C505.624 73.352 505.774 72.986 505.774 72.502C505.774 72.018 505.624 71.656 505.324 71.416C505.024 71.172 504.634 71.05 504.154 71.05C503.674 71.05 503.284 71.172 502.984 71.416C502.688 71.656 502.54 72.018 502.54 72.502C502.54 72.986 502.688 73.352 502.984 73.6C503.284 73.844 503.674 73.966 504.154 73.966ZM511.301 79.18C510.769 79.18 510.289 79.056 509.861 78.808C509.437 78.56 509.101 78.224 508.853 77.8C508.605 77.372 508.481 76.892 508.481 76.36V73C508.481 72.468 508.605 71.99 508.853 71.566C509.101 71.138 509.437 70.8 509.861 70.552C510.289 70.304 510.769 70.18 511.301 70.18C511.833 70.18 512.311 70.304 512.735 70.552C513.163 70.8 513.501 71.138 513.749 71.566C513.997 71.99 514.121 72.468 514.121 73V76.36C514.121 76.892 513.997 77.372 513.749 77.8C513.501 78.224 513.163 78.56 512.735 78.808C512.311 79.056 511.833 79.18 511.301 79.18ZM511.301 78.328C511.657 78.328 511.981 78.242 512.273 78.07C512.565 77.894 512.797 77.66 512.969 77.368C513.141 77.076 513.227 76.754 513.227 76.402V72.958C513.227 72.602 513.141 72.278 512.969 71.986C512.797 71.694 512.565 71.462 512.273 71.29C511.981 71.114 511.657 71.026 511.301 71.026C510.945 71.026 510.621 71.114 510.329 71.29C510.037 71.462 509.805 71.694 509.633 71.986C509.461 72.278 509.375 72.602 509.375 72.958V76.402C509.375 76.754 509.461 77.076 509.633 77.368C509.805 77.66 510.037 77.894 510.329 78.07C510.621 78.242 510.945 78.328 511.301 78.328Z" fill="#3B3B44"/>
<path d="M494.162 42.174C493.734 42.174 493.34 42.098 492.98 41.946C492.62 41.794 492.31 41.578 492.05 41.298C491.79 41.014 491.6 40.676 491.48 40.284L492.32 40.032C492.464 40.46 492.7 40.784 493.028 41.004C493.36 41.224 493.734 41.33 494.15 41.322C494.534 41.314 494.864 41.228 495.14 41.064C495.42 40.9 495.634 40.672 495.782 40.38C495.93 40.088 496.004 39.75 496.004 39.366C496.004 38.778 495.832 38.306 495.488 37.95C495.148 37.59 494.698 37.41 494.138 37.41C493.982 37.41 493.818 37.432 493.646 37.476C493.474 37.516 493.314 37.574 493.166 37.65L492.722 36.948L496.082 33.846L496.226 34.206H491.822V33.36H496.814V34.218L493.886 37.014L493.874 36.666C494.474 36.59 495.002 36.658 495.458 36.87C495.914 37.082 496.27 37.406 496.526 37.842C496.786 38.274 496.916 38.782 496.916 39.366C496.916 39.918 496.796 40.406 496.556 40.83C496.32 41.25 495.994 41.58 495.578 41.82C495.162 42.056 494.69 42.174 494.162 42.174ZM498.641 42V40.974H499.667V42H498.641ZM504.154 42.18C503.614 42.18 503.136 42.072 502.72 41.856C502.308 41.64 501.984 41.338 501.748 40.95C501.516 40.558 501.4 40.1 501.4 39.576C501.4 39.04 501.53 38.564 501.79 38.148C502.05 37.728 502.446 37.41 502.978 37.194L502.966 37.542C502.522 37.378 502.184 37.11 501.952 36.738C501.72 36.366 501.604 35.954 501.604 35.502C501.604 35.022 501.714 34.61 501.934 34.266C502.154 33.918 502.454 33.65 502.834 33.462C503.218 33.274 503.658 33.18 504.154 33.18C504.65 33.18 505.09 33.274 505.474 33.462C505.858 33.65 506.16 33.918 506.38 34.266C506.6 34.61 506.71 35.022 506.71 35.502C506.71 35.954 506.598 36.364 506.374 36.732C506.154 37.1 505.816 37.37 505.36 37.542L505.33 37.194C505.862 37.406 506.26 37.722 506.524 38.142C506.792 38.562 506.926 39.04 506.926 39.576C506.926 40.1 506.808 40.558 506.572 40.95C506.336 41.338 506.01 41.64 505.594 41.856C505.178 42.072 504.698 42.18 504.154 42.18ZM504.154 41.334C504.698 41.334 505.14 41.184 505.48 40.884C505.82 40.58 505.99 40.144 505.99 39.576C505.99 39 505.822 38.564 505.486 38.268C505.15 37.968 504.706 37.818 504.154 37.818C503.602 37.818 503.16 37.968 502.828 38.268C502.496 38.564 502.33 39 502.33 39.576C502.33 40.144 502.498 40.58 502.834 40.884C503.17 41.184 503.61 41.334 504.154 41.334ZM504.154 36.966C504.634 36.966 505.024 36.844 505.324 36.6C505.624 36.352 505.774 35.986 505.774 35.502C505.774 35.018 505.624 34.656 505.324 34.416C505.024 34.172 504.634 34.05 504.154 34.05C503.674 34.05 503.284 34.172 502.984 34.416C502.688 34.656 502.54 35.018 502.54 35.502C502.54 35.986 502.688 36.352 502.984 36.6C503.284 36.844 503.674 36.966 504.154 36.966ZM511.031 42.18C510.583 42.18 510.169 42.088 509.789 41.904C509.409 41.72 509.085 41.466 508.817 41.142C508.549 40.818 508.357 40.446 508.241 40.026L509.087 39.798C509.163 40.11 509.301 40.38 509.501 40.608C509.701 40.832 509.935 41.006 510.203 41.13C510.475 41.254 510.759 41.316 511.055 41.316C511.439 41.316 511.783 41.224 512.087 41.04C512.395 40.852 512.639 40.604 512.819 40.296C512.999 39.988 513.089 39.65 513.089 39.282C513.089 38.902 512.995 38.56 512.807 38.256C512.619 37.948 512.371 37.704 512.063 37.524C511.755 37.344 511.419 37.254 511.055 37.254C510.647 37.254 510.295 37.344 509.999 37.524C509.703 37.7 509.467 37.922 509.291 38.19L508.487 37.854L508.751 33.36H513.365V34.206H509.141L509.579 33.792L509.345 37.626L509.123 37.332C509.371 37.048 509.671 36.826 510.023 36.666C510.375 36.506 510.745 36.426 511.133 36.426C511.665 36.426 512.145 36.554 512.573 36.81C513.001 37.062 513.341 37.404 513.593 37.836C513.845 38.268 513.971 38.75 513.971 39.282C513.971 39.81 513.837 40.294 513.569 40.734C513.301 41.17 512.945 41.52 512.501 41.784C512.057 42.048 511.567 42.18 511.031 42.18Z" fill="#3B3B44"/>
<g clip-path="url(#clip1_18938_45125)">
<path d="M59.1626 33.3496H-7.52734V57.6496H59.1626V33.3496Z" fill="white"/>
<path d="M59.1626 33.3496H-7.52734V36.0496H59.1626V33.3496Z" fill="#B22234"/>
<path d="M59.1626 38.75H-7.52734V41.45H59.1626V38.75Z" fill="#B22234"/>
<path d="M59.1626 44.1504H-7.52734V46.8504H59.1626V44.1504Z" fill="#B22234"/>
<path d="M59.1626 49.5488H-7.52734V52.2488H59.1626V49.5488Z" fill="#B22234"/>
<path d="M59.1626 54.9492H-7.52734V57.6492H59.1626V54.9492Z" fill="#B22234"/>
<path d="M19.1486 33.3496H-7.52734V46.8496H19.1486V33.3496Z" fill="#3C3B6E"/>
<path d="M14.6573 34.4238L14.4145 35.1712H13.6289L14.2644 35.6328L14.0218 36.3798L14.6573 35.9181L15.2927 36.3798L15.0501 35.6327L15.6853 35.1712H14.9L14.6573 34.4238Z" fill="white"/>
<path d="M12.4461 36.3184L12.2034 37.0654H11.418L12.0535 37.527L11.8106 38.274L12.4462 37.8123L13.0815 38.274L12.8388 37.527L13.4744 37.0654H12.6887L12.4461 36.3184Z" fill="white"/>
<path d="M16.8679 36.3184L16.6252 37.0654H15.8398L16.4753 37.527L16.2324 38.274L16.868 37.8123L17.5033 38.274L17.2607 37.5271L17.8962 37.0654H17.1108L16.8679 36.3184Z" fill="white"/>
<path d="M10.2314 38.2129L9.98874 38.9599H9.20312L9.83869 39.4216L9.59598 40.1688L10.2313 39.7071L10.8668 40.1688L10.6239 39.4216L11.2595 38.9599H10.4741L10.2314 38.2129ZM10.2313 39.2941H10.2313L10.2313 39.294L10.2314 39.2941L10.2313 39.2941Z" fill="white"/>
<path d="M14.6573 38.2129L14.4146 38.9599H13.6289L14.2645 39.4216L14.0218 40.1688L14.6573 39.7072L15.2927 40.1688L15.0499 39.4215L15.6853 38.9599H14.8999L14.6573 38.2129ZM14.6573 39.2941L14.6572 39.2941L14.6573 39.294L14.6573 39.2941H14.6573Z" fill="white"/>
<path d="M8.0202 40.1094L7.77756 40.8563H6.99219L7.62746 41.3179L7.38475 42.065L8.0202 41.6033L8.65564 42.065L8.41298 41.318L9.04855 40.8563H8.26288L8.0202 40.1094Z" fill="white"/>
<path d="M12.4461 40.1094L12.2034 40.8563H11.418L12.0535 41.318L11.8106 42.065L12.4462 41.6033L13.0815 42.065L12.8388 41.318L13.4744 40.8563H12.6887L12.4461 40.1094Z" fill="white"/>
<path d="M16.8679 40.1094L16.6252 40.8563H15.8398L16.4753 41.3179L16.2324 42.065L16.868 41.6033L17.5033 42.065L17.2606 41.318L17.8962 40.8563H17.1108L16.8679 40.1094Z" fill="white"/>
<path d="M10.4741 42.7509L10.2314 42.0039L9.98874 42.7509H9.20312L9.83864 43.2126L9.59596 43.9595L10.2313 43.4978L10.8668 43.9595L10.624 43.2125L11.2595 42.7509H10.4741Z" fill="white"/>
<path d="M14.8999 42.7509L14.6573 42.0039L14.4146 42.7509H13.6289L14.2645 43.2126L14.0218 43.9595L14.6573 43.4979L15.2927 43.9595L15.05 43.2125L15.6853 42.7509H14.8999Z" fill="white"/>
<path d="M8.26288 44.6473L8.0202 43.9004L7.77754 44.6473H6.99219L7.62744 45.109L7.38475 45.856L8.0202 45.3943L8.65564 45.856L8.41298 45.1091L9.04855 44.6473H8.26288Z" fill="white"/>
<path d="M12.6887 44.6473L12.4461 43.9004L12.2034 44.6473H11.418L12.0535 45.109L11.8106 45.856L12.4462 45.3943L13.0815 45.856L12.8388 45.109L13.4744 44.6473H12.6887Z" fill="white"/>
<path d="M17.1108 44.6473L16.8679 43.9004L16.6252 44.6473H15.8398L16.4753 45.109L16.2324 45.856L16.868 45.3943L17.5033 45.856L17.2606 45.1091L17.8962 44.6473H17.1108Z" fill="white"/>
</g>
<path d="M42.5577 52V42.32L40.3897 43.64V41.776L42.5577 40.48H44.2617V52H42.5577ZM55.0948 52.24C54.1935 52.24 53.3961 52.056 52.7028 51.688C52.0148 51.3147 51.4761 50.7947 51.0868 50.128C50.6975 49.456 50.5028 48.6667 50.5028 47.76V40.488L52.1988 40.48V47.672C52.1988 48.1627 52.2815 48.5947 52.4468 48.968C52.6121 49.3413 52.8335 49.6533 53.1108 49.904C53.3881 50.1547 53.6975 50.344 54.0388 50.472C54.3855 50.6 54.7375 50.664 55.0948 50.664C55.4575 50.664 55.8095 50.6 56.1508 50.472C56.4975 50.3387 56.8095 50.1467 57.0868 49.896C57.3641 49.6453 57.5828 49.3333 57.7428 48.96C57.9081 48.5867 57.9908 48.1573 57.9908 47.672V40.48H59.6868V47.76C59.6868 48.6613 59.4921 49.448 59.1028 50.12C58.7135 50.792 58.1721 51.3147 57.4788 51.688C56.7908 52.056 55.9961 52.24 55.0948 52.24ZM65.6163 52.24C64.7896 52.24 64.043 52.0987 63.3763 51.816C62.715 51.528 62.1683 51.12 61.7363 50.592C61.3096 50.0587 61.0323 49.4267 60.9043 48.696L62.6483 48.432C62.8243 49.136 63.1923 49.6853 63.7523 50.08C64.3123 50.4693 64.9656 50.664 65.7123 50.664C66.1763 50.664 66.603 50.592 66.9923 50.448C67.3816 50.2987 67.6936 50.088 67.9283 49.816C68.1683 49.5387 68.2883 49.208 68.2883 48.824C68.2883 48.616 68.251 48.432 68.1763 48.272C68.107 48.112 68.0083 47.9733 67.8803 47.856C67.7576 47.7333 67.6056 47.6293 67.4243 47.544C67.2483 47.4533 67.0536 47.376 66.8403 47.312L63.8883 46.44C63.6003 46.3547 63.307 46.2453 63.0083 46.112C62.7096 45.9733 62.435 45.7947 62.1843 45.576C61.939 45.352 61.739 45.0773 61.5843 44.752C61.4296 44.4213 61.3523 44.0213 61.3523 43.552C61.3523 42.8427 61.5336 42.2427 61.8963 41.752C62.2643 41.256 62.7603 40.8827 63.3843 40.632C64.0083 40.376 64.707 40.248 65.4803 40.248C66.259 40.2587 66.955 40.3973 67.5683 40.664C68.187 40.9307 68.699 41.3147 69.1043 41.816C69.515 42.312 69.7976 42.9147 69.9523 43.624L68.1603 43.928C68.0803 43.496 67.9096 43.1253 67.6483 42.816C67.387 42.5013 67.067 42.2613 66.6883 42.096C66.3096 41.9253 65.899 41.8373 65.4563 41.832C65.0296 41.8213 64.6376 41.8853 64.2803 42.024C63.9283 42.1627 63.6456 42.3573 63.4323 42.608C63.2243 42.8587 63.1203 43.1467 63.1203 43.472C63.1203 43.792 63.2136 44.0507 63.4003 44.248C63.587 44.4453 63.8163 44.6027 64.0883 44.72C64.3656 44.832 64.6403 44.9253 64.9123 45L67.0403 45.6C67.307 45.6747 67.6083 45.776 67.9443 45.904C68.2856 46.0267 68.6136 46.2 68.9283 46.424C69.2483 46.648 69.5123 46.9467 69.7203 47.32C69.9283 47.688 70.0323 48.152 70.0323 48.712C70.0323 49.2933 69.915 49.8053 69.6803 50.248C69.4456 50.6853 69.123 51.0533 68.7123 51.352C68.307 51.6453 67.8376 51.8667 67.3043 52.016C66.771 52.1653 66.2083 52.24 65.6163 52.24ZM71.7372 52V40.48H75.3452C75.4519 40.48 75.6492 40.4827 75.9372 40.488C76.2305 40.4933 76.5105 40.5147 76.7772 40.552C77.6785 40.664 78.4359 40.9867 79.0492 41.52C79.6679 42.0533 80.1345 42.7307 80.4492 43.552C80.7639 44.368 80.9212 45.264 80.9212 46.24C80.9212 47.2213 80.7639 48.1227 80.4492 48.944C80.1345 49.76 79.6679 50.4347 79.0492 50.968C78.4359 51.496 77.6785 51.816 76.7772 51.928C76.5105 51.9653 76.2305 51.9867 75.9372 51.992C75.6492 51.9973 75.4519 52 75.3452 52H71.7372ZM73.4492 50.408H75.3452C75.5265 50.408 75.7425 50.4027 75.9932 50.392C76.2439 50.3813 76.4652 50.36 76.6572 50.328C77.2439 50.216 77.7185 49.9627 78.0812 49.568C78.4492 49.168 78.7185 48.6773 78.8892 48.096C79.0599 47.5147 79.1452 46.896 79.1452 46.24C79.1452 45.5627 79.0572 44.936 78.8812 44.36C78.7052 43.7787 78.4332 43.2933 78.0652 42.904C77.7025 42.5093 77.2332 42.2587 76.6572 42.152C76.4652 42.1147 76.2412 42.0933 75.9852 42.088C75.7345 42.0773 75.5212 42.072 75.3452 42.072H73.4492V50.408ZM87.1072 47.712V46.2H96.2112L94.0512 44.04L94.9712 43.12L98.8112 46.96L94.9712 50.8L94.0512 49.88L96.2192 47.712H87.1072ZM108.474 52.232C107.903 52.232 107.378 52.1307 106.898 51.928C106.418 51.7253 106.004 51.4373 105.658 51.064C105.311 50.6853 105.058 50.2347 104.898 49.712L106.018 49.376C106.21 49.9467 106.524 50.3787 106.962 50.672C107.404 50.9653 107.903 51.1067 108.458 51.096C108.97 51.0853 109.41 50.9707 109.778 50.752C110.151 50.5333 110.436 50.2293 110.634 49.84C110.831 49.4507 110.93 49 110.93 48.488C110.93 47.704 110.7 47.0747 110.242 46.6C109.788 46.12 109.188 45.88 108.442 45.88C108.234 45.88 108.015 45.9093 107.786 45.968C107.556 46.0213 107.343 46.0987 107.146 46.2L106.554 45.264L111.034 41.128L111.226 41.608H105.354V40.48H112.01V41.624L108.106 45.352L108.09 44.888C108.89 44.7867 109.594 44.8773 110.202 45.16C110.81 45.4427 111.284 45.8747 111.626 46.456C111.972 47.032 112.146 47.7093 112.146 48.488C112.146 49.224 111.986 49.8747 111.666 50.44C111.351 51 110.916 51.44 110.362 51.76C109.807 52.0747 109.178 52.232 108.474 52.232ZM114.446 52V50.632H115.814V52H114.446ZM121.796 52.24C121.076 52.24 120.439 52.096 119.884 51.808C119.335 51.52 118.903 51.1173 118.588 50.6C118.279 50.0773 118.124 49.4667 118.124 48.768C118.124 48.0533 118.297 47.4187 118.644 46.864C118.991 46.304 119.519 45.88 120.228 45.592L120.212 46.056C119.62 45.8373 119.169 45.48 118.86 44.984C118.551 44.488 118.396 43.9387 118.396 43.336C118.396 42.696 118.543 42.1467 118.836 41.688C119.129 41.224 119.529 40.8667 120.036 40.616C120.548 40.3653 121.135 40.24 121.796 40.24C122.457 40.24 123.044 40.3653 123.556 40.616C124.068 40.8667 124.471 41.224 124.764 41.688C125.057 42.1467 125.204 42.696 125.204 43.336C125.204 43.9387 125.055 44.4853 124.756 44.976C124.463 45.4667 124.012 45.8267 123.404 46.056L123.364 45.592C124.073 45.8747 124.604 46.296 124.956 46.856C125.313 47.416 125.492 48.0533 125.492 48.768C125.492 49.4667 125.335 50.0773 125.02 50.6C124.705 51.1173 124.271 51.52 123.716 51.808C123.161 52.096 122.521 52.24 121.796 52.24ZM121.796 51.112C122.521 51.112 123.111 50.912 123.564 50.512C124.017 50.1067 124.244 49.5253 124.244 48.768C124.244 48 124.02 47.4187 123.572 47.024C123.124 46.624 122.532 46.424 121.796 46.424C121.06 46.424 120.471 46.624 120.028 47.024C119.585 47.4187 119.364 48 119.364 48.768C119.364 49.5253 119.588 50.1067 120.036 50.512C120.484 50.912 121.071 51.112 121.796 51.112ZM121.796 45.288C122.436 45.288 122.956 45.1253 123.356 44.8C123.756 44.4693 123.956 43.9813 123.956 43.336C123.956 42.6907 123.756 42.208 123.356 41.888C122.956 41.5627 122.436 41.4 121.796 41.4C121.156 41.4 120.636 41.5627 120.236 41.888C119.841 42.208 119.644 42.6907 119.644 43.336C119.644 43.9813 119.841 44.4693 120.236 44.8C120.636 45.1253 121.156 45.288 121.796 45.288ZM131.325 52.24C130.616 52.24 129.976 52.0747 129.405 51.744C128.84 51.4133 128.392 50.9653 128.061 50.4C127.731 49.8293 127.565 49.1893 127.565 48.48V44C127.565 43.2907 127.731 42.6533 128.061 42.088C128.392 41.5173 128.84 41.0667 129.405 40.736C129.976 40.4053 130.616 40.24 131.325 40.24C132.035 40.24 132.672 40.4053 133.237 40.736C133.808 41.0667 134.259 41.5173 134.589 42.088C134.92 42.6533 135.085 43.2907 135.085 44V48.48C135.085 49.1893 134.92 49.8293 134.589 50.4C134.259 50.9653 133.808 51.4133 133.237 51.744C132.672 52.0747 132.035 52.24 131.325 52.24ZM131.325 51.104C131.8 51.104 132.232 50.9893 132.621 50.76C133.011 50.5253 133.32 50.2133 133.549 49.824C133.779 49.4347 133.893 49.0053 133.893 48.536V43.944C133.893 43.4693 133.779 43.0373 133.549 42.648C133.32 42.2587 133.011 41.9493 132.621 41.72C132.232 41.4853 131.8 41.368 131.325 41.368C130.851 41.368 130.419 41.4853 130.029 41.72C129.64 41.9493 129.331 42.2587 129.101 42.648C128.872 43.0373 128.757 43.4693 128.757 43.944V48.536C128.757 49.0053 128.872 49.4347 129.101 49.824C129.331 50.2133 129.64 50.5253 130.029 50.76C130.419 50.9893 130.851 51.104 131.325 51.104ZM139.339 52V41.792L137.171 43.096V41.776L139.339 40.48H140.531V52H139.339ZM147.461 52.24C146.741 52.24 146.085 52.0667 145.493 51.72C144.907 51.368 144.437 50.8933 144.085 50.296C143.739 49.6933 143.565 49.016 143.565 48.264V44.272C143.565 43.4987 143.739 42.8107 144.085 42.208C144.432 41.6 144.904 41.1227 145.501 40.776C146.104 40.424 146.787 40.248 147.549 40.248C148.205 40.248 148.813 40.392 149.373 40.68C149.939 40.968 150.4 41.3707 150.757 41.888L149.853 42.632C149.608 42.248 149.283 41.9413 148.877 41.712C148.472 41.4827 148.029 41.368 147.549 41.368C147.011 41.368 146.531 41.4987 146.109 41.76C145.688 42.0213 145.357 42.3653 145.117 42.792C144.877 43.2133 144.757 43.672 144.757 44.168V46.68L144.461 46.344C144.797 45.816 145.237 45.3893 145.781 45.064C146.331 44.7387 146.928 44.576 147.573 44.576C148.288 44.576 148.931 44.7467 149.501 45.088C150.072 45.424 150.525 45.88 150.861 46.456C151.197 47.032 151.365 47.6773 151.365 48.392C151.365 49.1013 151.187 49.7467 150.829 50.328C150.477 50.9093 150.005 51.3733 149.413 51.72C148.827 52.0667 148.176 52.24 147.461 52.24ZM147.461 51.096C147.963 51.096 148.419 50.976 148.829 50.736C149.245 50.496 149.573 50.1707 149.813 49.76C150.059 49.3493 150.181 48.8933 150.181 48.392C150.181 47.8907 150.059 47.4347 149.813 47.024C149.573 46.608 149.248 46.28 148.837 46.04C148.427 45.7947 147.971 45.672 147.469 45.672C146.968 45.672 146.512 45.7947 146.101 46.04C145.691 46.28 145.363 46.608 145.117 47.024C144.877 47.4347 144.757 47.8907 144.757 48.392C144.757 48.888 144.877 49.3413 145.117 49.752C145.357 50.1627 145.683 50.4907 146.093 50.736C146.504 50.976 146.96 51.096 147.461 51.096ZM156.887 52.24C156.29 52.24 155.738 52.1173 155.231 51.872C154.725 51.6267 154.293 51.288 153.935 50.856C153.578 50.424 153.322 49.928 153.167 49.368L154.295 49.064C154.397 49.48 154.581 49.84 154.847 50.144C155.114 50.4427 155.426 50.6747 155.783 50.84C156.146 51.0053 156.525 51.088 156.919 51.088C157.431 51.088 157.89 50.9653 158.295 50.72C158.706 50.4693 159.031 50.1387 159.271 49.728C159.511 49.3173 159.631 48.8667 159.631 48.376C159.631 47.8693 159.506 47.4133 159.255 47.008C159.005 46.5973 158.674 46.272 158.263 46.032C157.853 45.792 157.405 45.672 156.919 45.672C156.375 45.672 155.906 45.792 155.511 46.032C155.117 46.2667 154.802 46.5627 154.567 46.92L153.495 46.472L153.847 40.48H159.999V41.608H154.367L154.951 41.056L154.639 46.168L154.343 45.776C154.674 45.3973 155.074 45.1013 155.543 44.888C156.013 44.6747 156.506 44.568 157.023 44.568C157.733 44.568 158.373 44.7387 158.943 45.08C159.514 45.416 159.967 45.872 160.303 46.448C160.639 47.024 160.807 47.6667 160.807 48.376C160.807 49.08 160.629 49.7253 160.271 50.312C159.914 50.8933 159.439 51.36 158.847 51.712C158.255 52.064 157.602 52.24 156.887 52.24ZM166.085 52V40.48H167.261V52H166.085ZM169.819 52V40.48H170.995V50.872H176.467V52H169.819ZM181.831 52.24C181.026 52.24 180.3 52.1067 179.655 51.84C179.015 51.568 178.484 51.184 178.063 50.688C177.647 50.192 177.375 49.6027 177.247 48.92L178.447 48.72C178.639 49.4667 179.044 50.0533 179.663 50.48C180.282 50.9013 181.02 51.112 181.879 51.112C182.444 51.112 182.951 51.024 183.399 50.848C183.847 50.6667 184.199 50.4107 184.455 50.08C184.711 49.7493 184.839 49.3573 184.839 48.904C184.839 48.6053 184.786 48.352 184.679 48.144C184.572 47.9307 184.431 47.7547 184.255 47.616C184.079 47.4773 183.887 47.3627 183.679 47.272C183.471 47.176 183.268 47.0987 183.071 47.04L180.151 46.168C179.799 46.0667 179.474 45.9387 179.175 45.784C178.876 45.624 178.615 45.4347 178.391 45.216C178.172 44.992 178.002 44.7307 177.879 44.432C177.756 44.1333 177.695 43.792 177.695 43.408C177.695 42.7573 177.866 42.1947 178.207 41.72C178.548 41.2453 179.015 40.88 179.607 40.624C180.199 40.368 180.874 40.2427 181.631 40.248C182.399 40.248 183.084 40.384 183.687 40.656C184.295 40.928 184.796 41.3173 185.191 41.824C185.586 42.3253 185.847 42.92 185.975 43.608L184.743 43.832C184.663 43.3307 184.479 42.896 184.191 42.528C183.903 42.16 183.535 41.8773 183.087 41.68C182.644 41.4773 182.156 41.3733 181.623 41.368C181.106 41.368 180.644 41.456 180.239 41.632C179.839 41.8027 179.522 42.0373 179.287 42.336C179.052 42.6347 178.935 42.976 178.935 43.36C178.935 43.7493 179.042 44.0613 179.255 44.296C179.474 44.5307 179.74 44.7147 180.055 44.848C180.375 44.9813 180.684 45.0907 180.983 45.176L183.239 45.84C183.474 45.904 183.748 45.9973 184.063 46.12C184.383 46.2373 184.692 46.408 184.991 46.632C185.295 46.8507 185.546 47.1387 185.743 47.496C185.94 47.8533 186.039 48.3067 186.039 48.856C186.039 49.3893 185.932 49.8667 185.719 50.288C185.511 50.7093 185.215 51.064 184.831 51.352C184.452 51.64 184.007 51.8587 183.495 52.008C182.988 52.1627 182.434 52.24 181.831 52.24Z" fill="black"/>
<defs>
<filter id="filter0_i_18938_45125" x="-189" y="17.9609" width="1082" height="242.039" filterUnits="userSpaceOnUse" color-interpolation-filters="sRGB">
<feFlood flood-opacity="0" result="BackgroundImageFix"/>
<feBlend mode="normal" in="SourceGraphic" in2="BackgroundImageFix" result="shape"/>
<feColorMatrix in="SourceAlpha" type="matrix" values="0 0 0 0 0 0 0 0 0 0 0 0 0 0 0 0 0 0 127 0" result="hardAlpha"/>
<feOffset dx="-10" dy="24"/>
<feGaussianBlur stdDeviation="22"/>
<feComposite in2="hardAlpha" operator="arithmetic" k2="-1" k3="1"/>
<feColorMatrix type="matrix" values="0 0 0 0 0.160784 0 0 0 0 0.278431 0 0 0 0 0.94902 0 0 0 0.04 0"/>
<feBlend mode="normal" in2="shape" result="effect1_innerShadow_18938_45125"/>
</filter>
<linearGradient id="paint0_linear_18938_45125" x1="357" y1="36.999" x2="357" y2="168.499" gradientUnits="userSpaceOnUse">
<stop stop-color="#2947F2" stop-opacity="0.11"/>
<stop offset="1" stop-color="#2947F2" stop-opacity="0"/>
</linearGradient>
<clipPath id="clip0_18938_45125">
<rect width="472" height="217" fill="white" transform="translate(3)"/>
</clipPath>
<clipPath id="clip1_18938_45125">
<rect x="5.85156" y="33.3496" width="24.3" height="24.3" rx="12.15" fill="white"/>
</clipPath>
</defs>
</svg>
