<svg width="27" height="27" viewBox="0 0 27 27" fill="none" xmlns="http://www.w3.org/2000/svg">
<g clip-path="url(#clip0_18942_45875)">
<path d="M54.6626 1.34961H-12.0273V25.6496H54.6626V1.34961Z" fill="white"/>
<path d="M54.6626 1.34961H-12.0273V4.04961H54.6626V1.34961Z" fill="#B22234"/>
<path d="M54.6626 6.75H-12.0273V9.45002H54.6626V6.75Z" fill="#B22234"/>
<path d="M54.6626 12.1504H-12.0273V14.8504H54.6626V12.1504Z" fill="#B22234"/>
<path d="M54.6626 17.5488H-12.0273V20.2488H54.6626V17.5488Z" fill="#B22234"/>
<path d="M54.6626 22.9492H-12.0273V25.6492H54.6626V22.9492Z" fill="#B22234"/>
<path d="M14.6486 1.34961H-12.0273V14.8496H14.6486V1.34961Z" fill="#3C3B6E"/>
<path d="M10.1573 2.42383L9.91455 3.17115H9.12891L9.76442 3.6328L9.52181 4.37978L10.1573 3.91813L10.7927 4.37978L10.5501 3.63273L11.1853 3.17115H10.4L10.1573 2.42383Z" fill="white"/>
<path d="M7.94605 4.31836L7.70339 5.06537H6.91797L7.55346 5.52704L7.31061 6.27405L7.94615 5.81235L8.58152 6.27405L8.33884 5.52704L8.97436 5.06537H8.18874L7.94605 4.31836Z" fill="white"/>
<path d="M12.3679 4.31836L12.1252 5.06537H11.3398L11.9753 5.52702L11.7324 6.27405L12.368 5.81235L13.0033 6.27405L12.7607 5.52709L13.3962 5.06537H12.6108L12.3679 4.31836Z" fill="white"/>
<path d="M5.73143 6.21289L5.48874 6.9599H4.70312L5.33869 7.4216L5.09598 8.16882L5.73133 7.70715L6.36685 8.16882L6.12395 7.4216L6.75949 6.9599H5.97406L5.73143 6.21289ZM5.73128 7.29412H5.73126L5.73133 7.294L5.73136 7.29407L5.73128 7.29412Z" fill="white"/>
<path d="M10.1573 6.21289L9.9146 6.9599H9.12891L9.76452 7.42162L9.52181 8.16882L10.1573 7.70719L10.7927 8.16882L10.5499 7.42155L11.1853 6.9599H10.3999L10.1573 6.21289ZM10.1573 7.29412L10.1572 7.29407L10.1573 7.294L10.1573 7.29412H10.1573Z" fill="white"/>
<path d="M3.5202 8.10938L3.27756 8.85631H2.49219L3.12746 9.31793L2.88475 10.065L3.5202 9.60331L4.15564 10.065L3.91298 9.31803L4.54855 8.85631H3.76288L3.5202 8.10938Z" fill="white"/>
<path d="M7.94605 8.10938L7.70339 8.85631H6.91797L7.55349 9.31798L7.31061 10.065L7.94615 9.60327L8.58152 10.065L8.33884 9.31798L8.97436 8.85631H8.18874L7.94605 8.10938Z" fill="white"/>
<path d="M12.3679 8.10938L12.1252 8.85631H11.3398L11.9753 9.31793L11.7324 10.065L12.368 9.60327L13.0033 10.065L12.7606 9.31803L13.3962 8.85631H12.6108L12.3679 8.10938Z" fill="white"/>
<path d="M5.97409 10.7509L5.73143 10.0039L5.48874 10.7509H4.70312L5.33864 11.2126L5.09596 11.9595L5.73133 11.4978L6.36685 11.9595L6.12402 11.2125L6.75949 10.7509H5.97409Z" fill="white"/>
<path d="M10.3999 10.7509L10.1573 10.0039L9.9146 10.7509H9.12891L9.7645 11.2126L9.52181 11.9595L10.1573 11.4979L10.7927 11.9595L10.55 11.2125L11.1853 10.7509H10.3999Z" fill="white"/>
<path d="M3.76288 12.6473L3.5202 11.9004L3.27754 12.6473H2.49219L3.12744 13.109L2.88475 13.856L3.5202 13.3943L4.15564 13.856L3.91298 13.1091L4.54855 12.6473H3.76288Z" fill="white"/>
<path d="M8.18874 12.6473L7.94605 11.9004L7.70339 12.6473H6.91797L7.55349 13.109L7.31061 13.856L7.94615 13.3943L8.58152 13.856L8.33884 13.109L8.97436 12.6473H8.18874Z" fill="white"/>
<path d="M12.6108 12.6473L12.3679 11.9004L12.1252 12.6473H11.3398L11.9753 13.109L11.7324 13.856L12.368 13.3943L13.0033 13.856L12.7606 13.1091L13.3962 12.6473H12.6108Z" fill="white"/>
</g>
<defs>
<clipPath id="clip0_18942_45875">
<rect x="1.35156" y="1.34961" width="24.3" height="24.3" rx="12.15" fill="white"/>
</clipPath>
</defs>
</svg>
