<svg width="19" height="19" viewBox="0 0 19 19" fill="none" xmlns="http://www.w3.org/2000/svg">
<path d="M14.25 6.33334C14.25 5.07356 13.7496 3.86538 12.8588 2.97459C11.968 2.08379 10.7598 1.58334 9.5 1.58334C8.24022 1.58334 7.03204 2.08379 6.14124 2.97459C5.25044 3.86538 4.75 5.07356 4.75 6.33334C4.75 11.875 2.375 13.4583 2.375 13.4583H16.625C16.625 13.4583 14.25 11.875 14.25 6.33334Z" stroke="white" stroke-width="0.791667" stroke-linecap="round" stroke-linejoin="round"/>
<path d="M10.8696 16.625C10.7304 16.8649 10.5306 17.0641 10.2903 17.2025C10.0499 17.341 9.7774 17.4139 9.50001 17.4139C9.22263 17.4139 8.95012 17.341 8.70975 17.2025C8.46939 17.0641 8.26962 16.8649 8.13043 16.625" stroke="white" stroke-width="0.791667" stroke-linecap="round" stroke-linejoin="round"/>
</svg>
