<svg width="46" height="31" viewBox="0 0 46 31" fill="none" xmlns="http://www.w3.org/2000/svg">
<g clip-path="url(#clip0_1_535)">
<path d="M62.7568 1.55H-13.8131V29.45H62.7568V1.55Z" fill="white"/>
<path d="M62.7568 1.55H-13.8131V4.65H62.7568V1.55Z" fill="#B22234"/>
<path d="M62.7568 7.75H-13.8131V10.85H62.7568V7.75Z" fill="#B22234"/>
<path d="M62.7568 13.95H-13.8131V17.05H62.7568V13.95Z" fill="#B22234"/>
<path d="M62.7568 20.15H-13.8131V23.25H62.7568V20.15Z" fill="#B22234"/>
<path d="M62.7568 26.35H-13.8131V29.45H62.7568V26.35Z" fill="#B22234"/>
<path d="M16.8148 1.55H-13.8131V17.05H16.8148V1.55Z" fill="#3C3B6E"/>
<path d="M11.6566 2.7824L11.3779 3.64044H10.4759L11.2055 4.17048L10.927 5.02813L11.6566 4.49808L12.3862 5.02813L12.1076 4.1704L12.8369 3.64044H11.9353L11.6566 2.7824Z" fill="white"/>
<path d="M9.1175 4.95877L8.83889 5.81644H7.9371L8.66674 6.34652L8.38791 7.20419L9.11761 6.67409L9.84711 7.20419L9.56847 6.34652L10.2981 5.81644H9.39613L9.1175 4.95877Z" fill="white"/>
<path d="M14.1952 4.95877L13.9166 5.81644H13.0149L13.7445 6.34649L13.4656 7.20419L14.1953 6.67409L14.9248 7.20419L14.6462 6.34657L15.3759 5.81644H14.4741L14.1952 4.95877Z" fill="white"/>
<path d="M6.57878 7.13483L6.30014 7.9925H5.39813L6.12786 8.5226L5.84919 9.38053L6.57867 8.85045L7.30833 9.38053L7.02945 8.5226L7.75914 7.9925H6.85736L6.57878 7.13483ZM6.57861 8.37624H6.57858L6.57867 8.3761L6.57869 8.37618L6.57861 8.37624Z" fill="white"/>
<path d="M11.6566 7.13483L11.378 7.9925H10.4759L11.2056 8.52263L10.927 9.38053L11.6566 8.85051L12.3861 9.38053L12.1074 8.52254L12.8369 7.9925H11.9352L11.6566 7.13483ZM11.6566 8.37624L11.6565 8.37618L11.6566 8.3761L11.6566 8.37624H11.6566Z" fill="white"/>
<path d="M4.03968 9.31126L3.7611 10.1688H2.85938L3.58876 10.6989L3.3101 11.5566L4.03968 11.0265L4.76927 11.5566L4.49066 10.699L5.22038 10.1688H4.31832L4.03968 9.31126Z" fill="white"/>
<path d="M9.1175 9.31126L8.83889 10.1688H7.9371L8.66677 10.6989L8.38791 11.5566L9.11761 11.0265L9.84711 11.5566L9.56847 10.6989L10.2981 10.1688H9.39613L9.1175 9.31126Z" fill="white"/>
<path d="M14.1952 9.31126L13.9166 10.1688H13.0149L13.7445 10.6989L13.4656 11.5566L14.1953 11.0265L14.9248 11.5566L14.6462 10.699L15.3759 10.1688H14.4741L14.1952 9.31126Z" fill="white"/>
<path d="M6.85739 12.3449L6.57878 11.4873L6.30014 12.3449H5.39813L6.1278 12.875L5.84916 13.7326L6.57867 13.2025L7.30833 13.7326L7.02953 12.875L7.75914 12.3449H6.85739Z" fill="white"/>
<path d="M11.9352 12.3449L11.6566 11.4873L11.378 12.3449H10.4759L11.2056 12.8751L10.927 13.7326L11.6566 13.2026L12.3862 13.7326L12.1075 12.8749L12.8369 12.3449H11.9352Z" fill="white"/>
<path d="M4.31832 14.5213L4.03968 13.6637L3.76108 14.5213H2.85938L3.58874 15.0513L3.3101 15.909L4.03968 15.3789L4.76927 15.909L4.49066 15.0515L5.22038 14.5213H4.31832Z" fill="white"/>
<path d="M9.39613 14.5213L9.1175 13.6637L8.83889 14.5213H7.9371L8.66677 15.0514L8.38791 15.909L9.11761 15.3789L9.84711 15.909L9.56847 15.0514L10.2981 14.5213H9.39613Z" fill="white"/>
<path d="M14.4741 14.5213L14.1952 13.6637L13.9166 14.5213H13.0149L13.7445 15.0513L13.4656 15.909L14.1953 15.3789L14.9248 15.909L14.6462 15.0515L15.3759 14.5213H14.4741Z" fill="white"/>
</g>
<g clip-path="url(#clip1_1_535)">
<path d="M22.5 29.45C30.2044 29.45 36.45 23.2044 36.45 15.5C36.45 7.79563 30.2044 1.55 22.5 1.55C14.7956 1.55 8.54999 7.79563 8.54999 15.5C8.54999 23.2044 14.7956 29.45 22.5 29.45Z" fill="#1E3796"/>
<path d="M22.5 7.66054L21.6157 8.27608L21.9276 7.24465L21.0692 6.59423L22.1462 6.572L22.5 5.55474L22.8535 6.572L23.9307 6.59423L23.0722 7.24465L23.3845 8.27608L22.5 7.66054Z" fill="#FFE100"/>
<path d="M26.7923 8.81076L25.908 9.4263L26.2201 8.39531L25.3615 7.74445L26.4387 7.722L26.7923 6.70518L27.1458 7.722L28.2232 7.74445L27.3644 8.39531L27.6768 9.4263L26.7923 8.81076Z" fill="#FFE100"/>
<path d="M29.9347 11.9528L29.0504 12.5683L29.3625 11.5371L28.504 10.8865L29.5807 10.8642L29.9347 9.84698L30.288 10.8642L31.3655 10.8865L30.5069 11.5371L30.8192 12.5683L29.9347 11.9528Z" fill="#FFE100"/>
<path d="M22.5 24.8302L21.6157 25.4455L21.9276 24.4143L21.0692 23.7639L22.1462 23.7416L22.5 22.7237L22.8535 23.7416L23.9307 23.7639L23.0722 24.4143L23.3845 25.4455L22.5 24.8302Z" fill="#FFE100"/>
<path d="M18.2078 23.6797L17.3235 24.2953L17.6354 23.264L16.777 22.6134L17.854 22.5912L18.2078 21.5737L18.5613 22.5912L19.6385 22.6134L18.7801 23.264L19.0923 24.2953L18.2078 23.6797Z" fill="#FFE100"/>
<path d="M15.0657 20.5373L14.1814 21.1532L14.4931 20.1216L13.6346 19.471L14.7118 19.4489L15.0657 18.4312L15.4195 19.4489L16.496 19.471L15.6377 20.1216L15.95 21.1532L15.0657 20.5373Z" fill="#FFE100"/>
<path d="M31.0847 16.2455L30.2002 16.8608L30.5125 15.8294L29.6537 15.1787L30.7312 15.1567L31.0847 14.1392L31.4383 15.1567L32.5152 15.1787L31.6569 15.8294L31.969 16.8608L31.0847 16.2455Z" fill="#FFE100"/>
<path d="M29.9343 20.5381L29.0504 21.1532L29.3625 20.122L28.5035 19.4716L29.5805 19.4492L29.9343 18.4312L30.288 19.4492L31.3652 19.4716L30.5064 20.122L30.8183 21.1532L29.9343 20.5381Z" fill="#FFE100"/>
<path d="M26.7923 23.6802L25.908 24.2953L26.2201 23.264L25.3615 22.6134L26.4387 22.5912L26.7923 21.5737L27.1458 22.5912L28.2232 22.6134L27.3644 23.264L27.6768 24.2953L26.7923 23.6802Z" fill="#FFE100"/>
<path d="M13.9153 16.2455L13.0312 16.8608L13.3431 15.8294L12.4846 15.1787L13.5618 15.1567L13.9153 14.1388L14.2691 15.1567L15.3463 15.1787L14.4877 15.8294L14.8 16.8608L13.9153 16.2455Z" fill="#FFE100"/>
<path d="M15.0657 11.9534L14.1814 12.5688L14.4931 11.5373L13.6346 10.8869L14.7118 10.8647L15.0657 9.84698L15.4195 10.8647L16.496 10.8869L15.6377 11.5373L15.95 12.5688L15.0657 11.9534Z" fill="#FFE100"/>
<path d="M18.2078 8.81097L17.3235 9.4263L17.6354 8.39531L16.777 7.74402L17.854 7.722L18.2078 6.70474L18.5613 7.722L19.6385 7.74402L18.7801 8.39531L19.0923 9.4263L18.2078 8.81097Z" fill="#FFE100"/>
</g>
<g clip-path="url(#clip2_1_535)">
<path d="M49.7196 1.55H11.2804V29.5058H49.7196V1.55Z" fill="white"/>
<path d="M49.7196 4.17088H11.2804V8.53896H49.7196V4.17088Z" fill="#2A499F"/>
<path d="M49.7196 22.5169H11.2804V26.8849H49.7196V22.5169Z" fill="#2A499F"/>
<path d="M33.9945 15.5279L35.7418 12.5016H32.2473L30.5 9.47533L28.7527 12.5016H25.2581L27.0054 15.5279L25.2581 18.5542H28.7527L30.5 21.5804L32.2473 18.5542H35.7418L33.9945 15.5279ZM34.0773 13.4626L33.4398 14.567L32.8021 13.4626H34.0773ZM32.8849 15.5279L31.6924 17.5932H29.3075L28.1151 15.5279L29.3075 13.4626H31.6924L32.8849 15.5279ZM30.5 11.3973L31.1376 12.5016H29.8623L30.5 11.3973ZM26.9226 13.4626H28.1978L27.5602 14.567L26.9226 13.4626ZM26.9226 17.5932L27.5603 16.4888L28.1979 17.5932H26.9226V17.5932ZM30.5 19.6586L29.8623 18.5542H31.1376L30.5 19.6586ZM33.4397 16.4888L34.0773 17.5932H32.802L33.4397 16.4888Z" fill="#2A499F"/>
</g>
<defs>
<clipPath id="clip0_1_535">
<rect x="1.55" y="1.55" width="27.9" height="27.9" rx="13.95" fill="white"/>
</clipPath>
<clipPath id="clip1_1_535">
<rect width="27.9" height="27.9" fill="white" transform="translate(8.54999 1.55)"/>
</clipPath>
<clipPath id="clip2_1_535">
<rect x="16.55" y="1.55" width="27.9" height="27.9" rx="13.95" fill="white"/>
</clipPath>
</defs>
</svg>
