<svg width="57" height="32" viewBox="0 0 57 32" fill="none" xmlns="http://www.w3.org/2000/svg">
<g clip-path="url(#clip0_1_423)">
<path d="M64.7812 1.6H-14.2587V30.4H64.7812V1.6Z" fill="white"/>
<path d="M64.7812 1.6H-14.2587V4.8H64.7812V1.6Z" fill="#B22234"/>
<path d="M64.7812 7.99999H-14.2587V11.2H64.7812V7.99999Z" fill="#B22234"/>
<path d="M64.7812 14.4H-14.2587V17.6H64.7812V14.4Z" fill="#B22234"/>
<path d="M64.7812 20.8H-14.2587V24H64.7812V20.8Z" fill="#B22234"/>
<path d="M64.7812 27.2H-14.2587V30.4H64.7812V27.2Z" fill="#B22234"/>
<path d="M17.3572 1.6H-14.2587V17.6H17.3572V1.6Z" fill="#3C3B6E"/>
<path d="M12.0326 2.87215L11.7449 3.75787H10.8138L11.567 4.30501L11.2794 5.19032L12.0326 4.64318L12.7857 5.19032L12.4981 4.30493L13.251 3.75787H12.3203L12.0326 2.87215Z" fill="white"/>
<path d="M9.41159 5.11873L9.124 6.00407H8.19312L8.9463 6.55124L8.65847 7.43658L9.41171 6.88938L10.1647 7.43658L9.87712 6.55124L10.6303 6.00407H9.69922L9.41159 5.11873Z" fill="white"/>
<path d="M14.6531 5.11873L14.3655 6.00407H13.4347L14.1878 6.55121L13.9 7.43658L14.6533 6.88938L15.4063 7.43658L15.1187 6.5513L15.8719 6.00407H14.941L14.6531 5.11873Z" fill="white"/>
<path d="M6.791 7.36498L6.50337 8.25032H5.57227L6.32553 8.79752L6.03788 9.68312L6.79088 9.13595L7.54409 9.68312L7.2562 8.79752L8.00944 8.25032H7.07856L6.791 7.36498ZM6.79082 8.64644H6.79079L6.79088 8.64629L6.79091 8.64638L6.79082 8.64644Z" fill="white"/>
<path d="M12.0326 7.36498L11.745 8.25032H10.8138L11.5671 8.79755L11.2794 9.68312L12.0326 9.13601L12.7857 9.68312L12.498 8.79747L13.251 8.25032H12.3202L12.0326 7.36498ZM12.0326 8.64644L12.0325 8.64638L12.0326 8.64629L12.0327 8.64644H12.0326Z" fill="white"/>
<path d="M4.16999 9.61161L3.88242 10.4969H2.95161L3.70453 11.044L3.41687 11.9294L4.16999 11.3822L4.92311 11.9294L4.63551 11.0441L5.38878 10.4969H4.45762L4.16999 9.61161Z" fill="white"/>
<path d="M9.41159 9.61161L9.124 10.4969H8.19312L8.94633 11.044L8.65847 11.9294L9.41171 11.3821L10.1647 11.9294L9.87712 11.044L10.6303 10.4969H9.69922L9.41159 9.61161Z" fill="white"/>
<path d="M14.6531 9.61161L14.3655 10.4969H13.4347L14.1878 11.044L13.9 11.9294L14.6533 11.3821L15.4063 11.9294L15.1186 11.0441L15.8719 10.4969H14.941L14.6531 9.61161Z" fill="white"/>
<path d="M7.07859 12.7431L6.791 11.8579L6.50337 12.7431H5.57227L6.32547 13.2903L6.03785 14.1756L6.79088 13.6284L7.54409 14.1756L7.25629 13.2903L8.00944 12.7431H7.07859Z" fill="white"/>
<path d="M12.3202 12.7431L12.0326 11.8579L11.745 12.7431H10.8138L11.5671 13.2904L11.2794 14.1756L12.0326 13.6285L12.7857 14.1756L12.4981 13.2903L13.251 12.7431H12.3202Z" fill="white"/>
<path d="M4.45762 14.9897L4.16999 14.1044L3.88239 14.9897H2.95161L3.7045 15.5369L3.41687 16.4222L4.16999 15.875L4.92311 16.4222L4.63551 15.537L5.38878 14.9897H4.45762Z" fill="white"/>
<path d="M9.69922 14.9897L9.41159 14.1044L9.124 14.9897H8.19312L8.94633 15.5369L8.65847 16.4222L9.41171 15.875L10.1647 16.4222L9.87712 15.5369L10.6303 14.9897H9.69922Z" fill="white"/>
<path d="M14.941 14.9897L14.6531 14.1044L14.3655 14.9897H13.4347L14.1878 15.5369L13.9 16.4222L14.6533 15.875L15.4063 16.4222L15.1186 15.537L15.8719 14.9897H14.941Z" fill="white"/>
</g>
<g clip-path="url(#clip1_1_423)">
<path d="M29 30.4C36.9529 30.4 43.4 23.9529 43.4 16C43.4 8.0471 36.9529 1.6 29 1.6C21.0471 1.6 14.6 8.0471 14.6 16C14.6 23.9529 21.0471 30.4 29 30.4Z" fill="#1E3796"/>
<path d="M29 7.90764L28.0872 8.54304L28.4092 7.47834L27.5231 6.80694L28.6348 6.78399L29 5.73392L29.365 6.78399L30.4769 6.80694L29.5906 7.47834L29.9131 8.54304L29 7.90764Z" fill="#FFE100"/>
<path d="M33.4307 9.09497L32.5179 9.73037L32.8401 8.66612L31.9538 7.99427L33.0658 7.9711L33.4307 6.92147L33.7957 7.9711L34.9078 7.99427L34.0213 8.66612L34.3438 9.73037L33.4307 9.09497Z" fill="#FFE100"/>
<path d="M36.6745 12.3383L35.7617 12.9737L36.0839 11.9093L35.1976 11.2376L36.3091 11.2147L36.6745 10.1646L37.0393 11.2147L38.1514 11.2376L37.2652 11.9093L37.5876 12.9737L36.6745 12.3383Z" fill="#FFE100"/>
<path d="M29 25.6311L28.0872 26.2663L28.4092 25.2018L27.5231 24.5304L28.6348 24.5075L29 23.4567L29.365 24.5075L30.4769 24.5304L29.5906 25.2018L29.9131 26.2663L29 25.6311Z" fill="#FFE100"/>
<path d="M24.5693 24.4436L23.6565 25.079L23.9784 24.0145L23.0924 23.3429L24.2041 23.3199L24.5693 22.2696L24.9342 23.3199L26.0462 23.3429L25.1601 24.0145L25.4823 25.079L24.5693 24.4436Z" fill="#FFE100"/>
<path d="M21.3259 21.1997L20.4131 21.8356L20.7349 20.7707L19.8486 20.099L20.9605 20.0763L21.3259 19.0258L21.6911 20.0763L22.8024 20.099L21.9163 20.7707L22.2388 21.8356L21.3259 21.1997Z" fill="#FFE100"/>
<path d="M37.8616 16.7695L36.9486 17.4047L37.271 16.34L36.3845 15.6683L37.4967 15.6456L37.8616 14.5953L38.2266 15.6456L39.3383 15.6683L38.4522 16.34L38.7744 17.4047L37.8616 16.7695Z" fill="#FFE100"/>
<path d="M36.6741 21.2006L35.7617 21.8356L36.0839 20.7711L35.1972 20.0997L36.3089 20.0765L36.6741 19.0258L37.0393 20.0765L38.1512 20.0997L37.2647 20.7711L37.5867 21.8356L36.6741 21.2006Z" fill="#FFE100"/>
<path d="M33.4307 24.444L32.5179 25.079L32.8401 24.0145L31.9538 23.3429L33.0658 23.3199L33.4307 22.2696L33.7957 23.3199L34.9078 23.3429L34.0213 24.0145L34.3438 25.079L33.4307 24.444Z" fill="#FFE100"/>
<path d="M20.1384 16.7695L19.2258 17.4047L19.5478 16.34L18.6615 15.6683L19.7734 15.6456L20.1384 14.5949L20.5036 15.6456L21.6155 15.6683L20.7292 16.34L21.0517 17.4047L20.1384 16.7695Z" fill="#FFE100"/>
<path d="M21.3259 12.339L20.4131 12.9742L20.7349 11.9095L19.8486 11.2381L20.9605 11.2151L21.3259 10.1646L21.6911 11.2151L22.8024 11.2381L21.9163 11.9095L22.2388 12.9742L21.3259 12.339Z" fill="#FFE100"/>
<path d="M24.5693 9.0952L23.6565 9.73037L23.9784 8.66612L23.0924 7.99382L24.2041 7.9711L24.5693 6.92102L24.9342 7.9711L26.0462 7.99382L25.1601 8.66612L25.4823 9.73037L24.5693 9.0952Z" fill="#FFE100"/>
</g>
<g clip-path="url(#clip2_1_423)">
<path d="M60.8396 1.6H21.1604V30.4576H60.8396V1.6Z" fill="white"/>
<path d="M60.8396 4.30541H21.1604V8.8144H60.8396V4.30541Z" fill="#2A499F"/>
<path d="M60.8396 23.2432H21.1604V27.7522H60.8396V23.2432Z" fill="#2A499F"/>
<path d="M44.6073 16.0288L46.4109 12.9049H42.8037L41 9.78098L39.1964 12.9049H35.5891L37.3927 16.0288L35.5891 19.1527H39.1964L41 22.2765L42.8037 19.1527H46.4109L44.6073 16.0288ZM44.6928 13.8969L44.0346 15.0369L43.3764 13.8969H44.6928ZM43.4618 16.0288L42.2309 18.1607H39.7691L38.5382 16.0288L39.7691 13.8969H42.2309L43.4618 16.0288ZM41 11.7649L41.6582 12.9049H40.3418L41 11.7649ZM37.3073 13.8969H38.6236L37.9654 15.0369L37.3073 13.8969ZM37.3073 18.1607L37.9655 17.0207L38.6237 18.1607H37.3073V18.1607ZM41 20.2927L40.3418 19.1527H41.6582L41 20.2927ZM44.0345 17.0207L44.6927 18.1607H43.3763L44.0345 17.0207Z" fill="#2A499F"/>
</g>
<defs>
<clipPath id="clip0_1_423">
<rect x="1.6" y="1.6" width="28.8" height="28.8" rx="14.4" fill="white"/>
</clipPath>
<clipPath id="clip1_1_423">
<rect width="28.8" height="28.8" fill="white" transform="translate(14.6 1.6)"/>
</clipPath>
<clipPath id="clip2_1_423">
<rect x="26.6" y="1.6" width="28.8" height="28.8" rx="14.4" fill="white"/>
</clipPath>
</defs>
</svg>
