<svg width="79" height="38" viewBox="0 0 79 38" fill="none" xmlns="http://www.w3.org/2000/svg">
<g clip-path="url(#clip0_15_315)">
<path d="M64.7812 4.60001H-14.2587V33.4H64.7812V4.60001Z" fill="white"/>
<path d="M64.7812 4.60001H-14.2587V7.8H64.7812V4.60001Z" fill="#B22234"/>
<path d="M64.7812 11H-14.2587V14.2H64.7812V11Z" fill="#B22234"/>
<path d="M64.7812 17.4H-14.2587V20.6H64.7812V17.4Z" fill="#B22234"/>
<path d="M64.7812 23.8H-14.2587V27H64.7812V23.8Z" fill="#B22234"/>
<path d="M64.7812 30.2H-14.2587V33.4H64.7812V30.2Z" fill="#B22234"/>
<path d="M17.3572 4.60001H-14.2587V20.6H17.3572V4.60001Z" fill="#3C3B6E"/>
<path d="M12.0326 5.87216L11.7449 6.75788H10.8138L11.567 7.30502L11.2794 8.19033L12.0326 7.64319L12.7857 8.19033L12.4981 7.30493L13.251 6.75788H12.3203L12.0326 5.87216Z" fill="white"/>
<path d="M9.41159 8.11873L9.12399 9.00407H8.19312L8.94629 9.55124L8.65847 10.4366L9.4117 9.88938L10.1647 10.4366L9.87711 9.55124L10.6303 9.00407H9.69921L9.41159 8.11873Z" fill="white"/>
<path d="M14.6531 8.11873L14.3655 9.00407H13.4347L14.1878 9.55121L13.9 10.4366L14.6533 9.88938L15.4063 10.4366L15.1187 9.5513L15.8719 9.00407H14.941L14.6531 8.11873Z" fill="white"/>
<path d="M6.791 10.365L6.50337 11.2503H5.57227L6.32553 11.7975L6.03788 12.6831L6.79088 12.136L7.54409 12.6831L7.2562 11.7975L8.00944 11.2503H7.07856L6.791 10.365ZM6.79082 11.6464H6.79079L6.79088 11.6463L6.79091 11.6464L6.79082 11.6464Z" fill="white"/>
<path d="M12.0326 10.365L11.745 11.2503H10.8138L11.5671 11.7976L11.2794 12.6831L12.0326 12.136L12.7857 12.6831L12.498 11.7975L13.251 11.2503H12.3202L12.0326 10.365ZM12.0326 11.6464L12.0325 11.6464L12.0326 11.6463L12.0327 11.6464H12.0326Z" fill="white"/>
<path d="M4.16998 12.6116L3.88242 13.4969H2.9516L3.70452 14.044L3.41686 14.9294L4.16998 14.3822L4.9231 14.9294L4.63551 14.0441L5.38877 13.4969H4.45761L4.16998 12.6116Z" fill="white"/>
<path d="M9.41159 12.6116L9.12399 13.4969H8.19312L8.94632 14.044L8.65847 14.9294L9.4117 14.3822L10.1647 14.9294L9.87711 14.044L10.6303 13.4969H9.69921L9.41159 12.6116Z" fill="white"/>
<path d="M14.6531 12.6116L14.3655 13.4969H13.4347L14.1878 14.044L13.9 14.9294L14.6533 14.3822L15.4063 14.9294L15.1186 14.0441L15.8719 13.4969H14.941L14.6531 12.6116Z" fill="white"/>
<path d="M7.07859 15.7432L6.791 14.8579L6.50337 15.7432H5.57227L6.32547 16.2904L6.03785 17.1756L6.79088 16.6284L7.54409 17.1756L7.25629 16.2903L8.00944 15.7432H7.07859Z" fill="white"/>
<path d="M12.3202 15.7432L12.0326 14.8579L11.745 15.7432H10.8138L11.5671 16.2904L11.2794 17.1756L12.0326 16.6285L12.7857 17.1756L12.4981 16.2903L13.251 15.7432H12.3202Z" fill="white"/>
<path d="M4.45761 17.9897L4.16998 17.1044L3.88239 17.9897H2.9516L3.70449 18.5369L3.41686 19.4222L4.16998 18.875L4.9231 19.4222L4.63551 18.537L5.38877 17.9897H4.45761Z" fill="white"/>
<path d="M9.69921 17.9897L9.41159 17.1044L9.12399 17.9897H8.19312L8.94632 18.5369L8.65847 19.4222L9.4117 18.875L10.1647 19.4222L9.87711 18.5369L10.6303 17.9897H9.69921Z" fill="white"/>
<path d="M14.941 17.9897L14.6531 17.1044L14.3655 17.9897H13.4347L14.1878 18.5369L13.9 19.4222L14.6533 18.875L15.4063 19.4222L15.1186 18.537L15.8719 17.9897H14.941Z" fill="white"/>
</g>
<circle cx="34" cy="19" r="19" fill="white"/>
<g clip-path="url(#clip1_15_315)">
<mask id="mask0_15_315" style="mask-type:luminance" maskUnits="userSpaceOnUse" x="19" y="4" width="30" height="30">
<path d="M34 33.4C41.9529 33.4 48.4 26.9529 48.4 19C48.4 11.0471 41.9529 4.60001 34 4.60001C26.0471 4.60001 19.6 11.0471 19.6 19C19.6 26.9529 26.0471 33.4 34 33.4Z" fill="white"/>
</mask>
<g mask="url(#mask0_15_315)">
<path d="M55.7678 2.79932H12.2322V35.165H55.7678V2.79932Z" fill="#00247D"/>
</g>
<mask id="mask1_15_315" style="mask-type:luminance" maskUnits="userSpaceOnUse" x="19" y="4" width="30" height="30">
<path d="M34 33.4C41.9529 33.4 48.4 26.9529 48.4 19C48.4 11.0471 41.9529 4.60001 34 4.60001C26.0471 4.60001 19.6 11.0471 19.6 19C19.6 26.9529 26.0471 33.4 34 33.4Z" fill="white"/>
</mask>
<g mask="url(#mask1_15_315)">
<path d="M50.894 35.1649L33.9999 22.6006L17.0938 35.1649H12.2322V31.5377L29.1326 18.9822L12.2322 6.40954V2.79932H17.094L33.9999 15.3635L50.8943 2.79932H55.7678V6.40899L38.8674 18.9822L55.7678 31.5369V35.1649H50.894Z" fill="white"/>
</g>
<mask id="mask2_15_315" style="mask-type:luminance" maskUnits="userSpaceOnUse" x="19" y="4" width="30" height="30">
<path d="M34 33.4C41.9529 33.4 48.4 26.9529 48.4 19C48.4 11.0471 41.9529 4.60001 34 4.60001C26.0471 4.60001 19.6 11.0471 19.6 19C19.6 26.9529 26.0471 33.4 34 33.4Z" fill="white"/>
</mask>
<g mask="url(#mask2_15_315)">
<path d="M15.4714 35.1649H12.2322L32.3895 20.089L12.2322 5.21175V2.79932L32.4404 17.7293L52.5227 2.79932H55.7678L35.5547 17.7334L55.7678 32.7525V35.1649L35.6845 20.142L15.4714 35.1649Z" fill="#CF142B"/>
</g>
<mask id="mask3_15_315" style="mask-type:luminance" maskUnits="userSpaceOnUse" x="19" y="4" width="30" height="30">
<path d="M34 33.4C41.9529 33.4 48.4 26.9529 48.4 19C48.4 11.0471 41.9529 4.60001 34 4.60001C26.0471 4.60001 19.6 11.0471 19.6 19C19.6 26.9529 26.0471 33.4 34 33.4Z" fill="white"/>
</mask>
<g mask="url(#mask3_15_315)">
<path d="M37.9516 36.136H30.0485V22.9337H10.2907V15.0306H30.0485V2.15201H37.9516V15.0306H57.7094V22.9337H37.9516V36.136Z" fill="white"/>
</g>
<mask id="mask4_15_315" style="mask-type:luminance" maskUnits="userSpaceOnUse" x="19" y="4" width="30" height="30">
<path d="M34 33.4C41.9529 33.4 48.4 26.9529 48.4 19C48.4 11.0471 41.9529 4.60001 34 4.60001C26.0471 4.60001 19.6 11.0471 19.6 19C19.6 26.9529 26.0471 33.4 34 33.4Z" fill="white"/>
</mask>
<g mask="url(#mask4_15_315)">
<path d="M36.371 36.136H31.629V21.3531H10.2907V16.6113H31.629V2.15201H36.371V16.6113H57.7094V21.3531H36.371V36.136Z" fill="#CF142B"/>
</g>
</g>
<circle cx="60" cy="19" r="19" fill="white"/>
<g clip-path="url(#clip2_15_315)">
<path d="M79.8396 4.60001H40.1604V33.4576H79.8396V4.60001Z" fill="white"/>
<path d="M79.8396 7.30542H40.1604V11.8144H79.8396V7.30542Z" fill="#2A499F"/>
<path d="M79.8396 26.2432H40.1604V30.7522H79.8396V26.2432Z" fill="#2A499F"/>
<path d="M63.6073 19.0288L65.4109 15.9049H61.8037L60 12.781L58.1964 15.9049H54.5891L56.3927 19.0288L54.5891 22.1527H58.1964L60 25.2765L61.8037 22.1527H65.4109L63.6073 19.0288ZM63.6928 16.8969L63.0346 18.0369L62.3764 16.8969H63.6928ZM62.4618 19.0288L61.2309 21.1607H58.7691L57.5382 19.0288L58.7691 16.8969H61.2309L62.4618 19.0288ZM60 14.7649L60.6582 15.9049H59.3418L60 14.7649ZM56.3073 16.8969H57.6236L56.9654 18.0369L56.3073 16.8969ZM56.3073 21.1607L56.9655 20.0207L57.6237 21.1607H56.3073V21.1607ZM60 23.2927L59.3418 22.1527H60.6582L60 23.2927ZM63.0345 20.0207L63.6927 21.1607H62.3763L63.0345 20.0207Z" fill="#2A499F"/>
</g>
<defs>
<clipPath id="clip0_15_315">
<rect x="1.60001" y="4.60001" width="28.8" height="28.8" rx="14.4" fill="white"/>
</clipPath>
<clipPath id="clip1_15_315">
<rect width="28.8" height="28.8" fill="white" transform="translate(19.6 4.60001)"/>
</clipPath>
<clipPath id="clip2_15_315">
<rect x="45.6" y="4.60001" width="28.8" height="28.8" rx="14.4" fill="white"/>
</clipPath>
</defs>
</svg>
