<svg width="47" height="26" viewBox="0 0 47 26" fill="none" xmlns="http://www.w3.org/2000/svg">
<g clip-path="url(#clip0_20351_161842)">
<path d="M48.5859 2.19922H-10.694V23.7992H48.5859V2.19922Z" fill="white"/>
<path d="M48.5859 2.19922H-10.694V4.59922H48.5859V2.19922Z" fill="#B22234"/>
<path d="M48.5859 7H-10.694V9.40002H48.5859V7Z" fill="#B22234"/>
<path d="M48.5859 11.8008H-10.694V14.2008H48.5859V11.8008Z" fill="#B22234"/>
<path d="M48.5859 16.5977H-10.694V18.9977H48.5859V16.5977Z" fill="#B22234"/>
<path d="M48.5859 21.3984H-10.694V23.7984H48.5859V21.3984Z" fill="#B22234"/>
<path d="M13.0179 2.19922H-10.694V14.1993H13.0179V2.19922Z" fill="#3C3B6E"/>
<path d="M9.02446 3.15234L8.8087 3.81663H8.11035L8.67526 4.22699L8.4596 4.89097L9.02446 4.48061L9.5893 4.89097L9.37361 4.22692L9.93825 3.81663H9.2402L9.02446 3.15234Z" fill="white"/>
<path d="M7.05869 4.83984L6.84299 5.50385H6.14484L6.70972 5.91423L6.49385 6.57823L7.05878 6.16783L7.62355 6.57823L7.40783 5.91423L7.97274 5.50385H7.27441L7.05869 4.83984Z" fill="white"/>
<path d="M10.9898 4.83984L10.7741 5.50385H10.076L10.6409 5.91421L10.425 6.57823L10.9899 6.16783L11.5547 6.57823L11.339 5.91427L11.9039 5.50385H11.2058L10.9898 4.83984Z" fill="white"/>
<path d="M5.09325 6.52344L4.87753 7.18744H4.1792L4.74415 7.59784L4.52841 8.26204L5.09316 7.85167L5.65806 8.26204L5.44215 7.59784L6.00708 7.18744H5.30892L5.09325 6.52344ZM5.09312 7.48453H5.0931L5.09316 7.48442L5.09318 7.48449L5.09312 7.48453Z" fill="white"/>
<path d="M9.02446 6.52344L8.80874 7.18744H8.11035L8.67534 7.59786L8.4596 8.26204L9.02444 7.85171L9.58928 8.26204L9.3735 7.5978L9.93823 7.18744H9.24016L9.02446 6.52344ZM9.02446 7.48453L9.0244 7.48449L9.02444 7.48442L9.02451 7.48453H9.02446Z" fill="white"/>
<path d="M3.12747 8.20703L2.9118 8.87097H2.21368L2.77837 9.28131L2.56263 9.94536L3.12747 9.53498L3.69231 9.94536L3.47661 9.28139L4.04156 8.87097H3.34319L3.12747 8.20703Z" fill="white"/>
<path d="M7.05869 8.20703L6.84299 8.87097H6.14484L6.70974 9.28135L6.49385 9.94536L7.05878 9.53493L7.62355 9.94536L7.40783 9.28135L7.97274 8.87097H7.27441L7.05869 8.20703Z" fill="white"/>
<path d="M10.9898 8.20703L10.7741 8.87097H10.076L10.6409 9.28131L10.425 9.94536L10.9899 9.53493L11.5547 9.94536L11.339 9.28139L11.9039 8.87097H11.2058L10.9898 8.20703Z" fill="white"/>
<path d="M5.30894 10.5585L5.09325 9.89453L4.87753 10.5585H4.1792L4.7441 10.9689L4.52838 11.6328L5.09316 11.2224L5.65806 11.6328L5.44222 10.9689L6.00708 10.5585H5.30894Z" fill="white"/>
<path d="M9.24016 10.5585L9.02446 9.89453L8.80874 10.5585H8.11035L8.67532 10.9689L8.4596 11.6328L9.02446 11.2225L9.5893 11.6328L9.37358 10.9688L9.93825 10.5585H9.24016Z" fill="white"/>
<path d="M3.34319 12.2421L3.12747 11.5781L2.91177 12.2421H2.21368L2.77835 12.6524L2.56263 13.3164L3.12747 12.9061L3.69231 13.3164L3.47661 12.6525L4.04156 12.2421H3.34319Z" fill="white"/>
<path d="M7.27441 12.2421L7.05869 11.5781L6.84299 12.2421H6.14484L6.70974 12.6525L6.49385 13.3164L7.05878 12.906L7.62355 13.3164L7.40783 12.6525L7.97274 12.2421H7.27441Z" fill="white"/>
<path d="M11.2058 12.2421L10.9898 11.5781L10.7741 12.2421H10.076L10.6409 12.6524L10.425 13.3164L10.9899 12.906L11.5547 13.3164L11.339 12.6525L11.9039 12.2421H11.2058Z" fill="white"/>
</g>
<g clip-path="url(#clip1_20351_161842)">
<mask id="mask0_20351_161842" style="mask-type:luminance" maskUnits="userSpaceOnUse" x="11" y="2" width="22" height="22">
<path d="M22 23.7992C27.9647 23.7992 32.8 18.9639 32.8 12.9992C32.8 7.03454 27.9647 2.19922 22 2.19922C16.0353 2.19922 11.2 7.03454 11.2 12.9992C11.2 18.9639 16.0353 23.7992 22 23.7992Z" fill="white"/>
</mask>
<g mask="url(#mask0_20351_161842)">
<path d="M38.3259 0.847656H5.67419V25.122H38.3259V0.847656Z" fill="#00247D"/>
</g>
<mask id="mask1_20351_161842" style="mask-type:luminance" maskUnits="userSpaceOnUse" x="11" y="2" width="22" height="22">
<path d="M22 23.7992C27.9647 23.7992 32.8 18.9639 32.8 12.9992C32.8 7.03454 27.9647 2.19922 22 2.19922C16.0353 2.19922 11.2 7.03454 11.2 12.9992C11.2 18.9639 16.0353 23.7992 22 23.7992Z" fill="white"/>
</mask>
<g mask="url(#mask1_20351_161842)">
<path d="M34.6706 25.1218L22 15.6986L9.3204 25.1218H5.67419V22.4015L18.3495 12.9848L5.67419 3.55532V0.847656H9.32051L22 10.2708L34.6708 0.847656H38.3259V3.55491L25.6506 12.9848L38.3259 22.4009V25.1218H34.6706Z" fill="white"/>
</g>
<mask id="mask2_20351_161842" style="mask-type:luminance" maskUnits="userSpaceOnUse" x="11" y="2" width="22" height="22">
<path d="M22 23.7992C27.9647 23.7992 32.8 18.9639 32.8 12.9992C32.8 7.03454 27.9647 2.19922 22 2.19922C16.0353 2.19922 11.2 7.03454 11.2 12.9992C11.2 18.9639 16.0353 23.7992 22 23.7992Z" fill="white"/>
</mask>
<g mask="url(#mask2_20351_161842)">
<path d="M8.10359 25.1218H5.67419L20.7922 13.8149L5.67419 2.65698V0.847656L20.8303 12.0451L35.8921 0.847656H38.3259L23.1661 12.0483L38.3259 23.3125V25.1218L23.2634 13.8547L8.10359 25.1218Z" fill="#CF142B"/>
</g>
<mask id="mask3_20351_161842" style="mask-type:luminance" maskUnits="userSpaceOnUse" x="11" y="2" width="22" height="22">
<path d="M22 23.7992C27.9647 23.7992 32.8 18.9639 32.8 12.9992C32.8 7.03454 27.9647 2.19922 22 2.19922C16.0353 2.19922 11.2 7.03454 11.2 12.9992C11.2 18.9639 16.0353 23.7992 22 23.7992Z" fill="white"/>
</mask>
<g mask="url(#mask3_20351_161842)">
<path d="M24.9637 25.8513H19.0364V15.9495H4.21808V10.0223H19.0364V0.363281H24.9637V10.0223H39.7821V15.9495H24.9637V25.8513Z" fill="white"/>
</g>
<mask id="mask4_20351_161842" style="mask-type:luminance" maskUnits="userSpaceOnUse" x="11" y="2" width="22" height="22">
<path d="M22 23.7992C27.9647 23.7992 32.8 18.9639 32.8 12.9992C32.8 7.03454 27.9647 2.19922 22 2.19922C16.0353 2.19922 11.2 7.03454 11.2 12.9992C11.2 18.9639 16.0353 23.7992 22 23.7992Z" fill="white"/>
</mask>
<g mask="url(#mask4_20351_161842)">
<path d="M23.7783 25.8513H20.2218V14.7641H4.21808V11.2077H20.2218V0.363281H23.7783V11.2077H39.7821V14.7641H23.7783V25.8513Z" fill="#CF142B"/>
</g>
</g>
<g clip-path="url(#clip2_20351_161842)">
<path d="M49.9997 1.30078H19.0003V24.7476H49.9997V1.30078Z" fill="white"/>
<path d="M49.9997 3.5H19.0003V7.16355H49.9997V3.5Z" fill="#2A499F"/>
<path d="M49.9997 18.8867H19.0003V22.5503H49.9997V18.8867Z" fill="#2A499F"/>
<path d="M37.3182 13.0255L38.7273 10.4874H35.9091L34.5 7.94922L33.0909 10.4874H30.2727L31.6818 13.0255L30.2727 15.5637H33.0909L34.5 18.1018L35.9091 15.5637H38.7273L37.3182 13.0255ZM37.385 11.2934L36.8708 12.2196L36.3565 11.2934H37.385ZM36.4233 13.0256L35.4617 14.7578H33.5383L32.5767 13.0256L33.5383 11.2934H35.4617L36.4233 13.0256ZM34.5 9.56115L35.0142 10.4874H33.9858L34.5 9.56115ZM31.615 11.2934H32.6434L32.1292 12.2196L31.615 11.2934ZM31.615 14.7578L32.1292 13.8315L32.6435 14.7578H31.615ZM34.5 16.49L33.9857 15.5637H35.0142L34.5 16.49ZM36.8707 13.8315L37.3849 14.7578H36.3565L36.8707 13.8315Z" fill="#2A499F"/>
</g>
<defs>
<clipPath id="clip0_20351_161842">
<rect x="1.20001" y="2.19922" width="21.6" height="21.6" rx="10.8" fill="white"/>
</clipPath>
<clipPath id="clip1_20351_161842">
<rect width="21.6" height="21.6" fill="white" transform="translate(11.2 2.19922)"/>
</clipPath>
<clipPath id="clip2_20351_161842">
<rect x="23.25" y="1.30078" width="22.5" height="23.4" rx="11.25" fill="white"/>
</clipPath>
</defs>
</svg>
