<svg width="64" height="33" viewBox="0 0 64 33" fill="none" xmlns="http://www.w3.org/2000/svg">
<g clip-path="url(#clip0_72_16282)">
<path d="M64.0921 2.25319H-14.107V30.7468H64.0921V2.25319Z" fill="white"/>
<path d="M64.0921 2.25319H-14.107V5.41914H64.0921V2.25319Z" fill="#B22234"/>
<path d="M64.0921 8.5851H-14.107V11.7511H64.0921V8.5851Z" fill="#B22234"/>
<path d="M64.0921 14.917H-14.107V18.083H64.0921V14.917Z" fill="#B22234"/>
<path d="M64.0921 21.2489H-14.107V24.4149H64.0921V21.2489Z" fill="#B22234"/>
<path d="M64.0921 27.5809H-14.107V30.7468H64.0921V27.5809Z" fill="#B22234"/>
<path d="M17.1726 2.25319H-14.107V18.083H17.1726V2.25319Z" fill="#3C3B6E"/>
<path d="M11.9046 3.51181L11.62 4.3881H10.6987L11.4439 4.92942L11.1594 5.80532L11.9046 5.264L12.6497 5.80532L12.3652 4.92934L13.11 4.3881H12.1892L11.9046 3.51181Z" fill="white"/>
<path d="M9.31146 5.73448L9.02693 6.6104H8.10596L8.85112 7.15175L8.56636 8.02768L9.31158 7.4863L10.0566 8.02768L9.77204 7.15175L10.5172 6.6104H9.59603L9.31146 5.73448Z" fill="white"/>
<path d="M14.4972 5.73448L14.2127 6.6104H13.2918L14.0369 7.15173L13.7521 8.02768L14.4974 7.4863L15.2424 8.02768L14.9578 7.15181L15.7031 6.6104H14.7821L14.4972 5.73448Z" fill="white"/>
<path d="M6.71876 7.95685L6.4342 8.83277H5.513L6.25825 9.37415L5.97366 10.2503L6.71865 9.70898L7.46384 10.2503L7.17902 9.37415L7.92424 8.83277H7.00327L6.71876 7.95685ZM6.71859 9.22467H6.71857L6.71865 9.22453L6.71868 9.22461L6.71859 9.22467Z" fill="white"/>
<path d="M11.9046 7.95685L11.62 8.83277H10.6987L11.444 9.37418L11.1594 10.2503L11.9046 9.70903L12.6497 10.2503L12.365 9.37409L13.11 8.83277H12.1891L11.9046 7.95685ZM11.9046 9.22467L11.9045 9.22461L11.9046 9.22453L11.9046 9.22467H11.9046Z" fill="white"/>
<path d="M4.12565 10.1796L3.84114 11.0554H2.92023L3.66514 11.5967L3.38054 12.4727L4.12565 11.9313L4.87076 12.4727L4.58622 11.5968L5.33147 11.0554H4.41022L4.12565 10.1796Z" fill="white"/>
<path d="M9.31146 10.1796L9.02693 11.0554H8.10596L8.85115 11.5968L8.56636 12.4727L9.31158 11.9313L10.0566 12.4727L9.77204 11.5968L10.5172 11.0554H9.59603L9.31146 10.1796Z" fill="white"/>
<path d="M14.4972 10.1796L14.2127 11.0554H13.2918L14.0369 11.5967L13.7521 12.4727L14.4974 11.9313L15.2424 12.4727L14.9578 11.5968L15.7031 11.0554H14.7821L14.4972 10.1796Z" fill="white"/>
<path d="M7.0033 13.2778L6.71876 12.4019L6.4342 13.2778H5.513L6.25819 13.8192L5.97363 14.695L6.71865 14.1536L7.46384 14.695L7.17911 13.8191L7.92424 13.2778H7.0033Z" fill="white"/>
<path d="M12.1891 13.2778L11.9046 12.4019L11.62 13.2778H10.6987L11.444 13.8192L11.1594 14.695L11.9046 14.1537L12.6497 14.695L12.3651 13.8191L13.11 13.2778H12.1891Z" fill="white"/>
<path d="M4.41022 15.5004L4.12565 14.6246L3.84111 15.5004H2.92023L3.66511 16.0418L3.38054 16.9177L4.12565 16.3764L4.87076 16.9177L4.58622 16.0419L5.33147 15.5004H4.41022Z" fill="white"/>
<path d="M9.59603 15.5004L9.31146 14.6246L9.02693 15.5004H8.10596L8.85115 16.0418L8.56636 16.9177L9.31158 16.3763L10.0566 16.9177L9.77204 16.0418L10.5172 15.5004H9.59603Z" fill="white"/>
<path d="M14.7821 15.5004L14.4972 14.6246L14.2127 15.5004H13.2918L14.0369 16.0418L13.7521 16.9177L14.4974 16.3763L15.2424 16.9177L14.9578 16.0419L15.7031 15.5004H14.7821Z" fill="white"/>
</g>
<g clip-path="url(#clip1_72_16282)">
<path d="M32.4894 30.7468C40.3577 30.7468 46.7362 24.3683 46.7362 16.5C46.7362 8.6317 40.3577 2.25319 32.4894 2.25319C24.6211 2.25319 18.2426 8.6317 18.2426 16.5C18.2426 24.3683 24.6211 30.7468 32.4894 30.7468Z" fill="#1E3796"/>
<path d="M32.4893 8.49374L31.5862 9.12238L31.9048 8.06901L31.0281 7.40475L32.128 7.38204L32.4893 6.34314L32.8504 7.38204L33.9505 7.40475L33.0737 8.06901L33.3927 9.12238L32.4893 8.49374Z" fill="#FFE100"/>
<path d="M36.8729 9.66843L35.9698 10.2971L36.2886 9.24414L35.4117 8.57944L36.5119 8.55651L36.8729 7.51805L37.234 8.55651L38.3343 8.57944L37.4573 9.24414L37.7763 10.2971L36.8729 9.66843Z" fill="#FFE100"/>
<path d="M40.0822 12.8773L39.1791 13.5059L39.4979 12.4528L38.621 11.7883L39.7207 11.7656L40.0822 10.7267L40.4431 11.7656L41.5434 11.7883L40.6666 12.4528L40.9856 13.5059L40.0822 12.8773Z" fill="#FFE100"/>
<path d="M32.4893 26.0287L31.5862 26.6571L31.9048 25.6039L31.0281 24.9397L32.128 24.917L32.4893 23.8774L32.8504 24.917L33.9505 24.9397L33.0737 25.6039L33.3927 26.6571L32.4893 26.0287Z" fill="#FFE100"/>
<path d="M28.1058 24.8538L27.2027 25.4824L27.5212 24.4292L26.6446 23.7648L27.7445 23.7421L28.1058 22.7029L28.4668 23.7421L29.567 23.7648L28.6903 24.4292L29.0091 25.4824L28.1058 24.8538Z" fill="#FFE100"/>
<path d="M24.8969 21.6444L23.9938 22.2735L24.3121 21.2199L23.4353 20.5554L24.5354 20.533L24.8969 19.4936L25.2582 20.533L26.3577 20.5554L25.4811 21.2199L25.8001 22.2735L24.8969 21.6444Z" fill="#FFE100"/>
<path d="M41.2567 17.2613L40.3534 17.8897L40.6724 16.8364L39.7953 16.1719L40.8956 16.1494L41.2567 15.1103L41.6178 16.1494L42.7177 16.1719L41.841 16.8364L42.1598 17.8897L41.2567 17.2613Z" fill="#FFE100"/>
<path d="M40.0818 21.6453L39.1791 22.2735L39.4979 21.2204L38.6206 20.5561L39.7205 20.5332L40.0818 19.4936L40.4431 20.5332L41.5432 20.5561L40.6661 21.2204L40.9847 22.2735L40.0818 21.6453Z" fill="#FFE100"/>
<path d="M36.8729 24.8542L35.9698 25.4824L36.2886 24.4292L35.4117 23.7648L36.5119 23.7421L36.8729 22.7029L37.234 23.7421L38.3343 23.7648L37.4573 24.4292L37.7763 25.4824L36.8729 24.8542Z" fill="#FFE100"/>
<path d="M23.722 17.2613L22.8191 17.8897L23.1376 16.8364L22.2608 16.1719L23.3609 16.1494L23.722 15.1098L24.0833 16.1494L25.1834 16.1719L24.3066 16.8364L24.6256 17.8897L23.722 17.2613Z" fill="#FFE100"/>
<path d="M24.8969 12.878L23.9938 13.5064L24.3121 12.453L23.4353 11.7888L24.5354 11.766L24.8969 10.7267L25.2582 11.766L26.3577 11.7888L25.4811 12.453L25.8001 13.5064L24.8969 12.878Z" fill="#FFE100"/>
<path d="M28.1058 9.66865L27.2027 10.2971L27.5212 9.24414L26.6446 8.579L27.7445 8.55651L28.1058 7.51761L28.4668 8.55651L29.567 8.579L28.6903 9.24414L29.0091 10.2971L28.1058 9.66865Z" fill="#FFE100"/>
</g>
<g clip-path="url(#clip2_72_16282)">
<mask id="mask0_72_16282" style="mask-type:luminance" maskUnits="userSpaceOnUse" x="34" y="2" width="28" height="29">
<path d="M48.3192 30.45C55.775 30.45 61.8192 24.2044 61.8192 16.5C61.8192 8.79563 55.775 2.55 48.3192 2.55C40.8633 2.55 34.8192 8.79563 34.8192 16.5C34.8192 24.2044 40.8633 30.45 48.3192 30.45Z" fill="white"/>
</mask>
<g mask="url(#mask0_72_16282)">
<path d="M68.7264 0.805588H27.9119V32.1599H68.7264V0.805588Z" fill="#00247D"/>
</g>
<mask id="mask1_72_16282" style="mask-type:luminance" maskUnits="userSpaceOnUse" x="34" y="2" width="28" height="29">
<path d="M48.3192 30.45C55.775 30.45 61.8192 24.2044 61.8192 16.5C61.8192 8.79563 55.775 2.55 48.3192 2.55C40.8633 2.55 34.8192 8.79563 34.8192 16.5C34.8192 24.2044 40.8633 30.45 48.3192 30.45Z" fill="white"/>
</mask>
<g mask="url(#mask1_72_16282)">
<path d="M64.1573 32.1597L48.3191 19.9881L32.4696 32.1597H27.9119V28.6459L43.756 16.4827L27.9119 4.30299V0.805588H32.4698L48.3191 12.9772L64.1576 0.805588H68.7264V4.30246L52.8823 16.4827L68.7264 28.6451V32.1597H64.1573Z" fill="white"/>
</g>
<mask id="mask2_72_16282" style="mask-type:luminance" maskUnits="userSpaceOnUse" x="34" y="2" width="28" height="29">
<path d="M48.3192 30.45C55.775 30.45 61.8192 24.2044 61.8192 16.5C61.8192 8.79563 55.775 2.55 48.3192 2.55C40.8633 2.55 34.8192 8.79563 34.8192 16.5C34.8192 24.2044 40.8633 30.45 48.3192 30.45Z" fill="white"/>
</mask>
<g mask="url(#mask2_72_16282)">
<path d="M30.9486 32.1597H27.9119L46.8093 17.555L27.9119 3.14263V0.805588L46.857 15.269L65.6842 0.805588H68.7264L49.7767 15.273L68.7264 29.8227V32.1597L49.8984 17.6063L30.9486 32.1597Z" fill="#CF142B"/>
</g>
<mask id="mask3_72_16282" style="mask-type:luminance" maskUnits="userSpaceOnUse" x="34" y="2" width="28" height="29">
<path d="M48.3192 30.45C55.775 30.45 61.8192 24.2044 61.8192 16.5C61.8192 8.79563 55.775 2.55 48.3192 2.55C40.8633 2.55 34.8192 8.79563 34.8192 16.5C34.8192 24.2044 40.8633 30.45 48.3192 30.45Z" fill="white"/>
</mask>
<g mask="url(#mask3_72_16282)">
<path d="M52.0237 33.1005H44.6146V20.3107H26.0917V12.6547H44.6146V0.178497H52.0237V12.6547H70.5467V20.3107H52.0237V33.1005Z" fill="white"/>
</g>
<mask id="mask4_72_16282" style="mask-type:luminance" maskUnits="userSpaceOnUse" x="34" y="2" width="28" height="29">
<path d="M48.3192 30.45C55.775 30.45 61.8192 24.2044 61.8192 16.5C61.8192 8.79563 55.775 2.55 48.3192 2.55C40.8633 2.55 34.8192 8.79563 34.8192 16.5C34.8192 24.2044 40.8633 30.45 48.3192 30.45Z" fill="white"/>
</mask>
<g mask="url(#mask4_72_16282)">
<path d="M50.5419 33.1005H46.0964V18.7796H26.0917V14.1859H46.0964V0.178497H50.5419V14.1859H70.5467V18.7796H50.5419V33.1005Z" fill="#CF142B"/>
</g>
</g>
<defs>
<clipPath id="clip0_72_16282">
<rect x="1.58301" y="2.25319" width="28.4936" height="28.4936" rx="14.2468" fill="white"/>
</clipPath>
<clipPath id="clip1_72_16282">
<rect width="28.4936" height="28.4936" fill="white" transform="translate(18.2426 2.25319)"/>
</clipPath>
<clipPath id="clip2_72_16282">
<rect width="27" height="27.9" fill="white" transform="translate(34.8192 2.55)"/>
</clipPath>
</defs>
</svg>
