<svg width="13" height="14" viewBox="0 0 13 14" fill="none" xmlns="http://www.w3.org/2000/svg">
<path d="M0.5 7.10446C0.5 3.63194 3.15228 0.866211 6.36505 0.866211C9.57773 0.866211 12.2301 3.63195 12.2301 7.10446C12.2301 10.577 9.57773 13.3427 6.36505 13.3427C3.15228 13.3427 0.5 10.577 0.5 7.10446Z" stroke="#586D8E"/>
<path d="M6.98497 9.01382H5.82031V10.2021H6.98497V9.01382Z" fill="#586D8E"/>
<path d="M7.6094 4.47553C7.44615 4.32363 7.25622 4.20742 7.03973 4.12693C6.82304 4.04662 6.59666 4.00638 6.36031 4.00638C6.11264 4.00638 5.88204 4.04823 5.66826 4.13146C5.45431 4.21492 5.26729 4.3325 5.10694 4.48443C4.9466 4.63635 4.82004 4.82397 4.72723 5.04728C4.63434 5.27064 4.58789 5.5194 4.58789 5.79323H5.68514C5.68514 5.58489 5.74128 5.40912 5.85384 5.26606C5.96632 5.12324 6.13515 5.05186 6.36028 5.05186C6.57406 5.05186 6.74139 5.1219 6.86245 5.26175C6.98339 5.40183 7.04388 5.57607 7.04388 5.78438C7.04388 5.88582 7.01989 5.987 6.9721 6.08821C6.92431 6.18965 6.86663 6.28788 6.79908 6.38293L6.27048 7.09971C6.15792 7.25458 5.85382 7.70268 5.85382 8.16088V8.42901H6.95102V8.24139C6.95102 8.16406 6.96499 8.08357 6.99326 8.00008C7.02128 7.91685 7.1537 7.71307 7.19883 7.65348L7.72753 6.91009C7.84568 6.7434 7.94397 6.57215 8.02293 6.39635C8.10165 6.22079 8.14108 6.01975 8.14108 5.79325C8.14108 5.5074 8.0932 5.25424 7.99757 5.03388C7.9019 4.81349 7.77248 4.62722 7.6094 4.47553Z" fill="#586D8E"/>
</svg>
