<svg width="19" height="19" viewBox="0 0 19 19" fill="none" xmlns="http://www.w3.org/2000/svg">
<path d="M15.625 0.846436L14.0416 2.42977M14.0416 2.42977L16.4166 4.80477L13.6458 7.5756L11.2708 5.2006M14.0416 2.42977L11.2708 5.2006M8.01706 8.45435C8.42583 8.85768 8.75078 9.33788 8.9732 9.86731C9.19562 10.3967 9.31111 10.9649 9.31304 11.5392C9.31496 12.1134 9.20327 12.6824 8.9844 13.2133C8.76554 13.7442 8.44381 14.2266 8.03775 14.6326C7.6317 15.0387 7.14933 15.3604 6.61842 15.5793C6.08751 15.7981 5.51856 15.9098 4.94431 15.9079C4.37006 15.906 3.80186 15.7905 3.27243 15.5681C2.743 15.3457 2.2628 15.0207 1.85947 14.6119C1.06633 13.7907 0.627451 12.6909 0.637372 11.5492C0.647292 10.4076 1.10522 9.31548 1.91251 8.50818C2.71981 7.70088 3.81189 7.24296 4.95354 7.23304C6.09519 7.22312 7.19506 7.662 8.01626 8.45514L8.01706 8.45435ZM8.01706 8.45435L11.2708 5.2006" stroke="white" stroke-linecap="round" stroke-linejoin="round"/>
</svg>
