<svg width="19" height="19" viewBox="0 0 19 19" fill="none" xmlns="http://www.w3.org/2000/svg">
<path d="M16.625 1.58333L15.0417 3.16667M15.0417 3.16667L17.4167 5.54167L14.6458 8.3125L12.2708 5.9375M15.0417 3.16667L12.2708 5.9375M9.01708 9.19125C9.42585 9.59458 9.7508 10.0748 9.97322 10.6042C10.1956 11.1336 10.3111 11.7018 10.3131 12.2761C10.315 12.8503 10.2033 13.4193 9.98443 13.9502C9.76556 14.4811 9.44384 14.9635 9.03778 15.3695C8.63172 15.7756 8.14935 16.0973 7.61845 16.3162C7.08754 16.535 6.51858 16.6467 5.94433 16.6448C5.37008 16.6429 4.80189 16.5274 4.27246 16.305C3.74303 16.0826 3.26283 15.7576 2.8595 15.3488C2.06635 14.5276 1.62748 13.4278 1.6374 12.2861C1.64732 11.1445 2.10524 10.0524 2.91254 9.24508C3.71984 8.43778 4.81192 7.97986 5.95356 7.96994C7.09521 7.96002 8.19509 8.39889 9.01629 9.19204L9.01708 9.19125ZM9.01708 9.19125L12.2708 5.9375" stroke="#4B5563" stroke-width="0.791667" stroke-linecap="round" stroke-linejoin="round"/>
</svg>
