<svg width="84" height="25" viewBox="0 0 84 25" fill="none" xmlns="http://www.w3.org/2000/svg">
<path d="M26.6143 16.7849H24.7275L27.9092 8.25366H29.0928L28.9404 9.78882L26.6143 16.7849ZM28.5186 9.78882L28.3486 8.25366H29.5439L32.7373 16.7849H30.8564L28.5186 9.78882ZM30.7861 15.033H26.2393V13.6033H30.7861V15.033ZM36.6865 16.9021C36.2959 16.9021 35.9561 16.822 35.667 16.6619C35.3818 16.5017 35.1416 16.2791 34.9463 15.9939C34.7549 15.7087 34.5986 15.3787 34.4775 15.0037C34.3604 14.6287 34.2725 14.2244 34.2139 13.7908V13.5095C34.292 12.8962 34.4248 12.3513 34.6123 11.8748C34.7998 11.3943 35.0615 11.0173 35.3975 10.7439C35.7334 10.4666 36.1592 10.3279 36.6748 10.3279C37.21 10.3279 37.6611 10.4626 38.0283 10.7322C38.3955 10.9978 38.6729 11.3728 38.8604 11.8572C39.0518 12.3416 39.1475 12.9041 39.1475 13.5447V13.6677C39.1475 14.281 39.0518 14.8318 38.8604 15.3201C38.6729 15.8083 38.3955 16.1951 38.0283 16.4802C37.665 16.7615 37.2178 16.9021 36.6865 16.9021ZM33.4346 19.2224V10.4451H35.0166L35.1396 11.6638V19.2224H33.4346ZM36.2354 15.531C36.5322 15.531 36.7686 15.447 36.9443 15.2791C37.1201 15.1072 37.2471 14.8806 37.3252 14.5994C37.4033 14.3181 37.4424 14.0076 37.4424 13.6677V13.5447C37.4424 13.197 37.4014 12.8845 37.3193 12.6072C37.2412 12.3298 37.1123 12.1111 36.9326 11.9509C36.7529 11.7908 36.5166 11.7107 36.2236 11.7107C36.001 11.7107 35.8096 11.7478 35.6494 11.822C35.4932 11.8923 35.3623 11.9958 35.2568 12.1326C35.1553 12.2654 35.0771 12.4294 35.0225 12.6248C34.9717 12.8201 34.9404 13.0408 34.9287 13.2869V14.0193C34.9482 14.3044 35.0029 14.5623 35.0928 14.7927C35.1826 15.0193 35.3193 15.199 35.5029 15.3318C35.6865 15.4646 35.9307 15.531 36.2354 15.531ZM43.4482 16.9021C43.0576 16.9021 42.7178 16.822 42.4287 16.6619C42.1436 16.5017 41.9033 16.2791 41.708 15.9939C41.5166 15.7087 41.3604 15.3787 41.2393 15.0037C41.1221 14.6287 41.0342 14.2244 40.9756 13.7908V13.5095C41.0537 12.8962 41.1865 12.3513 41.374 11.8748C41.5615 11.3943 41.8232 11.0173 42.1592 10.7439C42.4951 10.4666 42.9209 10.3279 43.4365 10.3279C43.9717 10.3279 44.4229 10.4626 44.79 10.7322C45.1572 10.9978 45.4346 11.3728 45.6221 11.8572C45.8135 12.3416 45.9092 12.9041 45.9092 13.5447V13.6677C45.9092 14.281 45.8135 14.8318 45.6221 15.3201C45.4346 15.8083 45.1572 16.1951 44.79 16.4802C44.4268 16.7615 43.9795 16.9021 43.4482 16.9021ZM40.1963 19.2224V10.4451H41.7783L41.9014 11.6638V19.2224H40.1963ZM42.9971 15.531C43.2939 15.531 43.5303 15.447 43.7061 15.2791C43.8818 15.1072 44.0088 14.8806 44.0869 14.5994C44.165 14.3181 44.2041 14.0076 44.2041 13.6677V13.5447C44.2041 13.197 44.1631 12.8845 44.0811 12.6072C44.0029 12.3298 43.874 12.1111 43.6943 11.9509C43.5146 11.7908 43.2783 11.7107 42.9854 11.7107C42.7627 11.7107 42.5713 11.7478 42.4111 11.822C42.2549 11.8923 42.124 11.9958 42.0186 12.1326C41.917 12.2654 41.8389 12.4294 41.7842 12.6248C41.7334 12.8201 41.7021 13.0408 41.6904 13.2869V14.0193C41.71 14.3044 41.7646 14.5623 41.8545 14.7927C41.9443 15.0193 42.0811 15.199 42.2646 15.3318C42.4482 15.4646 42.6924 15.531 42.9971 15.531ZM53.1572 16.9021C52.7314 16.9021 52.3135 16.8474 51.9033 16.738C51.4932 16.6248 51.1221 16.4529 50.79 16.2224C50.4619 15.9919 50.1982 15.7009 49.999 15.3494C49.8037 14.9939 49.7061 14.5759 49.7061 14.0955H51.4814C51.4814 14.3533 51.5205 14.572 51.5986 14.7517C51.6768 14.9275 51.79 15.072 51.9385 15.1853C52.0869 15.2947 52.2646 15.3748 52.4717 15.4255C52.6787 15.4763 52.9072 15.5017 53.1572 15.5017C53.458 15.5017 53.7061 15.4607 53.9014 15.3787C54.0967 15.2927 54.2412 15.1775 54.335 15.033C54.4287 14.8884 54.4756 14.7263 54.4756 14.5466C54.4756 14.3474 54.4326 14.1755 54.3467 14.031C54.2646 13.8826 54.1045 13.7439 53.8662 13.615C53.6279 13.4861 53.2783 13.3494 52.8174 13.2048C52.4268 13.0798 52.0596 12.9392 51.7158 12.783C51.3721 12.6228 51.0693 12.4392 50.8076 12.2322C50.5459 12.0212 50.3389 11.7751 50.1865 11.4939C50.0381 11.2126 49.9639 10.8884 49.9639 10.5212C49.9639 10.0408 50.0986 9.6228 50.3682 9.26733C50.6377 8.91187 51.0088 8.63452 51.4814 8.4353C51.9541 8.23608 52.499 8.13647 53.1162 8.13647C53.749 8.13647 54.2998 8.24976 54.7686 8.47632C55.2373 8.69897 55.6006 9.00952 55.8584 9.40796C56.1201 9.80249 56.251 10.2556 56.251 10.7673H54.4814C54.4814 10.5291 54.4307 10.3181 54.3291 10.1345C54.2314 9.95093 54.0791 9.8064 53.8721 9.70093C53.665 9.59546 53.4033 9.54272 53.0869 9.54272C52.7822 9.54272 52.5283 9.58765 52.3252 9.67749C52.126 9.76733 51.9775 9.88647 51.8799 10.0349C51.7822 10.1794 51.7334 10.3455 51.7334 10.533C51.7334 10.7166 51.7979 10.8806 51.9268 11.0251C52.0596 11.1658 52.251 11.2966 52.501 11.4177C52.751 11.5349 53.0576 11.6482 53.4209 11.7576C54.042 11.949 54.5615 12.1697 54.9795 12.4197C55.4014 12.6697 55.7178 12.9666 55.9287 13.3103C56.1436 13.6541 56.251 14.0623 56.251 14.5349C56.251 15.031 56.124 15.4568 55.8701 15.8123C55.6162 16.1638 55.2568 16.4333 54.792 16.6208C54.3271 16.8083 53.7822 16.9021 53.1572 16.9021ZM60.4521 11.6873H56.7373V10.4451H60.4521V11.6873ZM59.3682 8.88062V14.8455C59.3682 15.0212 59.3916 15.156 59.4385 15.2498C59.4854 15.3435 59.5576 15.408 59.6553 15.4431C59.7529 15.4783 59.874 15.4958 60.0186 15.4958C60.1201 15.4958 60.2119 15.4919 60.2939 15.4841C60.3799 15.4763 60.4521 15.4666 60.5107 15.4548V16.7439C60.3662 16.7947 60.21 16.8337 60.042 16.8611C59.8779 16.8884 59.6924 16.9021 59.4854 16.9021C59.1143 16.9021 58.792 16.8396 58.5186 16.7146C58.249 16.5896 58.0381 16.3884 57.8857 16.1111C57.7373 15.8337 57.6631 15.4724 57.6631 15.0271V8.88062H59.3682ZM60.9912 13.5564C60.9912 12.9392 61.1084 12.3884 61.3428 11.9041C61.5771 11.4158 61.917 11.031 62.3623 10.7498C62.8115 10.4685 63.3545 10.3279 63.9912 10.3279C64.6357 10.3279 65.1807 10.4685 65.626 10.7498C66.0752 11.031 66.415 11.4158 66.6455 11.9041C66.8799 12.3884 66.9971 12.9392 66.9971 13.5564V13.6794C66.9971 14.2927 66.8799 14.8435 66.6455 15.3318C66.415 15.8201 66.0771 16.2048 65.6318 16.4861C65.1865 16.7634 64.6436 16.9021 64.0029 16.9021C63.3623 16.9021 62.8174 16.7634 62.3682 16.4861C61.9189 16.2048 61.5771 15.8201 61.3428 15.3318C61.1084 14.8435 60.9912 14.2927 60.9912 13.6794V13.5564ZM62.7021 13.6794C62.7021 14.0193 62.7432 14.3298 62.8252 14.6111C62.9111 14.8923 63.0479 15.1169 63.2354 15.2849C63.4268 15.449 63.6826 15.531 64.0029 15.531C64.3154 15.531 64.5654 15.449 64.7529 15.2849C64.9443 15.1169 65.083 14.8923 65.1689 14.6111C65.2549 14.3298 65.2979 14.0193 65.2979 13.6794V13.5564C65.2979 13.2205 65.2549 12.9119 65.1689 12.6306C65.083 12.3494 64.9443 12.1248 64.7529 11.9568C64.5654 11.7849 64.3115 11.699 63.9912 11.699C63.6787 11.699 63.4268 11.7849 63.2354 11.9568C63.0479 12.1248 62.9111 12.3494 62.8252 12.6306C62.7432 12.9119 62.7021 13.2205 62.7021 13.5564V13.6794ZM69.7568 16.7849H68.0518V10.4451H69.6631L69.7568 11.8572V16.7849ZM71.6201 12.0388C71.5342 12.0271 71.4326 12.0173 71.3154 12.0095C71.2021 11.9978 71.1006 11.9919 71.0107 11.9919C70.6982 11.9919 70.4404 12.0427 70.2373 12.1443C70.0342 12.2458 69.8818 12.3923 69.7803 12.5837C69.6826 12.7751 69.6299 13.0115 69.6221 13.2927L69.2764 13.1755C69.2764 12.6248 69.3467 12.1365 69.4873 11.7107C69.6279 11.281 69.835 10.9431 70.1084 10.697C70.3857 10.4509 70.7217 10.3279 71.1162 10.3279C71.2061 10.3279 71.3018 10.3357 71.4033 10.3513C71.5049 10.363 71.585 10.3806 71.6436 10.4041L71.6201 12.0388ZM75.3584 16.9021C74.7021 16.9021 74.1377 16.7634 73.665 16.4861C73.1963 16.2087 72.8369 15.8396 72.5869 15.3787C72.3369 14.9138 72.2119 14.3982 72.2119 13.8318V13.6033C72.2119 12.9666 72.3311 12.4021 72.5693 11.9099C72.8115 11.4138 73.1533 11.0271 73.5947 10.7498C74.04 10.4685 74.5654 10.3279 75.1709 10.3279C75.7842 10.3279 76.2979 10.4587 76.7119 10.7205C77.126 10.9783 77.4385 11.3416 77.6494 11.8103C77.8604 12.2751 77.9658 12.8201 77.9658 13.4451V14.1716H72.9443V13.0056H76.29V12.8708C76.2861 12.6482 76.2451 12.449 76.167 12.2732C76.0889 12.0935 75.9678 11.9529 75.8037 11.8513C75.6396 11.7498 75.4248 11.699 75.1592 11.699C74.8662 11.699 74.6279 11.783 74.4443 11.9509C74.2607 12.115 74.126 12.3396 74.04 12.6248C73.9541 12.9099 73.9111 13.2361 73.9111 13.6033V13.8318C73.9111 14.1638 73.9717 14.4568 74.0928 14.7107C74.2178 14.9646 74.3975 15.1638 74.6318 15.3083C74.8662 15.4529 75.1455 15.5251 75.4697 15.5251C75.7783 15.5251 76.0635 15.4685 76.3252 15.3552C76.5869 15.238 76.8115 15.0583 76.999 14.8162L77.8311 15.7537C77.6318 16.0427 77.3252 16.3064 76.9111 16.5447C76.501 16.783 75.9834 16.9021 75.3584 16.9021Z" fill="#6B7280"/>
<path d="M8.3203 5.25669C8.10598 4.08836 8.65842 2.88601 9.32371 2.07573C10.0569 1.18169 11.3152 0.496061 12.3905 0.420715C12.5721 1.64564 12.0722 2.8391 11.4142 3.68328C10.7083 4.59018 9.49469 5.29346 8.3203 5.25669ZM14.6276 9.49018C14.9603 8.56189 15.6195 7.72667 16.6421 7.16315C15.6087 5.87362 14.1578 5.12496 12.7886 5.12496C10.9771 5.12496 10.2112 5.98801 8.953 5.98801C7.65686 5.98801 6.67355 5.12496 5.10446 5.12496C3.5658 5.12496 1.92797 6.06277 0.889254 7.66442C0.507334 8.25645 0.248618 8.99194 0.107521 9.81115C-0.283994 12.1092 0.300841 15.1025 2.0454 17.7604C2.89363 19.0501 4.02425 20.5028 5.50128 20.5154C6.81704 20.5283 7.19031 19.6742 8.97152 19.6654C10.7554 19.6552 11.0934 20.5243 12.4074 20.5117C13.8848 20.4993 15.0778 18.8916 15.926 17.6021C16.53 16.6767 16.7584 16.2093 17.228 15.163C14.84 14.2625 13.8578 11.631 14.6276 9.49018Z" fill="black" fill-opacity="0.8"/>
</svg>
