<svg width="9" height="14" viewBox="0 0 9 14" fill="none" xmlns="http://www.w3.org/2000/svg">
<path fill-rule="evenodd" clip-rule="evenodd" d="M4.08492 7.55238C5.44333 8.63909 7.11622 10.3008 8.24316 12.5548L6.00708 13.6728C5.09612 11.8508 3.71217 10.4557 2.5232 9.50457C1.93315 9.03253 1.40327 8.67954 1.02501 8.44677C0.836232 8.3306 0.686254 8.24502 0.586713 8.1901C0.536973 8.16266 0.499925 8.14293 0.477033 8.13092L0.453532 8.11872L0.451825 8.11784C0.451854 8.11785 0.451883 8.11787 0.452435 8.11684L0.452407 5.88337C0.451856 5.88234 0.451827 5.88235 0.451798 5.88237L0.45128 5.88263L0.453505 5.88148L0.477007 5.86928C0.4999 5.85727 0.536948 5.83754 0.586688 5.8101C0.68623 5.75518 0.836209 5.66959 1.02498 5.55342C1.40325 5.32064 1.93313 4.96763 2.52319 4.49558C3.71216 3.54438 5.09612 2.14925 6.00708 0.327269L8.24316 1.44528C7.11623 3.69922 5.44334 5.361 4.08494 6.44774C3.83152 6.65048 3.58733 6.83457 3.35745 7.00007C3.58732 7.16557 3.83151 7.34965 4.08492 7.55238ZM0.451825 8.11784L0.450546 8.1172L0.451308 8.11758L0.451825 8.11784Z" fill="black"/>
</svg>
