<svg width="29" height="29" viewBox="0 0 29 29" fill="none" xmlns="http://www.w3.org/2000/svg">
<path d="M14.4531 28.2812C22.1851 28.2812 28.4531 22.0132 28.4531 14.2812C28.4531 6.54926 22.1851 0.28125 14.4531 0.28125C6.72114 0.28125 0.453125 6.54926 0.453125 14.2812C0.453125 22.0132 6.72114 28.2812 14.4531 28.2812Z" fill="#FCA66D"/>
<path d="M14.4527 25.2452C20.506 25.2452 25.4132 20.3381 25.4132 14.2847C25.4132 8.2314 20.506 3.32422 14.4527 3.32422C8.39938 3.32422 3.49219 8.2314 3.49219 14.2847C3.49219 20.3381 8.39938 25.2452 14.4527 25.2452Z" fill="#FFCEAE"/>
<path fill-rule="evenodd" clip-rule="evenodd" d="M14.7422 26.8186C14.6571 27.6662 13.901 28.2843 13.0534 28.1992C9.82173 27.8748 6.80344 26.4367 4.51555 24.1314C2.22766 21.8261 0.812571 18.7969 0.51268 15.5629C0.434026 14.7147 1.05787 13.9633 1.90608 13.8846C2.75429 13.806 3.50567 14.4298 3.58432 15.278C3.81813 17.7994 4.92139 20.1611 6.70511 21.9584C8.48884 23.7557 10.842 24.8769 13.3615 25.1298C14.2091 25.2149 14.8273 25.971 14.7422 26.8186Z" fill="#EF9356"/>
<path d="M18.0175 19.3266L18.1379 19.2709V19.2691V17.4768L17.8344 17.633C17.3746 17.8701 16.8933 17.9904 16.4048 17.9904C16.1552 17.9904 15.7152 17.9168 15.0992 17.7713C14.4526 17.6186 13.9157 17.5414 13.5062 17.5414C13.3984 17.5414 13.2907 17.5468 13.1829 17.5558C13.3823 17.3367 13.5385 17.1104 13.6517 16.8805C13.8528 16.4675 13.9552 15.9431 13.9552 15.3199C13.9552 15.187 13.939 15.0523 13.9085 14.914H15.778V13.4844H13.5547C13.341 12.7984 13.2314 12.2165 13.2314 11.7532C13.2314 11.3293 13.3733 10.9738 13.6624 10.6666C13.948 10.3613 14.3161 10.2141 14.7903 10.2141C15.7529 10.2141 16.2396 10.6613 16.3222 11.6185L16.3383 11.8089H18.0984L18.0822 11.5862C18.0193 10.69 17.6835 9.98779 17.0855 9.5011C16.4964 9.01979 15.7331 8.77734 14.819 8.77734C13.8456 8.77734 13.0393 9.05212 12.4215 9.59449C11.7947 10.144 11.4768 10.9091 11.4768 11.8699C11.4768 12.2686 11.5702 12.7984 11.7606 13.4844H10.7656V14.914H12.1539C12.1988 15.1313 12.2221 15.3504 12.2221 15.5695C12.2221 16.2358 12.1072 16.7566 11.8809 17.1194C11.6528 17.4839 11.3152 17.7857 10.877 18.0155L10.7656 18.073V19.7755L11.062 19.6355C11.9186 19.2314 12.7106 19.0266 13.4164 19.0266C13.7343 19.0266 14.2246 19.129 14.8729 19.3319C15.5715 19.5493 16.0905 19.6552 16.4605 19.6552C17.0172 19.6552 17.5416 19.5457 18.0175 19.3266Z" fill="#EF9356"/>
<path fill-rule="evenodd" clip-rule="evenodd" d="M15.3497 1.74658C15.5143 0.910791 16.3253 0.3667 17.1611 0.531321C20.3432 1.15808 23.2089 2.87027 25.2688 5.37539C27.3286 7.88051 28.4547 11.0231 28.4547 14.2663C28.4547 15.1182 27.7641 15.8088 26.9123 15.8088C26.0604 15.8088 25.3699 15.1182 25.3699 14.2663C25.3699 11.7378 24.4919 9.2877 22.886 7.33461C21.2801 5.38153 19.0458 4.04664 16.5649 3.55799C15.7291 3.39337 15.1851 2.58237 15.3497 1.74658Z" fill="#FFBE93"/>
</svg>
