<svg width="28" height="37" viewBox="0 0 28 37" fill="none" xmlns="http://www.w3.org/2000/svg">
<g clip-path="url(#clip0_3124_14403)">
<path d="M59.7327 0.950012H-14.3672V36.05H59.7327V0.950012Z" fill="white"/>
<path d="M59.7327 0.950012H-14.3672V4.85001H59.7327V0.950012Z" fill="#B22234"/>
<path d="M59.7327 8.75H-14.3672V12.65H59.7327V8.75Z" fill="#B22234"/>
<path d="M59.7327 16.55H-14.3672V20.4501H59.7327V16.55Z" fill="#B22234"/>
<path d="M59.7327 24.35H-14.3672V28.25H59.7327V24.35Z" fill="#B22234"/>
<path d="M59.7327 32.15H-14.3672V36.05H59.7327V32.15Z" fill="#B22234"/>
<path d="M15.2727 0.950012H-14.3672V20.4501H15.2727V0.950012Z" fill="#3C3B6E"/>
<path d="M10.2794 2.50043L10.0097 3.57989H9.13672L9.84285 4.24672L9.57328 5.3257L10.2794 4.65887L10.9854 5.3257L10.7158 4.24662L11.4216 3.57989H10.549L10.2794 2.50043Z" fill="white"/>
<path d="M7.822 5.23846L7.55238 6.31747H6.67969L7.38579 6.98434L7.11595 8.06335L7.82211 7.39645L8.52808 8.06335L8.25843 6.98434L8.96456 6.31747H8.09165L7.822 5.23846Z" fill="white"/>
<path d="M12.736 5.23846L12.4664 6.31747H11.5938L12.2998 6.9843L12.0299 8.06335L12.7361 7.39645L13.4421 8.06335L13.1724 6.98441L13.8786 6.31747H13.0059L12.736 5.23846Z" fill="white"/>
<path d="M5.36522 7.97607L5.09557 9.05508H4.22266L4.92884 9.72198L4.65917 10.8013L5.36511 10.1344L6.07124 10.8013L5.80135 9.72198L6.5075 9.05508H5.63481L5.36522 7.97607ZM5.36505 9.53785H5.36503L5.36511 9.53767L5.36513 9.53778L5.36505 9.53785Z" fill="white"/>
<path d="M10.2794 7.97607L10.0097 9.05508H9.13672L9.84296 9.72202L9.57328 10.8013L10.2793 10.1345L10.9854 10.8013L10.7157 9.72191L11.4216 9.05508H10.549L10.2794 7.97607ZM10.2794 9.53785L10.2793 9.53778L10.2793 9.53767L10.2794 9.53785H10.2794Z" fill="white"/>
<path d="M2.90786 10.7142L2.63827 11.7931H1.76562L2.47149 12.4599L2.20181 13.5389L2.90786 12.8721L3.61391 13.5389L3.34429 12.46L4.05047 11.7931H3.17751L2.90786 10.7142Z" fill="white"/>
<path d="M7.822 10.7142L7.55238 11.7931H6.67969L7.38582 12.4599L7.11595 13.5389L7.82211 12.872L8.52808 13.5389L8.25843 12.4599L8.96456 11.7931H8.09165L7.822 10.7142Z" fill="white"/>
<path d="M12.736 10.7142L12.4664 11.7931H11.5938L12.2998 12.4599L12.0299 13.5389L12.7361 12.872L13.4421 13.5389L13.1724 12.46L13.8786 11.7931H13.0059L12.736 10.7142Z" fill="white"/>
<path d="M5.63484 14.5307L5.36522 13.4518L5.09557 14.5307H4.22266L4.92879 15.1976L4.65914 16.2765L5.36511 15.6096L6.07124 16.2765L5.80143 15.1976L6.5075 14.5307H5.63484Z" fill="white"/>
<path d="M10.549 14.5307L10.2794 13.4518L10.0097 14.5307H9.13672L9.84293 15.1977L9.57328 16.2765L10.2794 15.6097L10.9854 16.2765L10.7158 15.1975L11.4216 14.5307H10.549Z" fill="white"/>
<path d="M3.17751 17.2687L2.90786 16.1898L2.63824 17.2687H1.76562L2.47146 17.9356L2.20181 19.0146L2.90786 18.3477L3.61391 19.0146L3.34429 17.9357L4.05047 17.2687H3.17751Z" fill="white"/>
<path d="M8.09165 17.2687L7.822 16.1898L7.55238 17.2687H6.67969L7.38582 17.9357L7.11595 19.0146L7.82211 18.3477L8.52808 19.0146L8.25843 17.9357L8.96456 17.2687H8.09165Z" fill="white"/>
<path d="M13.0059 17.2687L12.736 16.1898L12.4664 17.2687H11.5938L12.2998 17.9356L12.0299 19.0146L12.7361 18.3477L13.4421 19.0146L13.1724 17.9357L13.8786 17.2687H13.0059Z" fill="white"/>
</g>
<defs>
<clipPath id="clip0_3124_14403">
<rect x="0.5" y="0.950012" width="27" height="35.1" rx="13.5" fill="white"/>
</clipPath>
</defs>
</svg>
