<svg width="29" height="36" viewBox="0 0 29 36" fill="none" xmlns="http://www.w3.org/2000/svg">
<g clip-path="url(#clip0_2991_42823)">
<path d="M34.4782 0H-5.47656V36.072H34.4782V0Z" fill="white"/>
<path d="M34.4782 3.38177H-5.47656V9.01801H34.4782V3.38177Z" fill="#2A499F"/>
<path d="M34.4782 27.054H-5.47656V32.6902H34.4782V27.054Z" fill="#2A499F"/>
<path d="M18.1316 18.036L19.9478 14.1311H16.3155L14.4993 10.2263L12.6831 14.1311H9.05078L10.8669 18.036L9.05078 21.9409H12.6831L14.4993 25.8457L16.3155 21.9409H19.9478L18.1316 18.036ZM18.2177 15.3712L17.555 16.7961L16.8922 15.3712H18.2177ZM16.9782 18.036L15.7388 20.7009H13.2598L12.0204 18.036L13.2598 15.3712H15.7388L16.9782 18.036ZM14.4993 12.7062L15.1621 14.1311H13.8365L14.4993 12.7062ZM10.7809 15.3712H12.1064L11.4436 16.7961L10.7809 15.3712ZM10.7809 20.7009L11.4437 19.2759L12.1065 20.7009H10.7809ZM14.4993 23.3659L13.8365 21.9409H15.1621L14.4993 23.3659ZM17.5549 19.2759L18.2177 20.7009H16.8921L17.5549 19.2759Z" fill="#2A499F"/>
</g>
<defs>
<clipPath id="clip0_2991_42823">
<rect width="29" height="36" rx="14.5" fill="white"/>
</clipPath>
</defs>
</svg>
