<svg width="22" height="22" viewBox="0 0 22 22" fill="none" xmlns="http://www.w3.org/2000/svg">
<path fill-rule="evenodd" clip-rule="evenodd" d="M10.7315 3.9345C11.0895 4.29248 11.0895 4.87288 10.7315 5.23087L5.87969 10.0827H18.3333C18.8396 10.0827 19.25 10.4931 19.25 10.9993C19.25 11.5056 18.8396 11.916 18.3333 11.916H5.87969L10.7315 16.7678C11.0895 17.1258 11.0895 17.7062 10.7315 18.0642C10.3735 18.4221 9.79312 18.4221 9.43516 18.0642L3.01848 11.6475C2.84658 11.4756 2.75 11.2424 2.75 10.9993C2.75 10.7562 2.84658 10.523 3.01848 10.3512L9.43516 3.9345C9.79312 3.57652 10.3735 3.57652 10.7315 3.9345Z" fill="black"/>
</svg>
