<svg width="22" height="22" viewBox="0 0 22 22" fill="none" xmlns="http://www.w3.org/2000/svg">
<path d="M10.9758 16.524L10.9758 16.524C11.1518 16.7 11.2506 16.9386 11.2506 17.1875C11.2506 17.4364 11.1518 17.6751 10.9758 17.851C10.7998 18.027 10.5611 18.1259 10.3123 18.1259C10.0634 18.1259 9.82472 18.027 9.64874 17.851L3.46146 11.6638C3.46142 11.6637 3.46139 11.6637 3.46135 11.6637L3.46124 11.6635L3.63801 11.4868C3.57399 11.4229 3.52319 11.347 3.48853 11.2635C3.45388 11.18 3.43604 11.0904 3.43604 11C3.43604 10.9096 3.45388 10.82 3.48853 10.7365C3.52319 10.653 3.57399 10.5771 3.63801 10.5133L10.9758 16.524ZM10.9758 16.524L5.45049 11L10.9758 5.47606L10.9758 5.47604C11.1518 5.30006 11.2506 5.06138 11.2506 4.81251C11.2506 4.56364 11.1518 4.32497 10.9758 4.14899C10.7998 3.97301 10.5611 3.87415 10.3123 3.87415C10.0634 3.87415 9.82472 3.97301 9.64874 4.14899L3.46146 10.3363C3.46139 10.3363 3.4613 10.3364 3.46124 10.3365L10.9758 16.524Z" fill="black" stroke="black" stroke-width="0.5"/>
</svg>
