<svg width="20" height="20" viewBox="0 0 20 20" fill="none" xmlns="http://www.w3.org/2000/svg">
<g clip-path="url(#clip0_4891_39046)">
<path d="M12.8166 0.590942C12.6655 0.588834 12.5214 0.600489 12.3787 0.622485C11.8075 0.71047 11.3293 0.916885 10.3952 1.07707C9.53717 1.22421 8.95501 1.01117 8.22798 0.826587C7.50095 0.642005 6.61828 0.524247 5.52827 1.0177C5.26187 1.13894 5.16743 1.46993 5.32974 1.7135L7.0145 4.23879C6.65586 4.58014 5.61674 5.59098 4.39458 7.22053C2.94104 9.15859 1.44995 11.7097 1.44995 14.275C1.44995 16.7927 2.6933 18.2311 4.36675 18.8747C6.0402 19.5184 8.09995 19.5 9.99995 19.5C11.9 19.5 13.9597 19.5184 15.6332 18.8747C17.3066 18.2311 18.55 16.7927 18.55 14.275C18.55 11.7097 17.0589 9.15859 15.6053 7.22053C14.3832 5.59098 13.344 4.58014 12.9854 4.23879L14.6702 1.7135C14.8344 1.46658 14.7348 1.13117 14.4624 1.01399C13.7797 0.72147 13.2696 0.597268 12.8166 0.590942Z" fill="#374151"/>
<path d="M9.52498 8.95V8H10.475V8.95H11.9V9.9H10.475H9.52498C9.25701 9.9 9.04998 10.107 9.04998 10.375C9.04998 10.643 9.25701 10.85 9.52498 10.85H10.475C11.2564 10.85 11.9 11.4936 11.9 12.275C11.9 13.0564 11.2564 13.7 10.475 13.7V14.65H9.52498V13.7H8.09998V12.75H9.52498H10.475C10.7429 12.75 10.95 12.543 10.95 12.275C10.95 12.007 10.7429 11.8 10.475 11.8H9.52498C8.7436 11.8 8.09998 11.1564 8.09998 10.375C8.09998 9.59362 8.7436 8.95 9.52498 8.95Z" fill="white"/>
</g>
<defs>
<clipPath id="clip0_4891_39046">
<rect width="19" height="19" fill="white" transform="translate(0.5 0.5)"/>
</clipPath>
</defs>
</svg>
