<svg width="22" height="26" viewBox="0 0 22 26" fill="none" xmlns="http://www.w3.org/2000/svg">
<path d="M20.2198 16.439C20.4675 16.6962 20.6638 17.0014 20.7977 17.3372C20.9315 17.6731 21.0003 18.033 21 18.3964C21 19.1301 20.7189 19.8338 20.2186 20.3526C19.7184 20.8714 19.0398 21.1629 18.3323 21.1629H3.53436C2.82685 21.1629 2.14832 20.8714 1.64804 20.3526C1.14776 19.8338 0.8667 19.1301 0.8667 18.3964C0.866392 18.033 0.935132 17.6731 1.069 17.3372C1.20286 17.0014 1.39922 16.6962 1.64686 16.439L3.38336 14.6382V9.41847C3.38336 7.34193 4.1788 5.35044 5.5947 3.88211C7.01059 2.41377 8.93096 1.58887 10.9333 1.58887C12.9357 1.58887 14.8561 2.41377 16.272 3.88211C17.6879 5.35044 18.4833 7.34193 18.4833 9.41847V14.6382L20.2198 16.439ZM14.7083 21.1629H7.15835C7.15835 22.2012 7.55607 23.1969 8.26402 23.9311C8.97196 24.6652 9.93215 25.0777 10.9333 25.0777C11.9345 25.0777 12.8947 24.6652 13.6027 23.9311C14.3106 23.1969 14.7083 22.2012 14.7083 21.1629Z" stroke="#01031C" stroke-width="1.67777" stroke-linecap="round" stroke-linejoin="round"/>
</svg>
