<svg width="14" height="16" viewBox="0 0 14 16" fill="none" xmlns="http://www.w3.org/2000/svg">
<g id="Group 37">
<path id="Vector" d="M5 14C5.4611 15.2162 6.18546 16 7 16C7.81454 16 8.5389 15.2162 9 14C7.67233 14.3733 6.32767 14.3733 5 14Z" fill="#374151"/>
<path id="Vector_2" d="M12.2493 5.35674V5.89555C12.2493 6.54218 12.4369 7.17436 12.7884 7.71233L13.6497 9.03085C14.4365 10.2351 13.8359 11.872 12.4675 12.2528C8.8879 13.249 5.11213 13.249 1.5325 12.2528C0.16415 11.872 -0.436473 10.2351 0.35028 9.03085L1.21162 7.71233C1.56312 7.17436 1.75068 6.54218 1.75068 5.89555V5.35674C1.75068 2.3983 4.10088 0 7 0C9.89909 0 12.2493 2.3983 12.2493 5.35674Z" fill="#374151"/>
</g>
</svg>
