<svg width="13" height="15" viewBox="0 0 13 15" fill="none" xmlns="http://www.w3.org/2000/svg">
<g id="Group 240483">
<path id="arrow" fill-rule="evenodd" clip-rule="evenodd" d="M6.49902 6.18305L11.4126 0.891522C11.7768 0.49987 12.3641 0.49987 12.7282 0.891522C12.9022 1.07814 13 1.33269 13 1.59819C13 1.86368 12.9022 2.11823 12.7282 2.30485L7.15779 8.30305C6.79405 8.69594 6.20595 8.69594 5.84221 8.30304L0.271799 2.3051C0.097845 2.11823 -2.21359e-07 1.86368 -1.74938e-07 1.59818C-1.28517e-07 1.33269 0.0978452 1.07814 0.271799 0.891271C0.635994 0.499868 1.2233 0.499868 1.58738 0.891769L6.49902 6.18305Z" fill="#6B7280"/>
<path id="arrow_2" fill-rule="evenodd" clip-rule="evenodd" d="M6.50098 9.01226L1.58738 14.3038C1.22324 14.6954 0.635936 14.6954 0.271798 14.3038C0.0978442 14.1172 6.42585e-08 13.8626 8.7469e-08 13.5971C1.10679e-07 13.3316 0.0978443 13.0771 0.271798 12.8905L5.84221 6.89227C6.20595 6.49937 6.79405 6.49937 7.15779 6.89227L12.7282 12.8902C12.9022 13.0771 13 13.3316 13 13.5971C13 13.8626 12.9022 14.1172 12.7282 14.304C12.364 14.6954 11.7767 14.6954 11.4126 14.3035L6.50098 9.01226Z" fill="#6B7280"/>
</g>
</svg>
