<svg width="22" height="23" viewBox="0 0 22 23" fill="none" xmlns="http://www.w3.org/2000/svg">
<g id="left-arrow_svgrepo.com">
<path id="Vector" fill-rule="evenodd" clip-rule="evenodd" d="M10.7315 4.53215C11.0895 4.89014 11.0895 5.47054 10.7315 5.82852L5.87969 10.6803H18.3333C18.8396 10.6803 19.25 11.0907 19.25 11.597C19.25 12.1033 18.8396 12.5137 18.3333 12.5137H5.87969L10.7315 17.3655C11.0895 17.7235 11.0895 18.3039 10.7315 18.6618C10.3735 19.0198 9.79312 19.0198 9.43516 18.6618L3.01848 12.2452C2.84658 12.0733 2.75 11.8401 2.75 11.597C2.75 11.3539 2.84658 11.1207 3.01848 10.9488L9.43516 4.53215C9.79312 4.17418 10.3735 4.17418 10.7315 4.53215Z" fill="black"/>
</g>
</svg>
