<svg width="40" height="38" viewBox="0 0 40 38" fill="none" xmlns="http://www.w3.org/2000/svg">
<path d="M18.9342 26.3132L34.2042 35.1185C34.3416 35.1975 34.4965 35.2409 34.6549 35.2445C34.8133 35.2482 34.9701 35.2121 35.1109 35.1395C35.2518 35.0669 35.3722 34.9601 35.4611 34.829C35.55 34.6979 35.6047 34.5465 35.62 34.3888L38.677 2.98254C38.6938 2.81097 38.6634 2.63808 38.5892 2.48249C38.515 2.3269 38.3997 2.19451 38.2558 2.09956C38.1119 2.00461 37.9449 1.95071 37.7726 1.94366C37.6004 1.93661 37.4295 1.97668 37.2783 2.05955L2.17439 21.3154C2.00219 21.4096 1.8635 21.555 1.77748 21.7314C1.69146 21.9079 1.66235 22.1067 1.69418 22.3003C1.72602 22.494 1.81721 22.6731 1.95518 22.8127C2.09314 22.9523 2.27106 23.0457 2.46436 23.0798L15.21 25.3542" stroke="#2947F2" stroke-width="2" stroke-linecap="round" stroke-linejoin="round"/>
<path d="M32.7535 9.35352L18.5391 26.0924L20.1519 35.5687C20.1689 35.689 20.224 35.8007 20.309 35.8874C20.3941 35.9741 20.5047 36.0313 20.6247 36.0506C20.7446 36.0699 20.8676 36.0503 20.9756 35.9946C21.0835 35.9389 21.1708 35.8501 21.2246 35.7412L22.9531 32.4851" stroke="#FF6805" stroke-width="2" stroke-linecap="round" stroke-linejoin="round"/>
</svg>
