<svg width="17" height="17" viewBox="0 0 17 17" fill="none" xmlns="http://www.w3.org/2000/svg">
<g id="Group 240565">
<g id="Group">
<path id="Vector" d="M1.39819 8.0625C1.39819 3.92036 4.756 0.5625 8.89819 0.5625C13.0403 0.5625 16.3982 3.92036 16.3982 8.0625C16.3982 12.2046 13.0403 15.5625 8.89819 15.5625C4.756 15.5625 1.39819 12.2046 1.39819 8.0625Z" fill="#586D8E" stroke="#586D8E"/>
<path id="Vector_2" d="M9.67817 10.3291H8.21436V11.7399H9.67817V10.3291Z" fill="white"/>
<path id="Vector_3" d="M10.4627 4.94274C10.2575 4.7624 10.0188 4.62443 9.74666 4.52887C9.47432 4.43352 9.18979 4.38574 8.89273 4.38574C8.58145 4.38574 8.2916 4.43543 8.02291 4.53424C7.75401 4.63334 7.51895 4.77293 7.31741 4.9533C7.11588 5.13368 6.95682 5.35643 6.84016 5.62155C6.72341 5.88674 6.66504 6.18209 6.66504 6.50718H8.04413C8.04413 6.25984 8.1147 6.05115 8.25616 5.8813C8.39754 5.71174 8.60973 5.62699 8.89269 5.62699C9.16138 5.62699 9.3717 5.71015 9.52385 5.87618C9.67585 6.04249 9.75188 6.24937 9.75188 6.49668C9.75188 6.61712 9.72173 6.73724 9.66166 6.8574C9.6016 6.97784 9.5291 7.09446 9.44419 7.2073L8.77982 8.0583C8.63835 8.24218 8.25613 8.77418 8.25613 9.31818V9.63652H9.63516V9.41377C9.63516 9.32196 9.65273 9.2264 9.68826 9.12727C9.72348 9.02846 9.88991 8.78652 9.94663 8.71577L10.6111 7.83318C10.7596 7.63527 10.8832 7.43196 10.9824 7.22324C11.0814 7.0148 11.1309 6.77612 11.1309 6.50721C11.1309 6.16784 11.0707 5.86727 10.9505 5.60565C10.8303 5.34399 10.6676 5.12284 10.4627 4.94274Z" fill="white"/>
</g>
</g>
</svg>
