<svg width="118" height="65" viewBox="0 0 118 65" fill="none" xmlns="http://www.w3.org/2000/svg">
<path opacity="0.1" d="M118 65H0V0H118V65ZM112.1 45.749V19.2028C104.128 18.3827 100.166 14.416 98.7666 5.8703H19.1707C18.986 9.5179 17.7676 12.6757 15.2014 15.2435C12.6389 17.8076 9.47825 19.0024 5.92622 19.1916V45.7527C13.8869 46.5542 17.8562 50.5283 19.2556 59.0815H98.7703C100.159 50.5469 104.135 46.5616 112.1 45.749Z" fill="url(#paint0_linear_948_35996)"/>
<path d="M59.4537 50.9999C49.2811 50.9793 40.9795 42.637 41 32.4511C41.0206 22.2755 49.3633 13.9794 59.5514 14C69.7344 14.0206 78.0205 22.3527 78 32.5489C77.9794 42.7297 69.647 51.0257 59.4537 50.9999Z" fill="url(#paint1_linear_948_35996)"/>
<path d="M25.7421 28.038C26.5729 28.038 27.4037 27.9972 28.2308 28.0454C30.5569 28.1827 32.381 30.1048 32.4142 32.4092C32.4474 34.7729 30.6123 36.7878 28.2234 36.8954C26.6135 36.9696 24.9926 36.9622 23.3827 36.8954C20.9864 36.7989 19.1291 34.8211 19.1328 32.4611C19.1365 30.0863 20.979 28.1567 23.3901 28.038C24.1729 28.0009 24.9593 28.0306 25.7421 28.0343V28.038Z" fill="#E8E9FC"/>
<path d="M92.1909 36.9057C91.3601 36.9057 90.5257 36.9577 89.7023 36.8946C87.3872 36.7239 85.5964 34.7535 85.6075 32.4492C85.6186 30.13 87.4093 28.1708 89.7429 28.052C91.4008 27.9704 93.066 27.9741 94.7239 28.052C97.0501 28.1596 98.8667 30.1189 98.8925 32.4232C98.9184 34.7869 97.0759 36.7647 94.687 36.902C93.8599 36.9502 93.0254 36.9094 92.1983 36.9094C92.1983 36.9094 92.1983 36.9094 92.1983 36.9057H92.1909Z" fill="#E8E9FC"/>
<defs>
<linearGradient id="paint0_linear_948_35996" x1="100.281" y1="-1.54326e-07" x2="92.727" y2="73.8123" gradientUnits="userSpaceOnUse">
<stop stop-color="#2947F2"/>
<stop offset="1" stop-color="#2320E6"/>
</linearGradient>
<linearGradient id="paint1_linear_948_35996" x1="72.4442" y1="14" x2="64.8191" y2="55.0397" gradientUnits="userSpaceOnUse">
<stop stop-color="#2947F2"/>
<stop offset="1" stop-color="#2320E6"/>
</linearGradient>
</defs>
</svg>
