<svg width="25" height="24" viewBox="0 0 25 24" fill="none" xmlns="http://www.w3.org/2000/svg">
<path d="M9.83358 0C7.06912 0 4.82812 2.24037 4.82812 5.00483C4.82812 7.76929 7.06912 10.0097 9.83358 10.0097C12.598 10.0097 14.8384 7.76866 14.8384 5.00483C14.8384 2.241 12.5974 0 9.83358 0ZM9.80979 9.00155C7.59258 8.98652 5.82746 7.1782 5.84374 4.93783C5.8594 2.77135 7.66835 0.994328 9.84422 1.00748C12.0758 1.02125 13.8359 2.81142 13.8228 5.05429C13.8103 7.22954 11.9938 9.01658 9.80979 9.00155Z" fill="#2947F2"/>
<path d="M24.0224 15.428C23.9923 15.7868 23.8452 16.0585 23.5715 16.2614C23.2835 16.4755 22.9836 16.674 22.7018 16.8957C22.6329 16.9502 22.586 17.066 22.5778 17.1581C22.5603 17.3434 22.6048 17.5375 22.571 17.7185C22.5246 17.9639 22.6373 18.086 22.8214 18.2056C23.07 18.3665 23.3073 18.5456 23.5452 18.7222C24.0105 19.0678 24.1251 19.5838 23.8433 20.0878C23.5916 20.5368 23.3355 20.9838 23.0719 21.4259C22.7826 21.9099 22.2798 22.0677 21.7582 21.8429C21.4364 21.7045 21.1152 21.563 20.7996 21.4096C20.6731 21.3483 20.581 21.3445 20.4627 21.4315C20.3062 21.5461 20.1377 21.6513 19.9599 21.7277C19.8009 21.796 19.737 21.8949 19.7245 22.0602C19.6988 22.4027 19.6594 22.7433 19.6262 23.0852C19.5754 23.6174 19.1622 23.9956 18.6212 23.9988C18.0977 24.0019 17.5743 24.0013 17.0514 23.9988C16.4891 23.9963 16.0796 23.6168 16.0252 23.0514C15.9907 22.6945 15.9657 22.3357 15.9193 21.98C15.9093 21.9049 15.8417 21.8185 15.7753 21.7734C15.6276 21.6732 15.4447 21.6181 15.3126 21.5035C15.1135 21.3307 14.9394 21.3576 14.7265 21.4685C14.451 21.6125 14.1624 21.734 13.875 21.8542C13.3753 22.0633 12.8775 21.9043 12.5989 21.4403C12.3259 20.9857 12.0604 20.5261 11.8037 20.0621C11.535 19.5763 11.6509 19.0703 12.0992 18.7353C12.3872 18.5206 12.6872 18.3227 12.9689 18.1004C13.0372 18.0466 13.0816 17.9295 13.0885 17.8374C13.1054 17.6133 13.0785 17.3847 13.0998 17.1612C13.1123 17.0309 13.0741 16.9633 12.9739 16.8938C12.6721 16.6853 12.3735 16.4724 12.0804 16.2514C11.6477 15.9245 11.5382 15.4148 11.803 14.939C12.0572 14.4825 12.3196 14.0304 12.587 13.5815C12.8775 13.0925 13.3778 12.9322 13.8975 13.1557C14.2337 13.3003 14.5637 13.4606 14.9031 13.5971C14.9795 13.6278 15.0916 13.6071 15.1742 13.5752C15.2744 13.537 15.3533 13.4362 15.4535 13.4087C15.9075 13.2859 15.9607 12.9397 15.9745 12.5502C15.9832 12.2941 16.0089 12.0349 16.0596 11.7844C16.1504 11.338 16.4873 11.0305 16.9406 11.0136C17.5329 10.9911 18.1278 10.9892 18.7201 11.0143C19.2192 11.0355 19.5786 11.4244 19.6255 11.9247C19.6575 12.2666 19.6957 12.6078 19.7238 12.9497C19.7364 13.1031 19.7871 13.2108 19.9436 13.2684C20.0595 13.311 20.1791 13.368 20.2692 13.4494C20.5153 13.6716 20.752 13.6529 21.025 13.4944C21.2598 13.3586 21.5171 13.2603 21.7682 13.1532C22.276 12.9372 22.7807 13.0962 23.0644 13.5702C23.333 14.0185 23.5947 14.4706 23.8445 14.9296C23.9278 15.0824 23.9635 15.2608 24.0211 15.4274L24.0224 15.428ZM18.6212 12.0161H17.0352C16.9901 12.487 16.94 12.9441 16.9043 13.4024C16.8805 13.7105 16.759 13.914 16.4547 14.0442C16.1354 14.1807 15.8298 14.3642 15.5493 14.5702C15.2926 14.758 15.0634 14.8031 14.7735 14.6591C14.3496 14.4487 13.9119 14.2652 13.4698 14.0655C13.2012 14.532 12.9414 14.9822 12.6784 15.4393C13.0691 15.7204 13.4329 16.0028 13.8186 16.2526C14.1116 16.4424 14.1755 16.6847 14.1417 17.0122C14.1085 17.3346 14.1091 17.6652 14.1417 17.9877C14.1755 18.3158 14.1079 18.5569 13.8167 18.7466C13.4273 19.0002 13.0585 19.287 12.6778 19.5618C12.9476 20.029 13.205 20.4729 13.4705 20.9325C13.9113 20.734 14.3402 20.5505 14.7603 20.3483C15.044 20.2112 15.2807 20.2312 15.5393 20.4272C15.7979 20.6232 16.0803 20.8066 16.3808 20.9231C16.7503 21.0671 16.8936 21.3032 16.9124 21.682C16.9331 22.1159 16.9957 22.548 17.042 22.9963C17.5436 22.9963 18.0195 23.0019 18.4947 22.9881C18.5467 22.9869 18.6318 22.8805 18.64 22.8147C18.6963 22.3739 18.7427 21.9312 18.779 21.4879C18.8003 21.2299 18.9374 21.0928 19.1616 20.9807C19.5016 20.811 19.8353 20.6225 20.1477 20.4072C20.3876 20.2418 20.6023 20.2099 20.8647 20.3351C21.298 20.5424 21.7407 20.7302 22.194 20.9331C22.4614 20.4704 22.7181 20.0265 22.9855 19.5644C22.5841 19.2744 22.1984 18.9833 21.7995 18.7128C21.5453 18.54 21.4865 18.3227 21.5178 18.0278C21.5528 17.6965 21.571 17.3547 21.5259 17.0272C21.4796 16.6916 21.5478 16.4574 21.8346 16.2664C22.2228 16.0078 22.5941 15.7242 22.9855 15.4418C22.7156 14.974 22.4551 14.5238 22.1934 14.0711C21.7263 14.2803 21.2754 14.4737 20.8321 14.6835C20.5929 14.7968 20.397 14.7624 20.1778 14.6184C19.8409 14.3974 19.4865 14.2014 19.1303 14.0116C18.9274 13.9039 18.8009 13.7681 18.7796 13.5301C18.7339 13.0273 18.6757 12.5252 18.6218 12.0155L18.6212 12.0161Z" fill="#2947F2"/>
<path d="M1.85635 19.9955C1.96593 19.9955 2.06549 19.9955 2.16442 19.9955C4.47554 19.9955 6.78729 19.9955 9.09842 19.9955C9.19985 19.9955 9.30192 19.9955 9.4021 20.0086C9.6726 20.0456 9.84604 20.2603 9.83164 20.5302C9.81787 20.7813 9.62063 20.9792 9.3639 20.9967C9.30943 21.0005 9.25433 20.998 9.19985 20.998C6.62324 20.998 4.046 20.998 1.46939 20.998C0.996018 20.998 0.835724 20.8383 0.835098 20.3674C0.835098 19.0631 0.832593 17.7595 0.835098 16.4552C0.840733 14.2393 2.52007 12.3308 4.71473 12.044C4.88442 12.0221 5.05598 12.0027 5.22692 12.0027C7.24125 11.9995 9.25621 11.9995 11.2705 12.0008C11.6944 12.0008 11.9643 12.3502 11.784 12.6914C11.717 12.8179 11.5573 12.9112 11.4202 12.9801C11.3313 13.0245 11.206 13.0026 11.0971 13.0026C9.20737 13.0039 7.31764 12.9995 5.42792 13.0045C3.77425 13.0089 2.4274 13.9863 1.98596 15.5147C1.89392 15.8328 1.85009 16.1741 1.84508 16.5053C1.82755 17.6061 1.83819 18.7075 1.83882 19.8083C1.83882 19.8609 1.84821 19.9135 1.85635 19.9942V19.9955Z" fill="#2947F2"/>
<path d="M20.3303 17.5129C20.3278 18.8886 19.1926 20.0188 17.8213 20.0106C16.4526 20.0025 15.318 18.8585 15.3242 17.4922C15.3305 16.1172 16.4576 15.0027 17.842 15.0039C19.222 15.0052 20.3335 16.1253 20.331 17.5129H20.3303ZM16.3417 17.476C16.3355 18.3194 16.9854 18.9881 17.8163 18.9925C18.6535 18.9969 19.3222 18.3369 19.3241 17.5054C19.326 16.682 18.6735 16.022 17.8464 16.0101C17.0268 15.9989 16.3486 16.6595 16.3424 17.476H16.3417Z" fill="#FF6805"/>
</svg>
