<svg width="39" height="40" viewBox="0 0 39 40" fill="none" xmlns="http://www.w3.org/2000/svg">
<rect x="1.73828" y="1.25266" width="36.1545" height="18.6763" stroke="#2947F2" stroke-width="2" stroke-miterlimit="10" stroke-linecap="round" stroke-linejoin="round"/>
<path d="M14.9002 8.19456C14.9061 7.96492 14.8226 7.74197 14.6673 7.57271L14.6708 7.57387C14.5492 7.44294 14.3906 7.35215 14.2162 7.31361C14.0417 7.27506 13.8596 7.29059 13.6942 7.35813C13.5288 7.42566 13.3878 7.542 13.2902 7.69163C13.1925 7.84127 13.1428 8.01711 13.1476 8.19572V10.4409L10.9828 7.68101C10.8891 7.53743 10.7502 7.42923 10.588 7.37358C10.4129 7.30161 10.2207 7.28201 10.0346 7.31715C9.8486 7.35229 9.67676 7.44066 9.53996 7.57154C9.45254 7.65828 9.38355 7.76179 9.33712 7.87585C9.2907 7.98991 9.2678 8.11218 9.2698 8.23531V12.9865C9.26421 13.2171 9.34761 13.4411 9.5027 13.6119C9.67377 13.7794 9.90371 13.8733 10.1432 13.8733C10.3826 13.8733 10.6126 13.7794 10.7837 13.6119C10.8648 13.5285 10.9287 13.4299 10.9716 13.3218C11.0146 13.2137 11.0358 13.0982 11.034 12.9819V10.7623L13.2606 13.5886C13.3562 13.6974 13.4798 13.778 13.6181 13.8215C13.7304 13.8604 13.8485 13.8805 13.9674 13.8809C14.0901 13.883 14.212 13.8602 14.3256 13.814C14.4393 13.7677 14.5425 13.699 14.6289 13.6119C14.7163 13.5251 14.7853 13.4216 14.832 13.3075C14.8786 13.1935 14.9018 13.0713 14.9002 12.9481V8.19456Z" fill="#FF6805"/>
<path d="M30.3141 8.53332C30.344 8.43955 30.3593 8.34176 30.3595 8.24336C30.3631 8.10662 30.3359 7.972 30.2798 7.84722C30.2238 7.72244 30.1404 7.61187 30.0358 7.52369C29.8789 7.38748 29.683 7.30425 29.476 7.28585C29.269 7.26745 29.0615 7.31482 28.883 7.42122C28.7002 7.52593 28.5641 7.69619 28.5022 7.8975L27.6707 10.4163L27.1152 9.01892C27.0498 8.84173 26.932 8.68862 26.7775 8.5799C26.6302 8.4759 26.4536 8.42163 26.2733 8.42502C26.0773 8.41294 25.883 8.46797 25.7225 8.58107C25.5731 8.68852 25.4552 8.8341 25.3813 9.00262L24.7746 10.4641L23.928 7.89284C23.8641 7.69426 23.7305 7.5255 23.5518 7.41772C23.3741 7.31008 23.1668 7.26166 22.9598 7.27945C22.7528 7.29724 22.5569 7.38032 22.4001 7.51671C22.2923 7.60376 22.2059 7.71449 22.1478 7.8403C22.0896 7.96611 22.0612 8.10363 22.0648 8.2422C22.0662 8.34487 22.0823 8.44681 22.1125 8.54497L23.7172 13.2671C23.7768 13.4638 23.9092 13.6304 24.0875 13.7329C24.2335 13.8223 24.3998 13.8732 24.5708 13.8807C24.7469 13.8798 24.9194 13.8303 25.0692 13.7375C25.2376 13.6345 25.3711 13.4831 25.4523 13.3032L26.2162 11.5762L26.9813 13.316C27.0611 13.486 27.188 13.6296 27.3469 13.7297C27.5058 13.8298 27.6901 13.8823 27.878 13.8807C28.0433 13.8708 28.2034 13.8196 28.3438 13.7317C28.5153 13.6278 28.6438 13.4658 28.7059 13.2752L30.3141 8.53332Z" fill="#FF6805"/>
<path fill-rule="evenodd" clip-rule="evenodd" d="M21.0551 8.22132C20.7684 7.90775 20.4194 7.65748 20.0304 7.48652C19.6237 7.31078 19.1854 7.22012 18.7424 7.22012C18.2994 7.22012 17.8611 7.31078 17.4545 7.48652C17.0673 7.6595 16.7194 7.90952 16.432 8.22132C16.1468 8.53308 15.9235 8.89627 15.7741 9.29151C15.4633 10.1284 15.4633 11.0491 15.7741 11.886C15.9237 12.2833 16.1483 12.6482 16.4355 12.9609C16.7281 13.2802 17.0846 13.5343 17.4819 13.7066C17.8791 13.879 18.3082 13.9657 18.7413 13.9612C19.1853 13.9648 19.625 13.8743 20.0315 13.6957C20.4192 13.5236 20.7673 13.2735 21.054 12.9609C21.3413 12.649 21.5662 12.2849 21.7166 11.8884C22.0287 11.0509 22.0287 10.129 21.7166 9.29151C21.5657 8.89656 21.3412 8.53265 21.0551 8.22132ZM20.0163 10.5898C20.0202 10.8649 19.96 11.1372 19.8405 11.3851C19.7388 11.6018 19.5817 11.7878 19.3852 11.9243C19.1923 12.0463 18.9688 12.1111 18.7406 12.1111C18.5124 12.1111 18.2889 12.0463 18.0961 11.9243C17.9009 11.7903 17.7456 11.606 17.6466 11.3909C17.5326 11.139 17.4736 10.8657 17.4736 10.5892C17.4736 10.3127 17.5326 10.0393 17.6466 9.78742C17.7463 9.57348 17.9015 9.39013 18.0961 9.2564C18.289 9.13463 18.5125 9.07 18.7406 9.07C18.9688 9.07 19.1922 9.13463 19.3852 9.2564C19.582 9.39167 19.7392 9.57699 19.8405 9.79324C19.9603 10.0418 20.0206 10.3138 20.0163 10.5898Z" fill="#FF6805"/>
<path d="M28.7343 32.8621V24.1945L27.2864 22.5163L25.3434 23.2472V21.3468L24.0362 20.1043L22.2345 20.9448L21.5279 19.5926L20.1148 18.8983L18.7017 19.5926V16.3035L17.6241 15.6104L16.5532 15.2304L15.2396 16.0119V29.2781L11.9541 25.9525L10.1171 26.6103L9.62109 28.5107L13.897 35.6737L17.1459 38.3416L21.0325 38.8897L25.3434 37.7203L27.6744 35.6737L28.7343 32.8621Z" fill="white"/>
<path d="M25.4081 24.3219C25.4081 22.9235 26.5346 22.5739 27.1204 22.5739C28.0656 22.5739 28.7877 23.357 28.7877 24.3219V31.897C28.7877 36.5585 25.2571 38.8893 20.9019 38.8893C16.5467 38.8893 15.0484 37.7239 11.6688 31.897L9.89903 28.8611C9.29521 27.8496 9.77849 26.5373 10.8915 26.1644C11.2555 26.0414 11.6472 26.0372 12.0135 26.1523C12.3799 26.2673 12.7032 26.4962 12.9396 26.8077L15.2692 29.6046M15.2692 29.5662V19.6837" stroke="#2947F2" stroke-width="2" stroke-miterlimit="10" stroke-linecap="round" stroke-linejoin="round"/>
<path d="M25.4084 26.07V21.9912C25.4084 21.5276 25.2304 21.0829 24.9134 20.7551C24.5965 20.4273 24.1667 20.2431 23.7186 20.2431C23.2704 20.2431 22.8406 20.4273 22.5237 20.7551C22.2068 21.0829 22.0288 21.5276 22.0288 21.9912V26.07V20.8258C22.0288 20.3622 21.8507 19.9175 21.5338 19.5897C21.2169 19.2619 20.7871 19.0777 20.339 19.0777C19.8908 19.0777 19.461 19.2619 19.1441 19.5897C18.8272 19.9175 18.6491 20.3622 18.6491 20.8258V26.07L18.6494 17.3948C18.6494 16.9312 18.4713 16.4866 18.1544 16.1587C17.8375 15.8309 17.4077 15.6467 16.9595 15.6467C16.5114 15.6467 16.0816 15.8309 15.7647 16.1587C15.4478 16.4866 15.2697 16.9312 15.2697 17.3948L15.2695 26.07" stroke="#2947F2" stroke-width="2" stroke-miterlimit="10" stroke-linecap="round" stroke-linejoin="round"/>
</svg>
