<svg width="37" height="36" viewBox="0 0 37 36" fill="none" xmlns="http://www.w3.org/2000/svg">
<path d="M27.125 7.65207L30.4049 7.65207V15.5672" stroke="#2947F2" stroke-width="2" stroke-miterlimit="10" stroke-linecap="round" stroke-linejoin="round"/>
<path d="M32.7144 29.4579V34.7784H5.79847C3.37775 34.7784 1.39648 32.7972 1.39648 30.3789V12.051C1.39648 9.63029 3.37775 7.64902 5.79598 7.64902H6.06085" stroke="#2947F2" stroke-width="2" stroke-miterlimit="10" stroke-linecap="round" stroke-linejoin="round"/>
<path d="M6.28516 14.9243V1.15347H27.1265V14.9243" stroke="#2947F2" stroke-width="2" stroke-miterlimit="10" stroke-linecap="round" stroke-linejoin="round"/>
<path d="M1.40039 12.1209C1.40039 14.0252 2.94468 15.5694 4.84899 15.5694H32.7183V21.6821" stroke="#2947F2" stroke-width="2" stroke-miterlimit="10" stroke-linecap="round" stroke-linejoin="round"/>
<path d="M35.4161 28.6756H26.5451C24.621 28.6756 23.0469 27.1015 23.0469 25.1774C23.0469 23.2532 24.621 21.6791 26.5451 21.6791H35.4161V28.6756Z" stroke="#2947F2" stroke-width="2" stroke-miterlimit="10" stroke-linecap="round" stroke-linejoin="round"/>
<path d="M17.6895 8.6447L12.5963 11.9798L12.5963 5.30956L17.6895 8.6447Z" fill="white" stroke="#FF6805" stroke-width="2" stroke-miterlimit="10" stroke-linecap="round" stroke-linejoin="round"/>
<path d="M22.5117 8.6447L17.4185 11.9798L17.4185 5.30956L22.5117 8.6447Z" fill="white" stroke="#FF6805" stroke-width="2" stroke-miterlimit="10" stroke-linecap="round" stroke-linejoin="round"/>
</svg>
