<svg width="21" height="21" viewBox="0 0 21 21" fill="none" xmlns="http://www.w3.org/2000/svg">
<g clip-path="url(#clip0_2249_42767)">
<path d="M41.3082 1.80078H-8.0918V19.8008H41.3082V1.80078Z" fill="white"/>
<path d="M41.3082 1.80078H-8.0918V3.80078H41.3082V1.80078Z" fill="#B22234"/>
<path d="M41.3082 5.80078H-8.0918V7.8008H41.3082V5.80078Z" fill="#B22234"/>
<path d="M41.3082 9.80078H-8.0918V11.8008H41.3082V9.80078Z" fill="#B22234"/>
<path d="M41.3082 13.8008H-8.0918V15.8008H41.3082V13.8008Z" fill="#B22234"/>
<path d="M41.3082 17.8008H-8.0918V19.8008H41.3082V17.8008Z" fill="#B22234"/>
<path d="M11.6682 1.80078H-8.0918V11.8008H11.6682V1.80078Z" fill="#3C3B6E"/>
<path d="M8.33989 2.5957L8.16008 3.14928H7.57812L8.04888 3.49124L7.86917 4.04456L8.33989 3.7026L8.81059 4.04456L8.63084 3.49119L9.10138 3.14928H8.51967L8.33989 2.5957Z" fill="white"/>
<path d="M6.70295 4L6.5232 4.55334H5.94141L6.41214 4.89532L6.23225 5.44866L6.70302 5.10666L7.17367 5.44866L6.9939 4.89532L7.46466 4.55334H6.88272L6.70295 4Z" fill="white"/>
<path d="M9.97829 4L9.79854 4.55334H9.2168L9.6875 4.8953L9.50759 5.44866L9.97838 5.10666L10.449 5.44866L10.2693 4.89536L10.74 4.55334H10.1582L9.97829 4Z" fill="white"/>
<path d="M5.06444 5.4043L4.88467 5.95763H4.30273L4.77352 6.29963L4.59374 6.85314L5.06437 6.51115L5.53512 6.85314L5.35519 6.29963L5.82597 5.95763H5.24417L5.06444 5.4043ZM5.06433 6.20521H5.06431L5.06437 6.20512L5.06439 6.20517L5.06433 6.20521Z" fill="white"/>
<path d="M8.33989 5.4043L8.16012 5.95763H7.57812L8.04895 6.29965L7.86917 6.85314L8.33987 6.51119L8.81057 6.85314L8.63075 6.2996L9.10136 5.95763H8.51963L8.33989 5.4043ZM8.33989 6.20521L8.33983 6.20517L8.33987 6.20512L8.33992 6.20521H8.33989Z" fill="white"/>
<path d="M3.42555 6.80859L3.24582 7.36188H2.66406L3.13464 7.70382L2.95485 8.2572L3.42555 7.91522L3.89625 8.2572L3.7165 7.7039L4.18729 7.36188H3.60532L3.42555 6.80859Z" fill="white"/>
<path d="M6.70295 6.80859L6.5232 7.36188H5.94141L6.41216 7.70386L6.23225 8.2572L6.70302 7.91518L7.17367 8.2572L6.9939 7.70386L7.46466 7.36188H6.88272L6.70295 6.80859Z" fill="white"/>
<path d="M9.97829 6.80859L9.79854 7.36188H9.2168L9.6875 7.70382L9.50759 8.2572L9.97838 7.91518L10.449 8.2572L10.2692 7.7039L10.74 7.36188H10.1582L9.97829 6.80859Z" fill="white"/>
<path d="M5.24419 8.76619L5.06444 8.21289L4.88467 8.76619H4.30273L4.77349 9.10819L4.59372 9.66146L5.06437 9.31948L5.53512 9.66146L5.35525 9.10817L5.82597 8.76619H5.24419Z" fill="white"/>
<path d="M8.51963 8.76619L8.33989 8.21289L8.16012 8.76619H7.57812L8.04893 9.10823L7.86917 9.66146L8.33989 9.31953L8.81059 9.66146L8.63082 9.10814L9.10138 8.76619H8.51963Z" fill="white"/>
<path d="M3.60532 10.1685L3.42555 9.61523L3.2458 10.1685H2.66406L3.13462 10.5105L2.95485 11.0638L3.42555 10.7219L3.89625 11.0638L3.7165 10.5106L4.18729 10.1685H3.60532Z" fill="white"/>
<path d="M6.88272 10.1685L6.70295 9.61523L6.5232 10.1685H5.94141L6.41216 10.5105L6.23225 11.0638L6.70302 10.7218L7.17367 11.0638L6.9939 10.5105L7.46466 10.1685H6.88272Z" fill="white"/>
<path d="M10.1582 10.1685L9.97829 9.61523L9.79854 10.1685H9.2168L9.6875 10.5105L9.50759 11.0638L9.97838 10.7218L10.449 11.0638L10.2692 10.5106L10.74 10.1685H10.1582Z" fill="white"/>
</g>
<defs>
<clipPath id="clip0_2249_42767">
<rect x="1.82031" y="1.80078" width="18" height="18" rx="9" fill="white"/>
</clipPath>
</defs>
</svg>
