<svg width="19" height="18" viewBox="0 0 19 18" fill="none" xmlns="http://www.w3.org/2000/svg">
<path d="M1.63721 8.26733L17.731 8.26733" stroke="#2947F2" stroke-width="2" stroke-miterlimit="10" stroke-linecap="round" stroke-linejoin="round"/>
<path d="M5.14508 2.93481H2.81864C2.3835 2.95964 1.97595 3.156 1.68537 3.48085C1.39479 3.8057 1.24489 4.23253 1.26854 4.66774V15.0653C1.24489 15.5005 1.39479 15.9273 1.68537 16.2521C1.97595 16.577 2.3835 16.7734 2.81864 16.7982H16.1812C16.6163 16.7734 17.0239 16.577 17.3145 16.2521C17.605 15.9273 17.7549 15.5005 17.7313 15.0653V4.66774C17.7549 4.23253 17.605 3.8057 17.3145 3.48085C17.0239 3.156 16.6163 2.95964 16.1812 2.93481H15.1319" stroke="#2947F2" stroke-width="2" stroke-miterlimit="10" stroke-linecap="round" stroke-linejoin="round"/>
<path d="M13.3989 1.2019V4.66775" stroke="#2947F2" stroke-width="2" stroke-miterlimit="10" stroke-linecap="round" stroke-linejoin="round"/>
<path d="M5.60059 1.2019V4.66775" stroke="#2947F2" stroke-width="2" stroke-miterlimit="10" stroke-linecap="round" stroke-linejoin="round"/>
<path d="M5.34961 2.91873L15.3481 2.93884" stroke="#2947F2" stroke-width="2" stroke-miterlimit="10" stroke-linecap="round" stroke-linejoin="round"/>
</svg>
