<svg width="17" height="17" viewBox="0 0 17 17" fill="none" xmlns="http://www.w3.org/2000/svg">
<g id="Frame 3026">
<g id="XMLID_858_">
<g id="XMLID_30_">
<g id="XMLID_34_">
<path d="M15.4655 3.24971C15.4655 3.37588 15.4655 3.50205 15.4655 3.62822C15.4655 3.96689 15.4655 4.30391 15.4655 4.64258C15.4655 5.1373 15.4655 5.63037 15.4655 6.1251C15.4655 6.71611 15.4655 7.30547 15.4655 7.89648C15.4655 8.5207 15.4655 9.14658 15.4655 9.7708C15.4655 10.3768 15.4655 10.9844 15.4655 11.5903C15.4655 12.1149 15.4655 12.6396 15.4655 13.1642C15.4655 13.5526 15.4655 13.9411 15.4655 14.3296C15.4655 14.5205 15.4655 14.7114 15.4655 14.904C15.4655 14.914 15.4655 14.9239 15.4655 14.9339C15.4655 14.9604 15.4621 14.9887 15.4621 15.0152C15.4605 15.0617 15.4754 14.9505 15.4655 14.9953C15.4621 15.0069 15.4621 15.0169 15.4588 15.0285C15.4522 15.0567 15.4439 15.0866 15.4356 15.1148C15.4323 15.1248 15.4273 15.1348 15.424 15.1464C15.4123 15.1879 15.4555 15.0916 15.4306 15.1281C15.4173 15.1497 15.4073 15.1746 15.3941 15.1962C15.3824 15.2145 15.3708 15.2327 15.3592 15.251C15.3243 15.3041 15.3708 15.2344 15.3708 15.236C15.3725 15.2377 15.3443 15.2659 15.3426 15.2692C15.326 15.2875 15.3061 15.3041 15.2878 15.3224C15.2297 15.3788 15.326 15.3008 15.2795 15.3307C15.2579 15.3439 15.238 15.3589 15.2148 15.3722C15.2048 15.3771 15.1965 15.3838 15.1865 15.3888C15.1699 15.3971 15.1367 15.4286 15.1666 15.4004C15.1899 15.3788 15.1865 15.3938 15.165 15.4004C15.1517 15.4054 15.1367 15.4104 15.1235 15.4153C15.1019 15.422 15.0803 15.427 15.0587 15.4319C15.062 15.4319 15.0156 15.4419 15.0139 15.4402C15.0122 15.4386 15.0853 15.4336 15.0454 15.4353C15.0189 15.4369 14.9923 15.4386 14.9641 15.4386C14.9558 15.4386 14.9491 15.4386 14.9408 15.4386C14.7715 15.4386 14.6005 15.4386 14.4312 15.4386C14.0759 15.4386 13.7206 15.4386 13.3637 15.4386C12.8723 15.4386 12.3825 15.4386 11.8911 15.4386C11.3084 15.4386 10.7257 15.4386 10.143 15.4386C9.52044 15.4386 8.89788 15.4386 8.27698 15.4386C7.65774 15.4386 7.0385 15.4386 6.41926 15.4386C5.85315 15.4386 5.2887 15.4386 4.72258 15.4386C4.26106 15.4386 3.79788 15.4386 3.33635 15.4386C3.02092 15.4386 2.70549 15.4386 2.39006 15.4386C2.27219 15.4386 2.15432 15.4402 2.03645 15.4386C2.02483 15.4386 2.01321 15.4386 2.00159 15.4386C1.98997 15.4386 1.97834 15.4369 1.96672 15.4369C1.90696 15.4336 1.98 15.4369 1.98665 15.4402C1.96838 15.4303 1.9302 15.4286 1.91028 15.4236C1.88206 15.4153 1.85383 15.4054 1.82561 15.3971C1.78909 15.3871 1.85715 15.407 1.85383 15.4087C1.85217 15.4104 1.81233 15.3871 1.81399 15.3888C1.79407 15.3788 1.77581 15.3672 1.75754 15.3556C1.74592 15.3473 1.7343 15.339 1.72102 15.3307C1.69944 15.3157 1.71106 15.3091 1.71936 15.3307C1.72434 15.3356 1.73098 15.339 1.73596 15.3439C1.72766 15.3373 1.71936 15.3307 1.71106 15.3224C1.7011 15.3124 1.68948 15.3024 1.67952 15.2925C1.67786 15.2908 1.62639 15.241 1.62805 15.236C1.62971 15.2344 1.6762 15.3041 1.63967 15.251C1.63303 15.2427 1.62805 15.2327 1.62141 15.2244C1.60813 15.2028 1.59485 15.1813 1.58323 15.158C1.57825 15.1497 1.57493 15.1364 1.56829 15.1281C1.5467 15.0982 1.59319 15.2012 1.57161 15.1364C1.55667 15.0899 1.54504 15.0435 1.53342 14.997C1.5218 14.9521 1.5384 15.0634 1.53674 15.0169C1.53674 15.0053 1.53508 14.9937 1.53342 14.982C1.53176 14.9671 1.53176 14.9505 1.53176 14.9355C1.53176 14.9007 1.53176 14.8658 1.53176 14.831C1.53176 14.5869 1.53176 14.3429 1.53176 14.0988C1.53176 13.6738 1.53176 13.2488 1.53176 12.8238C1.53176 12.2727 1.53176 11.7215 1.53176 11.1703C1.53176 10.5561 1.53176 9.9418 1.53176 9.32754C1.53176 8.70332 1.53176 8.0791 1.53176 7.45488C1.53176 6.88213 1.53176 6.30938 1.53176 5.73662C1.53176 5.27676 1.53176 4.81523 1.53176 4.35537C1.53176 4.06152 1.53176 3.76768 1.53176 3.47383C1.53176 3.40908 1.53176 3.34268 1.53176 3.27793C1.53176 3.26963 1.53176 3.25967 1.53176 3.25137C1.53176 3.23643 1.53176 3.21982 1.53342 3.20488C1.53342 3.20654 1.53508 3.16006 1.53674 3.1584C1.54006 3.15674 1.52346 3.22812 1.53342 3.18994C1.5384 3.16836 1.55667 3.03555 1.57991 3.02891C1.58489 3.02725 1.54836 3.09033 1.56829 3.05879C1.57659 3.04717 1.58157 3.03223 1.58821 3.02061C1.59983 2.99902 1.61311 2.97578 1.62805 2.95586C1.63469 2.94756 1.64133 2.93926 1.64631 2.9293C1.66458 2.89775 1.62971 2.95752 1.62805 2.9542C1.62473 2.94922 1.68118 2.89609 1.68616 2.89111C1.69612 2.88115 1.70774 2.87119 1.7177 2.86123C1.73596 2.84463 1.72766 2.83799 1.7177 2.85957C1.70442 2.88945 1.70442 2.86787 1.72766 2.85293C1.73596 2.84629 1.74592 2.84131 1.75422 2.83467C1.77581 2.82139 1.79905 2.80977 1.82063 2.79648C1.82229 2.79482 1.84885 2.78154 1.85051 2.78154C1.84885 2.77988 1.78411 2.80645 1.84221 2.78652C1.88538 2.77158 1.94348 2.76992 1.98333 2.75C1.9385 2.77158 1.92854 2.75498 1.9634 2.75332C1.97502 2.75332 1.98665 2.75166 1.99827 2.75166C2.00989 2.75166 2.02151 2.75166 2.03313 2.75166C2.04143 2.75166 2.05139 2.75166 2.05969 2.75166C2.12112 2.75166 2.18088 2.75166 2.24231 2.75166C2.51458 2.75166 2.78684 2.75166 3.05745 2.75166C3.48743 2.75166 3.91907 2.75166 4.34905 2.75166C4.89524 2.75166 5.43977 2.75166 5.98596 2.75166C6.59358 2.75166 7.2012 2.75166 7.80881 2.75166C8.43635 2.75166 9.06389 2.75166 9.69309 2.75166C10.2907 2.75166 10.8884 2.75166 11.4861 2.75166C12.0024 2.75166 12.5203 2.75166 13.0366 2.75166C13.4301 2.75166 13.8236 2.75166 14.217 2.75166C14.4362 2.75166 14.6536 2.75166 14.8728 2.75166C14.9027 2.75166 14.9325 2.75166 14.9624 2.75166C14.9757 2.75166 14.984 2.75166 14.9973 2.75166C15.0106 2.75166 15.0853 2.75996 15.0338 2.75332C14.979 2.74668 15.0654 2.76162 15.0786 2.76494C15.1035 2.77158 15.1284 2.77988 15.1533 2.78818C15.2247 2.81143 15.1152 2.76494 15.165 2.79316C15.1865 2.80645 15.2098 2.81641 15.2314 2.82969C15.2413 2.83633 15.2928 2.86289 15.2945 2.87285C15.2945 2.87949 15.2447 2.82471 15.2696 2.85459C15.2762 2.86289 15.2862 2.86953 15.2945 2.87617C15.3127 2.89277 15.3293 2.9127 15.3476 2.93096C15.404 2.98906 15.326 2.89277 15.3559 2.93926C15.3625 2.94922 15.4406 3.06211 15.4323 3.07041C15.4289 3.07373 15.4107 3.00566 15.4206 3.04219C15.424 3.05215 15.4289 3.06377 15.4323 3.07373C15.4406 3.09863 15.4472 3.12354 15.4538 3.14844C15.4572 3.16338 15.4588 3.17832 15.4638 3.19326C15.4738 3.23145 15.4572 3.16006 15.4605 3.16172C15.4704 3.16338 15.4655 3.23809 15.4655 3.24971C15.4671 3.42402 15.6165 3.59004 15.7975 3.58174C15.9751 3.57344 16.1328 3.43564 16.1295 3.24971C16.1229 2.71514 15.741 2.20713 15.2015 2.11084C15.0986 2.09258 14.999 2.08594 14.896 2.08594C14.6852 2.08594 14.476 2.08594 14.2652 2.08594C13.875 2.08594 13.4849 2.08594 13.0948 2.08594C12.5751 2.08594 12.0538 2.08594 11.5342 2.08594C10.9332 2.08594 10.3306 2.08594 9.72961 2.08594C9.09709 2.08594 8.46291 2.08594 7.8304 2.08594C7.21448 2.08594 6.59856 2.08594 5.98264 2.08594C5.43313 2.08594 4.88362 2.08594 4.33411 2.08594C3.90081 2.08594 3.4675 2.08594 3.03254 2.08594C2.7636 2.08594 2.49465 2.08594 2.22737 2.08594C2.17092 2.08594 2.11282 2.08594 2.05637 2.08594C1.7509 2.0876 1.46204 2.19551 1.23625 2.40469C0.997192 2.62549 0.872681 2.9459 0.871021 3.26797C0.871021 3.32773 0.871021 3.3875 0.871021 3.44727C0.871021 3.73447 0.871021 4.02168 0.871021 4.31055C0.871021 4.77207 0.871021 5.23359 0.871021 5.69678C0.871021 6.27285 0.871021 6.84893 0.871021 7.42334C0.871021 8.04922 0.871021 8.67676 0.871021 9.30264C0.871021 9.9252 0.871021 10.5478 0.871021 11.1703C0.871021 11.7265 0.871021 12.281 0.871021 12.8371C0.871021 13.2654 0.871021 13.6938 0.871021 14.1221C0.871021 14.3628 0.871021 14.6035 0.871021 14.8442C0.871021 14.8907 0.86936 14.9372 0.872681 14.9837C0.902563 15.5415 1.31926 16.013 1.87708 16.0877C2.03479 16.1093 2.19583 16.101 2.3552 16.101C2.66399 16.101 2.97444 16.101 3.28323 16.101C3.74641 16.101 4.20959 16.101 4.67444 16.101C5.24221 16.101 5.81165 16.101 6.37942 16.101C7.00364 16.101 7.62786 16.101 8.25208 16.101C8.88293 16.101 9.51379 16.101 10.143 16.101C10.7307 16.101 11.3184 16.101 11.9061 16.101C12.4025 16.101 12.8972 16.101 13.3936 16.101C13.7472 16.101 14.1025 16.101 14.4561 16.101C14.6204 16.101 14.7831 16.101 14.9475 16.101C15.6049 16.0993 16.1262 15.5714 16.1295 14.9156C16.1295 14.733 16.1295 14.5521 16.1295 14.3694C16.1295 13.9859 16.1295 13.6024 16.1295 13.2206C16.1295 12.6927 16.1295 12.1647 16.1295 11.6368C16.1295 11.0259 16.1295 10.4149 16.1295 9.804C16.1295 9.17148 16.1295 8.5373 16.1295 7.90479C16.1295 7.30879 16.1295 6.71445 16.1295 6.11846C16.1295 5.62041 16.1295 5.12402 16.1295 4.62598C16.1295 4.2873 16.1295 3.94863 16.1295 3.60996C16.1295 3.49043 16.1295 3.36924 16.1295 3.24971C16.1295 3.07539 15.9768 2.90937 15.7975 2.91768C15.6182 2.92598 15.4655 3.06377 15.4655 3.24971Z" fill="black"/>
<path d="M15.4655 3.24971C15.4655 3.37588 15.4655 3.50205 15.4655 3.62822C15.4655 3.96689 15.4655 4.30391 15.4655 4.64258C15.4655 5.1373 15.4655 5.63037 15.4655 6.1251C15.4655 6.71611 15.4655 7.30547 15.4655 7.89648C15.4655 8.5207 15.4655 9.14658 15.4655 9.7708C15.4655 10.3768 15.4655 10.9844 15.4655 11.5903C15.4655 12.1149 15.4655 12.6396 15.4655 13.1642C15.4655 13.5526 15.4655 13.9411 15.4655 14.3296C15.4655 14.5205 15.4655 14.7114 15.4655 14.904C15.4655 14.914 15.4655 14.9239 15.4655 14.9339C15.4655 14.9604 15.4621 14.9887 15.4621 15.0152C15.4605 15.0617 15.4754 14.9505 15.4655 14.9953C15.4621 15.0069 15.4621 15.0169 15.4588 15.0285C15.4522 15.0567 15.4439 15.0866 15.4356 15.1148C15.4323 15.1248 15.4273 15.1348 15.424 15.1464C15.4123 15.1879 15.4555 15.0916 15.4306 15.1281C15.4173 15.1497 15.4073 15.1746 15.3941 15.1962C15.3824 15.2145 15.3708 15.2327 15.3592 15.251C15.3243 15.3041 15.3708 15.2344 15.3708 15.236C15.3725 15.2377 15.3443 15.2659 15.3426 15.2692C15.326 15.2875 15.3061 15.3041 15.2878 15.3224C15.2297 15.3788 15.326 15.3008 15.2795 15.3307C15.2579 15.3439 15.238 15.3589 15.2148 15.3722C15.2048 15.3771 15.1965 15.3838 15.1865 15.3888C15.1699 15.3971 15.1367 15.4286 15.1666 15.4004C15.1899 15.3788 15.1865 15.3937 15.165 15.4004C15.1517 15.4054 15.1367 15.4104 15.1235 15.4153C15.1019 15.422 15.0803 15.427 15.0587 15.4319C15.062 15.4319 15.0156 15.4419 15.0139 15.4402C15.0122 15.4386 15.0853 15.4336 15.0454 15.4353C15.0189 15.4369 14.9923 15.4386 14.9641 15.4386C14.9558 15.4386 14.9491 15.4386 14.9408 15.4386C14.7715 15.4386 14.6005 15.4386 14.4312 15.4386C14.0759 15.4386 13.7206 15.4386 13.3637 15.4386C12.8723 15.4386 12.3825 15.4386 11.8911 15.4386C11.3084 15.4386 10.7257 15.4386 10.143 15.4386C9.52043 15.4386 8.89788 15.4386 8.27698 15.4386C7.65774 15.4386 7.0385 15.4386 6.41926 15.4386C5.85315 15.4386 5.2887 15.4386 4.72258 15.4386C4.26106 15.4386 3.79788 15.4386 3.33635 15.4386C3.02092 15.4386 2.70549 15.4386 2.39006 15.4386C2.27219 15.4386 2.15432 15.4402 2.03645 15.4386C2.02483 15.4386 2.01321 15.4386 2.00159 15.4386C1.98997 15.4386 1.97834 15.4369 1.96672 15.4369C1.90696 15.4336 1.98 15.4369 1.98665 15.4402C1.96838 15.4303 1.9302 15.4286 1.91028 15.4236C1.88206 15.4153 1.85383 15.4054 1.82561 15.3971C1.78909 15.3871 1.85715 15.407 1.85383 15.4087C1.85217 15.4104 1.81233 15.3871 1.81399 15.3888C1.79407 15.3788 1.77581 15.3672 1.75754 15.3556C1.74592 15.3473 1.7343 15.339 1.72102 15.3307C1.69944 15.3157 1.71106 15.3091 1.71936 15.3307C1.72434 15.3356 1.73098 15.339 1.73596 15.3439C1.72766 15.3373 1.71936 15.3307 1.71106 15.3224C1.7011 15.3124 1.68948 15.3024 1.67952 15.2925C1.67786 15.2908 1.62639 15.241 1.62805 15.236C1.62971 15.2344 1.6762 15.3041 1.63967 15.251C1.63303 15.2427 1.62805 15.2327 1.62141 15.2244C1.60813 15.2028 1.59485 15.1813 1.58323 15.158C1.57825 15.1497 1.57493 15.1364 1.56829 15.1281C1.5467 15.0982 1.59319 15.2012 1.57161 15.1364C1.55667 15.0899 1.54504 15.0435 1.53342 14.997C1.5218 14.9521 1.5384 15.0634 1.53674 15.0169C1.53674 15.0053 1.53508 14.9937 1.53342 14.982C1.53176 14.9671 1.53176 14.9505 1.53176 14.9355C1.53176 14.9007 1.53176 14.8658 1.53176 14.831C1.53176 14.5869 1.53176 14.3429 1.53176 14.0988C1.53176 13.6738 1.53176 13.2488 1.53176 12.8238C1.53176 12.2727 1.53176 11.7215 1.53176 11.1703C1.53176 10.5561 1.53176 9.9418 1.53176 9.32754C1.53176 8.70332 1.53176 8.0791 1.53176 7.45488C1.53176 6.88213 1.53176 6.30938 1.53176 5.73662C1.53176 5.27676 1.53176 4.81523 1.53176 4.35537C1.53176 4.06152 1.53176 3.76768 1.53176 3.47383C1.53176 3.40908 1.53176 3.34268 1.53176 3.27793C1.53176 3.26963 1.53176 3.25967 1.53176 3.25137C1.53176 3.23643 1.53176 3.21982 1.53342 3.20488C1.53342 3.20654 1.53508 3.16006 1.53674 3.1584C1.54006 3.15674 1.52346 3.22812 1.53342 3.18994C1.5384 3.16836 1.55667 3.03555 1.57991 3.02891C1.58489 3.02725 1.54836 3.09033 1.56829 3.05879C1.57659 3.04717 1.58157 3.03223 1.58821 3.02061C1.59983 2.99902 1.61311 2.97578 1.62805 2.95586C1.63469 2.94756 1.64133 2.93926 1.64631 2.9293C1.66458 2.89775 1.62971 2.95752 1.62805 2.9542C1.62473 2.94922 1.68118 2.89609 1.68616 2.89111C1.69612 2.88115 1.70774 2.87119 1.7177 2.86123C1.73596 2.84463 1.72766 2.83799 1.7177 2.85957C1.70442 2.88945 1.70442 2.86787 1.72766 2.85293C1.73596 2.84629 1.74592 2.84131 1.75422 2.83467C1.77581 2.82139 1.79905 2.80977 1.82063 2.79648C1.82229 2.79482 1.84885 2.78154 1.85051 2.78154C1.84885 2.77988 1.78411 2.80645 1.84221 2.78652C1.88538 2.77158 1.94348 2.76992 1.98333 2.75C1.9385 2.77158 1.92854 2.75498 1.9634 2.75332C1.97502 2.75332 1.98665 2.75166 1.99827 2.75166C2.00989 2.75166 2.02151 2.75166 2.03313 2.75166C2.04143 2.75166 2.05139 2.75166 2.05969 2.75166C2.12112 2.75166 2.18088 2.75166 2.24231 2.75166C2.51458 2.75166 2.78684 2.75166 3.05745 2.75166C3.48743 2.75166 3.91907 2.75166 4.34905 2.75166C4.89524 2.75166 5.43977 2.75166 5.98596 2.75166C6.59358 2.75166 7.2012 2.75166 7.80881 2.75166C8.43635 2.75166 9.06389 2.75166 9.69309 2.75166C10.2907 2.75166 10.8884 2.75166 11.4861 2.75166C12.0024 2.75166 12.5203 2.75166 13.0366 2.75166C13.4301 2.75166 13.8236 2.75166 14.217 2.75166C14.4362 2.75166 14.6536 2.75166 14.8728 2.75166C14.9027 2.75166 14.9325 2.75166 14.9624 2.75166C14.9757 2.75166 14.984 2.75166 14.9973 2.75166C15.0106 2.75166 15.0853 2.75996 15.0338 2.75332C14.979 2.74668 15.0654 2.76162 15.0786 2.76494C15.1035 2.77158 15.1284 2.77988 15.1533 2.78818C15.2247 2.81143 15.1152 2.76494 15.165 2.79316C15.1865 2.80645 15.2098 2.81641 15.2314 2.82969C15.2413 2.83633 15.2928 2.86289 15.2945 2.87285C15.2945 2.87949 15.2447 2.82471 15.2696 2.85459C15.2762 2.86289 15.2862 2.86953 15.2945 2.87617C15.3127 2.89277 15.3293 2.9127 15.3476 2.93096C15.404 2.98906 15.326 2.89277 15.3559 2.93926C15.3625 2.94922 15.4406 3.06211 15.4323 3.07041C15.4289 3.07373 15.4107 3.00566 15.4206 3.04219C15.4239 3.05215 15.4289 3.06377 15.4323 3.07373C15.4406 3.09863 15.4472 3.12354 15.4538 3.14844C15.4572 3.16338 15.4588 3.17832 15.4638 3.19326C15.4738 3.23145 15.4572 3.16006 15.4605 3.16172C15.4704 3.16338 15.4655 3.23809 15.4655 3.24971ZM15.4655 3.24971C15.4671 3.42402 15.6165 3.59004 15.7975 3.58174C15.9751 3.57344 16.1328 3.43564 16.1295 3.24971C16.1229 2.71514 15.741 2.20713 15.2015 2.11084C15.0986 2.09258 14.999 2.08594 14.896 2.08594C14.6852 2.08594 14.476 2.08594 14.2652 2.08594C13.875 2.08594 13.4849 2.08594 13.0948 2.08594C12.5751 2.08594 12.0538 2.08594 11.5342 2.08594C10.9332 2.08594 10.3306 2.08594 9.72961 2.08594C9.09709 2.08594 8.46292 2.08594 7.8304 2.08594C7.21448 2.08594 6.59856 2.08594 5.98264 2.08594C5.43313 2.08594 4.88362 2.08594 4.33411 2.08594C3.90081 2.08594 3.4675 2.08594 3.03254 2.08594C2.7636 2.08594 2.49465 2.08594 2.22737 2.08594C2.17092 2.08594 2.11282 2.08594 2.05637 2.08594C1.7509 2.0876 1.46204 2.19551 1.23625 2.40469C0.997192 2.62549 0.872681 2.9459 0.871021 3.26797C0.871021 3.32773 0.871021 3.3875 0.871021 3.44727C0.871021 3.73447 0.871021 4.02168 0.871021 4.31055C0.871021 4.77207 0.871021 5.23359 0.871021 5.69678C0.871021 6.27285 0.871021 6.84893 0.871021 7.42334C0.871021 8.04922 0.871021 8.67676 0.871021 9.30264C0.871021 9.9252 0.871021 10.5478 0.871021 11.1703C0.871021 11.7265 0.871021 12.281 0.871021 12.8371C0.871021 13.2654 0.871021 13.6938 0.871021 14.1221C0.871021 14.3628 0.871021 14.6035 0.871021 14.8442C0.871021 14.8907 0.86936 14.9372 0.872681 14.9837C0.902563 15.5415 1.31926 16.013 1.87708 16.0877C2.03479 16.1093 2.19583 16.101 2.3552 16.101C2.66399 16.101 2.97444 16.101 3.28323 16.101C3.74641 16.101 4.20959 16.101 4.67444 16.101C5.24221 16.101 5.81165 16.101 6.37942 16.101C7.00364 16.101 7.62786 16.101 8.25208 16.101C8.88293 16.101 9.51379 16.101 10.143 16.101C10.7307 16.101 11.3184 16.101 11.9061 16.101C12.4025 16.101 12.8972 16.101 13.3936 16.101C13.7472 16.101 14.1025 16.101 14.4561 16.101C14.6204 16.101 14.7831 16.101 14.9475 16.101C15.6049 16.0993 16.1262 15.5714 16.1295 14.9156C16.1295 14.733 16.1295 14.5521 16.1295 14.3694C16.1295 13.9859 16.1295 13.6024 16.1295 13.2206C16.1295 12.6927 16.1295 12.1647 16.1295 11.6368C16.1295 11.0259 16.1295 10.4149 16.1295 9.804C16.1295 9.17148 16.1295 8.5373 16.1295 7.90479C16.1295 7.30879 16.1295 6.71445 16.1295 6.11846C16.1295 5.62041 16.1295 5.12402 16.1295 4.62598C16.1295 4.2873 16.1295 3.94863 16.1295 3.60996C16.1295 3.49043 16.1295 3.36924 16.1295 3.24971C16.1295 3.07539 15.9768 2.90937 15.7975 2.91768C15.6182 2.92598 15.4655 3.06377 15.4655 3.24971Z" stroke="black" stroke-width="0.2"/>
</g>
</g>
</g>
<g id="XMLID_832_">
<g id="XMLID_24_">
<g id="XMLID_28_">
<path d="M15.4654 3.24971C15.4654 4.03662 15.4654 4.82187 15.4654 5.60879C15.4654 5.71836 15.4654 5.82793 15.4654 5.93584C15.5767 5.82461 15.6862 5.71504 15.7975 5.60381C15.6663 5.60381 15.5368 5.60381 15.4057 5.60381C15.0521 5.60381 14.6984 5.60381 14.3465 5.60381C13.8219 5.60381 13.2973 5.60381 12.7727 5.60381C12.1352 5.60381 11.4977 5.60381 10.8602 5.60381C10.1596 5.60381 9.45899 5.60381 8.75841 5.60381C8.0545 5.60381 7.34894 5.60381 6.64503 5.60381C5.98595 5.60381 5.3252 5.60381 4.66612 5.60381C4.11163 5.60381 3.55548 5.60381 3.00099 5.60381C2.60089 5.60381 2.19913 5.60381 1.79903 5.60381C1.60978 5.60381 1.42052 5.59883 1.23126 5.60381C1.22296 5.60381 1.21466 5.60381 1.20636 5.60381C1.31759 5.71504 1.42716 5.82461 1.53839 5.93584C1.53839 5.3415 1.53839 4.74717 1.53839 4.15283C1.53839 3.87061 1.53839 3.58672 1.53839 3.30449C1.53839 3.28623 1.53839 3.26797 1.53839 3.25137C1.53839 3.23145 1.53839 3.21318 1.54005 3.19326C1.54503 3.12354 1.53341 3.1999 1.53673 3.20156C1.53507 3.1999 1.54669 3.15508 1.54503 3.15674C1.55167 3.12852 1.55997 3.09863 1.56827 3.07041C1.57491 3.05049 1.60479 3.01729 1.57491 3.04883C1.56329 3.07539 1.56495 3.07539 1.57657 3.04883C1.58155 3.03887 1.58653 3.02891 1.59151 3.01895C1.60646 2.99072 1.62472 2.9625 1.64298 2.93594C1.67784 2.88281 1.63136 2.95254 1.63136 2.95088C1.6297 2.94756 1.6629 2.91436 1.66788 2.91104C1.6712 2.90771 1.73263 2.84131 1.73927 2.84463C1.74093 2.84629 1.6712 2.89277 1.72433 2.85625C1.74259 2.84463 1.76085 2.83135 1.77911 2.82139C1.79239 2.81475 1.80401 2.80645 1.81729 2.7998C1.83058 2.79316 1.87208 2.75664 1.83722 2.78818C1.80567 2.81641 1.83888 2.78818 1.8588 2.78154C1.87208 2.77656 1.88702 2.77158 1.90196 2.76826C1.9169 2.76494 1.93019 2.75996 1.94513 2.75664C1.95343 2.75498 2.02149 2.7334 1.96837 2.75166C1.92188 2.7666 1.96505 2.75332 1.98165 2.75166C2.00157 2.75 2.01983 2.75 2.03976 2.75C2.23233 2.74834 2.42491 2.75 2.61583 2.75C3.1172 2.75 3.61856 2.75 4.11827 2.75C4.82384 2.75 5.52774 2.75 6.23331 2.75C7.03683 2.75 7.84034 2.75 8.64386 2.75C9.44405 2.75 10.2442 2.75 11.0444 2.75C11.7301 2.75 12.4174 2.75 13.103 2.75C13.5745 2.75 14.0443 2.75 14.5158 2.75C14.637 2.75 14.7566 2.75 14.8777 2.75C14.9043 2.75 14.9292 2.75 14.9558 2.75C14.9591 2.75 14.9624 2.75 14.9674 2.75C14.9906 2.75 15.0139 2.75166 15.0371 2.75332C15.0703 2.75498 15.0653 2.77158 15.0172 2.75C15.0288 2.75498 15.0487 2.75498 15.062 2.7583C15.0985 2.7666 15.1334 2.77822 15.1683 2.78984C15.2181 2.80645 15.1483 2.7832 15.15 2.78154C15.1517 2.77988 15.2048 2.80977 15.2081 2.81143C15.2363 2.82803 15.2629 2.84795 15.2911 2.86455C15.3276 2.88447 15.2496 2.81973 15.2745 2.85293C15.2845 2.86621 15.3027 2.87783 15.3144 2.88945C15.3227 2.89775 15.3775 2.94756 15.3725 2.95254C15.3741 2.95088 15.331 2.88945 15.3658 2.9459C15.3758 2.96084 15.3858 2.97578 15.3957 2.99238C15.4007 3.00234 15.4422 3.06377 15.4372 3.07041C15.4405 3.06709 15.4107 2.99736 15.4322 3.06211C15.4372 3.07539 15.4422 3.09033 15.4455 3.10361C15.4538 3.1335 15.4555 3.17334 15.4688 3.20156C15.4455 3.15176 15.4638 3.14844 15.4654 3.18164C15.4638 3.20322 15.4654 3.22646 15.4654 3.24971C15.4671 3.42402 15.6165 3.59004 15.7975 3.58174C15.9751 3.57344 16.1328 3.43564 16.1295 3.24971C16.1212 2.60889 15.6032 2.09092 14.9624 2.08594C14.8977 2.08594 14.8313 2.08594 14.7665 2.08594C14.3764 2.08594 13.9879 2.08594 13.5978 2.08594C12.9503 2.08594 12.3012 2.08594 11.6537 2.08594C10.8651 2.08594 10.0766 2.08594 9.288 2.08594C8.45958 2.08594 7.63116 2.08594 6.80274 2.08594C6.05567 2.08594 5.30694 2.08594 4.55987 2.08594C3.99376 2.08594 3.42765 2.08594 2.86319 2.08594C2.59591 2.08594 2.33028 2.08594 2.063 2.08594C1.63136 2.0876 1.20968 2.31338 1.01046 2.70352C0.861045 2.9957 0.874326 3.29619 0.874326 3.61162C0.874326 4.33213 0.874326 5.05264 0.874326 5.77148C0.874326 5.82627 0.874326 5.88105 0.874326 5.93584C0.874326 6.11514 1.02706 6.26787 1.20636 6.26787C1.33751 6.26787 1.467 6.26787 1.59815 6.26787C1.95177 6.26787 2.30538 6.26787 2.65733 6.26787C3.18194 6.26787 3.70655 6.26787 4.23116 6.26787C4.86866 6.26787 5.50616 6.26787 6.14366 6.26787C6.84425 6.26787 7.54483 6.26787 8.24542 6.26787C8.94933 6.26787 9.65489 6.26787 10.3588 6.26787C11.0179 6.26787 11.6786 6.26787 12.3377 6.26787C12.8922 6.26787 13.4483 6.26787 14.0028 6.26787C14.4029 6.26787 14.8047 6.26787 15.2048 6.26787C15.3941 6.26787 15.5833 6.27119 15.7726 6.26787C15.7809 6.26787 15.7892 6.26787 15.7975 6.26787C15.9768 6.26787 16.1295 6.11514 16.1295 5.93584C16.1295 5.14893 16.1295 4.36367 16.1295 3.57676C16.1295 3.46719 16.1295 3.35762 16.1295 3.24971C16.1295 3.07539 15.9768 2.90937 15.7975 2.91768C15.6182 2.92598 15.4654 3.06377 15.4654 3.24971Z" fill="black"/>
<path d="M15.4654 3.24971C15.4654 4.03662 15.4654 4.82187 15.4654 5.60879C15.4654 5.71836 15.4654 5.82793 15.4654 5.93584C15.5767 5.82461 15.6862 5.71504 15.7975 5.60381C15.6663 5.60381 15.5368 5.60381 15.4057 5.60381C15.0521 5.60381 14.6984 5.60381 14.3465 5.60381C13.8219 5.60381 13.2973 5.60381 12.7727 5.60381C12.1352 5.60381 11.4977 5.60381 10.8602 5.60381C10.1596 5.60381 9.45899 5.60381 8.75841 5.60381C8.0545 5.60381 7.34894 5.60381 6.64503 5.60381C5.98595 5.60381 5.3252 5.60381 4.66612 5.60381C4.11163 5.60381 3.55548 5.60381 3.00099 5.60381C2.60089 5.60381 2.19913 5.60381 1.79903 5.60381C1.60978 5.60381 1.42052 5.59883 1.23126 5.60381C1.22296 5.60381 1.21466 5.60381 1.20636 5.60381C1.31759 5.71504 1.42716 5.82461 1.53839 5.93584C1.53839 5.3415 1.53839 4.74717 1.53839 4.15283C1.53839 3.87061 1.53839 3.58672 1.53839 3.30449C1.53839 3.28623 1.53839 3.26797 1.53839 3.25137C1.53839 3.23145 1.53839 3.21318 1.54005 3.19326C1.54503 3.12354 1.53341 3.1999 1.53673 3.20156C1.53507 3.1999 1.54669 3.15508 1.54503 3.15674C1.55167 3.12852 1.55997 3.09863 1.56827 3.07041C1.57491 3.05049 1.60479 3.01729 1.57491 3.04883C1.56329 3.07539 1.56495 3.07539 1.57657 3.04883C1.58155 3.03887 1.58653 3.02891 1.59151 3.01895C1.60646 2.99072 1.62472 2.9625 1.64298 2.93594C1.67784 2.88281 1.63136 2.95254 1.63136 2.95088C1.6297 2.94756 1.6629 2.91436 1.66788 2.91104C1.6712 2.90771 1.73263 2.84131 1.73927 2.84463C1.74093 2.84629 1.6712 2.89277 1.72433 2.85625C1.74259 2.84463 1.76085 2.83135 1.77911 2.82139C1.79239 2.81475 1.80401 2.80645 1.81729 2.7998C1.83058 2.79316 1.87208 2.75664 1.83722 2.78818C1.80567 2.81641 1.83888 2.78818 1.8588 2.78154C1.87208 2.77656 1.88702 2.77158 1.90196 2.76826C1.9169 2.76494 1.93019 2.75996 1.94513 2.75664C1.95343 2.75498 2.02149 2.7334 1.96837 2.75166C1.92188 2.7666 1.96505 2.75332 1.98165 2.75166C2.00157 2.75 2.01983 2.75 2.03976 2.75C2.23233 2.74834 2.42491 2.75 2.61583 2.75C3.1172 2.75 3.61856 2.75 4.11827 2.75C4.82384 2.75 5.52774 2.75 6.23331 2.75C7.03683 2.75 7.84034 2.75 8.64386 2.75C9.44405 2.75 10.2442 2.75 11.0444 2.75C11.7301 2.75 12.4174 2.75 13.103 2.75C13.5745 2.75 14.0443 2.75 14.5158 2.75C14.637 2.75 14.7566 2.75 14.8777 2.75C14.9043 2.75 14.9292 2.75 14.9558 2.75C14.9591 2.75 14.9624 2.75 14.9674 2.75C14.9906 2.75 15.0139 2.75166 15.0371 2.75332C15.0703 2.75498 15.0653 2.77158 15.0172 2.75C15.0288 2.75498 15.0487 2.75498 15.062 2.7583C15.0985 2.7666 15.1334 2.77822 15.1683 2.78984C15.2181 2.80645 15.1483 2.7832 15.15 2.78154C15.1517 2.77988 15.2048 2.80977 15.2081 2.81143C15.2363 2.82803 15.2629 2.84795 15.2911 2.86455C15.3276 2.88447 15.2496 2.81973 15.2745 2.85293C15.2845 2.86621 15.3027 2.87783 15.3144 2.88945C15.3227 2.89775 15.3775 2.94756 15.3725 2.95254C15.3741 2.95088 15.331 2.88945 15.3658 2.9459C15.3758 2.96084 15.3858 2.97578 15.3957 2.99238C15.4007 3.00234 15.4422 3.06377 15.4372 3.07041C15.4405 3.06709 15.4107 2.99736 15.4322 3.06211C15.4372 3.07539 15.4422 3.09033 15.4455 3.10361C15.4538 3.1335 15.4555 3.17334 15.4688 3.20156C15.4455 3.15176 15.4638 3.14844 15.4654 3.18164C15.4638 3.20322 15.4654 3.22646 15.4654 3.24971ZM15.4654 3.24971C15.4671 3.42402 15.6165 3.59004 15.7975 3.58174C15.9751 3.57344 16.1328 3.43564 16.1295 3.24971C16.1212 2.60889 15.6032 2.09092 14.9624 2.08594C14.8977 2.08594 14.8313 2.08594 14.7665 2.08594C14.3764 2.08594 13.9879 2.08594 13.5978 2.08594C12.9503 2.08594 12.3012 2.08594 11.6537 2.08594C10.8651 2.08594 10.0766 2.08594 9.288 2.08594C8.45958 2.08594 7.63116 2.08594 6.80274 2.08594C6.05567 2.08594 5.30694 2.08594 4.55987 2.08594C3.99376 2.08594 3.42765 2.08594 2.86319 2.08594C2.59591 2.08594 2.33028 2.08594 2.063 2.08594C1.63136 2.0876 1.20968 2.31338 1.01046 2.70352C0.861045 2.9957 0.874326 3.29619 0.874326 3.61162C0.874326 4.33213 0.874326 5.05264 0.874326 5.77148C0.874326 5.82627 0.874326 5.88105 0.874326 5.93584C0.874326 6.11514 1.02706 6.26787 1.20636 6.26787C1.33751 6.26787 1.467 6.26787 1.59815 6.26787C1.95177 6.26787 2.30538 6.26787 2.65733 6.26787C3.18194 6.26787 3.70655 6.26787 4.23116 6.26787C4.86866 6.26787 5.50616 6.26787 6.14366 6.26787C6.84425 6.26787 7.54483 6.26787 8.24542 6.26787C8.94933 6.26787 9.65489 6.26787 10.3588 6.26787C11.0179 6.26787 11.6786 6.26787 12.3377 6.26787C12.8922 6.26787 13.4483 6.26787 14.0028 6.26787C14.4029 6.26787 14.8047 6.26787 15.2048 6.26787C15.3941 6.26787 15.5833 6.27119 15.7726 6.26787C15.7809 6.26787 15.7892 6.26787 15.7975 6.26787C15.9768 6.26787 16.1295 6.11514 16.1295 5.93584C16.1295 5.14893 16.1295 4.36367 16.1295 3.57676C16.1295 3.46719 16.1295 3.35762 16.1295 3.24971C16.1295 3.07539 15.9768 2.90937 15.7975 2.91768C15.6182 2.92598 15.4654 3.06377 15.4654 3.24971Z" stroke="black" stroke-width="0.2"/>
</g>
</g>
</g>
<g id="XMLID_813_">
<g id="XMLID_18_">
<path id="XMLID_22_" d="M5.06787 3.5046C5.06787 2.83887 5.06787 2.17315 5.06787 1.50577C5.06787 1.4128 5.06787 1.31983 5.06787 1.22686C5.06787 1.05254 4.91514 0.886529 4.73584 0.89483C4.55654 0.903131 4.40381 1.04092 4.40381 1.22686C4.40381 1.89258 4.40381 2.55831 4.40381 3.22569C4.40381 3.31866 4.40381 3.41163 4.40381 3.5046C4.40381 3.67891 4.55654 3.84493 4.73584 3.83663C4.9168 3.82833 5.06787 3.69053 5.06787 3.5046Z" fill="black" stroke="black" stroke-width="0.2"/>
</g>
</g>
<g id="XMLID_802_">
<g id="XMLID_12_">
<path id="XMLID_16_" d="M11.9343 1.22686C11.9343 1.89258 11.9343 2.55831 11.9343 3.22569C11.9343 3.31866 11.9343 3.41163 11.9343 3.5046C11.9343 3.67891 12.0871 3.84493 12.2664 3.83663C12.4457 3.82833 12.5984 3.69053 12.5984 3.5046C12.5984 2.83887 12.5984 2.17315 12.5984 1.50577C12.5984 1.4128 12.5984 1.31983 12.5984 1.22686C12.5984 1.05254 12.4457 0.886529 12.2664 0.89483C12.0854 0.901471 11.9343 1.03926 11.9343 1.22686Z" fill="black" stroke="black" stroke-width="0.2"/>
</g>
</g>
</g>
</svg>
