<svg width="18" height="17" viewBox="0 0 18 17" fill="none" xmlns="http://www.w3.org/2000/svg">
<path d="M1.45117 7.21875L16.9012 7.21875" stroke="#A3A5AA" stroke-miterlimit="10" stroke-linecap="round" stroke-linejoin="round"/>
<path d="M4.81952 3.05859H2.58613C2.16839 3.08242 1.77715 3.27093 1.49819 3.58279C1.21924 3.89465 1.07533 4.3044 1.09803 4.7222V14.7038C1.07533 15.1216 1.21924 15.5314 1.49819 15.8432C1.77715 16.1551 2.16839 16.3436 2.58613 16.3674H15.4142C15.8319 16.3436 16.2232 16.1551 16.5021 15.8432C16.7811 15.5314 16.925 15.1216 16.9023 14.7038V4.7222C16.925 4.3044 16.7811 3.89465 16.5021 3.58279C16.2232 3.27093 15.8319 3.08242 15.4142 3.05859H14.4069" stroke="#A3A5AA" stroke-miterlimit="10" stroke-linecap="round" stroke-linejoin="round"/>
<path d="M12.7422 1.39453V4.72174" stroke="#A3A5AA" stroke-miterlimit="10" stroke-linecap="round" stroke-linejoin="round"/>
<path d="M5.25781 1.39453V4.72174" stroke="#A3A5AA" stroke-miterlimit="10" stroke-linecap="round" stroke-linejoin="round"/>
<path d="M5.01562 3.04319L14.6142 3.0625" stroke="#A3A5AA" stroke-miterlimit="10" stroke-linecap="round" stroke-linejoin="round"/>
</svg>
