<svg width="102" height="91" viewBox="0 0 102 91" fill="none" xmlns="http://www.w3.org/2000/svg">
<g clip-path="url(#clip0_20954_95462)">
<path d="M-158.918 134.175L147.419 -151.923" stroke="#EFEFF1" stroke-width="0.66"/>
<path d="M-58.8047 245.069L247.532 -41.0287" stroke="#EFEFF1" stroke-width="0.7392"/>
<path d="M-108.863 189.624L197.474 -96.474" stroke="#EFEFF1" stroke-width="0.8976"/>
<path d="M-8.75 300.519L297.587 14.4205" stroke="#EFEFF1" stroke-width="0.5808"/>
<path d="M49.6484 365.206L355.985 79.108" stroke="#EFEFF1" stroke-width="0.396"/>
<path d="M-133.891 161.897L172.446 -124.201" stroke="#EFEFF1" stroke-width="0.9768"/>
<path d="M-33.7773 272.792L272.56 -13.306" stroke="#EFEFF1" stroke-width="0.66"/>
<path d="M-83.8359 217.347L222.501 -68.7513" stroke="#EFEFF1" stroke-width="0.8184"/>
<path d="M16.2773 328.241L169.446 185.192L322.614 42.1432" stroke="#EFEFF1" stroke-width="0.5016"/>
<path d="M-150.574 143.417L155.763 -142.681" stroke="#EFEFF1" stroke-width="1.0296"/>
<path d="M-50.4648 254.312L255.872 -31.7865" stroke="#EFEFF1" stroke-width="0.7128"/>
<path d="M-100.52 198.862L205.817 -87.2357" stroke="#EFEFF1" stroke-width="0.8712"/>
<path d="M-0.40625 309.757L305.931 23.6588" stroke="#EFEFF1" stroke-width="0.5544"/>
<path d="M57.9922 374.444L364.329 88.3463" stroke="#EFEFF1" stroke-width="0.3696"/>
<path d="M-125.547 171.14L180.79 -114.958" stroke="#EFEFF1" stroke-width="0.9504"/>
<path d="M-25.4375 282.034L280.899 -4.06384" stroke="#EFEFF1" stroke-width="0.6336"/>
<path d="M-75.4922 226.589L230.845 -59.5092" stroke="#EFEFF1" stroke-width="0.792"/>
<path d="M24.6211 337.483L330.958 51.3854" stroke="#EFEFF1" stroke-width="0.4752"/>
<path d="M-142.234 152.659L164.102 -133.439" stroke="#EFEFF1" stroke-width="1.0032"/>
<path d="M-42.1211 263.554L264.216 -22.5443" stroke="#EFEFF1" stroke-width="0.6864"/>
<path d="M-92.1758 208.104L214.161 -77.9935" stroke="#EFEFF1" stroke-width="0.8448"/>
<path d="M7.9375 318.999L314.274 32.901" stroke="#EFEFF1" stroke-width="0.528"/>
<path d="M-117.203 180.382L189.134 -105.716" stroke="#EFEFF1" stroke-width="0.924"/>
<path d="M-17.0938 291.276L289.243 5.17834" stroke="#EFEFF1" stroke-width="0.6072"/>
<path d="M41.3047 355.964L347.642 69.8658" stroke="#EFEFF1" stroke-width="0.4224"/>
<path d="M-67.1484 235.827L239.188 -50.2709" stroke="#EFEFF1" stroke-width="0.7656"/>
<path d="M32.9648 346.722L339.302 60.6237" stroke="#EFEFF1" stroke-width="0.4488"/>
</g>
<defs>
<clipPath id="clip0_20954_95462">
<rect width="102" height="90.998" fill="white" transform="translate(0 -0.000976562)"/>
</clipPath>
</defs>
</svg>
