<svg width="28" height="28" viewBox="0 0 28 28" fill="none" xmlns="http://www.w3.org/2000/svg">
<rect x="0.0964355" y="5.43652" width="21.9349" height="21.9349" rx="4" fill="#2947F2"/>
<path d="M18.0834 17.9633L12.3678 17.3867C12.3607 17.3858 12.3535 17.3865 12.3467 17.3886C12.3399 17.3907 12.3336 17.3942 12.3282 17.399C12.3229 17.4037 12.3186 17.4096 12.3157 17.4161C12.3128 17.4226 12.3114 17.4297 12.3114 17.4369C12.2939 18.4416 12.1119 19.4366 11.7725 20.3824L11.6847 20.6268C11.655 20.7067 11.6524 20.7942 11.6773 20.8757C11.7022 20.9573 11.7533 21.0284 11.8226 21.078L13.3956 22.2061C13.4514 22.2583 13.4893 22.3267 13.504 22.4016C13.5187 22.4765 13.5094 22.5541 13.4775 22.6234C13.4456 22.6928 13.3927 22.7503 13.3262 22.7879C13.2598 22.8255 13.1832 22.8412 13.1073 22.8328L11.0768 22.4944L9.04626 22.8704C8.97039 22.8788 8.8938 22.8631 8.82736 22.8255C8.76092 22.7879 8.708 22.7304 8.6761 22.661C8.6442 22.5917 8.63494 22.5141 8.64964 22.4392C8.66433 22.3643 8.70224 22.2959 8.75797 22.2437L10.331 21.1156C10.4003 21.066 10.4514 20.9949 10.4763 20.9134C10.5012 20.8318 10.4986 20.7443 10.4689 20.6644L10.3812 20.42C10.0417 19.4742 9.85966 18.4792 9.84218 17.4745C9.84224 17.4673 9.84077 17.4602 9.83787 17.4537C9.83496 17.4472 9.8307 17.4413 9.82536 17.4366C9.82002 17.4318 9.81372 17.4283 9.8069 17.4262C9.80007 17.4241 9.79287 17.4234 9.78578 17.4243L4.07018 17.9946C3.98641 18.0039 3.90207 17.9832 3.83208 17.9362C3.76209 17.8893 3.71094 17.8191 3.68769 17.7381C3.66444 17.6571 3.67058 17.5705 3.70502 17.4936C3.73946 17.4166 3.79999 17.3544 3.8759 17.3178L9.82338 14.3033V11.6711C9.82283 11.0079 10.005 10.3574 10.3498 9.79099C10.4226 9.66893 10.5259 9.56788 10.6495 9.4977C10.7731 9.42752 10.9127 9.39062 11.0549 9.39062C11.197 9.39062 11.3367 9.42752 11.4603 9.4977C11.5838 9.56788 11.6871 9.66893 11.7599 9.79099C12.1048 10.3574 12.2869 11.0079 12.2864 11.6711V14.3033L18.2526 17.2864C18.3286 17.323 18.3891 17.3853 18.4235 17.4622C18.458 17.5391 18.4641 17.6258 18.4408 17.7068C18.4176 17.7878 18.3664 17.858 18.2965 17.9049C18.2265 17.9518 18.1421 17.9725 18.0584 17.9633H18.0834Z" fill="white"/>
<circle cx="21.071" cy="7.37695" r="6.24707" fill="#FF6805" stroke="white"/>
<path d="M21.6176 10.1778V10.4823C21.6176 10.6337 21.5575 10.7789 21.4504 10.886C21.3433 10.9931 21.1981 11.0532 21.0467 11.0532C20.8953 11.0532 20.7501 10.9931 20.643 10.886C20.536 10.7789 20.4758 10.6337 20.4758 10.4823V10.174C20.0829 10.1221 19.6988 10.0171 19.3341 9.86195C19.1889 9.80579 19.0677 9.70111 18.9911 9.56571C18.9144 9.43032 18.8869 9.27254 18.9134 9.1192C18.9398 8.96586 19.0186 8.8264 19.1362 8.72452C19.2538 8.62265 19.4031 8.56463 19.5586 8.56033C20.037 8.72558 20.5345 8.82917 21.0391 8.86861C21.8574 8.86861 21.8574 8.58317 21.8574 8.46138C21.8574 8.25586 21.2903 8.16833 20.963 8.08079C20.1599 7.87908 18.9459 7.56319 18.9459 6.31866C18.9559 5.89881 19.1143 5.49609 19.393 5.18189C19.6717 4.8677 20.0526 4.66233 20.4682 4.60219V4.27108C20.4682 4.11967 20.5284 3.97447 20.6354 3.8674C20.7425 3.76034 20.8877 3.7002 21.0391 3.7002C21.1905 3.7002 21.3357 3.76034 21.4428 3.8674C21.5498 3.97447 21.61 4.11967 21.61 4.27108V4.56794C21.9491 4.59946 22.2828 4.67363 22.6033 4.78868C22.7492 4.84263 22.8718 4.94567 22.95 5.0801C23.0282 5.21454 23.0572 5.37201 23.032 5.52548C23.0068 5.67896 22.9289 5.81888 22.8118 5.92124C22.6947 6.02361 22.5457 6.08203 22.3902 6.0865C21.9951 5.96872 21.5877 5.8972 21.1761 5.87337C20.7955 5.87337 20.335 5.97993 20.335 6.27299C20.335 6.47089 20.609 6.56985 21.2675 6.72589C22.0515 6.91618 23.2389 7.19782 23.2389 8.49944C23.2503 9.3748 22.6033 10.0142 21.6176 10.1778Z" fill="white"/>
</svg>
