<svg width="34" height="33" viewBox="0 0 34 33" fill="none" xmlns="http://www.w3.org/2000/svg">
<rect x="0.796875" y="6.41406" width="26.037" height="26.037" rx="4" fill="#2947F2"/>
<path d="M22.1493 21.2814L15.3648 20.597C15.3564 20.5959 15.3479 20.5966 15.3398 20.5992C15.3317 20.6017 15.3242 20.6059 15.3179 20.6115C15.3115 20.6172 15.3065 20.6241 15.303 20.6318C15.2996 20.6396 15.2978 20.648 15.2979 20.6565C15.2771 21.8491 15.061 23.0302 14.6581 24.1529L14.554 24.443C14.5187 24.5379 14.5156 24.6417 14.5452 24.7385C14.5748 24.8353 14.6354 24.9197 14.7176 24.9786L16.5849 26.3177C16.651 26.3796 16.696 26.4607 16.7135 26.5497C16.7309 26.6386 16.7199 26.7307 16.682 26.813C16.6442 26.8954 16.5814 26.9637 16.5025 27.0083C16.4236 27.0529 16.3327 27.0715 16.2427 27.0616L13.8324 26.6599L11.4221 27.1062C11.332 27.1162 11.2411 27.0975 11.1622 27.0529C11.0834 27.0083 11.0206 26.94 10.9827 26.8577C10.9448 26.7754 10.9338 26.6832 10.9513 26.5943C10.9687 26.5054 11.0137 26.4242 11.0799 26.3623L12.9471 25.0233C13.0294 24.9643 13.09 24.8799 13.1195 24.7831C13.1491 24.6863 13.146 24.5825 13.1108 24.4876L13.0066 24.1975C12.6037 23.0748 12.3876 21.8937 12.3669 20.7011C12.3669 20.6926 12.3652 20.6842 12.3617 20.6765C12.3583 20.6687 12.3532 20.6618 12.3469 20.6562C12.3405 20.6505 12.3331 20.6463 12.325 20.6438C12.3169 20.6413 12.3083 20.6405 12.2999 20.6416L5.5154 21.3186C5.41596 21.3295 5.31585 21.305 5.23277 21.2492C5.14969 21.1935 5.08898 21.1102 5.06138 21.0141C5.03378 20.9179 5.04106 20.8151 5.08195 20.7238C5.12283 20.6325 5.19467 20.5586 5.28478 20.5151L12.3445 16.9369V13.8124C12.3439 13.0253 12.5601 12.2531 12.9694 11.5807C13.0559 11.4358 13.1784 11.3159 13.3251 11.2326C13.4718 11.1493 13.6376 11.1055 13.8063 11.1055C13.975 11.1055 14.1408 11.1493 14.2875 11.2326C14.4342 11.3159 14.5568 11.4358 14.6432 11.5807C15.0526 12.2531 15.2688 13.0253 15.2681 13.8124V16.9369L22.3502 20.4779C22.4403 20.5214 22.5122 20.5953 22.553 20.6866C22.5939 20.7779 22.6012 20.8807 22.5736 20.9769C22.546 21.073 22.4853 21.1563 22.4022 21.212C22.3191 21.2678 22.219 21.2923 22.1196 21.2814H22.1493Z" fill="white"/>
<circle cx="25.6947" cy="8.71615" r="7.41537" fill="#FF6805" stroke="white" stroke-width="1.5"/>
<path d="M26.3447 12.0406V12.402C26.3447 12.5818 26.2733 12.7541 26.1462 12.8812C26.0191 13.0083 25.8467 13.0797 25.667 13.0797C25.4873 13.0797 25.3149 13.0083 25.1878 12.8812C25.0607 12.7541 24.9893 12.5818 24.9893 12.402V12.0361C24.5229 11.9745 24.067 11.8498 23.634 11.6657C23.4618 11.599 23.3179 11.4747 23.2269 11.314C23.1359 11.1533 23.1033 10.966 23.1347 10.784C23.1661 10.602 23.2595 10.4364 23.3992 10.3155C23.5388 10.1946 23.716 10.1257 23.9006 10.1206C24.4685 10.3168 25.059 10.4397 25.658 10.4866C26.6293 10.4866 26.6293 10.1477 26.6293 10.0032C26.6293 9.75921 25.9561 9.6553 25.5676 9.5514C24.6144 9.31196 23.1732 8.93699 23.1732 7.45972C23.1852 6.96135 23.3732 6.48331 23.704 6.11036C24.0348 5.7374 24.4869 5.49363 24.9803 5.42225V5.02921C24.9803 4.84949 25.0517 4.67713 25.1788 4.55004C25.3059 4.42296 25.4782 4.35156 25.658 4.35156C25.8377 4.35156 26.0101 4.42296 26.1371 4.55004C26.2642 4.67713 26.3356 4.84949 26.3356 5.02921V5.38159C26.7381 5.41901 27.1343 5.50704 27.5147 5.64362C27.6879 5.70765 27.8334 5.82996 27.9262 5.98954C28.019 6.14912 28.0534 6.33603 28.0235 6.51821C27.9936 6.70039 27.9012 6.86648 27.7622 6.98798C27.6232 7.10949 27.4463 7.17884 27.2617 7.18414C26.7928 7.04434 26.3091 6.95944 25.8206 6.93115C25.3688 6.93115 24.8222 7.05765 24.8222 7.40551C24.8222 7.64042 25.1475 7.75788 25.929 7.94311C26.8597 8.16899 28.2692 8.5033 28.2692 10.0483C28.2827 11.0874 27.5147 11.8464 26.3447 12.0406Z" fill="white"/>
</svg>
