<svg width="17" height="17" viewBox="0 0 17 17" fill="none" xmlns="http://www.w3.org/2000/svg">
<path d="M4.25 8.5V16.15C4.25 16.3754 4.16045 16.5916 4.00104 16.751C3.84163 16.9104 3.62543 17 3.4 17H0.85C0.624566 17 0.408365 16.9104 0.248959 16.751C0.0895533 16.5916 0 16.3754 0 16.15V8.5C0 8.27457 0.0895533 8.05837 0.248959 7.89896C0.408365 7.73955 0.624566 7.65 0.85 7.65H3.4C3.62543 7.65 3.84163 7.73955 4.00104 7.89896C4.16045 8.05837 4.25 8.27457 4.25 8.5ZM16.15 3.4H13.6C13.3746 3.4 13.1584 3.48955 12.999 3.64896C12.8396 3.80837 12.75 4.02457 12.75 4.25V16.15C12.75 16.3754 12.8396 16.5916 12.999 16.751C13.1584 16.9104 13.3746 17 13.6 17H16.15C16.3754 17 16.5916 16.9104 16.751 16.751C16.9104 16.5916 17 16.3754 17 16.15V4.25C17 4.02457 16.9104 3.80837 16.751 3.64896C16.5916 3.48955 16.3754 3.4 16.15 3.4ZM9.775 0H7.225C6.99957 0 6.78337 0.0895533 6.62396 0.248959C6.46455 0.408365 6.375 0.624566 6.375 0.85V16.15C6.375 16.3754 6.46455 16.5916 6.62396 16.751C6.78337 16.9104 6.99957 17 7.225 17H9.775C10.0004 17 10.2166 16.9104 10.376 16.751C10.5354 16.5916 10.625 16.3754 10.625 16.15V0.85C10.625 0.624566 10.5354 0.408365 10.376 0.248959C10.2166 0.0895533 10.0004 0 9.775 0Z" fill="#2947F2"/>
</svg>
