<svg width="17" height="17" viewBox="0 0 17 17" fill="none" xmlns="http://www.w3.org/2000/svg">
<g id="chat-unread_svgrepo.com">
<path id="Vector" d="M15.1038 3.68652C15.1038 4.79109 14.2084 5.68652 13.1038 5.68652C11.9992 5.68652 11.1038 4.79109 11.1038 3.68652C11.1038 2.58196 11.9992 1.68652 13.1038 1.68652C14.2084 1.68652 15.1038 2.58196 15.1038 3.68652Z" fill="#B22234"/>
<path id="Vector_2" d="M10.861 1.69383C10.4443 1.68652 9.97366 1.68652 9.43693 1.68652H7.43693C5.25464 1.68652 4.1635 1.68652 3.36194 2.17772C2.91342 2.45258 2.53632 2.82968 2.26146 3.2782C1.77026 4.07976 1.77026 5.1709 1.77026 7.35319V8.01986C1.77026 9.57299 1.77026 10.3496 2.024 10.9621C2.36231 11.7789 3.01122 12.4278 3.82798 12.7661C4.26819 12.9485 4.79308 12.9997 5.62998 13.0142C6.19688 13.0239 6.48032 13.0288 6.70546 13.1597C6.93059 13.2907 7.07075 13.5275 7.35106 14.0011L7.71246 14.6117C8.0346 15.1559 8.83926 15.1559 9.1614 14.6117L9.5228 14.0011C9.80306 13.5275 9.94326 13.2907 10.1684 13.1597C10.3935 13.0288 10.6769 13.0239 11.2439 13.0142C12.0808 12.9997 12.6057 12.9485 13.0459 12.7661C13.8627 12.4278 14.5115 11.7789 14.8499 10.9621C15.1036 10.3496 15.1036 9.57299 15.1036 8.01986V7.35319C15.1036 6.81648 15.1036 6.34578 15.0963 5.92915C14.5664 6.40031 13.8685 6.68652 13.1036 6.68652C11.4467 6.68652 10.1036 5.34338 10.1036 3.68652C10.1036 2.92169 10.3898 2.2237 10.861 1.69383Z" fill="#003EFF"/>
</g>
</svg>
