<svg width="43" height="45" viewBox="0 0 43 45" fill="none" xmlns="http://www.w3.org/2000/svg">
<g id="check-circle_svgrepo.com">
<path id="Vector" d="M39.4166 22.4534C39.4166 32.5786 31.3949 40.7868 21.4999 40.7868C11.6048 40.7868 3.58325 32.5786 3.58325 22.4534C3.58325 12.3282 11.6048 4.12012 21.4999 4.12012C31.3949 4.12012 39.4166 12.3282 39.4166 22.4534Z" fill="white"/>
<path id="Vector_2" d="M28.721 16.8978C29.2458 17.4348 29.2458 18.3054 28.721 18.8423L19.7627 28.009C19.2379 28.546 18.3872 28.546 17.8624 28.009L14.2791 24.3423C13.7543 23.8053 13.7543 22.9349 14.2791 22.3979C14.8038 21.8609 15.6547 21.8609 16.1794 22.3979L18.8126 25.0922L22.8166 20.995L26.8208 16.8978C27.3456 16.3609 28.1963 16.3609 28.721 16.8978Z" fill="#1C274C"/>
</g>
</svg>
