<svg width="18" height="18" viewBox="0 0 18 18" fill="none" xmlns="http://www.w3.org/2000/svg">
<rect width="18" height="18" fill="#DADADA"/>
<g id="Main" clip-path="url(#clip0_6711_31165)">
<rect width="1920" height="1970" transform="translate(-396 -777)" fill="#EEF3FC"/>
<g id="Component 1" filter="url(#filter0_d_6711_31165)">
<rect x="-45" y="-173" width="468" height="219" rx="8" fill="white"/>
<rect id="Rectangle 7546" x="-45" y="-173" width="468" height="219" rx="10" fill="white" fill-opacity="0.7"/>
<g id="Frame 240955">
<rect x="-10" y="-5" width="87" height="28" rx="14" fill="#BBF7D0"/>
<g id="check-circle_svgrepo.com">
<path id="Vector" d="M16.5 9C16.5 13.1421 13.1421 16.5 9 16.5C4.85786 16.5 1.5 13.1421 1.5 9C1.5 4.85786 4.85786 1.5 9 1.5C13.1421 1.5 16.5 4.85786 16.5 9Z" fill="#16A34A"/>
<path id="Vector_2" d="M12.0227 6.72725C12.2424 6.94692 12.2424 7.30308 12.0227 7.52272L8.27272 11.2727C8.05305 11.4924 7.69695 11.4924 7.47725 11.2727L5.97725 9.77272C5.75758 9.55305 5.75758 9.19695 5.97725 8.97727C6.19692 8.7576 6.55308 8.7576 6.77275 8.97727L7.875 10.0795L9.5511 8.40337L11.2273 6.72725C11.4469 6.50758 11.803 6.50758 12.0227 6.72725Z" fill="white"/>
</g>
</g>
</g>
</g>
<defs>
<filter id="filter0_d_6711_31165" x="-65" y="-173" width="508" height="259" filterUnits="userSpaceOnUse" color-interpolation-filters="sRGB">
<feFlood flood-opacity="0" result="BackgroundImageFix"/>
<feColorMatrix in="SourceAlpha" type="matrix" values="0 0 0 0 0 0 0 0 0 0 0 0 0 0 0 0 0 0 127 0" result="hardAlpha"/>
<feMorphology radius="5" operator="erode" in="SourceAlpha" result="effect1_dropShadow_6711_31165"/>
<feOffset dy="20"/>
<feGaussianBlur stdDeviation="12.5"/>
<feColorMatrix type="matrix" values="0 0 0 0 0.117647 0 0 0 0 0.25098 0 0 0 0 0.686275 0 0 0 0.07 0"/>
<feBlend mode="normal" in2="BackgroundImageFix" result="effect1_dropShadow_6711_31165"/>
<feBlend mode="normal" in="SourceGraphic" in2="effect1_dropShadow_6711_31165" result="shape"/>
</filter>
<clipPath id="clip0_6711_31165">
<rect width="1920" height="1970" fill="white" transform="translate(-396 -777)"/>
</clipPath>
</defs>
</svg>
