<svg width="17" height="17" viewBox="0 0 17 17" fill="none" xmlns="http://www.w3.org/2000/svg">
<path d="M8.84829 11.722C8.84829 12.0902 8.54981 12.3887 8.18162 12.3887C7.81343 12.3887 7.51495 12.0902 7.51495 11.722C7.51495 11.3538 7.81343 11.0554 8.18162 11.0554C8.54981 11.0554 8.84829 11.3538 8.84829 11.722Z" fill="#0F1729"/>
<path d="M7.09833 6.80536C7.09833 6.28557 7.55009 5.80536 8.18166 5.80536C8.81323 5.80536 9.26499 6.28557 9.26499 6.80536C9.26499 7.16296 9.05856 7.49383 8.71903 7.67375C8.54461 7.76618 8.27987 7.9083 8.05174 8.13212C7.65512 8.52126 7.43166 9.05356 7.43166 9.6092V9.72202C7.43166 10.1362 7.76745 10.472 8.18166 10.472C8.59587 10.472 8.93166 10.1362 8.93166 9.72202V9.6092C8.93166 9.45634 8.99314 9.3099 9.10225 9.20284C9.15814 9.14801 9.24421 9.09304 9.42137 8.99916C10.2088 8.58193 10.765 7.7653 10.765 6.80536C10.765 5.39215 9.57513 4.30536 8.18166 4.30536C6.78819 4.30536 5.59833 5.39215 5.59833 6.80536C5.59833 7.21957 5.93411 7.55536 6.34833 7.55536C6.76254 7.55536 7.09833 7.21957 7.09833 6.80536Z" fill="#0F1729"/>
<path fill-rule="evenodd" clip-rule="evenodd" d="M1.43164 8.38867C1.43164 4.66075 4.45372 1.63867 8.18164 1.63867C11.9096 1.63867 14.9316 4.66075 14.9316 8.38867C14.9316 12.1166 11.9096 15.1387 8.18164 15.1387C4.45372 15.1387 1.43164 12.1166 1.43164 8.38867ZM8.18164 3.13867C5.28215 3.13867 2.93164 5.48918 2.93164 8.38867C2.93164 11.2882 5.28215 13.6387 8.18164 13.6387C11.0811 13.6387 13.4316 11.2882 13.4316 8.38867C13.4316 5.48918 11.0811 3.13867 8.18164 3.13867Z" fill="#0F1729"/>
</svg>
