<svg width="18" height="18" viewBox="0 0 18 18" fill="none" xmlns="http://www.w3.org/2000/svg">
<path d="M8.99668 0.646484C4.38066 0.646484 0.640625 4.38906 0.640625 9.00254C0.640625 13.616 4.3832 17.3586 8.99668 17.3586C13.6127 17.3586 17.3527 13.616 17.3527 9.00254C17.3527 4.38906 13.6102 0.646484 8.99668 0.646484ZM8.99668 15.5051C5.41152 15.5051 2.49668 12.5902 2.49668 9.00508C2.49668 5.41992 5.41152 2.50508 8.99668 2.50508C12.5818 2.50508 15.4967 5.41992 15.4967 9.00508C15.4967 12.5902 12.5793 15.5051 8.99668 15.5051Z" fill="#374151"/>
<path d="M9.92891 5.28534H8.07031V9.38339L11.1299 12.443L12.4426 11.1303L9.92891 8.61659V5.28534Z" fill="#374151"/>
</svg>
