<svg width="36" height="36" viewBox="0 0 36 36" fill="none" xmlns="http://www.w3.org/2000/svg">
<rect x="36" width="36" height="36" rx="18" transform="rotate(90 36 0)" fill="#D1D5DB"/>
<path fill-rule="evenodd" clip-rule="evenodd" d="M17.9991 16.8872L22.5347 12.2571C22.8709 11.9144 23.413 11.9144 23.7491 12.2571C23.9097 12.4204 24 12.6432 24 12.8755C24 13.1078 23.9097 13.3305 23.7491 13.4938L18.6072 18.7422C18.2714 19.086 17.7286 19.086 17.3928 18.7422L12.2509 13.494C12.0903 13.3305 12 13.1078 12 12.8755C12 12.6432 12.0903 12.4204 12.2509 12.2569C12.5871 11.9144 13.1292 11.9144 13.4653 12.2573L17.9991 16.8872Z" fill="white"/>
<path fill-rule="evenodd" clip-rule="evenodd" d="M18.0009 19.1128L13.4653 23.7429C13.1291 24.0856 12.587 24.0856 12.2509 23.7429C12.0903 23.5796 12 23.3568 12 23.1245C12 22.8922 12.0903 22.6695 12.2509 22.5062L17.3928 17.2578C17.7286 16.914 18.2714 16.914 18.6072 17.2578L23.7491 22.506C23.9097 22.6695 24 22.8922 24 23.1245C24 23.3568 23.9097 23.5796 23.7491 23.7431C23.4129 24.0856 22.8708 24.0856 22.5347 23.7427L18.0009 19.1128Z" fill="white"/>
</svg>
