<svg width="13" height="14" viewBox="0 0 13 14" fill="none" xmlns="http://www.w3.org/2000/svg">
<g id="Group 240483">
<path id="arrow" fill-rule="evenodd" clip-rule="evenodd" d="M6.49902 5.58539L11.4126 0.293865C11.7768 -0.0977864 12.3641 -0.0977863 12.7282 0.293865C12.9022 0.480485 13 0.735034 13 1.00053C13 1.26603 12.9022 1.52058 12.7282 1.7072L7.15779 7.70539C6.79405 8.09828 6.20595 8.09828 5.84221 7.70539L0.271799 1.70744C0.097845 1.52057 -2.21359e-07 1.26603 -1.74938e-07 1.00053C-1.28517e-07 0.735031 0.0978452 0.480483 0.271799 0.293614C0.635994 -0.0977884 1.2233 -0.0977883 1.58738 0.294112L6.49902 5.58539Z" fill="#6B7280"/>
<path id="arrow_2" fill-rule="evenodd" clip-rule="evenodd" d="M6.50098 8.41461L1.58738 13.7061C1.22324 14.0978 0.635936 14.0978 0.271798 13.7061C0.0978442 13.5195 6.42585e-08 13.265 8.7469e-08 12.9995C1.10679e-07 12.734 0.0978443 12.4794 0.271798 12.2928L5.84221 6.29461C6.20595 5.90172 6.79405 5.90172 7.15779 6.29461L12.7282 12.2926C12.9022 12.4794 13 12.734 13 12.9995C13 13.265 12.9022 13.5195 12.7282 13.7064C12.364 14.0978 11.7767 14.0978 11.4126 13.7059L6.50098 8.41461Z" fill="#6B7280"/>
</g>
</svg>
