<svg xmlns="http://www.w3.org/2000/svg" width="7" height="7" viewBox="0 0 7 7" fill="none">
<path d="M4.3343 3.56946L6.19083 1.71292C6.19083 1.71292 6.19083 1.71292 6.19083 1.71292C6.39733 1.50643 6.39733 1.17165 6.19084 0.965158C6.19084 0.965157 6.19083 0.965155 6.19083 0.965154M4.3343 3.56946L5.61985 1.14193C5.7287 1.03307 5.9052 1.03307 6.01406 1.14193L6.19083 0.965154M4.3343 3.56946L6.19083 5.42597L6.19084 5.42599C6.39732 5.63249 6.39732 5.96724 6.19084 6.17375L6.19082 6.17377C5.98434 6.38024 5.64956 6.38024 5.44307 6.17377L5.44306 6.17376L3.58654 4.31722L1.73 6.17376C1.52352 6.38025 1.18872 6.38025 0.982237 6.17376L0.982214 6.17374C0.775774 5.96725 0.775742 5.63249 0.982237 5.426L2.83878 3.56946L0.982237 1.71292L0.982233 1.71292C0.775755 1.50643 0.775755 1.17165 0.982231 0.965163C1.18871 0.758665 1.52351 0.758662 1.73 0.965156C1.73 0.965158 1.73 0.96516 1.73001 0.965163L3.58654 2.82169L5.44307 0.965158M4.3343 3.56946L5.44307 0.965158M6.19083 0.965154C5.98434 0.758664 5.64956 0.758665 5.44307 0.965157M6.19083 0.965154L5.44307 0.965157M5.44307 0.965158C5.44307 0.965158 5.44307 0.965157 5.44307 0.965157M5.44307 0.965158L5.44307 0.965157" fill="#475467" stroke="#475467" stroke-width="0.5"/>
</svg>