<svg width="26" height="26" viewBox="0 0 26 26" fill="none" xmlns="http://www.w3.org/2000/svg">
<path d="M10.8663 9.71698C10.549 9.39968 10.0345 9.39968 9.71722 9.71698C9.39992 10.0343 9.39992 10.5487 9.71722 10.866L11.851 12.9999L9.71724 15.1337C9.39995 15.4509 9.39995 15.9654 9.71724 16.2827C10.0345 16.6 10.549 16.6 10.8663 16.2827L13.0001 14.1489L15.1338 16.2827C15.4512 16.6 15.9656 16.6 16.2829 16.2827C16.6002 15.9654 16.6002 15.4509 16.2829 15.1336L14.1491 12.9999L16.2829 10.866C16.6002 10.5487 16.6002 10.0343 16.2829 9.71701C15.9656 9.3997 15.4512 9.3997 15.1338 9.71701L13.0001 11.8508L10.8663 9.71698Z" fill="#BCC3D7"/>
<path fill-rule="evenodd" clip-rule="evenodd" d="M13.0001 1.354C6.56827 1.354 1.35425 6.56802 1.35425 12.9998C1.35425 19.4317 6.56827 24.6457 13.0001 24.6457C19.4319 24.6457 24.6459 19.4317 24.6459 12.9998C24.6459 6.56802 19.4319 1.354 13.0001 1.354ZM2.97925 12.9998C2.97925 7.46549 7.46573 2.979 13.0001 2.979C18.5344 2.979 23.0209 7.46549 23.0209 12.9998C23.0209 18.5342 18.5344 23.0207 13.0001 23.0207C7.46573 23.0207 2.97925 18.5342 2.97925 12.9998Z" fill="#BCC3D7"/>
</svg>
