<svg width="15" height="13" viewBox="0 0 15 13" fill="none" xmlns="http://www.w3.org/2000/svg">
<path d="M7.54848 6.56949V11.6157M7.54848 11.6157L5.9265 9.93362M7.54848 11.6157L9.17046 9.93362M3.65572 10.7746C2.22245 10.7746 1.06055 9.59121 1.06055 8.13142C1.06055 6.92849 1.84947 5.91327 2.92906 5.5932C2.97493 5.57957 3.00693 5.53682 3.00693 5.48816C3.00693 3.29844 4.74977 1.52332 6.89969 1.52332C9.04957 1.52332 10.7924 3.29844 10.7924 5.48816C10.7924 5.53012 10.8311 5.56126 10.8713 5.55211C11.0547 5.51022 11.2454 5.48816 11.4412 5.48816C12.8745 5.48816 14.0364 6.67156 14.0364 8.13142C14.0364 9.59121 12.8745 10.7746 11.4412 10.7746" stroke="#464455" stroke-width="1.5" stroke-linecap="round" stroke-linejoin="round"/>
</svg>
