<svg width="20" height="20" viewBox="0 0 20 20" fill="none" xmlns="http://www.w3.org/2000/svg">
<path d="M13 10C13 10.5933 12.8241 11.1734 12.4944 11.6667C12.1648 12.1601 11.6962 12.5446 11.1481 12.7716C10.5999 12.9987 9.99667 13.0581 9.41473 12.9424C8.83279 12.8266 8.29824 12.5409 7.87868 12.1213C7.45912 11.7018 7.1734 11.1672 7.05764 10.5853C6.94189 10.0033 7.0013 9.40013 7.22836 8.85195C7.45542 8.30377 7.83994 7.83524 8.33329 7.50559C8.82664 7.17595 9.40666 7 10 7C10.7956 7 11.5587 7.31607 12.1213 7.87868C12.6839 8.44129 13 9.20435 13 10ZM18 8H17.41C17.2033 7.99918 17.0019 7.93431 16.8336 7.81433C16.6652 7.69434 16.5382 7.52514 16.47 7.33C16.381 7.1427 16.3525 6.93237 16.3883 6.72812C16.4241 6.52388 16.5226 6.33583 16.67 6.19L17.08 5.78C17.1737 5.68704 17.2481 5.57644 17.2989 5.45458C17.3497 5.33272 17.3758 5.20201 17.3758 5.07C17.3758 4.93799 17.3497 4.80728 17.2989 4.68542C17.2481 4.56356 17.1737 4.45296 17.08 4.36L15.66 2.93C15.567 2.83627 15.4564 2.76188 15.3346 2.71111C15.2127 2.66034 15.082 2.6342 14.95 2.6342C14.818 2.6342 14.6873 2.66034 14.5654 2.71111C14.4436 2.76188 14.333 2.83627 14.24 2.93L13.83 3.34C13.6842 3.48742 13.4961 3.58586 13.2919 3.62169C13.0876 3.65752 12.8773 3.62897 12.69 3.54C12.4895 3.47463 12.3148 3.34755 12.1909 3.17693C12.067 3.00631 12.0002 2.80088 12 2.59V2C12 1.73478 11.8946 1.48043 11.7071 1.29289C11.5196 1.10536 11.2652 1 11 1H9C8.73478 1 8.48043 1.10536 8.29289 1.29289C8.10536 1.48043 8 1.73478 8 2V2.59C7.99918 2.79672 7.93431 2.9981 7.81433 3.16643C7.69434 3.33477 7.52514 3.46178 7.33 3.53C7.1427 3.61897 6.93237 3.64752 6.72812 3.61169C6.52388 3.57586 6.33583 3.47742 6.19 3.33L5.78 2.92C5.68704 2.82627 5.57644 2.75188 5.45458 2.70111C5.33272 2.65034 5.20201 2.6242 5.07 2.6242C4.93799 2.6242 4.80728 2.65034 4.68542 2.70111C4.56356 2.75188 4.45296 2.82627 4.36 2.92L2.93 4.34C2.83627 4.43296 2.76188 4.54356 2.71111 4.66542C2.66034 4.78728 2.6342 4.91799 2.6342 5.05C2.6342 5.18201 2.66034 5.31272 2.71111 5.43458C2.76188 5.55644 2.83627 5.66704 2.93 5.76L3.34 6.17C3.48742 6.31583 3.58586 6.50388 3.62169 6.70813C3.65752 6.91237 3.62897 7.1227 3.54 7.31C3.47178 7.50514 3.34477 7.67434 3.17643 7.79433C3.0081 7.91431 2.80672 7.97918 2.6 7.98H2C1.73478 7.98 1.48043 8.08536 1.29289 8.27289C1.10536 8.46043 1 8.71478 1 8.98V10.98C1 11.2452 1.10536 11.4996 1.29289 11.6871C1.48043 11.8746 1.73478 11.98 2 11.98H2.59C2.79672 11.9808 2.9981 12.0457 3.16643 12.1657C3.33477 12.2857 3.46178 12.4549 3.53 12.65C3.61897 12.8373 3.64752 13.0476 3.61169 13.2519C3.57586 13.4561 3.47742 13.6442 3.33 13.79L2.92 14.2C2.82627 14.293 2.75188 14.4036 2.70111 14.5254C2.65034 14.6473 2.6242 14.778 2.6242 14.91C2.6242 15.042 2.65034 15.1727 2.70111 15.2946C2.75188 15.4164 2.82627 15.527 2.92 15.62L4.33 17.03C4.42296 17.1237 4.53356 17.1981 4.65542 17.2489C4.77728 17.2997 4.90799 17.3258 5.04 17.3258C5.17201 17.3258 5.30272 17.2997 5.42458 17.2489C5.54644 17.1981 5.65704 17.1237 5.75 17.03L6.16 16.62C6.30583 16.4726 6.49388 16.3741 6.69812 16.3383C6.90237 16.3025 7.1127 16.331 7.3 16.42C7.49514 16.4882 7.66434 16.6152 7.78433 16.7836C7.90431 16.9519 7.96918 17.1533 7.97 17.36V18C7.97 18.2652 8.07536 18.5196 8.26289 18.7071C8.45043 18.8946 8.70478 19 8.97 19H10.97C11.2352 19 11.4896 18.8946 11.6771 18.7071C11.8646 18.5196 11.97 18.2652 11.97 18V17.41C11.9708 17.2033 12.0357 17.0019 12.1557 16.8336C12.2757 16.6652 12.4449 16.5382 12.64 16.47C12.8273 16.381 13.0376 16.3525 13.2419 16.3883C13.4461 16.4241 13.6342 16.5226 13.78 16.67L14.19 17.08C14.283 17.1737 14.3936 17.2481 14.5154 17.2989C14.6373 17.3497 14.768 17.3758 14.9 17.3758C15.032 17.3758 15.1627 17.3497 15.2846 17.2989C15.4064 17.2481 15.517 17.1737 15.61 17.08L17.02 15.67C17.1137 15.577 17.1881 15.4664 17.2389 15.3446C17.2897 15.2227 17.3158 15.092 17.3158 14.96C17.3158 14.828 17.2897 14.6973 17.2389 14.5754C17.1881 14.4536 17.1137 14.343 17.02 14.25L16.61 13.84C16.4626 13.6942 16.3641 13.5061 16.3283 13.3019C16.2925 13.0976 16.321 12.8873 16.41 12.7C16.4782 12.5049 16.6052 12.3357 16.7736 12.2157C16.9419 12.0957 17.1433 12.0308 17.35 12.03H18C18.2652 12.03 18.5196 11.9246 18.7071 11.7371C18.8946 11.5496 19 11.2952 19 11.03V9C19 8.73478 18.8946 8.48043 18.7071 8.29289C18.5196 8.10536 18.2652 8 18 8Z" stroke="black" stroke-width="2" stroke-linecap="round" stroke-linejoin="round"/>
</svg>
