<svg
		id="Group_7278" data-name="Group 7278" xmlns="http://www.w3.org/2000/svg" width="52.174" height="45"
		viewBox="0 0 52.174 45"
>
  <defs>
    <clipPath id="clip-path">
      <rect id="Rectangle_3016" data-name="Rectangle 3016" width="52.174" height="45" fill="none"/>
    </clipPath>
  </defs>
  <g id="Mask_Group_7277" data-name="Mask Group 7277" clip-path="url(#clip-path)">
    <path id="Path_7032" data-name="Path 7032" d="M0,41.638H3.553v-.7q0-16.609,0-33.218c0-1.408.326-1.827,1.678-2.191,6.7-1.8,13.4-3.574,20.078-5.433a1.855,1.855,0,0,1,2.526,1.946c-.086,1.827-.021,3.662-.021,5.529H24.489V3.823c-.746.195-1.425.368-2.1.55Q14.874,6.393,7.359,8.409a.528.528,0,0,0-.471.618q.015,16.049.008,32.1v.486H24.462v-.629q0-13.985,0-27.971c0-1.44.6-2.045,2.04-2.046l20.277-.013a1.665,1.665,0,0,1,1.841,1.822q0,9.731,0,19.462c0,.149-.014.3-.023.478H45.288V14.332H27.851V41.6a1.883,1.883,0,0,0,.276.038q12.023,0,24.047-.006V45H0Z" transform="translate(0 0)" fill="#01031c"/>
    <rect id="Rectangle_3008" data-name="Rectangle 3008" width="7.907" height="3.282" transform="translate(11.726 18.655)" fill="#ff6805"/>
    <rect id="Rectangle_3009" data-name="Rectangle 3009" width="7.904" height="3.28" transform="translate(32.524 18.665)" fill="#ff6805"/>
    <rect id="Rectangle_3010" data-name="Rectangle 3010" width="7.883" height="3.281" transform="translate(11.744 26.287)" fill="#ff6805"/>
    <rect id="Rectangle_3011" data-name="Rectangle 3011" width="7.908" height="3.287" transform="translate(32.536 26.275)" fill="#ff6805"/>
    <rect id="Rectangle_3012" data-name="Rectangle 3012" width="7.899" height="3.251" transform="translate(11.726 11.07)" fill="#ff6805"/>
    <rect id="Rectangle_3013" data-name="Rectangle 3013" width="7.901" height="3.253" transform="translate(11.725 33.897)" fill="#ff6805"/>
    <rect id="Rectangle_3014" data-name="Rectangle 3014" width="7.891" height="3.278" transform="translate(32.546 33.877)" fill="#ff6805"/>
    <rect id="Rectangle_3015" data-name="Rectangle 3015" width="3.273" height="3.077" transform="translate(45.314 35.762)"/>
  </g>
</svg>
