<svg width="24" height="25" viewBox="0 0 24 25" fill="none" xmlns="http://www.w3.org/2000/svg">
<path d="M22 10.1016V13.1016C22 17.1016 20 19.1016 16 19.1016H15.5C15.19 19.1016 14.89 19.2516 14.7 19.5016L13.2 21.5016C12.54 22.3816 11.46 22.3816 10.8 21.5016L9.3 19.5016C9.14 19.2816 8.77 19.1016 8.5 19.1016H8C4 19.1016 2 18.1016 2 13.1016V8.10156C2 4.10156 4 2.10156 8 2.10156H14" stroke="#2947F2" stroke-width="1.5" stroke-miterlimit="10" stroke-linecap="round" stroke-linejoin="round"/>
<path d="M19.5 7.10156C20.163 7.10156 20.7989 6.83817 21.2678 6.36933C21.7366 5.90049 22 5.2646 22 4.60156C22 3.93852 21.7366 3.30264 21.2678 2.8338C20.7989 2.36495 20.163 2.10156 19.5 2.10156C18.837 2.10156 18.2011 2.36495 17.7322 2.8338C17.2634 3.30264 17 3.93852 17 4.60156C17 5.2646 17.2634 5.90049 17.7322 6.36933C18.2011 6.83817 18.837 7.10156 19.5 7.10156Z" fill="#F04853" stroke="#F04853" stroke-width="1.5" stroke-linecap="round" stroke-linejoin="round"/>
<path d="M15.9961 11.1016H16.0061M11.9951 11.1016H12.0051M7.99512 11.1016H8.00312" stroke="#2947F2" stroke-width="2" stroke-linecap="round" stroke-linejoin="round"/>
</svg>
