<svg width="22" height="22" viewBox="0 0 22 22" fill="none" xmlns="http://www.w3.org/2000/svg">
<path d="M21 9V12C21 16 19 18 15 18H14.5C14.19 18 13.89 18.15 13.7 18.4L12.2 20.4C11.54 21.28 10.46 21.28 9.8 20.4L8.3 18.4C8.14 18.18 7.77 18 7.5 18H7C3 18 1 17 1 12V7C1 3 3 1 7 1H13" stroke="#6F6F7B" stroke-width="1.5" stroke-miterlimit="10" stroke-linecap="round" stroke-linejoin="round"/>
<path d="M18.5 6C19.163 6 19.7989 5.73661 20.2678 5.26777C20.7366 4.79893 21 4.16304 21 3.5C21 2.83696 20.7366 2.20107 20.2678 1.73223C19.7989 1.26339 19.163 1 18.5 1C17.837 1 17.2011 1.26339 16.7322 1.73223C16.2634 2.20107 16 2.83696 16 3.5C16 4.16304 16.2634 4.79893 16.7322 5.26777C17.2011 5.73661 17.837 6 18.5 6Z" fill="#6F6F7B" stroke="#6F6F7B" stroke-width="1.5" stroke-linecap="round" stroke-linejoin="round"/>
<path d="M14.9961 10H15.0061M10.9951 10H11.0051M6.99512 10H7.00312" stroke="#6F6F7B" stroke-width="2" stroke-linecap="round" stroke-linejoin="round"/>
</svg>
