<svg width="19" height="19" viewBox="0 0 19 19" fill="none" xmlns="http://www.w3.org/2000/svg">
<path d="M13.4584 16.625V15.0417C13.4584 14.2018 13.1247 13.3964 12.5309 12.8025C11.937 12.2086 11.1315 11.875 10.2917 11.875H3.95835C3.1185 11.875 2.31305 12.2086 1.71918 12.8025C1.12532 13.3964 0.791687 14.2018 0.791687 15.0417V16.625" stroke="#1E40AF" stroke-width="0.791667" stroke-linecap="round" stroke-linejoin="round"/>
<path d="M7.12498 8.70833C8.87388 8.70833 10.2916 7.29057 10.2916 5.54167C10.2916 3.79276 8.87388 2.375 7.12498 2.375C5.37608 2.375 3.95831 3.79276 3.95831 5.54167C3.95831 7.29057 5.37608 8.70833 7.12498 8.70833Z" stroke="#1E40AF" stroke-width="0.791667" stroke-linecap="round" stroke-linejoin="round"/>
<path d="M18.2083 16.625V15.0417C18.2078 14.34 17.9743 13.6584 17.5444 13.1039C17.1145 12.5494 16.5127 12.1533 15.8333 11.9779" stroke="#1E40AF" stroke-width="0.791667" stroke-linecap="round" stroke-linejoin="round"/>
<path d="M12.6667 2.47792C13.3478 2.65233 13.9516 3.04848 14.3827 3.60392C14.8139 4.15936 15.0479 4.84249 15.0479 5.54563C15.0479 6.24876 14.8139 6.9319 14.3827 7.48734C13.9516 8.04278 13.3478 8.43893 12.6667 8.61334" stroke="#1E40AF" stroke-width="0.791667" stroke-linecap="round" stroke-linejoin="round"/>
</svg>
