<svg width="25" height="29" viewBox="0 0 25 29" fill="none" xmlns="http://www.w3.org/2000/svg">
<path d="M23.8356 18.7864C23.8356 18.278 22.8069 17.8594 21.5329 17.8594H17.4659V18.5651C17.4659 19.2529 16.9694 19.8211 16.3654 19.8211C15.7613 19.8211 15.2649 19.2529 15.2649 18.5651V17.8594H9.29582V18.5651C9.29582 19.2529 8.79939 19.8211 8.19531 19.8211C7.59123 19.8211 7.09481 19.2529 7.09481 18.5651V17.8594H3.02772C1.75377 17.8594 0.725053 18.278 0.725053 18.7864L0.126953 22.9671C0.126953 23.4815 1.15567 23.8942 2.42962 23.8942H22.1251C23.393 23.8942 24.4277 23.4755 24.4277 22.9671L23.8356 18.7864Z" fill="#FF6805"/>
<path d="M3.14667 27.5786H21.4246C22.1363 27.5786 22.7644 27.4231 23.1531 27.1839L23.2428 27.8777C23.2428 28.3861 22.3218 28.8047 21.1914 28.8047H3.38591C2.24952 28.8047 1.33443 28.3921 1.33443 27.8777L1.42414 27.1839C1.80692 27.4231 2.43493 27.5786 3.14667 27.5786Z" fill="#FF6805"/>
<path d="M2.67417 25.1264H21.8971C22.6627 25.1264 23.3385 24.9649 23.7392 24.7197L23.8349 25.4195C23.8349 25.9279 22.8601 26.3466 21.6579 26.3466H2.9134C1.71122 26.3466 0.736328 25.9339 0.736328 25.4195L0.832026 24.7197C1.23275 24.9649 1.9086 25.1264 2.67417 25.1264Z" fill="#FF6805"/>
<path d="M7.10609 16.0236H3.03902C1.76506 16.0236 0.736328 14.965 0.736328 13.6671V3.05085C0.736328 1.75297 1.76506 0.694336 3.03902 0.694336H21.5442C22.8182 0.694336 23.8469 1.75297 23.8469 3.05085V13.6671C23.8469 14.965 22.8122 16.0236 21.5442 16.0236H17.4771V15.2999C17.4771 14.6121 16.9807 14.0439 16.3766 14.0439C15.7726 14.0439 15.2761 14.6121 15.2761 15.2999V16.0236H9.30709V15.2999C9.30709 14.6121 8.81067 14.0439 8.20659 14.0439C7.60251 14.0439 7.10609 14.6121 7.10609 15.2999V16.0236Z" fill="#2947F2"/>
<path d="M10.7963 9.01403C10.5212 9.15758 9.90518 9.37888 9.43268 9.50448C8.9542 9.63008 8.57141 10.7126 8.56543 10.7844C8.56543 10.8502 8.61329 11.1313 8.66711 11.4004C8.72094 11.6696 9.16951 11.8909 9.66593 11.8909H14.8933C15.3838 11.8909 15.8383 11.6696 15.8922 11.4004C15.946 11.1313 15.9938 10.8562 15.9938 10.7844C15.9938 10.7126 15.8264 10.4076 15.623 10.1026C15.4196 9.79157 14.038 9.15159 13.745 9.00805C13.4579 8.8645 13.2186 8.709 13.2186 8.66116C13.2186 8.61331 13.3741 8.32621 13.5715 8.0152L13.6852 7.63839C13.721 7.51877 13.721 7.51878 13.721 7.51878C13.7569 7.38122 13.8048 7.27355 13.8287 7.28552H13.8526C14.0261 7.30346 14.0739 7.07021 14.1098 6.75322C14.1158 6.71733 14.1158 6.71733 14.1158 6.71733C14.1158 6.67546 14.1277 6.47809 14.1457 6.28071C14.1636 6.07736 13.8825 5.4972 13.745 5.0247C13.745 5.0247 13.4459 4.00195 12.2856 4.00195C11.6217 4.00195 11.1731 4.30101 10.904 4.73762C10.7006 5.06658 10.7007 5.06657 10.7007 5.06657C10.6408 5.52113 10.5631 6.01755 10.5272 6.17306C10.4853 6.32856 10.4913 6.67546 10.4913 6.6934C10.4913 6.71135 10.5152 6.87881 10.5451 7.04029C10.5691 7.1958 10.7605 7.29749 10.7605 7.29749C10.7605 7.29749 10.8203 7.5128 10.898 7.77596C10.9758 8.03913 11.2988 8.60134 11.2988 8.65517C11.2988 8.709 11.0715 8.87049 10.7963 9.01403Z" fill="white"/>
</svg>
