<svg xmlns="http://www.w3.org/2000/svg" width="19" height="19" viewBox="0 0 19 19" fill="none">
  <path d="M13.4583 16.625V15.0417C13.4583 14.2018 13.1247 13.3964 12.5308 12.8025C11.9369 12.2086 11.1315 11.875 10.2916 11.875H3.95829C3.11844 11.875 2.31299 12.2086 1.71912 12.8025C1.12526 13.3964 0.791626 14.2018 0.791626 15.0417V16.625" stroke="#374151" stroke-linecap="round" stroke-linejoin="round"/>
  <path d="M7.12504 8.70833C8.87394 8.70833 10.2917 7.29057 10.2917 5.54167C10.2917 3.79276 8.87394 2.375 7.12504 2.375C5.37614 2.375 3.95837 3.79276 3.95837 5.54167C3.95837 7.29057 5.37614 8.70833 7.12504 8.70833Z" stroke="#374151" stroke-linecap="round" stroke-linejoin="round"/>
  <path d="M18.2084 16.6251V15.0418C18.2079 14.3401 17.9743 13.6586 17.5445 13.104C17.1146 12.5495 16.5127 12.1534 15.8334 11.978" stroke="#374151" stroke-linecap="round" stroke-linejoin="round"/>
  <path d="M12.6666 2.47803C13.3478 2.65243 13.9515 3.04858 14.3827 3.60402C14.8138 4.15946 15.0478 4.8426 15.0478 5.54574C15.0478 6.24887 14.8138 6.93201 14.3827 7.48745C13.9515 8.04289 13.3478 8.43904 12.6666 8.61344" stroke="#374151" stroke-linecap="round" stroke-linejoin="round"/>
</svg>