<svg width="24" height="21" viewBox="0 0 24 21" fill="none" xmlns="http://www.w3.org/2000/svg">
<g id="Frame 240763">
<path id="Vector" fill-rule="evenodd" clip-rule="evenodd" d="M13.7258 0.938507C13.9427 0.713206 14.2945 0.713206 14.5115 0.938507L18.4004 4.97698C18.6173 5.20227 18.6173 5.56758 18.4004 5.79287L14.5115 9.83133C14.2945 10.0566 13.9427 10.0566 13.7258 9.83133C13.5088 9.60604 13.5088 9.24074 13.7258 9.01545L16.6663 5.96185H5.99208C5.68526 5.96185 5.43652 5.70356 5.43652 5.38492C5.43652 5.06629 5.68526 4.808 5.99208 4.808H16.6663L13.7258 1.7544C13.5088 1.5291 13.5088 1.16381 13.7258 0.938507Z" fill="#2947F2" stroke="#2947F2"/>
<path id="Vector_2" fill-rule="evenodd" clip-rule="evenodd" d="M10.2742 11.169C10.0573 10.9437 9.70549 10.9437 9.48854 11.169L5.59965 15.2074C5.3827 15.4327 5.3827 15.798 5.59965 16.0233L9.48854 20.0618C9.70549 20.2871 10.0573 20.2871 10.2742 20.0618C10.4912 19.8365 10.4912 19.4712 10.2742 19.2459L7.33371 16.1923H18.0079C18.3147 16.1923 18.5635 15.934 18.5635 15.6154C18.5635 15.2968 18.3147 15.0385 18.0079 15.0385H7.33371L10.2742 11.9849C10.4912 11.7596 10.4912 11.3943 10.2742 11.169Z" fill="#D9DADD" stroke="#D9DADD"/>
</g>
</svg>
