<svg width="27" height="27" viewBox="0 0 27 27" fill="none" xmlns="http://www.w3.org/2000/svg">
<g clip-path="url(#clip0_437_8504)">
<path d="M1.23438 12.1328H4.86021" stroke="#FF6805" stroke-miterlimit="10" stroke-linecap="round" stroke-linejoin="round"/>
<path d="M1.23438 14.4258H4.85966" stroke="#FF6805" stroke-miterlimit="10" stroke-linecap="round" stroke-linejoin="round"/>
<path d="M8.07339 9.96836C7.50335 9.58077 6.816 9.35352 6.0747 9.35352C4.10844 9.35352 2.51562 10.9463 2.51562 12.912C2.51562 14.8771 4.10844 16.4708 6.0747 16.4708C6.81629 16.4708 7.50364 16.2429 8.07339 15.8554" stroke="#FF6805" stroke-miterlimit="10" stroke-linecap="round"/>
<path d="M21.1731 14.627C21.1731 15.5298 22.0884 16.261 23.216 16.261C24.3437 16.261 25.2574 15.5294 25.2574 14.627C25.2574 13.7246 24.1679 13.3293 23.2107 12.9122C22.2543 12.4942 21.1641 12.0993 21.1641 11.1973C21.1641 10.2937 22.0793 9.5625 23.2054 9.5625C24.3338 9.5625 25.2483 10.2941 25.2483 11.1973" stroke="#FF6805" stroke-miterlimit="10" stroke-linecap="round"/>
<path d="M23.2031 9.55419V8.47266" stroke="#FF6805" stroke-miterlimit="10" stroke-linecap="round"/>
<path d="M23.2031 17.3484V16.2676" stroke="#FF6805" stroke-miterlimit="10" stroke-linecap="round"/>
<path d="M7.0625 5.44733C11.4621 1.5148 17.1558 1.41127 21.4001 5.44733" stroke="#2947F2" stroke-linecap="round"/>
<path d="M21.2311 1.52655L21.4738 5.61853L17.3818 5.86126" stroke="#2947F2" stroke-linecap="round" stroke-linejoin="round"/>
<path d="M21.3984 20.6777C16.9988 24.6102 11.3052 24.7137 7.0608 20.6777" stroke="#2947F2" stroke-linecap="round"/>
<path d="M7.22986 24.5985L6.98713 20.5065L11.0791 20.2637" stroke="#2947F2" stroke-linecap="round" stroke-linejoin="round"/>
</g>
<defs>
<clipPath id="clip0_437_8504">
<rect width="26" height="26" fill="white" transform="translate(0.25 0.0625)"/>
</clipPath>
</defs>
</svg>
