<svg width="509" height="193" viewBox="0 0 509 193" fill="none" xmlns="http://www.w3.org/2000/svg">
<g style="mix-blend-mode:multiply" opacity="0.1" filter="url(#filter0_i_18539_31223)">
<path d="M-357.393 68.3764C-372.68 92.3618 -398.167 99.3531 -409 99.8505V250.138H509.268V21.2375C496.256 25.6387 465.556 45.4453 446.842 89.4625C423.449 144.484 388.196 109.56 374.029 99.0171C359.862 88.474 334.822 85.1794 319.337 86.8267C303.852 88.474 279.471 92.0982 267.94 71.6711C256.408 51.244 244.767 37.9605 213.248 43.0072C185.243 43.9956 173.052 43.6662 159.874 33.7821C146.695 23.898 107.488 0.835127 79.4831 29.1695C51.4782 57.5039 22.4849 70.3532 -7.82635 32.1347C-38.1376 -6.08375 -70.4256 -1.47116 -82.9454 11.0487C-95.4652 23.5685 -103.709 61.7317 -133.879 72.9488C-159.519 78.0453 -174.498 86.4245 -201.554 114.502C-236.478 150.744 -257.564 118.785 -273.708 79.9078C-289.852 41.0304 -338.284 38.3947 -357.393 68.3764Z" fill="url(#paint0_linear_18539_31223)"/>
</g>
<path d="M-407.502 98.5944C-396.705 98.0969 -371.3 91.1056 -356.062 67.1203C-337.014 37.1385 -288.738 39.7743 -272.646 78.6517C-256.554 117.529 -235.536 149.488 -200.724 113.246C-165.913 77.0044 -162.741 81.6135 -132.744 72.3918C-102.457 63.081 -101.761 31.7582 -80.2063 10.1334C-67.7268 -2.38649 -37.8333 -7.33988 -7.6196 30.8786C22.5941 69.0971 51.4941 56.2478 79.4089 27.9134C107.324 -0.421009 146.405 22.6419 159.541 32.526C172.677 42.41 188.385 45.4778 212.743 41.7511C243.091 37.1081 255.765 49.9878 267.259 70.415C278.753 90.8421 303.056 87.2179 318.491 85.5706C333.926 83.9232 358.885 87.2179 373.007 97.7609C387.129 108.304 422.268 143.228 445.586 88.2063C464.239 44.1892 494.841 24.3825 507.811 19.9814" stroke="#2947F2" stroke-linecap="round" stroke-linejoin="round"/>
<defs>
<filter id="filter0_i_18539_31223" x="-409" y="2.04297" width="918.268" height="262.095" filterUnits="userSpaceOnUse" color-interpolation-filters="sRGB">
<feFlood flood-opacity="0" result="BackgroundImageFix"/>
<feBlend mode="normal" in="SourceGraphic" in2="BackgroundImageFix" result="shape"/>
<feColorMatrix in="SourceAlpha" type="matrix" values="0 0 0 0 0 0 0 0 0 0 0 0 0 0 0 0 0 0 127 0" result="hardAlpha"/>
<feOffset dy="14"/>
<feGaussianBlur stdDeviation="12"/>
<feComposite in2="hardAlpha" operator="arithmetic" k2="-1" k3="1"/>
<feColorMatrix type="matrix" values="0 0 0 0 0 0 0 0 0 0 0 0 0 0 0 0 0 0 0.25 0"/>
<feBlend mode="normal" in2="shape" result="effect1_innerShadow_18539_31223"/>
</filter>
<linearGradient id="paint0_linear_18539_31223" x1="50.1338" y1="2.04297" x2="50.1338" y2="258.509" gradientUnits="userSpaceOnUse">
<stop stop-color="#2947F2"/>
<stop offset="0.46679" stop-color="#D1D7FC"/>
<stop offset="1" stop-color="white"/>
</linearGradient>
</defs>
</svg>
