<svg width="19" height="19" viewBox="0 0 19 19" fill="none" xmlns="http://www.w3.org/2000/svg">
<path d="M18.502 2.76123C18.7129 2.97217 18.8535 3.25342 18.8535 3.56982V11.5151C18.8535 12.7808 17.834 13.7651 16.6035 13.7651H9.85352C8.58789 13.7651 7.60352 12.7808 7.56836 11.5151V2.51514C7.56836 1.28467 8.55273 0.265137 9.81836 0.265137H15.5488C15.8652 0.265137 16.1465 0.405762 16.3574 0.616699L18.502 2.76123ZM17.166 11.5151H17.1309V4.76514H15.4785C14.8457 4.76514 14.3535 4.27295 14.3535 3.64014L14.3184 1.98779H9.81836C9.50195 1.98779 9.25586 2.23389 9.25586 2.55029V11.5151C9.25586 11.8315 9.50195 12.0776 9.81836 12.0776H16.6035C16.8848 12.0776 17.166 11.8315 17.166 11.5151ZM10.416 16.0151V14.8901H12.1035V16.0151C12.1035 17.2808 11.084 18.2651 9.85352 18.2651H3.10352C1.83789 18.2651 0.853516 17.2808 0.853516 16.0151L0.818359 7.01514C0.818359 5.78467 1.83789 4.76514 3.06836 4.76514H6.47852V6.48779H3.06836C2.78711 6.48779 2.50586 6.73389 2.50586 7.05029V16.0151C2.50586 16.3315 2.75195 16.5776 3.06836 16.5776H9.85352C10.1348 16.5776 10.416 16.3315 10.416 16.0151Z" fill="#1D4ED8"/>
</svg>
