<svg xmlns="http://www.w3.org/2000/svg" width="18" height="18" viewBox="0 0 18 18" fill="none">
<path d="M13.0146 14.2578C13.0146 14.8214 12.7908 15.3619 12.3923 15.7604C11.9937 16.1589 11.4532 16.3828 10.8896 16.3828H3.45215C2.88856 16.3828 2.34806 16.1589 1.94955 15.7604C1.55103 15.3619 1.32715 14.8214 1.32715 14.2578V6.82031C1.32715 6.25673 1.55103 5.71623 1.94955 5.31771C2.34806 4.9192 2.88856 4.69531 3.45215 4.69531V5.75781C3.17036 5.75781 2.9001 5.86975 2.70085 6.06901C2.50159 6.26827 2.38965 6.53852 2.38965 6.82031V14.2578C2.38965 14.5396 2.50159 14.8099 2.70085 15.0091C2.9001 15.2084 3.17036 15.3203 3.45215 15.3203H10.8896C11.1714 15.3203 11.4417 15.2084 11.6409 15.0091C11.8402 14.8099 11.9521 14.5396 11.9521 14.2578H13.0146Z" fill="black"/>
<path d="M6.63965 2.57031C6.35786 2.57031 6.08761 2.68225 5.88835 2.88151C5.68909 3.08077 5.57715 3.35102 5.57715 3.63281V11.0703C5.57715 11.3521 5.68909 11.6224 5.88835 11.8216C6.08761 12.0209 6.35786 12.1328 6.63965 12.1328H14.0771C14.3589 12.1328 14.6292 12.0209 14.8284 11.8216C15.0277 11.6224 15.1396 11.3521 15.1396 11.0703V3.63281C15.1396 3.35102 15.0277 3.08077 14.8284 2.88151C14.6292 2.68225 14.3589 2.57031 14.0771 2.57031H6.63965ZM6.63965 1.50781H14.0771C14.6407 1.50781 15.1812 1.7317 15.5798 2.13021C15.9783 2.52873 16.2021 3.06923 16.2021 3.63281V11.0703C16.2021 11.6339 15.9783 12.1744 15.5798 12.5729C15.1812 12.9714 14.6407 13.1953 14.0771 13.1953H6.63965C6.07606 13.1953 5.53556 12.9714 5.13705 12.5729C4.73853 12.1744 4.51465 11.6339 4.51465 11.0703V3.63281C4.51465 3.06923 4.73853 2.52873 5.13705 2.13021C5.53556 1.7317 6.07606 1.50781 6.63965 1.50781Z" fill="black"/>
</svg>