<svg width="18" height="18" viewBox="0 0 18 18" fill="none" xmlns="http://www.w3.org/2000/svg">
<path d="M13.1538 14.0693C13.1538 14.6329 12.9299 15.1734 12.5314 15.5719C12.1329 15.9705 11.5924 16.1943 11.0288 16.1943H3.59131C3.02772 16.1943 2.48722 15.9705 2.08871 15.5719C1.69019 15.1734 1.46631 14.6329 1.46631 14.0693V6.63184C1.46631 6.06825 1.69019 5.52775 2.08871 5.12923C2.48722 4.73072 3.02772 4.50684 3.59131 4.50684V5.56934C3.30952 5.56934 3.03927 5.68128 2.84001 5.88054C2.64075 6.07979 2.52881 6.35004 2.52881 6.63184V14.0693C2.52881 14.3511 2.64075 14.6214 2.84001 14.8206C3.03927 15.0199 3.30952 15.1318 3.59131 15.1318H11.0288C11.3106 15.1318 11.5809 15.0199 11.7801 14.8206C11.9794 14.6214 12.0913 14.3511 12.0913 14.0693H13.1538Z" fill="#1E40AF"/>
<path d="M6.77881 2.38184C6.49702 2.38184 6.22677 2.49378 6.02751 2.69303C5.82825 2.89229 5.71631 3.16254 5.71631 3.44434V10.8818C5.71631 11.1636 5.82825 11.4339 6.02751 11.6331C6.22677 11.8324 6.49702 11.9443 6.77881 11.9443H14.2163C14.4981 11.9443 14.7684 11.8324 14.9676 11.6331C15.1669 11.4339 15.2788 11.1636 15.2788 10.8818V3.44434C15.2788 3.16254 15.1669 2.89229 14.9676 2.69303C14.7684 2.49378 14.4981 2.38184 14.2163 2.38184H6.77881ZM6.77881 1.31934H14.2163C14.7799 1.31934 15.3204 1.54322 15.7189 1.94173C16.1174 2.34025 16.3413 2.88075 16.3413 3.44434V10.8818C16.3413 11.4454 16.1174 11.9859 15.7189 12.3844C15.3204 12.783 14.7799 13.0068 14.2163 13.0068H6.77881C6.21522 13.0068 5.67472 12.783 5.27621 12.3844C4.87769 11.9859 4.65381 11.4454 4.65381 10.8818V3.44434C4.65381 2.88075 4.87769 2.34025 5.27621 1.94173C5.67472 1.54322 6.21522 1.31934 6.77881 1.31934Z" fill="#1E40AF"/>
</svg>
