<svg width="17" height="17" viewBox="0 0 17 17" fill="none" xmlns="http://www.w3.org/2000/svg">
<g id="copy-document_svgrepo.com">
<path id="Vector" d="M12.75 13.8125C12.75 14.3761 12.5261 14.9166 12.1276 15.3151C11.7291 15.7136 11.1886 15.9375 10.625 15.9375H3.1875C2.62391 15.9375 2.08341 15.7136 1.6849 15.3151C1.28638 14.9166 1.0625 14.3761 1.0625 13.8125V6.375C1.0625 5.81141 1.28638 5.27091 1.6849 4.8724C2.08341 4.47388 2.62391 4.25 3.1875 4.25V5.3125C2.90571 5.3125 2.63546 5.42444 2.4362 5.6237C2.23694 5.82296 2.125 6.09321 2.125 6.375V13.8125C2.125 14.0943 2.23694 14.3645 2.4362 14.5638C2.63546 14.7631 2.90571 14.875 3.1875 14.875H10.625C10.9068 14.875 11.177 14.7631 11.3763 14.5638C11.5756 14.3645 11.6875 14.0943 11.6875 13.8125H12.75Z" fill="black"/>
<path id="Vector_2" d="M6.375 2.125C6.09321 2.125 5.82296 2.23694 5.6237 2.4362C5.42444 2.63546 5.3125 2.90571 5.3125 3.1875V10.625C5.3125 10.9068 5.42444 11.177 5.6237 11.3763C5.82296 11.5756 6.09321 11.6875 6.375 11.6875H13.8125C14.0943 11.6875 14.3645 11.5756 14.5638 11.3763C14.7631 11.177 14.875 10.9068 14.875 10.625V3.1875C14.875 2.90571 14.7631 2.63546 14.5638 2.4362C14.3645 2.23694 14.0943 2.125 13.8125 2.125H6.375ZM6.375 1.0625H13.8125C14.3761 1.0625 14.9166 1.28638 15.3151 1.6849C15.7136 2.08341 15.9375 2.62391 15.9375 3.1875V10.625C15.9375 11.1886 15.7136 11.7291 15.3151 12.1276C14.9166 12.5261 14.3761 12.75 13.8125 12.75H6.375C5.81141 12.75 5.27091 12.5261 4.8724 12.1276C4.47388 11.7291 4.25 11.1886 4.25 10.625V3.1875C4.25 2.62391 4.47388 2.08341 4.8724 1.6849C5.27091 1.28638 5.81141 1.0625 6.375 1.0625Z" fill="black"/>
</g>
</svg>
