<svg width="25" height="25" viewBox="0 0 25 25" fill="none" xmlns="http://www.w3.org/2000/svg">
<path d="M18.5 20.3398C18.5 21.1355 18.1839 21.8986 17.6213 22.4612C17.0587 23.0238 16.2956 23.3398 15.5 23.3398H5C4.20435 23.3398 3.44129 23.0238 2.87868 22.4612C2.31607 21.8986 2 21.1355 2 20.3398V9.83984C2 9.04419 2.31607 8.28113 2.87868 7.71852C3.44129 7.15591 4.20435 6.83984 5 6.83984V8.33984C4.60218 8.33984 4.22064 8.49788 3.93934 8.77918C3.65804 9.06049 3.5 9.44202 3.5 9.83984V20.3398C3.5 20.7377 3.65804 21.1192 3.93934 21.4005C4.22064 21.6818 4.60218 21.8398 5 21.8398H15.5C15.8978 21.8398 16.2794 21.6818 16.5607 21.4005C16.842 21.1192 17 20.7377 17 20.3398H18.5Z" fill="#6B7280"/>
<path d="M9.5 3.83984C9.10218 3.83984 8.72064 3.99788 8.43934 4.27918C8.15804 4.56049 8 4.94202 8 5.33984V15.8398C8 16.2377 8.15804 16.6192 8.43934 16.9005C8.72064 17.1818 9.10218 17.3398 9.5 17.3398H20C20.3978 17.3398 20.7794 17.1818 21.0607 16.9005C21.342 16.6192 21.5 16.2377 21.5 15.8398V5.33984C21.5 4.94202 21.342 4.56049 21.0607 4.27918C20.7794 3.99788 20.3978 3.83984 20 3.83984H9.5ZM9.5 2.33984H20C20.7956 2.33984 21.5587 2.65591 22.1213 3.21852C22.6839 3.78113 23 4.54419 23 5.33984V15.8398C23 16.6355 22.6839 17.3986 22.1213 17.9612C21.5587 18.5238 20.7956 18.8398 20 18.8398H9.5C8.70435 18.8398 7.94129 18.5238 7.37868 17.9612C6.81607 17.3986 6.5 16.6355 6.5 15.8398V5.33984C6.5 4.54419 6.81607 3.78113 7.37868 3.21852C7.94129 2.65591 8.70435 2.33984 9.5 2.33984Z" fill="#6B7280"/>
</svg>
