<svg width="18" height="18" viewBox="0 0 18 18" fill="none" xmlns="http://www.w3.org/2000/svg">
<path d="M13.25 14.6526C13.25 15.2162 13.0261 15.7567 12.6276 16.1552C12.2291 16.5537 11.6886 16.7776 11.125 16.7776H3.6875C3.12391 16.7776 2.58341 16.5537 2.1849 16.1552C1.78638 15.7567 1.5625 15.2162 1.5625 14.6526V7.21509C1.5625 6.6515 1.78638 6.111 2.1849 5.71249C2.58341 5.31397 3.12391 5.09009 3.6875 5.09009V6.15259C3.40571 6.15259 3.13546 6.26453 2.9362 6.46379C2.73694 6.66304 2.625 6.9333 2.625 7.21509V14.6526C2.625 14.9344 2.73694 15.2046 2.9362 15.4039C3.13546 15.6031 3.40571 15.7151 3.6875 15.7151H11.125C11.4068 15.7151 11.677 15.6031 11.8763 15.4039C12.0756 15.2046 12.1875 14.9344 12.1875 14.6526H13.25Z" fill="#1E40AF"/>
<path d="M6.875 2.96509C6.59321 2.96509 6.32296 3.07703 6.1237 3.27629C5.92444 3.47554 5.8125 3.7458 5.8125 4.02759V11.4651C5.8125 11.7469 5.92444 12.0171 6.1237 12.2164C6.32296 12.4156 6.59321 12.5276 6.875 12.5276H14.3125C14.5943 12.5276 14.8645 12.4156 15.0638 12.2164C15.2631 12.0171 15.375 11.7469 15.375 11.4651V4.02759C15.375 3.7458 15.2631 3.47554 15.0638 3.27629C14.8645 3.07703 14.5943 2.96509 14.3125 2.96509H6.875ZM6.875 1.90259H14.3125C14.8761 1.90259 15.4166 2.12647 15.8151 2.52499C16.2136 2.9235 16.4375 3.464 16.4375 4.02759V11.4651C16.4375 12.0287 16.2136 12.5692 15.8151 12.9677C15.4166 13.3662 14.8761 13.5901 14.3125 13.5901H6.875C6.31141 13.5901 5.77091 13.3662 5.3724 12.9677C4.97388 12.5692 4.75 12.0287 4.75 11.4651V4.02759C4.75 3.464 4.97388 2.9235 5.3724 2.52499C5.77091 2.12647 6.31141 1.90259 6.875 1.90259Z" fill="#1E40AF"/>
</svg>
