<svg width="21" height="22" viewBox="0 0 21 22" fill="none" xmlns="http://www.w3.org/2000/svg">
<g id="copy_svgrepo.com">
<path id="Vector" d="M17.0888 7.16602L12.25 2.32727C12.1271 2.20416 11.9602 2.13492 11.7863 2.13477H9.625C8.98686 2.13477 8.37478 2.38828 7.92353 2.83954C7.47226 3.2908 7.21875 3.90283 7.21875 4.54102V5.63477H6.125C5.48682 5.63477 4.87478 5.88828 4.42353 6.33954C3.97226 6.7908 3.71875 7.40283 3.71875 8.04102V16.791C3.71875 17.4292 3.97226 18.0412 4.42353 18.4925C4.87478 18.9438 5.48682 19.1973 6.125 19.1973H12.25C12.8881 19.1973 13.5002 18.9438 13.9514 18.4925C14.4028 18.0412 14.6562 17.4292 14.6562 16.791V15.6973H14.875C15.5131 15.6973 16.1252 15.4438 16.5764 14.9925C17.0278 14.5412 17.2812 13.9292 17.2812 13.291V7.60352C17.2743 7.43867 17.2057 7.28247 17.0888 7.16602ZM12.4688 4.37477L15.0413 6.94727H12.4688V4.37477ZM13.3438 16.791C13.3438 17.0811 13.2285 17.3593 13.0234 17.5644C12.8183 17.7695 12.5401 17.8848 12.25 17.8848H6.125C5.83492 17.8848 5.55672 17.7695 5.3516 17.5644C5.14649 17.3593 5.03125 17.0811 5.03125 16.791V8.04102C5.03125 7.75094 5.14649 7.47274 5.3516 7.26762C5.55672 7.0625 5.83492 6.94727 6.125 6.94727H7.21875V13.291C7.21875 13.9292 7.47226 14.5412 7.92353 14.9925C8.37478 15.4438 8.98686 15.6973 9.625 15.6973H13.3438V16.791ZM14.875 14.3848H9.625C9.33494 14.3848 9.05669 14.2695 8.85159 14.0644C8.64649 13.8593 8.53125 13.5811 8.53125 13.291V4.54102C8.53125 4.25094 8.64649 3.97274 8.85159 3.76762C9.05669 3.5625 9.33494 3.44727 9.625 3.44727H11.1562V7.60352C11.1585 7.77686 11.2283 7.94246 11.3509 8.06505C11.4735 8.18763 11.6392 8.2575 11.8125 8.25977H15.9688V13.291C15.9688 13.5811 15.8535 13.8593 15.6484 14.0644C15.4433 14.2695 15.1651 14.3848 14.875 14.3848Z" fill="#1D4ED8"/>
</g>
</svg>
