<svg width="19" height="19" viewBox="0 0 19 19" fill="none" xmlns="http://www.w3.org/2000/svg">
<path d="M18.541 2.56055C18.752 2.77148 18.8926 3.05273 18.8926 3.36914V11.3145C18.8926 12.5801 17.873 13.5645 16.6426 13.5645H9.89258C8.62695 13.5645 7.64258 12.5801 7.60742 11.3145V2.31445C7.60742 1.08398 8.5918 0.0644531 9.85742 0.0644531H15.5879C15.9043 0.0644531 16.1855 0.205078 16.3965 0.416016L18.541 2.56055ZM17.2051 11.3145H17.1699V4.56445H15.5176C14.8848 4.56445 14.3926 4.07227 14.3926 3.43945L14.3574 1.78711H9.85742C9.54102 1.78711 9.29492 2.0332 9.29492 2.34961V11.3145C9.29492 11.6309 9.54102 11.877 9.85742 11.877H16.6426C16.9238 11.877 17.2051 11.6309 17.2051 11.3145ZM10.4551 15.8145V14.6895H12.1426V15.8145C12.1426 17.0801 11.123 18.0645 9.89258 18.0645H3.14258C1.87695 18.0645 0.892578 17.0801 0.892578 15.8145L0.857422 6.81445C0.857422 5.58398 1.87695 4.56445 3.10742 4.56445H6.51758V6.28711H3.10742C2.82617 6.28711 2.54492 6.5332 2.54492 6.84961V15.8145C2.54492 16.1309 2.79102 16.377 3.10742 16.377H9.89258C10.1738 16.377 10.4551 16.1309 10.4551 15.8145Z" fill="#9CA3AF"/>
</svg>
