<svg width="19" height="19" viewBox="0 0 19 19" fill="none" xmlns="http://www.w3.org/2000/svg">
<path d="M17.7344 3.19238C17.9453 3.40332 18.0859 3.68457 18.0859 4.00098V11.9463C18.0859 13.2119 17.0664 14.1963 15.8359 14.1963H9.08594C7.82031 14.1963 6.83594 13.2119 6.80078 11.9463V2.94629C6.80078 1.71582 7.78516 0.696289 9.05078 0.696289H14.7812C15.0977 0.696289 15.3789 0.836914 15.5898 1.04785L17.7344 3.19238ZM16.3984 11.9463H16.3633V5.19629H14.7109C14.0781 5.19629 13.5859 4.7041 13.5859 4.07129L13.5508 2.41895H9.05078C8.73438 2.41895 8.48828 2.66504 8.48828 2.98145V11.9463C8.48828 12.2627 8.73438 12.5088 9.05078 12.5088H15.8359C16.1172 12.5088 16.3984 12.2627 16.3984 11.9463ZM9.64844 16.4463V15.3213H11.3359V16.4463C11.3359 17.7119 10.3164 18.6963 9.08594 18.6963H2.33594C1.07031 18.6963 0.0859375 17.7119 0.0859375 16.4463L0.0507812 7.44629C0.0507812 6.21582 1.07031 5.19629 2.30078 5.19629H5.71094V6.91895H2.30078C2.01953 6.91895 1.73828 7.16504 1.73828 7.48145V16.4463C1.73828 16.7627 1.98438 17.0088 2.30078 17.0088H9.08594C9.36719 17.0088 9.64844 16.7627 9.64844 16.4463Z" fill="#6B7280"/>
</svg>
