<svg width="13" height="13" viewBox="0 0 13 13" fill="none" xmlns="http://www.w3.org/2000/svg">
<path d="M12.7656 1.81055C12.9062 1.95117 13 2.13867 13 2.34961V7.64648C13 8.49023 12.3203 9.14648 11.5 9.14648H7C6.15625 9.14648 5.5 8.49023 5.47656 7.64648V1.64648C5.47656 0.826172 6.13281 0.146484 6.97656 0.146484H10.7969C11.0078 0.146484 11.1953 0.240234 11.3359 0.380859L12.7656 1.81055ZM11.875 7.64648H11.8516V3.14648H10.75C10.3281 3.14648 10 2.81836 10 2.39648L9.97656 1.29492H6.97656C6.76562 1.29492 6.60156 1.45898 6.60156 1.66992V7.64648C6.60156 7.85742 6.76562 8.02148 6.97656 8.02148H11.5C11.6875 8.02148 11.875 7.85742 11.875 7.64648ZM7.375 10.6465V9.89648H8.5V10.6465C8.5 11.4902 7.82031 12.1465 7 12.1465H2.5C1.65625 12.1465 1 11.4902 1 10.6465L0.976562 4.64648C0.976562 3.82617 1.65625 3.14648 2.47656 3.14648H4.75V4.29492H2.47656C2.28906 4.29492 2.10156 4.45898 2.10156 4.66992V10.6465C2.10156 10.8574 2.26562 11.0215 2.47656 11.0215H7C7.1875 11.0215 7.375 10.8574 7.375 10.6465Z" fill="white"/>
</svg>
