<svg width="14" height="14" viewBox="0 0 14 14" fill="none" xmlns="http://www.w3.org/2000/svg">
<path d="M13.7271 1.94141C13.8908 2.10547 14 2.32422 14 2.57031V8.75C14 9.73438 13.2086 10.5 12.2534 10.5H7.01365C6.03119 10.5 5.26706 9.73438 5.23977 8.75V1.75C5.23977 0.792969 6.0039 0 6.98635 0H11.4347C11.6803 0 11.8986 0.109375 12.0624 0.273438L13.7271 1.94141ZM12.6901 8.75H12.6628V3.5H11.3801C10.8889 3.5 10.5068 3.11719 10.5068 2.625L10.4795 1.33984H6.98635C6.74074 1.33984 6.54971 1.53125 6.54971 1.77734V8.75C6.54971 8.99609 6.74074 9.1875 6.98635 9.1875H12.2534C12.4717 9.1875 12.6901 8.99609 12.6901 8.75ZM7.45029 12.25V11.375H8.76023V12.25C8.76023 13.2344 7.96881 14 7.01365 14H1.77388C0.791423 14 0.0272904 13.2344 0.0272904 12.25L0 5.25C0 4.29297 0.791423 3.5 1.74659 3.5H4.39376V4.83984H1.74659C1.52827 4.83984 1.30994 5.03125 1.30994 5.27734V12.25C1.30994 12.4961 1.50097 12.6875 1.74659 12.6875H7.01365C7.23197 12.6875 7.45029 12.4961 7.45029 12.25Z" fill="#111827"/>
</svg>
