<svg width="9" height="11" viewBox="0 0 9 11" fill="none" xmlns="http://www.w3.org/2000/svg">
<g id="Group 240483">
<path id="arrow" fill-rule="evenodd" clip-rule="evenodd" d="M4.5201 4.67218L7.79227 1.14833C8.03476 0.887517 8.42587 0.887517 8.66836 1.14833C8.78421 1.27261 8.84936 1.44213 8.84936 1.61893C8.84936 1.79574 8.78421 1.96525 8.66836 2.08953L4.9588 6.08397C4.71657 6.34561 4.32493 6.34561 4.0827 6.08397L0.373141 2.08969C0.257299 1.96525 0.192139 1.79573 0.19214 1.61893C0.19214 1.44212 0.257299 1.27261 0.373141 1.14817C0.615674 0.887515 1.00678 0.887516 1.24924 1.1485L4.5201 4.67218Z" fill="#6B7280"/>
<path id="arrow_2" fill-rule="evenodd" clip-rule="evenodd" d="M4.52152 6.55585L1.24936 10.0797C1.00686 10.3405 0.615757 10.3405 0.373262 10.0797C0.25742 9.95542 0.192262 9.7859 0.192262 9.6091C0.192262 9.43229 0.25742 9.26278 0.373263 9.1385L4.08283 5.14406C4.32505 4.88242 4.7167 4.88242 4.95892 5.14406L8.66848 9.13834C8.78433 9.26278 8.84949 9.43229 8.84949 9.6091C8.84949 9.7859 8.78433 9.95542 8.66848 10.0799C8.42595 10.3405 8.03484 10.3405 7.79239 10.0795L4.52152 6.55585Z" fill="#6B7280"/>
</g>
</svg>
