<svg width="25" height="25" viewBox="0 0 25 25" fill="none" xmlns="http://www.w3.org/2000/svg">
<path d="M53.6592 0.350098H-13.0308V24.6501H53.6592V0.350098Z" fill="white"/>
<path d="M53.6592 0.350098H-13.0308V3.0501H53.6592V0.350098Z" fill="#B22234"/>
<path d="M53.6592 5.75H-13.0308V8.45002H53.6592V5.75Z" fill="#B22234"/>
<path d="M53.6592 11.1499H-13.0308V13.8499H53.6592V11.1499Z" fill="#B22234"/>
<path d="M53.6592 16.5503H-13.0308V19.2503H53.6592V16.5503Z" fill="#B22234"/>
<path d="M53.6592 21.9502H-13.0308V24.6502H53.6592V21.9502Z" fill="#B22234"/>
<path d="M13.6452 0.350098H-13.0308V13.8501H13.6452V0.350098Z" fill="#3C3B6E"/>
<path d="M9.1524 1.42334L8.90967 2.17066H8.12402L8.75954 2.63231L8.51693 3.3793L9.1524 2.91764L9.78784 3.3793L9.54519 2.63224L10.1804 2.17066H9.39511L9.1524 1.42334Z" fill="white"/>
<path d="M6.94117 3.31885L6.69851 4.06585H5.91309L6.54858 4.52753L6.30573 5.27454L6.94127 4.81284L7.57664 5.27454L7.33396 4.52753L7.96947 4.06585H7.18385L6.94117 3.31885Z" fill="white"/>
<path d="M11.3635 3.31885L11.1208 4.06585H10.3354L10.9709 4.52751L10.728 5.27454L11.3636 4.81284L11.9989 5.27454L11.7563 4.52758L12.3918 4.06585H11.6064L11.3635 3.31885Z" fill="white"/>
<path d="M4.72996 5.21436L4.48728 5.96136H3.70166L4.33723 6.42306L4.09452 7.17029L4.72987 6.70861L5.36538 7.17029L5.12248 6.42306L5.75802 5.96136H4.9726L4.72996 5.21436ZM4.72982 6.29558H4.72979L4.72987 6.29546L4.72989 6.29554L4.72982 6.29558Z" fill="white"/>
<path d="M9.1524 5.21436L8.90972 5.96136H8.12402L8.75964 6.42309L8.51693 7.17029L9.15238 6.70866L9.78782 7.17029L9.54506 6.42301L10.1804 5.96136H9.39506L9.1524 5.21436ZM9.1524 6.29558L9.15233 6.29554L9.15238 6.29546L9.15245 6.29558H9.1524Z" fill="white"/>
<path d="M2.51825 7.10986L2.27561 7.8568H1.49023L2.12551 8.31842L1.8828 9.06548L2.51825 8.6038L3.15369 9.06548L2.91103 8.31852L3.5466 7.8568H2.76093L2.51825 7.10986Z" fill="white"/>
<path d="M6.94117 7.10986L6.69851 7.8568H5.91309L6.5486 8.31847L6.30573 9.06548L6.94127 8.60375L7.57664 9.06548L7.33396 8.31847L7.96947 7.8568H7.18385L6.94117 7.10986Z" fill="white"/>
<path d="M11.3635 7.10986L11.1208 7.8568H10.3354L10.9709 8.31842L10.728 9.06548L11.3636 8.60375L11.9989 9.06548L11.7562 8.31852L12.3918 7.8568H11.6064L11.3635 7.10986Z" fill="white"/>
<path d="M4.97262 9.75233L4.72996 9.00537L4.48728 9.75233H3.70166L4.33718 10.214L4.09449 10.9609L4.72987 10.4993L5.36538 10.9609L5.12255 10.214L5.75802 9.75233H4.97262Z" fill="white"/>
<path d="M9.39506 9.75233L9.1524 9.00537L8.90972 9.75233H8.12402L8.75961 10.2141L8.51693 10.9609L9.1524 10.4993L9.78784 10.9609L9.54516 10.214L10.1804 9.75233H9.39506Z" fill="white"/>
<path d="M2.76093 11.6478L2.51825 10.9009L2.27559 11.6478H1.49023L2.12549 12.1095L1.8828 12.8565L2.51825 12.3948L3.15369 12.8565L2.91103 12.1096L3.5466 11.6478H2.76093Z" fill="white"/>
<path d="M7.18385 11.6478L6.94117 10.9009L6.69851 11.6478H5.91309L6.5486 12.1095L6.30573 12.8565L6.94127 12.3948L7.57664 12.8565L7.33396 12.1095L7.96947 11.6478H7.18385Z" fill="white"/>
<path d="M11.6064 11.6478L11.3635 10.9009L11.1208 11.6478H10.3354L10.9709 12.1095L10.728 12.8565L11.3636 12.3948L11.9989 12.8565L11.7562 12.1096L12.3918 11.6478H11.6064Z" fill="white"/>
</svg>
