<svg width="528" height="217" viewBox="0 0 528 217" fill="none" xmlns="http://www.w3.org/2000/svg">
<g clip-path="url(#clip0_18808_194764)">
<g filter="url(#filter0_i_18808_194764)">
<path fill-rule="evenodd" clip-rule="evenodd" d="M-180 252C-181.105 252 -182 251.105 -182 250V183.792C-182 182.547 -180.875 181.604 -179.649 181.823L-177.725 182.165C-177.133 182.27 -176.525 182.104 -176.069 181.711L-175.688 181.382C-174.713 180.542 -173.212 180.827 -172.612 181.965L-171.516 184.045C-170.976 185.071 -169.68 185.424 -168.694 184.813L-164.633 182.298C-163.553 181.63 -162.132 182.123 -161.699 183.317L-160.854 185.647C-160.702 186.066 -160.415 186.422 -160.038 186.659L-154.731 189.994L-152.899 191.223C-151.571 192.115 -149.785 191.162 -149.785 189.562V158.922C-149.785 158.057 -149.228 157.289 -148.405 157.021L-143.728 155.496C-142.905 155.228 -142.348 154.46 -142.348 153.595V147.419C-142.348 147.238 -142.29 147.062 -142.183 146.916C-141.698 146.259 -140.656 146.602 -140.656 147.419V152.47V156.247C-140.656 156.645 -140.537 157.034 -140.315 157.365L-136.874 162.472C-136.709 162.716 -136.492 162.922 -136.238 163.073L-134.315 164.217C-134.005 164.401 -133.652 164.499 -133.292 164.499H-129.602C-128.497 164.499 -127.602 163.603 -127.602 162.499V159.363C-127.602 158.812 -127.374 158.284 -126.972 157.906L-122.479 153.682C-122.35 153.56 -122.237 153.422 -122.144 153.27L-119.137 148.364C-118.989 148.123 -118.894 147.854 -118.858 147.574L-118.329 143.451C-118.148 142.042 -116.596 141.265 -115.36 141.965L-115 142.169C-113.831 142.831 -112.356 142.176 -112.062 140.866L-110.174 132.441C-109.928 131.342 -108.824 130.663 -107.733 130.939L-106.264 131.31C-105 131.629 -103.774 130.674 -103.774 129.371V124.079C-103.774 123.373 -103.401 122.718 -102.793 122.358L-102.328 122.084C-101.113 121.364 -99.562 122.145 -99.4157 123.55L-99.1997 125.623C-99.0736 126.833 -97.4731 127.177 -96.8619 126.124C-96.7556 125.941 -96.6048 125.788 -96.4234 125.679L-94.2593 124.375C-92.9264 123.572 -91.2274 124.532 -91.2274 126.089V131.535C-91.2274 132.017 -91.0537 132.482 -90.7383 132.846L-87.4935 136.587C-87.4104 136.682 -87.3367 136.786 -87.2732 136.895L-84.8746 141.04C-83.9055 142.715 -81.345 142.028 -81.345 140.093C-81.345 139.749 -81.2513 139.412 -81.0741 139.117L-77.0594 132.446C-76.9938 132.337 -76.9179 132.234 -76.8327 132.14L-75.1384 130.256C-74.1951 129.207 -72.4917 129.438 -71.8618 130.7L-69.0713 136.292C-68.9276 136.58 -68.7166 136.829 -68.4562 137.018L-66.1469 138.693C-64.8247 139.653 -62.9725 138.708 -62.9725 137.074V132.282V131.201C-62.9725 129.74 -61.458 128.772 -60.1326 129.386L-56.7137 130.968C-55.3883 131.581 -53.8738 130.613 -53.8738 129.153V126.376C-53.8738 126.028 -53.7832 125.686 -53.6109 125.385L-47.3621 114.433L-43.519 105.824C-43.4045 105.567 -43.3453 105.289 -43.3453 105.008V99.6339C-43.3453 97.8112 -41.1063 96.9385 -39.8728 98.2805L-38.3432 99.9446C-38.0186 100.298 -37.8385 100.76 -37.8385 101.24C-37.8385 103.175 -35.2934 103.887 -34.2889 102.233L-27.9474 91.7862L-23.8718 86.6263C-23.1148 85.6678 -21.6829 85.6058 -20.8459 86.4953L-17.9772 89.5436C-17.6996 89.8386 -17.3389 90.0424 -16.943 90.1279L-10.8426 91.4454C-9.92198 91.6442 -9.26483 92.4585 -9.26483 93.4003V99.6175C-9.26483 100.176 -9.03128 100.709 -8.6207 101.088L-4.39601 104.984C-4.07872 105.276 -3.86461 105.664 -3.78563 106.088L-0.834564 121.945C-0.534149 123.559 1.47598 124.144 2.59514 122.942L4.00296 121.431C4.70961 120.672 5.87885 120.58 6.69638 121.217L9.06587 123.065C9.83585 123.666 10.9269 123.622 11.6469 122.963L18.97 116.254L22.2598 113.377C23.216 112.541 24.6993 112.797 25.3206 113.905L28.691 119.915C28.7564 120.032 28.8333 120.141 28.9206 120.243L33.2655 125.282C33.5785 125.646 33.7507 126.109 33.7507 126.588V131.532C33.7507 132.015 33.9258 132.483 34.2437 132.847L36.2216 135.113C37.031 136.041 38.4783 136.024 39.2658 135.078L41.7976 132.036C42.6734 130.983 44.3238 131.102 45.0397 132.269L47.481 136.249C47.6741 136.564 47.7762 136.926 47.7762 137.295V139.934C47.7762 140.598 48.1059 141.219 48.6562 141.591L51.9696 143.831C52.5198 144.203 52.8495 144.824 52.8495 145.488V149.203C52.8495 151.062 55.1644 151.916 56.371 150.501L61.0764 144.986C61.3852 144.624 61.5549 144.164 61.5549 143.688V133.43C61.5549 132.719 61.9322 132.061 62.5459 131.703L72.3069 126C72.4822 125.897 72.6409 125.769 72.7776 125.619L75.8806 122.207C77.0176 120.957 79.0976 121.761 79.0976 123.451C79.0976 123.874 79.2429 124.285 79.5092 124.614L83.628 129.704C83.7292 129.829 83.8452 129.941 83.9734 130.039L86.9992 132.336C87.996 133.092 89.4352 132.758 89.9962 131.639L92.7824 126.084C92.8618 125.925 92.9619 125.778 93.08 125.646L96.6029 121.71C97.3834 120.838 98.7425 120.82 99.5465 121.67L101.302 123.527C101.653 123.898 101.849 124.39 101.849 124.901V138.209C101.849 139.029 102.349 139.766 103.112 140.068L107.791 141.922C109.104 142.442 110.528 141.475 110.528 140.063V134.283C110.528 133.96 110.606 133.642 110.756 133.356L116.266 122.822C116.36 122.641 116.482 122.476 116.626 122.332L116.89 122.069C118.151 120.813 120.301 121.706 120.301 123.486V134.161C120.301 134.904 120.713 135.585 121.371 135.931L125.596 138.152C125.705 138.209 125.808 138.276 125.904 138.352L130.357 141.864C131.175 142.509 132.352 142.418 133.061 141.653L137.629 136.73L141.268 133.775C142.229 132.994 143.662 133.266 144.271 134.345L148.898 142.549C149.068 142.849 149.156 143.187 149.156 143.532V148.932C149.156 149.669 149.562 150.346 150.211 150.695L156.14 153.876C156.961 154.317 157.978 154.132 158.591 153.431L163.928 147.331C164.039 147.204 164.165 147.092 164.304 146.997L167.013 145.145C168.34 144.238 170.142 145.188 170.142 146.796V148.836C170.142 149.623 170.603 150.337 171.32 150.66L179.828 154.49C180.032 154.582 180.219 154.708 180.382 154.862L184.99 159.225C185.605 159.808 186.521 159.939 187.275 159.554L198.235 153.953C199.562 153.275 201.136 154.238 201.136 155.728V156.01C201.136 157.258 202.378 158.126 203.55 157.696C203.947 157.551 204.383 157.55 204.78 157.693L210.885 159.902C211.406 160.09 211.825 160.486 212.043 160.995L214.655 167.095C215.249 168.48 217.103 168.737 218.05 167.564L223.076 161.34C223.625 160.66 224.552 160.415 225.365 160.736L230.473 162.751C230.629 162.812 230.777 162.893 230.913 162.992L240.734 170.115C241.74 170.844 243.161 170.489 243.706 169.372L249.326 157.846C249.447 157.599 249.618 157.379 249.828 157.2L253.16 154.363C253.58 154.006 254.128 153.838 254.676 153.898L260.571 154.55C261.035 154.601 261.502 154.488 261.892 154.232L272.31 147.362C272.533 147.216 272.782 147.115 273.044 147.066L281.156 145.55C281.572 145.472 281.953 145.264 282.244 144.956L283.586 143.533C283.919 143.18 284.112 142.718 284.129 142.233L284.328 136.722C284.351 136.079 284.683 135.487 285.219 135.13L291.699 130.815C292.256 130.444 292.591 129.819 292.591 129.15V125.165C292.591 124.693 292.758 124.237 293.062 123.876L296.703 119.557C297.007 119.196 297.173 118.74 297.173 118.268V112.589C297.173 112.258 297.255 111.932 297.412 111.641L299.146 108.42C299.647 107.489 300.786 107.109 301.746 107.552L308.43 110.637C308.93 110.868 309.502 110.883 310.013 110.678L334.006 101.059C334.84 100.725 335.794 100.987 336.339 101.7L339.891 106.343C340.636 107.317 342.074 107.398 342.923 106.513L348.141 101.074C348.499 100.702 348.698 100.206 348.698 99.6894V83.5735C348.698 83.2478 348.778 82.9271 348.93 82.6391L354.975 71.1994L359.216 61.8287C359.826 60.4801 361.639 60.2389 362.581 61.3809L365.171 64.5219C365.365 64.7572 365.503 65.0337 365.573 65.3304L369.497 81.7812L371.293 97.9223C371.537 100.109 374.618 100.357 375.208 98.2372L379.585 82.5065C379.715 82.0389 380.011 81.6347 380.417 81.369L382.963 79.7036C384.293 78.8333 386.058 79.7877 386.058 81.3772V97.4418C386.058 98.8826 387.535 99.8507 388.856 99.2756L394.841 96.6702C395.126 96.5463 395.378 96.3579 395.577 96.1198L400.688 90.011C400.989 89.6511 401.154 89.1968 401.154 88.7276V82.8515C401.154 82.1828 401.488 81.5584 402.045 81.1874L405.825 78.6671C406.669 78.1038 407.802 78.263 408.459 79.0374L411.412 82.5179C411.718 82.8792 411.886 83.3377 411.886 83.8116V91.259C411.886 91.371 411.896 91.4828 411.914 91.5932L414.654 107.76C414.995 109.773 417.777 110.042 418.497 108.132L420.72 102.238C420.821 101.97 420.978 101.728 421.18 101.526L425.021 97.7034C425.725 97.0022 426.838 96.9247 427.632 97.5215L430.792 99.8937C431.295 100.271 431.591 100.864 431.591 101.493V103.253C431.591 103.855 431.862 104.425 432.329 104.804L435.639 107.498C436.828 108.465 438.619 107.79 438.873 106.278L442.75 83.221C442.766 83.1255 442.789 83.0314 442.819 82.9392L447.391 68.748C447.537 68.2939 447.841 67.9071 448.248 67.6573L452.503 65.0425C452.679 64.9345 452.837 64.7999 452.972 64.6436L454.398 62.9872C455.608 61.5819 457.914 62.4378 457.914 64.2923V75.7103V78.2583C457.914 79.8109 459.606 80.7714 460.939 79.9757L464.408 77.9049C464.658 77.756 464.872 77.5544 465.036 77.3142L468.056 72.8848C469.058 71.4155 471.356 72.1246 471.356 73.903C471.356 74.9011 472.166 75.7103 473.164 75.7103H480.103C481.208 75.7103 482.103 76.6057 482.103 77.7103V86.4116C482.103 86.7312 482.18 87.0461 482.327 87.33L486.611 95.6176C487.468 97.2757 489.928 96.9598 490.339 95.1389L493.064 83.0483C493.474 81.2257 495.938 80.9116 496.793 82.5727L503.731 96.051C503.876 96.3341 503.953 96.6479 503.953 96.9664V103.8C503.953 105.075 505.128 106.024 506.374 105.755L512.286 104.48C513.063 104.312 513.865 104.621 514.33 105.265L519.027 111.78C519.994 113.121 522.078 112.776 522.562 111.195L525.593 101.282C525.747 100.777 526.095 100.354 526.56 100.104L531.244 97.5928C532.33 97.0103 533.68 97.5395 534.08 98.705L534.725 100.58C535.403 102.552 538.269 102.299 538.592 100.239L539.854 92.1968C540.065 90.8477 541.537 90.1028 542.749 90.7308L543.239 90.9846C543.78 91.2644 544.418 91.2831 544.973 91.0356L552.079 87.87C553.216 87.3633 554.535 88.0079 554.834 89.2167L556.711 96.8024C556.98 97.8901 558.09 98.5446 559.172 98.2534L564.894 96.7134C565.441 96.566 566.026 96.658 566.502 96.9665L572.515 100.865C573.365 101.417 574.493 101.245 575.141 100.465L580.967 93.453C581.029 93.3786 581.085 93.2999 581.136 93.2175L584.887 87.0772C584.96 86.958 585.045 86.8468 585.141 86.7453L591.592 79.9266C592.59 78.8721 594.343 79.1984 594.895 80.5411L595.783 82.7028C596.556 84.5844 599.318 84.2447 599.612 82.2319L602.2 64.5165C602.439 62.88 604.448 62.2244 605.607 63.4049L607.981 65.8244C609 66.8634 610.753 66.5001 611.275 65.1414L621.094 39.6043C621.979 37.301 625.435 38.3307 624.916 40.743L620.876 59.5035C620.738 60.1447 620.923 60.8128 621.372 61.2915L627.046 67.3509C628.057 68.431 629.851 68.0768 630.376 66.6933L642.303 35.2555C643.123 33.0949 646.345 33.8151 646.167 36.1191L644.28 60.5272V67.4334C644.28 67.8316 644.399 68.2207 644.621 68.551L648.624 74.4912C649.528 75.8334 651.569 75.6015 652.149 74.0906L655.693 64.8642C656.395 63.0354 659.035 63.2021 659.502 65.1046L661.865 74.7379C662.016 75.35 662.445 75.8554 663.025 76.102L670.973 79.4808C671.305 79.6222 671.593 79.8512 671.806 80.1433L674.132 83.3337C675.144 84.7227 677.321 84.2721 677.699 82.5953L682.018 63.4274L686.891 47.74C687.344 46.2848 689.192 45.8495 690.246 46.9499L698.363 55.4247C699.548 56.6612 698.703 58.7161 696.992 58.7626C695.173 58.8121 694.384 61.0877 695.782 62.2521L696.826 63.1215C697.869 63.9899 699.456 63.5895 699.962 62.3302L707.918 42.5296C708.817 40.2919 712.176 41.2638 711.741 43.6358L699.938 108.029C699.574 110.018 702.199 111.074 703.313 109.387C703.979 108.38 705.413 108.266 706.23 109.154L707.862 110.932C709.096 112.275 711.335 111.402 711.335 109.579V97.6909C711.335 97.2571 711.476 96.8351 711.737 96.4885L720.399 84.9745C721.34 83.7245 723.287 83.9893 723.859 85.4452L728.41 97.0226L731.154 103.678C731.283 103.991 731.489 104.265 731.753 104.477L735.41 107.405L740.909 112.624C741.951 113.613 743.664 113.214 744.162 111.866L747.319 103.32C747.856 101.868 749.769 101.55 750.747 102.751L752.825 105.305C753.675 106.349 755.292 106.273 756.039 105.154L760.385 98.6528C760.99 97.7473 762.208 97.4925 763.126 98.0797L767.805 101.075C769.064 101.881 770.73 101.071 770.874 99.5833L772.537 82.4076C772.556 82.214 772.603 82.0243 772.676 81.8443L777.78 69.3451C778.514 67.548 781.121 67.7448 781.576 69.6319L783.701 78.432C784.154 80.3094 786.742 80.5175 787.489 78.7368L797.297 55.3744C797.441 55.0313 797.718 54.7614 798.065 54.6266C798.713 54.3744 799.448 54.648 799.774 55.2632L800.789 57.179C800.976 57.5313 801.263 57.8197 801.615 58.0074L807.756 61.2834C808.408 61.6311 808.815 62.3095 808.815 63.048V75.0843C808.815 75.4919 808.939 75.8897 809.172 76.2245L818.603 89.8161C818.686 89.9361 818.782 90.0466 818.89 90.1456L826.442 97.116C827.224 97.837 828.432 97.8208 829.194 97.0792L841.62 84.9793C841.737 84.8648 841.869 84.7652 842.011 84.6828L842.887 84.1737C843.901 83.5844 845.203 83.9908 845.702 85.0526L848.788 91.6212C848.839 91.731 848.901 91.8358 848.972 91.9344L852.859 97.3677C853.31 97.9988 854.086 98.3118 854.849 98.1707L859.723 97.2692C860.529 97.1203 861.343 97.4774 861.78 98.1704L865.408 103.934C865.521 104.113 865.661 104.273 865.823 104.408L873.536 110.81L875.754 112.552C876.619 113.233 877.872 113.085 878.556 112.222L886.433 102.289C887.61 100.804 890 101.636 890 103.531V250C890 251.105 889.105 252 888 252H253.818H-180Z" fill="url(#paint0_linear_18808_194764)" fill-opacity="0.6"/>
</g>
<path d="M-179 181.848L-173.316 177.035C-172.016 175.934 -170.023 176.858 -170.023 178.561V181.045C-170.023 182.842 -167.837 183.728 -166.587 182.436L-162.963 178.695C-161.948 177.647 -160.187 178.004 -159.661 179.366L-157.339 185.376C-157.186 185.772 -156.911 186.108 -156.554 186.338L-155.489 187.022C-154.158 187.876 -152.408 186.92 -152.408 185.339V158.893C-152.408 158.059 -151.891 157.313 -151.111 157.02L-146.127 155.151C-145.346 154.858 -144.829 154.112 -144.829 153.278V147.842C-144.829 147.408 -144.688 146.986 -144.428 146.64L-140.596 141.546C-139.441 140.011 -136.997 140.827 -136.997 142.748V151.856V156.834C-136.997 157.27 -136.854 157.695 -136.59 158.043L-133.097 162.644C-132.977 162.801 -132.882 162.975 -132.813 163.16L-132.591 163.761C-131.817 165.855 -128.715 165.3 -128.715 163.068V160.991C-128.715 160.503 -128.537 160.032 -128.213 159.666L-123.788 154.664L-119.679 150.754C-119.283 150.377 -119.058 149.853 -119.058 149.306V143.526C-119.058 141.892 -117.204 140.947 -115.882 141.909L-115.551 142.15C-114.229 143.111 -112.375 142.166 -112.375 140.532V130.784C-112.375 129.446 -111.086 128.485 -109.803 128.868L-108.839 129.155C-107.557 129.538 -106.268 128.577 -106.268 127.239V123.755C-106.268 123.028 -105.873 122.359 -105.238 122.006L-102.084 120.257C-101.918 120.165 -101.766 120.049 -101.632 119.914L-99.6629 117.922C-98.4064 116.65 -96.2404 117.54 -96.2404 119.328V122.681C-96.2404 124.085 -94.7077 124.95 -93.5055 124.226V124.226C-92.3033 123.501 -90.7706 124.367 -90.7706 125.771V131.566C-90.7706 132.047 -90.5971 132.512 -90.2818 132.876L-87.0383 136.618C-86.9553 136.714 -86.8816 136.817 -86.8182 136.927L-84.4216 141.071C-83.4532 142.746 -80.8927 142.059 -80.8927 140.124V140.124C-80.8927 139.781 -80.7992 139.444 -80.6222 139.15L-76.6091 132.476C-76.5435 132.367 -76.4677 132.265 -76.3826 132.17L-74.6905 130.287C-73.7472 129.238 -72.043 129.469 -71.4132 130.732L-68.6247 136.324C-68.4811 136.611 -68.2702 136.86 -68.0099 137.049L-65.7037 138.724C-64.3816 139.683 -62.5288 138.739 -62.5288 137.105V132.312V131.231C-62.5288 129.77 -61.0139 128.802 -59.6884 129.416L-56.2748 130.997C-54.9493 131.611 -53.4344 130.643 -53.4344 129.182V126.404C-53.4344 126.057 -53.3439 125.715 -53.1718 125.414L-46.9256 114.459L-43.0843 105.848C-42.9699 105.591 -42.9108 105.314 -42.9108 105.033V99.6583C-42.9108 97.8353 -40.671 96.9628 -39.4378 98.3054L-37.9107 99.968C-37.5864 100.321 -37.4065 100.783 -37.4065 101.262V101.262C-37.4065 103.198 -34.8614 103.909 -33.8575 102.255L-27.52 91.8074L-23.4474 86.6476C-22.6903 85.6885 -21.2576 85.6264 -20.4205 86.5166L-17.5547 89.5641C-17.2771 89.8593 -16.9163 90.0632 -16.5202 90.1488L-10.4237 91.4664C-9.50315 91.6654 -8.84615 92.4795 -8.84615 93.4213V99.6411C-8.84615 100.199 -8.6128 100.732 -8.20252 101.111L-3.97947 105.008C-3.6624 105.301 -3.44845 105.688 -3.36956 106.112L-0.420079 121.972C-0.119779 123.586 1.89111 124.171 3.01015 122.969L4.41449 121.46C5.12124 120.701 6.29118 120.608 7.10892 121.246L9.47483 123.092C10.245 123.693 11.3367 123.65 12.0568 122.99L19.3756 116.28L22.6622 113.405C23.6186 112.568 25.1026 112.824 25.7239 113.932L29.092 119.943C29.1574 120.059 29.2343 120.169 29.3215 120.27L33.6646 125.311C33.9773 125.674 34.1494 126.138 34.1494 126.617V131.563C34.1494 132.046 34.3243 132.513 34.642 132.877L36.6179 135.143C37.4274 136.071 38.8755 136.054 39.663 135.107L42.1912 132.068C43.067 131.015 44.7182 131.133 45.434 132.301L47.8735 136.281C48.0663 136.595 48.1684 136.957 48.1684 137.326V139.967C48.1684 140.631 48.4979 141.251 49.0478 141.623L52.3599 143.864C52.9098 144.236 53.2393 144.856 53.2393 145.52V149.236C53.2393 151.095 55.5549 151.948 56.7612 150.534L61.4625 145.019C61.7711 144.657 61.9406 144.197 61.9406 143.722V133.46C61.9406 132.749 62.3177 132.092 62.9311 131.733L72.6875 126.029C72.8628 125.926 73.0215 125.798 73.1581 125.647L76.2582 122.236C77.3948 120.986 79.4751 121.79 79.4751 123.48V123.48C79.4751 123.903 79.6202 124.313 79.8863 124.642L84.0034 129.734C84.1046 129.859 84.2206 129.971 84.3487 130.069L87.3715 132.365C88.3685 133.122 89.8083 132.788 90.3693 131.668L93.1537 126.113C93.233 125.954 93.333 125.807 93.451 125.675L96.9712 121.74C97.7517 120.867 99.1116 120.848 99.9157 121.699L101.669 123.556C102.02 123.927 102.215 124.418 102.215 124.929V138.241C102.215 139.061 102.716 139.798 103.478 140.1L108.154 141.954C109.467 142.475 110.891 141.507 110.891 140.095V134.313C110.891 133.99 110.969 133.673 111.118 133.387L116.626 122.85C116.72 122.669 116.842 122.504 116.986 122.36L117.248 122.099C118.508 120.842 120.66 121.735 120.66 123.516V134.192C120.66 134.935 121.071 135.616 121.729 135.962L125.952 138.184C126.061 138.241 126.164 138.308 126.26 138.384L130.709 141.895C131.528 142.541 132.706 142.45 133.415 141.685L137.979 136.762L141.615 133.807C142.577 133.026 144.01 133.298 144.619 134.377L149.244 142.582C149.413 142.882 149.501 143.22 149.501 143.564V148.967C149.501 149.704 149.906 150.381 150.555 150.729L156.481 153.911C157.302 154.352 158.319 154.167 158.932 153.465L164.266 147.365C164.377 147.238 164.503 147.126 164.642 147.03L168.749 144.221C169.69 143.577 170.978 143.85 171.579 144.819L174.708 149.873C174.827 150.065 174.977 150.236 175.153 150.377L180.467 154.664L185.133 159.086C185.834 159.751 186.91 159.819 187.69 159.248L193.952 154.664L201.513 150.463C202.846 149.722 204.484 150.686 204.484 152.211V156.104C204.484 156.946 205.011 157.698 205.803 157.984L211.464 160.034C211.825 160.164 212.141 160.396 212.374 160.701L215.639 164.981C216.341 165.901 217.675 166.035 218.546 165.273L223.391 161.036C223.955 160.543 224.746 160.406 225.442 160.681L230.879 162.827C230.97 162.863 231.058 162.905 231.143 162.954L239.497 167.767C240.484 168.335 241.745 167.966 242.27 166.956L247.07 157.726C247.146 157.58 247.239 157.445 247.348 157.322L251.345 152.811C251.861 152.229 252.669 151.999 253.415 152.222L260.687 154.397C261.254 154.566 261.867 154.476 262.361 154.15L272.758 147.291C272.875 147.213 273.001 147.148 273.132 147.097L282.262 143.536C283.03 143.236 283.536 142.497 283.536 141.673V136.471C283.536 135.802 283.87 135.177 284.427 134.806L290.867 130.516C291.423 130.145 291.758 129.52 291.758 128.851V124.864C291.758 124.392 291.924 123.936 292.228 123.575L295.868 119.255C296.171 118.895 296.338 118.438 296.338 117.967V112.559C296.338 112.059 296.526 111.576 296.864 111.207L300.696 107.03C301.477 106.179 302.814 106.164 303.614 106.998L307.257 110.798C307.825 111.391 308.699 111.576 309.459 111.264L334.257 101.098C335.094 100.755 336.056 101.016 336.605 101.734L340.146 106.366C340.891 107.341 342.33 107.421 343.179 106.536L348.394 101.097C348.751 100.725 348.95 100.229 348.95 99.713V83.5924C348.95 83.2669 349.03 82.9464 349.182 82.6586L355.224 71.2159L359.462 61.8448C360.072 60.4955 361.886 60.2543 362.828 61.397L365.415 64.5371C365.609 64.7723 365.747 65.0488 365.817 65.3453L369.739 81.8001L371.534 97.94C371.778 100.127 374.859 100.375 375.449 98.2548L379.823 82.5253C379.953 82.0578 380.248 81.6535 380.654 81.3878L383.197 79.7233C384.527 78.8525 386.292 79.8068 386.292 81.3966V97.4642C386.292 98.9051 387.77 99.8732 389.091 99.2978L395.071 96.6926C395.356 96.5686 395.608 96.3801 395.807 96.1419L400.916 90.0315C401.217 89.6717 401.382 89.2176 401.382 88.7486V82.87C401.382 82.2015 401.716 81.5773 402.272 81.2063L406.049 78.6862C406.894 78.1223 408.027 78.2817 408.684 79.0567L411.635 82.5372C411.941 82.8985 412.109 83.3568 412.109 83.8304V91.2803C412.109 91.3921 412.118 91.5038 412.137 91.6141L414.875 107.782C415.215 109.795 417.998 110.064 418.718 108.153L420.939 102.261C421.039 101.994 421.196 101.751 421.399 101.55L425.236 97.7269C425.941 97.0251 427.054 96.9475 427.849 97.5449L431.006 99.9169C431.509 100.295 431.804 100.887 431.804 101.516V103.278C431.804 103.879 432.075 104.449 432.542 104.828L435.848 107.521C437.038 108.489 438.83 107.814 439.084 106.301L442.958 83.2401C442.974 83.1447 442.997 83.0506 443.027 82.9585L447.597 68.7637C447.743 68.3097 448.047 67.9228 448.453 67.673L452.707 65.0577C452.883 64.9496 453.041 64.815 453.175 64.6586L454.599 63.0043C455.809 61.5983 458.115 62.454 458.115 64.3088V75.7278V78.276C458.115 79.8288 459.807 80.7893 461.14 79.9931L464.606 77.923C464.856 77.774 465.07 77.5723 465.234 77.3321L468.251 72.9035C469.253 71.4339 471.551 72.1426 471.551 73.9209V73.9209C471.551 74.9188 472.36 75.7278 473.358 75.7278H480.293C481.398 75.7278 482.293 76.6232 482.293 77.7278V86.4319C482.293 86.7513 482.37 87.0661 482.516 87.3499L486.797 95.6368C487.654 97.2955 490.115 96.9796 490.525 95.1583L493.248 83.07C493.659 81.247 496.123 80.9329 496.978 82.5947L503.911 96.0735C504.056 96.3564 504.132 96.6701 504.132 96.9883V103.824C504.132 105.099 505.308 106.048 506.554 105.779L512.461 104.504C513.238 104.337 514.041 104.645 514.506 105.29L519.198 111.803C520.165 113.145 522.25 112.8 522.733 111.219L525.762 101.305C525.917 100.8 526.264 100.377 526.729 100.127L531.409 97.6162C532.496 97.0332 533.846 97.5625 534.246 98.7285L534.889 100.599C535.567 102.571 538.433 102.319 538.756 100.259L540.017 92.2186C540.228 90.8692 541.7 90.1242 542.913 90.7527L543.4 91.0052C543.94 91.2853 544.579 91.304 545.135 91.0562L552.235 87.891C553.372 87.3839 554.692 88.0287 554.991 89.2378L556.866 96.8244C557.135 97.9125 558.245 98.5671 559.327 98.2756L565.044 96.7359C565.592 96.5884 566.177 96.6805 566.653 96.9893L572.661 100.888C573.512 101.44 574.641 101.268 575.289 100.488L581.111 93.4745C581.173 93.4002 581.229 93.3215 581.279 93.239L585.029 87.0973C585.102 86.9781 585.187 86.8669 585.283 86.7654L591.73 79.9468C592.727 78.8916 594.481 79.2179 595.033 80.5612L595.918 82.7181C596.691 84.6003 599.454 84.2607 599.748 82.2475L602.334 64.5329C602.573 62.8959 604.583 62.2404 605.741 63.4216L608.111 65.8381C609.13 66.8778 610.883 66.5144 611.406 65.1551L621.215 39.6244C622.1 37.3209 625.556 38.3499 625.037 40.7624L621.002 59.5182C620.864 60.159 621.049 60.8268 621.496 61.3054L627.167 67.3648C628.178 68.4456 629.972 68.0914 630.497 66.7073L642.416 35.2703C643.235 33.1093 646.458 33.8292 646.28 36.1334L644.394 60.5413V67.4495C644.394 67.8475 644.513 68.2365 644.735 68.5666L648.735 74.5064C649.639 75.8493 651.681 75.6174 652.261 74.1059L655.8 64.8825C656.502 63.0532 659.143 63.2198 659.61 65.1228L661.972 74.7556C662.122 75.3675 662.551 75.873 663.131 76.1197L671.074 79.499C671.407 79.6406 671.695 79.8697 671.908 80.1619L674.23 83.3506C675.243 84.7403 677.421 84.2897 677.798 82.6125L682.079 63.6036C682.103 63.4962 682.136 63.391 682.177 63.289L687.645 49.8534C687.865 49.3118 688.312 48.8938 688.867 48.7094L695.981 46.3451C697.79 45.7438 699.334 47.7745 698.272 49.3576L692.86 57.4217C692.289 58.2724 692.453 59.4169 693.24 60.0727L696.915 63.1348C697.958 64.0039 699.545 63.6034 700.051 62.3435L707.999 42.5481C708.898 40.3101 712.257 41.2814 711.823 43.6536L700.026 108.056C699.662 110.044 702.287 111.099 703.4 109.413V109.413C704.065 108.405 705.499 108.291 706.316 109.18L707.945 110.955C709.178 112.299 711.419 111.426 711.419 109.603V97.7129C711.419 97.2794 711.559 96.8576 711.82 96.5111L720.477 84.9961C721.417 83.7454 723.365 84.0102 723.937 85.4667L728.485 97.0449L731.228 103.702C731.357 104.015 731.562 104.289 731.826 104.501L735.482 107.43L740.977 112.648C742.019 113.638 743.733 113.239 744.23 111.891L747.385 103.346C747.922 101.893 749.835 101.575 750.813 102.777L752.888 105.328C753.737 106.372 755.355 106.296 756.103 105.177L760.444 98.6765C761.05 97.7704 762.269 97.5155 763.186 98.1033L767.86 101.097C769.119 101.903 770.785 101.094 770.929 99.6055L772.592 82.4264C772.611 82.233 772.657 82.0433 772.731 81.8634L778.265 68.3023C778.95 66.6244 781.334 66.6493 781.984 68.3413L783.556 72.4362C784.199 74.1128 786.555 74.1574 787.261 72.5064L794.681 55.1685C794.811 54.8664 795.013 54.6008 795.269 54.3952L798.241 52.0118C799.174 51.2636 800.55 51.496 801.186 52.5089L803.935 56.8887C804.11 57.1688 804.353 57.401 804.641 57.5644L810.801 61.0655C811.427 61.421 811.813 62.085 811.813 62.8044V74.853C811.813 75.2598 811.937 75.657 812.169 75.9915L821.45 89.3959C821.53 89.5116 821.622 89.6185 821.725 89.7148L826.457 94.1618C827.243 94.9004 828.473 94.8826 829.238 94.1216L838.985 84.4169C839.15 84.2528 839.342 84.1187 839.553 84.0206L844.804 81.5789C845.807 81.1125 846.998 81.5488 847.462 82.5527L851.653 91.6119C851.713 91.7418 851.787 91.8649 851.874 91.9791L854.94 96.0313C855.408 96.6499 856.192 96.942 856.95 96.7808L861.717 95.7681C862.517 95.5981 863.34 95.9328 863.795 96.6133L868.674 103.914C868.791 104.089 868.935 104.245 869.1 104.375L875.651 109.529C876.558 110.243 877.879 110.043 878.534 109.093L884.769 100.056L890 91.8074" stroke="#2947F2" stroke-width="2"/>
<path d="M3.05 214.15C2.60667 214.15 2.20667 214.047 1.85 213.84C1.49667 213.633 1.21667 213.353 1.01 213C0.803333 212.643 0.7 212.243 0.7 211.8V209C0.7 208.557 0.803333 208.158 1.01 207.805C1.21667 207.448 1.49667 207.167 1.85 206.96C2.20667 206.753 2.60667 206.65 3.05 206.65C3.49333 206.65 3.89167 206.753 4.245 206.96C4.60167 207.167 4.88333 207.448 5.09 207.805C5.29667 208.158 5.4 208.557 5.4 209V211.8C5.4 212.243 5.29667 212.643 5.09 213C4.88333 213.353 4.60167 213.633 4.245 213.84C3.89167 214.047 3.49333 214.15 3.05 214.15ZM3.05 213.44C3.34667 213.44 3.61667 213.368 3.86 213.225C4.10333 213.078 4.29667 212.883 4.44 212.64C4.58333 212.397 4.655 212.128 4.655 211.835V208.965C4.655 208.668 4.58333 208.398 4.44 208.155C4.29667 207.912 4.10333 207.718 3.86 207.575C3.61667 207.428 3.34667 207.355 3.05 207.355C2.75333 207.355 2.48333 207.428 2.24 207.575C1.99667 207.718 1.80333 207.912 1.66 208.155C1.51667 208.398 1.445 208.668 1.445 208.965V211.835C1.445 212.128 1.51667 212.397 1.66 212.64C1.80333 212.883 1.99667 213.078 2.24 213.225C2.48333 213.368 2.75333 213.44 3.05 213.44ZM8.05852 214V207.62L6.70352 208.435V207.61L8.05852 206.8H8.80352V214H8.05852ZM12.52 206.8H13.275L11.355 214H10.6L12.52 206.8ZM16.927 214.15C16.4836 214.15 16.0836 214.047 15.727 213.84C15.3736 213.633 15.0936 213.353 14.887 213C14.6803 212.643 14.577 212.243 14.577 211.8V209C14.577 208.557 14.6803 208.158 14.887 207.805C15.0936 207.448 15.3736 207.167 15.727 206.96C16.0836 206.753 16.4836 206.65 16.927 206.65C17.3703 206.65 17.7686 206.753 18.122 206.96C18.4786 207.167 18.7603 207.448 18.967 207.805C19.1736 208.158 19.277 208.557 19.277 209V211.8C19.277 212.243 19.1736 212.643 18.967 213C18.7603 213.353 18.4786 213.633 18.122 213.84C17.7686 214.047 17.3703 214.15 16.927 214.15ZM16.927 213.44C17.2236 213.44 17.4936 213.368 17.737 213.225C17.9803 213.078 18.1736 212.883 18.317 212.64C18.4603 212.397 18.532 212.128 18.532 211.835V208.965C18.532 208.668 18.4603 208.398 18.317 208.155C18.1736 207.912 17.9803 207.718 17.737 207.575C17.4936 207.428 17.2236 207.355 16.927 207.355C16.6303 207.355 16.3603 207.428 16.117 207.575C15.8736 207.718 15.6803 207.912 15.537 208.155C15.3936 208.398 15.322 208.668 15.322 208.965V211.835C15.322 212.128 15.3936 212.397 15.537 212.64C15.6803 212.883 15.8736 213.078 16.117 213.225C16.3603 213.368 16.6303 213.44 16.927 213.44ZM22.8755 214.15C22.4255 214.15 22.0271 214.06 21.6805 213.88C21.3371 213.7 21.0671 213.448 20.8705 213.125C20.6771 212.798 20.5805 212.417 20.5805 211.98C20.5805 211.533 20.6888 211.137 20.9055 210.79C21.1221 210.44 21.4521 210.175 21.8955 209.995L21.8855 210.285C21.5155 210.148 21.2338 209.925 21.0405 209.615C20.8471 209.305 20.7505 208.962 20.7505 208.585C20.7505 208.185 20.8421 207.842 21.0255 207.555C21.2088 207.265 21.4588 207.042 21.7755 206.885C22.0955 206.728 22.4621 206.65 22.8755 206.65C23.2888 206.65 23.6555 206.728 23.9755 206.885C24.2955 207.042 24.5471 207.265 24.7305 207.555C24.9138 207.842 25.0055 208.185 25.0055 208.585C25.0055 208.962 24.9121 209.303 24.7255 209.61C24.5421 209.917 24.2605 210.142 23.8805 210.285L23.8555 209.995C24.2988 210.172 24.6305 210.435 24.8505 210.785C25.0738 211.135 25.1855 211.533 25.1855 211.98C25.1855 212.417 25.0871 212.798 24.8905 213.125C24.6938 213.448 24.4221 213.7 24.0755 213.88C23.7288 214.06 23.3288 214.15 22.8755 214.15ZM22.8755 213.445C23.3288 213.445 23.6971 213.32 23.9805 213.07C24.2638 212.817 24.4055 212.453 24.4055 211.98C24.4055 211.5 24.2655 211.137 23.9855 210.89C23.7055 210.64 23.3355 210.515 22.8755 210.515C22.4155 210.515 22.0471 210.64 21.7705 210.89C21.4938 211.137 21.3555 211.5 21.3555 211.98C21.3555 212.453 21.4955 212.817 21.7755 213.07C22.0555 213.32 22.4221 213.445 22.8755 213.445ZM22.8755 209.805C23.2755 209.805 23.6005 209.703 23.8505 209.5C24.1005 209.293 24.2255 208.988 24.2255 208.585C24.2255 208.182 24.1005 207.88 23.8505 207.68C23.6005 207.477 23.2755 207.375 22.8755 207.375C22.4755 207.375 22.1505 207.477 21.9005 207.68C21.6538 207.88 21.5305 208.182 21.5305 208.585C21.5305 208.988 21.6538 209.293 21.9005 209.5C22.1505 209.703 22.4755 209.805 22.8755 209.805Z" fill="#5B5B66"/>
<path d="M77.05 214.15C76.6067 214.15 76.2067 214.047 75.85 213.84C75.4967 213.633 75.2167 213.353 75.01 213C74.8033 212.643 74.7 212.243 74.7 211.8V209C74.7 208.557 74.8033 208.158 75.01 207.805C75.2167 207.448 75.4967 207.167 75.85 206.96C76.2067 206.753 76.6067 206.65 77.05 206.65C77.4933 206.65 77.8917 206.753 78.245 206.96C78.6017 207.167 78.8833 207.448 79.09 207.805C79.2967 208.158 79.4 208.557 79.4 209V211.8C79.4 212.243 79.2967 212.643 79.09 213C78.8833 213.353 78.6017 213.633 78.245 213.84C77.8917 214.047 77.4933 214.15 77.05 214.15ZM77.05 213.44C77.3467 213.44 77.6167 213.368 77.86 213.225C78.1033 213.078 78.2967 212.883 78.44 212.64C78.5833 212.397 78.655 212.128 78.655 211.835V208.965C78.655 208.668 78.5833 208.398 78.44 208.155C78.2967 207.912 78.1033 207.718 77.86 207.575C77.6167 207.428 77.3467 207.355 77.05 207.355C76.7533 207.355 76.4833 207.428 76.24 207.575C75.9967 207.718 75.8033 207.912 75.66 208.155C75.5167 208.398 75.445 208.668 75.445 208.965V211.835C75.445 212.128 75.5167 212.397 75.66 212.64C75.8033 212.883 75.9967 213.078 76.24 213.225C76.4833 213.368 76.7533 213.44 77.05 213.44ZM82.0585 214V207.62L80.7035 208.435V207.61L82.0585 206.8H82.8035V214H82.0585ZM86.52 206.8H87.275L85.355 214H84.6L86.52 206.8ZM90.927 214.15C90.4836 214.15 90.0836 214.047 89.727 213.84C89.3736 213.633 89.0936 213.353 88.887 213C88.6803 212.643 88.577 212.243 88.577 211.8V209C88.577 208.557 88.6803 208.158 88.887 207.805C89.0936 207.448 89.3736 207.167 89.727 206.96C90.0836 206.753 90.4836 206.65 90.927 206.65C91.3703 206.65 91.7686 206.753 92.122 206.96C92.4786 207.167 92.7603 207.448 92.967 207.805C93.1736 208.158 93.277 208.557 93.277 209V211.8C93.277 212.243 93.1736 212.643 92.967 213C92.7603 213.353 92.4786 213.633 92.122 213.84C91.7686 214.047 91.3703 214.15 90.927 214.15ZM90.927 213.44C91.2236 213.44 91.4936 213.368 91.737 213.225C91.9803 213.078 92.1736 212.883 92.317 212.64C92.4603 212.397 92.532 212.128 92.532 211.835V208.965C92.532 208.668 92.4603 208.398 92.317 208.155C92.1736 207.912 91.9803 207.718 91.737 207.575C91.4936 207.428 91.2236 207.355 90.927 207.355C90.6303 207.355 90.3603 207.428 90.117 207.575C89.8736 207.718 89.6803 207.912 89.537 208.155C89.3936 208.398 89.322 208.668 89.322 208.965V211.835C89.322 212.128 89.3936 212.397 89.537 212.64C89.6803 212.883 89.8736 213.078 90.117 213.225C90.3603 213.368 90.6303 213.44 90.927 213.44ZM96.8755 214.15C96.4255 214.15 96.0271 214.06 95.6805 213.88C95.3371 213.7 95.0671 213.448 94.8705 213.125C94.6771 212.798 94.5805 212.417 94.5805 211.98C94.5805 211.533 94.6888 211.137 94.9055 210.79C95.1221 210.44 95.4521 210.175 95.8955 209.995L95.8855 210.285C95.5155 210.148 95.2338 209.925 95.0405 209.615C94.8471 209.305 94.7505 208.962 94.7505 208.585C94.7505 208.185 94.8421 207.842 95.0255 207.555C95.2088 207.265 95.4588 207.042 95.7755 206.885C96.0955 206.728 96.4621 206.65 96.8755 206.65C97.2888 206.65 97.6555 206.728 97.9755 206.885C98.2955 207.042 98.5471 207.265 98.7305 207.555C98.9138 207.842 99.0055 208.185 99.0055 208.585C99.0055 208.962 98.9121 209.303 98.7255 209.61C98.5421 209.917 98.2605 210.142 97.8805 210.285L97.8555 209.995C98.2988 210.172 98.6305 210.435 98.8505 210.785C99.0738 211.135 99.1855 211.533 99.1855 211.98C99.1855 212.417 99.0871 212.798 98.8905 213.125C98.6938 213.448 98.4221 213.7 98.0755 213.88C97.7288 214.06 97.3288 214.15 96.8755 214.15ZM96.8755 213.445C97.3288 213.445 97.6971 213.32 97.9805 213.07C98.2638 212.817 98.4055 212.453 98.4055 211.98C98.4055 211.5 98.2655 211.137 97.9855 210.89C97.7055 210.64 97.3355 210.515 96.8755 210.515C96.4155 210.515 96.0471 210.64 95.7705 210.89C95.4938 211.137 95.3555 211.5 95.3555 211.98C95.3555 212.453 95.4955 212.817 95.7755 213.07C96.0555 213.32 96.4221 213.445 96.8755 213.445ZM96.8755 209.805C97.2755 209.805 97.6005 209.703 97.8505 209.5C98.1005 209.293 98.2255 208.988 98.2255 208.585C98.2255 208.182 98.1005 207.88 97.8505 207.68C97.6005 207.477 97.2755 207.375 96.8755 207.375C96.4755 207.375 96.1505 207.477 95.9005 207.68C95.6538 207.88 95.5305 208.182 95.5305 208.585C95.5305 208.988 95.6538 209.293 95.9005 209.5C96.1505 209.703 96.4755 209.805 96.8755 209.805Z" fill="#5B5B66"/>
<path d="M151.05 214.15C150.607 214.15 150.207 214.047 149.85 213.84C149.497 213.633 149.217 213.353 149.01 213C148.803 212.643 148.7 212.243 148.7 211.8V209C148.7 208.557 148.803 208.158 149.01 207.805C149.217 207.448 149.497 207.167 149.85 206.96C150.207 206.753 150.607 206.65 151.05 206.65C151.493 206.65 151.892 206.753 152.245 206.96C152.602 207.167 152.883 207.448 153.09 207.805C153.297 208.158 153.4 208.557 153.4 209V211.8C153.4 212.243 153.297 212.643 153.09 213C152.883 213.353 152.602 213.633 152.245 213.84C151.892 214.047 151.493 214.15 151.05 214.15ZM151.05 213.44C151.347 213.44 151.617 213.368 151.86 213.225C152.103 213.078 152.297 212.883 152.44 212.64C152.583 212.397 152.655 212.128 152.655 211.835V208.965C152.655 208.668 152.583 208.398 152.44 208.155C152.297 207.912 152.103 207.718 151.86 207.575C151.617 207.428 151.347 207.355 151.05 207.355C150.753 207.355 150.483 207.428 150.24 207.575C149.997 207.718 149.803 207.912 149.66 208.155C149.517 208.398 149.445 208.668 149.445 208.965V211.835C149.445 212.128 149.517 212.397 149.66 212.64C149.803 212.883 149.997 213.078 150.24 213.225C150.483 213.368 150.753 213.44 151.05 213.44ZM156.059 214V207.62L154.704 208.435V207.61L156.059 206.8H156.804V214H156.059ZM160.52 206.8H161.275L159.355 214H158.6L160.52 206.8ZM164.927 214.15C164.484 214.15 164.084 214.047 163.727 213.84C163.374 213.633 163.094 213.353 162.887 213C162.68 212.643 162.577 212.243 162.577 211.8V209C162.577 208.557 162.68 208.158 162.887 207.805C163.094 207.448 163.374 207.167 163.727 206.96C164.084 206.753 164.484 206.65 164.927 206.65C165.37 206.65 165.769 206.753 166.122 206.96C166.479 207.167 166.76 207.448 166.967 207.805C167.174 208.158 167.277 208.557 167.277 209V211.8C167.277 212.243 167.174 212.643 166.967 213C166.76 213.353 166.479 213.633 166.122 213.84C165.769 214.047 165.37 214.15 164.927 214.15ZM164.927 213.44C165.224 213.44 165.494 213.368 165.737 213.225C165.98 213.078 166.174 212.883 166.317 212.64C166.46 212.397 166.532 212.128 166.532 211.835V208.965C166.532 208.668 166.46 208.398 166.317 208.155C166.174 207.912 165.98 207.718 165.737 207.575C165.494 207.428 165.224 207.355 164.927 207.355C164.63 207.355 164.36 207.428 164.117 207.575C163.874 207.718 163.68 207.912 163.537 208.155C163.394 208.398 163.322 208.668 163.322 208.965V211.835C163.322 212.128 163.394 212.397 163.537 212.64C163.68 212.883 163.874 213.078 164.117 213.225C164.36 213.368 164.63 213.44 164.927 213.44ZM170.875 214.15C170.425 214.15 170.027 214.06 169.68 213.88C169.337 213.7 169.067 213.448 168.87 213.125C168.677 212.798 168.58 212.417 168.58 211.98C168.58 211.533 168.689 211.137 168.905 210.79C169.122 210.44 169.452 210.175 169.895 209.995L169.885 210.285C169.515 210.148 169.234 209.925 169.04 209.615C168.847 209.305 168.75 208.962 168.75 208.585C168.75 208.185 168.842 207.842 169.025 207.555C169.209 207.265 169.459 207.042 169.775 206.885C170.095 206.728 170.462 206.65 170.875 206.65C171.289 206.65 171.655 206.728 171.975 206.885C172.295 207.042 172.547 207.265 172.73 207.555C172.914 207.842 173.005 208.185 173.005 208.585C173.005 208.962 172.912 209.303 172.725 209.61C172.542 209.917 172.26 210.142 171.88 210.285L171.855 209.995C172.299 210.172 172.63 210.435 172.85 210.785C173.074 211.135 173.185 211.533 173.185 211.98C173.185 212.417 173.087 212.798 172.89 213.125C172.694 213.448 172.422 213.7 172.075 213.88C171.729 214.06 171.329 214.15 170.875 214.15ZM170.875 213.445C171.329 213.445 171.697 213.32 171.98 213.07C172.264 212.817 172.405 212.453 172.405 211.98C172.405 211.5 172.265 211.137 171.985 210.89C171.705 210.64 171.335 210.515 170.875 210.515C170.415 210.515 170.047 210.64 169.77 210.89C169.494 211.137 169.355 211.5 169.355 211.98C169.355 212.453 169.495 212.817 169.775 213.07C170.055 213.32 170.422 213.445 170.875 213.445ZM170.875 209.805C171.275 209.805 171.6 209.703 171.85 209.5C172.1 209.293 172.225 208.988 172.225 208.585C172.225 208.182 172.1 207.88 171.85 207.68C171.6 207.477 171.275 207.375 170.875 207.375C170.475 207.375 170.15 207.477 169.9 207.68C169.654 207.88 169.53 208.182 169.53 208.585C169.53 208.988 169.654 209.293 169.9 209.5C170.15 209.703 170.475 209.805 170.875 209.805Z" fill="#5B5B66"/>
<path d="M225.05 214.15C224.607 214.15 224.207 214.047 223.85 213.84C223.497 213.633 223.217 213.353 223.01 213C222.803 212.643 222.7 212.243 222.7 211.8V209C222.7 208.557 222.803 208.158 223.01 207.805C223.217 207.448 223.497 207.167 223.85 206.96C224.207 206.753 224.607 206.65 225.05 206.65C225.493 206.65 225.892 206.753 226.245 206.96C226.602 207.167 226.883 207.448 227.09 207.805C227.297 208.158 227.4 208.557 227.4 209V211.8C227.4 212.243 227.297 212.643 227.09 213C226.883 213.353 226.602 213.633 226.245 213.84C225.892 214.047 225.493 214.15 225.05 214.15ZM225.05 213.44C225.347 213.44 225.617 213.368 225.86 213.225C226.103 213.078 226.297 212.883 226.44 212.64C226.583 212.397 226.655 212.128 226.655 211.835V208.965C226.655 208.668 226.583 208.398 226.44 208.155C226.297 207.912 226.103 207.718 225.86 207.575C225.617 207.428 225.347 207.355 225.05 207.355C224.753 207.355 224.483 207.428 224.24 207.575C223.997 207.718 223.803 207.912 223.66 208.155C223.517 208.398 223.445 208.668 223.445 208.965V211.835C223.445 212.128 223.517 212.397 223.66 212.64C223.803 212.883 223.997 213.078 224.24 213.225C224.483 213.368 224.753 213.44 225.05 213.44ZM230.059 214V207.62L228.704 208.435V207.61L230.059 206.8H230.804V214H230.059ZM234.52 206.8H235.275L233.355 214H232.6L234.52 206.8ZM238.927 214.15C238.484 214.15 238.084 214.047 237.727 213.84C237.374 213.633 237.094 213.353 236.887 213C236.68 212.643 236.577 212.243 236.577 211.8V209C236.577 208.557 236.68 208.158 236.887 207.805C237.094 207.448 237.374 207.167 237.727 206.96C238.084 206.753 238.484 206.65 238.927 206.65C239.37 206.65 239.769 206.753 240.122 206.96C240.479 207.167 240.76 207.448 240.967 207.805C241.174 208.158 241.277 208.557 241.277 209V211.8C241.277 212.243 241.174 212.643 240.967 213C240.76 213.353 240.479 213.633 240.122 213.84C239.769 214.047 239.37 214.15 238.927 214.15ZM238.927 213.44C239.224 213.44 239.494 213.368 239.737 213.225C239.98 213.078 240.174 212.883 240.317 212.64C240.46 212.397 240.532 212.128 240.532 211.835V208.965C240.532 208.668 240.46 208.398 240.317 208.155C240.174 207.912 239.98 207.718 239.737 207.575C239.494 207.428 239.224 207.355 238.927 207.355C238.63 207.355 238.36 207.428 238.117 207.575C237.874 207.718 237.68 207.912 237.537 208.155C237.394 208.398 237.322 208.668 237.322 208.965V211.835C237.322 212.128 237.394 212.397 237.537 212.64C237.68 212.883 237.874 213.078 238.117 213.225C238.36 213.368 238.63 213.44 238.927 213.44ZM244.875 214.15C244.425 214.15 244.027 214.06 243.68 213.88C243.337 213.7 243.067 213.448 242.87 213.125C242.677 212.798 242.58 212.417 242.58 211.98C242.58 211.533 242.689 211.137 242.905 210.79C243.122 210.44 243.452 210.175 243.895 209.995L243.885 210.285C243.515 210.148 243.234 209.925 243.04 209.615C242.847 209.305 242.75 208.962 242.75 208.585C242.75 208.185 242.842 207.842 243.025 207.555C243.209 207.265 243.459 207.042 243.775 206.885C244.095 206.728 244.462 206.65 244.875 206.65C245.289 206.65 245.655 206.728 245.975 206.885C246.295 207.042 246.547 207.265 246.73 207.555C246.914 207.842 247.005 208.185 247.005 208.585C247.005 208.962 246.912 209.303 246.725 209.61C246.542 209.917 246.26 210.142 245.88 210.285L245.855 209.995C246.299 210.172 246.63 210.435 246.85 210.785C247.074 211.135 247.185 211.533 247.185 211.98C247.185 212.417 247.087 212.798 246.89 213.125C246.694 213.448 246.422 213.7 246.075 213.88C245.729 214.06 245.329 214.15 244.875 214.15ZM244.875 213.445C245.329 213.445 245.697 213.32 245.98 213.07C246.264 212.817 246.405 212.453 246.405 211.98C246.405 211.5 246.265 211.137 245.985 210.89C245.705 210.64 245.335 210.515 244.875 210.515C244.415 210.515 244.047 210.64 243.77 210.89C243.494 211.137 243.355 211.5 243.355 211.98C243.355 212.453 243.495 212.817 243.775 213.07C244.055 213.32 244.422 213.445 244.875 213.445ZM244.875 209.805C245.275 209.805 245.6 209.703 245.85 209.5C246.1 209.293 246.225 208.988 246.225 208.585C246.225 208.182 246.1 207.88 245.85 207.68C245.6 207.477 245.275 207.375 244.875 207.375C244.475 207.375 244.15 207.477 243.9 207.68C243.654 207.88 243.53 208.182 243.53 208.585C243.53 208.988 243.654 209.293 243.9 209.5C244.15 209.703 244.475 209.805 244.875 209.805Z" fill="#5B5B66"/>
<path d="M299.05 214.15C298.607 214.15 298.207 214.047 297.85 213.84C297.497 213.633 297.217 213.353 297.01 213C296.803 212.643 296.7 212.243 296.7 211.8V209C296.7 208.557 296.803 208.158 297.01 207.805C297.217 207.448 297.497 207.167 297.85 206.96C298.207 206.753 298.607 206.65 299.05 206.65C299.493 206.65 299.892 206.753 300.245 206.96C300.602 207.167 300.883 207.448 301.09 207.805C301.297 208.158 301.4 208.557 301.4 209V211.8C301.4 212.243 301.297 212.643 301.09 213C300.883 213.353 300.602 213.633 300.245 213.84C299.892 214.047 299.493 214.15 299.05 214.15ZM299.05 213.44C299.347 213.44 299.617 213.368 299.86 213.225C300.103 213.078 300.297 212.883 300.44 212.64C300.583 212.397 300.655 212.128 300.655 211.835V208.965C300.655 208.668 300.583 208.398 300.44 208.155C300.297 207.912 300.103 207.718 299.86 207.575C299.617 207.428 299.347 207.355 299.05 207.355C298.753 207.355 298.483 207.428 298.24 207.575C297.997 207.718 297.803 207.912 297.66 208.155C297.517 208.398 297.445 208.668 297.445 208.965V211.835C297.445 212.128 297.517 212.397 297.66 212.64C297.803 212.883 297.997 213.078 298.24 213.225C298.483 213.368 298.753 213.44 299.05 213.44ZM304.059 214V207.62L302.704 208.435V207.61L304.059 206.8H304.804V214H304.059ZM308.52 206.8H309.275L307.355 214H306.6L308.52 206.8ZM312.927 214.15C312.484 214.15 312.084 214.047 311.727 213.84C311.374 213.633 311.094 213.353 310.887 213C310.68 212.643 310.577 212.243 310.577 211.8V209C310.577 208.557 310.68 208.158 310.887 207.805C311.094 207.448 311.374 207.167 311.727 206.96C312.084 206.753 312.484 206.65 312.927 206.65C313.37 206.65 313.769 206.753 314.122 206.96C314.479 207.167 314.76 207.448 314.967 207.805C315.174 208.158 315.277 208.557 315.277 209V211.8C315.277 212.243 315.174 212.643 314.967 213C314.76 213.353 314.479 213.633 314.122 213.84C313.769 214.047 313.37 214.15 312.927 214.15ZM312.927 213.44C313.224 213.44 313.494 213.368 313.737 213.225C313.98 213.078 314.174 212.883 314.317 212.64C314.46 212.397 314.532 212.128 314.532 211.835V208.965C314.532 208.668 314.46 208.398 314.317 208.155C314.174 207.912 313.98 207.718 313.737 207.575C313.494 207.428 313.224 207.355 312.927 207.355C312.63 207.355 312.36 207.428 312.117 207.575C311.874 207.718 311.68 207.912 311.537 208.155C311.394 208.398 311.322 208.668 311.322 208.965V211.835C311.322 212.128 311.394 212.397 311.537 212.64C311.68 212.883 311.874 213.078 312.117 213.225C312.36 213.368 312.63 213.44 312.927 213.44ZM318.875 214.15C318.425 214.15 318.027 214.06 317.68 213.88C317.337 213.7 317.067 213.448 316.87 213.125C316.677 212.798 316.58 212.417 316.58 211.98C316.58 211.533 316.689 211.137 316.905 210.79C317.122 210.44 317.452 210.175 317.895 209.995L317.885 210.285C317.515 210.148 317.234 209.925 317.04 209.615C316.847 209.305 316.75 208.962 316.75 208.585C316.75 208.185 316.842 207.842 317.025 207.555C317.209 207.265 317.459 207.042 317.775 206.885C318.095 206.728 318.462 206.65 318.875 206.65C319.289 206.65 319.655 206.728 319.975 206.885C320.295 207.042 320.547 207.265 320.73 207.555C320.914 207.842 321.005 208.185 321.005 208.585C321.005 208.962 320.912 209.303 320.725 209.61C320.542 209.917 320.26 210.142 319.88 210.285L319.855 209.995C320.299 210.172 320.63 210.435 320.85 210.785C321.074 211.135 321.185 211.533 321.185 211.98C321.185 212.417 321.087 212.798 320.89 213.125C320.694 213.448 320.422 213.7 320.075 213.88C319.729 214.06 319.329 214.15 318.875 214.15ZM318.875 213.445C319.329 213.445 319.697 213.32 319.98 213.07C320.264 212.817 320.405 212.453 320.405 211.98C320.405 211.5 320.265 211.137 319.985 210.89C319.705 210.64 319.335 210.515 318.875 210.515C318.415 210.515 318.047 210.64 317.77 210.89C317.494 211.137 317.355 211.5 317.355 211.98C317.355 212.453 317.495 212.817 317.775 213.07C318.055 213.32 318.422 213.445 318.875 213.445ZM318.875 209.805C319.275 209.805 319.6 209.703 319.85 209.5C320.1 209.293 320.225 208.988 320.225 208.585C320.225 208.182 320.1 207.88 319.85 207.68C319.6 207.477 319.275 207.375 318.875 207.375C318.475 207.375 318.15 207.477 317.9 207.68C317.654 207.88 317.53 208.182 317.53 208.585C317.53 208.988 317.654 209.293 317.9 209.5C318.15 209.703 318.475 209.805 318.875 209.805Z" fill="#5B5B66"/>
<path d="M373.05 214.15C372.607 214.15 372.207 214.047 371.85 213.84C371.497 213.633 371.217 213.353 371.01 213C370.803 212.643 370.7 212.243 370.7 211.8V209C370.7 208.557 370.803 208.158 371.01 207.805C371.217 207.448 371.497 207.167 371.85 206.96C372.207 206.753 372.607 206.65 373.05 206.65C373.493 206.65 373.892 206.753 374.245 206.96C374.602 207.167 374.883 207.448 375.09 207.805C375.297 208.158 375.4 208.557 375.4 209V211.8C375.4 212.243 375.297 212.643 375.09 213C374.883 213.353 374.602 213.633 374.245 213.84C373.892 214.047 373.493 214.15 373.05 214.15ZM373.05 213.44C373.347 213.44 373.617 213.368 373.86 213.225C374.103 213.078 374.297 212.883 374.44 212.64C374.583 212.397 374.655 212.128 374.655 211.835V208.965C374.655 208.668 374.583 208.398 374.44 208.155C374.297 207.912 374.103 207.718 373.86 207.575C373.617 207.428 373.347 207.355 373.05 207.355C372.753 207.355 372.483 207.428 372.24 207.575C371.997 207.718 371.803 207.912 371.66 208.155C371.517 208.398 371.445 208.668 371.445 208.965V211.835C371.445 212.128 371.517 212.397 371.66 212.64C371.803 212.883 371.997 213.078 372.24 213.225C372.483 213.368 372.753 213.44 373.05 213.44ZM378.059 214V207.62L376.704 208.435V207.61L378.059 206.8H378.804V214H378.059ZM382.52 206.8H383.275L381.355 214H380.6L382.52 206.8ZM386.927 214.15C386.484 214.15 386.084 214.047 385.727 213.84C385.374 213.633 385.094 213.353 384.887 213C384.68 212.643 384.577 212.243 384.577 211.8V209C384.577 208.557 384.68 208.158 384.887 207.805C385.094 207.448 385.374 207.167 385.727 206.96C386.084 206.753 386.484 206.65 386.927 206.65C387.37 206.65 387.769 206.753 388.122 206.96C388.479 207.167 388.76 207.448 388.967 207.805C389.174 208.158 389.277 208.557 389.277 209V211.8C389.277 212.243 389.174 212.643 388.967 213C388.76 213.353 388.479 213.633 388.122 213.84C387.769 214.047 387.37 214.15 386.927 214.15ZM386.927 213.44C387.224 213.44 387.494 213.368 387.737 213.225C387.98 213.078 388.174 212.883 388.317 212.64C388.46 212.397 388.532 212.128 388.532 211.835V208.965C388.532 208.668 388.46 208.398 388.317 208.155C388.174 207.912 387.98 207.718 387.737 207.575C387.494 207.428 387.224 207.355 386.927 207.355C386.63 207.355 386.36 207.428 386.117 207.575C385.874 207.718 385.68 207.912 385.537 208.155C385.394 208.398 385.322 208.668 385.322 208.965V211.835C385.322 212.128 385.394 212.397 385.537 212.64C385.68 212.883 385.874 213.078 386.117 213.225C386.36 213.368 386.63 213.44 386.927 213.44ZM392.875 214.15C392.425 214.15 392.027 214.06 391.68 213.88C391.337 213.7 391.067 213.448 390.87 213.125C390.677 212.798 390.58 212.417 390.58 211.98C390.58 211.533 390.689 211.137 390.905 210.79C391.122 210.44 391.452 210.175 391.895 209.995L391.885 210.285C391.515 210.148 391.234 209.925 391.04 209.615C390.847 209.305 390.75 208.962 390.75 208.585C390.75 208.185 390.842 207.842 391.025 207.555C391.209 207.265 391.459 207.042 391.775 206.885C392.095 206.728 392.462 206.65 392.875 206.65C393.289 206.65 393.655 206.728 393.975 206.885C394.295 207.042 394.547 207.265 394.73 207.555C394.914 207.842 395.005 208.185 395.005 208.585C395.005 208.962 394.912 209.303 394.725 209.61C394.542 209.917 394.26 210.142 393.88 210.285L393.855 209.995C394.299 210.172 394.63 210.435 394.85 210.785C395.074 211.135 395.185 211.533 395.185 211.98C395.185 212.417 395.087 212.798 394.89 213.125C394.694 213.448 394.422 213.7 394.075 213.88C393.729 214.06 393.329 214.15 392.875 214.15ZM392.875 213.445C393.329 213.445 393.697 213.32 393.98 213.07C394.264 212.817 394.405 212.453 394.405 211.98C394.405 211.5 394.265 211.137 393.985 210.89C393.705 210.64 393.335 210.515 392.875 210.515C392.415 210.515 392.047 210.64 391.77 210.89C391.494 211.137 391.355 211.5 391.355 211.98C391.355 212.453 391.495 212.817 391.775 213.07C392.055 213.32 392.422 213.445 392.875 213.445ZM392.875 209.805C393.275 209.805 393.6 209.703 393.85 209.5C394.1 209.293 394.225 208.988 394.225 208.585C394.225 208.182 394.1 207.88 393.85 207.68C393.6 207.477 393.275 207.375 392.875 207.375C392.475 207.375 392.15 207.477 391.9 207.68C391.654 207.88 391.53 208.182 391.53 208.585C391.53 208.988 391.654 209.293 391.9 209.5C392.15 209.703 392.475 209.805 392.875 209.805Z" fill="#5B5B66"/>
<path d="M447.05 214.15C446.607 214.15 446.207 214.047 445.85 213.84C445.497 213.633 445.217 213.353 445.01 213C444.803 212.643 444.7 212.243 444.7 211.8V209C444.7 208.557 444.803 208.158 445.01 207.805C445.217 207.448 445.497 207.167 445.85 206.96C446.207 206.753 446.607 206.65 447.05 206.65C447.493 206.65 447.892 206.753 448.245 206.96C448.602 207.167 448.883 207.448 449.09 207.805C449.297 208.158 449.4 208.557 449.4 209V211.8C449.4 212.243 449.297 212.643 449.09 213C448.883 213.353 448.602 213.633 448.245 213.84C447.892 214.047 447.493 214.15 447.05 214.15ZM447.05 213.44C447.347 213.44 447.617 213.368 447.86 213.225C448.103 213.078 448.297 212.883 448.44 212.64C448.583 212.397 448.655 212.128 448.655 211.835V208.965C448.655 208.668 448.583 208.398 448.44 208.155C448.297 207.912 448.103 207.718 447.86 207.575C447.617 207.428 447.347 207.355 447.05 207.355C446.753 207.355 446.483 207.428 446.24 207.575C445.997 207.718 445.803 207.912 445.66 208.155C445.517 208.398 445.445 208.668 445.445 208.965V211.835C445.445 212.128 445.517 212.397 445.66 212.64C445.803 212.883 445.997 213.078 446.24 213.225C446.483 213.368 446.753 213.44 447.05 213.44ZM452.059 214V207.62L450.704 208.435V207.61L452.059 206.8H452.804V214H452.059ZM456.52 206.8H457.275L455.355 214H454.6L456.52 206.8ZM460.927 214.15C460.484 214.15 460.084 214.047 459.727 213.84C459.374 213.633 459.094 213.353 458.887 213C458.68 212.643 458.577 212.243 458.577 211.8V209C458.577 208.557 458.68 208.158 458.887 207.805C459.094 207.448 459.374 207.167 459.727 206.96C460.084 206.753 460.484 206.65 460.927 206.65C461.37 206.65 461.769 206.753 462.122 206.96C462.479 207.167 462.76 207.448 462.967 207.805C463.174 208.158 463.277 208.557 463.277 209V211.8C463.277 212.243 463.174 212.643 462.967 213C462.76 213.353 462.479 213.633 462.122 213.84C461.769 214.047 461.37 214.15 460.927 214.15ZM460.927 213.44C461.224 213.44 461.494 213.368 461.737 213.225C461.98 213.078 462.174 212.883 462.317 212.64C462.46 212.397 462.532 212.128 462.532 211.835V208.965C462.532 208.668 462.46 208.398 462.317 208.155C462.174 207.912 461.98 207.718 461.737 207.575C461.494 207.428 461.224 207.355 460.927 207.355C460.63 207.355 460.36 207.428 460.117 207.575C459.874 207.718 459.68 207.912 459.537 208.155C459.394 208.398 459.322 208.668 459.322 208.965V211.835C459.322 212.128 459.394 212.397 459.537 212.64C459.68 212.883 459.874 213.078 460.117 213.225C460.36 213.368 460.63 213.44 460.927 213.44ZM466.875 214.15C466.425 214.15 466.027 214.06 465.68 213.88C465.337 213.7 465.067 213.448 464.87 213.125C464.677 212.798 464.58 212.417 464.58 211.98C464.58 211.533 464.689 211.137 464.905 210.79C465.122 210.44 465.452 210.175 465.895 209.995L465.885 210.285C465.515 210.148 465.234 209.925 465.04 209.615C464.847 209.305 464.75 208.962 464.75 208.585C464.75 208.185 464.842 207.842 465.025 207.555C465.209 207.265 465.459 207.042 465.775 206.885C466.095 206.728 466.462 206.65 466.875 206.65C467.289 206.65 467.655 206.728 467.975 206.885C468.295 207.042 468.547 207.265 468.73 207.555C468.914 207.842 469.005 208.185 469.005 208.585C469.005 208.962 468.912 209.303 468.725 209.61C468.542 209.917 468.26 210.142 467.88 210.285L467.855 209.995C468.299 210.172 468.63 210.435 468.85 210.785C469.074 211.135 469.185 211.533 469.185 211.98C469.185 212.417 469.087 212.798 468.89 213.125C468.694 213.448 468.422 213.7 468.075 213.88C467.729 214.06 467.329 214.15 466.875 214.15ZM466.875 213.445C467.329 213.445 467.697 213.32 467.98 213.07C468.264 212.817 468.405 212.453 468.405 211.98C468.405 211.5 468.265 211.137 467.985 210.89C467.705 210.64 467.335 210.515 466.875 210.515C466.415 210.515 466.047 210.64 465.77 210.89C465.494 211.137 465.355 211.5 465.355 211.98C465.355 212.453 465.495 212.817 465.775 213.07C466.055 213.32 466.422 213.445 466.875 213.445ZM466.875 209.805C467.275 209.805 467.6 209.703 467.85 209.5C468.1 209.293 468.225 208.988 468.225 208.585C468.225 208.182 468.1 207.88 467.85 207.68C467.6 207.477 467.275 207.375 466.875 207.375C466.475 207.375 466.15 207.477 465.9 207.68C465.654 207.88 465.53 208.182 465.53 208.585C465.53 208.988 465.654 209.293 465.9 209.5C466.15 209.703 466.475 209.805 466.875 209.805Z" fill="#5B5B66"/>
<line x1="456.5" y1="203" x2="456.5" y2="52" stroke="#E8E8E8" stroke-dasharray="3 3"/>
<line x1="382.5" y1="203" x2="382.5" y2="52" stroke="#E8E8E8" stroke-dasharray="3 3"/>
<line x1="308.5" y1="203" x2="308.5" y2="52" stroke="#E8E8E8" stroke-dasharray="3 3"/>
<line x1="235.5" y1="203" x2="235.5" y2="52" stroke="#E8E8E8" stroke-dasharray="3 3"/>
<line x1="160.5" y1="203" x2="160.5" y2="52" stroke="#E8E8E8" stroke-dasharray="3 3"/>
<line x1="86.5" y1="203" x2="86.5" y2="52" stroke="#E8E8E8" stroke-dasharray="3 3"/>
</g>
<path d="M498.162 169.174C497.734 169.174 497.34 169.098 496.98 168.946C496.62 168.794 496.31 168.578 496.05 168.298C495.79 168.014 495.6 167.676 495.48 167.284L496.32 167.032C496.464 167.46 496.7 167.784 497.028 168.004C497.36 168.224 497.734 168.33 498.15 168.322C498.534 168.314 498.864 168.228 499.14 168.064C499.42 167.9 499.634 167.672 499.782 167.38C499.93 167.088 500.004 166.75 500.004 166.366C500.004 165.778 499.832 165.306 499.488 164.95C499.148 164.59 498.698 164.41 498.138 164.41C497.982 164.41 497.818 164.432 497.646 164.476C497.474 164.516 497.314 164.574 497.166 164.65L496.722 163.948L500.082 160.846L500.226 161.206H495.822V160.36H500.814V161.218L497.886 164.014L497.874 163.666C498.474 163.59 499.002 163.658 499.458 163.87C499.914 164.082 500.27 164.406 500.526 164.842C500.786 165.274 500.916 165.782 500.916 166.366C500.916 166.918 500.796 167.406 500.556 167.83C500.32 168.25 499.994 168.58 499.578 168.82C499.162 169.056 498.69 169.174 498.162 169.174ZM502.641 169V167.974H503.667V169H502.641ZM505.982 169L509.162 161.218H505.16V160.36H510.104V161.218L506.93 169H505.982ZM514.363 169.18C513.831 169.18 513.351 169.056 512.923 168.808C512.499 168.56 512.163 168.224 511.915 167.8C511.667 167.372 511.543 166.892 511.543 166.36V163C511.543 162.468 511.667 161.99 511.915 161.566C512.163 161.138 512.499 160.8 512.923 160.552C513.351 160.304 513.831 160.18 514.363 160.18C514.895 160.18 515.373 160.304 515.797 160.552C516.225 160.8 516.563 161.138 516.811 161.566C517.059 161.99 517.183 162.468 517.183 163V166.36C517.183 166.892 517.059 167.372 516.811 167.8C516.563 168.224 516.225 168.56 515.797 168.808C515.373 169.056 514.895 169.18 514.363 169.18ZM514.363 168.328C514.719 168.328 515.043 168.242 515.335 168.07C515.627 167.894 515.859 167.66 516.031 167.368C516.203 167.076 516.289 166.754 516.289 166.402V162.958C516.289 162.602 516.203 162.278 516.031 161.986C515.859 161.694 515.627 161.462 515.335 161.29C515.043 161.114 514.719 161.026 514.363 161.026C514.007 161.026 513.683 161.114 513.391 161.29C513.099 161.462 512.867 161.694 512.695 161.986C512.523 162.278 512.437 162.602 512.437 162.958V166.402C512.437 166.754 512.523 167.076 512.695 167.368C512.867 167.66 513.099 167.894 513.391 168.07C513.683 168.242 514.007 168.328 514.363 168.328Z" fill="#3B3B44"/>
<path d="M498.162 119.174C497.734 119.174 497.34 119.098 496.98 118.946C496.62 118.794 496.31 118.578 496.05 118.298C495.79 118.014 495.6 117.676 495.48 117.284L496.32 117.032C496.464 117.46 496.7 117.784 497.028 118.004C497.36 118.224 497.734 118.33 498.15 118.322C498.534 118.314 498.864 118.228 499.14 118.064C499.42 117.9 499.634 117.672 499.782 117.38C499.93 117.088 500.004 116.75 500.004 116.366C500.004 115.778 499.832 115.306 499.488 114.95C499.148 114.59 498.698 114.41 498.138 114.41C497.982 114.41 497.818 114.432 497.646 114.476C497.474 114.516 497.314 114.574 497.166 114.65L496.722 113.948L500.082 110.846L500.226 111.206H495.822V110.36H500.814V111.218L497.886 114.014L497.874 113.666C498.474 113.59 499.002 113.658 499.458 113.87C499.914 114.082 500.27 114.406 500.526 114.842C500.786 115.274 500.916 115.782 500.916 116.366C500.916 116.918 500.796 117.406 500.556 117.83C500.32 118.25 499.994 118.58 499.578 118.82C499.162 119.056 498.69 119.174 498.162 119.174ZM502.641 119V117.974H503.667V119H502.641ZM505.982 119L509.162 111.218H505.16V110.36H510.104V111.218L506.93 119H505.982ZM514.093 119.18C513.645 119.18 513.231 119.088 512.851 118.904C512.471 118.72 512.147 118.466 511.879 118.142C511.611 117.818 511.419 117.446 511.303 117.026L512.149 116.798C512.225 117.11 512.363 117.38 512.563 117.608C512.763 117.832 512.997 118.006 513.265 118.13C513.537 118.254 513.821 118.316 514.117 118.316C514.501 118.316 514.845 118.224 515.149 118.04C515.457 117.852 515.701 117.604 515.881 117.296C516.061 116.988 516.151 116.65 516.151 116.282C516.151 115.902 516.057 115.56 515.869 115.256C515.681 114.948 515.433 114.704 515.125 114.524C514.817 114.344 514.481 114.254 514.117 114.254C513.709 114.254 513.357 114.344 513.061 114.524C512.765 114.7 512.529 114.922 512.353 115.19L511.549 114.854L511.813 110.36H516.427V111.206H512.203L512.641 110.792L512.407 114.626L512.185 114.332C512.433 114.048 512.733 113.826 513.085 113.666C513.437 113.506 513.807 113.426 514.195 113.426C514.727 113.426 515.207 113.554 515.635 113.81C516.063 114.062 516.403 114.404 516.655 114.836C516.907 115.268 517.033 115.75 517.033 116.282C517.033 116.81 516.899 117.294 516.631 117.734C516.363 118.17 516.007 118.52 515.563 118.784C515.119 119.048 514.629 119.18 514.093 119.18Z" fill="#3B3B44"/>
<path d="M498.162 69.174C497.734 69.174 497.34 69.098 496.98 68.946C496.62 68.794 496.31 68.578 496.05 68.298C495.79 68.014 495.6 67.676 495.48 67.284L496.32 67.032C496.464 67.46 496.7 67.784 497.028 68.004C497.36 68.224 497.734 68.33 498.15 68.322C498.534 68.314 498.864 68.228 499.14 68.064C499.42 67.9 499.634 67.672 499.782 67.38C499.93 67.088 500.004 66.75 500.004 66.366C500.004 65.778 499.832 65.306 499.488 64.95C499.148 64.59 498.698 64.41 498.138 64.41C497.982 64.41 497.818 64.432 497.646 64.476C497.474 64.516 497.314 64.574 497.166 64.65L496.722 63.948L500.082 60.846L500.226 61.206H495.822V60.36H500.814V61.218L497.886 64.014L497.874 63.666C498.474 63.59 499.002 63.658 499.458 63.87C499.914 64.082 500.27 64.406 500.526 64.842C500.786 65.274 500.916 65.782 500.916 66.366C500.916 66.918 500.796 67.406 500.556 67.83C500.32 68.25 499.994 68.58 499.578 68.82C499.162 69.056 498.69 69.174 498.162 69.174ZM502.641 69V67.974H503.667V69H502.641ZM508.154 69.18C507.614 69.18 507.136 69.072 506.72 68.856C506.308 68.64 505.984 68.338 505.748 67.95C505.516 67.558 505.4 67.1 505.4 66.576C505.4 66.04 505.53 65.564 505.79 65.148C506.05 64.728 506.446 64.41 506.978 64.194L506.966 64.542C506.522 64.378 506.184 64.11 505.952 63.738C505.72 63.366 505.604 62.954 505.604 62.502C505.604 62.022 505.714 61.61 505.934 61.266C506.154 60.918 506.454 60.65 506.834 60.462C507.218 60.274 507.658 60.18 508.154 60.18C508.65 60.18 509.09 60.274 509.474 60.462C509.858 60.65 510.16 60.918 510.38 61.266C510.6 61.61 510.71 62.022 510.71 62.502C510.71 62.954 510.598 63.364 510.374 63.732C510.154 64.1 509.816 64.37 509.36 64.542L509.33 64.194C509.862 64.406 510.26 64.722 510.524 65.142C510.792 65.562 510.926 66.04 510.926 66.576C510.926 67.1 510.808 67.558 510.572 67.95C510.336 68.338 510.01 68.64 509.594 68.856C509.178 69.072 508.698 69.18 508.154 69.18ZM508.154 68.334C508.698 68.334 509.14 68.184 509.48 67.884C509.82 67.58 509.99 67.144 509.99 66.576C509.99 66 509.822 65.564 509.486 65.268C509.15 64.968 508.706 64.818 508.154 64.818C507.602 64.818 507.16 64.968 506.828 65.268C506.496 65.564 506.33 66 506.33 66.576C506.33 67.144 506.498 67.58 506.834 67.884C507.17 68.184 507.61 68.334 508.154 68.334ZM508.154 63.966C508.634 63.966 509.024 63.844 509.324 63.6C509.624 63.352 509.774 62.986 509.774 62.502C509.774 62.018 509.624 61.656 509.324 61.416C509.024 61.172 508.634 61.05 508.154 61.05C507.674 61.05 507.284 61.172 506.984 61.416C506.688 61.656 506.54 62.018 506.54 62.502C506.54 62.986 506.688 63.352 506.984 63.6C507.284 63.844 507.674 63.966 508.154 63.966ZM515.301 69.18C514.769 69.18 514.289 69.056 513.861 68.808C513.437 68.56 513.101 68.224 512.853 67.8C512.605 67.372 512.481 66.892 512.481 66.36V63C512.481 62.468 512.605 61.99 512.853 61.566C513.101 61.138 513.437 60.8 513.861 60.552C514.289 60.304 514.769 60.18 515.301 60.18C515.833 60.18 516.311 60.304 516.735 60.552C517.163 60.8 517.501 61.138 517.749 61.566C517.997 61.99 518.121 62.468 518.121 63V66.36C518.121 66.892 517.997 67.372 517.749 67.8C517.501 68.224 517.163 68.56 516.735 68.808C516.311 69.056 515.833 69.18 515.301 69.18ZM515.301 68.328C515.657 68.328 515.981 68.242 516.273 68.07C516.565 67.894 516.797 67.66 516.969 67.368C517.141 67.076 517.227 66.754 517.227 66.402V62.958C517.227 62.602 517.141 62.278 516.969 61.986C516.797 61.694 516.565 61.462 516.273 61.29C515.981 61.114 515.657 61.026 515.301 61.026C514.945 61.026 514.621 61.114 514.329 61.29C514.037 61.462 513.805 61.694 513.633 61.986C513.461 62.278 513.375 62.602 513.375 62.958V66.402C513.375 66.754 513.461 67.076 513.633 67.368C513.805 67.66 514.037 67.894 514.329 68.07C514.621 68.242 514.945 68.328 515.301 68.328Z" fill="#3B3B44"/>
<defs>
<filter id="filter0_i_18808_194764" x="-192" y="33.9609" width="1082" height="242.039" filterUnits="userSpaceOnUse" color-interpolation-filters="sRGB">
<feFlood flood-opacity="0" result="BackgroundImageFix"/>
<feBlend mode="normal" in="SourceGraphic" in2="BackgroundImageFix" result="shape"/>
<feColorMatrix in="SourceAlpha" type="matrix" values="0 0 0 0 0 0 0 0 0 0 0 0 0 0 0 0 0 0 127 0" result="hardAlpha"/>
<feOffset dx="-10" dy="24"/>
<feGaussianBlur stdDeviation="22"/>
<feComposite in2="hardAlpha" operator="arithmetic" k2="-1" k3="1"/>
<feColorMatrix type="matrix" values="0 0 0 0 0.160784 0 0 0 0 0.278431 0 0 0 0 0.94902 0 0 0 0.04 0"/>
<feBlend mode="normal" in2="shape" result="effect1_innerShadow_18808_194764"/>
</filter>
<linearGradient id="paint0_linear_18808_194764" x1="354" y1="52.999" x2="354" y2="184.499" gradientUnits="userSpaceOnUse">
<stop stop-color="#2947F2" stop-opacity="0.11"/>
<stop offset="1" stop-color="#2947F2" stop-opacity="0"/>
</linearGradient>
<clipPath id="clip0_18808_194764">
<rect width="477" height="217" fill="white"/>
</clipPath>
</defs>
</svg>
