<svg width="9" height="9" viewBox="0 0 9 9" fill="none" xmlns="http://www.w3.org/2000/svg">
<path d="M2.05466 1.73269L2.05466 1.73269C1.65518 1.73268 1.33133 1.40883 1.33132 1.00935L1.33132 1.00935C1.33131 0.609864 1.65517 0.285993 2.05466 0.286002C2.05466 0.286002 2.05466 0.286003 2.05466 0.286002M2.05466 1.73269L2.05466 0.436002L2.05466 0.286002M2.05466 1.73269L5.98419 1.73269M2.05466 1.73269L5.98419 1.73269M2.05466 0.286002L7.73049 0.286003M2.05466 0.286002L7.73049 0.286003M7.73049 0.286003C7.73049 0.286003 7.7305 0.286003 7.7305 0.286003C7.92234 0.28599 8.10634 0.362225 8.24198 0.497864C8.37762 0.633503 8.45385 0.817506 8.45384 1.00934C8.45384 1.00935 8.45384 1.00935 8.45384 1.00936L8.45384 6.68518C8.45384 7.08466 8.12997 7.40852 7.7305 7.40852C7.33102 7.40852 7.00716 7.08466 7.00716 6.68518L7.00715 2.75566L1.75531 8.0075C1.47282 8.28999 1.01484 8.28999 0.732345 8.0075C0.449854 7.72501 0.449854 7.26702 0.732344 6.98453L5.98419 1.73269M7.73049 0.286003L5.98419 1.73269" fill="#D92D20" stroke="#D92D20" stroke-width="0.3"/>
</svg>
