<svg width="16" height="16" viewBox="0 0 16 16" fill="none" xmlns="http://www.w3.org/2000/svg">
<g id="Frame 3026">
<g id="XMLID_858_">
<g id="XMLID_30_">
<g id="XMLID_34_">
<path d="M14.9655 2.74971C14.9655 2.87588 14.9655 3.00205 14.9655 3.12822C14.9655 3.46689 14.9655 3.80391 14.9655 4.14258C14.9655 4.6373 14.9655 5.13037 14.9655 5.6251C14.9655 6.21611 14.9655 6.80547 14.9655 7.39648C14.9655 8.0207 14.9655 8.64658 14.9655 9.2708C14.9655 9.87676 14.9655 10.4844 14.9655 11.0903C14.9655 11.6149 14.9655 12.1396 14.9655 12.6642C14.9655 13.0526 14.9655 13.4411 14.9655 13.8296C14.9655 14.0205 14.9655 14.2114 14.9655 14.404C14.9655 14.414 14.9655 14.4239 14.9655 14.4339C14.9655 14.4604 14.9621 14.4887 14.9621 14.5152C14.9605 14.5617 14.9754 14.4505 14.9655 14.4953C14.9621 14.5069 14.9621 14.5169 14.9588 14.5285C14.9522 14.5567 14.9439 14.5866 14.9356 14.6148C14.9323 14.6248 14.9273 14.6348 14.924 14.6464C14.9123 14.6879 14.9555 14.5916 14.9306 14.6281C14.9173 14.6497 14.9073 14.6746 14.8941 14.6962C14.8824 14.7145 14.8708 14.7327 14.8592 14.751C14.8243 14.8041 14.8708 14.7344 14.8708 14.736C14.8725 14.7377 14.8443 14.7659 14.8426 14.7692C14.826 14.7875 14.8061 14.8041 14.7878 14.8224C14.7297 14.8788 14.826 14.8008 14.7795 14.8307C14.7579 14.8439 14.738 14.8589 14.7148 14.8722C14.7048 14.8771 14.6965 14.8838 14.6865 14.8888C14.6699 14.8971 14.6367 14.9286 14.6666 14.9004C14.6899 14.8788 14.6865 14.8938 14.665 14.9004C14.6517 14.9054 14.6367 14.9104 14.6235 14.9153C14.6019 14.922 14.5803 14.927 14.5587 14.9319C14.562 14.9319 14.5156 14.9419 14.5139 14.9402C14.5122 14.9386 14.5853 14.9336 14.5454 14.9353C14.5189 14.9369 14.4923 14.9386 14.4641 14.9386C14.4558 14.9386 14.4491 14.9386 14.4408 14.9386C14.2715 14.9386 14.1005 14.9386 13.9312 14.9386C13.5759 14.9386 13.2206 14.9386 12.8637 14.9386C12.3723 14.9386 11.8825 14.9386 11.3911 14.9386C10.8084 14.9386 10.2257 14.9386 9.64299 14.9386C9.02044 14.9386 8.39788 14.9386 7.77698 14.9386C7.15774 14.9386 6.5385 14.9386 5.91926 14.9386C5.35315 14.9386 4.7887 14.9386 4.22258 14.9386C3.76106 14.9386 3.29788 14.9386 2.83635 14.9386C2.52092 14.9386 2.20549 14.9386 1.89006 14.9386C1.77219 14.9386 1.65432 14.9402 1.53645 14.9386C1.52483 14.9386 1.51321 14.9386 1.50159 14.9386C1.48997 14.9386 1.47834 14.9369 1.46672 14.9369C1.40696 14.9336 1.48 14.9369 1.48665 14.9402C1.46838 14.9303 1.4302 14.9286 1.41028 14.9236C1.38206 14.9153 1.35383 14.9054 1.32561 14.8971C1.28909 14.8871 1.35715 14.907 1.35383 14.9087C1.35217 14.9104 1.31233 14.8871 1.31399 14.8888C1.29407 14.8788 1.27581 14.8672 1.25754 14.8556C1.24592 14.8473 1.2343 14.839 1.22102 14.8307C1.19944 14.8157 1.21106 14.8091 1.21936 14.8307C1.22434 14.8356 1.23098 14.839 1.23596 14.8439C1.22766 14.8373 1.21936 14.8307 1.21106 14.8224C1.2011 14.8124 1.18948 14.8024 1.17952 14.7925C1.17786 14.7908 1.12639 14.741 1.12805 14.736C1.12971 14.7344 1.1762 14.8041 1.13967 14.751C1.13303 14.7427 1.12805 14.7327 1.12141 14.7244C1.10813 14.7028 1.09485 14.6813 1.08323 14.658C1.07825 14.6497 1.07493 14.6364 1.06829 14.6281C1.0467 14.5982 1.09319 14.7012 1.07161 14.6364C1.05667 14.5899 1.04504 14.5435 1.03342 14.497C1.0218 14.4521 1.0384 14.5634 1.03674 14.5169C1.03674 14.5053 1.03508 14.4937 1.03342 14.482C1.03176 14.4671 1.03176 14.4505 1.03176 14.4355C1.03176 14.4007 1.03176 14.3658 1.03176 14.331C1.03176 14.0869 1.03176 13.8429 1.03176 13.5988C1.03176 13.1738 1.03176 12.7488 1.03176 12.3238C1.03176 11.7727 1.03176 11.2215 1.03176 10.6703C1.03176 10.0561 1.03176 9.4418 1.03176 8.82754C1.03176 8.20332 1.03176 7.5791 1.03176 6.95488C1.03176 6.38213 1.03176 5.80938 1.03176 5.23662C1.03176 4.77676 1.03176 4.31523 1.03176 3.85537C1.03176 3.56152 1.03176 3.26768 1.03176 2.97383C1.03176 2.90908 1.03176 2.84268 1.03176 2.77793C1.03176 2.76963 1.03176 2.75967 1.03176 2.75137C1.03176 2.73643 1.03176 2.71982 1.03342 2.70488C1.03342 2.70654 1.03508 2.66006 1.03674 2.6584C1.04006 2.65674 1.02346 2.72812 1.03342 2.68994C1.0384 2.66836 1.05667 2.53555 1.07991 2.52891C1.08489 2.52725 1.04836 2.59033 1.06829 2.55879C1.07659 2.54717 1.08157 2.53223 1.08821 2.52061C1.09983 2.49902 1.11311 2.47578 1.12805 2.45586C1.13469 2.44756 1.14133 2.43926 1.14631 2.4293C1.16458 2.39775 1.12971 2.45752 1.12805 2.4542C1.12473 2.44922 1.18118 2.39609 1.18616 2.39111C1.19612 2.38115 1.20774 2.37119 1.2177 2.36123C1.23596 2.34463 1.22766 2.33799 1.2177 2.35957C1.20442 2.38945 1.20442 2.36787 1.22766 2.35293C1.23596 2.34629 1.24592 2.34131 1.25422 2.33467C1.27581 2.32139 1.29905 2.30977 1.32063 2.29648C1.32229 2.29482 1.34885 2.28154 1.35051 2.28154C1.34885 2.27988 1.28411 2.30645 1.34221 2.28652C1.38538 2.27158 1.44348 2.26992 1.48333 2.25C1.4385 2.27158 1.42854 2.25498 1.4634 2.25332C1.47502 2.25332 1.48665 2.25166 1.49827 2.25166C1.50989 2.25166 1.52151 2.25166 1.53313 2.25166C1.54143 2.25166 1.55139 2.25166 1.55969 2.25166C1.62112 2.25166 1.68088 2.25166 1.74231 2.25166C2.01458 2.25166 2.28684 2.25166 2.55745 2.25166C2.98743 2.25166 3.41907 2.25166 3.84905 2.25166C4.39524 2.25166 4.93977 2.25166 5.48596 2.25166C6.09358 2.25166 6.7012 2.25166 7.30881 2.25166C7.93635 2.25166 8.56389 2.25166 9.19309 2.25166C9.79075 2.25166 10.3884 2.25166 10.9861 2.25166C11.5024 2.25166 12.0203 2.25166 12.5366 2.25166C12.9301 2.25166 13.3236 2.25166 13.717 2.25166C13.9362 2.25166 14.1536 2.25166 14.3728 2.25166C14.4027 2.25166 14.4325 2.25166 14.4624 2.25166C14.4757 2.25166 14.484 2.25166 14.4973 2.25166C14.5106 2.25166 14.5853 2.25996 14.5338 2.25332C14.479 2.24668 14.5654 2.26162 14.5786 2.26494C14.6035 2.27158 14.6284 2.27988 14.6533 2.28818C14.7247 2.31143 14.6152 2.26494 14.665 2.29316C14.6865 2.30645 14.7098 2.31641 14.7314 2.32969C14.7413 2.33633 14.7928 2.36289 14.7945 2.37285C14.7945 2.37949 14.7447 2.32471 14.7696 2.35459C14.7762 2.36289 14.7862 2.36953 14.7945 2.37617C14.8127 2.39277 14.8293 2.4127 14.8476 2.43096C14.904 2.48906 14.826 2.39277 14.8559 2.43926C14.8625 2.44922 14.9406 2.56211 14.9323 2.57041C14.9289 2.57373 14.9107 2.50566 14.9206 2.54219C14.924 2.55215 14.9289 2.56377 14.9323 2.57373C14.9406 2.59863 14.9472 2.62354 14.9538 2.64844C14.9572 2.66338 14.9588 2.67832 14.9638 2.69326C14.9738 2.73145 14.9572 2.66006 14.9605 2.66172C14.9704 2.66338 14.9655 2.73809 14.9655 2.74971C14.9671 2.92402 15.1165 3.09004 15.2975 3.08174C15.4751 3.07344 15.6328 2.93564 15.6295 2.74971C15.6229 2.21514 15.241 1.70713 14.7015 1.61084C14.5986 1.59258 14.499 1.58594 14.396 1.58594C14.1852 1.58594 13.976 1.58594 13.7652 1.58594C13.375 1.58594 12.9849 1.58594 12.5948 1.58594C12.0751 1.58594 11.5538 1.58594 11.0342 1.58594C10.4332 1.58594 9.83059 1.58594 9.22961 1.58594C8.59709 1.58594 7.96291 1.58594 7.3304 1.58594C6.71448 1.58594 6.09856 1.58594 5.48264 1.58594C4.93313 1.58594 4.38362 1.58594 3.83411 1.58594C3.40081 1.58594 2.9675 1.58594 2.53254 1.58594C2.2636 1.58594 1.99465 1.58594 1.72737 1.58594C1.67092 1.58594 1.61282 1.58594 1.55637 1.58594C1.2509 1.5876 0.962036 1.69551 0.736255 1.90469C0.497192 2.12549 0.372681 2.4459 0.371021 2.76797C0.371021 2.82773 0.371021 2.8875 0.371021 2.94727C0.371021 3.23447 0.371021 3.52168 0.371021 3.81055C0.371021 4.27207 0.371021 4.73359 0.371021 5.19678C0.371021 5.77285 0.371021 6.34893 0.371021 6.92334C0.371021 7.54922 0.371021 8.17676 0.371021 8.80264C0.371021 9.4252 0.371021 10.0478 0.371021 10.6703C0.371021 11.2265 0.371021 11.781 0.371021 12.3371C0.371021 12.7654 0.371021 13.1938 0.371021 13.6221C0.371021 13.8628 0.371021 14.1035 0.371021 14.3442C0.371021 14.3907 0.36936 14.4372 0.372681 14.4837C0.402563 15.0415 0.819263 15.513 1.37708 15.5877C1.53479 15.6093 1.69583 15.601 1.8552 15.601C2.16399 15.601 2.47444 15.601 2.78323 15.601C3.24641 15.601 3.70959 15.601 4.17444 15.601C4.74221 15.601 5.31165 15.601 5.87942 15.601C6.50364 15.601 7.12786 15.601 7.75208 15.601C8.38293 15.601 9.01379 15.601 9.64299 15.601C10.2307 15.601 10.8184 15.601 11.4061 15.601C11.9025 15.601 12.3972 15.601 12.8936 15.601C13.2472 15.601 13.6025 15.601 13.9561 15.601C14.1204 15.601 14.2831 15.601 14.4475 15.601C15.1049 15.5993 15.6262 15.0714 15.6295 14.4156C15.6295 14.233 15.6295 14.0521 15.6295 13.8694C15.6295 13.4859 15.6295 13.1024 15.6295 12.7206C15.6295 12.1927 15.6295 11.6647 15.6295 11.1368C15.6295 10.5259 15.6295 9.91494 15.6295 9.304C15.6295 8.67148 15.6295 8.0373 15.6295 7.40479C15.6295 6.80879 15.6295 6.21445 15.6295 5.61846C15.6295 5.12041 15.6295 4.62402 15.6295 4.12598C15.6295 3.7873 15.6295 3.44863 15.6295 3.10996C15.6295 2.99043 15.6295 2.86924 15.6295 2.74971C15.6295 2.57539 15.4768 2.40937 15.2975 2.41768C15.1182 2.42598 14.9655 2.56377 14.9655 2.74971Z" fill="black"/>
<path d="M14.9655 2.74971C14.9655 2.87588 14.9655 3.00205 14.9655 3.12822C14.9655 3.46689 14.9655 3.80391 14.9655 4.14258C14.9655 4.6373 14.9655 5.13037 14.9655 5.6251C14.9655 6.21611 14.9655 6.80547 14.9655 7.39648C14.9655 8.0207 14.9655 8.64658 14.9655 9.2708C14.9655 9.87676 14.9655 10.4844 14.9655 11.0903C14.9655 11.6149 14.9655 12.1396 14.9655 12.6642C14.9655 13.0526 14.9655 13.4411 14.9655 13.8296C14.9655 14.0205 14.9655 14.2114 14.9655 14.404C14.9655 14.414 14.9655 14.4239 14.9655 14.4339C14.9655 14.4604 14.9621 14.4887 14.9621 14.5152C14.9605 14.5617 14.9754 14.4505 14.9655 14.4953C14.9621 14.5069 14.9621 14.5169 14.9588 14.5285C14.9522 14.5567 14.9439 14.5866 14.9356 14.6148C14.9323 14.6248 14.9273 14.6348 14.924 14.6464C14.9123 14.6879 14.9555 14.5916 14.9306 14.6281C14.9173 14.6497 14.9073 14.6746 14.8941 14.6962C14.8824 14.7145 14.8708 14.7327 14.8592 14.751C14.8243 14.8041 14.8708 14.7344 14.8708 14.736C14.8725 14.7377 14.8443 14.7659 14.8426 14.7692C14.826 14.7875 14.8061 14.8041 14.7878 14.8224C14.7297 14.8788 14.826 14.8008 14.7795 14.8307C14.7579 14.8439 14.738 14.8589 14.7148 14.8722C14.7048 14.8771 14.6965 14.8838 14.6865 14.8888C14.6699 14.8971 14.6367 14.9286 14.6666 14.9004C14.6899 14.8788 14.6865 14.8937 14.665 14.9004C14.6517 14.9054 14.6367 14.9104 14.6235 14.9153C14.6019 14.922 14.5803 14.927 14.5587 14.9319C14.562 14.9319 14.5156 14.9419 14.5139 14.9402C14.5122 14.9386 14.5853 14.9336 14.5454 14.9353C14.5189 14.9369 14.4923 14.9386 14.4641 14.9386C14.4558 14.9386 14.4491 14.9386 14.4408 14.9386C14.2715 14.9386 14.1005 14.9386 13.9312 14.9386C13.5759 14.9386 13.2206 14.9386 12.8637 14.9386C12.3723 14.9386 11.8825 14.9386 11.3911 14.9386C10.8084 14.9386 10.2257 14.9386 9.64299 14.9386C9.02043 14.9386 8.39788 14.9386 7.77698 14.9386C7.15774 14.9386 6.5385 14.9386 5.91926 14.9386C5.35315 14.9386 4.7887 14.9386 4.22258 14.9386C3.76106 14.9386 3.29788 14.9386 2.83635 14.9386C2.52092 14.9386 2.20549 14.9386 1.89006 14.9386C1.77219 14.9386 1.65432 14.9402 1.53645 14.9386C1.52483 14.9386 1.51321 14.9386 1.50159 14.9386C1.48997 14.9386 1.47834 14.9369 1.46672 14.9369C1.40696 14.9336 1.48 14.9369 1.48665 14.9402C1.46838 14.9303 1.4302 14.9286 1.41028 14.9236C1.38206 14.9153 1.35383 14.9054 1.32561 14.8971C1.28909 14.8871 1.35715 14.907 1.35383 14.9087C1.35217 14.9104 1.31233 14.8871 1.31399 14.8888C1.29407 14.8788 1.27581 14.8672 1.25754 14.8556C1.24592 14.8473 1.2343 14.839 1.22102 14.8307C1.19944 14.8157 1.21106 14.8091 1.21936 14.8307C1.22434 14.8356 1.23098 14.839 1.23596 14.8439C1.22766 14.8373 1.21936 14.8307 1.21106 14.8224C1.2011 14.8124 1.18948 14.8024 1.17952 14.7925C1.17786 14.7908 1.12639 14.741 1.12805 14.736C1.12971 14.7344 1.1762 14.8041 1.13967 14.751C1.13303 14.7427 1.12805 14.7327 1.12141 14.7244C1.10813 14.7028 1.09485 14.6813 1.08323 14.658C1.07825 14.6497 1.07493 14.6364 1.06829 14.6281C1.0467 14.5982 1.09319 14.7012 1.07161 14.6364C1.05667 14.5899 1.04504 14.5435 1.03342 14.497C1.0218 14.4521 1.0384 14.5634 1.03674 14.5169C1.03674 14.5053 1.03508 14.4937 1.03342 14.482C1.03176 14.4671 1.03176 14.4505 1.03176 14.4355C1.03176 14.4007 1.03176 14.3658 1.03176 14.331C1.03176 14.0869 1.03176 13.8429 1.03176 13.5988C1.03176 13.1738 1.03176 12.7488 1.03176 12.3238C1.03176 11.7727 1.03176 11.2215 1.03176 10.6703C1.03176 10.0561 1.03176 9.4418 1.03176 8.82754C1.03176 8.20332 1.03176 7.5791 1.03176 6.95488C1.03176 6.38213 1.03176 5.80938 1.03176 5.23662C1.03176 4.77676 1.03176 4.31523 1.03176 3.85537C1.03176 3.56152 1.03176 3.26768 1.03176 2.97383C1.03176 2.90908 1.03176 2.84268 1.03176 2.77793C1.03176 2.76963 1.03176 2.75967 1.03176 2.75137C1.03176 2.73643 1.03176 2.71982 1.03342 2.70488C1.03342 2.70654 1.03508 2.66006 1.03674 2.6584C1.04006 2.65674 1.02346 2.72812 1.03342 2.68994C1.0384 2.66836 1.05667 2.53555 1.07991 2.52891C1.08489 2.52725 1.04836 2.59033 1.06829 2.55879C1.07659 2.54717 1.08157 2.53223 1.08821 2.52061C1.09983 2.49902 1.11311 2.47578 1.12805 2.45586C1.13469 2.44756 1.14133 2.43926 1.14631 2.4293C1.16458 2.39775 1.12971 2.45752 1.12805 2.4542C1.12473 2.44922 1.18118 2.39609 1.18616 2.39111C1.19612 2.38115 1.20774 2.37119 1.2177 2.36123C1.23596 2.34463 1.22766 2.33799 1.2177 2.35957C1.20442 2.38945 1.20442 2.36787 1.22766 2.35293C1.23596 2.34629 1.24592 2.34131 1.25422 2.33467C1.27581 2.32139 1.29905 2.30977 1.32063 2.29648C1.32229 2.29482 1.34885 2.28154 1.35051 2.28154C1.34885 2.27988 1.28411 2.30645 1.34221 2.28652C1.38538 2.27158 1.44348 2.26992 1.48333 2.25C1.4385 2.27158 1.42854 2.25498 1.4634 2.25332C1.47502 2.25332 1.48665 2.25166 1.49827 2.25166C1.50989 2.25166 1.52151 2.25166 1.53313 2.25166C1.54143 2.25166 1.55139 2.25166 1.55969 2.25166C1.62112 2.25166 1.68088 2.25166 1.74231 2.25166C2.01458 2.25166 2.28684 2.25166 2.55745 2.25166C2.98743 2.25166 3.41907 2.25166 3.84905 2.25166C4.39524 2.25166 4.93977 2.25166 5.48596 2.25166C6.09358 2.25166 6.7012 2.25166 7.30881 2.25166C7.93635 2.25166 8.56389 2.25166 9.19309 2.25166C9.79075 2.25166 10.3884 2.25166 10.9861 2.25166C11.5024 2.25166 12.0203 2.25166 12.5366 2.25166C12.9301 2.25166 13.3236 2.25166 13.717 2.25166C13.9362 2.25166 14.1536 2.25166 14.3728 2.25166C14.4027 2.25166 14.4325 2.25166 14.4624 2.25166C14.4757 2.25166 14.484 2.25166 14.4973 2.25166C14.5106 2.25166 14.5853 2.25996 14.5338 2.25332C14.479 2.24668 14.5654 2.26162 14.5786 2.26494C14.6035 2.27158 14.6284 2.27988 14.6533 2.28818C14.7247 2.31143 14.6152 2.26494 14.665 2.29316C14.6865 2.30645 14.7098 2.31641 14.7314 2.32969C14.7413 2.33633 14.7928 2.36289 14.7945 2.37285C14.7945 2.37949 14.7447 2.32471 14.7696 2.35459C14.7762 2.36289 14.7862 2.36953 14.7945 2.37617C14.8127 2.39277 14.8293 2.4127 14.8476 2.43096C14.904 2.48906 14.826 2.39277 14.8559 2.43926C14.8625 2.44922 14.9406 2.56211 14.9323 2.57041C14.9289 2.57373 14.9107 2.50566 14.9206 2.54219C14.9239 2.55215 14.9289 2.56377 14.9323 2.57373C14.9406 2.59863 14.9472 2.62354 14.9538 2.64844C14.9572 2.66338 14.9588 2.67832 14.9638 2.69326C14.9738 2.73145 14.9572 2.66006 14.9605 2.66172C14.9704 2.66338 14.9655 2.73809 14.9655 2.74971ZM14.9655 2.74971C14.9671 2.92402 15.1165 3.09004 15.2975 3.08174C15.4751 3.07344 15.6328 2.93564 15.6295 2.74971C15.6229 2.21514 15.241 1.70713 14.7015 1.61084C14.5986 1.59258 14.499 1.58594 14.396 1.58594C14.1852 1.58594 13.976 1.58594 13.7652 1.58594C13.375 1.58594 12.9849 1.58594 12.5948 1.58594C12.0751 1.58594 11.5538 1.58594 11.0342 1.58594C10.4332 1.58594 9.83059 1.58594 9.22961 1.58594C8.59709 1.58594 7.96292 1.58594 7.3304 1.58594C6.71448 1.58594 6.09856 1.58594 5.48264 1.58594C4.93313 1.58594 4.38362 1.58594 3.83411 1.58594C3.40081 1.58594 2.9675 1.58594 2.53254 1.58594C2.2636 1.58594 1.99465 1.58594 1.72737 1.58594C1.67092 1.58594 1.61282 1.58594 1.55637 1.58594C1.2509 1.5876 0.962036 1.69551 0.736255 1.90469C0.497192 2.12549 0.372681 2.4459 0.371021 2.76797C0.371021 2.82773 0.371021 2.8875 0.371021 2.94727C0.371021 3.23447 0.371021 3.52168 0.371021 3.81055C0.371021 4.27207 0.371021 4.73359 0.371021 5.19678C0.371021 5.77285 0.371021 6.34893 0.371021 6.92334C0.371021 7.54922 0.371021 8.17676 0.371021 8.80264C0.371021 9.4252 0.371021 10.0478 0.371021 10.6703C0.371021 11.2265 0.371021 11.781 0.371021 12.3371C0.371021 12.7654 0.371021 13.1938 0.371021 13.6221C0.371021 13.8628 0.371021 14.1035 0.371021 14.3442C0.371021 14.3907 0.36936 14.4372 0.372681 14.4837C0.402563 15.0415 0.819263 15.513 1.37708 15.5877C1.53479 15.6093 1.69583 15.601 1.8552 15.601C2.16399 15.601 2.47444 15.601 2.78323 15.601C3.24641 15.601 3.70959 15.601 4.17444 15.601C4.74221 15.601 5.31165 15.601 5.87942 15.601C6.50364 15.601 7.12786 15.601 7.75208 15.601C8.38293 15.601 9.01379 15.601 9.64299 15.601C10.2307 15.601 10.8184 15.601 11.4061 15.601C11.9025 15.601 12.3972 15.601 12.8936 15.601C13.2472 15.601 13.6025 15.601 13.9561 15.601C14.1204 15.601 14.2831 15.601 14.4475 15.601C15.1049 15.5993 15.6262 15.0714 15.6295 14.4156C15.6295 14.233 15.6295 14.0521 15.6295 13.8694C15.6295 13.4859 15.6295 13.1024 15.6295 12.7206C15.6295 12.1927 15.6295 11.6647 15.6295 11.1368C15.6295 10.5259 15.6295 9.91494 15.6295 9.304C15.6295 8.67148 15.6295 8.0373 15.6295 7.40479C15.6295 6.80879 15.6295 6.21445 15.6295 5.61846C15.6295 5.12041 15.6295 4.62402 15.6295 4.12598C15.6295 3.7873 15.6295 3.44863 15.6295 3.10996C15.6295 2.99043 15.6295 2.86924 15.6295 2.74971C15.6295 2.57539 15.4768 2.40937 15.2975 2.41768C15.1182 2.42598 14.9655 2.56377 14.9655 2.74971Z" stroke="black" stroke-width="0.2"/>
</g>
</g>
</g>
<g id="XMLID_832_">
<g id="XMLID_24_">
<g id="XMLID_28_">
<path d="M14.9654 2.74971C14.9654 3.53662 14.9654 4.32187 14.9654 5.10879C14.9654 5.21836 14.9654 5.32793 14.9654 5.43584C15.0767 5.32461 15.1862 5.21504 15.2975 5.10381C15.1663 5.10381 15.0368 5.10381 14.9057 5.10381C14.5521 5.10381 14.1984 5.10381 13.8465 5.10381C13.3219 5.10381 12.7973 5.10381 12.2727 5.10381C11.6352 5.10381 10.9977 5.10381 10.3602 5.10381C9.65958 5.10381 8.95899 5.10381 8.25841 5.10381C7.5545 5.10381 6.84894 5.10381 6.14503 5.10381C5.48595 5.10381 4.8252 5.10381 4.16612 5.10381C3.61163 5.10381 3.05548 5.10381 2.50099 5.10381C2.10089 5.10381 1.69913 5.10381 1.29903 5.10381C1.10978 5.10381 0.920517 5.09883 0.73126 5.10381C0.722959 5.10381 0.714658 5.10381 0.706357 5.10381C0.817588 5.21504 0.927158 5.32461 1.03839 5.43584C1.03839 4.8415 1.03839 4.24717 1.03839 3.65283C1.03839 3.37061 1.03839 3.08672 1.03839 2.80449C1.03839 2.78623 1.03839 2.76797 1.03839 2.75137C1.03839 2.73145 1.03839 2.71318 1.04005 2.69326C1.04503 2.62354 1.03341 2.6999 1.03673 2.70156C1.03507 2.6999 1.04669 2.65508 1.04503 2.65674C1.05167 2.62852 1.05997 2.59863 1.06827 2.57041C1.07491 2.55049 1.10479 2.51729 1.07491 2.54883C1.06329 2.57539 1.06495 2.57539 1.07657 2.54883C1.08155 2.53887 1.08653 2.52891 1.09151 2.51895C1.10646 2.49072 1.12472 2.4625 1.14298 2.43594C1.17784 2.38281 1.13136 2.45254 1.13136 2.45088C1.1297 2.44756 1.1629 2.41436 1.16788 2.41104C1.1712 2.40771 1.23263 2.34131 1.23927 2.34463C1.24093 2.34629 1.1712 2.39277 1.22433 2.35625C1.24259 2.34463 1.26085 2.33135 1.27911 2.32139C1.29239 2.31475 1.30401 2.30645 1.31729 2.2998C1.33058 2.29316 1.37208 2.25664 1.33722 2.28818C1.30567 2.31641 1.33888 2.28818 1.3588 2.28154C1.37208 2.27656 1.38702 2.27158 1.40196 2.26826C1.4169 2.26494 1.43019 2.25996 1.44513 2.25664C1.45343 2.25498 1.52149 2.2334 1.46837 2.25166C1.42188 2.2666 1.46505 2.25332 1.48165 2.25166C1.50157 2.25 1.51983 2.25 1.53976 2.25C1.73233 2.24834 1.92491 2.25 2.11583 2.25C2.6172 2.25 3.11856 2.25 3.61827 2.25C4.32384 2.25 5.02774 2.25 5.73331 2.25C6.53683 2.25 7.34034 2.25 8.14386 2.25C8.94405 2.25 9.74425 2.25 10.5444 2.25C11.2301 2.25 11.9174 2.25 12.603 2.25C13.0745 2.25 13.5443 2.25 14.0158 2.25C14.137 2.25 14.2566 2.25 14.3777 2.25C14.4043 2.25 14.4292 2.25 14.4558 2.25C14.4591 2.25 14.4624 2.25 14.4674 2.25C14.4906 2.25 14.5139 2.25166 14.5371 2.25332C14.5703 2.25498 14.5653 2.27158 14.5172 2.25C14.5288 2.25498 14.5487 2.25498 14.562 2.2583C14.5985 2.2666 14.6334 2.27822 14.6683 2.28984C14.7181 2.30645 14.6483 2.2832 14.65 2.28154C14.6517 2.27988 14.7048 2.30977 14.7081 2.31143C14.7363 2.32803 14.7629 2.34795 14.7911 2.36455C14.8276 2.38447 14.7496 2.31973 14.7745 2.35293C14.7845 2.36621 14.8027 2.37783 14.8144 2.38945C14.8227 2.39775 14.8775 2.44756 14.8725 2.45254C14.8741 2.45088 14.831 2.38945 14.8658 2.4459C14.8758 2.46084 14.8858 2.47578 14.8957 2.49238C14.9007 2.50234 14.9422 2.56377 14.9372 2.57041C14.9405 2.56709 14.9107 2.49736 14.9322 2.56211C14.9372 2.57539 14.9422 2.59033 14.9455 2.60361C14.9538 2.6335 14.9555 2.67334 14.9688 2.70156C14.9455 2.65176 14.9638 2.64844 14.9654 2.68164C14.9638 2.70322 14.9654 2.72646 14.9654 2.74971C14.9671 2.92402 15.1165 3.09004 15.2975 3.08174C15.4751 3.07344 15.6328 2.93564 15.6295 2.74971C15.6212 2.10889 15.1032 1.59092 14.4624 1.58594C14.3977 1.58594 14.3313 1.58594 14.2665 1.58594C13.8764 1.58594 13.4879 1.58594 13.0978 1.58594C12.4503 1.58594 11.8012 1.58594 11.1537 1.58594C10.3651 1.58594 9.57657 1.58594 8.788 1.58594C7.95958 1.58594 7.13116 1.58594 6.30274 1.58594C5.55567 1.58594 4.80694 1.58594 4.05987 1.58594C3.49376 1.58594 2.92765 1.58594 2.36319 1.58594C2.09591 1.58594 1.83028 1.58594 1.563 1.58594C1.13136 1.5876 0.709678 1.81338 0.510459 2.20352C0.361045 2.4957 0.374326 2.79619 0.374326 3.11162C0.374326 3.83213 0.374326 4.55264 0.374326 5.27148C0.374326 5.32627 0.374326 5.38105 0.374326 5.43584C0.374326 5.61514 0.52706 5.76787 0.706357 5.76787C0.83751 5.76787 0.967002 5.76787 1.09815 5.76787C1.45177 5.76787 1.80538 5.76787 2.15733 5.76787C2.68194 5.76787 3.20655 5.76787 3.73116 5.76787C4.36866 5.76787 5.00616 5.76787 5.64366 5.76787C6.34425 5.76787 7.04483 5.76787 7.74542 5.76787C8.44933 5.76787 9.15489 5.76787 9.8588 5.76787C10.5179 5.76787 11.1786 5.76787 11.8377 5.76787C12.3922 5.76787 12.9483 5.76787 13.5028 5.76787C13.9029 5.76787 14.3047 5.76787 14.7048 5.76787C14.8941 5.76787 15.0833 5.77119 15.2726 5.76787C15.2809 5.76787 15.2892 5.76787 15.2975 5.76787C15.4768 5.76787 15.6295 5.61514 15.6295 5.43584C15.6295 4.64893 15.6295 3.86367 15.6295 3.07676C15.6295 2.96719 15.6295 2.85762 15.6295 2.74971C15.6295 2.57539 15.4768 2.40937 15.2975 2.41768C15.1182 2.42598 14.9654 2.56377 14.9654 2.74971Z" fill="black"/>
<path d="M14.9654 2.74971C14.9654 3.53662 14.9654 4.32187 14.9654 5.10879C14.9654 5.21836 14.9654 5.32793 14.9654 5.43584C15.0767 5.32461 15.1862 5.21504 15.2975 5.10381C15.1663 5.10381 15.0368 5.10381 14.9057 5.10381C14.5521 5.10381 14.1984 5.10381 13.8465 5.10381C13.3219 5.10381 12.7973 5.10381 12.2727 5.10381C11.6352 5.10381 10.9977 5.10381 10.3602 5.10381C9.65958 5.10381 8.95899 5.10381 8.25841 5.10381C7.5545 5.10381 6.84894 5.10381 6.14503 5.10381C5.48595 5.10381 4.8252 5.10381 4.16612 5.10381C3.61163 5.10381 3.05548 5.10381 2.50099 5.10381C2.10089 5.10381 1.69913 5.10381 1.29903 5.10381C1.10978 5.10381 0.920517 5.09883 0.73126 5.10381C0.722959 5.10381 0.714658 5.10381 0.706357 5.10381C0.817588 5.21504 0.927158 5.32461 1.03839 5.43584C1.03839 4.8415 1.03839 4.24717 1.03839 3.65283C1.03839 3.37061 1.03839 3.08672 1.03839 2.80449C1.03839 2.78623 1.03839 2.76797 1.03839 2.75137C1.03839 2.73145 1.03839 2.71318 1.04005 2.69326C1.04503 2.62354 1.03341 2.6999 1.03673 2.70156C1.03507 2.6999 1.04669 2.65508 1.04503 2.65674C1.05167 2.62852 1.05997 2.59863 1.06827 2.57041C1.07491 2.55049 1.10479 2.51729 1.07491 2.54883C1.06329 2.57539 1.06495 2.57539 1.07657 2.54883C1.08155 2.53887 1.08653 2.52891 1.09151 2.51895C1.10646 2.49072 1.12472 2.4625 1.14298 2.43594C1.17784 2.38281 1.13136 2.45254 1.13136 2.45088C1.1297 2.44756 1.1629 2.41436 1.16788 2.41104C1.1712 2.40771 1.23263 2.34131 1.23927 2.34463C1.24093 2.34629 1.1712 2.39277 1.22433 2.35625C1.24259 2.34463 1.26085 2.33135 1.27911 2.32139C1.29239 2.31475 1.30401 2.30645 1.31729 2.2998C1.33058 2.29316 1.37208 2.25664 1.33722 2.28818C1.30567 2.31641 1.33888 2.28818 1.3588 2.28154C1.37208 2.27656 1.38702 2.27158 1.40196 2.26826C1.4169 2.26494 1.43019 2.25996 1.44513 2.25664C1.45343 2.25498 1.52149 2.2334 1.46837 2.25166C1.42188 2.2666 1.46505 2.25332 1.48165 2.25166C1.50157 2.25 1.51983 2.25 1.53976 2.25C1.73233 2.24834 1.92491 2.25 2.11583 2.25C2.6172 2.25 3.11856 2.25 3.61827 2.25C4.32384 2.25 5.02774 2.25 5.73331 2.25C6.53683 2.25 7.34034 2.25 8.14386 2.25C8.94405 2.25 9.74425 2.25 10.5444 2.25C11.2301 2.25 11.9174 2.25 12.603 2.25C13.0745 2.25 13.5443 2.25 14.0158 2.25C14.137 2.25 14.2566 2.25 14.3777 2.25C14.4043 2.25 14.4292 2.25 14.4558 2.25C14.4591 2.25 14.4624 2.25 14.4674 2.25C14.4906 2.25 14.5139 2.25166 14.5371 2.25332C14.5703 2.25498 14.5653 2.27158 14.5172 2.25C14.5288 2.25498 14.5487 2.25498 14.562 2.2583C14.5985 2.2666 14.6334 2.27822 14.6683 2.28984C14.7181 2.30645 14.6483 2.2832 14.65 2.28154C14.6517 2.27988 14.7048 2.30977 14.7081 2.31143C14.7363 2.32803 14.7629 2.34795 14.7911 2.36455C14.8276 2.38447 14.7496 2.31973 14.7745 2.35293C14.7845 2.36621 14.8027 2.37783 14.8144 2.38945C14.8227 2.39775 14.8775 2.44756 14.8725 2.45254C14.8741 2.45088 14.831 2.38945 14.8658 2.4459C14.8758 2.46084 14.8858 2.47578 14.8957 2.49238C14.9007 2.50234 14.9422 2.56377 14.9372 2.57041C14.9405 2.56709 14.9107 2.49736 14.9322 2.56211C14.9372 2.57539 14.9422 2.59033 14.9455 2.60361C14.9538 2.6335 14.9555 2.67334 14.9688 2.70156C14.9455 2.65176 14.9638 2.64844 14.9654 2.68164C14.9638 2.70322 14.9654 2.72646 14.9654 2.74971ZM14.9654 2.74971C14.9671 2.92402 15.1165 3.09004 15.2975 3.08174C15.4751 3.07344 15.6328 2.93564 15.6295 2.74971C15.6212 2.10889 15.1032 1.59092 14.4624 1.58594C14.3977 1.58594 14.3313 1.58594 14.2665 1.58594C13.8764 1.58594 13.4879 1.58594 13.0978 1.58594C12.4503 1.58594 11.8012 1.58594 11.1537 1.58594C10.3651 1.58594 9.57657 1.58594 8.788 1.58594C7.95958 1.58594 7.13116 1.58594 6.30274 1.58594C5.55567 1.58594 4.80694 1.58594 4.05987 1.58594C3.49376 1.58594 2.92765 1.58594 2.36319 1.58594C2.09591 1.58594 1.83028 1.58594 1.563 1.58594C1.13136 1.5876 0.709678 1.81338 0.510459 2.20352C0.361045 2.4957 0.374326 2.79619 0.374326 3.11162C0.374326 3.83213 0.374326 4.55264 0.374326 5.27148C0.374326 5.32627 0.374326 5.38105 0.374326 5.43584C0.374326 5.61514 0.52706 5.76787 0.706357 5.76787C0.83751 5.76787 0.967002 5.76787 1.09815 5.76787C1.45177 5.76787 1.80538 5.76787 2.15733 5.76787C2.68194 5.76787 3.20655 5.76787 3.73116 5.76787C4.36866 5.76787 5.00616 5.76787 5.64366 5.76787C6.34425 5.76787 7.04483 5.76787 7.74542 5.76787C8.44933 5.76787 9.15489 5.76787 9.8588 5.76787C10.5179 5.76787 11.1786 5.76787 11.8377 5.76787C12.3922 5.76787 12.9483 5.76787 13.5028 5.76787C13.9029 5.76787 14.3047 5.76787 14.7048 5.76787C14.8941 5.76787 15.0833 5.77119 15.2726 5.76787C15.2809 5.76787 15.2892 5.76787 15.2975 5.76787C15.4768 5.76787 15.6295 5.61514 15.6295 5.43584C15.6295 4.64893 15.6295 3.86367 15.6295 3.07676C15.6295 2.96719 15.6295 2.85762 15.6295 2.74971C15.6295 2.57539 15.4768 2.40937 15.2975 2.41768C15.1182 2.42598 14.9654 2.56377 14.9654 2.74971Z" stroke="black" stroke-width="0.2"/>
</g>
</g>
</g>
<g id="XMLID_813_">
<g id="XMLID_18_">
<path id="XMLID_22_" d="M4.5679 3.0046C4.5679 2.33887 4.5679 1.67315 4.5679 1.00577C4.5679 0.912799 4.5679 0.81983 4.5679 0.726861C4.5679 0.552545 4.41517 0.386529 4.23587 0.39483C4.05657 0.403131 3.90384 0.540924 3.90384 0.726861C3.90384 1.39258 3.90384 2.05831 3.90384 2.72569C3.90384 2.81866 3.90384 2.91163 3.90384 3.0046C3.90384 3.17891 4.05657 3.34493 4.23587 3.33663C4.41683 3.32833 4.5679 3.19053 4.5679 3.0046Z" fill="black" stroke="black" stroke-width="0.2"/>
</g>
</g>
<g id="XMLID_802_">
<g id="XMLID_12_">
<path id="XMLID_16_" d="M11.4343 0.728814C11.4343 1.39454 11.4343 2.06026 11.4343 2.72764C11.4343 2.82061 11.4343 2.91358 11.4343 3.00655C11.4343 3.18087 11.587 3.34688 11.7663 3.33858C11.9456 3.33028 12.0984 3.19249 12.0984 3.00655C12.0984 2.34083 12.0984 1.6751 12.0984 1.00772C12.0984 0.914752 12.0984 0.821783 12.0984 0.728814C12.0984 0.554498 11.9456 0.388482 11.7663 0.396783C11.5854 0.403424 11.4343 0.541217 11.4343 0.728814Z" fill="black" stroke="black" stroke-width="0.2"/>
</g>
</g>
</g>
</svg>
