<svg width="25" height="25" viewBox="0 0 25 25" fill="none" xmlns="http://www.w3.org/2000/svg">
<g clip-path="url(#clip0_8767_157839)">
<path d="M8.20996 2.5V5.5M16.21 2.5V5.5M7.20996 11.5H13.21M7.20996 16.5H9.82996M21.21 9V14.13C20.2866 13.3947 19.1403 12.9961 17.96 13C16.73 13 15.58 13.43 14.68 14.16C14.0631 14.6478 13.5651 15.2695 13.2239 15.9781C12.8826 16.6866 12.7068 17.4635 12.71 18.25C12.71 19.23 12.99 20.17 13.47 20.95C13.84 21.56 14.32 22.09 14.89 22.5H8.20996C4.70996 22.5 3.20996 20.5 3.20996 17.5V9C3.20996 6 4.70996 4 8.20996 4H16.21C19.71 4 21.21 6 21.21 9Z" stroke="#2947F2" stroke-width="1.5" stroke-miterlimit="10" stroke-linecap="round" stroke-linejoin="round"/>
<path d="M23.21 18.25C23.21 19.23 22.93 20.17 22.45 20.95C22.17 21.43 21.82 21.85 21.41 22.19C20.49 23.01 19.29 23.5 17.96 23.5C16.81 23.5 15.75 23.13 14.89 22.5C14.32 22.09 13.84 21.56 13.47 20.95C12.99 20.17 12.71 19.23 12.71 18.25C12.71 16.6 13.47 15.11 14.68 14.16C15.58 13.43 16.73 13 17.96 13C19.19 13 20.32 13.42 21.21 14.13C22.43 15.09 23.21 16.58 23.21 18.25Z" stroke="#FF6805" stroke-width="1.5" stroke-miterlimit="10" stroke-linecap="round" stroke-linejoin="round"/>
<path d="M17.96 20.75C17.96 20.087 18.2234 19.4511 18.6922 18.9822C19.161 18.5134 19.7969 18.25 20.46 18.25C19.7969 18.25 19.161 17.9866 18.6922 17.5178C18.2234 17.0489 17.96 16.413 17.96 15.75C17.96 16.413 17.6966 17.0489 17.2277 17.5178C16.7589 17.9866 16.123 18.25 15.46 18.25C16.123 18.25 16.7589 18.5134 17.2277 18.9822C17.6966 19.4511 17.96 20.087 17.96 20.75Z" stroke="#FF6805" stroke-width="1.5" stroke-linecap="round" stroke-linejoin="round"/>
</g>
<defs>
<clipPath id="clip0_8767_157839">
<rect width="24" height="24" fill="white" transform="translate(0.209961 0.5)"/>
</clipPath>
</defs>
</svg>
