<svg width="18" height="17" viewBox="0 0 18 17" fill="none" xmlns="http://www.w3.org/2000/svg">
<path d="M1.09375 6.72222H17.0938M4.64931 0.5V2.27778M13.5382 0.5V2.27778M3.93819 16.5H14.2493C15.2449 16.5 15.7428 16.5 16.1231 16.3062C16.4576 16.1358 16.7296 15.8638 16.9 15.5293C17.0937 15.1491 17.0938 14.6512 17.0938 13.6556V5.12222C17.0938 4.12657 17.0937 3.62875 16.9 3.24846C16.7296 2.91395 16.4576 2.64198 16.1231 2.47155C15.7428 2.27778 15.2449 2.27778 14.2493 2.27778H3.93819C2.94255 2.27778 2.44472 2.27778 2.06443 2.47155C1.72992 2.64198 1.45795 2.91395 1.28752 3.24846C1.09375 3.62875 1.09375 4.12657 1.09375 5.12222V13.6556C1.09375 14.6512 1.09375 15.1491 1.28752 15.5293C1.45795 15.8638 1.72992 16.1358 2.06443 16.3062C2.44472 16.5 2.94254 16.5 3.93819 16.5Z" stroke="#111827" stroke-linecap="round" stroke-linejoin="round"/>
</svg>
