<svg width="24" height="25" viewBox="0 0 24 25" fill="none" xmlns="http://www.w3.org/2000/svg">
<g clip-path="url(#clip0_10816_144477)">
<path d="M8 2.90625V5.90625M16 2.90625V5.90625M7 11.9062H13M7 16.9062H9.62M21 9.40625V14.5363C20.0767 13.801 18.9303 13.4024 17.75 13.4062C16.52 13.4062 15.37 13.8362 14.47 14.5662C13.8531 15.0541 13.3552 15.6758 13.0139 16.3843C12.6726 17.0929 12.4969 17.8698 12.5 18.6562C12.5 19.6363 12.78 20.5763 13.26 21.3563C13.63 21.9663 14.11 22.4963 14.68 22.9062H8C4.5 22.9062 3 20.9062 3 17.9062V9.40625C3 6.40625 4.5 4.40625 8 4.40625H16C19.5 4.40625 21 6.40625 21 9.40625Z" stroke="white" stroke-width="1.5" stroke-miterlimit="10" stroke-linecap="round" stroke-linejoin="round"/>
<path d="M23 18.6562C23 19.6363 22.72 20.5763 22.24 21.3563C21.96 21.8363 21.61 22.2563 21.2 22.5963C20.28 23.4163 19.08 23.9062 17.75 23.9062C16.6 23.9062 15.54 23.5362 14.68 22.9062C14.11 22.4963 13.63 21.9663 13.26 21.3563C12.78 20.5763 12.5 19.6363 12.5 18.6562C12.5 17.0063 13.26 15.5162 14.47 14.5662C15.37 13.8362 16.52 13.4062 17.75 13.4062C18.98 13.4062 20.11 13.8263 21 14.5363C22.22 15.4963 23 16.9863 23 18.6562Z" stroke="#FF6805" stroke-width="1.5" stroke-miterlimit="10" stroke-linecap="round" stroke-linejoin="round"/>
<path d="M17.75 21.1562C17.75 20.4932 18.0134 19.8573 18.4822 19.3885C18.9511 18.9196 19.587 18.6563 20.25 18.6562C19.587 18.6562 18.9511 18.3929 18.4822 17.924C18.0134 17.4552 17.75 16.8193 17.75 16.1562C17.75 16.8193 17.4866 17.4552 17.0178 17.924C16.5489 18.3929 15.913 18.6562 15.25 18.6562C15.913 18.6562 16.5489 18.9196 17.0178 19.3885C17.4866 19.8573 17.75 20.4932 17.75 21.1562Z" stroke="#FF6805" stroke-width="1.5" stroke-linecap="round" stroke-linejoin="round"/>
</g>
<defs>
<clipPath id="clip0_10816_144477">
<rect width="24" height="24" fill="white" transform="translate(0 0.90625)"/>
</clipPath>
</defs>
</svg>
