<svg width="11" height="11" viewBox="0 0 11 11" fill="none" xmlns="http://www.w3.org/2000/svg">
<path d="M9.02961 2.53312L8.59521 8.82275C8.55719 9.3736 8.53815 9.64906 8.41492 9.85791C8.30639 10.0418 8.14269 10.1896 7.94543 10.2819C7.72137 10.3867 7.43536 10.3867 6.86341 10.3867H4.68711C4.11516 10.3867 3.82919 10.3867 3.60511 10.2819C3.40783 10.1896 3.24415 10.0418 3.13564 9.85791C3.01238 9.64906 2.99336 9.3736 2.95531 8.82275L2.52094 2.53312M1.43616 2.53312H10.1144M7.94483 2.53312L7.79806 2.10802C7.65579 1.69606 7.58463 1.49008 7.45272 1.33779C7.33621 1.20331 7.18662 1.09922 7.01761 1.03506C6.82621 0.962402 6.60133 0.962402 6.15147 0.962402H5.39907C4.94921 0.962402 4.72434 0.962402 4.53293 1.03506C4.36393 1.09922 4.21432 1.20331 4.09782 1.33779C3.96589 1.49008 3.89476 1.69606 3.75251 2.10802L3.60571 2.53312M6.86005 4.62741V8.29243M4.69049 4.62741V8.29243" stroke="#374151" stroke-linecap="round" stroke-linejoin="round"/>
</svg>
