<svg width="17" height="18" viewBox="0 0 17 18" fill="none" xmlns="http://www.w3.org/2000/svg">
<rect width="17" height="18" fill="white"/>
<path d="M14.75 3.81917C12.3913 3.58542 10.0183 3.465 7.6525 3.465C6.25 3.465 4.8475 3.53583 3.445 3.6775L2 3.81917M5.89583 3.10375L6.05167 2.17583C6.165 1.50292 6.25 1 7.44708 1H9.30292C10.5 1 10.5921 1.53125 10.6983 2.18292L10.8542 3.10375M13.2271 7.0575L12.7667 14.1904C12.6888 15.3025 12.625 16.1667 10.6487 16.1667H6.10125C4.125 16.1667 4.06125 15.3025 3.98333 14.1904L3.52292 7.0575M7.19208 12.2708H9.55083M6.60417 9.4375H10.1458" stroke="#6F6F7B" stroke-width="1.5" stroke-linecap="round" stroke-linejoin="round"/>
</svg>
