<svg width="15" height="17" viewBox="0 0 15 17" fill="none" xmlns="http://www.w3.org/2000/svg">
<path d="M13.75 3.81917C11.3913 3.58542 9.01833 3.465 6.6525 3.465C5.25 3.465 3.8475 3.53583 2.445 3.6775L1 3.81917M4.89583 3.10375L5.05167 2.17583C5.165 1.50292 5.25 1 6.44708 1H8.30292C9.5 1 9.59208 1.53125 9.69833 2.18292L9.85417 3.10375M12.2271 7.0575L11.7667 14.1904C11.6888 15.3025 11.625 16.1667 9.64875 16.1667H5.10125C3.125 16.1667 3.06125 15.3025 2.98333 14.1904L2.52292 7.0575M6.19208 12.2708H8.55083M5.60417 9.4375H9.14583" stroke="#2947F2" stroke-width="1.5" stroke-linecap="round" stroke-linejoin="round"/>
</svg>
