<svg width="16" height="17" viewBox="0 0 16 17" fill="none" xmlns="http://www.w3.org/2000/svg">
<path d="M0.859375 3.15246H3.35938V1.55246C3.35938 0.846461 3.91992 0.272461 4.60938 0.272461H10.8594C11.5488 0.272461 12.1094 0.846461 12.1094 1.55246V3.15246H14.6094C14.9551 3.15246 15.2344 3.43846 15.2344 3.79246V4.43246C15.2344 4.52046 15.1641 4.59246 15.0781 4.59246H13.8984L13.416 15.0525C13.3848 15.7345 12.834 16.2725 12.168 16.2725H3.30078C2.63281 16.2725 2.08398 15.7365 2.05273 15.0525L1.57031 4.59246H0.390625C0.304688 4.59246 0.234375 4.52046 0.234375 4.43246V3.79246C0.234375 3.43846 0.513672 3.15246 0.859375 3.15246ZM4.76562 3.15246H10.7031V1.71246H4.76562V3.15246Z" fill="#C6C8CC"/>
</svg>
