<svg width="14" height="16" viewBox="0 0 14 16" fill="none" xmlns="http://www.w3.org/2000/svg">
<path d="M13 3.98634C10.78 3.76634 8.54667 3.65301 6.32 3.65301C5 3.65301 3.68 3.71967 2.36 3.85301L1 3.98634M4.66667 3.31301L4.81333 2.43967C4.92 1.80634 5 1.33301 6.12667 1.33301H7.87333C9 1.33301 9.08667 1.83301 9.18667 2.44634L9.33333 3.31301M11.5667 6.09301L11.1333 12.8063C11.06 13.853 11 14.6663 9.14 14.6663H4.86C3 14.6663 2.94 13.853 2.86667 12.8063L2.43333 6.09301M5.88667 10.9997H8.10667M5.33333 8.33301H8.66667" stroke="white" stroke-width="1.5" stroke-linecap="round" stroke-linejoin="round"/>
</svg>
