<svg width="12" height="12" viewBox="0 0 12 12" fill="none" xmlns="http://www.w3.org/2000/svg">
<g clip-path="url(#clip0_16572_1491)">
<path d="M8.69697 2.65959L8.26257 8.94922C8.22455 9.50007 8.20551 9.77552 8.08228 9.98438C7.97374 10.1683 7.81005 10.3161 7.61278 10.4084C7.38872 10.5132 7.10272 10.5132 6.53077 10.5132H4.35447C3.78252 10.5132 3.49655 10.5132 3.27247 10.4084C3.07519 10.3161 2.91151 10.1683 2.80299 9.98438C2.67974 9.77552 2.66072 9.50007 2.62267 8.94922L2.18829 2.65959M1.10352 2.65959H9.78174M7.61219 2.65959L7.46542 2.23448C7.32315 1.82252 7.25199 1.61655 7.12008 1.46426C7.00357 1.32978 6.85398 1.22569 6.68497 1.16153C6.49356 1.08887 6.26869 1.08887 5.81883 1.08887H5.06643C4.61657 1.08887 4.3917 1.08887 4.20029 1.16153C4.03129 1.22569 3.88168 1.32978 3.76518 1.46426C3.63325 1.61655 3.56212 1.82252 3.41987 2.23448L3.27307 2.65959M6.52741 4.75388V8.41889M4.35785 4.75388V8.41889" stroke="#1D4ED8" stroke-linecap="round" stroke-linejoin="round"/>
</g>
<defs>
<clipPath id="clip0_16572_1491">
<rect width="11" height="11" fill="white" transform="translate(0.202148 0.711914)"/>
</clipPath>
</defs>
</svg>
