<svg width="14" height="14" viewBox="0 0 14 14" fill="none" xmlns="http://www.w3.org/2000/svg">
<path d="M7.31613 4.56332C7.28099 4.51227 7.23396 4.47054 7.17911 4.44171C7.12425 4.41287 7.06321 4.39781 7.00124 4.39781C6.93926 4.39781 6.87822 4.41287 6.82336 4.44171C6.76851 4.47054 6.72148 4.51227 6.68634 4.56332L3.23854 9.54346C3.19863 9.60091 3.17523 9.66819 3.17087 9.73799C3.16652 9.8078 3.18138 9.87747 3.21384 9.93943C3.2463 10.0014 3.29511 10.0533 3.35499 10.0894C3.41486 10.1256 3.48349 10.1446 3.55344 10.1445L10.449 10.1445C10.5188 10.1442 10.5872 10.1249 10.6468 10.0887C10.7065 10.0524 10.7551 10.0006 10.7875 9.93881C10.8198 9.877 10.8348 9.80753 10.8306 9.73787C10.8265 9.66821 10.8034 9.601 10.7639 9.54347L7.31613 4.56332Z" fill="white"/>
</svg>
