<svg width="18" height="14" viewBox="0 0 18 14" fill="none" xmlns="http://www.w3.org/2000/svg">
<path d="M9 7V13M9 13L7 11M9 13L11 11M4.2 12C2.43269 12 1 10.5929 1 8.85717C1 7.42686 1.97278 6.21974 3.30398 5.83917C3.36055 5.82297 3.4 5.77214 3.4 5.71429C3.4 3.11065 5.54903 1 8.2 1C10.8509 1 13 3.11065 13 5.71429C13 5.76417 13.0476 5.8012 13.0972 5.79031C13.3234 5.74051 13.5586 5.71429 13.8 5.71429C15.5673 5.71429 17 7.12137 17 8.85717C17 10.5929 15.5673 12 13.8 12" stroke="#111827" stroke-linecap="round" stroke-linejoin="round"/>
</svg>
