<svg width="14" height="20" viewBox="0 0 14 20" fill="none" xmlns="http://www.w3.org/2000/svg">
<path d="M4.8737 1.28418V2.63997C4.8737 3.18234 4.8737 3.45353 4.97926 3.66068C5.07213 3.8429 5.2202 3.99105 5.40246 4.0839C5.6096 4.18945 5.88076 4.18945 6.42318 4.18945H7.19792C7.74033 4.18945 8.01149 4.18945 8.21864 4.0839C8.40089 3.99105 8.54897 3.8429 8.64184 3.66068C8.7474 3.45353 8.7474 3.18234 8.7474 2.63997V1.28418M4.09896 18.7158H9.52214C10.6069 18.7158 11.1493 18.7158 11.5636 18.5047C11.928 18.3191 12.2243 18.0227 12.41 17.6583C12.6211 17.244 12.6211 16.7016 12.6211 15.6169V4.38314C12.6211 3.29841 12.6211 2.75603 12.41 2.34172C12.2243 1.97727 11.928 1.68097 11.5636 1.49529C11.1493 1.28418 10.6069 1.28418 9.52214 1.28418H4.09896C3.01423 1.28418 2.47185 1.28418 2.05754 1.49529C1.69309 1.68097 1.39679 1.97727 1.21111 2.34172C1 2.75603 1 3.2984 1 4.38314V15.6169C1 16.7016 1 17.244 1.21111 17.6583C1.39679 18.0227 1.69309 18.3191 2.05754 18.5047C2.47185 18.7158 3.01422 18.7158 4.09896 18.7158Z" stroke="#1D4ED8" stroke-linecap="round" stroke-linejoin="round"/>
</svg>
