<svg width="18" height="15" viewBox="0 0 18 15" fill="none" xmlns="http://www.w3.org/2000/svg">
<path fill-rule="evenodd" clip-rule="evenodd" d="M5.65999 5.84508C5.65999 4.0171 7.14186 2.53524 8.96983 2.53524C10.7978 2.53524 12.2797 4.0171 12.2797 5.84508V6.67254H13.1071C14.7066 6.67254 16.0033 7.96917 16.0033 9.56865C16.0033 11.1681 14.7066 12.4648 13.1071 12.4648H13.0244C12.5674 12.4648 12.1969 12.8352 12.1969 13.2922C12.1969 13.7492 12.5674 14.1197 13.0244 14.1197H13.1071C15.6206 14.1197 17.6582 12.0821 17.6582 9.56865C17.6582 7.31738 16.0235 5.44787 13.8763 5.08236C13.5094 2.70249 11.4525 0.880314 8.96983 0.880314C6.48724 0.880314 4.43023 2.70249 4.06329 5.08236C1.91615 5.44787 0.281494 7.31738 0.281494 9.56865C0.281494 12.0821 2.31906 14.1197 4.83253 14.1197H4.91528C5.37227 14.1197 5.74274 13.7492 5.74274 13.2922C5.74274 12.8352 5.37227 12.4648 4.91528 12.4648H4.83253C3.23305 12.4648 1.93642 11.1681 1.93642 9.56865C1.93642 7.96917 3.23305 6.67254 4.83253 6.67254H5.65999V5.84508ZM9.79729 6.67254C9.79729 6.21553 9.42684 5.84508 8.96983 5.84508C8.51283 5.84508 8.14237 6.21553 8.14237 6.67254V11.2946L7.07256 10.2247C6.74941 9.90162 6.22549 9.90162 5.90234 10.2247C5.5792 10.5479 5.5792 11.0718 5.90234 11.3949L8.38474 13.8773C8.70786 14.2004 9.23181 14.2004 9.55493 13.8773L12.0373 11.3949C12.3604 11.0718 12.3604 10.5479 12.0373 10.2247C11.7142 9.90162 11.1902 9.90162 10.8671 10.2247L9.79729 11.2946V6.67254Z" fill="white"/>
</svg>
