<svg width="139" height="80" viewBox="0 0 139 80" fill="none" xmlns="http://www.w3.org/2000/svg">
<path opacity="0.06" fill-rule="evenodd" clip-rule="evenodd" d="M69.5099 80C31.4027 80 0.510193 77.7619 0.510193 75C0.510193 72.2381 31.4027 70 69.5099 70C107.618 70 138.51 72.2381 138.51 75C138.51 77.7619 107.618 80 69.5099 80Z" fill="#1A1D21"/>
<path fill-rule="evenodd" clip-rule="evenodd" d="M116.595 74.5794H132.622L127.691 2.57159L116.595 74.5794Z" fill="url(#paint0_linear)"/>
<path fill-rule="evenodd" clip-rule="evenodd" d="M114.682 74.3875H15.5006C13.6205 74.3875 12.1814 72.6417 12.4635 70.7029L22.3506 2.72321C22.5781 1.15718 23.8691 0 25.3882 0H124.569C126.449 0 127.889 1.74572 127.606 3.68403L117.719 71.6642C117.491 73.2303 116.2 74.3875 114.682 74.3875Z" fill="#D7DBE0"/>
<path fill-rule="evenodd" clip-rule="evenodd" d="M114.682 74.3875H15.5006C13.6205 74.3875 12.1814 72.6417 12.4635 70.7029L22.3506 2.72321C22.5781 1.15718 23.8691 0 25.3882 0H124.569C126.449 0 127.889 1.74572 127.606 3.68403L117.719 71.6642C117.491 73.2303 116.2 74.3875 114.682 74.3875Z" fill="url(#paint1_linear)"/>
<path d="M112.091 74.3875H12.9103C11.0302 74.3875 9.59105 72.6417 9.87319 70.7029L19.7603 2.72321C19.9877 1.15718 21.2788 0 22.7979 0H121.979C123.859 0 125.298 1.74572 125.016 3.68403L115.129 71.6642C114.901 73.2303 113.61 74.3875 112.091 74.3875Z" fill="white"/>
<mask id="mask0" mask-type="alpha" maskUnits="userSpaceOnUse" x="9" y="0" width="117" height="75">
<path d="M112.091 74.3875H12.9103C11.0302 74.3875 9.59105 72.6417 9.87319 70.7029L19.7603 2.72321C19.9877 1.15718 21.2788 0 22.7979 0H121.979C123.859 0 125.298 1.74572 125.016 3.68403L115.129 71.6642C114.901 73.2303 113.61 74.3875 112.091 74.3875Z" fill="white"/>
</mask>
<g mask="url(#mask0)">
<path fill-rule="evenodd" clip-rule="evenodd" d="M64.1509 6.49854C65.0074 6.49854 65.6646 7.25828 65.5413 8.10587L58.8675 53.9934C58.767 54.684 58.1749 55.1962 57.477 55.1962H21.0223C20.1658 55.1962 19.5086 54.4365 19.6318 53.5889L26.3052 7.70143C26.4057 7.01079 26.9978 6.49854 27.6957 6.49854H64.1509Z" fill="#EFEFEF" fill-opacity="0.901879"/>
<path d="M66.2093 8.20302C66.3918 6.94827 65.4188 5.82357 64.1509 5.82357H27.6957C26.6625 5.82357 25.786 6.58189 25.6373 7.60429L18.9639 53.4918C18.7814 54.7465 19.7544 55.8712 21.0223 55.8712H57.477C58.5101 55.8712 59.3867 55.1129 59.5354 54.0905L66.2093 8.20302Z" stroke="white" stroke-opacity="0.0812118" stroke-width="1.34994"/>
<path fill-rule="evenodd" clip-rule="evenodd" d="M46.8494 45.8334L42.1865 55.1957H35.8832L34.1037 45.8334C34.1037 45.8334 36.7679 44.6789 37.426 41.2514C37.6164 40.267 37.769 39.0732 37.9006 37.5663C39.2118 37.8784 40.3981 38.0559 41.4365 38.1527C42.5026 38.0559 43.7406 37.8784 45.1374 37.5663C44.7897 39.2825 44.6082 40.6005 44.5623 41.6603C44.4178 44.7483 46.8494 45.8334 46.8494 45.8334Z" fill="#FCBA7E"/>
<path d="M33.1341 29.4582H52.1341C52.1341 29.4582 51.9079 31.4582 51.6773 32.6866C51.4466 33.9149 51.5 34.1866 51.5 34.6866C45.5 33.0933 34.8628 33.5933 33 34.5933C33.1371 33.5363 33.0039 32.5565 33 31.0933C32.9961 29.6301 33.1341 29.4582 33.1341 29.4582Z" fill="#2A2A2A"/>
<path fill-rule="evenodd" clip-rule="evenodd" d="M53.7776 28.9381C53.6456 30.2298 52.876 31.3493 52.0584 31.4386C51.2404 31.5279 50.6848 30.5537 50.8174 29.2625C50.9495 27.9703 51.7196 26.8508 52.5371 26.7615C53.3547 26.6717 53.9102 27.647 53.7776 28.9381Z" fill="#FBC492"/>
<path fill-rule="evenodd" clip-rule="evenodd" d="M43.7672 16.661C43.7636 16.6615 43.7605 16.6621 43.7569 16.6621C43.7538 16.6626 43.7507 16.6626 43.7471 16.6626C37.1865 17.1317 33.7027 22.8385 33.1678 29.61C32.9672 32.1492 33.2648 35.4163 34.2938 37.3508C36.0094 40.5754 38.002 42.567 41.7277 42.3007C41.7313 42.3002 41.7349 42.2996 41.7375 42.2996C41.7411 42.2996 41.7447 42.2996 41.7478 42.2991C45.4735 42.0328 47.5038 40.0746 49.7517 36.567C51.1 34.4625 52.2074 30.7736 52.4081 28.2349C52.9435 21.4635 50.3278 16.1924 43.7672 16.661Z" fill="#FBC492"/>
<path fill-rule="evenodd" clip-rule="evenodd" d="M52.6996 26.758C52.6996 26.758 52.5381 26.758 52.5 27C52.4665 27.213 52.0815 29.4782 52 30C51.83 29.4364 51.1906 28.3355 51 26.758C50.7583 24.758 49.8446 25.0174 49.5 23C49.3292 22 49.5 21 50 20C49 20 46.1381 19.5 43.5 19.5C40.8619 19.5 36.5973 19.2101 36 22C35.8014 22.9318 33.3046 28.96 33.1979 29.2596C33.3005 28.7281 33.4934 27.4994 33.4893 27.2987C33.4816 26.8882 33.4697 26.8086 33.2954 26.8065C34.2429 22.3467 33.1716 21.1419 33.5 19.5C33.8284 17.8581 35 16 37.5 16C37.5 16 38 14.5 40 14C42 13.5 46 15.5 49 15C52 14.5 53 16 53.5 18C54 20 52.5 23 52.6996 26.758Z" fill="#2A2A2A"/>
<path fill-rule="evenodd" clip-rule="evenodd" d="M46.8493 45.8333L45.4875 55.1956H32.7413L34.1036 45.8333C35.1775 47.0668 37.4388 47.9034 40.1731 47.9034C42.9116 47.9034 45.4163 47.0668 46.8493 45.8333Z" fill="white"/>
<path fill-rule="evenodd" clip-rule="evenodd" d="M55.6836 55.1958H44.4399L46.8493 45.8335C46.8493 45.8335 49.5965 46.5286 50.5183 46.7427C52.907 47.2962 54.3827 51.2331 55.6836 55.1958" fill="url(#paint2_linear)"/>
<path fill-rule="evenodd" clip-rule="evenodd" d="M76.2543 12.1191H101.52C102.784 12.1191 103.858 11.1171 104.048 9.76134C104.282 8.08257 103.085 6.57117 101.52 6.57117H76.2543C74.99 6.57117 73.9161 7.57317 73.7268 8.92895C73.4921 10.6077 74.6893 12.1191 76.2543 12.1191ZM74.7904 21.9648H113.118C114.381 21.9648 115.455 21.0018 115.645 19.6983C115.879 18.0849 114.682 16.6324 113.118 16.6324H74.7904C73.5266 16.6324 72.4527 17.5954 72.2629 18.8989C72.0287 20.5122 73.2259 21.9648 74.7904 21.9648ZM82.1797 32.1721H73.3062C71.7418 32.1721 70.5436 30.7196 70.7783 29.1062C70.9681 27.8032 72.0425 26.8397 73.3062 26.8397H82.1797C83.7442 26.8397 84.9414 28.2928 84.7067 29.9056C84.5174 31.2091 83.4435 32.1721 82.1797 32.1721ZM91.4442 32.1721H104.811C106.075 32.1721 107.149 31.2091 107.338 29.9056C107.573 28.2928 106.376 26.8397 104.811 26.8397H91.4442C90.1805 26.8397 89.1061 27.8032 88.9168 29.1062C88.6816 30.7196 89.8798 32.1721 91.4442 32.1721ZM41.4378 67.9296H20.5191C18.9547 67.9296 17.757 66.4765 17.9917 64.8637C18.181 63.5602 19.2554 62.5972 20.5191 62.5972H41.4378C43.0023 62.5972 44.1995 64.0497 43.9648 65.6631C43.7755 66.9661 42.7016 67.9296 41.4378 67.9296ZM69.9573 55.1958H98.3145C99.5783 55.1958 100.652 54.2329 100.842 52.9294C101.076 51.316 99.879 49.8635 98.3145 49.8635H69.9573C68.6936 49.8635 67.6192 50.8264 67.4299 52.1299C67.1952 53.7433 68.3929 55.1958 69.9573 55.1958Z" fill="url(#paint3_linear)"/>
<path fill-rule="evenodd" clip-rule="evenodd" d="M34.7408 28.9381C34.6082 30.2298 33.8386 31.3493 33.0211 31.4386C32.2035 31.5279 31.648 30.5537 31.78 29.2625C31.9121 27.9703 32.6822 26.8508 33.4997 26.7615C34.3173 26.6717 34.8728 27.647 34.7408 28.9381Z" fill="#FBC492"/>
<path fill-rule="evenodd" clip-rule="evenodd" d="M33.7276 55.1958H22.2931C22.2931 55.1958 26.5238 48.3351 28.9027 47.5496L34.1036 45.8335L33.7276 55.1958Z" fill="url(#paint4_linear)"/>
<path fill-rule="evenodd" clip-rule="evenodd" d="M40.9385 0C40.9385 0 36.9385 23.1454 45.5687 41.1474C54.1989 59.1493 96.3908 74.5796 96.3908 74.5796L9.51019 74.5L20.0102 0H40.9385Z" fill="url(#paint5_linear)"/>
</g>
<defs>
<linearGradient id="paint0_linear" x1="120.114" y1="13.2452" x2="157.634" y2="42.5002" gradientUnits="userSpaceOnUse">
<stop stop-opacity="0.16"/>
<stop offset="1" stop-color="white" stop-opacity="0.01"/>
</linearGradient>
<linearGradient id="paint1_linear" x1="12.4281" y1="0" x2="12.4281" y2="74.3875" gradientUnits="userSpaceOnUse">
<stop stop-opacity="0.01"/>
<stop offset="1" stop-opacity="0.0822771"/>
</linearGradient>
<linearGradient id="paint2_linear" x1="44.4399" y1="45.8335" x2="53.6475" y2="56.8912" gradientUnits="userSpaceOnUse">
<stop stop-color="#FF4F42"/>
<stop offset="1" stop-color="#FF8E3C"/>
</linearGradient>
<linearGradient id="paint3_linear" x1="115.675" y1="8.40876" x2="23.8149" y2="8.40876" gradientUnits="userSpaceOnUse">
<stop stop-opacity="0.0776606"/>
<stop offset="1" stop-opacity="0.0842166"/>
</linearGradient>
<linearGradient id="paint4_linear" x1="22.2931" y1="45.8335" x2="31.4084" y2="57.3324" gradientUnits="userSpaceOnUse">
<stop stop-color="#FF4F42"/>
<stop offset="1" stop-color="#FF8E3C"/>
</linearGradient>
<linearGradient id="paint5_linear" x1="39.0102" y1="4.5" x2="48.6453" y2="76.3234" gradientUnits="userSpaceOnUse">
<stop stop-color="#C7C7C7" stop-opacity="0.237134"/>
<stop offset="1" stop-color="white" stop-opacity="0.01"/>
</linearGradient>
</defs>
</svg>
