<svg width="18" height="20" viewBox="0 0 18 20" fill="none" xmlns="http://www.w3.org/2000/svg">
<path d="M1.58154 7.76758L16.9999 7.77743" stroke="#909199" stroke-width="1.77778" stroke-miterlimit="10" stroke-linecap="round" stroke-linejoin="round"/>
<path d="M4.76883 3.3335H2.50844C2.08565 3.36055 1.68968 3.57459 1.40736 3.92868C1.12503 4.28277 0.979383 4.74801 1.00236 5.22238V16.5557C0.979383 17.0301 1.12503 17.4953 1.40736 17.8494C1.68968 18.2035 2.08565 18.4176 2.50844 18.4446H15.4916C15.9143 18.4176 16.3103 18.2035 16.5926 17.8494C16.875 17.4953 17.0206 17.0301 16.9976 16.5557V5.22238C17.0206 4.74801 16.875 4.28277 16.5926 3.92868C16.3103 3.57459 15.9143 3.36055 15.4916 3.3335H14.4721" stroke="#909199" stroke-width="1.77778" stroke-miterlimit="10" stroke-linecap="round" stroke-linejoin="round"/>
<path d="M12.5557 1.55566L12.5557 5.11122" stroke="#909199" stroke-width="1.77778" stroke-miterlimit="10" stroke-linecap="round" stroke-linejoin="round"/>
<path d="M5.46533 1.55566L5.4445 5.11122" stroke="#909199" stroke-width="1.77778" stroke-miterlimit="10" stroke-linecap="round" stroke-linejoin="round"/>
<path d="M3.6665 3.3335L15.3142 3.3335" stroke="#909199" stroke-width="1.77778" stroke-miterlimit="10" stroke-linecap="round" stroke-linejoin="round"/>
<circle cx="5.44455" cy="11.3332" r="0.888889" fill="#909199"/>
<circle cx="5.44455" cy="14.8889" r="0.888889" fill="#909199"/>
<circle cx="9.00022" cy="11.3332" r="0.888889" fill="#909199"/>
<circle cx="9.00022" cy="14.8889" r="0.888889" fill="#909199"/>
<circle cx="12.5554" cy="11.3332" r="0.888889" fill="#909199"/>
<circle cx="12.5554" cy="14.8889" r="0.888889" fill="#909199"/>
</svg>
