<svg width="9" height="9" viewBox="0 0 9 9" fill="none" xmlns="http://www.w3.org/2000/svg">
<path fill-rule="evenodd" clip-rule="evenodd" d="M8.15737 0.361135C7.67585 -0.120378 6.89515 -0.120379 6.41363 0.361135L0.594896 6.17988C0.422769 6.35201 0.305442 6.57123 0.257704 6.8099L0.0164196 8.01634C-0.0986139 8.59149 0.408491 9.09862 0.983659 8.98358L2.19008 8.74228C2.42877 8.69457 2.648 8.57723 2.82013 8.4051L8.63886 2.58636C9.12038 2.10485 9.12038 1.32416 8.63886 0.842647L8.15737 0.361135ZM6.99486 0.942372C7.1554 0.781869 7.4156 0.781869 7.57614 0.942372L8.05762 1.42389C8.21816 1.58439 8.21816 1.84462 8.05762 2.00512L6.9596 3.10314L5.89688 2.04039L6.99486 0.942372ZM5.31561 2.62163L1.17613 6.76111C1.11876 6.81849 1.07965 6.89156 1.06374 6.97113L0.822453 8.17753L2.02887 7.93624C2.10844 7.92033 2.18151 7.88124 2.23889 7.82387L6.37837 3.68438L5.31561 2.62163Z" fill="#0F0F0F"/>
</svg>
