<svg width="12" height="12" viewBox="0 0 12 12" fill="none" xmlns="http://www.w3.org/2000/svg">
<g clip-path="url(#clip0_16572_3409)">
<path fill-rule="evenodd" clip-rule="evenodd" d="M9.75733 1.32363C9.22034 0.786657 8.34974 0.786655 7.81275 1.32363L1.32387 7.81254C1.13192 8.00449 1.00108 8.24896 0.947846 8.51512L0.678772 9.86051C0.55049 10.5019 1.116 11.0674 1.75741 10.9391L3.10277 10.6701C3.36896 10.6168 3.61343 10.486 3.80538 10.294L10.2943 3.80514C10.8312 3.26817 10.8312 2.39757 10.2943 1.8606L9.75733 1.32363ZM8.46093 1.97181C8.63995 1.79282 8.93013 1.79282 9.10915 1.97181L9.64609 2.50878C9.82511 2.68777 9.82511 2.97797 9.64609 3.15696L8.4216 4.38144L7.23649 3.19629L8.46093 1.97181ZM6.58827 3.84447L1.97205 8.46071C1.90807 8.52469 1.86446 8.60619 1.84671 8.69492L1.57764 10.0403L2.923 9.77118C3.01173 9.75344 3.09322 9.70985 3.15721 9.64587L7.77343 5.02962L6.58827 3.84447Z" fill="#1D4ED8"/>
</g>
<defs>
<clipPath id="clip0_16572_3409">
<rect width="11" height="11" fill="white" transform="translate(0.202148 0.462402)"/>
</clipPath>
</defs>
</svg>
