<svg width="11" height="12" viewBox="0 0 11 12" fill="none" xmlns="http://www.w3.org/2000/svg">
<g clip-path="url(#clip0_16481_3825)">
<path fill-rule="evenodd" clip-rule="evenodd" d="M9.55518 0.983783C9.01819 0.446813 8.14759 0.446811 7.61061 0.983783L1.12172 7.47269C0.929773 7.66464 0.798933 7.90912 0.745697 8.17527L0.476624 9.52066C0.348342 10.1621 0.913851 10.7276 1.55526 10.5993L2.90062 10.3302C3.16681 10.277 3.41129 10.1462 3.60324 9.9542L10.0921 3.4653C10.6291 2.92833 10.6291 2.05773 10.0921 1.52075L9.55518 0.983783ZM8.25878 1.63196C8.43781 1.45297 8.72798 1.45297 8.907 1.63196L9.44394 2.16894C9.62296 2.34792 9.62296 2.63812 9.44394 2.81712L8.21945 4.04159L7.03434 2.85644L8.25878 1.63196ZM6.38612 3.50463L1.7699 8.12087C1.70592 8.18485 1.66231 8.26634 1.64456 8.35508L1.37549 9.70042L2.72085 9.43133C2.80958 9.4136 2.89107 9.37001 2.95506 9.30603L7.57128 4.68977L6.38612 3.50463Z" fill="#374151"/>
</g>
<defs>
<clipPath id="clip0_16481_3825">
<rect width="11" height="11" fill="white" transform="translate(0 0.123047)"/>
</clipPath>
</defs>
</svg>
