<svg width="18" height="18" viewBox="0 0 18 18" fill="none" xmlns="http://www.w3.org/2000/svg">
<path d="M0.914375 15.6575H16.5544C16.9305 15.6575 17.2344 15.9613 17.2344 16.3375V17.1025C17.2344 17.196 17.1579 17.2725 17.0644 17.2725H0.404375C0.310875 17.2725 0.234375 17.196 0.234375 17.1025V16.3375C0.234375 15.9613 0.53825 15.6575 0.914375 15.6575ZM14.1382 13.8725C14.0957 13.8725 14.0532 13.8682 14.0107 13.8618L10.4365 13.235C10.394 13.2265 10.3536 13.2073 10.3239 13.1755L1.316 4.16759C1.2963 4.14793 1.28067 4.12458 1.27001 4.09887C1.25934 4.07316 1.25386 4.0456 1.25386 4.01777C1.25386 3.98994 1.25934 3.96238 1.27001 3.93668C1.28067 3.91097 1.2963 3.88762 1.316 3.86796L4.84775 0.334086C4.88812 0.293711 4.94125 0.272461 4.99862 0.272461C5.056 0.272461 5.10912 0.293711 5.1495 0.334086L14.1574 9.34196C14.1893 9.37384 14.2084 9.41209 14.2169 9.45459L14.8438 13.0288C14.8644 13.1427 14.857 13.2598 14.8222 13.3702C14.7874 13.4805 14.7262 13.5807 14.644 13.6621C14.5038 13.7981 14.3274 13.8725 14.1382 13.8725Z" fill="#C6C8CC"/>
</svg>
