<svg width="22" height="22" viewBox="0 0 22 22" fill="none" xmlns="http://www.w3.org/2000/svg">
<rect x="0.5" y="0.5" width="21" height="21" rx="10.5" stroke="#9CA3AF"/>
<path d="M7.29395 14.7072L9.31844 14.3022C9.49499 14.2669 9.58327 14.2492 9.66555 14.2169C9.73863 14.1883 9.80801 14.1511 9.8724 14.1062C9.94488 14.0556 10.0086 13.992 10.1358 13.8646L14.2922 9.70719C14.8443 9.15489 14.8443 8.25949 14.2922 7.70719C13.7401 7.15489 12.8448 7.15489 12.2927 7.70719L8.13633 11.8646C8.00907 11.992 7.94538 12.0556 7.89479 12.1282C7.84991 12.1925 7.81282 12.262 7.78412 12.3351C7.75183 12.4174 7.73423 12.5057 7.69884 12.6822L7.29395 14.7072Z" stroke="black" stroke-linecap="round" stroke-linejoin="round"/>
</svg>
