<svg width="19" height="19" viewBox="0 0 19 19" fill="none" xmlns="http://www.w3.org/2000/svg">
<path d="M16.4599 5.62774L9.30493 12.7827C8.59243 13.4952 6.4774 13.8252 6.0049 13.3527C5.5324 12.8802 5.8549 10.7652 6.5674 10.0527L13.7299 2.89021C13.9066 2.69751 14.1204 2.5426 14.3586 2.43483C14.5967 2.32705 14.8543 2.26863 15.1156 2.26312C15.3769 2.25763 15.6367 2.30513 15.8792 2.40279C16.1217 2.50045 16.3419 2.64625 16.5265 2.83135C16.711 3.01645 16.8562 3.23702 16.9532 3.47977C17.0502 3.72252 17.0971 3.98239 17.0908 4.24373C17.0846 4.50507 17.0254 4.76246 16.9171 5.00032C16.8086 5.23819 16.6531 5.45163 16.4599 5.62774Z" stroke="black" stroke-linecap="round" stroke-linejoin="round"/>
<path d="M8.75 3.82812H5C4.20435 3.82812 3.44133 4.14419 2.87872 4.7068C2.31612 5.26941 2 6.03247 2 6.82812V14.3281C2 15.1238 2.31612 15.8868 2.87872 16.4494C3.44133 17.0121 4.20435 17.3281 5 17.3281H13.25C14.9075 17.3281 15.5 15.9781 15.5 14.3281V10.5781" stroke="black" stroke-linecap="round" stroke-linejoin="round"/>
</svg>
