<svg width="25" height="25" viewBox="0 0 25 25" fill="none" xmlns="http://www.w3.org/2000/svg">
<rect x="0.5" y="0.5" width="24" height="24" rx="12" stroke="#E5E7EB"/>
<path fill-rule="evenodd" clip-rule="evenodd" d="M17.8765 6.48151C17.2345 5.8395 16.1935 5.83949 15.5515 6.48151L7.79319 14.2398C7.56369 14.4693 7.40726 14.7616 7.34361 15.0799L7.02189 16.6885C6.86851 17.4553 7.54466 18.1315 8.31155 17.9781L9.9201 17.6564C10.2384 17.5928 10.5307 17.4363 10.7602 17.2068L18.5185 9.44848C19.1605 8.80647 19.1605 7.76555 18.5185 7.12353L17.8765 6.48151ZM16.3265 7.2565C16.5405 7.04249 16.8875 7.04249 17.1015 7.2565L17.7435 7.89852C17.9575 8.11252 17.9575 8.45949 17.7435 8.6735L16.2795 10.1375L14.8625 8.72052L16.3265 7.2565ZM14.0875 9.4955L8.56818 15.0148C8.49168 15.0913 8.43954 15.1888 8.41832 15.2948L8.0966 16.9034L9.70516 16.5816C9.81125 16.5604 9.90868 16.5083 9.98519 16.4318L15.5045 10.9125L14.0875 9.4955Z" fill="#6B7280"/>
</svg>
