<svg width="16" height="14" viewBox="0 0 16 14" fill="none" xmlns="http://www.w3.org/2000/svg">
<path id="Subtract" fill-rule="evenodd" clip-rule="evenodd" d="M4.27907 0C3.07723 0 1.99044 0.30545 1.20161 1.0503C0.405299 1.80223 0 2.91885 0 4.35135V9.64865C0 11.0812 0.405299 12.1978 1.20161 12.9497C1.99044 13.6946 3.07723 14 4.27907 14H11.7209C12.9228 14 14.0096 13.6946 14.7984 12.9497C15.5947 12.1978 16 11.0812 16 9.64865V4.35135C16 2.91885 15.5947 1.80223 14.7984 1.0503C14.0096 0.30545 12.9228 0 11.7209 0H4.27907ZM13.3793 4.24715C13.6232 4.05549 13.6682 3.69904 13.4797 3.45101C13.2912 3.20297 12.9407 3.15727 12.6968 3.34893L8.56871 6.59256C8.23375 6.85584 7.76618 6.85584 7.43114 6.59256L3.30314 3.34893C3.05922 3.15727 2.7087 3.20297 2.52022 3.45101C2.33174 3.69904 2.37668 4.05549 2.62061 4.24715L6.74865 7.49083C7.48569 8.0699 8.51423 8.0699 9.25128 7.49083L13.3793 4.24715Z" fill="#848E9A"/>
</svg>
