<svg width="22" height="22" viewBox="0 0 22 22" fill="none" xmlns="http://www.w3.org/2000/svg">
<path fill-rule="evenodd" clip-rule="evenodd" d="M7.08325 20.1641C4.30106 20.2517 1.97227 18.0657 1.8751 15.2753V10.3851L1.86858 7.94139C1.70085 7.05606 2.14622 6.16798 2.95486 5.77528L8.23618 2.61516C9.93232 1.5727 12.0681 1.5727 13.7642 2.61516L19.0455 5.77921C19.8541 6.17191 20.2994 7.05999 20.1318 7.94532L20.1252 10.3904V15.2792C20.0259 18.0681 17.6978 20.2517 14.9171 20.1641H7.08325Z" stroke="#1D4ED8" stroke-width="2.16667" stroke-linecap="round" stroke-linejoin="round"/>
<path d="M2.45745 6.89743C1.99565 6.61246 1.40245 6.77667 1.13253 7.26419C0.862591 7.75173 1.01812 8.37798 1.47994 8.66292L2.45745 6.89743ZM8.30945 11.6929L8.80663 10.8153L8.79811 10.8102L8.30945 11.6929ZM13.6906 11.6929L13.2019 10.8102L13.1935 10.8155L13.6906 11.6929ZM20.52 8.66292C20.9818 8.37798 21.1374 7.75173 20.8675 7.26419C20.5975 6.77667 20.0044 6.61246 19.5426 6.89743L20.52 8.66292ZM13.3486 7.86281C13.8674 7.99977 14.3933 7.66669 14.5231 7.11883C14.6527 6.57098 14.3372 6.01584 13.8184 5.87888L13.3486 7.86281ZM11.0007 6.18919L11.2356 5.19722C11.0813 5.15651 10.92 5.15651 10.7658 5.19722L11.0007 6.18919ZM8.18302 5.87888C7.66403 6.01584 7.34852 6.57098 7.47825 7.11883C7.60798 7.66669 8.13382 7.99977 8.65283 7.86281L8.18302 5.87888ZM1.47994 8.66292L7.82066 12.5757L8.79811 10.8102L2.45745 6.89743L1.47994 8.66292ZM7.81227 12.5705C9.7753 13.8099 12.2248 13.8099 14.1877 12.5705L13.1935 10.8155C11.8427 11.6682 10.1574 11.6681 8.80663 10.8153L7.81227 12.5705ZM14.1793 12.5757L20.52 8.66292L19.5426 6.89743L13.2019 10.8102L14.1793 12.5757ZM13.8184 5.87888L11.2356 5.19722L10.7658 7.18115L13.3486 7.86281L13.8184 5.87888ZM10.7658 5.19722L8.18302 5.87888L8.65283 7.86281L11.2356 7.18115L10.7658 5.19722Z" fill="#1D4ED8"/>
</svg>
