<svg width="24" height="24" viewBox="0 0 24 24" fill="none" xmlns="http://www.w3.org/2000/svg">
<g id="eraser-3">
<path id="primary" d="M3.28982 15.0508L8.94982 20.7108C9.13718 20.897 9.39063 21.0016 9.65482 21.0016C9.919 21.0016 10.1725 20.897 10.3598 20.7108L20.7098 10.4108C20.8961 10.2234 21.0006 9.96998 21.0006 9.70579C21.0006 9.44161 20.8961 9.18815 20.7098 9.00079L15.0498 3.29079C14.8625 3.10454 14.609 3 14.3448 3C14.0806 3 13.8272 3.10454 13.6398 3.29079L3.28982 13.6408M3.28982 15.0508C3.10357 14.8634 2.99902 14.61 2.99902 14.3458C2.99902 14.0816 3.10357 13.8282 3.28982 13.6408M3.28982 15.0508L8.99982 20.7108C9.18718 20.897 9.44063 21.0016 9.70482 21.0016C9.969 21.0016 10.2225 20.897 10.4098 20.7108L13.9398 17.1708L6.82982 10.1008L3.28982 13.6408M9.99982 21.0008H17.9998" stroke="black" stroke-width="2" stroke-linecap="round" stroke-linejoin="round"/>
</g>
</svg>
