<svg width="25" height="25" viewBox="0 0 25 25" fill="none" xmlns="http://www.w3.org/2000/svg">
<path d="M12.6443 2.41406C7.1243 2.41406 2.6543 6.89406 2.6543 12.4141C2.6543 17.9341 7.1243 22.4141 12.6443 22.4141C18.1743 22.4141 22.6543 17.9341 22.6543 12.4141C22.6543 6.89406 18.1743 2.41406 12.6443 2.41406ZM12.6543 20.4141C8.2343 20.4141 4.6543 16.8341 4.6543 12.4141C4.6543 7.99406 8.2343 4.41406 12.6543 4.41406C17.0743 4.41406 20.6543 7.99406 20.6543 12.4141C20.6543 16.8341 17.0743 20.4141 12.6543 20.4141ZM11.6543 15.4141H13.6543V17.4141H11.6543V15.4141ZM11.6543 7.41406H13.6543V13.4141H11.6543V7.41406Z" fill="#D92D20"/>
</svg>
