<svg width="14" height="14" viewBox="0 0 14 14" fill="none" xmlns="http://www.w3.org/2000/svg">
<path fill-rule="evenodd" clip-rule="evenodd" d="M12.6289 7.05469C12.6289 10.1613 10.1105 12.6797 7.00391 12.6797C3.8973 12.6797 1.37891 10.1613 1.37891 7.05469C1.37891 3.94808 3.8973 1.42969 7.00391 1.42969C10.1105 1.42969 12.6289 3.94808 12.6289 7.05469ZM13.7539 7.05469C13.7539 10.7826 10.7319 13.8047 7.00391 13.8047C3.27599 13.8047 0.253906 10.7826 0.253906 7.05469C0.253906 3.32677 3.27599 0.304688 7.00391 0.304688C10.7319 0.304688 13.7539 3.32677 13.7539 7.05469ZM6.44141 8.17969V4.24219H7.56641V8.17969H6.44141ZM6.44141 9.86719V8.74219H7.56641V9.86719H6.44141Z" fill="#D92D20"/>
</svg>
