<svg width="18" height="19" viewBox="0 0 18 19" fill="none" xmlns="http://www.w3.org/2000/svg">
<path d="M9.21713 9.47878C7.96983 9.47878 6.95703 8.65258 6.95703 7.63288C6.95703 6.61318 7.96983 5.78699 9.21713 5.78699C10.4644 5.78699 11.4772 6.61318 11.4772 7.63288" stroke="#FF6805" stroke-linecap="round" stroke-linejoin="round"/>
<path d="M9.21713 9.47876C10.4644 9.47876 11.4772 10.305 11.4772 11.3247C11.4772 12.3444 10.4644 13.1683 9.21713 13.1683C7.96983 13.1683 6.95703 12.3421 6.95703 11.3247" stroke="#FF6805" stroke-linecap="round" stroke-linejoin="round"/>
<path d="M9.21875 4.79688V14.1584" stroke="#FF6805" stroke-linecap="round" stroke-linejoin="round"/>
<path d="M9.10695 17.8311C13.636 17.8311 17.3077 14.1595 17.3077 9.63039C17.3077 5.10127 13.636 1.42969 9.10695 1.42969C4.57775 1.42969 0.90625 5.10127 0.90625 9.63039C0.90625 14.1595 4.57775 17.8311 9.10695 17.8311Z" stroke="#2947F2" stroke-linecap="round" stroke-linejoin="round"/>
</svg>
