<svg width="21" height="21" viewBox="0 0 21 21" fill="none" xmlns="http://www.w3.org/2000/svg">
<path d="M17.4573 8.92588L9.10982 17.2733C8.27857 18.1046 5.81104 18.4896 5.25979 17.9383C4.70854 17.3871 5.08479 14.9196 5.91604 14.0883L14.2723 5.7321C14.4784 5.50728 14.7278 5.32656 15.0057 5.20082C15.2836 5.07508 15.584 5.00692 15.889 5.0005C16.1938 4.99409 16.4969 5.04951 16.7798 5.16344C17.0627 5.27738 17.3196 5.44748 17.5349 5.66343C17.7503 5.87938 17.9197 6.13671 18.0328 6.41992C18.1459 6.70313 18.2006 7.00631 18.1934 7.31121C18.1861 7.6161 18.1171 7.91639 17.9906 8.1939C17.8641 8.47141 17.6827 8.72042 17.4573 8.92588Z" stroke="black" stroke-linecap="round" stroke-linejoin="round"/>
</svg>
