<svg width="40" height="40" viewBox="0 0 40 40" fill="none" xmlns="http://www.w3.org/2000/svg">
<rect width="40" height="40" rx="20" fill="#DBEAFE"/>
<path d="M15.0596 20.6501C15.4186 21.0091 16.0007 21.0091 16.3598 20.6501C16.7188 20.291 16.7188 19.709 16.3598 19.35L15.0596 20.6501ZM12.0694 15.0596C11.7104 14.7006 11.1283 14.7006 10.7693 15.0596C10.4102 15.4186 10.4102 16.0007 10.7693 16.3598L12.0694 15.0596ZM11.4194 14.7903C10.9116 14.7903 10.5 15.2019 10.5 15.7097C10.5 16.2174 10.9116 16.629 11.4194 16.629V14.7903ZM28.5806 16.629C29.0884 16.629 29.5 16.2174 29.5 15.7097C29.5 15.2019 29.0884 14.7903 28.5806 14.7903V16.629ZM10.7693 15.0596C10.4102 15.4186 10.4102 16.0007 10.7693 16.3598C11.1283 16.7188 11.7104 16.7188 12.0694 16.3598L10.7693 15.0596ZM16.3598 12.0694C16.7188 11.7104 16.7188 11.1283 16.3598 10.7693C16.0007 10.4102 15.4186 10.4102 15.0596 10.7693L16.3598 12.0694ZM24.9404 19.35C24.5813 18.9909 23.9993 18.9909 23.6403 19.35C23.2812 19.709 23.2812 20.291 23.6403 20.6501L24.9404 19.35ZM27.9306 24.9404C28.2896 25.2994 28.8717 25.2994 29.2307 24.9404C29.5897 24.5814 29.5897 23.9993 29.2307 23.6403L27.9306 24.9404ZM28.5806 25.2097C29.0884 25.2097 29.5 24.7981 29.5 24.2903C29.5 23.7826 29.0884 23.371 28.5806 23.371V25.2097ZM11.4194 23.371C10.9116 23.371 10.5 23.7826 10.5 24.2903C10.5 24.7981 10.9116 25.2097 11.4194 25.2097V23.371ZM29.2307 24.9404C29.5897 24.5814 29.5897 23.9993 29.2307 23.6403C28.8717 23.2813 28.2896 23.2813 27.9306 23.6403L29.2307 24.9404ZM23.6403 27.9306C23.2812 28.2897 23.2812 28.8717 23.6403 29.2307C23.9993 29.5898 24.5813 29.5898 24.9404 29.2307L23.6403 27.9306ZM16.3598 19.35L12.0694 15.0596L10.7693 16.3598L15.0596 20.6501L16.3598 19.35ZM11.4194 16.629H28.5806V14.7903H11.4194V16.629ZM12.0694 16.3598L16.3598 12.0694L15.0596 10.7693L10.7693 15.0596L12.0694 16.3598ZM23.6403 20.6501L27.9306 24.9404L29.2307 23.6403L24.9404 19.35L23.6403 20.6501ZM28.5806 23.371H11.4194V25.2097H28.5806V23.371ZM27.9306 23.6403L23.6403 27.9306L24.9404 29.2307L29.2307 24.9404L27.9306 23.6403Z" fill="#374151"/>
</svg>
