<?xml version="1.0" standalone="no"?>
<!DOCTYPE svg PUBLIC "-//W3C//DTD SVG 20010904//EN"
 "http://www.w3.org/TR/2001/REC-SVG-20010904/DTD/svg10.dtd">
<svg version="1.0" xmlns="http://www.w3.org/2000/svg"
 width="512.000000pt" height="512.000000pt" viewBox="0 0 512.000000 512.000000"
 preserveAspectRatio="xMidYMid meet">

<g transform="translate(0.000000,512.000000) scale(0.100000,-0.100000)"
fill="#000000" stroke="none">
<path d="M2477 4466 c-84 -31 -139 -98 -153 -184 -6 -40 -6 -40 -68 -51 -383
-73 -687 -319 -831 -671 -85 -210 -113 -388 -125 -800 -12 -402 -35 -588 -97
-784 -76 -243 -177 -379 -452 -605 l-104 -86 957 -3 c526 -1 1387 -1 1913 0
l957 3 -109 90 c-207 169 -299 274 -379 432 -109 218 -151 457 -166 953 -12
404 -27 513 -95 718 -83 246 -226 444 -417 573 -121 82 -325 164 -461 184 -44
7 -47 9 -47 36 0 68 -52 144 -125 181 -50 26 -147 33 -198 14z"/>
<path d="M2050 1050 c0 -35 36 -126 70 -175 75 -109 194 -190 326 -221 172
-40 378 21 501 148 43 44 101 143 114 193 6 22 12 48 15 58 5 16 -24 17 -510
17 -511 0 -516 0 -516 -20z"/>
</g>
</svg>
