<svg width="443" height="328" viewBox="0 0 443 328" fill="none" xmlns="http://www.w3.org/2000/svg">
<path d="M69.6542 315C23.2579 315 -10.4108 270.42 2.95597 226.083C10.515 201.009 25.5324 176.545 54.091 161.706C132.242 121.1 125.358 132.234 162.196 63.9993C199.034 -4.23564 298.876 -20.4228 351.191 27.6422C425.186 95.6246 375.413 149.782 422.239 196.511C422.727 196.998 423.208 197.488 423.683 197.98C465.993 241.819 434.154 315 373.164 315H69.6542Z" fill="url(#paint0_linear_8865_141874)"/>
<path opacity="0.15" d="M259.019 164.413V141.588H149.703V164.412C149.704 176.347 153.628 187.953 160.872 197.45C168.116 206.947 178.281 213.812 189.809 216.993C191.501 217.467 192.992 218.48 194.053 219.877C195.115 221.275 195.69 222.981 195.69 224.734C195.69 226.488 195.115 228.194 194.053 229.592C192.992 230.989 191.501 232.002 189.809 232.476C178.28 235.657 168.115 242.522 160.871 252.02C153.627 261.517 149.704 273.123 149.703 285.058V307.883H259.019V285.058C259.017 273.123 255.094 261.518 247.85 252.021C240.606 242.524 230.441 235.659 218.913 232.478C217.22 232.004 215.73 230.991 214.668 229.594C213.606 228.196 213.031 226.49 213.031 224.736C213.031 222.982 213.606 221.276 214.668 219.879C215.73 218.481 217.22 217.468 218.913 216.994C230.441 213.814 240.606 206.949 247.85 197.452C255.094 187.954 259.018 176.349 259.019 164.414" fill="url(#paint1_linear_8865_141874)"/>
<path d="M265.37 137.434C265.37 138.519 264.944 139.562 264.183 140.338C263.422 141.115 262.387 141.562 261.299 141.586C261.268 141.588 261.238 141.588 261.206 141.588H147.702C147.67 141.588 147.64 141.588 147.608 141.586C146.512 141.562 145.47 141.107 144.708 140.321C143.946 139.535 143.526 138.48 143.538 137.386C143.551 136.293 143.995 135.248 144.774 134.479C145.554 133.71 146.606 133.279 147.702 133.279H261.204C261.751 133.279 262.293 133.386 262.798 133.595C263.303 133.804 263.763 134.11 264.149 134.495C264.536 134.881 264.843 135.339 265.052 135.843C265.262 136.347 265.369 136.888 265.37 137.434Z" fill="#292A2E"/>
<path fill-rule="evenodd" clip-rule="evenodd" d="M191.429 210.267C193.041 210.885 194.672 211.422 196.313 211.872C199.05 212.628 202.43 215.975 202.43 220.388V269.599C202.43 273.148 201.091 276.161 198.576 278.67C196.5 280.742 165.232 307.882 165.232 307.882H243.49C243.49 307.882 211.934 280.433 210.196 278.698C207.681 276.19 206.293 273.144 206.293 269.595V220.264C206.251 218.39 206.826 216.554 207.931 215.038C209.036 213.522 210.609 212.41 212.409 211.872C214.05 211.422 215.681 210.885 217.293 210.267H191.429Z" fill="#FF6805"/>
<path d="M265.399 310.951C265.4 312.037 264.974 313.08 264.213 313.856C263.452 314.632 262.417 315.08 261.329 315.104C261.297 315.106 261.267 315.106 261.236 315.106H147.732C147.7 315.106 147.67 315.106 147.639 315.104C146.543 315.079 145.501 314.625 144.739 313.838C143.977 313.052 143.556 311.998 143.569 310.904C143.581 309.81 144.025 308.766 144.804 307.997C145.584 307.228 146.636 306.796 147.732 306.797H261.236C262.34 306.797 263.399 307.234 264.18 308.014C264.96 308.793 265.399 309.849 265.399 310.951Z" fill="#292A2E"/>
<path d="M282.525 322.05C306.12 322.05 325.248 302.964 325.248 279.42C325.248 255.876 306.12 236.79 282.525 236.79C258.93 236.79 239.803 255.876 239.803 279.42C239.803 302.964 258.93 322.05 282.525 322.05Z" fill="#2947F2"/>
<path d="M282.526 281.983C283.944 281.983 285.095 280.836 285.095 279.42C285.095 278.005 283.944 276.857 282.526 276.857C281.107 276.857 279.957 278.005 279.957 279.42C279.957 280.836 281.107 281.983 282.526 281.983Z" fill="white"/>
<mask id="path-8-outside-1_8865_141874" maskUnits="userSpaceOnUse" x="281.269" y="253.32" width="35" height="45" fill="black">
<rect fill="white" x="281.269" y="253.32" width="35" height="45"/>
<path d="M314.193 296.513C314.162 296.522 314.13 296.525 314.097 296.522C314.065 296.519 314.034 296.509 314.005 296.494L282.409 279.637C282.37 279.616 282.337 279.585 282.314 279.546C282.291 279.508 282.279 279.465 282.279 279.42L282.269 254.566C282.269 254.5 282.295 254.438 282.341 254.392C282.387 254.346 282.449 254.32 282.515 254.32C282.58 254.32 282.643 254.346 282.689 254.392C282.735 254.438 282.761 254.5 282.761 254.566L282.772 279.273L314.237 296.061C314.28 296.084 314.316 296.119 314.339 296.162C314.362 296.205 314.371 296.254 314.366 296.302C314.362 296.35 314.343 296.396 314.312 296.434C314.281 296.471 314.24 296.499 314.193 296.513Z"/>
</mask>
<path d="M314.193 296.513C314.162 296.522 314.13 296.525 314.097 296.522C314.065 296.519 314.034 296.509 314.005 296.494L282.409 279.637C282.37 279.616 282.337 279.585 282.314 279.546C282.291 279.508 282.279 279.465 282.279 279.42L282.269 254.566C282.269 254.5 282.295 254.438 282.341 254.392C282.387 254.346 282.449 254.32 282.515 254.32C282.58 254.32 282.643 254.346 282.689 254.392C282.735 254.438 282.761 254.5 282.761 254.566L282.772 279.273L314.237 296.061C314.28 296.084 314.316 296.119 314.339 296.162C314.362 296.205 314.371 296.254 314.366 296.302C314.362 296.35 314.343 296.396 314.312 296.434C314.281 296.471 314.24 296.499 314.193 296.513Z" fill="white"/>
<path d="M314.193 296.513L313.903 295.556L313.902 295.556L314.193 296.513ZM314.005 296.494L314.479 295.613L314.476 295.612L314.005 296.494ZM282.409 279.637L282.88 278.754L282.879 278.754L282.409 279.637ZM282.279 279.42L283.279 279.42L283.279 279.42L282.279 279.42ZM282.269 254.566H281.269L281.269 254.566L282.269 254.566ZM282.761 254.566H281.761L281.761 254.566L282.761 254.566ZM282.772 279.273L281.772 279.274L281.772 279.873L282.301 280.155L282.772 279.273ZM314.237 296.061L313.767 296.944L313.767 296.944L314.237 296.061ZM313.902 295.556C313.998 295.527 314.097 295.517 314.196 295.527L313.999 297.517C314.162 297.533 314.327 297.517 314.484 297.469L313.902 295.556ZM314.196 295.527C314.295 295.537 314.391 295.566 314.479 295.613L313.532 297.375C313.677 297.453 313.836 297.501 313.999 297.517L314.196 295.527ZM314.476 295.612L282.88 278.754L281.939 280.519L313.535 297.376L314.476 295.612ZM282.879 278.754C283 278.818 283.101 278.914 283.171 279.031L281.457 280.062C281.574 280.256 281.741 280.414 281.94 280.52L282.879 278.754ZM283.171 279.031C283.242 279.148 283.279 279.283 283.279 279.42L281.279 279.421C281.279 279.647 281.341 279.868 281.457 280.062L283.171 279.031ZM283.279 279.42L283.269 254.565L281.269 254.566L281.279 279.421L283.279 279.42ZM283.269 254.566C283.269 254.767 283.189 254.959 283.047 255.1L281.634 253.684C281.4 253.917 281.269 254.234 281.269 254.566H283.269ZM283.047 255.1C282.905 255.241 282.714 255.32 282.515 255.32V253.32C282.185 253.32 281.868 253.451 281.634 253.684L283.047 255.1ZM282.515 255.32C282.316 255.32 282.124 255.241 281.983 255.1L283.395 253.684C283.161 253.451 282.844 253.32 282.515 253.32V255.32ZM281.983 255.1C281.841 254.958 281.761 254.766 281.761 254.566H283.761C283.761 254.235 283.629 253.918 283.395 253.684L281.983 255.1ZM281.761 254.566L281.772 279.274L283.772 279.273L283.761 254.565L281.761 254.566ZM282.301 280.155L313.767 296.944L314.708 295.179L283.242 278.391L282.301 280.155ZM313.767 296.944C313.636 296.874 313.528 296.766 313.457 296.634L315.22 295.69C315.104 295.472 314.925 295.295 314.708 295.179L313.767 296.944ZM313.457 296.634C313.387 296.503 313.357 296.353 313.371 296.204L315.362 296.4C315.386 296.154 315.337 295.907 315.22 295.69L313.457 296.634ZM313.371 296.204C313.386 296.055 313.445 295.914 313.539 295.799L315.084 297.069C315.241 296.878 315.337 296.646 315.362 296.4L313.371 296.204ZM313.539 295.799C313.637 295.68 313.764 295.598 313.903 295.556L314.483 297.47C314.715 297.399 314.925 297.262 315.084 297.069L313.539 295.799Z" fill="white" mask="url(#path-8-outside-1_8865_141874)"/>
<path d="M164.919 196.929C164.919 196.929 163.91 202.145 159.016 202.436C154.122 202.727 155.183 206.618 155.183 206.618H173.887V197.293L164.919 196.929Z" fill="#367CFF"/>
<path d="M175.59 181.239C175.59 181.239 176.993 186.363 172.729 188.78C168.466 191.196 171.141 194.221 171.141 194.221L187.923 185.982L183.798 177.615L175.59 181.239Z" fill="#367CFF"/>
<path d="M173.814 184.627L161.168 137.015C160.208 131.755 161.652 129.476 163.878 127.261C167.788 123.37 183.988 115.088 183.988 115.088L203.423 115.035C208.576 115.035 213.644 120.105 213.644 125.247C213.644 130.389 208.405 134.75 203.25 134.75L179.317 137.135L185.804 180.73L173.814 184.627Z" fill="#262626"/>
<path d="M185.805 180.728L183.251 163.565L170.312 171.441L173.815 184.627L185.805 180.728Z" fill="#0C0C0C"/>
<path d="M188.739 124.723C188.739 124.723 180.569 126.54 172.477 134.613C167.571 139.508 167.974 148.367 168.71 165.405L176.746 153.56L185.56 137.698L188.739 124.723Z" fill="#0C0C0C"/>
<path d="M217.026 115.029L203.827 114.967L203.822 115.139H199.825C199.825 115.139 189.815 124.332 181.755 130.124C175.892 134.337 172.316 138.353 172.006 142.731C171.252 153.403 162.743 198.915 162.743 198.915L175.548 200.85L186.785 146.459C186.785 146.459 204.357 138.376 208.421 135.563C212.248 132.915 214.952 131.891 216.218 129C218.406 124.009 217.026 115.029 217.026 115.029Z" fill="#262626"/>
<path d="M202.218 118.347L180.807 118.63L192.818 125.788L202.813 120.638C203.054 120.509 203.245 120.303 203.355 120.053C203.464 119.803 203.487 119.523 203.418 119.259C203.35 118.995 203.194 118.761 202.976 118.596C202.759 118.431 202.492 118.343 202.218 118.347Z" fill="#292A2E"/>
<path opacity="0.2" d="M202.218 118.347L180.807 118.63L192.818 125.788L202.813 120.638C203.054 120.509 203.245 120.303 203.355 120.053C203.464 119.803 203.487 119.523 203.418 119.259C203.35 118.995 203.194 118.761 202.976 118.596C202.759 118.431 202.492 118.343 202.218 118.347Z" fill="white"/>
<path d="M180.929 80.0174L174.874 99.5982L162.743 115.446L169.829 123.562L184.261 107.49C184.926 106.966 185.446 106.281 185.772 105.5L185.997 104.957L194.332 84.8327L180.929 80.0174Z" fill="#05F2F2"/>
<path d="M190.259 59.232C190.259 59.232 187.819 57.3941 187.214 53.1636C186.746 49.8879 189.774 52.01 189.774 52.01C189.774 52.01 189.46 49.6484 191.184 49.8827C192.908 50.117 193.874 52.5982 193.874 52.5982" fill="#0C0C0C"/>
<path d="M200.099 50.159C200.099 50.159 208.655 51.0745 205.562 62.6442L204.805 62.6949L203.268 62.7982" fill="#0C0C0C"/>
<path d="M191.692 74.7273C191.73 74.7225 192.148 81.6347 200.195 81.0328C205.766 80.6162 207.752 74.7183 207.88 74.7183C207.279 74.5909 206.537 74.3976 206.242 74.3311C205.599 74.1822 205.017 73.8415 204.573 73.3543C204.129 72.8672 203.844 72.2566 203.756 71.6038C203.593 70.6243 203.869 65.6119 203.784 64.6206L195.233 66.525C195.352 68.6186 196.188 73.4721 193.257 74.3311C192.769 74.4727 192.244 74.6033 191.692 74.7273Z" fill="#E98862"/>
<path opacity="0.52" d="M195.113 72.3471C195.247 71.9163 195.333 71.4721 195.371 71.0226C195.465 69.9969 195.446 68.9639 195.315 67.9422C197.053 67.7078 198.69 66.9915 200.041 65.8748C200.2 66.4606 201.073 69.0169 200.831 69.573C200.373 70.6257 198.226 72.3471 195.113 72.3471Z" fill="#0C0C0C"/>
<path d="M196.878 70.9788C200.252 70.677 204.29 68.55 204.348 63.9804L204.401 59.8571C204.459 55.2875 202.101 51.5531 197.789 51.4976C193.477 51.4422 190.206 55.1066 190.148 59.6772L190.125 61.5034C190.129 62.1304 190.175 62.7564 190.263 63.3771C190.484 65.0189 190.827 67.516 191.944 69.2047C192.998 70.7976 194.722 71.1718 196.878 70.9788Z" fill="#E98862"/>
<path opacity="0.52" d="M195.312 66.8021C194.616 66.8336 193.922 66.7012 193.287 66.4158C193.261 66.4038 193.242 66.3824 193.232 66.3562C193.222 66.33 193.222 66.301 193.233 66.2752C193.244 66.2494 193.265 66.2289 193.291 66.2179C193.317 66.2069 193.346 66.2064 193.372 66.2163C194.741 66.799 195.985 66.7135 196.968 65.9696C196.988 65.9539 197.008 65.9393 197.03 65.9258C197.055 65.9115 197.084 65.9077 197.112 65.9152C197.14 65.9227 197.164 65.941 197.178 65.966C197.193 65.991 197.196 66.0206 197.189 66.0485C197.181 66.0763 197.163 66.1 197.138 66.1143C197.13 66.1191 197.117 66.1291 197.099 66.1426C196.583 66.535 195.96 66.7647 195.312 66.8021Z" fill="#0C0C0C"/>
<path opacity="0.52" d="M195.345 67.8316C195.219 67.8392 195.093 67.8362 194.968 67.8226C194.939 67.8196 194.913 67.8054 194.894 67.783C194.876 67.7606 194.868 67.7319 194.871 67.7033C194.874 67.6746 194.888 67.6483 194.91 67.6302C194.933 67.6121 194.962 67.6036 194.99 67.6066C195.188 67.6428 195.39 67.6366 195.585 67.5884C195.779 67.5402 195.961 67.4512 196.119 67.3272C196.139 67.3068 196.167 67.2953 196.196 67.2953C196.225 67.2953 196.252 67.3067 196.273 67.327C196.293 67.3473 196.305 67.3749 196.305 67.4037C196.305 67.4325 196.293 67.4601 196.273 67.4805C196.013 67.7011 195.685 67.8251 195.345 67.8316Z" fill="#0C0C0C"/>
<path d="M191.572 62.3803C191.865 62.3803 192.103 62.143 192.103 61.8503C192.103 61.5577 191.865 61.3204 191.572 61.3204C191.279 61.3204 191.041 61.5577 191.041 61.8503C191.041 62.143 191.279 62.3803 191.572 62.3803Z" fill="#0C0C0C"/>
<path d="M196.762 62.0554C197.055 62.0554 197.293 61.8181 197.293 61.5254C197.293 61.2327 197.055 60.9955 196.762 60.9955C196.468 60.9955 196.23 61.2327 196.23 61.5254C196.23 61.8181 196.468 62.0554 196.762 62.0554Z" fill="#0C0C0C"/>
<path d="M204.062 65.369C205.372 65.3859 206.453 64.0004 206.469 62.6928C206.486 61.3852 205.433 60.6509 204.121 60.634L203.435 61.5034L202.935 65.3566L204.062 65.369Z" fill="#E98862"/>
<path d="M202.758 63.2682C202.758 63.2682 202.315 56.8021 200.351 56.4028C199.042 56.1368 195.869 57.9878 192.929 57.4296C191.643 57.185 190.422 57.5026 190.298 58.1087C190.249 58.3499 189.447 54.8998 191.461 52.2822C193.065 50.1983 198.312 49.6098 200.699 50.2934C207.309 52.1854 204.392 60.9176 204.392 60.9176L204.098 63.1469L202.758 63.2682Z" fill="#0C0C0C"/>
<g opacity="0.52">
<path d="M194.519 65.276H194.511C194.089 65.2718 193.381 65.2177 193.384 64.9025C193.387 64.6413 194.131 61.829 194.216 61.5092C194.226 61.4842 194.244 61.4637 194.268 61.4514C194.292 61.4392 194.319 61.4363 194.345 61.4431C194.371 61.45 194.393 61.4662 194.408 61.4886C194.422 61.511 194.428 61.538 194.424 61.5644C194.092 62.8099 193.6 64.7271 193.598 64.9045C193.885 65.03 194.199 65.0838 194.512 65.0613C194.54 65.0605 194.568 65.071 194.589 65.0905C194.61 65.11 194.622 65.137 194.622 65.1654C194.623 65.1938 194.613 65.2214 194.593 65.2421C194.574 65.2627 194.547 65.2748 194.518 65.2756L194.519 65.276Z" fill="#0C0C0C"/>
</g>
<path d="M193.079 58.9767C192.636 58.8549 192.167 58.8549 191.723 58.9767C191.505 59.0352 191.297 59.126 191.106 59.2461C190.918 59.3639 190.745 59.5049 190.591 59.6658C190.563 59.6945 190.547 59.733 190.546 59.7733C190.545 59.8136 190.56 59.8526 190.588 59.8822C190.615 59.9117 190.653 59.9295 190.693 59.9319C190.734 59.9343 190.773 59.921 190.804 59.8949L190.814 59.8867C190.955 59.7555 191.113 59.6426 191.283 59.5507C191.45 59.4596 191.63 59.394 191.817 59.3564C192.184 59.2797 192.565 59.301 192.922 59.4181L192.937 59.4232C192.996 59.444 193.06 59.4405 193.117 59.4137C193.173 59.3868 193.216 59.3388 193.237 59.2801C193.258 59.2213 193.254 59.1568 193.228 59.1006C193.201 59.0444 193.152 59.0012 193.094 58.9805L193.079 58.9767Z" fill="#0C0C0C"/>
<path d="M196.222 59.2427C196.56 59.0792 196.935 59.0078 197.309 59.036C197.499 59.0482 197.686 59.0892 197.864 59.1576C198.045 59.226 198.216 59.3167 198.374 59.4277L198.384 59.4343C198.418 59.4563 198.459 59.4644 198.499 59.4569C198.539 59.4493 198.574 59.4267 198.597 59.3937C198.621 59.3608 198.631 59.3201 198.624 59.2801C198.618 59.2402 198.597 59.2042 198.565 59.1797C198.392 59.0404 198.201 58.9236 197.998 58.832C197.793 58.7384 197.575 58.676 197.351 58.647C196.895 58.5851 196.43 58.6472 196.007 58.8268C195.95 58.8516 195.905 58.898 195.882 58.9559C195.859 59.0138 195.86 59.0784 195.885 59.1356C195.909 59.1927 195.956 59.2376 196.014 59.2605C196.072 59.2834 196.137 59.2823 196.194 59.2575L196.207 59.2513L196.222 59.2427Z" fill="#0C0C0C"/>
<path d="M196.007 52.3118C196.305 50.8872 195.761 49.5684 194.791 49.3662C193.821 49.1639 192.793 50.1549 192.494 51.5795C192.196 53.0041 192.74 54.323 193.71 54.5252C194.68 54.7274 195.709 53.7364 196.007 52.3118Z" fill="#0C0C0C"/>
<path d="M181.694 89.918C181.947 92.8892 183.745 111.428 183.988 115.088H217.011C217.201 111.787 218.053 97.3523 218.772 90.897C219.459 84.7372 220.422 81.9339 219.631 80.0198C218.236 76.6431 213.795 75.136 210.787 74.7297C208.951 74.4817 206.189 74.3039 206.189 74.3039C206.189 74.3039 205.955 79.0244 200.379 79.2869C192.788 79.6446 193.295 74.3039 193.257 74.3039C192.027 74.3039 185.333 75.1959 183.659 76.2848C182.705 76.8638 181.918 77.6807 181.377 78.6552C180.835 79.6297 180.556 80.7282 180.569 81.8425C180.537 84.0591 181.406 86.5479 181.694 89.918Z" fill="#05F2F2"/>
<path d="M183.369 107.783C183.345 107.782 183.322 107.774 183.305 107.758C183.288 107.742 183.277 107.72 183.275 107.697L182.024 93.4184C182.023 93.406 182.024 93.3935 182.027 93.3816C182.031 93.3696 182.037 93.3585 182.045 93.3489C182.053 93.3393 182.063 93.3313 182.074 93.3255C182.085 93.3197 182.097 93.3162 182.109 93.3151C182.122 93.3136 182.134 93.3146 182.146 93.3181C182.159 93.3216 182.17 93.3276 182.179 93.3356C182.189 93.3436 182.197 93.3534 182.203 93.3646C182.209 93.3758 182.212 93.388 182.213 93.4005L183.464 107.679C183.465 107.691 183.464 107.704 183.46 107.715C183.457 107.727 183.451 107.738 183.443 107.747C183.435 107.757 183.425 107.765 183.414 107.77C183.403 107.776 183.391 107.779 183.379 107.78L183.369 107.783Z" fill="#0C0C0C"/>
<path d="M185.764 116.077L190.298 112.406L189.535 112.621C189.287 112.685 189.024 112.654 188.799 112.532C188.574 112.411 188.403 112.208 188.322 111.966C188.284 111.84 188.273 111.707 188.288 111.576C188.304 111.445 188.346 111.318 188.412 111.204C188.478 111.09 188.567 110.99 188.672 110.911C188.778 110.832 188.899 110.776 189.028 110.745L198.554 108.433L199.373 111.461C199.627 112.401 199.594 113.396 199.279 114.317C198.963 115.239 198.378 116.045 197.6 116.633L194.07 119.291C193.89 119.433 193.666 119.508 193.436 119.503C193.206 119.499 192.985 119.416 192.81 119.267C192.654 119.13 192.547 118.947 192.504 118.744C192.46 118.542 192.483 118.331 192.568 118.142C192.557 118.139 192.547 118.133 192.538 118.126C192.529 118.119 192.522 118.11 192.516 118.1C192.511 118.09 192.508 118.079 192.507 118.067C192.506 118.056 192.507 118.044 192.511 118.034L191.861 118.525C191.66 118.684 191.406 118.76 191.151 118.739C190.896 118.718 190.658 118.601 190.486 118.411C190.339 118.237 190.257 118.016 190.257 117.788C190.256 117.559 190.336 117.338 190.483 117.163C190.473 117.161 190.463 117.158 190.454 117.153L190.186 117.355C190.006 117.496 189.781 117.571 189.552 117.567C189.322 117.562 189.101 117.479 188.926 117.33C188.737 117.164 188.62 116.931 188.6 116.68C188.58 116.43 188.658 116.181 188.818 115.987C188.814 115.981 188.811 115.975 188.808 115.969L186.92 117.498C186.827 117.573 186.719 117.63 186.603 117.664C186.488 117.699 186.367 117.71 186.247 117.697C186.127 117.685 186.011 117.649 185.905 117.592C185.799 117.534 185.705 117.457 185.629 117.363C185.553 117.27 185.496 117.163 185.462 117.047C185.428 116.932 185.416 116.811 185.429 116.692C185.441 116.572 185.477 116.456 185.535 116.35C185.592 116.244 185.67 116.151 185.763 116.075L185.764 116.077Z" fill="#E98862"/>
<path opacity="0.2" d="M188.924 116.024C188.934 116.021 188.944 116.015 188.952 116.008L190.768 114.503C190.786 114.487 190.797 114.465 190.799 114.441C190.801 114.417 190.794 114.394 190.779 114.376C190.763 114.357 190.742 114.346 190.718 114.343C190.694 114.34 190.67 114.347 190.652 114.362L188.835 115.868C188.818 115.882 188.807 115.901 188.803 115.922C188.799 115.943 188.803 115.965 188.814 115.984C188.824 116.002 188.841 116.016 188.862 116.024C188.882 116.031 188.904 116.031 188.924 116.024Z" fill="#0A0A0A"/>
<path opacity="0.2" d="M190.525 117.162C190.535 117.158 190.544 117.153 190.552 117.147L191.989 115.975C192.007 115.96 192.018 115.938 192.019 115.914C192.021 115.891 192.014 115.868 191.999 115.849C191.984 115.831 191.963 115.819 191.939 115.817C191.916 115.814 191.892 115.82 191.874 115.834L190.436 117.005C190.42 117.019 190.409 117.038 190.405 117.059C190.401 117.08 190.405 117.102 190.415 117.121C190.426 117.139 190.443 117.154 190.463 117.161C190.483 117.169 190.505 117.169 190.525 117.162Z" fill="#0A0A0A"/>
<path opacity="0.2" d="M192.628 118.145C192.638 118.141 192.648 118.135 192.657 118.128L193.322 117.558C193.331 117.55 193.339 117.541 193.344 117.53C193.35 117.519 193.353 117.508 193.354 117.496C193.355 117.484 193.353 117.472 193.349 117.461C193.346 117.449 193.34 117.439 193.332 117.43C193.324 117.421 193.314 117.413 193.304 117.408C193.293 117.403 193.281 117.399 193.269 117.398C193.257 117.398 193.245 117.399 193.234 117.403C193.223 117.407 193.212 117.413 193.203 117.42L192.537 117.99C192.521 118.004 192.511 118.023 192.507 118.044C192.504 118.065 192.508 118.086 192.518 118.105C192.529 118.123 192.546 118.137 192.566 118.145C192.586 118.152 192.608 118.152 192.628 118.145Z" fill="#0A0A0A"/>
<path d="M225.839 107.086L225.805 106.931L219.778 80.3309L207.853 83.0206L212.558 103.785L193.711 108.405L196.03 119.018L221.145 114.237C221.202 114.226 221.283 114.209 221.342 114.196C222.105 114.024 222.827 113.704 223.466 113.253C224.105 112.803 224.649 112.231 225.067 111.571C225.484 110.91 225.768 110.174 225.9 109.405C226.033 108.635 226.012 107.847 225.839 107.086Z" fill="#05F2F2"/>
<path d="M193.618 108.425C193.613 108.401 193.618 108.376 193.63 108.355C193.643 108.335 193.664 108.32 193.687 108.314L212.449 103.717L209.398 90.2719C209.393 90.2477 209.397 90.2222 209.41 90.2012C209.424 90.1802 209.445 90.1653 209.469 90.1598C209.494 90.1543 209.519 90.1587 209.54 90.172C209.561 90.1852 209.576 90.2063 209.582 90.2306L212.653 103.765C212.658 103.789 212.654 103.814 212.641 103.835C212.628 103.856 212.608 103.871 212.584 103.877L193.821 108.475C193.821 108.475 193.946 109.022 193.982 109.206C193.984 109.229 193.976 109.253 193.961 109.271C193.946 109.289 193.925 109.301 193.901 109.304C193.878 109.306 193.854 109.3 193.835 109.286C193.816 109.271 193.804 109.25 193.8 109.227C193.757 109.026 193.618 108.425 193.618 108.425Z" fill="#0C0C0C"/>
<path d="M194.354 123.242L187.108 101.017C186.98 100.627 186.733 100.286 186.4 100.045C186.066 99.8037 185.665 99.6737 185.254 99.6736H155.734C155.426 99.6736 155.123 99.7462 154.849 99.8856C154.574 100.025 154.337 100.227 154.156 100.476C153.975 100.724 153.856 101.012 153.808 101.315C153.76 101.618 153.785 101.929 153.88 102.221L161.126 124.445C161.253 124.836 161.501 125.176 161.834 125.417C162.167 125.659 162.568 125.789 162.98 125.789H192.5C192.808 125.789 193.111 125.716 193.385 125.576C193.659 125.437 193.897 125.235 194.077 124.986C194.258 124.738 194.377 124.45 194.425 124.147C194.474 123.844 194.449 123.534 194.354 123.242Z" fill="#292A2E"/>
<path opacity="0.2" d="M194.354 123.242L187.108 101.017C186.98 100.627 186.733 100.286 186.4 100.045C186.066 99.8037 185.665 99.6737 185.254 99.6736H155.734C155.426 99.6736 155.123 99.7462 154.849 99.8856C154.574 100.025 154.337 100.227 154.156 100.476C153.975 100.724 153.856 101.012 153.808 101.315C153.76 101.618 153.785 101.929 153.88 102.221L161.126 124.445C161.253 124.836 161.501 125.176 161.834 125.417C162.167 125.659 162.568 125.789 162.98 125.789H192.5C192.808 125.789 193.111 125.716 193.385 125.576C193.659 125.437 193.897 125.235 194.077 124.986C194.258 124.738 194.377 124.45 194.425 124.147C194.474 123.844 194.449 123.534 194.354 123.242Z" fill="white"/>
<path d="M173.266 115.82C174.976 115.82 176.362 114.437 176.362 112.731C176.362 111.025 174.976 109.641 173.266 109.641C171.556 109.641 170.17 111.025 170.17 112.731C170.17 114.437 171.556 115.82 173.266 115.82Z" fill="white"/>
<defs>
<linearGradient id="paint0_linear_8865_141874" x1="221.5" y1="0" x2="221.5" y2="250" gradientUnits="userSpaceOnUse">
<stop stop-color="#F5F7FA"/>
<stop offset="1" stop-color="#F5F7FA" stop-opacity="0"/>
</linearGradient>
<linearGradient id="paint1_linear_8865_141874" x1="204.361" y1="141.588" x2="204.361" y2="307.883" gradientUnits="userSpaceOnUse">
<stop stop-color="#2947F2"/>
<stop offset="1" stop-color="#2947F2" stop-opacity="0"/>
</linearGradient>
</defs>
</svg>
