<svg width="51" height="28" viewBox="0 0 51 28" fill="none" xmlns="http://www.w3.org/2000/svg">
<path d="M17.1176 18.45V13.32C17.1176 11.8079 17.1176 11.0518 16.8291 10.4742C16.5754 9.96619 16.1704 9.55314 15.6724 9.29428C15.1061 9 14.3649 9 12.8824 9H7.23529C5.7528 9 5.01155 9 4.44532 9.29428C3.94724 9.55314 3.54229 9.96619 3.28851 10.4742C3 11.0518 3 11.8079 3 13.32V22.68C3 24.1922 3 24.9482 3.28851 25.5258C3.54229 26.0338 3.94724 26.4469 4.44532 26.7057C5.01155 27 5.75276 27 7.23517 27H10.5M11.8235 17.1H6.52941M8.29412 20.7H6.52941M13.5882 13.5H6.52941" stroke="#6B7280" stroke-width="2" stroke-linecap="round" stroke-linejoin="round"/>
<path d="M12.7061 24.3L15.3531 27M15.3531 27L18.0002 24.3M15.3531 27V21.6" stroke="#15803D" stroke-width="2" stroke-linecap="round" stroke-linejoin="round"/>
<rect x="12" width="39" height="18" rx="3" fill="#15803D"/>
<path d="M23.6953 13H19.1895V11.7871H23.6953V13ZM19.6113 13H18.0996V4.46875H19.6113V13ZM23.1035 9.20312H19.1895V8.00781H23.1035V9.20312ZM23.666 5.6875H19.1895V4.46875H23.666V5.6875ZM27.0527 8.7168L28.248 6.66016H29.8418L27.9316 9.77148L29.9121 13H28.3242L27.0586 10.8496L25.8047 13H24.1992L26.1855 9.77148L24.2754 6.66016H25.875L27.0527 8.7168ZM33.2695 11.9512C33.4961 11.9512 33.7012 11.9062 33.8848 11.8164C34.0684 11.7227 34.2148 11.5957 34.3242 11.4355C34.4336 11.2754 34.4941 11.0918 34.5059 10.8848H35.877C35.8652 11.3027 35.7422 11.6797 35.5078 12.0156C35.2734 12.3516 34.9629 12.6191 34.5762 12.8184C34.1895 13.0176 33.7578 13.1172 33.2812 13.1172C32.6367 13.1172 32.0996 12.9746 31.6699 12.6895C31.2441 12.4004 30.9258 12.0156 30.7148 11.5352C30.5039 11.0508 30.3984 10.5156 30.3984 9.92969V9.73047C30.3984 9.14453 30.5039 8.61133 30.7148 8.13086C30.9258 7.64648 31.2441 7.26172 31.6699 6.97656C32.0996 6.6875 32.6367 6.54297 33.2812 6.54297C33.793 6.54297 34.2402 6.64453 34.623 6.84766C35.0098 7.04688 35.3125 7.32617 35.5312 7.68555C35.75 8.04492 35.8652 8.46484 35.877 8.94531H34.5059C34.4941 8.71875 34.4375 8.51172 34.3359 8.32422C34.2383 8.13672 34.0977 7.98828 33.9141 7.87891C33.7344 7.76562 33.5176 7.70898 33.2637 7.70898C32.8887 7.70898 32.5977 7.80664 32.3906 8.00195C32.1875 8.19727 32.0469 8.44922 31.9688 8.75781C31.8906 9.06641 31.8516 9.39062 31.8516 9.73047V9.92969C31.8516 10.2734 31.8887 10.5996 31.9629 10.9082C32.041 11.2168 32.1836 11.4688 32.3906 11.6641C32.5977 11.8555 32.8906 11.9512 33.2695 11.9512ZM39.7559 13.1172C39.127 13.1172 38.584 12.9824 38.127 12.7129C37.6699 12.4395 37.3184 12.0723 37.0723 11.6113C36.8262 11.1465 36.7031 10.627 36.7031 10.0527V9.8125C36.7031 9.15234 36.8281 8.57812 37.0781 8.08984C37.3281 7.59766 37.6699 7.2168 38.1035 6.94727C38.541 6.67773 39.0352 6.54297 39.5859 6.54297C40.1953 6.54297 40.7012 6.67578 41.1035 6.94141C41.5059 7.20312 41.8066 7.56836 42.0059 8.03711C42.2051 8.50195 42.3047 9.04102 42.3047 9.6543V10.2812H37.4004V9.23242H40.8691V9.12109C40.8613 8.875 40.8145 8.64453 40.7285 8.42969C40.6426 8.21484 40.5059 8.04102 40.3184 7.9082C40.1348 7.77539 39.8887 7.70898 39.5801 7.70898C39.2715 7.70898 39.0117 7.79688 38.8008 7.97266C38.5898 8.14453 38.4297 8.38867 38.3203 8.70508C38.2109 9.01758 38.1562 9.38672 38.1562 9.8125V10.0527C38.1562 10.4121 38.2227 10.7344 38.3555 11.0195C38.4883 11.3047 38.6816 11.5312 38.9355 11.6992C39.1895 11.8633 39.4922 11.9453 39.8438 11.9453C40.1836 11.9453 40.4844 11.8789 40.7461 11.7461C41.0117 11.6133 41.2402 11.4219 41.4316 11.1719L42.1934 11.9336C41.9941 12.2344 41.6934 12.5078 41.291 12.7539C40.8926 12.9961 40.3809 13.1172 39.7559 13.1172ZM44.9414 13H43.4883V4H44.9414V13Z" fill="white"/>
</svg>
