<svg width="19" height="16" viewBox="0 0 19 16" fill="none" xmlns="http://www.w3.org/2000/svg">
<path d="M9.46904 8.30479V14.8303M9.46904 14.8303L7.37156 12.6552M9.46904 14.8303L11.5665 12.6552M4.43508 13.6177C2.58163 13.6177 1.0791 12.0874 1.0791 10.1996C1.0791 8.64405 2.0993 7.33121 3.49539 6.91731C3.55471 6.89969 3.59608 6.84441 3.59608 6.78148C3.59608 3.94981 5.84986 1.6543 8.63005 1.6543C11.4102 1.6543 13.664 3.94981 13.664 6.78148C13.664 6.83574 13.714 6.87601 13.766 6.86417C14.0032 6.81001 14.2498 6.78148 14.503 6.78148C16.3564 6.78148 17.859 8.31181 17.859 10.1996C17.859 12.0874 16.3564 13.6177 14.503 13.6177" stroke="#1D4ED8" stroke-width="1.5" stroke-linecap="round" stroke-linejoin="round"/>
</svg>
