<svg width="38" height="39" viewBox="0 0 38 39" fill="none" xmlns="http://www.w3.org/2000/svg">
<path id="Vector" fill-rule="evenodd" clip-rule="evenodd" d="M1.89776 2.12902C0.245239 3.78155 0.245239 6.44124 0.245239 11.7606V26.8061C0.245239 32.1255 0.245239 34.7851 1.89776 36.4377C3.55029 38.0903 6.20997 38.0903 11.5294 38.0903H26.5749C31.8942 38.0903 34.5539 38.0903 36.2064 36.4377C37.859 34.7851 37.859 32.1255 37.859 26.8061V11.7606C37.859 6.44124 37.859 3.78155 36.2064 2.12902C34.5539 0.476501 31.8942 0.476501 26.5749 0.476501H11.5294C6.20997 0.476501 3.55029 0.476501 1.89776 2.12902ZM30.0205 14.6845C30.5965 13.8203 30.363 12.6526 29.4988 12.0765C28.6346 11.5003 27.4669 11.7339 26.8906 12.5981L21.1656 21.1857L20.303 19.4602C19.0113 16.877 15.4109 16.6529 13.809 19.056L8.08385 27.6436C7.50771 28.5078 7.74123 29.6755 8.60546 30.2517C9.4697 30.8278 10.6374 30.5942 11.2135 29.73L16.9386 21.1424L17.8013 22.868C19.0929 25.4511 22.6933 25.6753 24.2953 23.2721L30.0205 14.6845Z" fill="#D0D5DD"/>
</svg>
