<svg width="17" height="17" viewBox="0 0 17 17" fill="none" xmlns="http://www.w3.org/2000/svg">
<g id="Iconsax/Linear/eye" clip-path="url(#clip0_13742_5566)">
<path id="Vector" d="M1.59276 6.77701C1.47133 6.50013 1.14322 6.37186 0.8599 6.49053C0.576579 6.6092 0.445329 6.92985 0.566756 7.20674L1.59276 6.77701ZM6.31981 11.8919C6.48793 11.6395 6.41476 11.3016 6.15639 11.1373C5.89802 10.973 5.55229 11.0445 5.38418 11.297L6.31981 11.8919ZM4.3328 12.8761C4.16469 13.1286 4.23785 13.4665 4.49622 13.6307C4.75459 13.795 5.10032 13.7235 5.26844 13.471L4.3328 12.8761ZM16.4762 7.20674C16.5976 6.92985 16.4664 6.6092 16.183 6.49053C15.8997 6.37186 15.5716 6.50013 15.4502 6.77701L16.4762 7.20674ZM14.4523 11.4712C14.6703 11.6842 15.0236 11.6842 15.2416 11.4712C15.4595 11.2582 15.4595 10.9128 15.2416 10.6998L14.4523 11.4712ZM7.96335 13.9008C7.96335 14.2021 8.21324 14.4463 8.52148 14.4463C8.82972 14.4463 9.07961 14.2021 9.07961 13.9008H7.96335ZM11.7746 13.471C11.9427 13.7235 12.2884 13.795 12.5467 13.6307C12.8051 13.4665 12.8782 13.1286 12.7101 12.8761L11.7746 13.471ZM3.70693 10.3803C3.92489 10.1673 3.92489 9.82193 3.70693 9.60892C3.48897 9.39591 3.13558 9.39591 2.91762 9.60892L3.70693 10.3803ZM1.80136 10.6998C1.5834 10.9128 1.5834 11.2582 1.80136 11.4712C2.01932 11.6842 2.37271 11.6842 2.59067 11.4712L1.80136 10.6998ZM8.52148 11.5372C6.12235 11.5372 4.39976 10.3697 3.25616 9.16614C2.68453 8.56452 2.26541 7.9612 1.98958 7.50833C1.85198 7.28242 1.75091 7.09538 1.68507 6.96669C1.65217 6.90239 1.62813 6.85279 1.61279 6.82032C1.60512 6.8041 1.59963 6.79217 1.5963 6.78485C1.59463 6.78119 1.59335 6.77833 1.59276 6.77701C1.59275 6.77698 1.59278 6.77707 1.59276 6.77701C1.59284 6.77718 1.59276 6.77701 1.07976 6.99188C0.566756 7.20674 0.566644 7.20649 0.566756 7.20674C0.5668 7.20685 0.567128 7.20758 0.567225 7.2078C0.567411 7.20823 0.567641 7.20874 0.567902 7.20933C0.568415 7.2105 0.569077 7.21199 0.569874 7.21378C0.571474 7.21735 0.573632 7.22214 0.576348 7.22811C0.581781 7.24005 0.58946 7.25671 0.599417 7.27777C0.619317 7.31988 0.648332 7.37965 0.686657 7.45455C0.763254 7.60427 0.877299 7.81495 1.03039 8.0663C1.33594 8.56796 1.80053 9.23736 2.43817 9.90841C3.71314 11.2503 5.7114 12.6281 8.52148 12.6281V11.5372ZM10.9866 11.0869C10.2644 11.3647 9.44552 11.5372 8.52148 11.5372V12.6281C9.59175 12.6281 10.5491 12.4276 11.3954 12.102L10.9866 11.0869ZM5.38418 11.297L4.3328 12.8761L5.26844 13.471L6.31981 11.8919L5.38418 11.297ZM15.9632 6.99188C15.4502 6.77701 15.4501 6.77712 15.4502 6.77701C15.4502 6.7769 15.4505 6.77624 15.4505 6.77632C15.4505 6.77646 15.4502 6.77698 15.4498 6.77789C15.449 6.77968 15.4475 6.78297 15.4453 6.78769C15.441 6.79714 15.434 6.81231 15.4243 6.83279C15.4047 6.87375 15.3743 6.93584 15.3326 7.01564C15.2492 7.17534 15.1215 7.40518 14.9477 7.67783C14.5991 8.2247 14.0703 8.93509 13.3487 9.59692L14.1127 10.3923C14.9231 9.64892 15.5105 8.85793 15.8951 8.25473C16.0879 7.95235 16.2311 7.69499 16.327 7.51125C16.375 7.41932 16.4112 7.34564 16.436 7.29374C16.4483 7.26779 16.4579 7.24727 16.4646 7.23263C16.4679 7.2253 16.4706 7.21945 16.4725 7.21512C16.4735 7.21295 16.4742 7.21117 16.4749 7.20976C16.4752 7.20906 16.4754 7.20846 16.4756 7.20796C16.4758 7.2077 16.4762 7.20694 16.4762 7.20674C16.4762 7.20679 16.4763 7.20664 16.4762 7.20674C16.4763 7.20661 16.4762 7.20674 15.9632 6.99188ZM13.3487 9.59692C12.7095 10.1832 11.9253 10.7258 10.9866 11.0869L11.3954 12.102C12.492 11.6802 13.3933 11.0522 14.1127 10.3923L13.3487 9.59692ZM13.3361 10.3803L14.4523 11.4712L15.2416 10.6998L14.1253 9.60892L13.3361 10.3803ZM7.96335 12.0827V13.9008H9.07961V12.0827H7.96335ZM10.7232 11.8919L11.7746 13.471L12.7101 12.8761L11.6588 11.297L10.7232 11.8919ZM2.91762 9.60892L1.80136 10.6998L2.59067 11.4712L3.70693 10.3803L2.91762 9.60892Z" fill="black"/>
</g>
<defs>
<clipPath id="clip0_13742_5566">
<rect width="16" height="16" fill="white" transform="translate(0.521484 0.446289)"/>
</clipPath>
</defs>
</svg>
