<svg width="22" height="11" viewBox="0 0 22 11" fill="none" xmlns="http://www.w3.org/2000/svg">
<path id="Vector" d="M1.62087 0.486672C1.45784 0.139731 1.01733 -0.0209901 0.636959 0.127703C0.256585 0.276395 0.0803745 0.678185 0.243396 1.02513L1.62087 0.486672ZM7.96719 6.89579C8.1929 6.57949 8.09467 6.15611 7.74779 5.95025C7.40092 5.74439 6.93676 5.83397 6.71105 6.15037L7.96719 6.89579ZM5.29952 8.12901C5.07382 8.44532 5.17205 8.8687 5.51892 9.07455C5.8658 9.28041 6.32996 9.19083 6.55566 8.87444L5.29952 8.12901ZM21.6028 1.02513C21.7657 0.678185 21.5896 0.276395 21.2091 0.127703C20.8288 -0.0209901 20.3883 0.139731 20.2252 0.486672L21.6028 1.02513ZM18.8855 6.36862C19.1782 6.63553 19.6525 6.63553 19.9452 6.36862C20.2378 6.1017 20.2378 5.66894 19.9452 5.40203L18.8855 6.36862ZM10.1737 9.413C10.1737 9.79045 10.5092 10.0965 10.9231 10.0965C11.3369 10.0965 11.6724 9.79045 11.6724 9.413H10.1737ZM15.2905 8.87444C15.5162 9.19083 15.9804 9.28041 16.3272 9.07455C16.674 8.8687 16.7722 8.44532 16.5465 8.12901L15.2905 8.87444ZM4.45926 5.00171C4.75188 4.73479 4.75188 4.30203 4.45926 4.03512C4.16663 3.76821 3.69218 3.76821 3.39956 4.03512L4.45926 5.00171ZM1.90092 5.40203C1.6083 5.66894 1.6083 6.1017 1.90092 6.36862C2.19355 6.63553 2.66799 6.63553 2.96062 6.36862L1.90092 5.40203ZM10.9231 6.45136C7.70209 6.45136 5.38941 4.9884 3.85408 3.4803C3.08662 2.72646 2.52394 1.97048 2.15361 1.40303C1.96888 1.11995 1.83318 0.885591 1.74479 0.724341C1.70062 0.643775 1.66835 0.581617 1.64775 0.540938C1.63746 0.520608 1.63009 0.505663 1.62561 0.496486C1.62337 0.491903 1.62087 0.486672 1.62087 0.486672C1.62087 0.486672 1.62087 0.486672 0.932131 0.755898C0.243396 1.02513 0.243396 1.02513 0.243396 1.02513L0.244026 1.02646L0.244935 1.02837C0.244935 1.02837 0.246514 1.0317 0.247583 1.03395C0.249731 1.03842 0.252628 1.04443 0.256275 1.05191C0.263568 1.06687 0.273879 1.08774 0.287247 1.11413C0.313962 1.1669 0.352917 1.24179 0.40437 1.33564C0.507207 1.52325 0.660318 1.78723 0.865851 2.10218C1.27607 2.73077 1.8998 3.56955 2.75587 4.41038C4.46759 6.09177 7.15037 7.81827 10.9231 7.81827V6.45136ZM14.2326 5.8871C13.263 6.23521 12.1636 6.45136 10.9231 6.45136V7.81827C12.36 7.81827 13.6452 7.56694 14.7815 7.15906L14.2326 5.8871ZM6.71105 6.15037L5.29952 8.12901L6.55566 8.87444L7.96719 6.89579L6.71105 6.15037ZM20.914 0.755898C20.2252 0.486672 20.2252 0.486672 20.2252 0.486672L20.2257 0.485797L20.2247 0.487765C20.2236 0.490016 20.2216 0.494135 20.2187 0.500049C20.2129 0.511887 20.2035 0.530896 20.1904 0.556557C20.1642 0.60788 20.1233 0.685685 20.0674 0.78567C19.9555 0.985786 19.784 1.27378 19.5506 1.61541C19.0825 2.30065 18.3726 3.19079 17.4039 4.02008L18.4295 5.01674C19.5176 4.08524 20.3062 3.09411 20.8226 2.33829C21.0814 1.9594 21.2737 1.63692 21.4024 1.40668C21.4668 1.2915 21.5154 1.19917 21.5487 1.13414C21.5653 1.10163 21.5781 1.07592 21.5871 1.05757C21.5916 1.04839 21.5952 1.04105 21.5978 1.03562C21.5991 1.03291 21.6001 1.03068 21.601 1.02892L21.602 1.02666L21.6028 1.02513C21.6028 1.02513 21.6028 1.02513 20.914 0.755898ZM17.4039 4.02008C16.5457 4.75475 15.4928 5.43465 14.2326 5.8871L14.7815 7.15906C16.2537 6.63052 17.4637 5.84354 18.4295 5.01674L17.4039 4.02008ZM17.3869 5.00171L18.8855 6.36862L19.9452 5.40203L18.4465 4.03512L17.3869 5.00171ZM10.1737 7.13482V9.413H11.6724V7.13482H10.1737ZM13.879 6.89579L15.2905 8.87444L16.5465 8.12901L15.135 6.15037L13.879 6.89579ZM3.39956 4.03512L1.90092 5.40203L2.96062 6.36862L4.45926 5.00171L3.39956 4.03512Z" fill="#9CA3AF"/>
</svg>
