<svg width="23" height="18" viewBox="0 0 23 18" fill="none" xmlns="http://www.w3.org/2000/svg">
<path d="M10.7701 4.97525C10.8858 4.97525 11.0015 4.93669 11.1172 4.93669C13.1613 4.93669 14.8197 6.5951 14.8197 8.6392C14.8197 10.6833 13.1613 12.3417 11.1172 12.3417C9.03452 12.3417 7.41467 10.6833 7.41467 8.6392C7.41467 8.56206 7.41467 8.44636 7.41467 8.33066C7.76178 8.5235 8.18603 8.6392 8.64884 8.6392C9.99872 8.6392 11.1172 7.5593 11.1172 6.17086C11.1172 5.74661 10.9629 5.32236 10.7701 4.97525ZM18.5222 3.124C20.3349 4.78241 21.5305 6.78794 22.109 8.17638C22.2247 8.48493 22.2247 8.83204 22.109 9.14058C21.5305 10.4905 20.3349 12.496 18.5222 14.193C16.7095 15.89 14.2026 17.2784 11.1172 17.2784C7.99319 17.2784 5.48628 15.89 3.67359 14.193C1.8609 12.496 0.665296 10.4905 0.0867777 9.14058C-0.0289259 8.83204 -0.0289259 8.48493 0.0867777 8.17638C0.665296 6.78794 1.8609 4.78241 3.67359 3.124C5.48628 1.42701 7.99319 0 11.1172 0C14.2026 0 16.7095 1.42701 18.5222 3.124ZM11.1172 3.08543C8.03176 3.08543 5.56341 5.59234 5.56341 8.6392C5.56341 11.7246 8.03176 14.193 11.1172 14.193C14.164 14.193 16.671 11.7246 16.671 8.6392C16.671 5.59234 14.164 3.08543 11.1172 3.08543Z" fill="black"/>
</svg>
