<svg width="24" height="18" viewBox="0 0 24 18" fill="none" xmlns="http://www.w3.org/2000/svg">
<path id="eye" d="M11.6724 5.15103C11.7881 5.15103 11.9038 5.11247 12.0195 5.11247C14.0636 5.11247 15.722 6.77088 15.722 8.81498C15.722 10.8591 14.0636 12.5175 12.0195 12.5175C9.93686 12.5175 8.31701 10.8591 8.31701 8.81498C8.31701 8.73784 8.31701 8.62214 8.31701 8.50644C8.66412 8.69928 9.08837 8.81498 9.55119 8.81498C10.9011 8.81498 12.0195 7.73508 12.0195 6.34664C12.0195 5.92239 11.8653 5.49814 11.6724 5.15103ZM19.4246 3.29978C21.2372 4.95819 22.4328 6.96372 23.0114 8.35217C23.1271 8.66071 23.1271 9.00782 23.0114 9.31636C22.4328 10.6662 21.2372 12.6718 19.4246 14.3688C17.6119 16.0657 15.105 17.4542 12.0195 17.4542C8.89553 17.4542 6.38862 16.0657 4.57593 14.3688C2.76324 12.6718 1.56764 10.6662 0.989121 9.31636C0.873418 9.00782 0.873418 8.66071 0.989121 8.35217C1.56764 6.96372 2.76324 4.95819 4.57593 3.29978C6.38862 1.60279 8.89553 0.175781 12.0195 0.175781C15.105 0.175781 17.6119 1.60279 19.4246 3.29978ZM12.0195 3.26121C8.9341 3.26121 6.46576 5.76812 6.46576 8.81498C6.46576 11.9004 8.9341 14.3688 12.0195 14.3688C15.0664 14.3688 17.5733 11.9004 17.5733 8.81498C17.5733 5.76812 15.0664 3.26121 12.0195 3.26121Z" fill="#9CA3AF"/>
</svg>
