<svg width="37" height="42" viewBox="0 0 37 42" fill="none" xmlns="http://www.w3.org/2000/svg">
<path d="M21.4406 23.1085C22.2763 22.1123 23.5304 21.479 24.9324 21.479C27.4484 21.479 29.488 23.5186 29.488 26.0346C29.488 28.5506 27.4484 30.5903 24.9324 30.5903C23.0062 30.5903 21.3592 29.3948 20.6929 27.7053" stroke="#FF6805" stroke-width="2" stroke-linecap="round"/>
<circle cx="12.5434" cy="22.1206" r="4.55563" stroke="#FF6805" stroke-width="2"/>
<path d="M6.271 32.95C6.271 29.4856 9.07938 26.6772 12.5437 26.6772V26.6772C16.008 26.6772 18.8164 29.4856 18.8164 32.95V40.5462H6.271V32.95Z" stroke="#FF6805" stroke-width="2"/>
<path d="M18.8179 36.9319C18.8179 33.4676 21.6263 30.6592 25.0906 30.6592V30.6592C28.5549 30.6592 31.3633 33.4676 31.3633 36.9319V40.5463H18.8179V36.9319Z" stroke="#FF6805" stroke-width="2"/>
<path d="M9.97026 10.9318L2.30447 16.1434C2.03062 16.3296 1.8667 16.6393 1.8667 16.9704V39.5464C1.8667 40.0987 2.31442 40.5464 2.8667 40.5464H34.7649C35.3172 40.5464 35.7649 40.0987 35.7649 39.5464V17.0101C35.7649 16.657 35.5788 16.3302 35.2752 16.15L22.8676 8.78809" stroke="#2947F2" stroke-width="2" stroke-linecap="round" stroke-linejoin="round"/>
<path d="M18.6395 2.44223C18.3614 2.13072 18.0205 1.88155 17.6393 1.71108C17.2581 1.54062 16.8451 1.45271 16.4275 1.45313C14.797 1.45313 13.4722 3.08365 13.4722 4.72018C13.4722 8.31693 18.4057 11.2003 19.167 11.2003C19.9283 11.2003 24.8619 8.29295 24.8619 4.72018C24.8619 3.08365 23.5371 1.45313 21.9006 1.45313C21.3137 1.4538 20.7403 1.62919 20.2535 1.95694C19.7667 2.28469 19.3884 2.74996 19.167 3.29347" stroke="#2947F2" stroke-width="2" stroke-linecap="round" stroke-linejoin="round"/>
</svg>
