<svg width="35" height="36" viewBox="0 0 35 36" fill="none" xmlns="http://www.w3.org/2000/svg">
<path d="M32.9517 20.3649C32.9517 21.7579 31.8222 22.8874 30.4292 22.8874H4.5733C3.18024 22.8874 2.05078 21.7579 2.05078 20.3649V3.02252C2.05078 1.62946 3.18024 0.5 4.5733 0.5H13.2445L21.1274 4.28378H30.4292C31.8222 4.28378 32.9517 5.41324 32.9517 6.80631V20.3649Z" fill="#C6C8CC"/>
<path opacity="0.1" d="M32.9517 20.3649C32.9517 21.7579 31.8222 22.8874 30.4292 22.8874H4.5733C3.18024 22.8874 2.05078 21.7579 2.05078 20.3649V3.02252C2.05078 1.62946 3.18024 0.5 4.5733 0.5H13.2445L21.1274 4.28378H30.4292C31.8222 4.28378 32.9517 5.41324 32.9517 6.80631V20.3649Z" fill="white"/>
<path d="M32.9517 21.9415C32.9517 23.3346 31.8222 24.464 30.4292 24.464H4.5733C3.18024 24.464 2.05078 23.3346 2.05078 21.9415V4.59918C2.05078 3.20612 3.18024 2.07666 4.5733 2.07666H13.2445L21.1274 5.86044H30.4292C31.8222 5.86044 32.9517 6.9899 32.9517 8.38297V21.9415Z" fill="#C6C8CC"/>
<path d="M30.7443 27.3018C30.7443 28.6892 29.6092 29.8243 28.2218 29.8243H6.78033C5.39295 29.8243 4.25781 28.6892 4.25781 27.3018V9.6441C4.25781 8.25672 5.39295 7.12158 6.78033 7.12158H28.2218C29.6092 7.12158 30.7443 8.25672 30.7443 9.6441V27.3018Z" fill="white"/>
<path opacity="0.1" d="M31.6904 9.95947H3.31204C2.852 9.95947 2.42222 10.0847 2.05078 10.2997V20.6802C2.05078 22.0733 3.18024 23.2027 4.5733 23.2027H30.4292C31.8222 23.2027 32.9517 22.0733 32.9517 20.6802V10.2997C32.5802 10.0847 32.1505 9.95947 31.6904 9.95947Z" fill="black"/>
<path d="M34.2125 32.9775C34.2125 34.3705 33.083 35.5 31.69 35.5H3.31158C1.91852 35.5 0.789062 34.3705 0.789062 32.9775V13.7432C0.789062 12.3502 1.91852 11.2207 3.31158 11.2207H31.69C33.083 11.2207 34.2125 12.3502 34.2125 13.7432V32.9775Z" fill="#D9DADD"/>
<path opacity="0.1" d="M31.69 34.2388H3.31158C1.91852 34.2388 0.789062 33.1094 0.789062 31.7163V32.9776C0.789062 34.3706 1.91852 35.5001 3.31158 35.5001H31.69C33.083 35.5001 34.2125 34.3706 34.2125 32.9776V31.7163C34.2125 33.1094 33.083 34.2388 31.69 34.2388Z" fill="black"/>
</svg>
