<svg width="17" height="20" viewBox="0 0 17 20" fill="none" xmlns="http://www.w3.org/2000/svg">
<path opacity="0.5" d="M2.48794e-05 10.499C0.101471 10.3788 0.213509 10.2666 0.335024 10.1638C1.16458 9.46221 2.50544 9.46221 5.18719 9.46221H11.812C14.4937 9.46221 15.8346 9.46221 16.6642 10.1638C16.786 10.2669 16.8983 10.3794 17 10.5V7.89654C17 7.02972 17 6.31057 16.9188 5.73719C16.833 5.13206 16.6461 4.59565 16.1992 4.15493C16.1263 4.08304 16.0494 4.01481 15.9688 3.95048C15.4813 3.56153 14.897 3.40248 14.2355 3.32869C13.5982 3.25761 12.7954 3.25763 11.8112 3.25764H11.4753C10.5398 3.25764 10.2045 3.2522 9.90075 3.17539C9.72226 3.13027 9.5511 3.06726 9.39032 2.98794C9.11964 2.85432 8.88371 2.65305 8.22118 2.06529L7.76962 1.66471C7.57998 1.49649 7.45064 1.38168 7.31196 1.27968C6.71696 0.84217 5.99251 0.577552 5.23403 0.514629C5.05741 0.49998 4.87719 0.49999 4.60742 0.500018L4.49653 0.500009C3.88632 0.499904 3.4836 0.499837 3.13392 0.558364C1.60537 0.814208 0.369313 1.8842 0.06824 3.29976C-0.000251347 3.62181 -0.000146576 3.9908 1.53418e-05 4.52313L2.48794e-05 10.499Z" fill="#1C274C"/>
<path fill-rule="evenodd" clip-rule="evenodd" d="M0.320235 11.6725C-0.225724 12.4716 -0.000393312 13.5827 0.450259 15.805C0.774664 17.4047 0.93687 18.2045 1.49889 18.7353C1.64471 18.8731 1.80785 18.9952 1.98506 19.0992C2.66806 19.5 3.57482 19.5 5.38835 19.5H11.6116C13.4252 19.5 14.332 19.5 15.0149 19.0992C15.1922 18.9952 15.3553 18.8731 15.5011 18.7353C16.0631 18.2045 16.2253 17.4047 16.5498 15.805C17.0004 13.5827 17.2257 12.4716 16.6798 11.6725C16.5405 11.4685 16.3686 11.2839 16.1698 11.1245C15.3905 10.5 14.1308 10.5 11.6116 10.5H5.38835C2.86913 10.5 1.60952 10.5 0.830245 11.1245C0.63138 11.2839 0.459564 11.4685 0.320235 11.6725ZM5.99042 15.4091C5.99042 15.0702 6.2968 14.7954 6.67483 14.7954H10.3251C10.703 14.7954 11.0095 15.0702 11.0095 15.4091C11.0095 15.7479 10.703 16.0227 10.3251 16.0227H6.67483C6.2968 16.0227 5.99042 15.7479 5.99042 15.4091Z" fill="#1C274C"/>
</svg>
