<svg width="17" height="19" viewBox="0 0 17 19" fill="none" xmlns="http://www.w3.org/2000/svg">
<path opacity="0.5" d="M2.48794e-05 9.99895C0.101471 9.87879 0.213509 9.76663 0.335024 9.66383C1.16458 8.96221 2.50544 8.96221 5.18719 8.96221H11.812C14.4937 8.96221 15.8346 8.96221 16.6642 9.66383C16.786 9.76692 16.8983 9.87936 17 10V7.39654C17 6.52972 17 5.81057 16.9188 5.23719C16.833 4.63206 16.6461 4.09565 16.1992 3.65493C16.1263 3.58304 16.0494 3.51481 15.9688 3.45048C15.4813 3.06153 14.897 2.90248 14.2355 2.82869C13.5982 2.75761 12.7954 2.75763 11.8112 2.75764H11.4753C10.5398 2.75764 10.2045 2.7522 9.90075 2.67539C9.72226 2.63027 9.5511 2.56726 9.39032 2.48794C9.11964 2.35432 8.88371 2.15305 8.22118 1.56529L7.76962 1.16471C7.57998 0.99649 7.45064 0.881676 7.31196 0.77968C6.71696 0.34217 5.99251 0.0775525 5.23403 0.0146287C5.05741 -1.9858e-05 4.87719 -1.03815e-05 4.60742 1.82289e-05L4.49653 8.67913e-06C3.88632 -9.62257e-05 3.4836 -0.000163088 3.13392 0.0583642C1.60537 0.314208 0.369313 1.3842 0.06824 2.79976C-0.000251347 3.12181 -0.000146576 3.4908 1.53418e-05 4.02313L2.48794e-05 9.99895Z" fill="#1C274C"/>
<path fill-rule="evenodd" clip-rule="evenodd" d="M0.320235 11.1725C-0.225724 11.9716 -0.000393312 13.0827 0.450259 15.305C0.774664 16.9047 0.93687 17.7045 1.49889 18.2353C1.64471 18.3731 1.80785 18.4952 1.98506 18.5992C2.66806 19 3.57482 19 5.38835 19H11.6116C13.4252 19 14.332 19 15.0149 18.5992C15.1922 18.4952 15.3553 18.3731 15.5011 18.2353C16.0631 17.7045 16.2253 16.9047 16.5498 15.305C17.0004 13.0827 17.2257 11.9716 16.6798 11.1725C16.5405 10.9685 16.3686 10.7839 16.1698 10.6245C15.3905 10 14.1308 10 11.6116 10H5.38835C2.86913 10 1.60952 10 0.830245 10.6245C0.63138 10.7839 0.459564 10.9685 0.320235 11.1725ZM5.99042 14.9091C5.99042 14.5702 6.2968 14.2954 6.67483 14.2954H10.3251C10.703 14.2954 11.0095 14.5702 11.0095 14.9091C11.0095 15.2479 10.703 15.5227 10.3251 15.5227H6.67483C6.2968 15.5227 5.99042 15.2479 5.99042 14.9091Z" fill="#1C274C"/>
</svg>
