<svg width="19" height="24" viewBox="0 0 19 24" fill="none" xmlns="http://www.w3.org/2000/svg">
<path d="M7.25391 10.5C7.54938 10.5 7.84196 10.4418 8.11494 10.3287C8.38793 10.2157 8.63597 10.0499 8.8449 9.84099C9.05383 9.63206 9.21956 9.38402 9.33264 9.11104C9.44571 8.83806 9.50391 8.54547 9.50391 8.25C9.50391 7.95453 9.44571 7.66194 9.33264 7.38896C9.21956 7.11598 9.05383 6.86794 8.8449 6.65901C8.63597 6.45008 8.38793 6.28434 8.11494 6.17127C7.84196 6.0582 7.54938 6 7.25391 6C6.65717 6 6.08487 6.23705 5.66292 6.65901C5.24096 7.08097 5.00391 7.65326 5.00391 8.25C5.00391 8.84674 5.24096 9.41903 5.66292 9.84099C6.08487 10.2629 6.65717 10.5 7.25391 10.5Z" fill="#0F91D2"/>
<path d="M18.5 21C18.5 21.7956 18.1839 22.5587 17.6213 23.1213C17.0587 23.6839 16.2956 24 15.5 24H3.5C2.70435 24 1.94129 23.6839 1.37868 23.1213C0.81607 22.5587 0.5 21.7956 0.5 21V3C0.5 2.20435 0.81607 1.44129 1.37868 0.87868C1.94129 0.316071 2.70435 0 3.5 0L11.75 0L18.5 6.75V21ZM3.5 1.5C3.10218 1.5 2.72064 1.65804 2.43934 1.93934C2.15804 2.22064 2 2.60218 2 3V18L5.336 14.664C5.45422 14.5461 5.60843 14.4709 5.77417 14.4506C5.93992 14.4302 6.10773 14.4657 6.251 14.5515L9.5 16.5L12.7355 11.97C12.7988 11.8815 12.8806 11.8078 12.9753 11.754C13.0699 11.7003 13.1751 11.6678 13.2836 11.6588C13.3921 11.6498 13.5012 11.6645 13.6034 11.702C13.7056 11.7394 13.7985 11.7986 13.8755 11.8755L17 15V6.75H14C13.4033 6.75 12.831 6.51295 12.409 6.09099C11.9871 5.66903 11.75 5.09674 11.75 4.5V1.5H3.5Z" fill="#1D4ED8"/>
</svg>
