<svg xmlns="http://www.w3.org/2000/svg" width="17" height="14" viewBox="0 0 17 14" fill="none">
<path d="M3.7 12.25C1.93269 12.25 0.5 10.8429 0.5 9.10717C0.5 7.67686 1.47278 6.46974 2.80398 6.08917C2.86055 6.07297 2.9 6.02214 2.9 5.96429C2.9 3.36065 5.04903 1.25 7.7 1.25C10.3509 1.25 12.5 3.36065 12.5 5.96429C12.5 6.01417 12.5476 6.0512 12.5972 6.04031C12.8234 5.99051 13.0586 5.96429 13.3 5.96429C15.0673 5.96429 16.5 7.37137 16.5 9.10717C16.5 10.8429 15.0673 12.25 13.3 12.25" stroke="#111827" stroke-linecap="round" stroke-linejoin="round"/>
<path d="M8.5 12.75C8.5 12.75 8.5 9.09315 8.5 6.75M8.5 6.75C9.28105 7.53104 9.71895 7.96893 10.5 8.74997M8.5 6.75C7.71895 7.53104 7.28105 7.96893 6.5 8.74997" stroke="#111827" stroke-linecap="round" stroke-linejoin="round"/>
</svg>