<svg width="18" height="18" viewBox="0 0 18 18" fill="none" xmlns="http://www.w3.org/2000/svg">
<path d="M7.55948 16.7356L7.55825 16.7344C7.45567 16.6322 7.40325 16.5128 7.40325 16.3418V10.0488V9.87623L7.29678 9.74039L1.21718 1.98366C1.13224 1.8693 1.09951 1.77479 1.0912 1.69694C1.08289 1.61903 1.09538 1.52381 1.15366 1.40193L1.15398 1.40126C1.20969 1.28431 1.2734 1.2203 1.33732 1.18175C1.40325 1.14199 1.5028 1.10938 1.65911 1.10938H16.3427C16.499 1.10938 16.5987 1.14199 16.665 1.18188C16.7291 1.2205 16.7929 1.28456 16.8489 1.40126C16.9069 1.52308 16.9193 1.61837 16.9109 1.69647C16.9025 1.77453 16.8696 1.8692 16.7846 1.98365L10.705 9.74039L10.5986 9.87623V10.0488V16.3418C10.5986 16.5133 10.5461 16.6329 10.444 16.735C10.3408 16.8382 10.2207 16.8906 10.0497 16.8906H7.95208C7.78111 16.8906 7.6617 16.8382 7.55948 16.7356Z" stroke="black"/>
</svg>
