<svg xmlns="http://www.w3.org/2000/svg" width="18.008" height="16.599" viewBox="0 0 18.008 16.599">
  <g id="Group_6945" data-name="Group 6945" transform="translate(1856.118 561.706)">
    <g id="Group_6939" data-name="Group 6939" transform="translate(-1854.198 -561.674)">
      <path id="Path_6949" data-name="Path 6949" d="M-1837.653-544.845a.759.759,0,0,1-.759-.759v-15.049a.759.759,0,0,1,.759-.759.759.759,0,0,1,.759.759V-545.6A.759.759,0,0,1-1837.653-544.845Z" transform="translate(1838.412 561.412)" fill="#fff"/>
    </g>
    <g id="Group_6940" data-name="Group 6940" transform="translate(-1847.873 -561.674)">
      <path id="Path_6950" data-name="Path 6950" d="M-1779.3-544.845a.759.759,0,0,1-.759-.759v-15.049a.759.759,0,0,1,.759-.759.759.759,0,0,1,.759.759V-545.6A.759.759,0,0,1-1779.3-544.845Z" transform="translate(1780.059 561.412)" fill="#fff"/>
    </g>
    <g id="Group_6941" data-name="Group 6941" transform="translate(-1841.547 -561.674)">
      <path id="Path_6951" data-name="Path 6951" d="M-1720.947-544.845a.759.759,0,0,1-.759-.759v-15.049a.759.759,0,0,1,.759-.759.759.759,0,0,1,.759.759V-545.6A.759.759,0,0,1-1720.947-544.845Z" transform="translate(1721.706 561.412)" fill="#fff"/>
    </g>
    <g id="Group_6942" data-name="Group 6942" transform="translate(-1856.118 -554.303)">
      <circle id="Ellipse_292" data-name="Ellipse 292" cx="2.678" cy="2.678" r="2.678" transform="translate(0 0)" fill="#fff"/>
    </g>
    <g id="Group_6943" data-name="Group 6943" transform="translate(-1843.466 -554.303)">
      <circle id="Ellipse_293" data-name="Ellipse 293" cx="2.678" cy="2.678" r="2.678" transform="translate(0 0)" fill="#fff"/>
    </g>
    <g id="Group_6944" data-name="Group 6944" transform="translate(-1849.792 -561.706)">
      <circle id="Ellipse_294" data-name="Ellipse 294" cx="2.678" cy="2.678" r="2.678" transform="translate(0 0)" fill="#fff"/>
    </g>
  </g>
</svg>
