<svg width="23" height="23" viewBox="0 0 23 23" fill="none" xmlns="http://www.w3.org/2000/svg">
<path d="M12.6896 6.70834H20.3563" stroke="#1D4ED8" stroke-width="2" stroke-linecap="round"/>
<path d="M3.17242 6.70834H7.00576" stroke="#1D4ED8" stroke-width="2" stroke-linecap="round"/>
<path d="M6.84054 6.70833C6.84054 8.22315 8.06854 9.45115 9.58336 9.45115C11.0982 9.45115 12.3262 8.22315 12.3262 6.70833C12.3262 5.19352 11.0982 3.96552 9.58336 3.96552C8.06854 3.96552 6.84054 5.19352 6.84054 6.70833Z" stroke="#1D4ED8" stroke-width="2" stroke-linecap="round"/>
<path d="M10.8391 15.4325L3.17245 15.4325" stroke="#1D4ED8" stroke-width="2" stroke-linecap="round"/>
<path d="M20.3563 15.4325L16.523 15.4325" stroke="#1D4ED8" stroke-width="2" stroke-linecap="round"/>
<path d="M16.6882 15.4325C16.6882 13.9177 15.4602 12.6897 13.9454 12.6897C12.4306 12.6897 11.2026 13.9177 11.2026 15.4325C11.2026 16.9473 12.4306 18.1753 13.9454 18.1753C15.4602 18.1753 16.6882 16.9473 16.6882 15.4325Z" stroke="#1D4ED8" stroke-width="2" stroke-linecap="round"/>
</svg>
