<svg width="187" height="29" viewBox="0 0 187 29" fill="none" xmlns="http://www.w3.org/2000/svg">
<path d="M88.41 22.4987C86.97 22.4987 85.7433 22.1854 84.73 21.5587C83.7167 20.9254 82.94 20.0454 82.4 18.9187C81.8667 17.7921 81.6 16.4854 81.6 14.9987C81.6 13.5121 81.8667 12.2054 82.4 11.0787C82.94 9.95206 83.7167 9.0754 84.73 8.44873C85.7433 7.8154 86.97 7.49873 88.41 7.49873C90.07 7.49873 91.4433 7.91873 92.53 8.75873C93.6233 9.59873 94.3833 10.7287 94.81 12.1487L92.69 12.7187C92.41 11.7121 91.91 10.9221 91.19 10.3487C90.4767 9.7754 89.55 9.48873 88.41 9.48873C87.39 9.48873 86.54 9.71873 85.86 10.1787C85.18 10.6387 84.6667 11.2821 84.32 12.1087C83.98 12.9354 83.81 13.8987 83.81 14.9987C83.8033 16.0987 83.97 17.0621 84.31 17.8887C84.6567 18.7154 85.17 19.3587 85.85 19.8187C86.5367 20.2787 87.39 20.5087 88.41 20.5087C89.55 20.5087 90.4767 20.2221 91.19 19.6487C91.91 19.0687 92.41 18.2787 92.69 17.2787L94.81 17.8487C94.3833 19.2687 93.6233 20.3987 92.53 21.2387C91.4433 22.0787 90.07 22.4987 88.41 22.4987ZM101.079 22.4887C100.333 22.4887 99.706 22.3687 99.1994 22.1287C98.6927 21.8887 98.2794 21.5754 97.9594 21.1887C97.646 20.7954 97.406 20.3687 97.2394 19.9087C97.0727 19.4487 96.9594 18.9987 96.8994 18.5587C96.8394 18.1187 96.8094 17.7321 96.8094 17.3987V11.3987H98.9294V16.7087C98.9294 17.1287 98.9627 17.5621 99.0294 18.0087C99.1027 18.4487 99.236 18.8587 99.4294 19.2387C99.6294 19.6187 99.906 19.9254 100.259 20.1587C100.619 20.3921 101.086 20.5087 101.659 20.5087C102.033 20.5087 102.386 20.4487 102.719 20.3287C103.053 20.2021 103.343 20.0021 103.589 19.7287C103.843 19.4554 104.039 19.0954 104.179 18.6487C104.326 18.2021 104.399 17.6587 104.399 17.0187L105.699 17.5087C105.699 18.4887 105.516 19.3554 105.149 20.1087C104.783 20.8554 104.256 21.4387 103.569 21.8587C102.883 22.2787 102.053 22.4887 101.079 22.4887ZM104.649 22.1987V19.0787H104.399V11.3987H106.509V22.1987H104.649ZM109.314 22.1987V11.3987H111.174V14.0187L110.914 13.6787C111.047 13.3321 111.221 13.0154 111.434 12.7287C111.647 12.4354 111.894 12.1954 112.174 12.0087C112.447 11.8087 112.751 11.6554 113.084 11.5487C113.424 11.4354 113.771 11.3687 114.124 11.3487C114.477 11.3221 114.817 11.3387 115.144 11.3987V13.3587C114.791 13.2654 114.397 13.2387 113.964 13.2787C113.537 13.3187 113.144 13.4554 112.784 13.6887C112.444 13.9087 112.174 14.1754 111.974 14.4887C111.781 14.8021 111.641 15.1521 111.554 15.5387C111.467 15.9187 111.424 16.3221 111.424 16.7487V22.1987H109.314ZM117.048 22.1987V11.3987H118.908V14.0187L118.648 13.6787C118.782 13.3321 118.955 13.0154 119.168 12.7287C119.382 12.4354 119.628 12.1954 119.908 12.0087C120.182 11.8087 120.485 11.6554 120.818 11.5487C121.158 11.4354 121.505 11.3687 121.858 11.3487C122.212 11.3221 122.552 11.3387 122.878 11.3987V13.3587C122.525 13.2654 122.132 13.2387 121.698 13.2787C121.272 13.3187 120.878 13.4554 120.518 13.6887C120.178 13.9087 119.908 14.1754 119.708 14.4887C119.515 14.8021 119.375 15.1521 119.288 15.5387C119.202 15.9187 119.158 16.3221 119.158 16.7487V22.1987H117.048ZM129.378 22.4987C128.304 22.4987 127.361 22.2654 126.548 21.7987C125.741 21.3254 125.111 20.6687 124.657 19.8287C124.211 18.9821 123.988 18.0021 123.988 16.8887C123.988 15.7087 124.208 14.6854 124.648 13.8187C125.094 12.9521 125.714 12.2821 126.508 11.8087C127.301 11.3354 128.224 11.0987 129.278 11.0987C130.378 11.0987 131.314 11.3554 132.088 11.8687C132.861 12.3754 133.438 13.0987 133.818 14.0387C134.204 14.9787 134.358 16.0954 134.278 17.3887H132.188V16.6287C132.174 15.3754 131.934 14.4487 131.468 13.8487C131.008 13.2487 130.304 12.9487 129.358 12.9487C128.311 12.9487 127.524 13.2787 126.998 13.9387C126.471 14.5987 126.208 15.5521 126.208 16.7987C126.208 17.9854 126.471 18.9054 126.998 19.5587C127.524 20.2054 128.284 20.5287 129.278 20.5287C129.931 20.5287 130.494 20.3821 130.968 20.0887C131.448 19.7887 131.821 19.3621 132.088 18.8087L134.138 19.4587C133.718 20.4254 133.081 21.1754 132.228 21.7087C131.374 22.2354 130.424 22.4987 129.378 22.4987ZM125.528 17.3887V15.7587H133.237V17.3887H125.528ZM143.808 22.1987V16.8887C143.808 16.4687 143.771 16.0387 143.698 15.5987C143.631 15.1521 143.498 14.7387 143.298 14.3587C143.105 13.9787 142.828 13.6721 142.468 13.4387C142.115 13.2054 141.651 13.0887 141.078 13.0887C140.705 13.0887 140.351 13.1521 140.018 13.2787C139.685 13.3987 139.391 13.5954 139.138 13.8687C138.891 14.1421 138.695 14.5021 138.548 14.9487C138.408 15.3954 138.338 15.9387 138.338 16.5787L137.038 16.0887C137.038 15.1087 137.221 14.2454 137.588 13.4987C137.955 12.7454 138.481 12.1587 139.168 11.7387C139.855 11.3187 140.685 11.1087 141.658 11.1087C142.405 11.1087 143.031 11.2287 143.538 11.4687C144.045 11.7087 144.455 12.0254 144.768 12.4187C145.088 12.8054 145.331 13.2287 145.498 13.6887C145.665 14.1487 145.778 14.5987 145.838 15.0387C145.898 15.4787 145.928 15.8654 145.928 16.1987V22.1987H143.808ZM136.218 22.1987V11.3987H138.088V14.5187H138.338V22.1987H136.218ZM153.016 22.4987C151.909 22.4987 150.969 22.2521 150.196 21.7587C149.423 21.2654 148.829 20.5887 148.416 19.7287C148.009 18.8687 147.803 17.8921 147.796 16.7987C147.803 15.6854 148.016 14.7021 148.436 13.8487C148.856 12.9887 149.456 12.3154 150.236 11.8287C151.016 11.3421 151.953 11.0987 153.046 11.0987C154.226 11.0987 155.233 11.3921 156.066 11.9787C156.906 12.5654 157.459 13.3687 157.726 14.3887L155.646 14.9887C155.439 14.3821 155.099 13.9121 154.626 13.5787C154.159 13.2387 153.623 13.0687 153.016 13.0687C152.329 13.0687 151.766 13.2321 151.326 13.5587C150.886 13.8787 150.559 14.3187 150.346 14.8787C150.133 15.4387 150.023 16.0787 150.016 16.7987C150.023 17.9121 150.276 18.8121 150.776 19.4987C151.283 20.1854 152.029 20.5287 153.016 20.5287C153.689 20.5287 154.233 20.3754 154.646 20.0687C155.066 19.7554 155.386 19.3087 155.606 18.7287L157.726 19.2287C157.373 20.2821 156.789 21.0921 155.976 21.6587C155.163 22.2187 154.176 22.4987 153.016 22.4987ZM159.67 9.62873V7.59873H161.76V9.62873H159.67ZM159.67 22.1987V11.3987H161.76V22.1987H159.67ZM169.553 22.4987C168.48 22.4987 167.537 22.2654 166.723 21.7987C165.917 21.3254 165.287 20.6687 164.833 19.8287C164.387 18.9821 164.163 18.0021 164.163 16.8887C164.163 15.7087 164.383 14.6854 164.823 13.8187C165.27 12.9521 165.89 12.2821 166.683 11.8087C167.477 11.3354 168.4 11.0987 169.453 11.0987C170.553 11.0987 171.49 11.3554 172.263 11.8687C173.037 12.3754 173.613 13.0987 173.993 14.0387C174.38 14.9787 174.533 16.0954 174.453 17.3887H172.363V16.6287C172.35 15.3754 172.11 14.4487 171.643 13.8487C171.183 13.2487 170.48 12.9487 169.533 12.9487C168.487 12.9487 167.7 13.2787 167.173 13.9387C166.647 14.5987 166.383 15.5521 166.383 16.7987C166.383 17.9854 166.647 18.9054 167.173 19.5587C167.7 20.2054 168.46 20.5287 169.453 20.5287C170.107 20.5287 170.67 20.3821 171.143 20.0887C171.623 19.7887 171.997 19.3621 172.263 18.8087L174.313 19.4587C173.893 20.4254 173.257 21.1754 172.403 21.7087C171.55 22.2354 170.6 22.4987 169.553 22.4987ZM165.703 17.3887V15.7587H173.413V17.3887H165.703ZM180.827 22.4887C179.514 22.4887 178.444 22.1987 177.617 21.6187C176.79 21.0387 176.284 20.2221 176.097 19.1687L178.237 18.8387C178.37 19.3987 178.677 19.8421 179.157 20.1687C179.644 20.4887 180.247 20.6487 180.967 20.6487C181.62 20.6487 182.13 20.5154 182.497 20.2487C182.87 19.9821 183.057 19.6154 183.057 19.1487C183.057 18.8754 182.99 18.6554 182.857 18.4887C182.73 18.3154 182.46 18.1521 182.047 17.9987C181.634 17.8454 181.004 17.6554 180.157 17.4287C179.23 17.1887 178.494 16.9321 177.947 16.6587C177.407 16.3787 177.02 16.0554 176.787 15.6887C176.56 15.3154 176.447 14.8654 176.447 14.3387C176.447 13.6854 176.62 13.1154 176.967 12.6287C177.314 12.1421 177.8 11.7654 178.427 11.4987C179.06 11.2321 179.8 11.0987 180.647 11.0987C181.474 11.0987 182.21 11.2287 182.857 11.4887C183.504 11.7487 184.027 12.1187 184.427 12.5987C184.827 13.0721 185.067 13.6287 185.147 14.2687L183.007 14.6587C182.934 14.1387 182.69 13.7287 182.277 13.4287C181.864 13.1287 181.327 12.9654 180.667 12.9387C180.034 12.9121 179.52 13.0187 179.127 13.2587C178.734 13.4921 178.537 13.8154 178.537 14.2287C178.537 14.4687 178.61 14.6721 178.757 14.8387C178.91 15.0054 179.204 15.1654 179.637 15.3187C180.07 15.4721 180.71 15.6554 181.557 15.8687C182.464 16.1021 183.184 16.3621 183.717 16.6487C184.25 16.9287 184.63 17.2654 184.857 17.6587C185.09 18.0454 185.207 18.5154 185.207 19.0687C185.207 20.1354 184.817 20.9721 184.037 21.5787C183.264 22.1854 182.194 22.4887 180.827 22.4887Z" fill="#030203"/>
<g clip-path="url(#clip0_745_39241)">
<path d="M57.0586 2.31201H-12.1014V27.512H57.0586V2.31201Z" fill="white"/>
<path d="M57.0586 2.31201H-12.1014V5.11201H57.0586V2.31201Z" fill="#B22234"/>
<path d="M57.0586 7.91211H-12.1014V10.7121H57.0586V7.91211Z" fill="#B22234"/>
<path d="M57.0586 13.5122H-12.1014V16.3123H57.0586V13.5122Z" fill="#B22234"/>
<path d="M57.0586 19.1118H-12.1014V21.9118H57.0586V19.1118Z" fill="#B22234"/>
<path d="M57.0586 24.7119H-12.1014V27.5119H57.0586V24.7119Z" fill="#B22234"/>
<path d="M15.5626 2.31201H-12.1014V16.3121H15.5626V2.31201Z" fill="#3C3B6E"/>
<path d="M10.9035 3.42529L10.6518 4.20029H9.83707L10.4961 4.67904L10.2445 5.45369L10.9035 4.97494L11.5625 5.45369L11.3109 4.67897L11.9696 4.20029H11.1552L10.9035 3.42529Z" fill="white"/>
<path d="M8.61015 5.39111L8.3585 6.16579H7.54398L8.20301 6.64456L7.95117 7.41923L8.61025 6.94043L9.26915 7.41923L9.01748 6.64456L9.67653 6.16579H8.86182L8.61015 5.39111Z" fill="white"/>
<path d="M13.1965 5.39111L12.9448 6.16579H12.1304L12.7894 6.64454L12.5375 7.41923L13.1966 6.94043L13.8555 7.41923L13.6038 6.64461L14.2629 6.16579H13.4484L13.1965 5.39111Z" fill="white"/>
<path d="M6.31712 7.35645L6.06545 8.13112H5.25073L5.90984 8.60992L5.65814 9.38482L6.31702 8.90604L6.97608 9.38482L6.72418 8.60992L7.38326 8.13112H6.56874L6.31712 7.35645ZM6.31697 8.47772H6.31694L6.31702 8.47759L6.31705 8.47767L6.31697 8.47772Z" fill="white"/>
<path d="M10.9035 7.35645L10.6519 8.13112H9.83707L10.4962 8.60994L10.2445 9.38482L10.9035 8.90609L11.5625 9.38482L11.3107 8.60987L11.9696 8.13112H11.1552L10.9035 7.35645ZM10.9035 8.47772L10.9035 8.47767L10.9035 8.47759L10.9036 8.47772H10.9035Z" fill="white"/>
<path d="M4.02374 9.32227L3.77212 10.0969H2.95766L3.61646 10.5756L3.36476 11.3503L4.02374 10.8715L4.68272 11.3503L4.43108 10.5757L5.09018 10.0969H4.27542L4.02374 9.32227Z" fill="white"/>
<path d="M8.61015 9.32227L8.3585 10.0969H7.54398L8.20304 10.5756L7.95117 11.3503L8.61025 10.8715L9.26915 11.3503L9.01748 10.5756L9.67653 10.0969H8.86182L8.61015 9.32227Z" fill="white"/>
<path d="M13.1965 9.32227L12.9448 10.0969H12.1304L12.7894 10.5756L12.5375 11.3503L13.1966 10.8715L13.8555 11.3503L13.6038 10.5757L14.2629 10.0969H13.4484L13.1965 9.32227Z" fill="white"/>
<path d="M6.56877 12.0622L6.31712 11.2876L6.06545 12.0622H5.25073L5.90979 12.541L5.65812 13.3156L6.31702 12.8368L6.97608 13.3156L6.72425 12.541L7.38326 12.0622H6.56877Z" fill="white"/>
<path d="M11.1552 12.0622L10.9035 11.2876L10.6519 12.0622H9.83707L10.4962 12.5411L10.2445 13.3156L10.9035 12.8369L11.5625 13.3156L11.3108 12.5409L11.9696 12.0622H11.1552Z" fill="white"/>
<path d="M4.27542 14.028L4.02374 13.2534L3.7721 14.028H2.95766L3.61644 14.5068L3.36476 15.2815L4.02374 14.8027L4.68272 15.2815L4.43108 14.5069L5.09018 14.028H4.27542Z" fill="white"/>
<path d="M8.86182 14.028L8.61015 13.2534L8.3585 14.028H7.54398L8.20304 14.5068L7.95117 15.2815L8.61025 14.8026L9.26915 15.2815L9.01748 14.5068L9.67653 14.028H8.86182Z" fill="white"/>
<path d="M13.4484 14.028L13.1965 13.2534L12.9448 14.028H12.1304L12.7894 14.5068L12.5375 15.2815L13.1966 14.8026L13.8555 15.2815L13.6038 14.5069L14.2629 14.028H13.4484Z" fill="white"/>
</g>
<path d="M49.5 14.9121C49.5 22.368 43.4558 28.4121 36 28.4121C28.5442 28.4121 22.5 22.368 22.5 14.9121C22.5 7.45627 28.5442 1.41211 36 1.41211C43.4558 1.41211 49.5 7.45627 49.5 14.9121Z" fill="#092EB3" stroke="white"/>
<path d="M37.199 6.65076L38.0244 6.051C38.0404 6.0398 38.0373 6.03028 38.0186 6.03028H36.9977C36.9784 6.03028 36.9568 6.01516 36.9509 5.99696L36.6359 5.02704C36.6298 5.00856 36.6202 5.00856 36.6138 5.02704L36.2988 5.99696C36.2929 6.01516 36.2722 6.03056 36.2526 6.03056H35.2323C35.2127 6.03056 35.2096 6.04008 35.2256 6.05128L36.0507 6.65076C36.0664 6.66224 36.0742 6.68632 36.0684 6.70536L35.7528 7.67556C35.7469 7.69404 35.7545 7.69992 35.7704 7.68844L36.5956 7.08868C36.6113 7.0772 36.6368 7.0772 36.653 7.08868L37.4787 7.68844C37.4947 7.69992 37.5022 7.69432 37.4964 7.67556L37.1808 6.70508C37.1755 6.68632 37.1833 6.66252 37.199 6.65076Z" fill="#FFE000"/>
<path d="M37.199 23.9594L38.0244 23.3594C38.0404 23.3479 38.0373 23.3395 38.0186 23.3395H36.9977C36.9784 23.3395 36.9568 23.3238 36.9509 23.3056L36.6359 22.3357C36.6298 22.3178 36.6202 22.3178 36.6138 22.3357L36.2988 23.3062C36.2929 23.3238 36.2722 23.3395 36.2526 23.3395H35.2323C35.2127 23.3395 35.2096 23.3482 35.2256 23.3597L36.0507 23.96C36.0664 23.9715 36.0742 23.9955 36.0684 24.0137L35.7528 24.9845C35.7469 25.0021 35.7545 25.0083 35.7704 24.9971L36.5956 24.3971C36.6113 24.3859 36.6368 24.3859 36.653 24.3971L37.4787 24.9971C37.4947 25.0083 37.5022 25.003 37.4964 24.9845L37.1808 24.0135C37.1755 23.9955 37.1833 23.9712 37.199 23.9594Z" fill="#FFE000"/>
<path d="M28.555 10.9775L27.7299 10.3777C27.7139 10.3663 27.7173 10.3567 27.7363 10.3567H28.7564C28.776 10.3567 28.797 10.3416 28.8028 10.3231L29.1178 9.35322C29.1237 9.33474 29.1338 9.33474 29.1397 9.35322L29.455 10.3234C29.4608 10.3416 29.4818 10.357 29.5009 10.357H30.5212C30.5408 10.357 30.5439 10.3665 30.5276 10.378L29.7028 10.9778C29.6865 10.9893 29.679 11.0133 29.6851 11.0321L30.0007 12.0023C30.0066 12.0205 29.999 12.0264 29.983 12.0152L29.1576 11.4157C29.1416 11.4045 29.1167 11.4045 29.1008 11.4157L28.275 12.0155C28.2594 12.0269 28.2515 12.0211 28.2574 12.0026L28.5724 11.0321C28.5791 11.0131 28.5704 10.989 28.555 10.9775Z" fill="#FFE000"/>
<path d="M28.555 19.6332L27.7299 19.0331C27.7139 19.0219 27.7173 19.0127 27.7363 19.0127L28.7564 19.013C28.776 19.013 28.797 18.997 28.8028 18.9791L29.1178 18.0095C29.1237 17.991 29.1338 17.991 29.1397 18.0095L29.455 18.9791C29.4608 18.997 29.4818 19.013 29.5009 19.013H30.5212C30.5408 19.013 30.5439 19.0222 30.5276 19.0334L29.7028 19.6332C29.6865 19.6447 29.679 19.6693 29.6851 19.6878L30.0007 20.6577C30.0066 20.6759 29.999 20.6821 29.983 20.6706L29.1576 20.0703C29.1416 20.0588 29.1167 20.0588 29.1008 20.0703L28.275 20.6706C28.2594 20.6821 28.2515 20.6765 28.2574 20.6577L28.5727 19.6872C28.5791 19.669 28.5704 19.6447 28.555 19.6332Z" fill="#FFE000"/>
<path d="M31.722 22.8015L30.8968 22.2015C30.8809 22.1894 30.8837 22.1805 30.9033 22.1805H31.9239C31.9429 22.1805 31.9639 22.1653 31.9695 22.1469L32.2845 21.1772C32.2904 21.159 32.3007 21.159 32.3066 21.1772L32.6219 22.1471C32.6278 22.1653 32.6491 22.1807 32.6681 22.1807H33.6887C33.708 22.1807 33.7111 22.19 33.6951 22.2015L32.87 22.8015C32.854 22.813 32.8465 22.8371 32.8523 22.855L33.1679 23.8257C33.1738 23.8437 33.1659 23.8501 33.1503 23.8383L32.3251 23.2383C32.3091 23.2274 32.2834 23.2274 32.268 23.2383L31.4423 23.8383C31.426 23.8501 31.419 23.8442 31.4246 23.8257L31.7402 22.855C31.7461 22.8368 31.7379 22.8127 31.722 22.8015Z" fill="#FFE000"/>
<path d="M31.722 7.80904L30.8968 7.20956C30.8809 7.1978 30.8837 7.18856 30.9033 7.18856L31.9239 7.18884C31.9429 7.18884 31.9639 7.17316 31.9695 7.15496L32.2845 6.18504C32.2904 6.16684 32.3007 6.16684 32.3066 6.18504L32.6219 7.15496C32.6278 7.17344 32.6491 7.18884 32.6681 7.18884H33.6887C33.708 7.18884 33.7111 7.19808 33.6951 7.20956L32.87 7.80904C32.854 7.82052 32.8465 7.84516 32.8523 7.86336L33.1679 8.83384C33.1738 8.85204 33.1659 8.85792 33.1503 8.84644L32.3251 8.24668C32.3091 8.2352 32.2834 8.2352 32.268 8.24668L31.4423 8.84644C31.426 8.85792 31.419 8.85232 31.4246 8.83384L31.7402 7.86336C31.7461 7.84516 31.7379 7.82052 31.722 7.80904Z" fill="#FFE000"/>
<path d="M27.3965 15.3051L26.5711 14.7056C26.5554 14.6942 26.5585 14.6849 26.5778 14.6849H27.5981C27.6174 14.6849 27.6384 14.6698 27.644 14.6513L27.959 13.6811C27.9649 13.6629 27.9753 13.6629 27.9809 13.6811L28.2964 14.6513C28.3023 14.6695 28.3227 14.6849 28.3423 14.6849H29.3627C29.3823 14.6849 29.3856 14.6945 29.3691 14.7059L28.5442 15.3057C28.5277 15.3172 28.5207 15.3413 28.5266 15.3597L28.8421 16.3299C28.848 16.3481 28.8402 16.3546 28.8245 16.3431L27.9991 15.7431C27.9834 15.7318 27.9576 15.7318 27.9419 15.7431L27.1162 16.3431C27.1003 16.3546 27.0924 16.349 27.0986 16.3299L27.4136 15.3597C27.42 15.341 27.4122 15.3172 27.3965 15.3051Z" fill="#FFE000"/>
<path d="M45.8534 15.3051L46.6782 14.7056C46.6939 14.6942 46.6917 14.6849 46.6721 14.6849H45.6512C45.6319 14.6849 45.6112 14.6698 45.6047 14.6513L45.2897 13.6811C45.2841 13.6629 45.2738 13.6629 45.2682 13.6811L44.9537 14.6513C44.9478 14.6695 44.926 14.6849 44.9067 14.6849H43.8864C43.8668 14.6849 43.864 14.6945 43.8802 14.7059L44.7051 15.3057C44.7219 15.3172 44.7286 15.3413 44.7227 15.3597L44.4072 16.3299C44.4013 16.3481 44.4094 16.3546 44.4248 16.3431L45.2505 15.7431C45.2659 15.7318 45.2914 15.7318 45.3071 15.7431L46.1328 16.3431C46.149 16.3546 46.1563 16.349 46.1504 16.3299L45.8354 15.3597C45.8298 15.341 45.8366 15.3172 45.8534 15.3051Z" fill="#FFE000"/>
<path d="M44.6951 10.9775L45.5203 10.3777C45.5365 10.3663 45.5329 10.3567 45.5141 10.3567H44.4935C44.4748 10.3567 44.4529 10.3416 44.447 10.3231L44.1326 9.35322C44.1267 9.33474 44.1166 9.33474 44.1102 9.35322L43.7958 10.3234C43.7896 10.3416 43.7689 10.357 43.7493 10.357H42.7295C42.7102 10.357 42.7066 10.3665 42.7234 10.378L43.548 10.9778C43.5639 10.9893 43.572 11.0133 43.5656 11.0321L43.25 12.0023C43.2444 12.0205 43.2517 12.0264 43.268 12.0152L44.0928 11.4154C44.1091 11.4042 44.1337 11.4042 44.1497 11.4154L44.9751 12.0152C44.9908 12.0267 44.9986 12.0208 44.9928 12.0023L44.678 11.0321C44.6716 11.0131 44.68 10.989 44.6951 10.9775Z" fill="#FFE000"/>
<path d="M44.6951 19.6332L45.5203 19.0331C45.5365 19.0219 45.5329 19.0127 45.5141 19.0127L44.4935 19.013C44.4748 19.013 44.4529 18.997 44.447 18.9791L44.1326 18.0095C44.1267 17.991 44.1166 17.991 44.1102 18.0095L43.7958 18.9791C43.7896 18.997 43.7689 19.013 43.7493 19.013H42.7295C42.7102 19.013 42.7066 19.0222 42.7234 19.0334L43.548 19.6332C43.5639 19.6447 43.572 19.6693 43.5656 19.6878L43.25 20.6577C43.2444 20.6759 43.2517 20.6821 43.268 20.6706L44.0928 20.0703C44.1091 20.0588 44.1337 20.0588 44.1497 20.0703L44.9751 20.6706C44.9908 20.6821 44.9986 20.6765 44.9928 20.6577L44.6778 19.6872C44.6716 19.669 44.68 19.6447 44.6951 19.6332Z" fill="#FFE000"/>
<path d="M41.5267 22.8015L42.3513 22.2015C42.3681 22.1894 42.3645 22.1805 42.3455 22.1805H41.3246C41.3055 22.1805 41.2843 22.1653 41.2781 22.1469L40.9631 21.1772C40.9572 21.159 40.9469 21.159 40.9413 21.1772L40.6263 22.1471C40.6204 22.1653 40.5985 22.1807 40.5798 22.1807H39.5595C39.5401 22.1807 39.5365 22.19 39.5527 22.2015L40.3785 22.8015C40.3944 22.813 40.4011 22.8371 40.3961 22.855L40.0803 23.8257C40.0744 23.8437 40.0828 23.8501 40.0979 23.8383L40.9225 23.2383C40.9396 23.2274 40.9637 23.2274 40.9799 23.2383L41.8059 23.8383C41.8221 23.8501 41.8289 23.8442 41.8233 23.8257L41.5083 22.855C41.5021 22.8368 41.5108 22.8127 41.5267 22.8015Z" fill="#FFE000"/>
<path d="M41.5267 7.80904L42.3513 7.20956C42.3681 7.1978 42.3645 7.18856 42.3455 7.18856L41.3246 7.18884C41.3055 7.18884 41.2843 7.17316 41.2781 7.15496L40.9631 6.18504C40.9572 6.16684 40.9469 6.16684 40.9413 6.18504L40.6263 7.15496C40.6204 7.17344 40.5985 7.18884 40.5798 7.18884H39.5595C39.5401 7.18884 39.5365 7.19808 39.5527 7.20956L40.3785 7.80904C40.3944 7.82052 40.4011 7.84516 40.3961 7.86336L40.0803 8.83384C40.0744 8.85204 40.0828 8.85792 40.0979 8.84644L40.9225 8.24668C40.9396 8.2352 40.9637 8.2352 40.9799 8.24668L41.8059 8.84644C41.8221 8.85792 41.8289 8.85232 41.8233 8.83384L41.5083 7.86336C41.5021 7.84516 41.5108 7.82052 41.5267 7.80904Z" fill="#FFE000"/>
<g clip-path="url(#clip1_745_39241)">
<path d="M78.1631 -0.838379H35.8369V30.6283H78.1631V-0.838379Z" fill="#00247D"/>
<path d="M73.4248 30.6282L56.9999 18.4129L40.5634 30.6282H35.8369V27.1018L52.2678 14.895L35.8369 2.67156V-0.838379H40.5636L56.9999 11.3768L73.425 -0.838379H78.1631V2.67103L61.7322 14.895L78.1631 27.1009V30.6282H73.4248Z" fill="white"/>
<path d="M38.9861 30.6282H35.8369L55.4342 15.971L35.8369 1.50704V-0.838379L55.4837 13.6768L75.0082 -0.838379H78.1631L58.5115 13.6809L78.1631 28.2828V30.6282L58.6377 16.0225L38.9861 30.6282Z" fill="#CF142B"/>
<path d="M60.8418 31.5722H53.1582V18.7366H33.9493V11.0531H53.1582V-1.46777H60.8418V11.0531H80.0508V18.7366H60.8418V31.5722Z" fill="white"/>
<path d="M59.3051 31.5722H54.6949V17.2H33.9493V12.5899H54.6949V-1.46777H59.3051V12.5899H80.0508V17.2H59.3051V31.5722Z" fill="#CF142B"/>
</g>
<rect x="43.5" y="1.41211" width="27" height="27" rx="13.5" stroke="white"/>
<defs>
<clipPath id="clip0_745_39241">
<rect x="1.775" y="2.31201" width="25.2" height="25.2" rx="12.6" fill="white"/>
</clipPath>
<clipPath id="clip1_745_39241">
<rect x="43" y="0.912109" width="28" height="28" rx="14" fill="white"/>
</clipPath>
</defs>
</svg>
