<svg width="26" height="26" viewBox="0 0 26 26" fill="none" xmlns="http://www.w3.org/2000/svg">
<path d="M56.0584 0.0625H-13.1016V25.2625H56.0584V0.0625Z" fill="white"/>
<path d="M56.0584 0.0625H-13.1016V2.8625H56.0584V0.0625Z" fill="#B22234"/>
<path d="M56.0584 5.66211H-13.1016V8.46213H56.0584V5.66211Z" fill="#B22234"/>
<path d="M56.0584 11.2627H-13.1016V14.0627H56.0584V11.2627Z" fill="#B22234"/>
<path d="M56.0584 16.8623H-13.1016V19.6623H56.0584V16.8623Z" fill="#B22234"/>
<path d="M56.0584 22.4629H-13.1016V25.2629H56.0584V22.4629Z" fill="#B22234"/>
<path d="M14.5624 0.0625H-13.1016V14.0625H14.5624V0.0625Z" fill="#3C3B6E"/>
<path d="M9.90338 1.17578L9.65166 1.95078H8.83691L9.49597 2.42953L9.24437 3.20418L9.90338 2.72543L10.5624 3.20418L10.3107 2.42946L10.9695 1.95078H10.1551L9.90338 1.17578Z" fill="white"/>
<path d="M7.61011 3.1416L7.35846 3.91627H6.54395L7.20298 4.39505L6.95113 5.16972L7.61021 4.69092L8.26911 5.16972L8.01744 4.39505L8.6765 3.91627H7.86178L7.61011 3.1416Z" fill="white"/>
<path d="M12.1965 3.1416L11.9448 3.91627H11.1304L11.7894 4.39502L11.5375 5.16972L12.1966 4.69092L12.8555 5.16972L12.6038 4.3951L13.2629 3.91627H12.4484L12.1965 3.1416Z" fill="white"/>
<path d="M5.31688 5.10645L5.0652 5.88112H4.25049L4.90959 6.35992L4.6579 7.13482L5.31678 6.65604L5.97583 7.13482L5.72393 6.35992L6.38301 5.88112H5.5685L5.31688 5.10645ZM5.31673 6.22772H5.3167L5.31678 6.22759L5.3168 6.22767L5.31673 6.22772Z" fill="white"/>
<path d="M9.90338 5.10645L9.65171 5.88112H8.83691L9.49607 6.35994L9.24437 7.13482L9.90335 6.65609L10.5623 7.13482L10.3106 6.35987L10.9694 5.88112H10.155L9.90338 5.10645ZM9.90338 6.22772L9.9033 6.22767L9.90335 6.22759L9.90343 6.22772H9.90338Z" fill="white"/>
<path d="M3.02361 7.07227L2.77198 7.84686H1.95752L2.61632 8.32559L2.36463 9.10031L3.02361 8.62154L3.68259 9.10031L3.43094 8.32569L4.09004 7.84686H3.27528L3.02361 7.07227Z" fill="white"/>
<path d="M7.61011 7.07227L7.35846 7.84686H6.54395L7.203 8.32564L6.95113 9.10031L7.61021 8.62149L8.26911 9.10031L8.01744 8.32564L8.6765 7.84686H7.86178L7.61011 7.07227Z" fill="white"/>
<path d="M12.1965 7.07227L11.9448 7.84686H11.1304L11.7894 8.32559L11.5375 9.10031L12.1966 8.62149L12.8555 9.10031L12.6038 8.32569L13.2629 7.84686H12.4484L12.1965 7.07227Z" fill="white"/>
<path d="M5.56852 9.81271L5.31688 9.03809L5.0652 9.81271H4.25049L4.90954 10.2915L4.65787 11.0661L5.31678 10.5873L5.97583 11.0661L5.72401 10.2915L6.38301 9.81271H5.56852Z" fill="white"/>
<path d="M10.155 9.81271L9.90338 9.03809L9.65171 9.81271H8.83691L9.49605 10.2916L9.24437 11.0661L9.90338 10.5874L10.5624 11.0661L10.3107 10.2914L10.9695 9.81271H10.155Z" fill="white"/>
<path d="M3.27528 11.7785L3.02361 11.0039L2.77196 11.7785H1.95752L2.6163 12.2573L2.36463 13.032L3.02361 12.5532L3.68259 13.032L3.43094 12.2574L4.09004 11.7785H3.27528Z" fill="white"/>
<path d="M7.86178 11.7785L7.61011 11.0039L7.35846 11.7785H6.54395L7.203 12.2573L6.95113 13.032L7.61021 12.5531L8.26911 13.032L8.01744 12.2573L8.6765 11.7785H7.86178Z" fill="white"/>
<path d="M12.4484 11.7785L12.1965 11.0039L11.9448 11.7785H11.1304L11.7894 12.2573L11.5375 13.032L12.1966 12.5531L12.8555 13.032L12.6038 12.2574L13.2629 11.7785H12.4484Z" fill="white"/>
</svg>
