<svg width="26" height="25" viewBox="0 0 26 25" fill="none" xmlns="http://www.w3.org/2000/svg">
<g clip-path="url(#clip0_12821_153)">
<path d="M13.0001 24.65C19.7104 24.65 25.1501 19.2102 25.1501 12.5C25.1501 5.78972 19.7104 0.349976 13.0001 0.349976C6.28984 0.349976 0.850098 5.78972 0.850098 12.5C0.850098 19.2102 6.28984 24.65 13.0001 24.65Z" fill="#C7C7C7"/>
<path d="M13 5.67209L12.2298 6.20821L12.5015 5.30987L11.7539 4.74338L12.6919 4.72401L13 3.83801L13.308 4.72401L14.2462 4.74338L13.4984 5.30987L13.7704 6.20821L13 5.67209Z" fill="white"/>
<path d="M16.7383 6.67386L15.9681 7.20998L16.24 6.31201L15.4922 5.74514L16.4304 5.72559L16.7383 4.83997L17.0462 5.72559L17.9846 5.74514L17.2367 6.31201L17.5087 7.20998L16.7383 6.67386Z" fill="white"/>
<path d="M19.4751 9.4105L18.7049 9.94662L18.9768 9.04846L18.229 8.48178L19.1668 8.46242L19.4751 7.57642L19.7829 8.46242L20.7213 8.48178L19.9735 9.04846L20.2455 9.94662L19.4751 9.4105Z" fill="white"/>
<path d="M13 20.6263L12.2298 21.1622L12.5015 20.2641L11.7539 19.6976L12.6919 19.6782L13 18.7916L13.308 19.6782L14.2462 19.6976L13.4984 20.2641L13.7704 21.1622L13 20.6263Z" fill="white"/>
<path d="M9.26176 19.6243L8.49156 20.1604L8.76323 19.2623L8.01562 18.6956L8.95364 18.6762L9.26176 17.79L9.56969 18.6762L10.5079 18.6956L9.76029 19.2623L10.0321 20.1604L9.26176 19.6243Z" fill="white"/>
<path d="M6.52483 16.8872L5.75464 17.4237L6.02612 16.5252L5.27832 15.9585L6.21653 15.9394L6.52483 15.053L6.83295 15.9394L7.77059 15.9585L7.02298 16.5252L7.29503 17.4237L6.52483 16.8872Z" fill="white"/>
<path d="M20.4768 13.1493L19.7064 13.6852L19.9785 12.7869L19.2305 12.2202L20.1689 12.201L20.4768 11.3148L20.7847 12.201L21.7227 12.2202L20.9751 12.7869L21.247 13.6852L20.4768 13.1493Z" fill="white"/>
<path d="M19.4751 16.888L18.7053 17.4237L18.9772 16.5256L18.229 15.9591L19.167 15.9395L19.4751 15.053L19.7833 15.9395L20.7215 15.9591L19.9735 16.5256L20.2451 17.4237L19.4751 16.888Z" fill="white"/>
<path d="M16.7383 19.6247L15.9681 20.1604L16.24 19.2623L15.4922 18.6956L16.4304 18.6762L16.7383 17.79L17.0462 18.6762L17.9846 18.6956L17.2367 19.2623L17.5087 20.1604L16.7383 19.6247Z" fill="white"/>
<path d="M5.52299 13.1493L4.75298 13.6852L5.02465 12.7869L4.27686 12.2202L5.21506 12.201L5.52299 11.3145L5.83111 12.201L6.76931 12.2202L6.02152 12.7869L6.29357 13.6852L5.52299 13.1493Z" fill="white"/>
<path d="M6.52483 9.41107L5.75464 9.94699L6.02612 9.04865L5.27832 8.48216L6.21653 8.4628L6.52483 7.57642L6.83295 8.4628L7.77059 8.48216L7.02298 9.04865L7.29503 9.94699L6.52483 9.41107Z" fill="white"/>
<path d="M9.26176 6.67406L8.49156 7.20999L8.76323 6.31203L8.01562 5.74477L8.95364 5.7256L9.26176 4.8396L9.56969 5.7256L10.5079 5.74477L9.76029 6.31203L10.0321 7.20999L9.26176 6.67406Z" fill="white"/>
</g>
<defs>
<clipPath id="clip0_12821_153">
<rect width="24.3" height="24.3" fill="white" transform="translate(0.850098 0.349976)"/>
</clipPath>
</defs>
</svg>
