<svg width="51" height="42" viewBox="0 0 51 42" fill="none" xmlns="http://www.w3.org/2000/svg">
<path d="M20.1741 17.1676L5.19117 30.2053C4.94072 30.3822 4.73185 30.6116 4.57912 30.8774C4.42639 31.1433 4.33347 31.4393 4.30684 31.7448C4.28021 32.0502 4.3205 32.3578 4.42492 32.6461C4.52933 32.9344 4.69535 33.1965 4.91141 33.4141C5.83321 34.6171 7.36051 34.4522 8.4631 33.6673L43.7494 9.25055C44.714 8.58337 45.4714 7.65825 45.935 6.58093C46.3986 5.50362 46.5498 4.3176 46.3712 3.15844C46.2847 2.594 45.9809 2.08577 45.5246 1.74243C45.0684 1.3991 44.4959 1.2479 43.9296 1.32117L42.078 1.52985C39.3839 1.83347 36.8224 2.86159 34.6661 4.50486L32.261 6.33765" stroke="#2947F2" stroke-width="2" stroke-linecap="round" stroke-linejoin="round"/>
<path d="M32.9687 10.7425L7.80127 5.90324L4.63623 8.34031L23.5658 18.7681" stroke="#2947F2" stroke-width="2" stroke-linecap="round" stroke-linejoin="round"/>
<path d="M13.1855 23.2856L3.59597 22.0363L1.80515 23.5652L6.04015 29.1865" stroke="#2947F2" stroke-width="2" stroke-linecap="round" stroke-linejoin="round"/>
<path opacity="0.96" d="M20.8606 32.1372L32.7695 24.6726" stroke="#FF6805" stroke-width="2" stroke-linecap="round" stroke-linejoin="round"/>
<path opacity="0.96" d="M19.478 38.7178L28.88 32.8346" stroke="#FF6805" stroke-width="2" stroke-linecap="round" stroke-linejoin="round"/>
</svg>
