<svg width="20" height="20" viewBox="0 0 20 20" fill="none" xmlns="http://www.w3.org/2000/svg">
<path d="M5.0596 10.6501C5.41862 11.0091 6.00073 11.0091 6.35976 10.6501C6.71879 10.291 6.71879 9.70901 6.35976 9.34997L5.0596 10.6501ZM2.06944 5.0596C1.71041 4.70057 1.1283 4.70057 0.769273 5.0596C0.410246 5.41863 0.410246 6.00074 0.769273 6.35977L2.06944 5.0596ZM1.41935 4.79033C0.911614 4.79033 0.5 5.20194 0.5 5.70968C0.5 6.21743 0.911614 6.62904 1.41935 6.62904V4.79033ZM18.5806 6.62904C19.0884 6.62904 19.5 6.21743 19.5 5.70968C19.5 5.20194 19.0884 4.79033 18.5806 4.79033V6.62904ZM0.769273 5.0596C0.410246 5.41863 0.410246 6.00074 0.769273 6.35977C1.1283 6.71879 1.71041 6.71879 2.06944 6.35977L0.769273 5.0596ZM6.35976 2.06944C6.71879 1.71041 6.71879 1.1283 6.35976 0.76927C6.00073 0.410243 5.41862 0.410243 5.0596 0.76927L6.35976 2.06944ZM14.9404 9.34997C14.5813 8.99093 13.9993 8.99093 13.6403 9.34997C13.2812 9.70901 13.2812 10.291 13.6403 10.6501L14.9404 9.34997ZM17.9306 14.9404C18.2896 15.2994 18.8717 15.2994 19.2307 14.9404C19.5897 14.5814 19.5897 13.9993 19.2307 13.6403L17.9306 14.9404ZM18.5806 15.2097C19.0884 15.2097 19.5 14.7981 19.5 14.2903C19.5 13.7826 19.0884 13.371 18.5806 13.371V15.2097ZM1.41935 13.371C0.911614 13.371 0.5 13.7826 0.5 14.2903C0.5 14.7981 0.911614 15.2097 1.41935 15.2097V13.371ZM19.2307 14.9404C19.5897 14.5814 19.5897 13.9993 19.2307 13.6403C18.8717 13.2813 18.2896 13.2813 17.9306 13.6403L19.2307 14.9404ZM13.6403 17.9306C13.2812 18.2897 13.2812 18.8717 13.6403 19.2307C13.9993 19.5898 14.5813 19.5898 14.9404 19.2307L13.6403 17.9306ZM6.35976 9.34997L2.06944 5.0596L0.769273 6.35977L5.0596 10.6501L6.35976 9.34997ZM1.41935 6.62904H18.5806V4.79033H1.41935V6.62904ZM2.06944 6.35977L6.35976 2.06944L5.0596 0.76927L0.769273 5.0596L2.06944 6.35977ZM13.6403 10.6501L17.9306 14.9404L19.2307 13.6403L14.9404 9.34997L13.6403 10.6501ZM18.5806 13.371H1.41935V15.2097H18.5806V13.371ZM17.9306 13.6403L13.6403 17.9306L14.9404 19.2307L19.2307 14.9404L17.9306 13.6403Z" fill="#374151"/>
</svg>
