<svg width="18" height="19" viewBox="0 0 18 19" fill="none" xmlns="http://www.w3.org/2000/svg">
<path d="M17.6621 6.38428C17.8027 6.70068 17.6973 7.01709 17.4512 7.26318L15.9395 8.63428C15.9746 8.91553 16.0098 9.23193 16.0098 9.51318C16.0098 9.82959 15.9746 10.146 15.9395 10.4272L17.4512 11.7983C17.6973 12.0444 17.8027 12.3608 17.6621 12.6772C17.5215 13.0991 17.3457 13.4858 17.1348 13.8726L16.959 14.1538C16.7129 14.5405 16.4668 14.9272 16.1855 15.2788C15.9746 15.5249 15.623 15.5952 15.3066 15.4897L13.373 14.8921C12.8809 15.2437 12.3535 15.5249 11.8262 15.771L11.3691 17.7749C11.2988 18.0913 11.0527 18.3374 10.7363 18.4077C10.2441 18.478 9.75195 18.5132 9.22461 18.5132C8.73242 18.5132 8.24023 18.478 7.74805 18.4077C7.43164 18.3374 7.18555 18.0913 7.11523 17.7749L6.6582 15.771C6.13086 15.5249 5.60352 15.2437 5.11133 14.8921L3.17773 15.4897C2.86133 15.5952 2.50977 15.5249 2.29883 15.2788C2.01758 14.9272 1.77148 14.5405 1.52539 14.1538L1.34961 13.8726C1.13867 13.4858 0.962891 13.0991 0.822266 12.6772C0.681641 12.3608 0.787109 12.0444 1.0332 11.7983L2.54492 10.4272C2.50977 10.146 2.50977 9.82959 2.50977 9.51318C2.50977 9.23193 2.50977 8.91553 2.54492 8.63428L1.0332 7.26318C0.787109 7.01709 0.681641 6.70068 0.822266 6.38428C0.962891 5.9624 1.13867 5.57568 1.34961 5.18896L1.52539 4.90771C1.77148 4.521 2.01758 4.13428 2.29883 3.78271C2.50977 3.53662 2.86133 3.46631 3.17773 3.57178L5.11133 4.16943C5.60352 3.81787 6.13086 3.50146 6.6582 3.29053L7.11523 1.28662C7.18555 0.970215 7.43164 0.724121 7.74805 0.653809C8.24023 0.583496 8.73242 0.513184 9.25977 0.513184C9.75195 0.513184 10.2441 0.583496 10.7363 0.653809C11.0527 0.724121 11.2988 0.970215 11.3691 1.28662L11.8262 3.29053C12.3535 3.50146 12.8809 3.81787 13.373 4.16943L15.3066 3.57178C15.623 3.46631 15.9746 3.53662 16.1855 3.78271C16.4668 4.13428 16.7129 4.521 16.959 4.90771L17.1348 5.18896C17.3457 5.57568 17.5215 5.9624 17.6621 6.38428ZM9.25977 12.3257C10.8066 12.3257 12.0723 11.0952 12.0723 9.51318C12.0723 7.96631 10.8066 6.70068 9.25977 6.70068C7.67773 6.70068 6.44727 7.96631 6.44727 9.51318C6.44727 11.0952 7.67773 12.3257 9.25977 12.3257Z" fill="#374151"/>
</svg>
