<svg width="33" height="34" viewBox="0 0 33 34" fill="none" xmlns="http://www.w3.org/2000/svg">
<g id="globe-dollar_svgrepo.com">
<path id="Vector" d="M4.125 17.1138H19.25M4.125 17.1138C4.125 23.9483 9.66548 29.4888 16.5 29.4888M4.125 17.1138C4.125 10.2792 9.66548 4.73877 16.5 4.73877M16.5 29.4888C16.9647 29.4888 17.4236 29.4632 17.875 29.4133M16.5 29.4888C6.53896 18.5988 12.3496 8.45127 16.5 4.73877M16.5 4.73877C21.8882 4.73877 26.472 8.18235 28.1709 12.9888M16.5 4.73877C18.3424 6.38675 20.5118 9.30272 21.4838 12.9888" stroke="#1D4ED8" stroke-width="2" stroke-linecap="round" stroke-linejoin="round"/>
<path id="Vector_2" d="M28.875 20.5513C28.1875 20.3808 27.067 20.3744 26.125 20.3808C25.81 20.3828 26.0004 20.3695 25.575 20.3808C24.4648 20.4154 23.3772 20.8769 23.375 22.1841C23.3725 23.5768 24.75 23.9888 26.125 23.9888C27.5 23.9888 28.875 24.3067 28.875 25.7935C28.875 26.9108 27.7647 27.4004 26.3809 27.5625C25.2809 27.5625 24.75 27.5981 23.375 27.4263M26.125 28.1138V29.4888M26.125 18.4888V19.8638" stroke="#D88A1D" stroke-width="2" stroke-linecap="round" stroke-linejoin="round"/>
</g>
</svg>
