<svg width="34" height="34" viewBox="0 0 34 34" fill="none" xmlns="http://www.w3.org/2000/svg">
<g id="globe-dollar_svgrepo.com">
<path id="Vector" d="M29.8242 20.834C29.1367 20.6635 28.0162 20.6572 27.0742 20.6635C26.7592 20.6655 26.9496 20.6522 26.5242 20.6635C25.414 20.6981 24.3264 21.1596 24.3242 22.4668C24.3217 23.8595 25.6992 24.2715 27.0742 24.2715C28.4492 24.2715 29.8242 24.5894 29.8242 26.0762C29.8242 27.1935 28.7139 27.6831 27.3301 27.8452C26.2301 27.8452 25.6992 27.8809 24.3242 27.709M27.0742 28.3965V29.7715M27.0742 18.7715V20.1465M5.07422 17.3965H20.1992M5.07422 17.3965C5.07422 24.2311 10.6147 29.7715 17.4492 29.7715M5.07422 17.3965C5.07422 10.562 10.6147 5.02148 17.4492 5.02148M17.4492 29.7715C17.914 29.7715 18.3728 29.7459 18.8242 29.696M17.4492 29.7715C7.48818 18.8815 13.2988 8.73398 17.4492 5.02148M17.4492 5.02148C22.8374 5.02148 27.4213 8.46506 29.1201 13.2715M17.4492 5.02148C19.2916 6.66946 21.4611 9.58544 22.433 13.2715" stroke="#D1D5DB" stroke-width="2" stroke-linecap="round" stroke-linejoin="round"/>
</g>
</svg>
