<svg width="37" height="36" viewBox="0 0 37 36" fill="none" xmlns="http://www.w3.org/2000/svg">
<g id="Layer_1" clip-path="url(#clip0_24594_4230)">
<path id="Vector" d="M36.6541 20.9631C36.6326 20.1346 36.1511 19.4581 35.3637 19.1542L35.2929 19.1265L19.4374 19.0752H19.421C18.6788 19.1347 17.8903 19.8616 17.7672 20.6017L17.762 20.6356V33.9552C15.3516 33.4758 13.6701 30.934 13.0357 29.813C11.4486 27.0104 10.5739 23.5426 10.2916 18.9261H15.5815C15.8597 18.9261 16.105 18.7762 16.2549 18.5155C16.3565 18.3389 16.413 18.1161 16.413 17.8893C16.413 17.3318 16.0886 17.0783 15.7868 17.0783H10.2916C10.3039 17.0033 10.3204 16.9274 10.3296 16.8812C10.3512 16.7765 10.3676 16.6995 10.3696 16.6286C10.4631 13.8487 10.9835 9.79882 12.934 6.291C13.9031 4.5489 15.5066 2.44134 17.761 1.95679V5.97014C17.761 6.17238 17.8934 6.3161 17.994 6.40644C18.0628 6.46906 18.4221 6.77703 18.7711 6.74315C18.999 6.72057 19.6088 6.32534 19.6088 5.97014V1.97117C20.7473 2.25553 21.9197 3.03265 22.8877 4.1588C22.9647 4.24811 23.0869 4.42674 23.2172 4.61666C23.7172 5.34552 24.0478 5.79311 24.4327 5.86703C24.6873 5.9163 24.9717 5.84649 25.1944 5.68019C25.4059 5.52312 25.5404 5.2942 25.564 5.05398C25.6164 4.5335 24.8834 3.59213 24.1987 2.8376C24.9789 3.12299 25.796 3.49974 26.6676 3.97402C26.7169 4.00071 26.837 4.08284 26.954 4.16188C27.8635 4.77885 28.6602 5.2634 29.2073 4.94208C29.3942 4.83224 29.6077 4.59099 29.5625 4.06538C29.5153 3.52232 28.7967 3.0152 27.651 2.37256L27.5792 2.33252C22.9257 -0.293463 17.3771 -0.723598 12.3581 1.15093C7.39257 3.00493 3.53264 6.90798 1.76795 11.8581C0.0227703 16.7528 0.471385 22.1752 2.99676 26.7343C5.47903 31.2153 9.7424 34.4089 14.6936 35.4981C16.4172 35.877 18.1182 35.9385 19.8532 35.9724C20.9475 35.994 22.049 36.0012 23.1485 36.0012C24.5744 36.0012 25.9972 35.9888 27.3923 35.9755C29.737 35.955 32.1608 35.9324 34.5414 35.9724H34.5496H34.5578C35.6912 35.9468 36.5309 35.1994 36.6469 34.1133L36.649 34.0917L36.6531 20.9744V20.9641L36.6541 20.9631ZM27.2055 29.6439C26.6707 29.6439 26.2816 29.9601 26.2816 30.3964V34.1205H19.77C19.7002 34.1051 19.5791 33.9306 19.5955 33.8474L19.6037 33.8074L19.6612 20.9857C19.6827 20.962 19.7002 20.9425 19.7166 20.9261H23.0992V25.6514L23.2039 25.7685C23.3497 25.9317 23.5129 26.0826 23.7316 26.2582C23.7572 26.2797 26.6932 28.3883 27.1326 28.4181C27.5556 28.4478 28.2249 27.989 29.6559 26.9388C30.2318 26.5158 30.8283 26.0785 31.0675 25.9717L31.3108 25.8629V20.9251H34.6934C34.7088 20.9415 34.7272 20.961 34.7488 20.9846L34.8063 33.8063L34.8145 33.8464C34.8309 33.9295 34.7098 34.104 34.6472 34.1194H28.1284V30.3954C28.1284 29.9591 27.7393 29.6429 27.2045 29.6429L27.2055 29.6439ZM29.464 24.7614L27.1655 26.2859L24.947 24.7655V20.9271H29.464V24.7614ZM13.0531 33.0744C7.1739 30.8662 2.98855 25.2683 2.58819 18.9271H8.43352C8.6686 24.5435 10.0576 29.1108 12.5645 32.5057L13.0531 33.0744ZM2.56355 17.0793C2.57689 16.6173 2.7083 15.8207 2.78734 15.3362L2.79761 15.2766C3.71434 9.68076 7.6451 4.96159 12.9925 2.88379C9.57815 6.88642 8.61419 12.6927 8.43454 17.0793H2.56355Z" fill="white"/>
<path id="Vector_2" d="M22.5723 6.922C22.3493 6.67828 21.9703 6.62954 21.673 6.80501L21.6389 6.82451L18.166 9.71616C18.1319 9.74418 18.1002 9.77587 18.0734 9.80877C17.8284 10.1037 17.8687 10.5423 18.1636 10.7873L21.5828 13.6338C21.712 13.7533 21.8777 13.8178 22.0544 13.8178C22.4383 13.8178 22.7502 13.5059 22.7502 13.122V12.1009H25.732C26.1159 12.1009 26.4278 11.7889 26.4278 11.4051V9.10078C26.4278 8.71694 26.1159 8.40499 25.732 8.40499H22.7502V7.45816C22.7685 7.25832 22.7051 7.06579 22.5735 6.922H22.5723ZM21.3574 11.4051V11.6378L19.6941 10.2535L21.3574 8.86926V9.102C21.3574 9.48585 21.6694 9.7978 22.0532 9.7978H25.035V10.7105H22.0532C21.6694 10.7105 21.3574 11.0225 21.3574 11.4063V11.4051Z" fill="white"/>
<path id="Vector_3" d="M27.1223 13.7445V16.0488C27.1223 16.4327 27.4343 16.7446 27.8181 16.7446H30.7999V17.6915C30.7829 17.8913 30.845 18.0838 30.9766 18.2276C31.1107 18.3739 31.2995 18.4494 31.4933 18.4494C31.6237 18.4494 31.7565 18.4153 31.8759 18.3446L31.91 18.3251L35.3817 15.4347C35.4158 15.4067 35.4475 15.375 35.4756 15.3421C35.5938 15.1995 35.6498 15.0192 35.6327 14.8339C35.6157 14.6487 35.528 14.4818 35.3854 14.3636L31.9661 11.517C31.8369 11.3976 31.6712 11.333 31.4945 11.333C31.1107 11.333 30.7987 11.645 30.7987 12.0288V13.05H27.8169C27.433 13.05 27.1211 13.3619 27.1211 13.7458L27.1223 13.7445ZM32.1915 13.7445V13.5118L33.8549 14.8961L32.1915 16.2804V16.0476C32.1915 15.6638 31.8796 15.3518 31.4957 15.3518H28.5139V14.4391H31.4957C31.8796 14.4391 32.1915 14.1272 32.1915 13.7433V13.7445Z" fill="white"/>
</g>
<defs>
<clipPath id="clip0_24594_4230">
<rect width="35.9343" height="36" fill="white" transform="translate(0.719727)"/>
</clipPath>
</defs>
</svg>
