<svg width="37" height="36" viewBox="0 0 37 36" fill="none" xmlns="http://www.w3.org/2000/svg">
<g id="Layer_1" clip-path="url(#clip0_24232_17615)">
<path id="Vector" d="M36.8257 20.9631C36.8042 20.1346 36.3227 19.4581 35.5353 19.1542L35.4645 19.1265L19.609 19.0752H19.5926C18.8504 19.1347 18.062 19.8616 17.9388 20.6017L17.9336 20.6356V33.9552C15.5232 33.4758 13.8417 30.934 13.2073 29.813C11.6202 27.0104 10.7456 23.5426 10.4633 18.9261H15.7531C16.0313 18.9261 16.2766 18.7762 16.4265 18.5155C16.5282 18.3389 16.5846 18.1161 16.5846 17.8893C16.5846 17.3318 16.2602 17.0783 15.9584 17.0783H10.4633C10.4756 17.0033 10.492 16.9274 10.5012 16.8812C10.5228 16.7765 10.5392 16.6995 10.5413 16.6286C10.6347 13.8487 11.1552 9.79882 13.1057 6.291C14.0747 4.5489 15.6783 2.44134 17.9326 1.95679V5.97014C17.9326 6.17238 18.0651 6.3161 18.1657 6.40644C18.2344 6.46906 18.5937 6.77703 18.9428 6.74315C19.1707 6.72057 19.7805 6.32534 19.7805 5.97014V1.97117C20.9189 2.25553 22.0913 3.03265 23.0593 4.1588C23.1363 4.24811 23.2585 4.42674 23.3889 4.61666C23.8888 5.34552 24.2194 5.79311 24.6043 5.86703C24.8589 5.9163 25.1433 5.84649 25.3661 5.68019C25.5775 5.52312 25.712 5.2942 25.7356 5.05398C25.788 4.5335 25.055 3.59213 24.3703 2.8376C25.1505 3.12299 25.9676 3.49974 26.8392 3.97402C26.8885 4.00071 27.0086 4.08284 27.1256 4.16188C28.0352 4.77885 28.8318 5.2634 29.379 4.94208C29.5658 4.83224 29.7793 4.59099 29.7341 4.06538C29.6869 3.52232 28.9683 3.0152 27.8227 2.37256L27.7508 2.33252C23.0973 -0.293463 17.5487 -0.723598 12.5297 1.15093C7.5642 3.00493 3.70427 6.90798 1.93958 11.8581C0.194401 16.7528 0.643015 22.1752 3.16839 26.7343C5.65066 31.2153 9.91403 34.4089 14.8652 35.4981C16.5888 35.877 18.2899 35.9385 20.0248 35.9724C21.1191 35.994 22.2206 36.0012 23.3201 36.0012C24.746 36.0012 26.1688 35.9888 27.564 35.9755C29.9087 35.955 32.3324 35.9324 34.713 35.9724H34.7213H34.7295C35.8628 35.9468 36.7026 35.1994 36.8186 34.1133L36.8206 34.0917L36.8247 20.9744V20.9641L36.8257 20.9631ZM27.3771 29.6439C26.8423 29.6439 26.4532 29.9601 26.4532 30.3964V34.1205H19.9416C19.8718 34.1051 19.7507 33.9306 19.7671 33.8474L19.7753 33.8074L19.8328 20.9857C19.8544 20.962 19.8718 20.9425 19.8883 20.9261H23.2708V25.6514L23.3755 25.7685C23.5213 25.9317 23.6845 26.0826 23.9032 26.2582C23.9289 26.2797 26.8649 28.3883 27.3042 28.4181C27.7272 28.4478 28.3965 27.989 29.8276 26.9388C30.4035 26.5158 30.9999 26.0785 31.2391 25.9717L31.4824 25.8629V20.9251H34.865C34.8804 20.9415 34.8989 20.961 34.9204 20.9846L34.9779 33.8063L34.9861 33.8464C35.0025 33.9295 34.8814 34.104 34.8188 34.1194H28.3V30.3954C28.3 29.9591 27.9109 29.6429 27.3761 29.6429L27.3771 29.6439ZM29.6356 24.7614L27.3371 26.2859L25.1187 24.7655V20.9271H29.6356V24.7614ZM13.2247 33.0744C7.34554 30.8662 3.16018 25.2683 2.75982 18.9271H8.60515C8.84023 24.5435 10.2292 29.1108 12.7361 32.5057L13.2247 33.0744ZM2.73518 17.0793C2.74852 16.6173 2.87993 15.8207 2.95897 15.3362L2.96924 15.2766C3.88597 9.68076 7.81673 4.96159 13.1642 2.88379C9.74978 6.88642 8.78582 12.6927 8.60617 17.0793H2.73518Z" fill="#374151"/>
<path id="Vector_2" d="M22.7442 6.922C22.5212 6.67828 22.1422 6.62954 21.8449 6.80501L21.8108 6.82451L18.3379 9.71616C18.3037 9.74418 18.2721 9.77587 18.2453 9.80877C18.0003 10.1037 18.0405 10.5423 18.3354 10.7873L21.7547 13.6338C21.8839 13.7533 22.0496 13.8178 22.2263 13.8178C22.6101 13.8178 22.9221 13.5059 22.9221 13.122V12.1009H25.9039C26.2878 12.1009 26.5997 11.7889 26.5997 11.4051V9.10078C26.5997 8.71694 26.2878 8.40499 25.9039 8.40499H22.9221V7.45816C22.9404 7.25832 22.877 7.06579 22.7454 6.922H22.7442ZM21.5293 11.4051V11.6378L19.8659 10.2535L21.5293 8.86926V9.102C21.5293 9.48585 21.8412 9.7978 22.2251 9.7978H25.2069V10.7105H22.2251C21.8412 10.7105 21.5293 11.0225 21.5293 11.4063V11.4051Z" fill="#003DFF"/>
<path id="Vector_3" d="M27.2942 13.7445V16.0488C27.2942 16.4327 27.6061 16.7446 27.99 16.7446H30.9718V17.6915C30.9547 17.8913 31.0169 18.0838 31.1485 18.2276C31.2825 18.3739 31.4714 18.4494 31.6652 18.4494C31.7956 18.4494 31.9284 18.4153 32.0478 18.3446L32.0819 18.3251L35.5536 15.4347C35.5877 15.4067 35.6194 15.375 35.6474 15.3421C35.7656 15.1995 35.8217 15.0192 35.8046 14.8339C35.7876 14.6487 35.6998 14.4818 35.5573 14.3636L32.138 11.517C32.0088 11.3976 31.8431 11.333 31.6664 11.333C31.2825 11.333 30.9706 11.645 30.9706 12.0288V13.05H27.9888C27.6049 13.05 27.293 13.3619 27.293 13.7458L27.2942 13.7445ZM32.3634 13.7445V13.5118L34.0267 14.8961L32.3634 16.2804V16.0476C32.3634 15.6638 32.0515 15.3518 31.6676 15.3518H28.6858V14.4391H31.6676C32.0515 14.4391 32.3634 14.1272 32.3634 13.7433V13.7445Z" fill="#003DFF"/>
</g>
<defs>
<clipPath id="clip0_24232_17615">
<rect width="35.9343" height="36" fill="white" transform="translate(0.891357)"/>
</clipPath>
</defs>
</svg>
