<svg width="110" height="34" viewBox="0 0 110 34" fill="none" xmlns="http://www.w3.org/2000/svg">
<g id="1">
<rect x="0.5" y="0.5" width="109" height="33" rx="16.5" stroke="#111827"/>
<path id="Vector" d="M41.2455 10.1997C41.2455 10.7462 41.1098 11.2244 40.7703 11.566C40.3629 11.9759 39.8877 12.1808 39.2766 12.1808C38.6656 12.1808 38.1903 11.9759 37.7829 11.566C37.3756 11.1561 37.1719 10.6779 37.1719 10.0631C37.1719 9.44824 37.3756 8.97006 37.7829 8.56015C38.1903 8.15027 38.6656 7.94531 39.2766 7.94531C39.5482 7.94531 39.8198 8.01362 40.0913 8.15027C40.3629 8.28688 40.5666 8.42353 40.7024 8.62845L40.3629 8.97002C40.0913 8.62845 39.7518 8.49184 39.2766 8.49184C38.8692 8.49184 38.4619 8.62845 38.1903 8.97002C37.8508 9.24329 37.715 9.6532 37.715 10.1314C37.715 10.6096 37.8508 11.0195 38.1903 11.2927C38.5297 11.566 38.8692 11.7709 39.2766 11.7709C39.7518 11.7709 40.0913 11.6343 40.4308 11.2927C40.6345 11.0878 40.7703 10.8145 40.7703 10.473H39.2766V9.99477H41.2455C41.2455 9.99477 41.2455 10.0631 41.2455 10.1997Z" fill="#111827" stroke="#111827" stroke-width="0.2" stroke-miterlimit="10"/>
<path id="Vector_2" d="M44.3724 8.49184H42.5393V9.78981H44.2366V10.268H42.5393V11.566H44.3724V12.0442H41.9961V7.94531H44.3724V8.49184Z" fill="#111827" stroke="#111827" stroke-width="0.2" stroke-miterlimit="10"/>
<path id="Vector_3" d="M46.6116 12.0442H46.0683V8.42353H44.9141V7.94531H47.7655V8.42353H46.6116V12.0442Z" fill="#111827" stroke="#111827" stroke-width="0.2" stroke-miterlimit="10"/>
<path id="Vector_4" d="M49.7344 12.0442V7.94531H50.2772V12.0442H49.7344Z" fill="#111827" stroke="#111827" stroke-width="0.2" stroke-miterlimit="10"/>
<path id="Vector_5" d="M52.5878 12.0442H52.0449V8.42353H50.8906V7.94531H53.6743V8.42353H52.52V12.0442H52.5878Z" fill="#111827" stroke="#111827" stroke-width="0.2" stroke-miterlimit="10"/>
<path id="Vector_6" d="M59.036 11.566C58.6288 11.9759 58.1533 12.1808 57.5423 12.1808C56.9312 12.1808 56.4562 11.9759 56.0486 11.566C55.6413 11.1561 55.4375 10.6779 55.4375 10.0631C55.4375 9.44824 55.6413 8.97006 56.0486 8.56015C56.4562 8.15027 56.9312 7.94531 57.5423 7.94531C58.1533 7.94531 58.6288 8.15027 59.036 8.56015C59.4432 8.97006 59.647 9.44824 59.647 10.0631C59.647 10.6096 59.4432 11.1561 59.036 11.566ZM56.4562 11.2244C56.7278 11.4977 57.135 11.7026 57.5423 11.7026C57.9499 11.7026 58.3571 11.566 58.6288 11.2244C58.9004 10.9512 59.1038 10.5413 59.1038 10.0631C59.1038 9.58486 58.9682 9.17498 58.6288 8.90172C58.3571 8.62845 57.9499 8.42353 57.5423 8.42353C57.135 8.42353 56.7278 8.56015 56.4562 8.90172C56.1846 9.17498 55.9807 9.58486 55.9807 10.0631C55.9807 10.473 56.1168 10.8829 56.4562 11.2244Z" fill="#111827" stroke="#111827" stroke-width="0.2" stroke-miterlimit="10"/>
<path id="Vector_7" d="M60.3945 12.0442V7.94531H61.0056L62.9743 11.1561V10.3363V7.94531H63.5176V12.0442H62.9743L60.8696 8.6968V9.51655V12.0442H60.3945Z" fill="#111827" stroke="#111827" stroke-width="0.2" stroke-miterlimit="10"/>
<path id="Vector_8" d="M55.3002 18.0545C53.6709 18.0545 52.381 19.2842 52.381 20.9921C52.381 22.6316 53.6709 23.9296 55.3002 23.9296C56.9296 23.9296 58.2199 22.6999 58.2199 20.9921C58.2199 19.2842 56.9296 18.0545 55.3002 18.0545ZM55.3002 22.6999C54.4175 22.6999 53.6709 21.9485 53.6709 20.9238C53.6709 19.899 54.4175 19.1476 55.3002 19.1476C56.1829 19.1476 56.9296 19.8307 56.9296 20.9238C56.9296 22.0168 56.1829 22.6999 55.3002 22.6999ZM48.9859 18.0545C47.3566 18.0545 46.0666 19.2842 46.0666 20.9921C46.0666 22.6316 47.3566 23.9296 48.9859 23.9296C50.6156 23.9296 51.9055 22.6999 51.9055 20.9921C51.9055 19.2842 50.6156 18.0545 48.9859 18.0545ZM48.9859 22.6999C48.1036 22.6999 47.3566 21.9485 47.3566 20.9238C47.3566 19.899 48.1036 19.1476 48.9859 19.1476C49.8686 19.1476 50.6156 19.8307 50.6156 20.9238C50.6156 22.0168 49.8686 22.6999 48.9859 22.6999ZM41.4498 18.9426V20.1723H44.3692C44.3014 20.8555 44.0298 21.402 43.6903 21.7435C43.283 22.1534 42.604 22.6316 41.4498 22.6316C39.6166 22.6316 38.2587 21.197 38.2587 19.3525C38.2587 17.508 39.6845 16.0734 41.4498 16.0734C42.4003 16.0734 43.1471 16.4833 43.6903 16.9615L44.5729 16.0734C43.8261 15.3903 42.8756 14.8438 41.5177 14.8438C39.0735 14.8438 36.9688 16.8932 36.9688 19.3525C36.9688 21.8118 39.0735 23.8613 41.5177 23.8613C42.8756 23.8613 43.8261 23.4514 44.6408 22.5633C45.4556 21.7435 45.7271 20.5822 45.7271 19.6941C45.7271 19.4208 45.7271 19.1476 45.6592 18.9426H41.4498ZM72.274 19.899C72.0024 19.2159 71.3231 18.0545 69.8298 18.0545C68.3361 18.0545 67.114 19.2159 67.114 20.9921C67.114 22.6316 68.3361 23.9296 69.9654 23.9296C71.2553 23.9296 72.0702 23.1098 72.3418 22.6316L71.3913 21.9485C71.0519 22.4267 70.6443 22.7682 69.9654 22.7682C69.2866 22.7682 68.8789 22.495 68.5395 21.8802L72.4096 20.2406L72.274 19.899ZM68.3361 20.8555C68.3361 19.7624 69.2188 19.1476 69.8298 19.1476C70.3049 19.1476 70.7803 19.4208 70.9159 19.7624L68.3361 20.8555ZM65.1448 23.6563H66.4347V15.117H65.1448V23.6563ZM63.1083 18.6694C62.7684 18.3278 62.2256 17.9862 61.5463 17.9862C60.1208 17.9862 58.7627 19.2842 58.7627 20.9238C58.7627 22.5633 60.053 23.793 61.5463 23.793C62.2256 23.793 62.7684 23.4514 63.0401 23.1098H63.1083V23.5197C63.1083 24.6127 62.4972 25.2276 61.5463 25.2276C60.7997 25.2276 60.2564 24.6811 60.1208 24.2029L59.0343 24.6811C59.3738 25.4325 60.1886 26.3889 61.6145 26.3889C63.1083 26.3889 64.3304 25.5008 64.3304 23.3831V18.1912H63.1083V18.6694ZM61.6145 22.6999C60.7319 22.6999 59.9848 21.9485 59.9848 20.9238C59.9848 19.899 60.7319 19.1476 61.6145 19.1476C62.4972 19.1476 63.1761 19.899 63.1761 20.9238C63.1761 21.9485 62.4972 22.6999 61.6145 22.6999ZM78.1807 15.117H75.1255V23.6563H76.4154V20.4456H78.1807C79.6062 20.4456 80.9643 19.4208 80.9643 17.7813C80.9643 16.1417 79.6062 15.117 78.1807 15.117ZM78.2485 19.2842H76.4154V16.3467H78.2485C79.199 16.3467 79.7422 17.1665 79.7422 17.7813C79.6744 18.4644 79.1312 19.2842 78.2485 19.2842ZM86.0566 18.0545C85.1057 18.0545 84.1552 18.4644 83.8158 19.3525L84.9701 19.8307C85.2417 19.3525 85.6489 19.2159 86.1244 19.2159C86.8032 19.2159 87.4143 19.6258 87.4821 20.3089V20.3772C87.2787 20.2406 86.7354 20.0357 86.1922 20.0357C84.9701 20.0357 83.748 20.7188 83.748 21.9485C83.748 23.1098 84.7663 23.8613 85.8527 23.8613C86.7354 23.8613 87.1426 23.4514 87.4821 23.0415H87.5499V23.7247H88.772V20.4456C88.6364 18.8743 87.4821 18.0545 86.0566 18.0545ZM85.9205 22.6999C85.5133 22.6999 84.9023 22.495 84.9023 21.9485C84.9023 21.2653 85.6489 21.0604 86.26 21.0604C86.8032 21.0604 87.0748 21.197 87.4143 21.3337C87.2787 22.1534 86.5994 22.6999 85.9205 22.6999ZM93.0493 18.1912L91.6238 21.8802H91.556L90.0623 18.1912H88.7042L90.945 23.3831L89.6547 26.2523H90.945L94.4074 18.1912H93.0493ZM81.6432 23.6563H82.9331V15.117H81.6432V23.6563Z" fill="#111827"/>
<path id="Vector_9" d="M15.7863 25.3656C15.5147 25.229 15.3789 24.8874 15.3789 24.5458C15.3789 24.4775 15.3789 24.3409 15.3789 24.2726C15.3789 19.2173 15.3789 14.162 15.3789 9.17499C15.3789 8.90173 15.4468 8.69681 15.5147 8.42355C15.5826 8.2869 15.7184 8.15028 15.8542 8.01367C18.7736 10.9512 21.6252 13.8887 24.4767 16.8263C21.5573 19.5588 18.7057 22.4281 15.7863 25.3656Z" fill="#111827"/>
<path id="Vector_10" d="M27.3289 13.8203C26.5141 14.6401 25.6315 15.4599 24.8168 16.348C22.101 13.5471 19.3173 10.7462 16.6016 7.94526C16.6016 7.94526 16.6016 7.87695 16.6694 7.87695C20.2 9.85807 23.7305 11.8392 27.3289 13.8203Z" fill="#111827"/>
<path id="Vector_11" d="M16.6016 25.3657C19.3173 22.6331 22.101 19.9006 24.8168 17.168C25.5636 17.9194 26.3784 18.6709 27.261 19.4907C23.7305 21.4718 20.2 23.4529 16.6694 25.3657H16.6016Z" fill="#111827"/>
<path id="Vector_12" d="M27.7362 19.2173C26.8536 18.3976 26.0389 17.5778 25.1562 16.758C26.0389 15.8699 26.9215 14.9818 27.8041 14.0938C28.0757 14.2304 28.3473 14.367 28.6189 14.5719C29.2978 14.9818 30.0447 15.3234 30.7236 15.7333C30.9273 15.8016 31.0631 15.9382 31.1988 16.1432C31.4704 16.4847 31.4704 16.8263 31.1988 17.1679C31.0631 17.3045 30.9273 17.4412 30.7236 17.5095C29.7731 18.1243 28.7547 18.6708 27.7362 19.2173Z" fill="#111827"/>
</g>
</svg>
