<svg width="24" height="25" viewBox="0 0 24 25" fill="none" xmlns="http://www.w3.org/2000/svg">
<g id="google-play-style_svgrepo.com" clip-path="url(#clip0_16482_50075)">
<g id="Group">
<g id="Group_2">
<path id="Vector" d="M10.5776 12.5025L0.657 23.7037L0.355031 24.048C0.167297 23.759 0.0407813 23.4146 0.0122344 23.0321C0.00407813 22.9641 0 22.896 0 22.828V2.1728C0 1.70952 0.134672 1.29291 0.355031 0.952728L10.5776 12.5025Z" fill="#59A6CA"/>
<path id="Vector_2" d="M15.038 7.46094L10.5776 12.5026L0.35498 0.952741C0.934449 0.0686104 2.1179 -0.309661 3.12182 0.293952L15.038 7.46094Z" fill="#B6D9A2"/>
<path id="Vector_3" d="M21.3308 12.562C21.3144 13.2677 20.9676 13.9733 20.2942 14.3771L15.038 17.5398L10.5776 12.5025L15.038 7.46094L18.3436 9.45044L20.2942 10.6236C21.0084 11.053 21.3553 11.8096 21.3308 12.562Z" fill="#F0CE89"/>
<path id="Vector_4" d="M0.355713 24.0475C0.935463 24.932 2.11817 25.3091 3.12021 24.7065L15.0362 17.5401L10.5758 12.5005L0.355713 24.0475Z" fill="#B6547C"/>
</g>
<path id="Vector_5" opacity="0.2" d="M21.2844 12.0336C21.1694 11.4711 20.8399 10.9517 20.2942 10.6236L18.3435 9.45045L15.038 7.46094L3.12187 0.293952C2.11795 -0.309661 0.9345 0.0686104 0.355031 0.952741C0.134672 1.29293 0 1.70953 0 2.17281V14.0732C1.71942 14.2253 3.47934 14.3049 5.27114 14.3049C7.52039 14.3049 9.71723 14.1758 11.8485 13.9385L10.5817 12.5071L11.8491 13.9385C15.1869 13.5669 18.3547 12.9175 21.2844 12.0336Z" fill="white"/>
</g>
</g>
<defs>
<clipPath id="clip0_16482_50075">
<rect width="24" height="25" fill="white"/>
</clipPath>
</defs>
</svg>
