<svg width="24" height="24" viewBox="0 0 24 24" fill="none" xmlns="http://www.w3.org/2000/svg">
<g id="Group 240440">
<path id="Vector" d="M16.4025 10.1992L12.5001 14.1016L9.89848 11.5L5.99609 15.4024" stroke="#33363F" stroke-width="2" stroke-linecap="round" stroke-linejoin="round"/>
<path id="Vector_2" d="M14.4494 3.04492H5.60395C4.14692 3.04492 3.41841 3.04492 2.8619 3.32848C2.37237 3.5779 1.97438 3.97589 1.72497 4.46542C1.44141 5.02192 1.44141 5.75043 1.44141 7.20747V18.3943C1.44141 19.8513 1.44141 20.5799 1.72497 21.1364C1.97438 21.6259 2.37237 22.0239 2.8619 22.2733C3.41841 22.5569 4.14692 22.5569 5.60395 22.5569H16.7908C18.2478 22.5569 18.9764 22.5569 19.5329 22.2733C20.0224 22.0239 20.4204 21.6259 20.6698 21.1364C20.9533 20.5799 20.9533 19.8513 20.9533 18.3943V9.5489" stroke="#33363F" stroke-width="2" stroke-linecap="round"/>
<path id="Vector_3" d="M20.9532 5.64654C22.39 5.64654 23.5547 4.48177 23.5547 3.04495C23.5547 1.60813 22.39 0.443359 20.9532 0.443359C19.5163 0.443359 18.3516 1.60813 18.3516 3.04495C18.3516 4.48177 19.5163 5.64654 20.9532 5.64654Z" fill="#33363F"/>
</g>
</svg>
