<svg width="333" height="288" viewBox="0 0 333 288" fill="none" xmlns="http://www.w3.org/2000/svg">
<path d="M294.903 97.8414H83.2246" stroke="#05F2F2" stroke-width="49.5154" stroke-linecap="round" stroke-linejoin="round"/>
<path d="M569.714 169H228.057" stroke="#05F2F2" stroke-width="49.5154" stroke-linecap="round" stroke-linejoin="round"/>
<path d="M169.437 170.238H138.209C112.69 170.238 92 191.022 92 216.659C92 242.295 112.69 263.079 138.209 263.079H228.167" stroke="#05F2F2" stroke-width="49.5154" stroke-linecap="round" stroke-linejoin="round"/>
<path d="M356.797 73.0837C370.471 73.0837 381.555 84.1681 381.555 97.8414C381.555 111.515 370.471 122.599 356.797 122.599C343.124 122.599 332.04 111.515 332.04 97.8414C332.04 84.1681 343.124 73.0837 356.797 73.0837Z" fill="#2947F2"/>
<path d="M25.0439 73.0837C38.7172 73.0837 49.8016 84.1681 49.8016 97.8414C49.8016 111.515 38.7172 122.599 25.0439 122.599C11.3705 122.599 0.286133 111.515 0.286133 97.8414C0.286133 84.1681 11.3705 73.0837 25.0439 73.0837Z" fill="white"/>
<path d="M83.2246 25H200.824" stroke="#05F2F2" stroke-width="49.5154" stroke-linecap="round" stroke-linejoin="round"/>
<path d="M287.476 263.079H557.335" stroke="#05F2F2" stroke-width="49.5154" stroke-linecap="round" stroke-linejoin="round"/>
</svg>
