<svg width="19" height="19" viewBox="0 0 19 19" fill="none" xmlns="http://www.w3.org/2000/svg">
<path d="M16.625 9.91663C16.625 14.0787 11.7622 17.0946 10.0712 18.0176C9.8884 18.1175 9.79693 18.1674 9.67011 18.1932C9.57125 18.2134 9.42875 18.2134 9.32989 18.1932C9.20306 18.1674 9.1116 18.1175 8.92875 18.0176C7.23778 17.0946 2.375 14.0787 2.375 9.91663V6.38775C2.375 5.64183 2.375 5.26888 2.49146 4.94828C2.59433 4.66506 2.76151 4.41235 2.97854 4.212C3.22421 3.9852 3.55757 3.85425 4.22429 3.59234L8.99965 1.71644C9.18481 1.64371 9.27734 1.60734 9.37264 1.59291C9.45707 1.58013 9.54293 1.58013 9.62736 1.59291C9.72266 1.60734 9.81519 1.64371 10.0004 1.71644L14.7757 3.59234C15.4424 3.85425 15.7758 3.9852 16.0214 4.212C16.2385 4.41235 16.4056 4.66506 16.5085 4.94828C16.625 5.26888 16.625 5.64183 16.625 6.38775V9.91663Z" stroke="#1E40AF" stroke-width="0.791667" stroke-linecap="round" stroke-linejoin="round"/>
<path d="M11.1975 7.36025C10.7655 7.25603 10.0615 7.25219 9.46955 7.25603M9.46955 7.25603C9.27161 7.25731 9.39127 7.24912 9.12395 7.25603C8.42637 7.27719 7.74296 7.55922 7.74158 8.35825C7.74007 9.20942 8.60556 9.46129 9.46955 9.46129C10.3335 9.46129 11.1975 9.6556 11.1975 10.5643C11.1975 11.2473 10.4998 11.5465 9.63034 11.6456C8.93915 11.6456 8.60556 11.6674 7.74158 11.5623M9.46955 7.25603V6.0997M9.46955 11.646V12.823" stroke="#1E40AF" stroke-width="0.791667" stroke-linecap="round" stroke-linejoin="round"/>
</svg>
