<svg xmlns="http://www.w3.org/2000/svg" width="383" height="257" viewBox="0 0 383 257" fill="none">
<line x1="62.8061" y1="256.5" x2="381.594" y2="256.5" stroke="#B4B6BB" stroke-dasharray="3 3"/>
<path d="M61.7322 15.89C61.5369 15.6948 61.2203 15.6948 61.0251 15.89L57.8431 19.072C57.6478 19.2673 57.6478 19.5839 57.8431 19.7791C58.0383 19.9744 58.3549 19.9744 58.5502 19.7791L61.3786 16.9507L64.207 19.7791C64.4023 19.9744 64.7189 19.9744 64.9142 19.7791C65.1094 19.5839 65.1094 19.2673 64.9142 19.072L61.7322 15.89ZM61.8786 257L61.8786 255.495L60.8786 255.495L60.8786 257L61.8786 257ZM61.8786 252.486L61.8786 249.476L60.8786 249.476L60.8786 252.486L61.8786 252.486ZM61.8786 246.467L61.8786 243.457L60.8786 243.457L60.8786 246.467L61.8786 246.467ZM61.8786 240.448L61.8786 237.439L60.8786 237.439L60.8786 240.448L61.8786 240.448ZM61.8786 234.429L61.8786 231.42L60.8786 231.42L60.8786 234.429L61.8786 234.429ZM61.8786 228.41L61.8786 225.401L60.8786 225.401L60.8786 228.41L61.8786 228.41ZM61.8786 222.391L61.8786 219.382L60.8786 219.382L60.8786 222.391L61.8786 222.391ZM61.8786 216.372L61.8786 213.363L60.8786 213.363L60.8786 216.372L61.8786 216.372ZM61.8786 210.353L61.8786 207.344L60.8786 207.344L60.8786 210.353L61.8786 210.353ZM61.8786 204.335L61.8786 201.325L60.8786 201.325L60.8786 204.335L61.8786 204.335ZM61.8786 198.316L61.8786 195.306L60.8786 195.306L60.8786 198.316L61.8786 198.316ZM61.8786 192.297L61.8786 189.287L60.8786 189.287L60.8786 192.297L61.8786 192.297ZM61.8786 186.278L61.8786 183.268L60.8786 183.268L60.8786 186.278L61.8786 186.278ZM61.8786 180.259L61.8786 177.249L60.8786 177.249L60.8786 180.259L61.8786 180.259ZM61.8786 174.24L61.8786 171.231L60.8786 171.231L60.8786 174.24L61.8786 174.24ZM61.8786 168.221L61.8786 165.212L60.8786 165.212L60.8786 168.221L61.8786 168.221ZM61.8786 162.202L61.8786 159.193L60.8786 159.193L60.8786 162.202L61.8786 162.202ZM61.8786 156.183L61.8786 153.174L60.8786 153.174L60.8786 156.183L61.8786 156.183ZM61.8786 150.164L61.8786 147.155L60.8786 147.155L60.8786 150.164L61.8786 150.164ZM61.8786 144.145L61.8786 141.136L60.8786 141.136L60.8786 144.145L61.8786 144.145ZM61.8786 138.127L61.8786 135.117L60.8786 135.117L60.8786 138.127L61.8786 138.127ZM61.8786 132.108L61.8786 129.098L60.8786 129.098L60.8786 132.108L61.8786 132.108ZM61.8786 126.089L61.8786 123.079L60.8786 123.079L60.8786 126.089L61.8786 126.089ZM61.8786 120.07L61.8786 117.06L60.8786 117.06L60.8786 120.07L61.8786 120.07ZM61.8786 114.051L61.8786 111.041L60.8786 111.041L60.8786 114.051L61.8786 114.051ZM61.8786 108.032L61.8786 105.023L60.8786 105.023L60.8786 108.032L61.8786 108.032ZM61.8786 102.013L61.8786 99.0036L60.8786 99.0036L60.8786 102.013L61.8786 102.013ZM61.8786 95.9941L61.8786 92.9847L60.8786 92.9847L60.8786 95.9941L61.8786 95.9941ZM61.8786 89.9752L61.8786 86.9657L60.8786 86.9657L60.8786 89.9752L61.8786 89.9752ZM61.8786 83.9563L61.8786 80.9468L60.8786 80.9468L60.8786 83.9563L61.8786 83.9563ZM61.8786 77.9374L61.8786 74.9279L60.8786 74.9279L60.8786 77.9374L61.8786 77.9374ZM61.8786 71.9184L61.8786 68.909L60.8786 68.909L60.8786 71.9184L61.8786 71.9184ZM61.8786 65.8995L61.8786 62.8901L60.8786 62.8901L60.8786 65.8995L61.8786 65.8995ZM61.8786 59.8806L61.8786 56.8712L60.8786 56.8712L60.8786 59.8806L61.8786 59.8806ZM61.8786 53.8617L61.8786 50.8522L60.8786 50.8522L60.8786 53.8617L61.8786 53.8617ZM61.8786 47.8428L61.8786 44.8333L60.8786 44.8333L60.8786 47.8428L61.8786 47.8428ZM61.8786 41.8238L61.8786 38.8144L60.8786 38.8144L60.8786 41.8238L61.8786 41.8238ZM61.8786 35.8049L61.8786 32.7955L60.8786 32.7955L60.8786 35.8049L61.8786 35.8049ZM61.8786 29.786L61.8786 26.7765L60.8786 26.7765L60.8786 29.786L61.8786 29.786ZM61.8786 23.7671L61.8786 20.7576L60.8786 20.7576L60.8786 23.7671L61.8786 23.7671ZM61.8786 17.7482L61.8786 16.2436L60.8786 16.2436L60.8786 17.7482L61.8786 17.7482Z" fill="#B4B6BB"/>
<path d="M62.3823 62.5768H381.593" stroke="#1D1D22" stroke-opacity="0.1"/>
<path d="M62.3823 37.376H381.593" stroke="#1D1D22" stroke-opacity="0.1"/>
<path d="M62.3823 87.7777H381.593" stroke="#1D1D22" stroke-opacity="0.1"/>
<path d="M62.3823 112.979H381.593" stroke="#1D1D22" stroke-opacity="0.1"/>
<path d="M62.3823 167.581H381.593" stroke="#1D1D22" stroke-opacity="0.1"/>
<path d="M62.3823 192.781H381.593" stroke="#1D1D22" stroke-opacity="0.1"/>
<path d="M62.3823 217.982H381.593" stroke="#1D1D22" stroke-opacity="0.1"/>
<path d="M62.3823 243.183H381.593" stroke="#1D1D22" stroke-opacity="0.1"/>
<path d="M381.947 142.733C382.142 142.538 382.142 142.222 381.947 142.026L378.765 138.844C378.57 138.649 378.253 138.649 378.058 138.844C377.863 139.04 377.863 139.356 378.058 139.551L380.886 142.38L378.058 145.208C377.863 145.403 377.863 145.72 378.058 145.915C378.253 146.111 378.57 146.111 378.765 145.915L381.947 142.733ZM62.3823 142.88H381.593V141.88H62.3823V142.88Z" fill="#1D1D22"/>
<path d="M185.859 166.092L186.124 166.516L186.131 166.512L186.138 166.507L185.859 166.092ZM142.182 193.306L142.182 193.806L142.325 193.806L142.447 193.73L142.182 193.306ZM340.675 62.3966L340.398 61.9806L340.397 61.9812L340.675 62.3966ZM378.278 37.7529C378.332 37.4821 378.157 37.2187 377.886 37.1645L373.473 36.282C373.202 36.2279 372.939 36.4035 372.885 36.6742C372.831 36.945 373.006 37.2084 373.277 37.2626L377.199 38.0471L376.415 41.9694C376.361 42.2402 376.536 42.5036 376.807 42.5577C377.078 42.6119 377.341 42.4363 377.396 42.1655L378.278 37.7529ZM61.8545 193.806L64.8668 193.806L64.8668 192.806L61.8545 192.806L61.8545 193.806ZM68.8831 193.806L74.9077 193.806L74.9077 192.806L68.8831 192.806L68.8831 193.806ZM78.9241 193.806L84.9487 193.806L84.9487 192.806L78.9241 192.806L78.9241 193.806ZM88.9651 193.806L94.9897 193.806L94.9897 192.806L88.9651 192.806L88.9651 193.806ZM99.0061 193.806L105.031 193.806L105.031 192.806L99.0061 192.806L99.0061 193.806ZM109.047 193.806L115.072 193.806L115.072 192.806L109.047 192.806L109.047 193.806ZM119.088 193.806L125.113 193.806L125.113 192.806L119.088 192.806L119.088 193.806ZM129.129 193.806L135.154 193.806L135.154 192.806L129.129 192.806L129.129 193.806ZM139.17 193.806L142.182 193.806L142.182 192.806L139.17 192.806L139.17 193.806ZM142.447 193.73L145.067 192.097L144.538 191.248L141.918 192.881L142.447 193.73ZM148.561 189.92L153.803 186.654L153.274 185.806L148.033 189.071L148.561 189.92ZM157.297 184.477L162.538 181.212L162.009 180.363L156.768 183.629L157.297 184.477ZM166.032 179.035L171.273 175.769L170.745 174.92L165.503 178.186L166.032 179.035ZM174.768 173.592L180.009 170.326L179.48 169.477L174.239 172.743L174.768 173.592ZM183.503 168.149L186.124 166.516L185.595 165.668L182.974 167.3L183.503 168.149ZM186.138 166.507L188.582 164.87L188.025 164.039L185.581 165.676L186.138 166.507ZM191.841 162.687L196.73 159.412L196.174 158.582L191.285 161.856L191.841 162.687ZM199.989 157.229L204.878 153.955L204.322 153.124L199.433 156.398L199.989 157.229ZM208.138 151.772L213.027 148.497L212.47 147.666L207.581 150.941L208.138 151.772ZM216.286 146.314L221.175 143.039L220.618 142.209L215.729 145.483L216.286 146.314ZM224.434 140.856L229.323 137.582L228.766 136.751L223.878 140.026L224.434 140.856ZM232.582 135.399L237.471 132.124L236.915 131.293L232.026 134.568L232.582 135.399ZM240.73 129.941L245.619 126.666L245.063 125.836L240.174 129.11L240.73 129.941ZM248.879 124.483L253.768 121.209L253.211 120.378L248.322 123.653L248.879 124.483ZM257.027 119.026L261.916 115.751L261.359 114.92L256.47 118.195L257.027 119.026ZM265.175 113.568L270.064 110.294L269.507 109.463L264.619 112.737L265.175 113.568ZM273.323 108.11L278.212 104.836L277.656 104.005L272.767 107.28L273.323 108.11ZM281.471 102.653L286.36 99.3783L285.804 98.5474L280.915 101.822L281.471 102.653ZM289.62 97.1952L294.509 93.9206L293.952 93.0898L289.063 96.3644L289.62 97.1952ZM297.768 91.7376L302.657 88.463L302.1 87.6321L297.211 90.9067L297.768 91.7376ZM305.916 86.2799L310.805 83.0053L310.249 82.1745L305.36 85.4491L305.916 86.2799ZM314.064 80.8223L318.953 77.5477L318.397 76.7168L313.508 79.9914L314.064 80.8223ZM322.212 75.3646L327.101 72.09L326.545 71.2592L321.656 74.5338L322.212 75.3646ZM330.361 69.907L335.25 66.6324L334.693 65.8015L329.804 69.0761L330.361 69.907ZM338.509 64.4493L340.953 62.812L340.397 61.9812L337.952 63.6185L338.509 64.4493ZM340.952 62.8126L343.736 60.957L343.181 60.1249L340.398 61.9806L340.952 62.8126ZM347.447 58.4828L353.014 54.7716L352.459 53.9395L346.892 57.6508L347.447 58.4828ZM356.725 52.2974L362.292 48.5861L361.738 47.7541L356.171 51.4653L356.725 52.2974ZM366.004 46.1119L371.57 42.4007L371.016 41.5686L365.449 45.2799L366.004 46.1119ZM375.282 39.9265L378.065 38.0709L377.51 37.2388L374.727 39.0944L375.282 39.9265ZM185.859 166.092L186.388 166.941L186.402 166.932L186.416 166.923L185.859 166.092ZM142.182 193.306L142.182 194.306L142.468 194.306L142.711 194.154L142.182 193.306ZM340.675 62.3966L340.12 61.5646L340.119 61.5658L340.675 62.3966ZM378.768 37.8509C378.877 37.3094 378.525 36.7826 377.984 36.6742L369.159 34.9092C368.617 34.8009 368.09 35.1521 367.982 35.6937C367.874 36.2352 368.225 36.7621 368.766 36.8704L376.611 38.4393L375.042 46.2839C374.934 46.8255 375.285 47.3523 375.827 47.4606C376.368 47.5689 376.895 47.2177 377.003 46.6762L378.768 37.8509ZM61.8545 194.306L64.8668 194.306L64.8668 192.306L61.8545 192.306L61.8545 194.306ZM68.8831 194.306L74.9077 194.306L74.9077 192.306L68.8831 192.306L68.8831 194.306ZM78.9241 194.306L84.9487 194.306L84.9487 192.306L78.9241 192.306L78.9241 194.306ZM88.9651 194.306L94.9897 194.306L94.9897 192.306L88.9651 192.306L88.9651 194.306ZM99.0061 194.306L105.031 194.306L105.031 192.306L99.0061 192.306L99.0061 194.306ZM109.047 194.306L115.072 194.306L115.072 192.306L109.047 192.306L109.047 194.306ZM119.088 194.306L125.113 194.306L125.113 192.306L119.088 192.306L119.088 194.306ZM129.129 194.306L135.154 194.306L135.154 192.306L129.129 192.306L129.129 194.306ZM139.17 194.306L142.182 194.306L142.182 192.306L139.17 192.306L139.17 194.306ZM142.711 194.154L145.332 192.522L144.274 190.824L141.653 192.457L142.711 194.154ZM148.826 190.344L154.067 187.079L153.009 185.381L147.768 188.647L148.826 190.344ZM157.561 184.902L162.802 181.636L161.745 179.939L156.504 183.204L157.561 184.902ZM166.297 179.459L171.538 176.193L170.48 174.496L165.239 177.761L166.297 179.459ZM175.032 174.016L180.273 170.751L179.216 169.053L173.974 172.319L175.032 174.016ZM183.767 168.573L186.388 166.941L185.33 165.243L182.71 166.876L183.767 168.573ZM186.416 166.923L188.86 165.285L187.747 163.624L185.303 165.261L186.416 166.923ZM192.119 163.102L197.008 159.828L195.895 158.166L191.006 161.441L192.119 163.102ZM200.268 157.645L205.157 154.37L204.044 152.708L199.155 155.983L200.268 157.645ZM208.416 152.187L213.305 148.912L212.192 147.251L207.303 150.525L208.416 152.187ZM216.564 146.729L221.453 143.455L220.34 141.793L215.451 145.068L216.564 146.729ZM224.712 141.272L229.601 137.997L228.488 136.336L223.599 139.61L224.712 141.272ZM232.861 135.814L237.749 132.54L236.636 130.878L231.748 134.152L232.861 135.814ZM241.009 130.356L245.898 127.082L244.785 125.42L239.896 128.695L241.009 130.356ZM249.157 124.899L254.046 121.624L252.933 119.963L248.044 123.237L249.157 124.899ZM257.305 119.441L262.194 116.167L261.081 114.505L256.192 117.78L257.305 119.441ZM265.453 113.984L270.342 110.709L269.229 109.047L264.34 112.322L265.453 113.984ZM273.602 108.526L278.49 105.251L277.377 103.59L272.489 106.864L273.602 108.526ZM281.75 103.068L286.639 99.7937L285.526 98.132L280.637 101.407L281.75 103.068ZM289.898 97.6106L294.787 94.336L293.674 92.6744L288.785 95.9489L289.898 97.6106ZM298.046 92.153L302.935 88.8784L301.822 87.2167L296.933 90.4913L298.046 92.153ZM306.194 86.6953L311.083 83.4207L309.97 81.7591L305.081 85.0336L306.194 86.6953ZM314.343 81.2377L319.231 77.9631L318.118 76.3014L313.23 79.576L314.343 81.2377ZM322.491 75.78L327.38 72.5055L326.267 70.8438L321.378 74.1183L322.491 75.78ZM330.639 70.3224L335.528 67.0478L334.415 65.3861L329.526 68.6607L330.639 70.3224ZM338.787 64.8647L341.232 63.2275L340.119 61.5658L337.674 63.2031L338.787 64.8647ZM341.23 63.2287L344.013 61.373L342.904 59.7089L340.12 61.5646L341.23 63.2287ZM347.725 58.8988L353.291 55.1876L352.182 53.5235L346.615 57.2347L347.725 58.8988ZM357.003 52.7134L362.57 49.0021L361.46 47.338L355.893 51.0493L357.003 52.7134ZM366.281 46.528L371.848 42.8167L370.738 41.1526L365.171 44.8639L366.281 46.528ZM375.559 40.3425L378.342 38.4869L377.233 36.8228L374.45 38.6784L375.559 40.3425Z" fill="black"/>
<g filter="url(#filter0_d_21_82)">
<circle cx="221.543" cy="142.38" r="6.30022" transform="rotate(-17.9221 221.543 142.38)" fill="#01031C"/>
<circle cx="221.543" cy="142.38" r="5.30022" transform="rotate(-17.9221 221.543 142.38)" stroke="white" stroke-width="2"/>
</g>
<path d="M221.724 142.807L340.675 62.8723L374.933 40.5096V142.807H221.724Z" fill="url(#paint0_linear_21_82)" fill-opacity="0.4"/>
<rect y="53.3563" width="54.2416" height="23" rx="11.5" fill="#45AE4A"/>
<path d="M11.4432 69.8563L11.4432 61.2163L15.0132 61.2163C15.0972 61.2163 15.2052 61.2203 15.3372 61.2283C15.4692 61.2323 15.5912 61.2443 15.7032 61.2643C16.2032 61.3403 16.6152 61.5063 16.9392 61.7623C17.2672 62.0183 17.5092 62.3423 17.6652 62.7343C17.8252 63.1223 17.9052 63.5543 17.9052 64.0303C17.9052 64.5023 17.8252 64.9343 17.6652 65.3263C17.5052 65.7143 17.2612 66.0363 16.9332 66.2923C16.6092 66.5483 16.1992 66.7143 15.7032 66.7903C15.5912 66.8063 15.4672 66.8183 15.3312 66.8263C15.1992 66.8343 15.0932 66.8383 15.0132 66.8383L12.8892 66.8383L12.8892 69.8563L11.4432 69.8563ZM12.8892 65.4883L14.9532 65.4883C15.0332 65.4883 15.1232 65.4843 15.2232 65.4763C15.3232 65.4683 15.4152 65.4523 15.4992 65.4283C15.7392 65.3683 15.9272 65.2623 16.0632 65.1103C16.2032 64.9583 16.3012 64.7863 16.3572 64.5943C16.4172 64.4023 16.4472 64.2143 16.4472 64.0303C16.4472 63.8463 16.4172 63.6583 16.3572 63.4663C16.3012 63.2703 16.2032 63.0963 16.0632 62.9443C15.9272 62.7923 15.7392 62.6863 15.4992 62.6263C15.4152 62.6023 15.3232 62.5883 15.2232 62.5843C15.1232 62.5763 15.0332 62.5723 14.9532 62.5723L12.8892 62.5723L12.8892 65.4883ZM19.1073 69.8563L19.1073 63.3763L20.3853 63.3763L20.3853 64.9543L20.2293 64.7503C20.3093 64.5343 20.4153 64.3383 20.5473 64.1623C20.6833 63.9823 20.8453 63.8343 21.0333 63.7183C21.1933 63.6103 21.3693 63.5263 21.5613 63.4663C21.7573 63.4023 21.9573 63.3643 22.1613 63.3523C22.3653 63.3363 22.5633 63.3443 22.7553 63.3763L22.7553 64.7263C22.5633 64.6703 22.3413 64.6523 22.0893 64.6723C21.8413 64.6923 21.6173 64.7623 21.4173 64.8823C21.2173 64.9903 21.0533 65.1283 20.9253 65.2963C20.8013 65.4643 20.7093 65.6563 20.6493 65.8723C20.5893 66.0843 20.5593 66.3143 20.5593 66.5623L20.5593 69.8563L19.1073 69.8563ZM26.6451 70.0363C25.9971 70.0363 25.4311 69.8903 24.9471 69.5983C24.4631 69.3063 24.0871 68.9043 23.8191 68.3923C23.5551 67.8763 23.4231 67.2843 23.4231 66.6163C23.4231 65.9363 23.5591 65.3403 23.8311 64.8283C24.1031 64.3163 24.4811 63.9163 24.9651 63.6283C25.4491 63.3403 26.0091 63.1963 26.6451 63.1963C27.2971 63.1963 27.8651 63.3423 28.3491 63.6343C28.8331 63.9263 29.2091 64.3303 29.4771 64.8463C29.7451 65.3583 29.8791 65.9483 29.8791 66.6163C29.8791 67.2883 29.7431 67.8823 29.4711 68.3983C29.2031 68.9103 28.8271 69.3123 28.3431 69.6043C27.8591 69.8923 27.2931 70.0363 26.6451 70.0363ZM26.6451 68.6803C27.2211 68.6803 27.6491 68.4883 27.9291 68.1043C28.2091 67.7203 28.3491 67.2243 28.3491 66.6163C28.3491 65.9883 28.2071 65.4883 27.9231 65.1163C27.6391 64.7403 27.2131 64.5523 26.6451 64.5523C26.2571 64.5523 25.9371 64.6403 25.6851 64.8163C25.4371 64.9883 25.2531 65.2303 25.1331 65.5423C25.0131 65.8503 24.9531 66.2083 24.9531 66.6163C24.9531 67.2443 25.0951 67.7463 25.3791 68.1223C25.6671 68.4943 26.0891 68.6803 26.6451 68.6803ZM31.765 69.8563L31.765 63.2743C31.765 63.1103 31.771 62.9303 31.783 62.7343C31.795 62.5343 31.829 62.3363 31.885 62.1403C31.941 61.9443 32.043 61.7663 32.191 61.6063C32.375 61.4023 32.573 61.2623 32.785 61.1863C33.001 61.1063 33.213 61.0623 33.421 61.0543C33.629 61.0423 33.811 61.0363 33.967 61.0363L34.777 61.0363L34.777 62.2123L34.027 62.2123C33.751 62.2123 33.545 62.2823 33.409 62.4223C33.277 62.5583 33.211 62.7383 33.211 62.9623L33.211 69.8563L31.765 69.8563ZM30.721 64.5103L30.721 63.3763L34.777 63.3763L34.777 64.5103L30.721 64.5103ZM36.037 62.3923L36.037 61.0663L37.483 61.0663L37.483 62.3923L36.037 62.3923ZM36.037 69.8563L36.037 63.3763L37.483 63.3763L37.483 69.8563L36.037 69.8563ZM43.085 69.8563C42.657 69.9363 42.237 69.9703 41.825 69.9583C41.417 69.9503 41.051 69.8763 40.727 69.7363C40.403 69.5923 40.157 69.3663 39.989 69.0583C39.841 68.7783 39.763 68.4923 39.755 68.2003C39.747 67.9083 39.743 67.5783 39.743 67.2103L39.743 61.5763L41.183 61.5763L41.183 67.1263C41.183 67.3863 41.185 67.6143 41.189 67.8103C41.197 68.0063 41.239 68.1663 41.315 68.2903C41.459 68.5303 41.689 68.6643 42.005 68.6923C42.321 68.7203 42.681 68.7043 43.085 68.6443L43.085 69.8563ZM38.567 64.5103L38.567 63.3763L43.085 63.3763L43.085 64.5103L38.567 64.5103Z" fill="white"/>
<rect y="204.5" width="54.2416" height="23" rx="11.5" fill="#F04853"/>
<path d="M15.407 219.5L15.407 210.86L16.853 210.86L16.853 218.144L20.669 218.144L20.669 219.5L15.407 219.5ZM24.5474 219.68C23.8994 219.68 23.3334 219.534 22.8494 219.242C22.3654 218.95 21.9894 218.548 21.7214 218.036C21.4574 217.52 21.3254 216.928 21.3254 216.26C21.3254 215.58 21.4614 214.984 21.7334 214.472C22.0054 213.96 22.3834 213.56 22.8674 213.272C23.3514 212.984 23.9114 212.84 24.5474 212.84C25.1994 212.84 25.7674 212.986 26.2514 213.278C26.7354 213.57 27.1114 213.974 27.3794 214.49C27.6474 215.002 27.7814 215.592 27.7814 216.26C27.7814 216.932 27.6454 217.526 27.3734 218.042C27.1054 218.554 26.7294 218.956 26.2454 219.248C25.7614 219.536 25.1954 219.68 24.5474 219.68ZM24.5474 218.324C25.1234 218.324 25.5514 218.132 25.8314 217.748C26.1114 217.364 26.2514 216.868 26.2514 216.26C26.2514 215.632 26.1094 215.132 25.8254 214.76C25.5414 214.384 25.1154 214.196 24.5474 214.196C24.1594 214.196 23.8394 214.284 23.5874 214.46C23.3394 214.632 23.1554 214.874 23.0354 215.186C22.9154 215.494 22.8554 215.852 22.8554 216.26C22.8554 216.888 22.9974 217.39 23.2814 217.766C23.5694 218.138 23.9914 218.324 24.5474 218.324ZM31.453 219.68C30.653 219.68 30.003 219.5 29.503 219.14C29.003 218.78 28.699 218.274 28.591 217.622L30.067 217.394C30.143 217.714 30.311 217.966 30.571 218.15C30.831 218.334 31.159 218.426 31.555 218.426C31.903 218.426 32.171 218.358 32.359 218.222C32.551 218.082 32.647 217.892 32.647 217.652C32.647 217.504 32.611 217.386 32.539 217.298C32.471 217.206 32.319 217.118 32.083 217.034C31.847 216.95 31.485 216.844 30.997 216.716C30.453 216.572 30.021 216.418 29.701 216.254C29.381 216.086 29.151 215.888 29.011 215.66C28.871 215.432 28.801 215.156 28.801 214.832C28.801 214.428 28.907 214.076 29.119 213.776C29.331 213.476 29.627 213.246 30.007 213.086C30.387 212.922 30.835 212.84 31.351 212.84C31.855 212.84 32.301 212.918 32.689 213.074C33.081 213.23 33.397 213.452 33.637 213.74C33.877 214.028 34.025 214.366 34.081 214.754L32.605 215.018C32.569 214.742 32.443 214.524 32.227 214.364C32.015 214.204 31.731 214.114 31.375 214.094C31.035 214.074 30.761 214.126 30.553 214.25C30.345 214.37 30.241 214.54 30.241 214.76C30.241 214.884 30.283 214.99 30.367 215.078C30.451 215.166 30.619 215.254 30.871 215.342C31.127 215.43 31.507 215.538 32.011 215.666C32.527 215.798 32.939 215.95 33.247 216.122C33.559 216.29 33.783 216.492 33.919 216.728C34.059 216.964 34.129 217.25 34.129 217.586C34.129 218.238 33.891 218.75 33.415 219.122C32.943 219.494 32.289 219.68 31.453 219.68ZM39.2412 219.5C38.8132 219.58 38.3932 219.614 37.9812 219.602C37.5732 219.594 37.2072 219.52 36.8832 219.38C36.5592 219.236 36.3132 219.01 36.1452 218.702C35.9972 218.422 35.9192 218.136 35.9112 217.844C35.9032 217.552 35.8992 217.222 35.8992 216.854L35.8992 211.22L37.3392 211.22L37.3392 216.77C37.3392 217.03 37.3412 217.258 37.3452 217.454C37.3532 217.65 37.3952 217.81 37.4712 217.934C37.6152 218.174 37.8452 218.308 38.1612 218.336C38.4772 218.364 38.8372 218.348 39.2412 218.288L39.2412 219.5ZM34.7232 214.154L34.7232 213.02L39.2412 213.02L39.2412 214.154L34.7232 214.154Z" fill="white"/>
<defs>
<filter id="filter0_d_21_82" x="211.241" y="134.078" width="20.6038" height="20.6038" filterUnits="userSpaceOnUse" color-interpolation-filters="sRGB">
<feFlood flood-opacity="0" result="BackgroundImageFix"/>
<feColorMatrix in="SourceAlpha" type="matrix" values="0 0 0 0 0 0 0 0 0 0 0 0 0 0 0 0 0 0 127 0" result="hardAlpha"/>
<feOffset dy="2"/>
<feGaussianBlur stdDeviation="2"/>
<feComposite in2="hardAlpha" operator="out"/>
<feColorMatrix type="matrix" values="0 0 0 0 0 0 0 0 0 0 0 0 0 0 0 0 0 0 0.25 0"/>
<feBlend mode="normal" in2="BackgroundImageFix" result="effect1_dropShadow_21_82"/>
<feBlend mode="normal" in="SourceGraphic" in2="effect1_dropShadow_21_82" result="shape"/>
</filter>
<linearGradient id="paint0_linear_21_82" x1="325.225" y1="90.695" x2="325.225" y2="142.807" gradientUnits="userSpaceOnUse">
<stop stop-color="#45AE4A"/>
<stop offset="1" stop-color="#45AE4A" stop-opacity="0.3"/>
</linearGradient>
</defs>
</svg>