<svg width="500" height="199" viewBox="0 0 500 199" fill="none" xmlns="http://www.w3.org/2000/svg">
<path d="M0 26H500" stroke="#1D1D22" stroke-opacity="0.1"/>
<path d="M0 2H500" stroke="#1D1D22" stroke-opacity="0.1"/>
<path d="M0 50H500" stroke="#1D1D22" stroke-opacity="0.1"/>
<path d="M0 74H500" stroke="#1D1D22" stroke-opacity="0.1"/>
<path d="M0 126H500" stroke="#1D1D22" stroke-opacity="0.1"/>
<path d="M0 150H500" stroke="#1D1D22" stroke-opacity="0.1"/>
<path d="M0 174H500" stroke="#1D1D22" stroke-opacity="0.1"/>
<path d="M0 198H500" stroke="#1D1D22" stroke-opacity="0.1"/>
<path d="M0 102H500" stroke="#1D1D22"/>
<path d="M9.66 97.18C9.128 97.18 8.648 97.056 8.22 96.808C7.796 96.56 7.46 96.224 7.212 95.8C6.964 95.372 6.84 94.892 6.84 94.36V91C6.84 90.468 6.964 89.99 7.212 89.566C7.46 89.138 7.796 88.8 8.22 88.552C8.648 88.304 9.128 88.18 9.66 88.18C10.192 88.18 10.67 88.304 11.094 88.552C11.522 88.8 11.86 89.138 12.108 89.566C12.356 89.99 12.48 90.468 12.48 91V94.36C12.48 94.892 12.356 95.372 12.108 95.8C11.86 96.224 11.522 96.56 11.094 96.808C10.67 97.056 10.192 97.18 9.66 97.18ZM9.66 96.328C10.016 96.328 10.34 96.242 10.632 96.07C10.924 95.894 11.156 95.66 11.328 95.368C11.5 95.076 11.586 94.754 11.586 94.402V90.958C11.586 90.602 11.5 90.278 11.328 89.986C11.156 89.694 10.924 89.462 10.632 89.29C10.34 89.114 10.016 89.026 9.66 89.026C9.304 89.026 8.98 89.114 8.688 89.29C8.396 89.462 8.164 89.694 7.992 89.986C7.82 90.278 7.734 90.602 7.734 90.958V94.402C7.734 94.754 7.82 95.076 7.992 95.368C8.164 95.66 8.396 95.894 8.688 96.07C8.98 96.242 9.304 96.328 9.66 96.328Z" fill="#01031C"/>
<path d="M487.352 95.794C486.92 95.794 486.56 95.688 486.272 95.476C485.984 95.264 485.768 94.986 485.624 94.642C485.484 94.294 485.416 93.922 485.42 93.526C485.424 93.122 485.502 92.75 485.654 92.41C485.81 92.07 486.032 91.798 486.32 91.594C486.612 91.386 486.966 91.282 487.382 91.282C487.858 91.282 488.25 91.43 488.558 91.726C488.87 92.022 489.122 92.47 489.314 93.07H488.99C489.122 92.674 489.28 92.344 489.464 92.08C489.648 91.812 489.86 91.612 490.1 91.48C490.344 91.348 490.622 91.282 490.934 91.282C491.334 91.282 491.678 91.378 491.966 91.57C492.258 91.762 492.482 92.026 492.638 92.362C492.798 92.698 492.878 93.082 492.878 93.514C492.878 93.934 492.802 94.316 492.65 94.66C492.498 95.004 492.276 95.28 491.984 95.488C491.696 95.692 491.346 95.794 490.934 95.794C490.618 95.794 490.338 95.73 490.094 95.602C489.854 95.47 489.642 95.272 489.458 95.008C489.278 94.744 489.122 94.408 488.99 94H489.314C489.178 94.408 489.016 94.744 488.828 95.008C488.644 95.272 488.43 95.47 488.186 95.602C487.942 95.73 487.664 95.794 487.352 95.794ZM487.4 94.942C487.696 94.942 487.966 94.838 488.21 94.63C488.454 94.418 488.682 94.054 488.894 93.538C488.682 93.018 488.454 92.654 488.21 92.446C487.966 92.234 487.696 92.128 487.4 92.128C487.128 92.128 486.906 92.196 486.734 92.332C486.562 92.464 486.436 92.638 486.356 92.854C486.276 93.066 486.236 93.294 486.236 93.538C486.236 93.778 486.276 94.006 486.356 94.222C486.436 94.438 486.562 94.612 486.734 94.744C486.906 94.876 487.128 94.942 487.4 94.942ZM490.904 94.942C491.176 94.942 491.398 94.876 491.57 94.744C491.742 94.612 491.868 94.438 491.948 94.222C492.028 94.006 492.068 93.778 492.068 93.538C492.068 93.294 492.028 93.066 491.948 92.854C491.868 92.638 491.742 92.464 491.57 92.332C491.398 92.196 491.176 92.128 490.904 92.128C490.608 92.128 490.338 92.234 490.094 92.446C489.85 92.654 489.622 93.018 489.41 93.538C489.622 94.054 489.85 94.418 490.094 94.63C490.338 94.838 490.608 94.942 490.904 94.942Z" fill="#01031C"/>
<path d="M289.722 91.2162C289.857 90.9754 289.772 90.6706 289.531 90.5354L285.607 88.3319C285.367 88.1966 285.062 88.2822 284.927 88.523C284.791 88.7638 284.877 89.0686 285.118 89.2038L288.605 91.1624L286.647 94.6501C286.512 94.8909 286.597 95.1957 286.838 95.3309C287.079 95.4661 287.383 95.3805 287.519 95.1398L289.722 91.2162ZM210.85 113.51L213.796 112.683L213.526 111.72L210.58 112.547L210.85 113.51ZM217.725 111.58L223.618 109.926L223.348 108.963L217.455 110.617L217.725 111.58ZM227.546 108.823L233.439 107.169L233.169 106.206L227.276 107.86L227.546 108.823ZM237.368 106.066L243.261 104.412L242.99 103.449L237.098 105.103L237.368 106.066ZM247.189 103.309L253.082 101.654L252.812 100.692L246.919 102.346L247.189 103.309ZM257.011 100.551L262.904 98.8971L262.633 97.9344L256.74 99.5887L257.011 100.551ZM266.832 97.7943L272.725 96.1399L272.455 95.1772L266.562 96.8315L266.832 97.7943ZM276.654 95.0371L282.546 93.3828L282.276 92.42L276.383 94.0743L276.654 95.0371ZM286.475 92.2799L289.421 91.4527L289.151 90.4899L286.205 91.3171L286.475 92.2799ZM290.158 91.461C290.429 90.9795 290.257 90.3699 289.776 90.0994L281.929 85.6924C281.447 85.422 280.838 85.5931 280.567 86.0746C280.297 86.5562 280.468 87.1658 280.949 87.4362L287.925 91.3536L284.007 98.3288C283.737 98.8104 283.908 99.42 284.39 99.6904C284.871 99.9608 285.481 99.7897 285.751 99.3082L290.158 91.461ZM210.985 113.992L213.932 113.164L213.391 111.239L210.445 112.066L210.985 113.992ZM217.86 112.062L223.753 110.407L223.212 108.482L217.32 110.136L217.86 112.062ZM227.682 109.304L233.574 107.65L233.034 105.725L227.141 107.379L227.682 109.304ZM237.503 106.547L243.396 104.893L242.855 102.967L236.962 104.622L237.503 106.547ZM247.324 103.79L253.217 102.136L252.677 100.21L246.784 101.864L247.324 103.79ZM257.146 101.033L263.039 99.3785L262.498 97.453L256.605 99.1073L257.146 101.033ZM266.967 98.2757L272.86 96.6213L272.32 94.6958L266.427 96.3501L266.967 98.2757ZM276.789 95.5185L282.682 93.8641L282.141 91.9386L276.248 93.5929L276.789 95.5185ZM286.61 92.7613L289.557 91.9341L289.016 90.0085L286.07 90.8357L286.61 92.7613Z" fill="black"/>
<path d="M250 102L0 199L8.48006e-06 102L250 102Z" fill="url(#paint0_linear_18_133)" fill-opacity="0.4"/>
<g filter="url(#filter0_d_18_133)">
<circle cx="250" cy="102" r="6" fill="#01031C"/>
<circle cx="250" cy="102" r="5" stroke="white" stroke-width="2"/>
</g>
<path d="M250 102L500 0.5V102H250Z" fill="url(#paint1_linear_18_133)" fill-opacity="0.4"/>
<defs>
<filter id="filter0_d_18_133" x="240" y="94" width="20" height="20" filterUnits="userSpaceOnUse" color-interpolation-filters="sRGB">
<feFlood flood-opacity="0" result="BackgroundImageFix"/>
<feColorMatrix in="SourceAlpha" type="matrix" values="0 0 0 0 0 0 0 0 0 0 0 0 0 0 0 0 0 0 127 0" result="hardAlpha"/>
<feOffset dy="2"/>
<feGaussianBlur stdDeviation="2"/>
<feComposite in2="hardAlpha" operator="out"/>
<feColorMatrix type="matrix" values="0 0 0 0 0 0 0 0 0 0 0 0 0 0 0 0 0 0 0.25 0"/>
<feBlend mode="normal" in2="BackgroundImageFix" result="effect1_dropShadow_18_133"/>
<feBlend mode="normal" in="SourceGraphic" in2="effect1_dropShadow_18_133" result="shape"/>
</filter>
<linearGradient id="paint0_linear_18_133" x1="125" y1="170" x2="125" y2="102" gradientUnits="userSpaceOnUse">
<stop stop-color="#F04853"/>
<stop offset="1" stop-color="#F04853" stop-opacity="0.345937"/>
</linearGradient>
<linearGradient id="paint1_linear_18_133" x1="375" y1="52" x2="375" y2="102" gradientUnits="userSpaceOnUse">
<stop stop-color="#45AE4A"/>
<stop offset="1" stop-color="#45AE4A" stop-opacity="0.3"/>
</linearGradient>
</defs>
</svg>
