<svg width="16" height="16" viewBox="0 0 16 16" fill="none" xmlns="http://www.w3.org/2000/svg">
<path d="M6.33018 6.00016C6.48692 5.55461 6.79628 5.1789 7.20349 4.93958C7.61069 4.70027 8.08945 4.61279 8.55497 4.69264C9.02049 4.77249 9.44273 5.01451 9.7469 5.37585C10.0511 5.73718 10.2176 6.19451 10.2168 6.66683C10.2168 8.00016 8.21685 8.66683 8.21685 8.66683M8.27018 11.3335H8.27685M14.9368 8.00016C14.9368 11.6821 11.9521 14.6668 8.27018 14.6668C4.58828 14.6668 1.60352 11.6821 1.60352 8.00016C1.60352 4.31826 4.58828 1.3335 8.27018 1.3335C11.9521 1.3335 14.9368 4.31826 14.9368 8.00016Z" stroke="#586D8E" stroke-width="1.33333" stroke-linecap="round" stroke-linejoin="round"/>
</svg>
