<svg width="500" height="199" viewBox="0 0 500 199" fill="none" xmlns="http://www.w3.org/2000/svg">
<path d="M500 25.5H-9.62577e-06" stroke="#1D1D22" stroke-opacity="0.1"/>
<path d="M500 1.5H-9.62577e-06" stroke="#1D1D22" stroke-opacity="0.1"/>
<path d="M500 49.5H-9.62577e-06" stroke="#1D1D22" stroke-opacity="0.1"/>
<path d="M500 73.5H-9.62577e-06" stroke="#1D1D22" stroke-opacity="0.1"/>
<path d="M500 125.5H-9.62577e-06" stroke="#1D1D22" stroke-opacity="0.1"/>
<path d="M500 149.5H-9.62577e-06" stroke="#1D1D22" stroke-opacity="0.1"/>
<path d="M500 173.5H-9.62577e-06" stroke="#1D1D22" stroke-opacity="0.1"/>
<path d="M500 197.5H-9.62577e-06" stroke="#1D1D22" stroke-opacity="0.1"/>
<path d="M500 101.5H-9.62577e-06" stroke="#1D1D22"/>
<path d="M490.34 96.68C490.872 96.68 491.352 96.556 491.78 96.308C492.204 96.06 492.54 95.724 492.788 95.3C493.036 94.872 493.16 94.392 493.16 93.86V90.5C493.16 89.968 493.036 89.49 492.788 89.066C492.54 88.638 492.204 88.3 491.78 88.052C491.352 87.804 490.872 87.68 490.34 87.68C489.808 87.68 489.33 87.804 488.906 88.052C488.478 88.3 488.14 88.638 487.892 89.066C487.644 89.49 487.52 89.968 487.52 90.5V93.86C487.52 94.392 487.644 94.872 487.892 95.3C488.14 95.724 488.478 96.06 488.906 96.308C489.33 96.556 489.808 96.68 490.34 96.68ZM490.34 95.828C489.984 95.828 489.66 95.742 489.368 95.57C489.076 95.394 488.844 95.16 488.672 94.868C488.5 94.576 488.414 94.254 488.414 93.902V90.458C488.414 90.102 488.5 89.778 488.672 89.486C488.844 89.194 489.076 88.962 489.368 88.79C489.66 88.614 489.984 88.526 490.34 88.526C490.696 88.526 491.02 88.614 491.312 88.79C491.604 88.962 491.836 89.194 492.008 89.486C492.18 89.778 492.266 90.102 492.266 90.458V93.902C492.266 94.254 492.18 94.576 492.008 94.868C491.836 95.16 491.604 95.394 491.312 95.57C491.02 95.742 490.696 95.828 490.34 95.828Z" fill="#01031C"/>
<path d="M12.648 95.294C13.08 95.294 13.44 95.188 13.728 94.976C14.016 94.764 14.232 94.486 14.376 94.142C14.516 93.794 14.584 93.422 14.58 93.026C14.576 92.622 14.498 92.25 14.346 91.91C14.19 91.57 13.968 91.298 13.68 91.094C13.388 90.886 13.034 90.782 12.618 90.782C12.142 90.782 11.75 90.93 11.442 91.226C11.13 91.522 10.878 91.97 10.686 92.57H11.01C10.878 92.174 10.72 91.844 10.536 91.58C10.352 91.312 10.14 91.112 9.9 90.98C9.656 90.848 9.378 90.782 9.066 90.782C8.666 90.782 8.322 90.878 8.034 91.07C7.742 91.262 7.518 91.526 7.362 91.862C7.202 92.198 7.122 92.582 7.122 93.014C7.122 93.434 7.198 93.816 7.35 94.16C7.502 94.504 7.724 94.78 8.016 94.988C8.304 95.192 8.654 95.294 9.066 95.294C9.382 95.294 9.662 95.23 9.906 95.102C10.146 94.97 10.358 94.772 10.542 94.508C10.722 94.244 10.878 93.908 11.01 93.5H10.686C10.822 93.908 10.984 94.244 11.172 94.508C11.356 94.772 11.57 94.97 11.814 95.102C12.058 95.23 12.336 95.294 12.648 95.294ZM12.6 94.442C12.304 94.442 12.034 94.338 11.79 94.13C11.546 93.918 11.318 93.554 11.106 93.038C11.318 92.518 11.546 92.154 11.79 91.946C12.034 91.734 12.304 91.628 12.6 91.628C12.872 91.628 13.094 91.696 13.266 91.832C13.438 91.964 13.564 92.138 13.644 92.354C13.724 92.566 13.764 92.794 13.764 93.038C13.764 93.278 13.724 93.506 13.644 93.722C13.564 93.938 13.438 94.112 13.266 94.244C13.094 94.376 12.872 94.442 12.6 94.442ZM9.096 94.442C8.824 94.442 8.602 94.376 8.43 94.244C8.258 94.112 8.132 93.938 8.052 93.722C7.972 93.506 7.932 93.278 7.932 93.038C7.932 92.794 7.972 92.566 8.052 92.354C8.132 92.138 8.258 91.964 8.43 91.832C8.602 91.696 8.824 91.628 9.096 91.628C9.392 91.628 9.662 91.734 9.906 91.946C10.15 92.154 10.378 92.518 10.59 93.038C10.378 93.554 10.15 93.918 9.906 94.13C9.662 94.338 9.392 94.442 9.096 94.442Z" fill="#01031C"/>
<path d="M210.278 90.7166C210.143 90.4758 210.228 90.171 210.469 90.0358L214.393 87.8323C214.633 87.6971 214.938 87.7826 215.073 88.0234C215.209 88.2642 215.123 88.569 214.882 88.7042L211.395 90.6629L213.353 94.1505C213.488 94.3913 213.403 94.6961 213.162 94.8313C212.921 94.9665 212.617 94.8809 212.481 94.6402L210.278 90.7166ZM289.15 113.011L286.204 112.184L286.474 111.221L289.42 112.048L289.15 113.011ZM282.275 111.081L276.382 109.426L276.652 108.464L282.545 110.118L282.275 111.081ZM272.454 108.323L266.561 106.669L266.831 105.706L272.724 107.361L272.454 108.323ZM262.632 105.566L256.739 103.912L257.01 102.949L262.902 104.603L262.632 105.566ZM252.811 102.809L246.918 101.155L247.188 100.192L253.081 101.846L252.811 102.809ZM242.989 100.052L237.096 98.3976L237.367 97.4348L243.26 99.0891L242.989 100.052ZM233.168 97.2947L227.275 95.6404L227.545 94.6776L233.438 96.3319L233.168 97.2947ZM223.346 94.5375L217.454 92.8832L217.724 91.9204L223.617 93.5747L223.346 94.5375ZM213.525 91.7803L210.579 90.9531L210.849 89.9904L213.795 90.8175L213.525 91.7803ZM209.842 90.9614C209.571 90.4799 209.743 89.8703 210.224 89.5998L218.071 85.1928C218.553 84.9224 219.162 85.0935 219.433 85.5751C219.703 86.0566 219.532 86.6662 219.051 86.9366L212.075 90.854L215.993 97.8293C216.263 98.3108 216.092 98.9204 215.61 99.1908C215.129 99.4613 214.519 99.2901 214.249 98.8086L209.842 90.9614ZM289.015 113.492L286.068 112.665L286.609 110.739L289.555 111.567L289.015 113.492ZM282.14 111.562L276.247 109.908L276.788 107.982L282.68 109.636L282.14 111.562ZM272.318 108.805L266.426 107.151L266.966 105.225L272.859 106.879L272.318 108.805ZM262.497 106.048L256.604 104.393L257.145 102.468L263.038 104.122L262.497 106.048ZM252.676 103.29L246.783 101.636L247.323 99.7106L253.216 101.365L252.676 103.29ZM242.854 100.533L236.961 98.879L237.502 96.9534L243.395 98.6077L242.854 100.533ZM233.033 97.7761L227.14 96.1218L227.68 94.1962L233.573 95.8505L233.033 97.7761ZM223.211 95.0189L217.318 93.3646L217.859 91.439L223.752 93.0933L223.211 95.0189ZM213.39 92.2617L210.443 91.4345L210.984 89.509L213.93 90.3361L213.39 92.2617Z" fill="black"/>
<path d="M250 101.499L500 198.5L500 101.499L250 101.499Z" fill="url(#paint0_linear_19_72)" fill-opacity="0.4"/>
<g filter="url(#filter0_d_19_72)">
<circle cx="6" cy="6" r="6" transform="matrix(-1 0 0 1 256 95.5)" fill="#01031C"/>
<circle cx="6" cy="6" r="5" transform="matrix(-1 0 0 1 256 95.5)" stroke="white" stroke-width="2"/>
</g>
<path d="M250 101.5L0 0V101.5H250Z" fill="url(#paint1_linear_19_72)" fill-opacity="0.4"/>
<defs>
<filter id="filter0_d_19_72" x="240" y="93.5" width="20" height="20" filterUnits="userSpaceOnUse" color-interpolation-filters="sRGB">
<feFlood flood-opacity="0" result="BackgroundImageFix"/>
<feColorMatrix in="SourceAlpha" type="matrix" values="0 0 0 0 0 0 0 0 0 0 0 0 0 0 0 0 0 0 127 0" result="hardAlpha"/>
<feOffset dy="2"/>
<feGaussianBlur stdDeviation="2"/>
<feComposite in2="hardAlpha" operator="out"/>
<feColorMatrix type="matrix" values="0 0 0 0 0 0 0 0 0 0 0 0 0 0 0 0 0 0 0.25 0"/>
<feBlend mode="normal" in2="BackgroundImageFix" result="effect1_dropShadow_19_72"/>
<feBlend mode="normal" in="SourceGraphic" in2="effect1_dropShadow_19_72" result="shape"/>
</filter>
<linearGradient id="paint0_linear_19_72" x1="375" y1="169.5" x2="375" y2="101.5" gradientUnits="userSpaceOnUse">
<stop stop-color="#F04853"/>
<stop offset="1" stop-color="#F04853" stop-opacity="0.345937"/>
</linearGradient>
<linearGradient id="paint1_linear_19_72" x1="125" y1="51.5" x2="125" y2="101.5" gradientUnits="userSpaceOnUse">
<stop stop-color="#45AE4A"/>
<stop offset="1" stop-color="#45AE4A" stop-opacity="0.3"/>
</linearGradient>
</defs>
</svg>
