<svg xmlns="http://www.w3.org/2000/svg" width="379" height="254" viewBox="0 0 379 254" fill="none">
<rect y="54.5512" width="53.6076" height="23" rx="11.5" fill="#45AE4A"/>
<path d="M11.1263 71.0512L11.1263 62.4112L14.6963 62.4112C14.7803 62.4112 14.8883 62.4152 15.0203 62.4232C15.1523 62.4272 15.2743 62.4392 15.3863 62.4592C15.8863 62.5352 16.2983 62.7012 16.6223 62.9572C16.9503 63.2132 17.1923 63.5372 17.3483 63.9292C17.5083 64.3172 17.5883 64.7492 17.5883 65.2252C17.5883 65.6972 17.5083 66.1292 17.3483 66.5212C17.1883 66.9092 16.9443 67.2312 16.6163 67.4872C16.2923 67.7432 15.8823 67.9092 15.3863 67.9852C15.2743 68.0012 15.1503 68.0132 15.0143 68.0212C14.8823 68.0292 14.7763 68.0332 14.6963 68.0332L12.5723 68.0332L12.5723 71.0512L11.1263 71.0512ZM12.5723 66.6832L14.6363 66.6832C14.7163 66.6832 14.8063 66.6792 14.9063 66.6712C15.0063 66.6632 15.0983 66.6472 15.1823 66.6232C15.4223 66.5632 15.6103 66.4572 15.7463 66.3052C15.8863 66.1532 15.9843 65.9812 16.0403 65.7892C16.1003 65.5972 16.1303 65.4092 16.1303 65.2252C16.1303 65.0412 16.1003 64.8532 16.0403 64.6612C15.9843 64.4652 15.8863 64.2912 15.7463 64.1392C15.6103 63.9872 15.4223 63.8812 15.1823 63.8212C15.0983 63.7972 15.0063 63.7832 14.9063 63.7792C14.8063 63.7712 14.7163 63.7672 14.6363 63.7672L12.5723 63.7672L12.5723 66.6832ZM18.7903 71.0512L18.7903 64.5712L20.0683 64.5712L20.0683 66.1492L19.9123 65.9452C19.9923 65.7292 20.0983 65.5332 20.2303 65.3572C20.3663 65.1772 20.5283 65.0292 20.7163 64.9132C20.8763 64.8052 21.0523 64.7212 21.2443 64.6612C21.4403 64.5972 21.6403 64.5592 21.8443 64.5472C22.0483 64.5312 22.2463 64.5392 22.4383 64.5712L22.4383 65.9212C22.2463 65.8652 22.0243 65.8472 21.7723 65.8672C21.5243 65.8872 21.3003 65.9572 21.1003 66.0772C20.9003 66.1852 20.7363 66.3232 20.6083 66.4912C20.4843 66.6592 20.3923 66.8512 20.3323 67.0672C20.2723 67.2792 20.2423 67.5092 20.2423 67.7572L20.2423 71.0512L18.7903 71.0512ZM26.3281 71.2312C25.6801 71.2312 25.1141 71.0852 24.6301 70.7932C24.1461 70.5012 23.7701 70.0992 23.5021 69.5872C23.2381 69.0712 23.1061 68.4792 23.1061 67.8112C23.1061 67.1312 23.2421 66.5352 23.5141 66.0232C23.7861 65.5112 24.1641 65.1112 24.6481 64.8232C25.1321 64.5352 25.6921 64.3912 26.3281 64.3912C26.9801 64.3912 27.5481 64.5372 28.0321 64.8292C28.5161 65.1212 28.8921 65.5252 29.1601 66.0412C29.4281 66.5532 29.5621 67.1432 29.5621 67.8112C29.5621 68.4832 29.4261 69.0772 29.1541 69.5932C28.8861 70.1052 28.5101 70.5072 28.0261 70.7992C27.5421 71.0872 26.9761 71.2312 26.3281 71.2312ZM26.3281 69.8752C26.9041 69.8752 27.3321 69.6832 27.6121 69.2992C27.8921 68.9152 28.0321 68.4192 28.0321 67.8112C28.0321 67.1832 27.8901 66.6832 27.6061 66.3112C27.3221 65.9352 26.8961 65.7472 26.3281 65.7472C25.9401 65.7472 25.6201 65.8352 25.3681 66.0112C25.1201 66.1832 24.9361 66.4252 24.8161 66.7372C24.6961 67.0452 24.6361 67.4032 24.6361 67.8112C24.6361 68.4392 24.7781 68.9412 25.0621 69.3172C25.3501 69.6892 25.7721 69.8752 26.3281 69.8752ZM31.4481 71.0512L31.4481 64.4692C31.4481 64.3052 31.4541 64.1252 31.4661 63.9292C31.4781 63.7292 31.5121 63.5312 31.5681 63.3352C31.6241 63.1392 31.7261 62.9612 31.8741 62.8012C32.0581 62.5972 32.2561 62.4572 32.4681 62.3812C32.6841 62.3012 32.8961 62.2572 33.1041 62.2492C33.3121 62.2372 33.4941 62.2312 33.6501 62.2312L34.4601 62.2312L34.4601 63.4072L33.7101 63.4072C33.4341 63.4072 33.2281 63.4772 33.0921 63.6172C32.9601 63.7532 32.8941 63.9332 32.8941 64.1572L32.8941 71.0512L31.4481 71.0512ZM30.4041 65.7052L30.4041 64.5712L34.4601 64.5712L34.4601 65.7052L30.4041 65.7052ZM35.7201 63.5872L35.7201 62.2612L37.1661 62.2612L37.1661 63.5872L35.7201 63.5872ZM35.7201 71.0512L35.7201 64.5712L37.1661 64.5712L37.1661 71.0512L35.7201 71.0512ZM42.768 71.0512C42.34 71.1312 41.92 71.1652 41.508 71.1532C41.1 71.1452 40.734 71.0712 40.41 70.9312C40.086 70.7872 39.84 70.5612 39.672 70.2532C39.524 69.9732 39.446 69.6872 39.438 69.3952C39.43 69.1032 39.426 68.7732 39.426 68.4052L39.426 62.7712L40.866 62.7712L40.866 68.3212C40.866 68.5812 40.868 68.8092 40.872 69.0052C40.88 69.2012 40.922 69.3612 40.998 69.4852C41.142 69.7252 41.372 69.8592 41.688 69.8872C42.004 69.9152 42.364 69.8992 42.768 69.8392L42.768 71.0512ZM38.25 65.7052L38.25 64.5712L42.768 64.5712L42.768 65.7052L38.25 65.7052Z" fill="white"/>
<rect y="203.66" width="53.6076" height="23" rx="11.5" fill="#F04853"/>
<path d="M15.09 218.66L15.09 210.02L16.536 210.02L16.536 217.304L20.352 217.304L20.352 218.66L15.09 218.66ZM24.2304 218.84C23.5824 218.84 23.0164 218.694 22.5324 218.402C22.0484 218.11 21.6724 217.708 21.4044 217.196C21.1404 216.68 21.0084 216.088 21.0084 215.42C21.0084 214.74 21.1444 214.144 21.4164 213.632C21.6884 213.12 22.0664 212.72 22.5504 212.432C23.0344 212.144 23.5944 212 24.2304 212C24.8824 212 25.4504 212.146 25.9344 212.438C26.4184 212.73 26.7944 213.134 27.0624 213.65C27.3304 214.162 27.4644 214.752 27.4644 215.42C27.4644 216.092 27.3284 216.686 27.0564 217.202C26.7884 217.714 26.4124 218.116 25.9284 218.408C25.4444 218.696 24.8784 218.84 24.2304 218.84ZM24.2304 217.484C24.8064 217.484 25.2344 217.292 25.5144 216.908C25.7944 216.524 25.9344 216.028 25.9344 215.42C25.9344 214.792 25.7924 214.292 25.5084 213.92C25.2244 213.544 24.7984 213.356 24.2304 213.356C23.8424 213.356 23.5224 213.444 23.2704 213.62C23.0224 213.792 22.8384 214.034 22.7184 214.346C22.5984 214.654 22.5384 215.012 22.5384 215.42C22.5384 216.048 22.6804 216.55 22.9644 216.926C23.2524 217.298 23.6744 217.484 24.2304 217.484ZM31.1361 218.84C30.3361 218.84 29.6861 218.66 29.1861 218.3C28.6861 217.94 28.3821 217.434 28.2741 216.782L29.7501 216.554C29.8261 216.874 29.9941 217.126 30.2541 217.31C30.5141 217.494 30.8421 217.586 31.2381 217.586C31.5861 217.586 31.8541 217.518 32.0421 217.382C32.2341 217.242 32.3301 217.052 32.3301 216.812C32.3301 216.664 32.2941 216.546 32.2221 216.458C32.1541 216.366 32.0021 216.278 31.7661 216.194C31.5301 216.11 31.1681 216.004 30.6801 215.876C30.1361 215.732 29.7041 215.578 29.3841 215.414C29.0641 215.246 28.8341 215.048 28.6941 214.82C28.5541 214.592 28.4841 214.316 28.4841 213.992C28.4841 213.588 28.5901 213.236 28.8021 212.936C29.0141 212.636 29.3101 212.406 29.6901 212.246C30.0701 212.082 30.5181 212 31.0341 212C31.5381 212 31.9841 212.078 32.3721 212.234C32.7641 212.39 33.0801 212.612 33.3201 212.9C33.5601 213.188 33.7081 213.526 33.7641 213.914L32.2881 214.178C32.2521 213.902 32.1261 213.684 31.9101 213.524C31.6981 213.364 31.4141 213.274 31.0581 213.254C30.7181 213.234 30.4441 213.286 30.2361 213.41C30.0281 213.53 29.9241 213.7 29.9241 213.92C29.9241 214.044 29.9661 214.15 30.0501 214.238C30.1341 214.326 30.3021 214.414 30.5541 214.502C30.8101 214.59 31.1901 214.698 31.6941 214.826C32.2101 214.958 32.6221 215.11 32.9301 215.282C33.2421 215.45 33.4661 215.652 33.6021 215.888C33.7421 216.124 33.8121 216.41 33.8121 216.746C33.8121 217.398 33.5741 217.91 33.0981 218.282C32.6261 218.654 31.9721 218.84 31.1361 218.84ZM38.9243 218.66C38.4963 218.74 38.0763 218.774 37.6643 218.762C37.2563 218.754 36.8903 218.68 36.5663 218.54C36.2423 218.396 35.9963 218.17 35.8283 217.862C35.6803 217.582 35.6023 217.296 35.5943 217.004C35.5863 216.712 35.5823 216.382 35.5823 216.014L35.5823 210.38L37.0223 210.38L37.0223 215.93C37.0223 216.19 37.0243 216.418 37.0283 216.614C37.0363 216.81 37.0783 216.97 37.1543 217.094C37.2983 217.334 37.5283 217.468 37.8443 217.496C38.1603 217.524 38.5203 217.508 38.9243 217.448L38.9243 218.66ZM34.4063 213.314L34.4063 212.18L38.9243 212.18L38.9243 213.314L34.4063 213.314Z" fill="white"/>
<line x1="63.0124" y1="253.5" x2="378.075" y2="253.5" stroke="#B4B6BB" stroke-dasharray="3 3"/>
<path d="M61.9552 15.7039C61.76 15.5087 61.4434 15.5087 61.2481 15.7039L58.0661 18.8859C57.8709 19.0812 57.8709 19.3977 58.0661 19.593C58.2614 19.7883 58.578 19.7883 58.7732 19.593L61.6017 16.7646L64.4301 19.593C64.6254 19.7883 64.9419 19.7883 65.1372 19.593C65.3325 19.3977 65.3325 19.0812 65.1372 18.8859L61.9552 15.7039ZM62.1017 254L62.1017 252.513L61.1017 252.513L61.1017 254L62.1017 254ZM62.1017 249.539L62.1017 246.564L61.1017 246.564L61.1017 249.539L62.1017 249.539ZM62.1017 243.59L62.1017 240.616L61.1017 240.616L61.1017 243.59L62.1017 243.59ZM62.1017 237.641L62.1017 234.667L61.1017 234.667L61.1017 237.641L62.1017 237.641ZM62.1017 231.693L62.1017 228.719L61.1017 228.719L61.1017 231.693L62.1017 231.693ZM62.1017 225.744L62.1017 222.77L61.1017 222.77L61.1017 225.744L62.1017 225.744ZM62.1017 219.796L62.1017 216.821L61.1017 216.821L61.1017 219.796L62.1017 219.796ZM62.1017 213.847L62.1017 210.873L61.1017 210.873L61.1017 213.847L62.1017 213.847ZM62.1017 207.899L62.1017 204.924L61.1017 204.924L61.1017 207.899L62.1017 207.899ZM62.1017 201.95L62.1017 198.976L61.1017 198.976L61.1017 201.95L62.1017 201.95ZM62.1017 196.002L62.1017 193.027L61.1017 193.027L61.1017 196.002L62.1017 196.002ZM62.1017 190.053L62.1017 187.079L61.1017 187.079L61.1017 190.053L62.1017 190.053ZM62.1017 184.104L62.1017 181.13L61.1017 181.13L61.1017 184.104L62.1017 184.104ZM62.1017 178.156L62.1017 175.182L61.1017 175.182L61.1017 178.156L62.1017 178.156ZM62.1017 172.207L62.1017 169.233L61.1017 169.233L61.1017 172.207L62.1017 172.207ZM62.1017 166.259L62.1017 163.284L61.1017 163.284L61.1017 166.259L62.1017 166.259ZM62.1017 160.31L62.1017 157.336L61.1017 157.336L61.1017 160.31L62.1017 160.31ZM62.1017 154.362L62.1017 151.387L61.1017 151.387L61.1017 154.362L62.1017 154.362ZM62.1017 148.413L62.1017 145.439L61.1017 145.439L61.1017 148.413L62.1017 148.413ZM62.1017 142.464L62.1017 139.49L61.1017 139.49L61.1017 142.464L62.1017 142.464ZM62.1017 136.516L62.1017 133.542L61.1017 133.542L61.1017 136.516L62.1017 136.516ZM62.1017 130.567L62.1017 127.593L61.1017 127.593L61.1017 130.567L62.1017 130.567ZM62.1017 124.619L62.1017 121.644L61.1017 121.644L61.1017 124.619L62.1017 124.619ZM62.1017 118.67L62.1017 115.696L61.1017 115.696L61.1017 118.67L62.1017 118.67ZM62.1017 112.722L62.1017 109.747L61.1017 109.747L61.1017 112.722L62.1017 112.722ZM62.1017 106.773L62.1017 103.799L61.1017 103.799L61.1017 106.773L62.1017 106.773ZM62.1017 100.824L62.1017 97.8502L61.1017 97.8502L61.1017 100.824L62.1017 100.824ZM62.1017 94.8759L62.1017 91.9016L61.1017 91.9016L61.1017 94.8759L62.1017 94.8759ZM62.1017 88.9273L62.1017 85.953L61.1017 85.953L61.1017 88.9273L62.1017 88.9273ZM62.1017 82.9787L62.1017 80.0044L61.1017 80.0044L61.1017 82.9787L62.1017 82.9787ZM62.1017 77.0301L62.1017 74.0558L61.1017 74.0558L61.1017 77.0301L62.1017 77.0301ZM62.1017 71.0816L62.1017 68.1073L61.1017 68.1073L61.1017 71.0816L62.1017 71.0816ZM62.1017 65.133L62.1017 62.1587L61.1017 62.1587L61.1017 65.133L62.1017 65.133ZM62.1017 59.1844L62.1017 56.2101L61.1017 56.2101L61.1017 59.1844L62.1017 59.1844ZM62.1017 53.2358L62.1017 50.2615L61.1017 50.2615L61.1017 53.2358L62.1017 53.2358ZM62.1017 47.2872L62.1017 44.313L61.1017 44.313L61.1017 47.2872L62.1017 47.2872ZM62.1017 41.3387L62.1017 38.3644L61.1017 38.3644L61.1017 41.3387L62.1017 41.3387ZM62.1017 35.3901L62.1017 32.4158L61.1017 32.4158L61.1017 35.3901L62.1017 35.3901ZM62.1017 29.4415L62.1017 26.4672L61.1017 26.4672L61.1017 29.4415L62.1017 29.4415ZM62.1017 23.4929L62.1017 20.5186L61.1017 20.5186L61.1017 23.4929L62.1017 23.4929ZM62.1017 17.5444L62.1017 16.0575L61.1017 16.0575L61.1017 17.5444L62.1017 17.5444Z" fill="#B4B6BB"/>
<path d="M62.5936 61.8472H378.074" stroke="#1D1D22" stroke-opacity="0.1"/>
<path d="M62.5936 36.9391H378.074" stroke="#1D1D22" stroke-opacity="0.1"/>
<path d="M62.5936 86.7554H378.074" stroke="#1D1D22" stroke-opacity="0.1"/>
<path d="M62.5936 111.656H378.074" stroke="#1D1D22" stroke-opacity="0.1"/>
<path d="M62.5936 165.624H378.074" stroke="#1D1D22" stroke-opacity="0.1"/>
<path d="M62.5936 190.525H378.074" stroke="#1D1D22" stroke-opacity="0.1"/>
<path d="M62.5936 215.433H378.074" stroke="#1D1D22" stroke-opacity="0.1"/>
<path d="M62.5936 240.341H378.074" stroke="#1D1D22" stroke-opacity="0.1"/>
<path d="M378.427 141.069C378.623 140.874 378.623 140.557 378.427 140.362L375.245 137.18C375.05 136.985 374.733 136.985 374.538 137.18C374.343 137.375 374.343 137.692 374.538 137.887L377.367 140.716L374.538 143.544C374.343 143.739 374.343 144.056 374.538 144.251C374.733 144.446 375.05 144.446 375.245 144.251L378.427 141.069ZM62.5936 141.216H378.074V140.216H62.5936V141.216Z" fill="#1D1D22"/>
<path d="M252.17 164.151L251.905 164.575L251.898 164.571L251.891 164.566L252.17 164.151ZM295.336 191.046L295.336 191.546L295.193 191.546L295.072 191.471L295.336 191.046ZM375.079 190.693C375.274 190.888 375.274 191.205 375.079 191.4L371.897 194.582C371.701 194.777 371.385 194.777 371.19 194.582C370.994 194.387 370.994 194.07 371.19 193.875L374.018 191.046L371.19 188.218C370.994 188.023 370.994 187.706 371.19 187.511C371.385 187.315 371.701 187.315 371.897 187.511L375.079 190.693ZM99.1632 61.6672L99.4405 61.2512L99.4414 61.2518L99.1632 61.6672ZM374.725 191.546L371.748 191.546L371.748 190.546L374.725 190.546L374.725 191.546ZM367.779 191.546L361.824 191.546L361.824 190.546L367.779 190.546L367.779 191.546ZM357.855 191.546L351.901 191.546L351.901 190.546L357.855 190.546L357.855 191.546ZM347.931 191.546L341.977 191.546L341.977 190.546L347.931 190.546L347.931 191.546ZM338.008 191.546L332.054 191.546L332.054 190.546L338.008 190.546L338.008 191.546ZM328.084 191.546L322.13 191.546L322.13 190.546L328.084 190.546L328.084 191.546ZM318.16 191.546L312.206 191.546L312.206 190.546L318.16 190.546L318.16 191.546ZM308.237 191.546L302.283 191.546L302.283 190.546L308.237 190.546L308.237 191.546ZM298.313 191.546L295.336 191.546L295.336 190.546L298.313 190.546L298.313 191.546ZM295.072 191.471L292.482 189.857L293.011 189.008L295.601 190.622L295.072 191.471ZM289.028 187.705L283.848 184.478L284.377 183.629L289.557 186.856L289.028 187.705ZM280.395 182.326L275.215 179.099L275.744 178.25L280.924 181.477L280.395 182.326ZM271.762 176.947L266.582 173.719L267.111 172.871L272.291 176.098L271.762 176.947ZM263.129 171.568L257.949 168.34L258.477 167.492L263.657 170.719L263.129 171.568ZM254.495 166.189L251.905 164.575L252.434 163.726L255.024 165.34L254.495 166.189ZM251.891 164.566L249.341 162.858L249.898 162.027L252.448 163.735L251.891 164.566ZM245.941 160.58L240.841 157.164L241.397 156.334L246.498 159.75L245.941 160.58ZM237.441 154.887L232.341 151.471L232.897 150.64L237.997 154.056L237.441 154.887ZM228.94 149.193L223.84 145.777L224.397 144.946L229.497 148.363L228.94 149.193ZM220.44 143.5L215.34 140.084L215.896 139.253L220.997 142.669L220.44 143.5ZM211.94 137.806L206.839 134.39L207.396 133.559L212.496 136.976L211.94 137.806ZM203.439 132.113L198.339 128.697L198.896 127.866L203.996 131.282L203.439 132.113ZM194.939 126.419L189.839 123.003L190.395 122.172L195.495 125.589L194.939 126.419ZM186.439 120.726L181.338 117.31L181.895 116.479L186.995 119.895L186.439 120.726ZM177.938 115.032L172.838 111.616L173.395 110.785L178.495 114.202L177.938 115.032ZM169.438 109.339L164.338 105.923L164.894 105.092L169.994 108.508L169.438 109.339ZM160.938 103.645L155.837 100.229L156.394 99.3984L161.494 102.814L160.938 103.645ZM152.437 97.9518L147.337 94.5357L147.893 93.7048L152.994 97.121L152.437 97.9518ZM143.937 92.2583L138.837 88.8422L139.393 88.0113L144.493 91.4274L143.937 92.2583ZM135.436 86.5648L130.336 83.1487L130.893 82.3178L135.993 85.7339L135.436 86.5648ZM126.936 80.8713L121.836 77.4551L122.392 76.6243L127.493 80.0404L126.936 80.8713ZM118.436 75.1777L113.336 71.7616L113.892 70.9308L118.992 74.3469L118.436 75.1777ZM109.935 69.4842L104.835 66.0681L105.392 65.2373L110.492 68.6534L109.935 69.4842ZM101.435 63.7907L98.8849 62.0826L99.4414 61.2518L101.992 62.9599L101.435 63.7907ZM98.8858 62.0832L96.1349 60.2493L96.6896 59.4172L99.4405 61.2512L98.8858 62.0832ZM92.467 57.804L86.9652 54.1361L87.5199 53.3041L93.0217 56.972L92.467 57.804ZM83.2973 51.6909L77.7955 48.023L78.3502 47.1909L83.852 50.8588L83.2973 51.6909ZM74.1276 45.5777L68.6257 41.9098L69.1804 41.0778L74.6823 44.7457L74.1276 45.5777ZM64.9578 39.4646L62.2069 37.6306L62.7616 36.7986L65.5125 38.6325L64.9578 39.4646ZM252.17 164.151L251.641 164.999L251.627 164.991L251.613 164.981L252.17 164.151ZM295.336 191.046L295.336 192.046L295.05 192.046L294.807 191.895L295.336 191.046ZM375.432 190.339C375.823 190.73 375.823 191.363 375.432 191.753L369.068 198.117C368.678 198.508 368.045 198.508 367.654 198.117C367.264 197.727 367.264 197.094 367.654 196.703L373.311 191.046L367.654 185.389C367.264 184.999 367.264 184.366 367.654 183.975C368.045 183.585 368.678 183.585 369.068 183.975L375.432 190.339ZM99.1632 61.6672L99.7179 60.8351L99.7197 60.8364L99.1632 61.6672ZM374.725 192.046L371.748 192.046L371.748 190.046L374.725 190.046L374.725 192.046ZM367.779 192.046L361.824 192.046L361.824 190.046L367.779 190.046L367.779 192.046ZM357.855 192.046L351.901 192.046L351.901 190.046L357.855 190.046L357.855 192.046ZM347.931 192.046L341.977 192.046L341.977 190.046L347.931 190.046L347.931 192.046ZM338.008 192.046L332.054 192.046L332.054 190.046L338.008 190.046L338.008 192.046ZM328.084 192.046L322.13 192.046L322.13 190.046L328.084 190.046L328.084 192.046ZM318.16 192.046L312.206 192.046L312.206 190.046L318.16 190.046L318.16 192.046ZM308.237 192.046L302.283 192.046L302.283 190.046L308.237 190.046L308.237 192.046ZM298.313 192.046L295.336 192.046L295.336 190.046L298.313 190.046L298.313 192.046ZM294.807 191.895L292.217 190.281L293.275 188.584L295.865 190.198L294.807 191.895ZM288.764 188.13L283.584 184.902L284.642 183.205L289.822 186.432L288.764 188.13ZM280.131 182.75L274.951 179.523L276.008 177.825L281.188 181.053L280.131 182.75ZM271.497 177.371L266.317 174.144L267.375 172.446L272.555 175.674L271.497 177.371ZM262.864 171.992L257.684 168.765L258.742 167.067L263.922 170.295L262.864 171.992ZM254.231 166.613L251.641 164.999L252.698 163.302L255.288 164.916L254.231 166.613ZM251.613 164.981L249.063 163.273L250.176 161.612L252.726 163.32L251.613 164.981ZM245.663 160.996L240.563 157.58L241.676 155.918L246.776 159.334L245.663 160.996ZM237.163 155.302L232.062 151.886L233.175 150.225L238.276 153.641L237.163 155.302ZM228.662 149.609L223.562 146.193L224.675 144.531L229.775 147.947L228.662 149.609ZM220.162 143.915L215.062 140.499L216.175 138.838L221.275 142.254L220.162 143.915ZM211.661 138.222L206.561 134.806L207.674 133.144L212.774 136.56L211.661 138.222ZM203.161 132.528L198.061 129.112L199.174 127.451L204.274 130.867L203.161 132.528ZM194.661 126.835L189.561 123.419L190.674 121.757L195.774 125.173L194.661 126.835ZM186.16 121.141L181.06 117.725L182.173 116.063L187.273 119.48L186.16 121.141ZM177.66 115.448L172.56 112.032L173.673 110.37L178.773 113.786L177.66 115.448ZM169.16 109.754L164.059 106.338L165.172 104.676L170.273 108.093L169.16 109.754ZM160.659 104.061L155.559 100.645L156.672 98.9829L161.772 102.399L160.659 104.061ZM152.159 98.3672L147.059 94.9511L148.172 93.2894L153.272 96.7055L152.159 98.3672ZM143.659 92.6737L138.558 89.2576L139.671 87.5959L144.772 91.012L143.659 92.6737ZM135.158 86.9802L130.058 83.5641L131.171 81.9024L136.271 85.3185L135.158 86.9802ZM126.658 81.2867L121.558 77.8706L122.671 76.2089L127.771 79.625L126.658 81.2867ZM118.158 75.5932L113.057 72.1771L114.17 70.5154L119.271 73.9315L118.158 75.5932ZM109.657 69.8996L104.557 66.4835L105.67 64.8218L110.77 68.2379L109.657 69.8996ZM101.157 64.2061L98.6067 62.498L99.7197 60.8364L102.27 62.5444L101.157 64.2061ZM98.6085 62.4992L95.8575 60.6653L96.9669 59.0012L99.7179 60.8351L98.6085 62.4992ZM92.1897 58.22L86.6878 54.5522L87.7972 52.8881L93.2991 56.5559L92.1897 58.22ZM83.0199 52.1069L77.5181 48.439L78.6275 46.7749L84.1293 50.4428L83.0199 52.1069ZM73.8502 45.9937L68.3484 42.3259L69.4578 40.6618L74.9596 44.3296L73.8502 45.9937ZM64.6805 39.8806L61.9296 38.0467L63.039 36.3826L65.7899 38.2165L64.6805 39.8806Z" fill="black"/>
<g filter="url(#filter0_d_21_108)">
<circle cx="6.22658" cy="6.22658" r="6.22658" transform="matrix(-0.951476 -0.307724 -0.307724 0.951476 224.744 136.711)" fill="#01031C"/>
<circle cx="6.22658" cy="6.22658" r="5.22658" transform="matrix(-0.951476 -0.307724 -0.307724 0.951476 224.744 136.711)" stroke="white" stroke-width="2"/>
</g>
<path d="M217.252 140.672L97.5007 62.0384L62.0719 38.1588V141.142L217.252 140.672Z" fill="url(#paint0_linear_21_108)" fill-opacity="0.4"/>
<path d="M374.783 189.107V141.142H221.484L290.61 191.458L374.783 189.107Z" fill="url(#paint1_linear_21_108)" fill-opacity="0.4"/>
<defs>
<filter id="filter0_d_21_108" x="206.675" y="132.491" width="20.4565" height="20.4565" filterUnits="userSpaceOnUse" color-interpolation-filters="sRGB">
<feFlood flood-opacity="0" result="BackgroundImageFix"/>
<feColorMatrix in="SourceAlpha" type="matrix" values="0 0 0 0 0 0 0 0 0 0 0 0 0 0 0 0 0 0 127 0" result="hardAlpha"/>
<feOffset dy="2"/>
<feGaussianBlur stdDeviation="2"/>
<feComposite in2="hardAlpha" operator="out"/>
<feColorMatrix type="matrix" values="0 0 0 0 0 0 0 0 0 0 0 0 0 0 0 0 0 0 0.25 0"/>
<feBlend mode="normal" in2="BackgroundImageFix" result="effect1_dropShadow_21_108"/>
<feBlend mode="normal" in="SourceGraphic" in2="effect1_dropShadow_21_108" result="shape"/>
</filter>
<linearGradient id="paint0_linear_21_108" x1="112.114" y1="89.8782" x2="112.114" y2="141.142" gradientUnits="userSpaceOnUse">
<stop stop-color="#45AE4A"/>
<stop offset="1" stop-color="#45AE4A" stop-opacity="0.3"/>
</linearGradient>
<linearGradient id="paint1_linear_21_108" x1="339.736" y1="139.955" x2="339.736" y2="191.458" gradientUnits="userSpaceOnUse">
<stop stop-color="#B22234"/>
<stop offset="1" stop-color="#B22234" stop-opacity="0"/>
</linearGradient>
</defs>
</svg>