<svg width="17" height="16" viewBox="0 0 17 16" fill="none" xmlns="http://www.w3.org/2000/svg">
<g clip-path="url(#clip0_1124_3097)">
<path d="M6.99717 6C7.15391 5.55444 7.46328 5.17873 7.87048 4.93942C8.27768 4.7001 8.75644 4.61262 9.22196 4.69247C9.68748 4.77232 10.1097 5.01434 10.4139 5.37568C10.7181 5.73702 10.8845 6.19434 10.8838 6.66666C10.8838 8 8.88384 8.66666 8.88384 8.66666M8.93717 11.3333H8.94384M15.6038 8C15.6038 11.6819 12.6191 14.6667 8.93717 14.6667C5.25528 14.6667 2.27051 11.6819 2.27051 8C2.27051 4.3181 5.25528 1.33333 8.93717 1.33333C12.6191 1.33333 15.6038 4.3181 15.6038 8Z" stroke="#1D2939" stroke-width="1.33333" stroke-linecap="round" stroke-linejoin="round"/>
</g>
<defs>
<clipPath id="clip0_1124_3097">
<rect width="16" height="16" fill="white" transform="translate(0.937012)"/>
</clipPath>
</defs>
</svg>
