<svg width="12" height="12" viewBox="0 0 12 12" fill="none" xmlns="http://www.w3.org/2000/svg">
<g clip-path="url(#clip0_16766_2421)">
<path d="M1.73106 2.23584L9.73944 10.6891M7.98761 8.97517C7.3106 9.36011 6.5454 9.63241 5.73525 9.63241C3.96807 9.63241 2.41495 8.33689 1.5243 7.40227C1.2892 7.1556 1.17167 7.03223 1.09685 6.7901C1.04349 6.61744 1.04347 6.30747 1.09685 6.13476C1.17169 5.89268 1.28947 5.76905 1.52503 5.52189C1.97394 5.05089 2.59102 4.48842 3.31887 4.0463M9.48917 7.85384C9.65585 7.69904 9.80856 7.54677 9.94555 7.40307L9.947 7.40143C10.1815 7.15533 10.2992 7.03197 10.3738 6.79036C10.4272 6.6177 10.4271 6.30757 10.3737 6.13492C10.299 5.89289 10.1813 5.76915 9.94635 5.52263C9.05567 4.58801 7.5024 3.2925 5.73525 3.2925C5.56632 3.2925 5.39935 3.30434 5.23473 3.32657M6.39739 7.25498C6.22091 7.41939 5.98912 7.51914 5.73525 7.51914C5.18237 7.51914 4.7342 7.04607 4.7342 6.46248C4.7342 6.17745 4.84111 5.91888 5.01495 5.72879" stroke="#374151" stroke-linecap="round" stroke-linejoin="round"/>
</g>
<defs>
<clipPath id="clip0_16766_2421">
<rect width="11" height="11" fill="white" transform="translate(0.494812 0.962402)"/>
</clipPath>
</defs>
</svg>
