<svg width="12" height="12" viewBox="0 0 12 12" fill="none" xmlns="http://www.w3.org/2000/svg">
<g clip-path="url(#clip0_16766_4307)">
<path d="M1.43839 1.98535L9.44677 10.4386M7.69494 8.72468C7.01793 9.10962 6.25273 9.38192 5.44259 9.38192C3.67541 9.38192 2.12228 8.0864 1.23163 7.15179C0.996538 6.90511 0.87901 6.78174 0.804186 6.53961C0.750826 6.36695 0.750811 6.05698 0.804186 5.88427C0.87903 5.64219 0.996803 5.51856 1.23237 5.27141C1.68128 4.80041 2.29835 4.23793 3.0262 3.79581M9.19651 7.60335C9.36319 7.44855 9.51589 7.29628 9.65289 7.15258L9.65434 7.15094C9.88888 6.90484 10.0065 6.78148 10.0812 6.53987C10.1345 6.36722 10.1344 6.05709 10.0811 5.88443C10.0063 5.6424 9.88863 5.51867 9.65369 5.27215C8.76301 4.33752 7.20973 3.04201 5.44259 3.04201C5.27366 3.04201 5.10668 3.05385 4.94206 3.07608M6.10473 7.00449C5.92824 7.1689 5.69645 7.26865 5.44259 7.26865C4.88971 7.26865 4.44153 6.79559 4.44153 6.21199C4.44153 5.92696 4.54845 5.66839 4.72228 5.4783" stroke="#DC2626" stroke-linecap="round" stroke-linejoin="round"/>
</g>
<defs>
<clipPath id="clip0_16766_4307">
<rect width="11" height="11" fill="white" transform="translate(0.202148 0.711914)"/>
</clipPath>
</defs>
</svg>
