<svg width="25" height="25" viewBox="0 0 25 25" fill="none" xmlns="http://www.w3.org/2000/svg">
<path d="M13.4409 2.84525L13.4409 9.49195C13.4409 10.649 14.3789 11.5869 15.5359 11.5869L22.1826 11.5869C23.3396 11.5869 24.2775 10.649 24.2775 9.49195L24.2775 2.84525C24.2775 1.68823 23.3396 0.750285 22.1826 0.750285L15.5359 0.750285C14.3789 0.750285 13.4409 1.68823 13.4409 2.84525Z" fill="#2947F2"/>
<path d="M13.4409 16.0083L13.4409 22.655C13.4409 23.8121 14.3789 24.75 15.5359 24.75L22.1826 24.75C23.3396 24.75 24.2775 23.8121 24.2775 22.655L24.2775 16.0083C24.2775 14.8513 23.3396 13.9134 22.1826 13.9134L15.5359 13.9134C14.3789 13.9134 13.4409 14.8513 13.4409 16.0083Z" fill="#FF6805"/>
<path d="M0.276855 2.84525L0.276855 9.49195C0.276855 10.649 1.2148 11.5869 2.37182 11.5869L9.01852 11.5869C10.1755 11.5869 11.1135 10.649 11.1135 9.49195L11.1135 2.84525C11.1135 1.68823 10.1755 0.750285 9.01852 0.750285L2.37182 0.750285C1.2148 0.750285 0.276855 1.68823 0.276855 2.84525Z" fill="#2947F2"/>
<path d="M0.276855 16.0083L0.276855 22.655C0.276855 23.8121 1.2148 24.75 2.37182 24.75L9.01852 24.75C10.1755 24.75 11.1135 23.8121 11.1135 22.655L11.1135 16.0083C11.1135 14.8513 10.1755 13.9134 9.01852 13.9134L2.37182 13.9134C1.2148 13.9134 0.276855 14.8513 0.276855 16.0083Z" fill="#2947F2"/>
</svg>
