<svg width="166" height="256" viewBox="0 0 166 256" fill="none" xmlns="http://www.w3.org/2000/svg">
<path d="M105.188 147.965L105.188 262.641" stroke="white" stroke-width="30" stroke-linecap="round" stroke-linejoin="round"/>
<path d="M60.1953 15.9243L60.1953 179.703" stroke="#FF6805" stroke-width="30" stroke-linecap="round" stroke-linejoin="round"/>
<path d="M59.8325 225.246L59.8325 240.326C59.8325 252.649 49.8412 262.641 37.5178 262.641C25.1943 262.641 15.2031 252.649 15.2031 240.326L15.2031 196.884" stroke="white" stroke-width="30" stroke-linecap="round" stroke-linejoin="round"/>
<path d="M120.188 105.965C120.188 97.6806 113.472 90.9648 105.187 90.9648C96.9032 90.9648 90.1875 97.6806 90.1875 105.965C90.1875 114.249 96.9032 120.965 105.187 120.965C113.472 120.965 120.188 114.249 120.188 105.965Z" fill="#05F2F2"/>
<path d="M30.1406 15.9258C30.1406 7.6415 23.4249 0.925782 15.1406 0.925781C6.85635 0.925781 0.140625 7.6415 0.140625 15.9258C0.140625 24.21 6.85635 30.9258 15.1406 30.9258C23.4249 30.9258 30.1406 24.21 30.1406 15.9258Z" fill="#05F2F2"/>
<path d="M150.172 262.641L150.172 198.98" stroke="#FF6805" stroke-width="30" stroke-linecap="round" stroke-linejoin="round"/>
<path d="M15.2109 151.613L15.2109 61.7668" stroke="white" stroke-width="30" stroke-linecap="round" stroke-linejoin="round"/>
</svg>
