<svg width="80" height="73" viewBox="0 0 80 73" fill="none" xmlns="http://www.w3.org/2000/svg">
<ellipse cx="40.1992" cy="36.5" rx="39.8008" ry="35.625" fill="white"/>
<path d="M24.5374 37.2119C27.7343 37.2119 30.3286 39.4469 30.3286 42.201V48.1557C30.3286 50.9099 27.7343 53.1448 24.5374 53.1448C21.3404 53.1448 18.7461 50.9099 18.7461 48.1557V42.201C18.7461 39.4469 21.3404 37.2119 24.5374 37.2119Z" fill="#FF6805"/>
<path d="M40.2023 19.8545C43.3993 19.8545 45.9966 22.0895 45.9966 24.8436V48.1563C45.9966 50.9104 43.4023 53.1454 40.2053 53.1454C37.0084 53.1454 34.4141 50.9104 34.4141 48.1563V24.8436C34.4111 22.0895 37.0084 19.8545 40.2023 19.8545Z" fill="#05F2F2"/>
<path d="M55.8655 19.8545C59.0624 19.8545 61.6568 22.0895 61.6568 24.8436V30.7983C61.6568 33.5524 59.0624 35.7874 55.8655 35.7874C52.6685 35.7874 50.0742 33.5524 50.0742 30.7983V24.8436C50.0742 22.0895 52.6685 19.8545 55.8655 19.8545Z" fill="#2947F2"/>
</svg>
