<svg width="40" height="40" viewBox="0 0 40 40" fill="none" xmlns="http://www.w3.org/2000/svg">
<path d="M35.9004 8.80371L32.4766 12.2264" stroke="#2947F2" stroke-width="1.8" stroke-miterlimit="10" stroke-linecap="round" stroke-linejoin="round"/>
<path d="M32.4506 12.2293L29.0273 8.80664" stroke="#2947F2" stroke-width="1.8" stroke-miterlimit="10" stroke-linecap="round" stroke-linejoin="round"/>
<path d="M27.7148 2.52637C32.1613 4.31705 32.5284 7.78039 32.5284 11.7" stroke="#2947F2" stroke-width="1.8" stroke-miterlimit="10" stroke-linecap="round" stroke-linejoin="round"/>
<path d="M4.22266 31.2323L7.64703 27.8096" stroke="#FF6805" stroke-width="1.8" stroke-miterlimit="10" stroke-linecap="round" stroke-linejoin="round"/>
<path d="M7.67188 27.8066L11.0957 31.2293" stroke="#FF6805" stroke-width="1.8" stroke-miterlimit="10" stroke-linecap="round" stroke-linejoin="round"/>
<path d="M12.4079 37.5102C7.96137 35.7189 7.59375 32.2556 7.59375 28.3359" stroke="#FF6805" stroke-width="1.8" stroke-miterlimit="10" stroke-linecap="round" stroke-linejoin="round"/>
<path d="M13.6772 25.1201C19.9819 25.1201 25.0928 20.0092 25.0928 13.7046C25.0928 7.39997 19.9819 2.28906 13.6772 2.28906C7.37262 2.28906 2.26172 7.39997 2.26172 13.7046C2.26172 20.0092 7.37262 25.1201 13.6772 25.1201Z" fill="#2947F2"/>
<path d="M26.3257 37.6973C32.6303 37.6973 37.7412 32.5864 37.7412 26.2817C37.7412 19.9771 32.6303 14.8662 26.3257 14.8662C20.0211 14.8662 14.9102 19.9771 14.9102 26.2817C14.9102 32.5864 20.0211 37.6973 26.3257 37.6973Z" fill="#FF6805"/>
<path d="M8.47656 12.3213H13.9356" stroke="white" stroke-width="1.8" stroke-miterlimit="10" stroke-linecap="round" stroke-linejoin="round"/>
<path d="M8.47656 14.9297H13.9356" stroke="white" stroke-width="1.8" stroke-miterlimit="10" stroke-linecap="round" stroke-linejoin="round"/>
<path d="M13.5687 19.3596C11.6227 18.9954 10.1172 16.884 10.1172 14.3535V12.8971C10.1172 10.1114 11.9401 7.83398 14.1667 7.83398C15.3915 7.83398 16.4938 8.52349 17.2376 9.6066" stroke="white" stroke-width="1.8" stroke-miterlimit="10" stroke-linecap="round" stroke-linejoin="round"/>
<path d="M23.2524 28.8729C23.2524 30.222 24.6201 31.3147 26.3046 31.3147C27.9897 31.3147 29.3552 30.2214 29.3552 28.8729C29.3552 27.5249 27.7271 26.9337 26.2967 26.3108C24.8675 25.6857 23.2383 25.0956 23.2383 23.7476C23.2383 22.3974 24.606 21.3047 26.2894 21.3047C27.975 21.3047 29.3416 22.398 29.3416 23.7476" stroke="white" stroke-width="1.8" stroke-miterlimit="10" stroke-linecap="round"/>
<path d="M26.2891 21.2929V19.6768" stroke="white" stroke-width="1.8" stroke-miterlimit="10" stroke-linecap="round"/>
<path d="M26.2891 32.9437V31.3281" stroke="white" stroke-width="1.8" stroke-miterlimit="10" stroke-linecap="round"/>
<path d="M14.8125 38.1191C14.8125 38.1191 15.8233 38.4026 16.8596 38.3309" stroke="#FF6805" stroke-width="1.8" stroke-miterlimit="10" stroke-linecap="round"/>
<path d="M25.2346 1.88145C25.2346 1.88145 24.2237 1.59853 23.1875 1.66968" stroke="#2947F2" stroke-width="1.8" stroke-miterlimit="10" stroke-linecap="round"/>
</svg>
