<svg width="30" height="31" viewBox="0 0 30 31" fill="none" xmlns="http://www.w3.org/2000/svg">
<g id="Flags">
<g clip-path="url(#clip0_9255_1312)">
<g id="Group">
<g id="Group_2">
<path id="Vector" d="M35.4766 0.650024H-5.44263V30.4094H35.4766V0.650024Z" fill="white"/>
<path id="Vector_2" d="M35.4766 3.44H-5.44263V8.08989H35.4766V3.44Z" fill="#2A499F"/>
<path id="Vector_3" d="M35.4766 22.9696H-5.44263V27.6195H35.4766V22.9696Z" fill="#2A499F"/>
<path id="Vector_4" d="M18.737 15.5297L20.5971 12.3082H16.8771L15.017 9.08667L13.157 12.3082H9.43701L11.297 15.5297L9.43701 18.7512H13.157L15.017 21.9727L16.8771 18.7512H20.5971L18.737 15.5297ZM18.8252 13.3312L18.1465 14.5068L17.4677 13.3312H18.8252ZM17.5558 15.5297L16.2864 17.7283H13.7476L12.4783 15.5297L13.7476 13.3312H16.2864L17.5558 15.5297ZM15.017 11.1326L15.6958 12.3082H14.3383L15.017 11.1326ZM11.2089 13.3312H12.5664L11.8876 14.5068L11.2089 13.3312ZM11.2089 17.7283L11.8876 16.5526L12.5664 17.7283H11.2089ZM15.017 19.9269L14.3382 18.7512H15.6958L15.017 19.9269ZM18.1464 16.5526L18.8252 17.7283H17.4676L18.1464 16.5526Z" fill="#2A499F"/>
</g>
</g>
</g>
</g>
<defs>
<clipPath id="clip0_9255_1312">
<rect x="0.166992" y="0.650024" width="29.7" height="29.7" rx="14.85" fill="white"/>
</clipPath>
</defs>
</svg>
