<svg width="18" height="18" viewBox="0 0 18 18" fill="none" xmlns="http://www.w3.org/2000/svg">
<g id="Flags">
<g clip-path="url(#clip0_20912_70993)">
<g id="Group">
<g id="Group_2">
<path id="Vector" d="M21.0581 0.898438H-2.25781V17.1308H21.0581V0.898438Z" fill="white"/>
<path id="Vector_2" d="M21.0581 2.42188H-2.25781V4.95818H21.0581V2.42188Z" fill="#2A499F"/>
<path id="Vector_3" d="M21.0581 13.0781H-2.25781V15.6144H21.0581V13.0781Z" fill="#2A499F"/>
<path id="Vector_4" d="M11.5199 9.01438L12.5798 7.2572H10.4601L9.40022 5.5L8.34039 7.2572H6.2207L7.28054 9.01438L6.2207 10.7716H8.34039L9.40022 12.5287L10.4601 10.7716H12.5798L11.5199 9.01438ZM11.5701 7.81521L11.1834 8.45644L10.7966 7.81521H11.5701ZM10.8468 9.0144L10.1235 10.2136H8.67692L7.95362 9.0144L8.6769 7.81521H10.1235L10.8468 9.0144ZM9.40022 6.61595L9.787 7.2572H9.01346L9.40022 6.61595ZM7.23033 7.81521H8.00382L7.61707 8.45644L7.23033 7.81521ZM7.23033 10.2136L7.61709 9.57234L8.00387 10.2136H7.23033ZM9.40022 11.4128L9.01344 10.7716H9.787L9.40022 11.4128ZM11.1834 9.57234L11.5701 10.2136H10.7966L11.1834 9.57234Z" fill="#2A499F"/>
</g>
</g>
</g>
</g>
<defs>
<clipPath id="clip0_20912_70993">
<rect x="0.939453" y="0.898438" width="16.9232" height="16.2" rx="8.1" fill="white"/>
</clipPath>
</defs>
</svg>
