<svg xmlns="http://www.w3.org/2000/svg" width="18" height="14" viewBox="0 0 18 14" fill="none">
  <path fill-rule="evenodd" clip-rule="evenodd" d="M5.69014 5.34508C5.69014 3.5171 7.17201 2.03523 8.99998 2.03523C10.8279 2.03523 12.3098 3.5171 12.3098 5.34508V6.17254H13.1373C14.7368 6.17254 16.0334 7.46917 16.0334 9.06865C16.0334 10.6681 14.7368 11.9648 13.1373 11.9648H13.0545C12.5975 11.9648 12.2271 12.3352 12.2271 12.7922C12.2271 13.2492 12.5975 13.6197 13.0545 13.6197H13.1373C15.6508 13.6197 17.6883 11.5821 17.6883 9.06865C17.6883 6.81738 16.0537 4.94787 13.9065 4.58236C13.5396 2.20249 11.4826 0.38031 8.99998 0.38031C6.51739 0.38031 4.46038 2.20249 4.09344 4.58236C1.9463 4.94787 0.311646 6.81738 0.311646 9.06865C0.311646 11.5821 2.34921 13.6197 4.86268 13.6197H4.94543C5.40242 13.6197 5.77289 13.2492 5.77289 12.7922C5.77289 12.3352 5.40242 11.9648 4.94543 11.9648H4.86268C3.2632 11.9648 1.96657 10.6681 1.96657 9.06865C1.96657 7.46917 3.2632 6.17254 4.86268 6.17254H5.69014V5.34508ZM9.82745 6.17254C9.82745 5.71553 9.45699 5.34508 8.99998 5.34508C8.54298 5.34508 8.17252 5.71553 8.17252 6.17254V10.7946L7.10271 9.72474C6.77956 9.40162 6.25564 9.40162 5.9325 9.72474C5.60936 10.0479 5.60936 10.5718 5.9325 10.8949L8.41489 13.3773C8.73801 13.7004 9.26196 13.7004 9.58508 13.3773L12.0675 10.8949C12.3906 10.5718 12.3906 10.0479 12.0675 9.72474C11.7443 9.40162 11.2204 9.40162 10.8973 9.72474L9.82745 10.7946V6.17254Z" fill="white"/>
</svg>