<svg width="18" height="14" viewBox="0 0 18 14" fill="none" xmlns="http://www.w3.org/2000/svg">
<path d="M4.2 12.25C2.43269 12.25 1 10.8429 1 9.10717C1 7.67686 1.97278 6.46974 3.30398 6.08917C3.36055 6.07297 3.4 6.02214 3.4 5.96429C3.4 3.36065 5.54903 1.25 8.2 1.25C10.8509 1.25 13 3.36065 13 5.96429C13 6.01417 13.0476 6.0512 13.0972 6.04031C13.3234 5.99051 13.5586 5.96429 13.8 5.96429C15.5673 5.96429 17 7.37137 17 9.10717C17 10.8429 15.5673 12.25 13.8 12.25" stroke="#111827" stroke-linecap="round" stroke-linejoin="round"/>
<path d="M9 12.75C9 12.75 9 9.09315 9 6.75M9 6.75C9.78105 7.53104 10.219 7.96893 11 8.74997M9 6.75C8.21895 7.53104 7.78105 7.96893 7 8.74997" stroke="#111827" stroke-linecap="round" stroke-linejoin="round"/>
</svg>
