<svg width="16" height="16" viewBox="0 0 16 16" fill="none" xmlns="http://www.w3.org/2000/svg">
<path d="M8.46875 0.806641C12.5996 0.806641 15.9688 4.17578 15.9688 8.30664C15.9688 12.4668 12.5996 15.8066 8.46875 15.8066C4.30859 15.8066 0.96875 12.4668 0.96875 8.30664C0.96875 4.17578 4.30859 0.806641 8.46875 0.806641ZM7.76562 5.25977V9.00977C7.76562 9.41992 8.05859 9.71289 8.46875 9.71289C8.84961 9.71289 9.17188 9.41992 9.17188 9.00977V5.25977C9.17188 4.87891 8.84961 4.55664 8.46875 4.55664C8.05859 4.55664 7.76562 4.87891 7.76562 5.25977ZM8.46875 12.5254C8.9668 12.5254 9.37695 12.1152 9.37695 11.6172C9.37695 11.1191 8.9668 10.709 8.46875 10.709C7.94141 10.709 7.53125 11.1191 7.53125 11.6172C7.53125 12.1152 7.94141 12.5254 8.46875 12.5254Z" fill="#DC2626"/>
</svg>
