<svg width="15" height="15" viewBox="0 0 15 15" fill="none" xmlns="http://www.w3.org/2000/svg">
<g clip-path="url(#clip0_7054_6417)">
<path d="M7.5 11.0938C7.75888 11.0938 7.96875 10.8839 7.96875 10.625V6.875C7.96875 6.61612 7.75888 6.40625 7.5 6.40625C7.24112 6.40625 7.03125 6.61612 7.03125 6.875V10.625C7.03125 10.8839 7.24112 11.0938 7.5 11.0938Z" fill="#1C274C"/>
<path d="M7.5 4.375C7.84519 4.375 8.125 4.65483 8.125 5C8.125 5.34518 7.84519 5.625 7.5 5.625C7.15481 5.625 6.875 5.34518 6.875 5C6.875 4.65483 7.15481 4.375 7.5 4.375Z" fill="#1C274C"/>
<path fill-rule="evenodd" clip-rule="evenodd" d="M0.78125 7.5C0.78125 3.78934 3.78934 0.78125 7.5 0.78125C11.2107 0.78125 14.2188 3.78934 14.2188 7.5C14.2188 11.2107 11.2107 14.2188 7.5 14.2188C3.78934 14.2188 0.78125 11.2107 0.78125 7.5ZM7.5 1.71875C4.30711 1.71875 1.71875 4.30711 1.71875 7.5C1.71875 10.6929 4.30711 13.2812 7.5 13.2812C10.6929 13.2812 13.2812 10.6929 13.2812 7.5C13.2812 4.30711 10.6929 1.71875 7.5 1.71875Z" fill="#1C274C"/>
</g>
<defs>
<clipPath id="clip0_7054_6417">
<rect width="15" height="15" fill="white"/>
</clipPath>
</defs>
</svg>
