<svg width="14" height="13" viewBox="0 0 14 13" fill="none" xmlns="http://www.w3.org/2000/svg">
<path d="M6.94834 0.428955C3.59929 0.428955 0.875 3.153 0.875 6.5023C0.875 9.85111 3.59904 12.5756 6.94834 12.5756C10.2972 12.5756 13.0217 9.85111 13.0217 6.5023C13.0214 3.153 10.2969 0.428955 6.94834 0.428955ZM7.68917 9.84715C7.68917 10.0198 7.6146 10.1766 7.46791 10.3126C7.32296 10.4472 7.12886 10.5151 6.8908 10.5151C6.64559 10.5151 6.44334 10.4477 6.29048 10.3141C6.13392 10.1781 6.0549 10.0208 6.0549 9.84715V9.5486C6.0549 9.375 6.13441 9.2177 6.29048 9.08163C6.44334 8.94853 6.64559 8.88111 6.8908 8.88111C7.12886 8.88111 7.32296 8.94951 7.46791 9.0836C7.6146 9.21967 7.68917 9.37648 7.68917 9.5486V9.84715ZM9.33432 5.37401C9.23825 5.56218 9.11552 5.72763 8.96933 5.86642C8.82586 6.00199 8.6693 6.12423 8.50335 6.23017C8.34456 6.33092 8.19516 6.44056 8.05934 6.5549C7.92624 6.66726 7.81487 6.7927 7.7277 6.92828C7.64472 7.05743 7.6025 7.21918 7.6025 7.40809V7.59577C7.6025 7.72023 7.5415 7.85037 7.42099 7.98396C7.299 8.11855 7.13577 8.1909 6.93674 8.19905L6.8955 8.20004C6.6935 8.20004 6.52903 8.14225 6.40655 8.02742C6.27517 7.90494 6.20875 7.7669 6.20875 7.61799C6.20875 7.2698 6.25715 6.97322 6.35296 6.73591C6.44803 6.50057 6.56533 6.29635 6.70263 6.12867C6.83944 5.96124 6.99353 5.81505 7.16047 5.69356C7.31999 5.57823 7.46717 5.4639 7.5983 5.355C7.72498 5.2493 7.83388 5.13645 7.92229 5.02063C8.00329 4.91321 8.04305 4.78307 8.04305 4.62355C8.04305 4.3603 7.97168 4.17164 7.82401 4.04718C7.67485 3.92074 7.46791 3.85679 7.20986 3.85679C7.03798 3.85679 6.89031 3.8674 6.77128 3.88864C6.65497 3.90914 6.5478 3.94371 6.45174 3.99162C6.35691 4.03854 6.26777 4.10422 6.18627 4.18571C6.10083 4.27116 6.01094 4.37907 5.91859 4.50699C5.83561 4.62379 5.71239 4.71195 5.55311 4.76924C5.38963 4.82826 5.20813 4.81246 5.01872 4.72183C4.84858 4.63688 4.74461 4.526 4.70905 4.39142C4.67572 4.26795 4.67572 4.1383 4.70856 4.00693C4.73276 3.89506 4.79968 3.75702 4.91352 3.58836C5.0249 3.42291 5.18368 3.26214 5.38568 3.10978C5.58669 2.95816 5.84179 2.82555 6.14232 2.7164C6.44532 2.607 6.80783 2.55144 7.22072 2.55144C7.62769 2.55144 7.98082 2.61293 8.26974 2.73467C8.56015 2.85716 8.79746 3.02039 8.97452 3.22041C9.15108 3.42019 9.28122 3.6496 9.36173 3.90247C9.44124 4.15287 9.48174 4.41414 9.48174 4.67936C9.48174 4.94828 9.43211 5.18263 9.33432 5.37401Z" fill="#A3A5AA"/>
</svg>
