<svg width="14" height="14" viewBox="0 0 14 14" fill="none" xmlns="http://www.w3.org/2000/svg">
<path d="M8.47192 4.64573C8.27895 4.50148 8.05445 4.39112 7.79855 4.31468C7.54242 4.23841 7.27483 4.2002 6.99545 4.2002C6.7027 4.2002 6.43012 4.23994 6.17742 4.31898C5.92453 4.39824 5.70346 4.5099 5.51393 4.65418C5.32439 4.79846 5.1748 4.97663 5.06509 5.1887C4.95529 5.40082 4.90039 5.63706 4.90039 5.89709H6.19738C6.19738 5.69925 6.26374 5.53232 6.39679 5.39647C6.52975 5.26084 6.7293 5.19305 6.99542 5.19305C7.24811 5.19305 7.44591 5.25956 7.589 5.39237C7.73195 5.5254 7.80346 5.69087 7.80346 5.88869C7.80346 5.98503 7.7751 6.08112 7.71861 6.17723C7.66213 6.27356 7.59394 6.36685 7.51409 6.45711L6.88927 7.13781C6.75622 7.28489 6.39676 7.71042 6.39676 8.14556V8.4002H7.69369V8.22202C7.69369 8.14858 7.71021 8.07214 7.74362 7.99286C7.77674 7.91382 7.93327 7.7203 7.98661 7.66371L8.61155 6.95774C8.75121 6.79943 8.86739 6.63681 8.96073 6.46986C9.05378 6.30313 9.10039 6.11221 9.10039 5.89712C9.10039 5.62566 9.04379 5.38524 8.93075 5.17598C8.81766 4.96668 8.66469 4.78978 8.47192 4.64573Z" fill="black"/>
<path d="M7.6998 9.1001H6.2998V10.5001H7.6998V9.1001Z" fill="black"/>
<path d="M7 0C3.13395 0 0 3.134 0 7C0 10.866 3.13395 14 7 14C10.8659 14 14 10.866 14 7C14 3.134 10.8659 0 7 0ZM7 12.25C4.10509 12.25 1.75 9.89486 1.75 7C1.75 4.10514 4.10509 1.75 7 1.75C9.8948 1.75 12.25 4.10514 12.25 7C12.25 9.89486 9.8948 12.25 7 12.25Z" fill="black"/>
</svg>
