<svg width="44" height="43" viewBox="0 0 44 43" fill="none" xmlns="http://www.w3.org/2000/svg">
<path d="M18.0511 33.9787C18.0511 33.9787 24.4048 34.5879 25.0141 34.762C25.7974 35.0231 26.7548 34.0657 26.9289 33.0213C26.0585 32.412 24.1437 31.6287 21.6196 30.4972C19.0956 29.2787 17.0937 28.6694 15.44 28.6694C14.1345 28.6694 13.003 28.9305 12.2197 29.2787C11.1752 29.7139 1.16602 33.9787 1.16602 33.9787L4.90859 41.5509L11.4363 37.4601C11.4363 37.4601 19.8789 40.0712 21.5326 40.7675C22.49 41.1157 23.2733 41.3768 24.1437 41.3768C24.927 41.3768 25.7974 41.2027 26.9289 40.7675C29.54 39.7231 42.5955 32.2379 42.5955 32.2379C42.5955 32.2379 41.8992 30.4102 39.7233 30.4102C39.4622 30.4102 39.201 30.4102 38.9399 30.4972C36.4159 30.9324 30.1492 34.2398 28.6696 34.762" stroke="#2947F2" stroke-width="2" stroke-miterlimit="10" stroke-linecap="round" stroke-linejoin="round"/>
<path d="M24.1448 22.1417C29.7208 22.1417 34.2411 17.6215 34.2411 12.0455C34.2411 6.46947 29.7208 1.94922 24.1448 1.94922C18.5688 1.94922 14.0486 6.46947 14.0486 12.0455C14.0486 17.6215 18.5688 22.1417 24.1448 22.1417Z" stroke="#2947F2" stroke-width="2" stroke-miterlimit="10" stroke-linecap="round" stroke-linejoin="round"/>
<path d="M27.7129 9.0857C27.7129 9.0857 27.3648 7.51904 24.1444 7.51904C21.6204 7.51904 20.5759 8.91163 20.5759 10.0431C20.5759 11.2616 22.0555 12.132 24.1444 12.132C26.9296 12.132 27.7129 13.0894 27.7129 14.2209C27.7129 15.7875 25.9722 16.7449 24.1444 16.7449C22.3167 16.7449 20.837 15.7005 20.5759 15.1783" stroke="#FF6805" stroke-width="2" stroke-miterlimit="10" stroke-linecap="round" stroke-linejoin="round"/>
<path d="M24.1443 5.77881V18.3121" stroke="#FF6805" stroke-width="2" stroke-miterlimit="10" stroke-linecap="round" stroke-linejoin="round"/>
</svg>
