<svg width="14" height="18" viewBox="0 0 14 18" fill="none" xmlns="http://www.w3.org/2000/svg">
<path d="M2.31891 1.63354L1.31891 2.56372C1.11553 2.75291 1 3.01816 1 3.29593V14.7041C1 14.9818 1.11553 15.2471 1.31891 15.4363L2.31891 16.3665C2.70277 16.7235 3.29722 16.7235 3.68109 16.3665L4.31891 15.7732C4.70277 15.4161 5.29722 15.4161 5.68109 15.7732L6.31891 16.3665C6.70277 16.7235 7.29722 16.7235 7.68109 16.3665L8.31891 15.7732C8.70278 15.4161 9.29722 15.4161 9.68109 15.7732L10.3189 16.3665C10.7028 16.7235 11.2972 16.7235 11.6811 16.3665L12.6811 15.4363C12.8845 15.2471 13 14.9818 13 14.7041V3.29593C13 3.01816 12.8845 2.75291 12.6811 2.56372L11.6811 1.63354C11.2972 1.27648 10.7028 1.27647 10.3189 1.63354L9.68109 2.22684C9.29723 2.5839 8.70278 2.5839 8.31891 2.22684L7.68109 1.63354C7.29723 1.27648 6.70278 1.27647 6.31891 1.63354L5.68109 2.22684C5.29723 2.5839 4.70278 2.5839 4.31891 2.22684L3.68109 1.63354C3.29723 1.27648 2.70278 1.27647 2.31891 1.63354Z" stroke="#C6C8CC" stroke-width="2" stroke-linecap="round"/>
</svg>
