<svg width="16" height="22" viewBox="0 0 16 22" fill="none" xmlns="http://www.w3.org/2000/svg">
<path d="M7.9992 11.0005C6.74243 11.0005 5.72461 10.1682 5.72461 9.14258C5.72461 8.1169 6.74243 7.28467 7.9992 7.28467C9.25597 7.28467 10.2739 8.11562 10.2739 9.14258" stroke="#FF6805" stroke-linecap="round" stroke-linejoin="round"/>
<path d="M7.9992 11.001C9.25468 11.001 10.2739 11.8319 10.2739 12.8589C10.2739 13.8858 9.25468 14.7141 7.9992 14.7141C6.74379 14.7141 5.72461 13.8819 5.72461 12.8562" stroke="#FF6805" stroke-linecap="round" stroke-linejoin="round"/>
<path d="M8 6.28809V15.7113" stroke="#FF6805" stroke-linecap="round" stroke-linejoin="round"/>
<path d="M2.43933 1.27156L1.01262 2.69827C0.825083 2.88581 0.719727 3.14016 0.719727 3.40538V18.5942C0.719727 18.8595 0.825083 19.1138 1.01262 19.3014L2.43933 20.7281C2.82985 21.1186 3.46302 21.1186 3.85354 20.7281L4.86604 19.7156C5.25656 19.325 5.88973 19.325 6.28025 19.7156L7.29275 20.7281C7.68327 21.1186 8.31644 21.1186 8.70696 20.7281L9.71946 19.7156C10.11 19.325 10.7431 19.325 11.1337 19.7156L12.1462 20.7281C12.5367 21.1186 13.1699 21.1186 13.5604 20.7281L14.9871 19.3014C15.1746 19.1138 15.28 18.8595 15.28 18.5942V3.40538C15.28 3.14016 15.1746 2.88581 14.9871 2.69827L13.5604 1.27156C13.1699 0.881036 12.5367 0.881036 12.1462 1.27156L11.1337 2.28406C10.7431 2.67458 10.11 2.67458 9.71946 2.28406L8.70696 1.27156C8.31644 0.881036 7.68327 0.881036 7.29275 1.27156L6.28025 2.28406C5.88973 2.67458 5.25656 2.67458 4.86604 2.28406L3.85354 1.27156C3.46302 0.881036 2.82985 0.881036 2.43933 1.27156Z" stroke="#2947F2" stroke-linecap="round" stroke-linejoin="round"/>
</svg>
