<svg width="22" height="26" viewBox="0 0 22 26" fill="none" xmlns="http://www.w3.org/2000/svg">
<g id="7935ec95c421cee6d86eb22ecd114eed">
<path id="Vector" d="M10.7188 6.76136C10.4587 5.34336 11.1292 3.88408 11.9366 2.90065C12.8265 1.81555 14.3537 0.983415 15.6588 0.891968C15.8792 2.37865 15.2725 3.82714 14.4739 4.85172C13.6172 5.95242 12.1442 6.80599 10.7188 6.76136ZM18.3739 11.8995C18.7777 10.7729 19.5778 9.75916 20.8189 9.07521C19.5647 7.51012 17.8038 6.60147 16.142 6.60147C13.9434 6.60147 13.0138 7.64896 11.4867 7.64896C9.9136 7.64896 8.72017 6.60147 6.81577 6.60147C4.94832 6.60147 2.9605 7.73969 1.69981 9.6836C1.23628 10.4021 0.922276 11.2948 0.751028 12.2891C0.275849 15.0782 0.985659 18.7112 3.10301 21.937C4.13251 23.5023 5.50473 25.2654 7.2974 25.2808C8.89433 25.2964 9.34736 24.2598 11.5092 24.2491C13.6742 24.2368 14.0846 25.2915 15.6793 25.2763C17.4725 25.2612 18.9203 23.3099 19.9498 21.7448C20.6828 20.6217 20.9601 20.0544 21.5301 18.7846C18.6317 17.6916 17.4396 14.4978 18.3739 11.8995Z" fill="black" fill-opacity="0.8"/>
</g>
</svg>
