<svg width="29" height="29" viewBox="0 0 29 29" fill="none" xmlns="http://www.w3.org/2000/svg">
<path d="M14.4531 28.0195C22.1851 28.0195 28.4531 21.7515 28.4531 14.0195C28.4531 6.28754 22.1851 0.0195312 14.4531 0.0195312C6.72114 0.0195312 0.453125 6.28754 0.453125 14.0195C0.453125 21.7515 6.72114 28.0195 14.4531 28.0195Z" fill="#68E8E8"/>
<path d="M14.4527 24.9835C20.506 24.9835 25.4132 20.0763 25.4132 14.023C25.4132 7.96969 20.506 3.0625 14.4527 3.0625C8.39937 3.0625 3.49219 7.96969 3.49219 14.023C3.49219 20.0763 8.39937 24.9835 14.4527 24.9835Z" fill="#CEF8F8"/>
<path d="M18.1501 14.5745V13.1871H16.1043L18.7599 8.54883H16.7989L14.4482 12.8227L12.1173 8.54883H10.1562L12.8119 13.1871H10.7516V14.5745H13.6291V15.4043H10.7516V16.7863H13.6291V19.1298H15.3015V16.7863H18.1501V15.4043H15.3015V14.5745H18.1501Z" fill="#4DD6D6"/>
<path fill-rule="evenodd" clip-rule="evenodd" d="M14.7422 26.5569C14.6571 27.4045 13.901 28.0226 13.0534 27.9375C9.82173 27.613 6.80344 26.175 4.51555 23.8697C2.22766 21.5643 0.812571 18.5352 0.51268 15.3012C0.434026 14.453 1.05787 13.7016 1.90608 13.6229C2.75429 13.5443 3.50567 14.1681 3.58432 15.0163C3.81813 17.5377 4.92139 19.8993 6.70511 21.6967C8.48884 23.494 10.842 24.6151 13.3615 24.8681C14.2091 24.9532 14.8273 25.7093 14.7422 26.5569Z" fill="#4DD6D6"/>
<path fill-rule="evenodd" clip-rule="evenodd" d="M15.3497 1.48877C15.5143 0.652978 16.3253 0.108887 17.1611 0.273509C20.3432 0.900268 23.2089 2.61246 25.2688 5.11758C27.3286 7.6227 28.4547 10.7653 28.4547 14.0085C28.4547 14.8604 27.7641 15.5509 26.9123 15.5509C26.0604 15.5509 25.3699 14.8604 25.3699 14.0085C25.3699 11.48 24.4919 9.02989 22.886 7.0768C21.2801 5.12371 19.0458 3.78882 16.5649 3.30018C15.7291 3.13556 15.1851 2.32456 15.3497 1.48877Z" fill="#ACF9F9"/>
</svg>
