<svg width="25" height="25" viewBox="0 0 25 25" fill="none" xmlns="http://www.w3.org/2000/svg">
<g id="material-symbols-light:search-rounded">
<path id="Vector" d="M10.3453 15.9801C8.74659 15.9801 7.39159 15.4248 6.28026 14.3141C5.16959 13.2041 4.61426 11.8495 4.61426 10.2501C4.61426 8.65081 5.16959 7.29581 6.28026 6.18514C7.39092 5.07448 8.74592 4.51948 10.3453 4.52014C11.9446 4.52081 13.2993 5.07614 14.4093 6.18614C15.5193 7.29614 16.0746 8.65081 16.0753 10.2501C16.0753 10.9448 15.9523 11.6171 15.7063 12.2671C15.4603 12.9171 15.1369 13.4731 14.7363 13.9351L20.6453 19.8421C20.7386 19.9355 20.7886 20.0505 20.7953 20.1871C20.8013 20.3225 20.7513 20.4435 20.6453 20.5501C20.5386 20.6568 20.4206 20.7101 20.2913 20.7101C20.1619 20.7101 20.0439 20.6568 19.9373 20.5501L14.0293 14.6421C13.5293 15.0681 12.9543 15.3978 12.3043 15.6311C11.6543 15.8645 11.0009 15.9811 10.3443 15.9811M10.3443 14.9811C11.6709 14.9811 12.7913 14.5245 13.7053 13.6111C14.6186 12.6978 15.0753 11.5775 15.0753 10.2501C15.0753 8.92281 14.6189 7.80281 13.7063 6.89014C12.7936 5.97748 11.6736 5.52081 10.3463 5.52014C9.01892 5.52014 7.89859 5.97681 6.98526 6.89014C6.07192 7.80348 5.61492 8.92348 5.61426 10.2501C5.61359 11.5768 6.07026 12.6968 6.98426 13.6101C7.89826 14.5235 9.01826 14.9801 10.3443 14.9801" fill="black"/>
</g>
</svg>
