<svg width="138" height="117" viewBox="0 0 138 117" fill="none" xmlns="http://www.w3.org/2000/svg">
<g id="Group 240659">
<path id="Vector" d="M87.4442 0.502714C68.742 -1.9166 53.4138 7.29738 36.9095 22.8084C23.5165 35.3854 1.76581 36.2147 0.481324 56.267C-1.07719 80.6775 39.3757 82.6392 51.2901 94.4384C82.9628 125.895 123.969 121.726 134.565 92.8484C144.002 67.1453 128.639 55.1746 123.222 38.6341C115.383 14.7898 107.18 3.05357 87.4442 0.502714Z" fill="#DBEAFE"/>
<path id="Vector_2" d="M61.2125 72.9047L42.7044 96.1255C41.7119 97.3611 40.2719 98.1533 38.6986 98.329C37.1253 98.5047 35.5464 98.0498 34.3067 97.0635V97.0635C33.0721 96.069 32.2802 94.6257 32.1038 93.0485C31.9273 91.4713 32.3806 89.8882 33.3647 88.6445L51.8728 65.4294" fill="white"/>
<path id="Vector_3" d="M77.5347 82.1589C94.3176 82.1589 107.923 68.5285 107.923 51.7145C107.923 34.9005 94.3176 21.27 77.5347 21.27C60.7518 21.27 47.1465 34.9005 47.1465 51.7145C47.1465 68.5285 60.7518 82.1589 77.5347 82.1589Z" fill="white"/>
<path id="Vector_4" d="M63.9691 78.4926L45.4667 101.708C44.4741 102.945 43.0329 103.738 41.4582 103.914C39.8835 104.09 38.3034 103.634 37.0633 102.646V102.646C35.8283 101.651 35.0365 100.207 34.8611 98.6297C34.6857 97.0521 35.1408 95.4691 36.1271 94.2267L55.9139 69.3301" fill="white"/>
<path id="Vector_5" d="M50.7649 25.5651C46.2694 31.1854 43.8126 38.1688 43.7969 45.3711C43.7813 52.5733 46.2079 59.5673 50.679 65.2071C55.1501 70.8469 61.4006 74.7981 68.4064 76.4133C75.4123 78.0285 82.758 77.2119 89.2399 74.0973C95.7219 70.9827 100.956 65.7548 104.084 59.2702C107.212 52.7856 108.049 45.4288 106.458 38.4052C104.867 31.3816 100.942 25.1077 95.3257 20.6114C89.7097 16.1152 82.736 13.6632 75.547 13.6573C70.7864 13.6355 66.0828 14.6958 61.7902 16.7583C57.4977 18.8209 53.728 21.832 50.7649 25.5651V25.5651ZM75.547 16.2539C82.1334 16.265 88.5209 18.5162 93.6636 22.6389C98.8063 26.7615 102.399 32.5113 103.855 38.9468C105.31 45.3823 104.541 52.1222 101.674 58.0628C98.8069 64.0034 94.0115 68.7927 88.073 71.6466C82.1344 74.5005 75.4047 75.2497 68.9856 73.7717C62.5666 72.2937 56.8386 68.6761 52.7396 63.511C48.6406 58.346 46.4135 51.9397 46.423 45.3411C46.4324 38.7425 48.6778 32.3427 52.7916 27.1894C55.5225 23.773 58.986 21.0161 62.9251 19.1231C66.8643 17.2301 71.1781 16.2495 75.547 16.2539V16.2539Z" fill="#2947F2"/>
<path id="Vector_6" d="M38.0163 99.3513C36.7083 99.3456 35.4283 98.9709 34.323 98.2703C33.2176 97.5696 32.3315 96.5713 31.7662 95.3895C31.2008 94.2078 30.9791 92.8905 31.1263 91.5884C31.2735 90.2862 31.7837 89.052 32.5986 88.0269L51.101 64.8118L52.6424 66.0414L34.1343 89.2623C33.3403 90.302 32.9846 91.612 33.1435 92.9114C33.3023 94.2108 33.963 95.3961 34.9839 96.2132C36.0049 97.0302 37.3047 97.414 38.6047 97.2821C39.9048 97.1503 41.1015 96.5133 41.9383 95.5079L60.4406 72.2928L61.982 73.5224L43.4739 96.7547C42.9036 97.4712 42.1973 98.0676 41.3959 98.5093C40.5944 98.951 39.7135 99.2294 38.8041 99.3284C38.5421 99.3503 38.2791 99.358 38.0163 99.3513Z" fill="#2947F2"/>
<path id="Vector_7" d="M72.7463 44.1246L63.9199 51.1533L65.451 53.083L74.2773 46.0543L72.7463 44.1246Z" fill="#2947F2"/>
<path id="Vector_8" d="M65.4526 44.1225L63.9219 46.0525L72.7494 53.0797L74.2801 51.1497L65.4526 44.1225Z" fill="#2947F2"/>
<path id="Vector_9" d="M72.8542 67.0138C72.5467 67.0131 72.2471 66.9164 71.9971 66.7371C71.747 66.5579 71.5589 66.305 71.4591 66.0136C71.3592 65.7222 71.3525 65.407 71.4398 65.1116C71.5272 64.8162 71.7043 64.5555 71.9465 64.3657C74.2906 62.5848 77.1416 61.6015 80.0831 61.5593C83.0247 61.5171 85.9027 62.4183 88.2966 64.1312C88.5727 64.3728 88.7489 64.7089 88.7908 65.0738C88.8327 65.4387 88.7373 65.8061 88.5232 66.1042C88.3091 66.4023 87.9917 66.6098 87.6331 66.686C87.2745 66.7622 86.9004 66.7016 86.584 66.5162C84.7515 65.2067 82.5551 64.5066 80.3043 64.5144C77.9515 64.5004 75.6605 65.2688 73.7905 66.6992C73.5238 66.9089 73.1931 67.02 72.8542 67.0138V67.0138Z" fill="#2947F2"/>
<path id="Vector_10" d="M94.6955 44.1273L85.8691 51.156L87.4002 53.0857L96.2265 46.057L94.6955 44.1273Z" fill="#2947F2"/>
<path id="Vector_11" d="M87.4018 44.1206L85.8711 46.0505L94.6986 53.0777L96.2293 51.1478L87.4018 44.1206Z" fill="#2947F2"/>
<path id="Vector_12" opacity="0.1" d="M60.589 39.9379C60.3186 39.937 60.0537 39.8619 59.823 39.7207C59.5923 39.5795 59.4047 39.3776 59.2805 39.137C59.1563 38.8965 59.1003 38.6264 59.1186 38.3561C59.137 38.0859 59.2289 37.8259 59.3844 37.6044C59.687 37.1754 59.9953 36.7579 60.3264 36.3461C64.5558 31.0236 70.71 27.5873 77.4529 26.7832C77.6452 26.7596 77.8403 26.7741 78.027 26.826C78.2137 26.8778 78.3883 26.966 78.541 27.0855C78.6937 27.205 78.8214 27.3535 78.9168 27.5224C79.0122 27.6913 79.0735 27.8775 79.0971 28.0701C79.1207 28.2628 79.1062 28.4582 79.0544 28.6452C79.0026 28.8323 78.9146 29.0073 78.7953 29.1602C78.6761 29.3132 78.5279 29.4411 78.3593 29.5367C78.1906 29.6323 78.0049 29.6936 77.8126 29.7173C71.8416 30.4367 66.394 33.4841 62.6499 38.1992C62.3587 38.5595 62.079 38.9313 61.8164 39.3088C61.6786 39.506 61.4946 39.6664 61.2807 39.7761C61.0668 39.8857 60.8293 39.9413 60.589 39.9379V39.9379Z" fill="#2947F2"/>
</g>
</svg>
