<svg width="138" height="117" viewBox="0 0 138 117" fill="none" xmlns="http://www.w3.org/2000/svg">
<g id="Group 240659">
<path id="Vector" d="M87.4432 0.526945C68.741 -1.89237 53.4128 7.32161 36.9085 22.8327C23.5156 35.4097 1.76484 36.239 0.480347 56.2912C-1.07817 80.7017 39.3747 82.6635 51.2891 94.4626C82.9618 125.919 123.968 121.75 134.564 92.8726C144.001 67.1696 128.638 55.1988 123.221 38.6583C115.382 14.814 107.179 3.0778 87.4432 0.526945Z" fill="#DBEAFE"/>
<path id="Vector_2" d="M61.2115 72.9289L42.7034 96.1498C41.711 97.3854 40.2709 98.1775 38.6976 98.3532C37.1243 98.529 35.5454 98.074 34.3057 97.0877V97.0877C33.0712 96.0932 32.2793 94.65 32.1028 93.0728C31.9263 91.4956 32.3796 89.9124 33.3638 88.6688L51.8718 65.4537" fill="white"/>
<path id="Vector_3" d="M77.5337 82.183C94.3167 82.183 107.922 68.5526 107.922 51.7386C107.922 34.9245 94.3167 21.2941 77.5337 21.2941C60.7508 21.2941 47.1455 34.9245 47.1455 51.7386C47.1455 68.5526 60.7508 82.183 77.5337 82.183Z" fill="white"/>
<path id="Vector_4" d="M63.9691 78.5169L45.4667 101.732C44.4741 102.969 43.0329 103.763 41.4582 103.938C39.8835 104.114 38.3034 103.658 37.0633 102.67V102.67C35.8283 101.676 35.0365 100.232 34.8611 98.6541C34.6857 97.0764 35.1408 95.4934 36.1271 94.251L55.9139 69.3544" fill="white"/>
<path id="Vector_5" d="M50.7639 25.5893C46.2684 31.2096 43.8116 38.193 43.796 45.3952C43.7804 52.5975 46.2069 59.5915 50.678 65.2313C55.1491 70.8711 61.3996 74.8223 68.4055 76.4375C75.4113 78.0527 82.757 77.2361 89.239 74.1215C95.7209 71.0069 100.955 65.779 104.083 59.2944C107.211 52.8098 108.048 45.453 106.457 38.4294C104.866 31.4058 100.941 25.1318 95.3248 20.6356C89.7088 16.1394 82.735 13.6874 75.546 13.6815C70.7854 13.6597 66.0818 14.7199 61.7892 16.7825C57.4967 18.8451 53.727 21.8562 50.7639 25.5893V25.5893ZM75.546 16.2781C82.1324 16.2892 88.5199 18.5404 93.6626 22.663C98.8053 26.7857 102.398 32.5355 103.854 38.971C105.309 45.4065 104.54 52.1464 101.673 58.087C98.8059 64.0276 94.0105 68.8169 88.072 71.6708C82.1335 74.5246 75.4037 75.2739 68.9846 73.7959C62.5656 72.3179 56.8376 68.7002 52.7386 63.5352C48.6397 58.3702 46.4125 51.9639 46.422 45.3653C46.4314 38.7667 48.6768 32.3669 52.7906 27.2136C55.5216 23.7972 58.985 21.0403 62.9241 19.1473C66.8633 17.2542 71.1772 16.2736 75.546 16.2781V16.2781Z" fill="#2947F2"/>
<path id="Vector_6" d="M38.0153 99.3755C36.7073 99.3698 35.4273 98.9952 34.322 98.2945C33.2166 97.5938 32.3305 96.5955 31.7652 95.4138C31.1999 94.2321 30.9781 92.9147 31.1253 91.6126C31.2725 90.3105 31.7828 89.0762 32.5976 88.0511L51.1 64.836L52.6414 66.0657L34.1333 89.2865C33.3393 90.3262 32.9836 91.6362 33.1425 92.9356C33.3013 94.235 33.962 95.4203 34.983 96.2374C36.0039 97.0544 37.3037 97.4382 38.6038 97.3063C39.9038 97.1745 41.1005 96.5376 41.9373 95.5321L60.4397 72.317L61.9811 73.5467L43.473 96.7789C42.9026 97.4955 42.1964 98.0918 41.3949 98.5335C40.5934 98.9753 39.7125 99.2537 38.8031 99.3527C38.5411 99.3745 38.2781 99.3822 38.0153 99.3755Z" fill="#2947F2"/>
<path id="Vector_7" d="M72.7463 44.1488L63.9199 51.1776L65.451 53.1073L74.2773 46.0786L72.7463 44.1488Z" fill="#2947F2"/>
<path id="Vector_8" d="M65.4516 44.1469L63.9209 46.0768L72.7484 53.104L74.2791 51.1741L65.4516 44.1469Z" fill="#2947F2"/>
<path id="Vector_9" d="M72.8523 67.038C72.5448 67.0373 72.2452 66.9406 71.9951 66.7614C71.745 66.5821 71.557 66.3292 71.4571 66.0378C71.3572 65.7465 71.3505 65.4312 71.4379 65.1358C71.5253 64.8405 71.7024 64.5797 71.9445 64.3899C74.2886 62.6091 77.1396 61.6257 80.0812 61.5835C83.0227 61.5413 85.9007 62.4425 88.2947 64.1554C88.5708 64.3971 88.747 64.7332 88.7889 65.098C88.8308 65.4629 88.7353 65.8303 88.5213 66.1284C88.3072 66.4266 87.9898 66.634 87.6312 66.7102C87.2726 66.7864 86.8985 66.7259 86.582 66.5404C84.7496 65.231 82.5531 64.5308 80.3023 64.5386C77.9495 64.5246 75.6586 65.293 73.7885 66.7235C73.5218 66.9331 73.1912 67.0442 72.8523 67.038V67.038Z" fill="#2947F2"/>
<path id="Vector_10" d="M94.6955 44.1517L85.8691 51.1804L87.4002 53.1101L96.2265 46.0814L94.6955 44.1517Z" fill="#2947F2"/>
<path id="Vector_11" d="M87.4008 44.1448L85.8701 46.0748L94.6977 53.102L96.2284 51.172L87.4008 44.1448Z" fill="#2947F2"/>
<path id="Vector_12" opacity="0.1" d="M60.588 39.9622C60.3177 39.9614 60.0527 39.8862 59.822 39.745C59.5913 39.6038 59.4037 39.402 59.2795 39.1614C59.1553 38.9208 59.0993 38.6507 59.1177 38.3805C59.136 38.1103 59.2279 37.8503 59.3834 37.6287C59.686 37.1998 59.9943 36.7822 60.3254 36.3704C64.5548 31.048 70.709 27.6117 77.4519 26.8076C77.6442 26.7839 77.8393 26.7985 78.026 26.8503C78.2127 26.9022 78.3874 26.9904 78.54 27.1099C78.6927 27.2294 78.8204 27.3778 78.9158 27.5468C79.0112 27.7157 79.0725 27.9018 79.0961 28.0945C79.1197 28.2871 79.1052 28.4825 79.0534 28.6696C79.0017 28.8566 78.9136 29.0316 78.7944 29.1846C78.6751 29.3375 78.5269 29.4655 78.3583 29.561C78.1897 29.6566 78.0039 29.718 77.8116 29.7417C71.8406 30.4611 66.393 33.5084 62.6489 38.2235C62.3578 38.5839 62.078 38.9556 61.8154 39.3331C61.6776 39.5303 61.4937 39.6908 61.2797 39.8004C61.0658 39.9101 60.8283 39.9657 60.588 39.9622V39.9622Z" fill="#2947F2"/>
</g>
</svg>
