<svg width="18" height="16" viewBox="0 0 18 16" fill="none" xmlns="http://www.w3.org/2000/svg">
<path fill-rule="evenodd" clip-rule="evenodd" d="M8.73151 0.934498C9.08947 1.29248 9.08947 1.87288 8.73151 2.23087L3.87969 7.08268H16.3333C16.8396 7.08268 17.25 7.49307 17.25 7.99935C17.25 8.50562 16.8396 8.91602 16.3333 8.91602H3.87969L8.73151 13.7678C9.08947 14.1258 9.08947 14.7062 8.73151 15.0642C8.37355 15.4221 7.79312 15.4221 7.43516 15.0642L1.01848 8.64752C0.84658 8.47565 0.75 8.24245 0.75 7.99935C0.75 7.75625 0.84658 7.52305 1.01848 7.35117L7.43516 0.934498C7.79312 0.576521 8.37355 0.576521 8.73151 0.934498Z" fill="black"/>
</svg>
