<svg width="14" height="15" viewBox="0 0 14 15" fill="none" xmlns="http://www.w3.org/2000/svg">
<g id="light-bulb_svgrepo.com" clip-path="url(#clip0_16860_33073)">
<g id="Group">
<g id="Group_2">
<path id="Vector" d="M6.17278 12.646H3.25977V12.9312H6.17278V12.646Z" fill="#7A7A77"/>
<path id="Vector_2" d="M6.09645 13.4546L6.02289 13.512L5.65091 13.8023H3.78385L3.42453 13.512L3.35352 13.4546H6.09645Z" fill="#7A7A77"/>
<path id="Vector_3" d="M6.17278 11.8354H3.25977V12.1225H6.17278V11.8354Z" fill="#7A7A77"/>
<path id="Vector_4" d="M6.17278 11.6118V11.8858H3.25977V11.6118C3.94191 11.6118 4.71721 11.6118 4.71721 11.6118C4.71721 11.6118 5.49066 11.6118 6.17278 11.6118Z" fill="#646363"/>
<path id="Vector_5" d="M6.17278 11.062H3.25977V11.3472H6.17278V11.062Z" fill="#7A7A77"/>
<path id="Vector_6" d="M6.17278 10.8384V11.1124H3.25977V10.8384C3.94191 10.8384 4.71721 10.8384 4.71721 10.8384C4.71721 10.8384 5.49066 10.8384 6.17278 10.8384Z" fill="#646363"/>
<path id="Vector_7" d="M6.17278 12.4189V12.6929H3.25977V12.4189C3.94191 12.4189 4.71721 12.4189 4.71721 12.4189C4.71721 12.4189 5.49066 12.4189 6.17278 12.4189Z" fill="#646363"/>
<path id="Vector_8" d="M6.09645 13.4546L6.02289 13.512H3.42453L3.35352 13.4546H6.09645Z" fill="#646363"/>
<path id="Vector_9" d="M6.54934 11.5129V11.6359C6.54934 11.7459 6.42632 11.8353 6.27536 11.8353H3.15735C3.00825 11.8353 2.88525 11.7459 2.88525 11.6359V11.5129C2.88525 11.4029 3.00827 11.3135 3.15735 11.3135H6.27539C6.42632 11.3135 6.54934 11.4029 6.54934 11.5129Z" fill="#E7E2E0"/>
<path id="Vector_10" d="M6.54934 12.322V12.445C6.54934 12.5549 6.42632 12.6463 6.27536 12.6463H3.15735C3.00825 12.6463 2.88525 12.5549 2.88525 12.445V12.322C2.88525 12.212 3.00827 12.1226 3.15735 12.1226H6.27539C6.42632 12.1226 6.54934 12.212 6.54934 12.322Z" fill="#E7E2E0"/>
<path id="Vector_11" d="M6.54934 13.1306V13.2554C6.54934 13.3654 6.42632 13.4549 6.27536 13.4549H3.15735C3.00825 13.4549 2.88525 13.3654 2.88525 13.2554V13.1306C2.88525 13.1175 2.88711 13.1026 2.89086 13.0896C2.91695 13.0001 3.02692 12.9312 3.15738 12.9312H6.27541C6.42632 12.9312 6.54934 13.0206 6.54934 13.1306Z" fill="#E7E2E0"/>
<path id="Vector_12" d="M5.58886 13.751H3.86202H3.68213C3.68213 14.1732 4.14897 14.5154 4.72486 14.5154C5.30074 14.5154 5.76758 14.1731 5.76758 13.751H5.58886Z" fill="#867063"/>
<path id="Vector_13" d="M9.3783 5.20429C9.3783 6.49959 8.85459 7.67187 8.00475 8.52172C7.15676 9.36973 6.64048 9.65115 6.56595 11.0136H6.17269C5.78689 11.0136 5.30605 11.0136 5.30605 11.0136H4.07228C4.07228 11.0136 3.63431 11.0136 3.2597 11.0136H2.81241C2.7472 9.83378 2.35208 9.46477 1.69791 8.83857C1.5954 8.73981 1.48731 8.63544 1.37361 8.52172C0.523715 7.67187 0 6.49962 0 5.20429C0 3.90896 0.523715 2.73671 1.37359 1.88872C2.22157 1.04071 3.39385 0.515137 4.68915 0.515137C5.72912 0.515137 6.69082 0.854363 7.46799 1.42836C7.65808 1.56814 7.83699 1.72283 8.00475 1.88872C8.06252 1.94461 8.11844 2.00425 8.17247 2.06391C8.27684 2.18133 8.3775 2.30435 8.47068 2.43106C9.04285 3.20825 9.3783 4.16621 9.3783 5.20429Z" fill="#EFE7BD"/>
<path id="Vector_14" opacity="0.2" d="M8.31039 2.22606L1.69414 8.84232C1.59348 8.73983 1.48539 8.63358 1.37359 8.52174C0.523715 7.67187 0 6.49962 0 5.20429C0 3.90896 0.523715 2.73671 1.37359 1.88872C2.22157 1.04071 3.39385 0.515137 4.68915 0.515137C5.72912 0.515137 6.69082 0.854363 7.46799 1.42836C7.65808 1.56814 7.83699 1.72283 8.00475 1.88872C8.06252 1.94461 8.11844 2.00425 8.17247 2.06391C8.21907 2.11797 8.26566 2.172 8.31039 2.22606Z" fill="white"/>
</g>
<path id="Vector_15" opacity="0.2" d="M2.77112 2.99347C3.27148 2.51634 3.46125 1.90318 3.19497 1.62395C2.9287 1.34471 2.30723 1.50514 1.80686 1.98227C1.3065 2.4594 1.11673 3.07256 1.38301 3.35179C1.64928 3.63103 2.27076 3.4706 2.77112 2.99347Z" fill="white"/>
</g>
</g>
<defs>
<clipPath id="clip0_16860_33073">
<rect width="14" height="14" fill="white" transform="translate(0 0.515137)"/>
</clipPath>
</defs>
</svg>
