<svg width="86" height="87" viewBox="0 0 86 87" fill="none" xmlns="http://www.w3.org/2000/svg">
<path d="M85.7539 43.8281C85.7539 32.9503 81.6162 22.4798 74.1803 14.5405C66.7443 6.60115 56.5668 1.78755 45.7123 1.07611C34.8578 0.364665 24.139 3.80865 15.7304 10.7095C7.32171 17.6103 1.85278 27.4512 0.43294 38.2359C-0.986897 49.0206 1.74868 59.9417 8.08476 68.7837C14.4208 77.6256 23.883 83.7265 34.5518 85.8486C45.2206 87.9708 56.2971 85.9553 65.5346 80.2111C74.772 74.4669 81.4787 65.424 84.294 54.9169L80.1557 53.808C77.6218 63.2645 71.5858 71.403 63.2721 76.5728C54.9584 81.7426 44.9895 83.5565 35.3876 81.6466C25.7857 79.7367 17.2698 74.2459 11.5673 66.2881C5.86483 58.3303 3.40281 48.5014 4.68066 38.7951C5.95851 29.0889 10.8806 20.2321 18.4483 14.0213C26.0161 7.8106 35.663 4.71101 45.4321 5.35131C55.2011 5.99161 64.3609 10.3238 71.0533 17.4692C77.7456 24.6146 81.4695 34.0381 81.4695 43.8281H85.7539Z" fill="#D9D9D9"/>
</svg>
