<svg width="37" height="42" viewBox="0 0 37 42" fill="none" xmlns="http://www.w3.org/2000/svg">
<g id="Layer_1" clip-path="url(#clip0_24610_15528)">
<path id="Vector" d="M24.4828 4.96639C27.944 8.26188 31.3812 11.5905 34.8369 14.8952C35.2566 15.477 34.8442 16.3552 34.117 16.3699H3.58864C2.9277 16.3607 2.51899 15.6187 2.78226 15.0407C7.3849 10.4435 12.2048 6.03789 16.8608 1.47943C18.1127 0.411621 19.5543 0.3748 20.8154 1.45182C22.0765 2.52884 23.299 3.83967 24.4828 4.96823V4.96639ZM5.9857 14.5215H31.72C31.7568 14.3852 31.685 14.4239 31.6463 14.3889C27.6715 10.8743 23.9434 6.88293 20.0366 3.2671C19.8525 3.09588 19.453 2.68901 19.256 2.60432C18.6927 2.3613 18.4091 2.60984 18.0078 2.94491C16.616 4.10662 15.1983 5.68993 13.8617 6.96394C11.299 9.40702 8.69757 12.0563 6.0575 14.3889C6.01884 14.4239 5.94704 14.3852 5.98386 14.5215H5.9857Z" fill="#374151"/>
<path id="Vector_2" d="M26.7914 37.2331C22.8663 42.8557 14.4545 42.6587 10.7153 36.9404C7.13997 31.4743 9.9844 24.0438 16.2329 22.3151C24.9798 19.8959 32.0089 29.7621 26.7932 37.2313L26.7914 37.2331ZM24.4809 37.1172C28.4152 33.0503 26.8706 26.2273 21.5794 24.2868C15.0694 21.899 8.86136 28.5397 11.6874 34.8711C13.9298 39.8972 20.6349 41.092 24.4809 37.1172Z" fill="#374151"/>
<path id="Vector_3" d="M7.31118 18.2148H5.4646V28.3701H7.31118V18.2148Z" fill="#374151"/>
<path id="Vector_4" d="M32.2392 18.2148H30.3926V28.3701H32.2392V18.2148Z" fill="#374151"/>
<path id="Vector_5" d="M1.57096 35.7565C0.67252 35.6074 0.582309 34.1364 1.53966 33.9357L7.50836 33.9062L8.06252 35.7565H1.57096Z" fill="#374151"/>
<path id="Vector_6" d="M29.6433 35.7565L30.1975 33.9062L36.1662 33.9357C36.9302 34.129 37.1162 35.1766 36.4497 35.6092C36.4037 35.6387 36.1588 35.7565 36.1349 35.7565H29.6433Z" fill="#374151"/>
<path id="Vector_7" d="M11.0045 18.2148V23.2059L9.93673 24.329L9.15796 25.3692V18.2148H11.0045Z" fill="#374151"/>
<path id="Vector_8" d="M28.5462 18.2148V25.3692L27.2574 23.7159C27.0696 23.5999 26.9279 23.4232 26.7916 23.2593C26.7659 23.2299 26.7014 23.2391 26.7014 23.2354V18.2148H28.548H28.5462Z" fill="#374151"/>
<path id="Vector_9" d="M7.42726 30.2168C7.30391 30.8225 7.30575 31.4466 7.31127 32.0634H4.33981C3.98817 32.0634 3.6218 31.5111 3.61443 31.1686C3.60523 30.8041 3.96055 30.2168 4.33981 30.2168H7.42726Z" fill="#374151"/>
<path id="Vector_10" d="M30.3926 32.0634C30.4 31.4466 30.4 30.8243 30.2766 30.2168H33.3641C33.7157 30.2168 34.0821 30.7691 34.0894 31.1116C34.0968 31.454 33.7212 32.0634 33.3641 32.0634H30.3926Z" fill="#374151"/>
<path id="Vector_11" d="M17.7408 9.91857C18.1697 9.84676 19.3499 9.86149 19.8064 9.902C20.9976 10.0069 20.9553 11.605 19.9151 11.7449C19.4806 11.8038 18.2857 11.8001 17.842 11.7504C16.7448 11.6271 16.7521 10.0843 17.7408 9.91672V9.91857Z" fill="#003DFF"/>
<path id="Vector_12" d="M19.7864 27.3795C20.2522 27.5672 20.9057 27.8397 20.9831 28.4031C21.0825 29.134 20.486 29.6219 19.7753 29.4377C19.5747 29.3862 19.385 29.1745 19.1586 29.1321C18.4903 29.0088 17.7907 29.2555 17.9564 30.0453C18.1073 30.7652 19.5599 30.9437 20.162 31.2438C22.2994 32.308 22.0177 35.1874 19.8029 35.9256C19.7937 36.4724 19.6851 37.1094 19.0739 37.2733C18.1957 37.5071 17.7539 36.6216 17.9048 35.8704C17.2034 35.6495 16.5369 35.0125 17.0395 34.2595C17.6102 33.4015 18.2565 34.1527 18.8327 34.1932C19.4476 34.2355 20.0938 33.698 19.606 33.1254C19.293 32.7572 18.0539 32.5178 17.544 32.2454C15.4801 31.1462 15.5869 28.0312 17.9288 27.3831C17.5863 25.5697 19.9889 25.531 19.7864 27.3776V27.3795Z" fill="#003DFF"/>
</g>
<defs>
<clipPath id="clip0_24610_15528">
<rect width="36" height="40.68" fill="white" transform="translate(0.858398 0.660156)"/>
</clipPath>
</defs>
</svg>
