<svg width="37" height="42" viewBox="0 0 37 42" fill="none" xmlns="http://www.w3.org/2000/svg">
<g clip-path="url(#clip0_25925_4351)">
<path d="M24.0006 4.78378C27.4618 8.07927 30.899 11.4079 34.3547 14.7126C34.7745 15.2944 34.3621 16.1725 33.6348 16.1873H3.10647C2.44553 16.1781 2.03681 15.4361 2.30008 14.858C6.90272 10.2609 11.7226 5.85527 16.3786 1.29682C17.6306 0.229004 19.0721 0.192183 20.3332 1.2692C21.5943 2.34622 22.8168 3.65705 24.0006 4.78562V4.78378ZM5.50352 14.3389H31.2378C31.2746 14.2026 31.2028 14.2413 31.1642 14.2063C27.1893 10.6917 23.4612 6.70031 19.5545 3.08448C19.3704 2.91326 18.9708 2.50639 18.7738 2.4217C18.2105 2.17868 17.927 2.42722 17.5256 2.7623C16.1338 3.924 14.7162 5.50731 13.3796 6.78132C10.8168 9.2244 8.21539 11.8737 5.57532 14.2063C5.53666 14.2413 5.46486 14.2026 5.50168 14.3389H5.50352Z" fill="white"/>
<path d="M26.309 37.0505C22.3838 42.6731 13.9721 42.4761 10.2329 36.7578C6.65755 31.2917 9.50198 23.8612 15.7505 22.1325C24.4974 19.7133 31.5265 29.5795 26.3108 37.0487L26.309 37.0505ZM23.9985 36.9345C27.9328 32.8677 26.3881 26.0447 21.0969 24.1042C14.587 21.7164 8.37894 28.3571 11.205 34.6885C13.4474 39.7145 20.1525 40.9094 23.9985 36.9345Z" fill="white"/>
<path d="M6.829 18.0322H4.98242V28.1875H6.829V18.0322Z" fill="white"/>
<path d="M31.7567 18.0322H29.9102V28.1875H31.7567V18.0322Z" fill="white"/>
<path d="M1.08829 35.5739C0.189854 35.4248 0.0996426 33.9538 1.05699 33.7531L7.02569 33.7236L7.57985 35.5739H1.08829Z" fill="white"/>
<path d="M29.1606 35.5739L29.7148 33.7236L35.6835 33.7531C36.4475 33.9464 36.6335 34.994 35.967 35.4266C35.921 35.4561 35.6761 35.5739 35.6522 35.5739H29.1606Z" fill="white"/>
<path d="M10.5219 18.0322V23.0233L9.45406 24.1464L8.67529 25.1866V18.0322H10.5219Z" fill="white"/>
<path d="M28.0635 18.0322V25.1866L26.7747 23.5333C26.587 23.4173 26.4452 23.2406 26.309 23.0767C26.2832 23.0473 26.2188 23.0565 26.2188 23.0528V18.0322H28.0653H28.0635Z" fill="white"/>
<path d="M6.94484 30.0342C6.82149 30.6399 6.82333 31.264 6.82885 31.8808H3.85739C3.50575 31.8808 3.13938 31.3284 3.13201 30.986C3.12281 30.6215 3.47813 30.0342 3.85739 30.0342H6.94484Z" fill="white"/>
<path d="M29.9104 31.8808C29.9178 31.264 29.9178 30.6417 29.7944 30.0342H32.8819C33.2335 30.0342 33.5999 30.5865 33.6073 30.9289C33.6146 31.2714 33.239 31.8808 32.8819 31.8808H29.9104Z" fill="white"/>
<path d="M17.2584 9.73595C17.6873 9.66415 18.8674 9.67888 19.324 9.71938C20.5152 9.82432 20.4728 11.4224 19.4326 11.5623C18.9982 11.6212 17.8033 11.6175 17.3596 11.5678C16.2623 11.4444 16.2697 9.90164 17.2584 9.73411V9.73595Z" fill="white"/>
<path d="M19.304 27.1968C19.7697 27.3846 20.4233 27.6571 20.5006 28.2205C20.6001 28.9514 20.0036 29.4392 19.2929 29.2551C19.0922 29.2036 18.9026 28.9919 18.6762 28.9495C18.0079 28.8262 17.3083 29.0729 17.4739 29.8627C17.6249 30.5825 19.0775 30.7611 19.6795 31.0612C21.817 32.1253 21.5353 35.0048 19.3205 35.743C19.3113 36.2898 19.2027 36.9268 18.5915 37.0907C17.7133 37.3245 17.2714 36.4389 17.4224 35.6878C16.721 35.4669 16.0545 34.8299 16.5571 34.0769C17.1278 33.2189 17.774 33.9701 18.3503 34.0106C18.9652 34.0529 19.6114 33.5153 19.1235 32.9428C18.8106 32.5746 17.5715 32.3352 17.0615 32.0627C14.9977 30.9636 15.1045 27.8486 17.4463 27.2005C17.1039 25.3871 19.5065 25.3484 19.304 27.195V27.1968Z" fill="white"/>
</g>
<defs>
<clipPath id="clip0_25925_4351">
<rect width="36" height="40.68" fill="white" transform="translate(0.375977 0.477539)"/>
</clipPath>
</defs>
</svg>
