<svg width="42" height="38" viewBox="0 0 42 38" fill="none" xmlns="http://www.w3.org/2000/svg">
<path d="M1.96045 17.5356L21.1859 1.3457L40.4113 17.5356" stroke="#2947F2" stroke-width="2" stroke-linecap="round" stroke-linejoin="round"/>
<path d="M8.03271 36.6539V19.4521" stroke="#2947F2" stroke-width="2" stroke-linecap="round" stroke-linejoin="round"/>
<path d="M34.3391 19.4521V36.6539" stroke="#2947F2" stroke-width="2" stroke-linecap="round" stroke-linejoin="round"/>
<path d="M6.00732 36.6533H36.3633" stroke="#2947F2" stroke-width="2" stroke-linecap="round" stroke-linejoin="round"/>
<path d="M16.314 30.1391L26.0522 16.8594" stroke="#FF6805" stroke-width="2" stroke-miterlimit="10" stroke-linecap="round"/>
<path d="M19.4149 19.9577C19.4691 20.72 19.2205 21.4729 18.723 22.053C18.2255 22.633 17.5193 22.9935 16.7577 23.056C15.9964 22.993 15.2907 22.6323 14.7937 22.0523C14.2966 21.4723 14.0483 20.7196 14.1026 19.9577C14.0483 19.1958 14.2966 18.4431 14.7937 17.8631C15.2907 17.2831 15.9964 16.9224 16.7577 16.8594C17.5193 16.9219 18.2255 17.2824 18.723 17.8625C19.2205 18.4425 19.4691 19.1954 19.4149 19.9577V19.9577Z" stroke="#FF6805" stroke-width="2" stroke-miterlimit="10" stroke-linecap="round"/>
<path d="M25.6157 30.139C27.0832 30.139 28.2728 28.7519 28.2728 27.0407C28.2728 25.3296 27.0832 23.9424 25.6157 23.9424C24.1481 23.9424 22.9585 25.3296 22.9585 27.0407C22.9585 28.7519 24.1481 30.139 25.6157 30.139Z" stroke="#FF6805" stroke-width="2" stroke-miterlimit="10" stroke-linecap="round"/>
</svg>
