<svg xmlns="http://www.w3.org/2000/svg" width="65" height="47" viewBox="0 0 65 47" fill="none">
<rect x="65" y="17" width="30" height="65" rx="15" transform="rotate(90 65 17)" fill="#FEF1F2"/>
<path d="M33 1V24M33 1L28 6.57143M33 1L38 6.57143" stroke="#F04853" stroke-width="2" stroke-linecap="round" stroke-linejoin="round"/>
<path d="M20.96 38L20.96 29.36H22.214L22.214 36.818H26.126L26.126 38H20.96ZM29.9587 38.18C29.3107 38.18 28.7487 38.034 28.2727 37.742C27.7967 37.45 27.4287 37.048 27.1687 36.536C26.9127 36.02 26.7847 35.426 26.7847 34.754C26.7847 34.078 26.9167 33.484 27.1807 32.972C27.4447 32.456 27.8147 32.056 28.2907 31.772C28.7667 31.484 29.3227 31.34 29.9587 31.34C30.6067 31.34 31.1687 31.486 31.6447 31.778C32.1207 32.07 32.4887 32.472 32.7487 32.984C33.0087 33.496 33.1387 34.086 33.1387 34.754C33.1387 35.43 33.0067 36.026 32.7427 36.542C32.4827 37.054 32.1147 37.456 31.6387 37.748C31.1627 38.036 30.6027 38.18 29.9587 38.18ZM29.9587 36.998C30.5787 36.998 31.0407 36.79 31.3447 36.374C31.6527 35.954 31.8067 35.414 31.8067 34.754C31.8067 34.078 31.6507 33.538 31.3387 33.134C31.0307 32.726 30.5707 32.522 29.9587 32.522C29.5387 32.522 29.1927 32.618 28.9207 32.81C28.6487 32.998 28.4467 33.26 28.3147 33.596C28.1827 33.928 28.1167 34.314 28.1167 34.754C28.1167 35.434 28.2727 35.978 28.5847 36.386C28.8967 36.794 29.3547 36.998 29.9587 36.998ZM36.818 38.174C36.03 38.174 35.388 38 34.892 37.652C34.396 37.304 34.092 36.814 33.98 36.182L35.264 35.984C35.344 36.32 35.528 36.586 35.816 36.782C36.108 36.974 36.47 37.07 36.902 37.07C37.294 37.07 37.6 36.99 37.82 36.83C38.044 36.67 38.156 36.45 38.156 36.17C38.156 36.006 38.116 35.874 38.036 35.774C37.96 35.67 37.798 35.572 37.55 35.48C37.302 35.388 36.924 35.274 36.416 35.138C35.86 34.994 35.418 34.84 35.09 34.676C34.766 34.508 34.534 34.314 34.394 34.094C34.258 33.87 34.19 33.6 34.19 33.284C34.19 32.892 34.294 32.55 34.502 32.258C34.71 31.966 35.002 31.74 35.378 31.58C35.758 31.42 36.202 31.34 36.71 31.34C37.206 31.34 37.648 31.418 38.036 31.574C38.424 31.73 38.738 31.952 38.978 32.24C39.218 32.524 39.362 32.858 39.41 33.242L38.126 33.476C38.082 33.164 37.936 32.918 37.688 32.738C37.44 32.558 37.118 32.46 36.722 32.444C36.342 32.428 36.034 32.492 35.798 32.636C35.562 32.776 35.444 32.97 35.444 33.218C35.444 33.362 35.488 33.484 35.576 33.584C35.668 33.684 35.844 33.78 36.104 33.872C36.364 33.964 36.748 34.074 37.256 34.202C37.8 34.342 38.232 34.498 38.552 34.67C38.872 34.838 39.1 35.04 39.236 35.276C39.376 35.508 39.446 35.79 39.446 36.122C39.446 36.762 39.212 37.264 38.744 37.628C38.28 37.992 37.638 38.174 36.818 38.174ZM43.2516 38.174C42.4636 38.174 41.8216 38 41.3256 37.652C40.8296 37.304 40.5256 36.814 40.4136 36.182L41.6976 35.984C41.7776 36.32 41.9616 36.586 42.2496 36.782C42.5416 36.974 42.9036 37.07 43.3356 37.07C43.7276 37.07 44.0336 36.99 44.2536 36.83C44.4776 36.67 44.5896 36.45 44.5896 36.17C44.5896 36.006 44.5496 35.874 44.4696 35.774C44.3936 35.67 44.2316 35.572 43.9836 35.48C43.7356 35.388 43.3576 35.274 42.8496 35.138C42.2936 34.994 41.8516 34.84 41.5236 34.676C41.1996 34.508 40.9676 34.314 40.8276 34.094C40.6916 33.87 40.6236 33.6 40.6236 33.284C40.6236 32.892 40.7276 32.55 40.9356 32.258C41.1436 31.966 41.4356 31.74 41.8116 31.58C42.1916 31.42 42.6356 31.34 43.1436 31.34C43.6396 31.34 44.0816 31.418 44.4696 31.574C44.8576 31.73 45.1716 31.952 45.4116 32.24C45.6516 32.524 45.7956 32.858 45.8436 33.242L44.5596 33.476C44.5156 33.164 44.3696 32.918 44.1216 32.738C43.8736 32.558 43.5516 32.46 43.1556 32.444C42.7756 32.428 42.4676 32.492 42.2316 32.636C41.9956 32.776 41.8776 32.97 41.8776 33.218C41.8776 33.362 41.9216 33.484 42.0096 33.584C42.1016 33.684 42.2776 33.78 42.5376 33.872C42.7976 33.964 43.1816 34.074 43.6896 34.202C44.2336 34.342 44.6656 34.498 44.9856 34.67C45.3056 34.838 45.5336 35.04 45.6696 35.276C45.8096 35.508 45.8796 35.79 45.8796 36.122C45.8796 36.762 45.6456 37.264 45.1776 37.628C44.7136 37.992 44.0716 38.174 43.2516 38.174Z" fill="#F04853"/>
</svg>