<svg width="512" height="257" viewBox="0 0 512 257" fill="none" xmlns="http://www.w3.org/2000/svg">
<path d="M12 66H512" stroke="#1D1D22" stroke-opacity="0.1"/>
<path d="M12 42H512" stroke="#1D1D22" stroke-opacity="0.1"/>
<path d="M12 90H512" stroke="#1D1D22" stroke-opacity="0.1"/>
<path d="M12 114H512" stroke="#1D1D22" stroke-opacity="0.1"/>
<path d="M12 166H512" stroke="#1D1D22" stroke-opacity="0.1"/>
<path d="M12 190H512" stroke="#1D1D22" stroke-opacity="0.1"/>
<path d="M12 214H512" stroke="#1D1D22" stroke-opacity="0.1"/>
<path d="M12 238H512" stroke="#1D1D22" stroke-opacity="0.1"/>
<path d="M12 142H512" stroke="#1D1D22"/>
<path d="M21.66 137.18C21.128 137.18 20.648 137.056 20.22 136.808C19.796 136.56 19.46 136.224 19.212 135.8C18.964 135.372 18.84 134.892 18.84 134.36V131C18.84 130.468 18.964 129.99 19.212 129.566C19.46 129.138 19.796 128.8 20.22 128.552C20.648 128.304 21.128 128.18 21.66 128.18C22.192 128.18 22.67 128.304 23.094 128.552C23.522 128.8 23.86 129.138 24.108 129.566C24.356 129.99 24.48 130.468 24.48 131V134.36C24.48 134.892 24.356 135.372 24.108 135.8C23.86 136.224 23.522 136.56 23.094 136.808C22.67 137.056 22.192 137.18 21.66 137.18ZM21.66 136.328C22.016 136.328 22.34 136.242 22.632 136.07C22.924 135.894 23.156 135.66 23.328 135.368C23.5 135.076 23.586 134.754 23.586 134.402V130.958C23.586 130.602 23.5 130.278 23.328 129.986C23.156 129.694 22.924 129.462 22.632 129.29C22.34 129.114 22.016 129.026 21.66 129.026C21.304 129.026 20.98 129.114 20.688 129.29C20.396 129.462 20.164 129.694 19.992 129.986C19.82 130.278 19.734 130.602 19.734 130.958V134.402C19.734 134.754 19.82 135.076 19.992 135.368C20.164 135.66 20.396 135.894 20.688 136.07C20.98 136.242 21.304 136.328 21.66 136.328Z" fill="#01031C"/>
<path d="M499.352 135.794C498.92 135.794 498.56 135.688 498.272 135.476C497.984 135.264 497.768 134.986 497.624 134.642C497.484 134.294 497.416 133.922 497.42 133.526C497.424 133.122 497.502 132.75 497.654 132.41C497.81 132.07 498.032 131.798 498.32 131.594C498.612 131.386 498.966 131.282 499.382 131.282C499.858 131.282 500.25 131.43 500.558 131.726C500.87 132.022 501.122 132.47 501.314 133.07H500.99C501.122 132.674 501.28 132.344 501.464 132.08C501.648 131.812 501.86 131.612 502.1 131.48C502.344 131.348 502.622 131.282 502.934 131.282C503.334 131.282 503.678 131.378 503.966 131.57C504.258 131.762 504.482 132.026 504.638 132.362C504.798 132.698 504.878 133.082 504.878 133.514C504.878 133.934 504.802 134.316 504.65 134.66C504.498 135.004 504.276 135.28 503.984 135.488C503.696 135.692 503.346 135.794 502.934 135.794C502.618 135.794 502.338 135.73 502.094 135.602C501.854 135.47 501.642 135.272 501.458 135.008C501.278 134.744 501.122 134.408 500.99 134H501.314C501.178 134.408 501.016 134.744 500.828 135.008C500.644 135.272 500.43 135.47 500.186 135.602C499.942 135.73 499.664 135.794 499.352 135.794ZM499.4 134.942C499.696 134.942 499.966 134.838 500.21 134.63C500.454 134.418 500.682 134.054 500.894 133.538C500.682 133.018 500.454 132.654 500.21 132.446C499.966 132.234 499.696 132.128 499.4 132.128C499.128 132.128 498.906 132.196 498.734 132.332C498.562 132.464 498.436 132.638 498.356 132.854C498.276 133.066 498.236 133.294 498.236 133.538C498.236 133.778 498.276 134.006 498.356 134.222C498.436 134.438 498.562 134.612 498.734 134.744C498.906 134.876 499.128 134.942 499.4 134.942ZM502.904 134.942C503.176 134.942 503.398 134.876 503.57 134.744C503.742 134.612 503.868 134.438 503.948 134.222C504.028 134.006 504.068 133.778 504.068 133.538C504.068 133.294 504.028 133.066 503.948 132.854C503.868 132.638 503.742 132.464 503.57 132.332C503.398 132.196 503.176 132.128 502.904 132.128C502.608 132.128 502.338 132.234 502.094 132.446C501.85 132.654 501.622 133.018 501.41 133.538C501.622 134.054 501.85 134.418 502.094 134.63C502.338 134.838 502.608 134.942 502.904 134.942Z" fill="#01031C"/>
<path d="M301.722 131.217C301.857 130.976 301.772 130.671 301.531 130.536L297.607 128.332C297.367 128.197 297.062 128.283 296.927 128.523C296.791 128.764 296.877 129.069 297.118 129.204L300.605 131.163L298.647 134.651C298.512 134.891 298.597 135.196 298.838 135.331C299.079 135.467 299.383 135.381 299.519 135.14L301.722 131.217ZM222.85 153.511L225.796 152.684L225.526 151.721L222.58 152.548L222.85 153.511ZM229.725 151.581L235.618 149.926L235.348 148.964L229.455 150.618L229.725 151.581ZM239.546 148.823L245.439 147.169L245.169 146.206L239.276 147.861L239.546 148.823ZM249.368 146.066L255.261 144.412L254.99 143.449L249.098 145.103L249.368 146.066ZM259.189 143.309L265.082 141.655L264.812 140.692L258.919 142.346L259.189 143.309ZM269.011 140.552L274.904 138.898L274.633 137.935L268.74 139.589L269.011 140.552ZM278.832 137.795L284.725 136.14L284.455 135.178L278.562 136.832L278.832 137.795ZM288.654 135.037L294.546 133.383L294.276 132.42L288.383 134.075L288.654 135.037ZM298.475 132.28L301.421 131.453L301.151 130.49L298.205 131.318L298.475 132.28ZM302.158 131.461C302.429 130.98 302.257 130.37 301.776 130.1L293.929 125.693C293.447 125.422 292.838 125.594 292.567 126.075C292.297 126.557 292.468 127.166 292.949 127.437L299.925 131.354L296.007 138.329C295.737 138.811 295.908 139.42 296.39 139.691C296.871 139.961 297.481 139.79 297.751 139.309L302.158 131.461ZM222.985 153.992L225.932 153.165L225.391 151.239L222.445 152.067L222.985 153.992ZM229.86 152.062L235.753 150.408L235.212 148.482L229.32 150.136L229.86 152.062ZM239.682 149.305L245.574 147.651L245.034 145.725L239.141 147.379L239.682 149.305ZM249.503 146.548L255.396 144.893L254.855 142.968L248.962 144.622L249.503 146.548ZM259.324 143.79L265.217 142.136L264.677 140.211L258.784 141.865L259.324 143.79ZM269.146 141.033L275.039 139.379L274.498 137.453L268.605 139.108L269.146 141.033ZM278.967 138.276L284.86 136.622L284.32 134.696L278.427 136.351L278.967 138.276ZM288.789 135.519L294.682 133.865L294.141 131.939L288.248 133.593L288.789 135.519ZM298.61 132.762L301.557 131.935L301.016 130.009L298.07 130.836L298.61 132.762Z" fill="black"/>
<g filter="url(#filter0_d_18162_42025)">
<rect x="234" y="70" width="58" height="38" rx="19" fill="white" shape-rendering="crispEdges"/>
<path d="M250.688 95.216C250.117 95.216 249.581 95.1093 249.08 94.896C248.578 94.6773 248.144 94.368 247.776 93.968C247.413 93.568 247.149 93.096 246.984 92.552L248.6 92.104C248.754 92.6 249.024 92.9813 249.408 93.248C249.792 93.5093 250.218 93.6373 250.688 93.632C251.109 93.6267 251.48 93.528 251.8 93.336C252.12 93.144 252.37 92.8853 252.552 92.56C252.733 92.2293 252.824 91.8507 252.824 91.424C252.824 90.784 252.624 90.256 252.224 89.84C251.829 89.424 251.312 89.216 250.672 89.216C250.49 89.216 250.304 89.2427 250.112 89.296C249.925 89.3493 249.749 89.4187 249.584 89.504L248.8 88.184L252.864 84.592L253.04 85.072H247.44V83.48H254.368V85.072L250.992 88.32L250.976 87.776C251.701 87.776 252.33 87.9387 252.864 88.264C253.397 88.584 253.808 89.0213 254.096 89.576C254.389 90.1253 254.536 90.7413 254.536 91.424C254.536 92.16 254.362 92.8133 254.016 93.384C253.674 93.9547 253.213 94.4027 252.632 94.728C252.056 95.0533 251.408 95.216 250.688 95.216ZM256.908 95V93.232H258.676V95H256.908ZM265.158 95.24C264.411 95.24 263.739 95.064 263.142 94.712C262.545 94.3547 262.07 93.8667 261.718 93.248C261.371 92.6293 261.198 91.9253 261.198 91.136V87.464C261.198 86.6267 261.371 85.8907 261.718 85.256C262.07 84.6213 262.555 84.128 263.174 83.776C263.798 83.424 264.515 83.248 265.326 83.248C265.934 83.248 266.505 83.3627 267.038 83.592C267.571 83.8213 268.033 84.1627 268.422 84.616L267.198 85.76C266.979 85.4773 266.705 85.2533 266.374 85.088C266.049 84.9173 265.699 84.832 265.326 84.832C264.846 84.832 264.425 84.9467 264.062 85.176C263.699 85.4 263.414 85.696 263.206 86.064C263.003 86.432 262.902 86.8267 262.902 87.248V89.36L262.574 88.992C262.905 88.56 263.315 88.2187 263.806 87.968C264.297 87.7173 264.822 87.592 265.382 87.592C266.097 87.592 266.734 87.76 267.294 88.096C267.859 88.4267 268.302 88.8773 268.622 89.448C268.947 90.0187 269.11 90.6613 269.11 91.376C269.11 92.096 268.929 92.7493 268.566 93.336C268.209 93.9173 267.729 94.3813 267.126 94.728C266.529 95.0693 265.873 95.24 265.158 95.24ZM265.158 93.632C265.574 93.632 265.953 93.5307 266.294 93.328C266.635 93.1253 266.907 92.8533 267.11 92.512C267.313 92.1707 267.414 91.792 267.414 91.376C267.414 90.96 267.313 90.5813 267.11 90.24C266.913 89.8987 266.643 89.6267 266.302 89.424C265.961 89.2213 265.582 89.12 265.166 89.12C264.75 89.12 264.369 89.2213 264.022 89.424C263.681 89.6267 263.409 89.8987 263.206 90.24C263.003 90.5813 262.902 90.96 262.902 91.376C262.902 91.7867 263.003 92.1627 263.206 92.504C263.409 92.8453 263.681 93.12 264.022 93.328C264.363 93.5307 264.742 93.632 265.158 93.632ZM276.016 95V92.992H270.816V91.408L274.56 83.48H276.472L272.728 91.408H276.016V88.288H277.712V91.408H278.856V92.992H277.712V95H276.016Z" fill="#01031C"/>
<rect x="234.5" y="70.5" width="57" height="37" rx="18.5" stroke="black" stroke-opacity="0.15" shape-rendering="crispEdges"/>
</g>
<path d="M262 141.999L12 239L12 141.999L262 141.999Z" fill="url(#paint0_linear_18162_42025)" fill-opacity="0.4"/>
<g filter="url(#filter1_d_18162_42025)">
<circle cx="262" cy="142" r="6" fill="#01031C"/>
<circle cx="262" cy="142" r="5" stroke="white" stroke-width="2"/>
</g>
<path d="M262 142L512 40.5V142H262Z" fill="url(#paint1_linear_18162_42025)" fill-opacity="0.4"/>
<rect width="119" height="32" rx="16" fill="white"/>
<path d="M12.96 21V12.36H13.842V21H12.96ZM20.3208 21V17.694C20.3208 17.334 20.2868 17.004 20.2188 16.704C20.1508 16.4 20.0408 16.136 19.8888 15.912C19.7408 15.684 19.5468 15.508 19.3068 15.384C19.0708 15.26 18.7828 15.198 18.4428 15.198C18.1308 15.198 17.8548 15.252 17.6148 15.36C17.3788 15.468 17.1788 15.624 17.0148 15.828C16.8548 16.028 16.7328 16.272 16.6488 16.56C16.5648 16.848 16.5228 17.176 16.5228 17.544L15.8988 17.406C15.8988 16.742 16.0148 16.184 16.2468 15.732C16.4788 15.28 16.7988 14.938 17.2068 14.706C17.6148 14.474 18.0828 14.358 18.6108 14.358C18.9988 14.358 19.3368 14.418 19.6248 14.538C19.9168 14.658 20.1628 14.82 20.3628 15.024C20.5668 15.228 20.7308 15.462 20.8548 15.726C20.9788 15.986 21.0688 16.264 21.1248 16.56C21.1808 16.852 21.2088 17.144 21.2088 17.436V21H20.3208ZM15.6348 21V14.52H16.4328V16.116H16.5228V21H15.6348ZM24.5178 21L22.1658 14.52H23.0598L24.9738 19.848L26.8758 14.52H27.7818L25.4298 21H24.5178ZM31.3312 21.18C30.6872 21.18 30.1372 21.034 29.6812 20.742C29.2252 20.45 28.8752 20.046 28.6312 19.53C28.3872 19.014 28.2652 18.422 28.2652 17.754C28.2652 17.074 28.3892 16.478 28.6372 15.966C28.8852 15.454 29.2372 15.056 29.6932 14.772C30.1532 14.484 30.6992 14.34 31.3312 14.34C31.9792 14.34 32.5312 14.486 32.9872 14.778C33.4472 15.066 33.7972 15.468 34.0372 15.984C34.2812 16.496 34.4032 17.086 34.4032 17.754C34.4032 18.434 34.2812 19.032 34.0372 19.548C33.7932 20.06 33.4412 20.46 32.9812 20.748C32.5212 21.036 31.9712 21.18 31.3312 21.18ZM31.3312 20.334C32.0512 20.334 32.5872 20.096 32.9392 19.62C33.2912 19.14 33.4672 18.518 33.4672 17.754C33.4672 16.97 33.2892 16.346 32.9332 15.882C32.5812 15.418 32.0472 15.186 31.3312 15.186C30.8472 15.186 30.4472 15.296 30.1312 15.516C29.8192 15.732 29.5852 16.034 29.4292 16.422C29.2772 16.806 29.2012 17.25 29.2012 17.754C29.2012 18.534 29.3812 19.16 29.7412 19.632C30.1012 20.1 30.6312 20.334 31.3312 20.334ZM35.8467 13.29V12.3H36.7287V13.29H35.8467ZM35.8467 21V14.52H36.7287V21H35.8467ZM41.2155 21.18C40.5635 21.18 40.0115 21.034 39.5595 20.742C39.1075 20.45 38.7635 20.048 38.5275 19.536C38.2955 19.02 38.1755 18.428 38.1675 17.76C38.1755 17.08 38.2995 16.484 38.5395 15.972C38.7795 15.456 39.1255 15.056 39.5775 14.772C40.0295 14.484 40.5775 14.34 41.2215 14.34C41.8775 14.34 42.4475 14.5 42.9315 14.82C43.4195 15.14 43.7535 15.578 43.9335 16.134L43.0695 16.41C42.9175 16.022 42.6755 15.722 42.3435 15.51C42.0155 15.294 41.6395 15.186 41.2155 15.186C40.7395 15.186 40.3455 15.296 40.0335 15.516C39.7215 15.732 39.4895 16.034 39.3375 16.422C39.1855 16.81 39.1075 17.256 39.1035 17.76C39.1115 18.536 39.2915 19.16 39.6435 19.632C39.9955 20.1 40.5195 20.334 41.2155 20.334C41.6555 20.334 42.0295 20.234 42.3375 20.034C42.6495 19.83 42.8855 19.534 43.0455 19.146L43.9335 19.41C43.6935 19.986 43.3415 20.426 42.8775 20.73C42.4135 21.03 41.8595 21.18 41.2155 21.18ZM47.7383 21.18C47.1063 21.18 46.5583 21.04 46.0943 20.76C45.6343 20.48 45.2763 20.086 45.0203 19.578C44.7643 19.07 44.6363 18.474 44.6363 17.79C44.6363 17.082 44.7623 16.47 45.0143 15.954C45.2663 15.438 45.6203 15.04 46.0763 14.76C46.5363 14.48 47.0783 14.34 47.7023 14.34C48.3423 14.34 48.8883 14.488 49.3403 14.784C49.7923 15.076 50.1343 15.496 50.3663 16.044C50.5983 16.592 50.7043 17.246 50.6843 18.006H49.7843V17.694C49.7683 16.854 49.5863 16.22 49.2383 15.792C48.8943 15.364 48.3903 15.15 47.7263 15.15C47.0303 15.15 46.4963 15.376 46.1243 15.828C45.7563 16.28 45.5723 16.924 45.5723 17.76C45.5723 18.576 45.7563 19.21 46.1243 19.662C46.4963 20.11 47.0223 20.334 47.7023 20.334C48.1663 20.334 48.5703 20.228 48.9143 20.016C49.2623 19.8 49.5363 19.49 49.7363 19.086L50.5583 19.404C50.3023 19.968 49.9243 20.406 49.4243 20.718C48.9283 21.026 48.3663 21.18 47.7383 21.18ZM45.2603 18.006V17.268H50.2103V18.006H45.2603ZM54.4181 21V14.52H55.2101V16.08L55.0541 15.876C55.1261 15.684 55.2201 15.508 55.3361 15.348C55.4521 15.184 55.5781 15.05 55.7141 14.946C55.8821 14.798 56.0781 14.686 56.3021 14.61C56.5261 14.53 56.7521 14.484 56.9801 14.472C57.2081 14.456 57.4161 14.472 57.6041 14.52V15.348C57.3681 15.288 57.1101 15.274 56.8301 15.306C56.5501 15.338 56.2921 15.45 56.0561 15.642C55.8401 15.81 55.6781 16.012 55.5701 16.248C55.4621 16.48 55.3901 16.728 55.3541 16.992C55.3181 17.252 55.3001 17.51 55.3001 17.766V21H54.4181ZM60.3503 21.18C59.8623 21.18 59.4523 21.092 59.1203 20.916C58.7923 20.74 58.5463 20.506 58.3823 20.214C58.2183 19.922 58.1363 19.604 58.1363 19.26C58.1363 18.908 58.2063 18.608 58.3463 18.36C58.4903 18.108 58.6843 17.902 58.9283 17.742C59.1763 17.582 59.4623 17.46 59.7863 17.376C60.1143 17.296 60.4763 17.226 60.8723 17.166C61.2723 17.102 61.6623 17.048 62.0423 17.004C62.4263 16.956 62.7623 16.91 63.0503 16.866L62.7383 17.058C62.7503 16.418 62.6263 15.944 62.3663 15.636C62.1063 15.328 61.6543 15.174 61.0103 15.174C60.5663 15.174 60.1903 15.274 59.8823 15.474C59.5783 15.674 59.3643 15.99 59.2402 16.422L58.3823 16.17C58.5303 15.59 58.8283 15.14 59.2763 14.82C59.7243 14.5 60.3063 14.34 61.0223 14.34C61.6143 14.34 62.1163 14.452 62.5283 14.676C62.9443 14.896 63.2383 15.216 63.4103 15.636C63.4903 15.824 63.5423 16.034 63.5663 16.266C63.5903 16.498 63.6023 16.734 63.6023 16.974V21H62.8163V19.374L63.0443 19.47C62.8243 20.026 62.4823 20.45 62.0183 20.742C61.5543 21.034 60.9983 21.18 60.3503 21.18ZM60.4523 20.418C60.8643 20.418 61.2243 20.344 61.5323 20.196C61.8403 20.048 62.0883 19.846 62.2763 19.59C62.4643 19.33 62.5863 19.038 62.6423 18.714C62.6903 18.506 62.7163 18.278 62.7203 18.03C62.7243 17.778 62.7263 17.59 62.7263 17.466L63.0623 17.64C62.7623 17.68 62.4363 17.72 62.0843 17.76C61.7363 17.8 61.3923 17.846 61.0523 17.898C60.7163 17.95 60.4123 18.012 60.1403 18.084C59.9563 18.136 59.7783 18.21 59.6063 18.306C59.4343 18.398 59.2923 18.522 59.1803 18.678C59.0723 18.834 59.0183 19.028 59.0183 19.26C59.0183 19.448 59.0643 19.63 59.1562 19.806C59.2523 19.982 59.4043 20.128 59.6123 20.244C59.8243 20.36 60.1043 20.418 60.4523 20.418ZM68.6922 21C68.3282 21.076 67.9682 21.106 67.6122 21.09C67.2602 21.074 66.9442 20.998 66.6642 20.862C66.3882 20.726 66.1782 20.514 66.0342 20.226C65.9182 19.986 65.8542 19.744 65.8422 19.5C65.8342 19.252 65.8302 18.97 65.8302 18.654V12.72H66.7062V18.618C66.7062 18.89 66.7082 19.118 66.7122 19.302C66.7202 19.482 66.7622 19.642 66.8382 19.782C66.9822 20.05 67.2102 20.21 67.5222 20.262C67.8382 20.314 68.2282 20.302 68.6922 20.226V21ZM64.4442 15.276V14.52H68.6922V15.276H64.4442ZM72.4765 21.18C71.8445 21.18 71.2965 21.04 70.8325 20.76C70.3725 20.48 70.0145 20.086 69.7585 19.578C69.5025 19.07 69.3745 18.474 69.3745 17.79C69.3745 17.082 69.5005 16.47 69.7525 15.954C70.0045 15.438 70.3585 15.04 70.8145 14.76C71.2745 14.48 71.8165 14.34 72.4405 14.34C73.0805 14.34 73.6265 14.488 74.0785 14.784C74.5305 15.076 74.8725 15.496 75.1045 16.044C75.3365 16.592 75.4425 17.246 75.4225 18.006H74.5225V17.694C74.5065 16.854 74.3245 16.22 73.9765 15.792C73.6325 15.364 73.1285 15.15 72.4645 15.15C71.7685 15.15 71.2345 15.376 70.8625 15.828C70.4945 16.28 70.3105 16.924 70.3105 17.76C70.3105 18.576 70.4945 19.21 70.8625 19.662C71.2345 20.11 71.7605 20.334 72.4405 20.334C72.9045 20.334 73.3085 20.228 73.6525 20.016C74.0005 19.8 74.2745 19.49 74.4745 19.086L75.2965 19.404C75.0405 19.968 74.6625 20.406 74.1625 20.718C73.6665 21.026 73.1045 21.18 72.4765 21.18ZM69.9985 18.006V17.268H74.9485V18.006H69.9985ZM77.2341 20.04V19.014H78.2601V20.04H77.2341ZM77.2401 16.506V15.48H78.2661V16.506H77.2401ZM85.0643 21.174C84.6363 21.174 84.2423 21.098 83.8823 20.946C83.5223 20.794 83.2123 20.578 82.9523 20.298C82.6923 20.014 82.5023 19.676 82.3823 19.284L83.2223 19.032C83.3663 19.46 83.6023 19.784 83.9303 20.004C84.2623 20.224 84.6363 20.33 85.0523 20.322C85.4363 20.314 85.7663 20.228 86.0423 20.064C86.3223 19.9 86.5363 19.672 86.6843 19.38C86.8323 19.088 86.9063 18.75 86.9063 18.366C86.9063 17.778 86.7343 17.306 86.3903 16.95C86.0503 16.59 85.6003 16.41 85.0403 16.41C84.8843 16.41 84.7203 16.432 84.5483 16.476C84.3763 16.516 84.2163 16.574 84.0683 16.65L83.6243 15.948L86.9843 12.846L87.1283 13.206H82.7243V12.36H87.7163V13.218L84.7883 16.014L84.7763 15.666C85.3763 15.59 85.9043 15.658 86.3603 15.87C86.8163 16.082 87.1723 16.406 87.4283 16.842C87.6883 17.274 87.8183 17.782 87.8183 18.366C87.8183 18.918 87.6983 19.406 87.4583 19.83C87.2223 20.25 86.8963 20.58 86.4803 20.82C86.0643 21.056 85.5923 21.174 85.0643 21.174ZM89.5432 21V19.974H90.5692V21H89.5432ZM95.344 21.18C94.804 21.18 94.312 21.05 93.868 20.79C93.428 20.526 93.076 20.17 92.812 19.722C92.552 19.27 92.422 18.762 92.422 18.198V15.204C92.422 14.624 92.552 14.108 92.812 13.656C93.072 13.2 93.426 12.842 93.874 12.582C94.326 12.318 94.838 12.186 95.41 12.186C95.902 12.186 96.358 12.294 96.778 12.51C97.202 12.726 97.548 13.028 97.816 13.416L97.138 13.974C96.954 13.686 96.71 13.456 96.406 13.284C96.102 13.112 95.77 13.026 95.41 13.026C95.006 13.026 94.646 13.124 94.33 13.32C94.014 13.516 93.766 13.774 93.586 14.094C93.406 14.41 93.316 14.754 93.316 15.126V17.01L93.094 16.758C93.346 16.362 93.676 16.042 94.084 15.798C94.496 15.554 94.944 15.432 95.428 15.432C95.964 15.432 96.446 15.56 96.874 15.816C97.302 16.068 97.642 16.41 97.894 16.842C98.146 17.274 98.272 17.758 98.272 18.294C98.272 18.826 98.138 19.31 97.87 19.746C97.606 20.182 97.252 20.53 96.808 20.79C96.368 21.05 95.88 21.18 95.344 21.18ZM95.344 20.322C95.72 20.322 96.062 20.232 96.37 20.052C96.682 19.872 96.928 19.628 97.108 19.32C97.292 19.012 97.384 18.67 97.384 18.294C97.384 17.918 97.292 17.576 97.108 17.268C96.928 16.956 96.684 16.71 96.376 16.53C96.068 16.346 95.726 16.254 95.35 16.254C94.974 16.254 94.632 16.346 94.324 16.53C94.016 16.71 93.77 16.956 93.586 17.268C93.406 17.576 93.316 17.918 93.316 18.294C93.316 18.666 93.406 19.006 93.586 19.314C93.766 19.622 94.01 19.868 94.318 20.052C94.626 20.232 94.968 20.322 95.344 20.322ZM103.667 21V19.326H99.6234V18.486L102.515 12.36H103.505L100.613 18.486H103.667V15.966H104.555V18.486H105.497V19.326H104.555V21H103.667Z" fill="#7E8088"/>
<defs>
<filter id="filter0_d_18162_42025" x="230" y="70" width="66" height="46" filterUnits="userSpaceOnUse" color-interpolation-filters="sRGB">
<feFlood flood-opacity="0" result="BackgroundImageFix"/>
<feColorMatrix in="SourceAlpha" type="matrix" values="0 0 0 0 0 0 0 0 0 0 0 0 0 0 0 0 0 0 127 0" result="hardAlpha"/>
<feOffset dy="4"/>
<feGaussianBlur stdDeviation="2"/>
<feComposite in2="hardAlpha" operator="out"/>
<feColorMatrix type="matrix" values="0 0 0 0 0 0 0 0 0 0 0 0 0 0 0 0 0 0 0.05 0"/>
<feBlend mode="normal" in2="BackgroundImageFix" result="effect1_dropShadow_18162_42025"/>
<feBlend mode="normal" in="SourceGraphic" in2="effect1_dropShadow_18162_42025" result="shape"/>
</filter>
<filter id="filter1_d_18162_42025" x="252" y="134" width="20" height="20" filterUnits="userSpaceOnUse" color-interpolation-filters="sRGB">
<feFlood flood-opacity="0" result="BackgroundImageFix"/>
<feColorMatrix in="SourceAlpha" type="matrix" values="0 0 0 0 0 0 0 0 0 0 0 0 0 0 0 0 0 0 127 0" result="hardAlpha"/>
<feOffset dy="2"/>
<feGaussianBlur stdDeviation="2"/>
<feComposite in2="hardAlpha" operator="out"/>
<feColorMatrix type="matrix" values="0 0 0 0 0 0 0 0 0 0 0 0 0 0 0 0 0 0 0.25 0"/>
<feBlend mode="normal" in2="BackgroundImageFix" result="effect1_dropShadow_18162_42025"/>
<feBlend mode="normal" in="SourceGraphic" in2="effect1_dropShadow_18162_42025" result="shape"/>
</filter>
<linearGradient id="paint0_linear_18162_42025" x1="137" y1="210" x2="137" y2="142" gradientUnits="userSpaceOnUse">
<stop stop-color="#F04853"/>
<stop offset="1" stop-color="#F04853" stop-opacity="0.345937"/>
</linearGradient>
<linearGradient id="paint1_linear_18162_42025" x1="387" y1="92" x2="387" y2="142" gradientUnits="userSpaceOnUse">
<stop stop-color="#45AE4A"/>
<stop offset="1" stop-color="#45AE4A" stop-opacity="0.3"/>
</linearGradient>
</defs>
</svg>
