<svg xmlns="http://www.w3.org/2000/svg" width="65" height="48" viewBox="0 0 65 48" fill="none">
<rect x="65" width="30" height="65" rx="15" transform="rotate(90 65 0)" fill="#FEF1F2"/>
<path d="M33 47.0001L33 24.0001M33 47.0001L38 41.4286M33 47.0001L28 41.4286" stroke="#F04853" stroke-width="2" stroke-linecap="round" stroke-linejoin="round"/>
<path d="M20.96 19.0001L20.96 10.3601H22.214L22.214 17.8181H26.126L26.126 19.0001H20.96ZM29.9587 19.1801C29.3107 19.1801 28.7487 19.0341 28.2727 18.7421C27.7967 18.4501 27.4287 18.0481 27.1687 17.5361C26.9127 17.0201 26.7847 16.4261 26.7847 15.7541C26.7847 15.0781 26.9167 14.4841 27.1807 13.9721C27.4447 13.4561 27.8147 13.0561 28.2907 12.7721C28.7667 12.4841 29.3227 12.3401 29.9587 12.3401C30.6067 12.3401 31.1687 12.4861 31.6447 12.7781C32.1207 13.0701 32.4887 13.4721 32.7487 13.9841C33.0087 14.4961 33.1387 15.0861 33.1387 15.7541C33.1387 16.4301 33.0067 17.0261 32.7427 17.5421C32.4827 18.0541 32.1147 18.4561 31.6387 18.7481C31.1627 19.0361 30.6027 19.1801 29.9587 19.1801ZM29.9587 17.9981C30.5787 17.9981 31.0407 17.7901 31.3447 17.3741C31.6527 16.9541 31.8067 16.4141 31.8067 15.7541C31.8067 15.0781 31.6507 14.5381 31.3387 14.1341C31.0307 13.7261 30.5707 13.5221 29.9587 13.5221C29.5387 13.5221 29.1927 13.6181 28.9207 13.8101C28.6487 13.9981 28.4467 14.2601 28.3147 14.5961C28.1827 14.9281 28.1167 15.3141 28.1167 15.7541C28.1167 16.4341 28.2727 16.9781 28.5847 17.3861C28.8967 17.7941 29.3547 17.9981 29.9587 17.9981ZM36.818 19.1741C36.03 19.1741 35.388 19.0001 34.892 18.6521C34.396 18.3041 34.092 17.8141 33.98 17.1821L35.264 16.9841C35.344 17.3201 35.528 17.5861 35.816 17.7821C36.108 17.9741 36.47 18.0701 36.902 18.0701C37.294 18.0701 37.6 17.9901 37.82 17.8301C38.044 17.6701 38.156 17.4501 38.156 17.1701C38.156 17.0061 38.116 16.8741 38.036 16.7741C37.96 16.6701 37.798 16.5721 37.55 16.4801C37.302 16.3881 36.924 16.2741 36.416 16.1381C35.86 15.9941 35.418 15.8401 35.09 15.6761C34.766 15.5081 34.534 15.3141 34.394 15.0941C34.258 14.8701 34.19 14.6001 34.19 14.2841C34.19 13.8921 34.294 13.5501 34.502 13.2581C34.71 12.9661 35.002 12.7401 35.378 12.5801C35.758 12.4201 36.202 12.3401 36.71 12.3401C37.206 12.3401 37.648 12.4181 38.036 12.5741C38.424 12.7301 38.738 12.9521 38.978 13.2401C39.218 13.5241 39.362 13.8581 39.41 14.2421L38.126 14.4761C38.082 14.1641 37.936 13.9181 37.688 13.7381C37.44 13.5581 37.118 13.4601 36.722 13.4441C36.342 13.4281 36.034 13.4921 35.798 13.6361C35.562 13.7761 35.444 13.9701 35.444 14.2181C35.444 14.3621 35.488 14.4841 35.576 14.5841C35.668 14.6841 35.844 14.7801 36.104 14.8721C36.364 14.9641 36.748 15.0741 37.256 15.2021C37.8 15.3421 38.232 15.4981 38.552 15.6701C38.872 15.8381 39.1 16.0401 39.236 16.2761C39.376 16.5081 39.446 16.7901 39.446 17.1221C39.446 17.7621 39.212 18.2641 38.744 18.6281C38.28 18.9921 37.638 19.1741 36.818 19.1741ZM43.2516 19.1741C42.4636 19.1741 41.8216 19.0001 41.3256 18.6521C40.8296 18.3041 40.5256 17.8141 40.4136 17.1821L41.6976 16.9841C41.7776 17.3201 41.9616 17.5861 42.2496 17.7821C42.5416 17.9741 42.9036 18.0701 43.3356 18.0701C43.7276 18.0701 44.0336 17.9901 44.2536 17.8301C44.4776 17.6701 44.5896 17.4501 44.5896 17.1701C44.5896 17.0061 44.5496 16.8741 44.4696 16.7741C44.3936 16.6701 44.2316 16.5721 43.9836 16.4801C43.7356 16.3881 43.3576 16.2741 42.8496 16.1381C42.2936 15.9941 41.8516 15.8401 41.5236 15.6761C41.1996 15.5081 40.9676 15.3141 40.8276 15.0941C40.6916 14.8701 40.6236 14.6001 40.6236 14.2841C40.6236 13.8921 40.7276 13.5501 40.9356 13.2581C41.1436 12.9661 41.4356 12.7401 41.8116 12.5801C42.1916 12.4201 42.6356 12.3401 43.1436 12.3401C43.6396 12.3401 44.0816 12.4181 44.4696 12.5741C44.8576 12.7301 45.1716 12.9521 45.4116 13.2401C45.6516 13.5241 45.7956 13.8581 45.8436 14.2421L44.5596 14.4761C44.5156 14.1641 44.3696 13.9181 44.1216 13.7381C43.8736 13.5581 43.5516 13.4601 43.1556 13.4441C42.7756 13.4281 42.4676 13.4921 42.2316 13.6361C41.9956 13.7761 41.8776 13.9701 41.8776 14.2181C41.8776 14.3621 41.9216 14.4841 42.0096 14.5841C42.1016 14.6841 42.2776 14.7801 42.5376 14.8721C42.7976 14.9641 43.1816 15.0741 43.6896 15.2021C44.2336 15.3421 44.6656 15.4981 44.9856 15.6701C45.3056 15.8381 45.5336 16.0401 45.6696 16.2761C45.8096 16.5081 45.8796 16.7901 45.8796 17.1221C45.8796 17.7621 45.6456 18.2641 45.1776 18.6281C44.7136 18.9921 44.0716 19.1741 43.2516 19.1741Z" fill="#F04853"/>
</svg>