<svg width="64" height="48" viewBox="0 0 64 48" fill="none" xmlns="http://www.w3.org/2000/svg">
<rect x="64" y="18" width="30" height="64" rx="15" transform="rotate(90 64 18)" fill="#F4FBF4"/>
<path d="M17.84 38L17.84 29.36H21.332C21.416 29.36 21.52 29.364 21.644 29.372C21.768 29.376 21.886 29.388 21.998 29.408C22.478 29.484 22.878 29.648 23.198 29.9C23.522 30.152 23.764 30.47 23.924 30.854C24.084 31.238 24.164 31.662 24.164 32.126C24.164 32.594 24.084 33.02 23.924 33.404C23.764 33.788 23.522 34.106 23.198 34.358C22.878 34.61 22.478 34.774 21.998 34.85C21.886 34.866 21.766 34.878 21.638 34.886C21.514 34.894 21.412 34.898 21.332 34.898H19.094L19.094 38H17.84ZM19.094 33.71H21.284C21.364 33.71 21.452 33.706 21.548 33.698C21.648 33.69 21.742 33.676 21.83 33.656C22.086 33.596 22.292 33.486 22.448 33.326C22.604 33.162 22.716 32.974 22.784 32.762C22.852 32.55 22.886 32.338 22.886 32.126C22.886 31.914 22.852 31.704 22.784 31.496C22.716 31.284 22.604 31.098 22.448 30.938C22.292 30.774 22.086 30.662 21.83 30.602C21.742 30.578 21.648 30.562 21.548 30.554C21.452 30.546 21.364 30.542 21.284 30.542H19.094V33.71ZM25.3634 38V31.52H26.4794V33.092L26.3234 32.888C26.4034 32.68 26.5074 32.49 26.6354 32.318C26.7634 32.142 26.9114 31.998 27.0794 31.886C27.2434 31.766 27.4254 31.674 27.6254 31.61C27.8294 31.542 28.0374 31.502 28.2494 31.49C28.4614 31.474 28.6654 31.484 28.8614 31.52V32.696C28.6494 32.64 28.4134 32.624 28.1534 32.648C27.8974 32.672 27.6614 32.754 27.4454 32.894C27.2414 33.026 27.0794 33.186 26.9594 33.374C26.8434 33.562 26.7594 33.772 26.7074 34.004C26.6554 34.232 26.6294 34.474 26.6294 34.73V38H25.3634ZM32.7009 38.18C32.0529 38.18 31.4909 38.034 31.0149 37.742C30.5389 37.45 30.1709 37.048 29.9109 36.536C29.6549 36.02 29.5269 35.426 29.5269 34.754C29.5269 34.078 29.6589 33.484 29.9229 32.972C30.1869 32.456 30.5569 32.056 31.0329 31.772C31.5089 31.484 32.0649 31.34 32.7009 31.34C33.3489 31.34 33.9109 31.486 34.3869 31.778C34.8629 32.07 35.2309 32.472 35.4909 32.984C35.7509 33.496 35.8809 34.086 35.8809 34.754C35.8809 35.43 35.7489 36.026 35.4849 36.542C35.2249 37.054 34.8569 37.456 34.3809 37.748C33.9049 38.036 33.3449 38.18 32.7009 38.18ZM32.7009 36.998C33.3209 36.998 33.7829 36.79 34.0869 36.374C34.3949 35.954 34.5489 35.414 34.5489 34.754C34.5489 34.078 34.3929 33.538 34.0809 33.134C33.7729 32.726 33.3129 32.522 32.7009 32.522C32.2809 32.522 31.9349 32.618 31.6629 32.81C31.3909 32.998 31.1889 33.26 31.0569 33.596C30.9249 33.928 30.8589 34.314 30.8589 34.754C30.8589 35.434 31.0149 35.978 31.3269 36.386C31.6389 36.794 32.0969 36.998 32.7009 36.998ZM37.7934 38V31.292C37.7934 31.128 37.7994 30.954 37.8114 30.77C37.8234 30.582 37.8574 30.398 37.9134 30.218C37.9734 30.034 38.0714 29.866 38.2074 29.714C38.3714 29.534 38.5514 29.406 38.7474 29.33C38.9434 29.254 39.1374 29.21 39.3294 29.198C39.5254 29.186 39.7054 29.18 39.8694 29.18H40.6854V30.212H39.9294C39.6334 30.212 39.4114 30.286 39.2634 30.434C39.1194 30.578 39.0474 30.784 39.0474 31.052V38H37.7934ZM36.7194 32.528V31.52H40.6854V32.528H36.7194ZM41.9454 30.458V29.24H43.1994V30.458H41.9454ZM41.9454 38V31.52H43.1994V38H41.9454ZM48.7121 38C48.3041 38.08 47.9041 38.114 47.5121 38.102C47.1201 38.09 46.7701 38.014 46.4621 37.874C46.1541 37.734 45.9221 37.514 45.7661 37.214C45.6261 36.946 45.5501 36.674 45.5381 36.398C45.5301 36.118 45.5261 35.802 45.5261 35.45V29.72H46.7861V35.39C46.7861 35.65 46.7881 35.876 46.7921 36.068C46.8001 36.26 46.8421 36.422 46.9181 36.554C47.0621 36.802 47.2901 36.944 47.6021 36.98C47.9181 37.012 48.2881 36.998 48.7121 36.938V38ZM44.2841 32.528V31.52L48.7121 31.52V32.528L44.2841 32.528Z" fill="#45AE4A"/>
<path d="M33 1L33 24M33 1L28 6.57143M33 1L38 6.57143" stroke="#45AE4A" stroke-width="2" stroke-linecap="round" stroke-linejoin="round"/>
</svg>
