<svg width="28" height="27" viewBox="0 0 28 27" fill="none" xmlns="http://www.w3.org/2000/svg">
<rect width="28" height="27" fill="#EEEEEE"/>
<g id="Frame 240354">
<g clip-path="url(#clip0_12312_26785)">
<rect x="-724" y="-326" width="1095" height="675" rx="10" fill="white"/>
<rect id="Rectangle 7529" x="-410.842" y="-14.3345" width="451.5" height="53.9642" rx="7.5" fill="#F8FAFC" stroke="#D1D5DB" stroke-dasharray="2 2"/>
<g id="Group 240455">
<g id="lock-alt_svgrepo.com">
<rect width="28" height="27" rx="13.5" fill="#E5E7EB"/>
<path id="Vector" d="M14.0001 15.1783V16.521M10.5188 12.1763C10.847 12.157 11.2517 12.157 11.7721 12.157H16.2281C16.7485 12.157 17.1531 12.157 17.4814 12.1763M10.5188 12.1763C10.1092 12.2004 9.81856 12.2547 9.57051 12.3765C9.17748 12.5696 8.85794 12.8777 8.65769 13.2567C8.43002 13.6876 8.43002 14.2516 8.43002 15.3797V16.3196C8.43002 17.4477 8.43002 18.0117 8.65769 18.4426C8.85794 18.8216 9.17748 19.1297 9.57051 19.3227C10.0173 19.5423 10.6022 19.5423 11.7721 19.5423H16.2281C17.3979 19.5423 17.9828 19.5423 18.4297 19.3227C18.8227 19.1297 19.1422 18.8216 19.3424 18.4426C19.5701 18.0117 19.5701 17.4477 19.5701 16.3196V15.3797C19.5701 14.2516 19.5701 13.6876 19.3424 13.2567C19.1422 12.8777 18.8227 12.5696 18.4297 12.3765C18.1816 12.2547 17.891 12.2004 17.4814 12.1763M10.5188 12.1763V10.8142C10.5188 8.96023 12.0774 7.45728 14.0001 7.45728C15.9227 7.45728 17.4814 8.96023 17.4814 10.8142V12.1763" stroke="#6B7280" stroke-width="1.5" stroke-linecap="round" stroke-linejoin="round"/>
</g>
</g>
</g>
</g>
<defs>
<clipPath id="clip0_12312_26785">
<rect x="-724" y="-326" width="1095" height="675" rx="10" fill="white"/>
</clipPath>
</defs>
</svg>
