<svg width="500" height="224" viewBox="0 0 500 224" fill="none" xmlns="http://www.w3.org/2000/svg">
<path d="M0 33H500" stroke="#1D1D22" stroke-opacity="0.1"/>
<path d="M0 9H500" stroke="#1D1D22" stroke-opacity="0.1"/>
<path d="M0 57H500" stroke="#1D1D22" stroke-opacity="0.1"/>
<path d="M0 81H500" stroke="#1D1D22" stroke-opacity="0.1"/>
<path d="M0 133H500" stroke="#1D1D22" stroke-opacity="0.1"/>
<path d="M0 157H500" stroke="#1D1D22" stroke-opacity="0.1"/>
<path d="M0 181H500" stroke="#1D1D22" stroke-opacity="0.1"/>
<path d="M0 205H500" stroke="#1D1D22" stroke-opacity="0.1"/>
<path d="M0 109H500" stroke="#1D1D22"/>
<path d="M9.66 104.18C9.128 104.18 8.648 104.056 8.22 103.808C7.796 103.56 7.46 103.224 7.212 102.8C6.964 102.372 6.84 101.892 6.84 101.36V98C6.84 97.468 6.964 96.99 7.212 96.566C7.46 96.138 7.796 95.8 8.22 95.552C8.648 95.304 9.128 95.18 9.66 95.18C10.192 95.18 10.67 95.304 11.094 95.552C11.522 95.8 11.86 96.138 12.108 96.566C12.356 96.99 12.48 97.468 12.48 98V101.36C12.48 101.892 12.356 102.372 12.108 102.8C11.86 103.224 11.522 103.56 11.094 103.808C10.67 104.056 10.192 104.18 9.66 104.18ZM9.66 103.328C10.016 103.328 10.34 103.242 10.632 103.07C10.924 102.894 11.156 102.66 11.328 102.368C11.5 102.076 11.586 101.754 11.586 101.402V97.958C11.586 97.602 11.5 97.278 11.328 96.986C11.156 96.694 10.924 96.462 10.632 96.29C10.34 96.114 10.016 96.026 9.66 96.026C9.304 96.026 8.98 96.114 8.688 96.29C8.396 96.462 8.164 96.694 7.992 96.986C7.82 97.278 7.734 97.602 7.734 97.958V101.402C7.734 101.754 7.82 102.076 7.992 102.368C8.164 102.66 8.396 102.894 8.688 103.07C8.98 103.242 9.304 103.328 9.66 103.328Z" fill="#01031C"/>
<path d="M487.352 102.794C486.92 102.794 486.56 102.688 486.272 102.476C485.984 102.264 485.768 101.986 485.624 101.642C485.484 101.294 485.416 100.922 485.42 100.526C485.424 100.122 485.502 99.75 485.654 99.41C485.81 99.07 486.032 98.798 486.32 98.594C486.612 98.386 486.966 98.282 487.382 98.282C487.858 98.282 488.25 98.43 488.558 98.726C488.87 99.022 489.122 99.47 489.314 100.07H488.99C489.122 99.674 489.28 99.344 489.464 99.08C489.648 98.812 489.86 98.612 490.1 98.48C490.344 98.348 490.622 98.282 490.934 98.282C491.334 98.282 491.678 98.378 491.966 98.57C492.258 98.762 492.482 99.026 492.638 99.362C492.798 99.698 492.878 100.082 492.878 100.514C492.878 100.934 492.802 101.316 492.65 101.66C492.498 102.004 492.276 102.28 491.984 102.488C491.696 102.692 491.346 102.794 490.934 102.794C490.618 102.794 490.338 102.73 490.094 102.602C489.854 102.47 489.642 102.272 489.458 102.008C489.278 101.744 489.122 101.408 488.99 101H489.314C489.178 101.408 489.016 101.744 488.828 102.008C488.644 102.272 488.43 102.47 488.186 102.602C487.942 102.73 487.664 102.794 487.352 102.794ZM487.4 101.942C487.696 101.942 487.966 101.838 488.21 101.63C488.454 101.418 488.682 101.054 488.894 100.538C488.682 100.018 488.454 99.654 488.21 99.446C487.966 99.234 487.696 99.128 487.4 99.128C487.128 99.128 486.906 99.196 486.734 99.332C486.562 99.464 486.436 99.638 486.356 99.854C486.276 100.066 486.236 100.294 486.236 100.538C486.236 100.778 486.276 101.006 486.356 101.222C486.436 101.438 486.562 101.612 486.734 101.744C486.906 101.876 487.128 101.942 487.4 101.942ZM490.904 101.942C491.176 101.942 491.398 101.876 491.57 101.744C491.742 101.612 491.868 101.438 491.948 101.222C492.028 101.006 492.068 100.778 492.068 100.538C492.068 100.294 492.028 100.066 491.948 99.854C491.868 99.638 491.742 99.464 491.57 99.332C491.398 99.196 491.176 99.128 490.904 99.128C490.608 99.128 490.338 99.234 490.094 99.446C489.85 99.654 489.622 100.018 489.41 100.538C489.622 101.054 489.85 101.418 490.094 101.63C490.338 101.838 490.608 101.942 490.904 101.942Z" fill="#01031C"/>
<path d="M289.722 98.2161C289.857 97.9753 289.771 97.6705 289.531 97.5353L285.607 95.3318C285.366 95.1966 285.061 95.2822 284.926 95.5229C284.791 95.7637 284.877 96.0685 285.117 96.2037L288.605 98.1624L286.646 101.65C286.511 101.891 286.597 102.196 286.837 102.331C287.078 102.466 287.383 102.38 287.518 102.14L289.722 98.2161ZM210.849 120.51L213.796 119.683L213.526 118.72L210.579 119.547L210.849 120.51ZM217.724 118.58L223.617 116.926L223.347 115.963L217.454 117.617L217.724 118.58ZM227.546 115.823L233.439 114.169L233.168 113.206L227.276 114.86L227.546 115.823ZM237.367 113.066L243.26 111.411L242.99 110.449L237.097 112.103L237.367 113.066ZM247.189 110.309L253.082 108.654L252.811 107.691L246.918 109.346L247.189 110.309ZM257.01 107.551L262.903 105.897L262.633 104.934L256.74 106.589L257.01 107.551ZM266.832 104.794L272.724 103.14L272.454 102.177L266.561 103.831L266.832 104.794ZM276.653 102.037L282.546 100.383L282.276 99.4199L276.383 101.074L276.653 102.037ZM286.474 99.2798L289.421 98.4527L289.151 97.4899L286.204 98.317L286.474 99.2798ZM290.158 98.4609C290.428 97.9794 290.257 97.3698 289.775 97.0994L281.928 92.6923C281.447 92.4219 280.837 92.593 280.567 93.0746C280.296 93.5561 280.467 94.1657 280.949 94.4362L287.924 98.3535L284.007 105.329C283.736 105.81 283.908 106.42 284.389 106.69C284.871 106.961 285.48 106.79 285.751 106.308L290.158 98.4609ZM210.985 120.992L213.931 120.164L213.39 118.239L210.444 119.066L210.985 120.992ZM217.86 119.062L223.752 117.407L223.212 115.482L217.319 117.136L217.86 119.062ZM227.681 116.304L233.574 114.65L233.033 112.724L227.14 114.379L227.681 116.304ZM237.502 113.547L243.395 111.893L242.855 109.967L236.962 111.622L237.502 113.547ZM247.324 110.79L253.217 109.136L252.676 107.21L246.783 108.864L247.324 110.79ZM257.145 108.033L263.038 106.378L262.498 104.453L256.605 106.107L257.145 108.033ZM266.967 105.276L272.86 103.621L272.319 101.696L266.426 103.35L266.967 105.276ZM276.788 102.518L282.681 100.864L282.14 98.9385L276.248 100.593L276.788 102.518ZM286.61 99.7612L289.556 98.934L289.015 97.0085L286.069 97.8356L286.61 99.7612Z" fill="black"/>
<path d="M250 108.999L0 206L8.48006e-06 108.999L250 108.999Z" fill="url(#paint0_linear_6493_121065)" fill-opacity="0.4"/>
<g filter="url(#filter0_d_6493_121065)">
<circle cx="250" cy="109" r="6" fill="#01031C"/>
<circle cx="250" cy="109" r="5" stroke="white" stroke-width="2"/>
</g>
<path d="M250 109L500 7.5V109H250Z" fill="url(#paint1_linear_6493_121065)" fill-opacity="0.4"/>
<defs>
<filter id="filter0_d_6493_121065" x="240" y="101" width="20" height="20" filterUnits="userSpaceOnUse" color-interpolation-filters="sRGB">
<feFlood flood-opacity="0" result="BackgroundImageFix"/>
<feColorMatrix in="SourceAlpha" type="matrix" values="0 0 0 0 0 0 0 0 0 0 0 0 0 0 0 0 0 0 127 0" result="hardAlpha"/>
<feOffset dy="2"/>
<feGaussianBlur stdDeviation="2"/>
<feComposite in2="hardAlpha" operator="out"/>
<feColorMatrix type="matrix" values="0 0 0 0 0 0 0 0 0 0 0 0 0 0 0 0 0 0 0.25 0"/>
<feBlend mode="normal" in2="BackgroundImageFix" result="effect1_dropShadow_6493_121065"/>
<feBlend mode="normal" in="SourceGraphic" in2="effect1_dropShadow_6493_121065" result="shape"/>
</filter>
<linearGradient id="paint0_linear_6493_121065" x1="125" y1="177" x2="125" y2="109" gradientUnits="userSpaceOnUse">
<stop stop-color="#F04853"/>
<stop offset="1" stop-color="#F04853" stop-opacity="0.345937"/>
</linearGradient>
<linearGradient id="paint1_linear_6493_121065" x1="375" y1="59" x2="375" y2="109" gradientUnits="userSpaceOnUse">
<stop stop-color="#45AE4A"/>
<stop offset="1" stop-color="#45AE4A" stop-opacity="0.3"/>
</linearGradient>
</defs>
</svg>
