<svg xmlns="http://www.w3.org/2000/svg" width="64" height="48" viewBox="0 0 64 48" fill="none">
<rect x="64" width="30" height="64" rx="15" transform="rotate(90 64 0)" fill="#F4FBF4"/>
<path d="M17.84 18L17.84 9.36H21.332C21.416 9.36 21.52 9.364 21.644 9.372C21.768 9.376 21.886 9.388 21.998 9.408C22.478 9.484 22.878 9.648 23.198 9.9C23.522 10.152 23.764 10.47 23.924 10.854C24.084 11.238 24.164 11.662 24.164 12.126C24.164 12.594 24.084 13.02 23.924 13.404C23.764 13.788 23.522 14.106 23.198 14.358C22.878 14.61 22.478 14.774 21.998 14.85C21.886 14.866 21.766 14.878 21.638 14.886C21.514 14.894 21.412 14.898 21.332 14.898H19.094L19.094 18H17.84ZM19.094 13.71H21.284C21.364 13.71 21.452 13.706 21.548 13.698C21.648 13.69 21.742 13.676 21.83 13.656C22.086 13.596 22.292 13.486 22.448 13.326C22.604 13.162 22.716 12.974 22.784 12.762C22.852 12.55 22.886 12.338 22.886 12.126C22.886 11.914 22.852 11.704 22.784 11.496C22.716 11.284 22.604 11.098 22.448 10.938C22.292 10.774 22.086 10.662 21.83 10.602C21.742 10.578 21.648 10.562 21.548 10.554C21.452 10.546 21.364 10.542 21.284 10.542H19.094V13.71ZM25.3634 18V11.52H26.4794V13.092L26.3234 12.888C26.4034 12.68 26.5074 12.49 26.6354 12.318C26.7634 12.142 26.9114 11.998 27.0794 11.886C27.2434 11.766 27.4254 11.674 27.6254 11.61C27.8294 11.542 28.0374 11.502 28.2494 11.49C28.4614 11.474 28.6654 11.484 28.8614 11.52V12.696C28.6494 12.64 28.4134 12.624 28.1534 12.648C27.8974 12.672 27.6614 12.754 27.4454 12.894C27.2414 13.026 27.0794 13.186 26.9594 13.374C26.8434 13.562 26.7594 13.772 26.7074 14.004C26.6554 14.232 26.6294 14.474 26.6294 14.73V18H25.3634ZM32.7009 18.18C32.0529 18.18 31.4909 18.034 31.0149 17.742C30.5389 17.45 30.1709 17.048 29.9109 16.536C29.6549 16.02 29.5269 15.426 29.5269 14.754C29.5269 14.078 29.6589 13.484 29.9229 12.972C30.1869 12.456 30.5569 12.056 31.0329 11.772C31.5089 11.484 32.0649 11.34 32.7009 11.34C33.3489 11.34 33.9109 11.486 34.3869 11.778C34.8629 12.07 35.2309 12.472 35.4909 12.984C35.7509 13.496 35.8809 14.086 35.8809 14.754C35.8809 15.43 35.7489 16.026 35.4849 16.542C35.2249 17.054 34.8569 17.456 34.3809 17.748C33.9049 18.036 33.3449 18.18 32.7009 18.18ZM32.7009 16.998C33.3209 16.998 33.7829 16.79 34.0869 16.374C34.3949 15.954 34.5489 15.414 34.5489 14.754C34.5489 14.078 34.3929 13.538 34.0809 13.134C33.7729 12.726 33.3129 12.522 32.7009 12.522C32.2809 12.522 31.9349 12.618 31.6629 12.81C31.3909 12.998 31.1889 13.26 31.0569 13.596C30.9249 13.928 30.8589 14.314 30.8589 14.754C30.8589 15.434 31.0149 15.978 31.3269 16.386C31.6389 16.794 32.0969 16.998 32.7009 16.998ZM37.7934 18V11.292C37.7934 11.128 37.7994 10.954 37.8114 10.77C37.8234 10.582 37.8574 10.398 37.9134 10.218C37.9734 10.034 38.0714 9.866 38.2074 9.714C38.3714 9.534 38.5514 9.406 38.7474 9.33C38.9434 9.254 39.1374 9.21 39.3294 9.198C39.5254 9.186 39.7054 9.18 39.8694 9.18H40.6854V10.212H39.9294C39.6334 10.212 39.4114 10.286 39.2634 10.434C39.1194 10.578 39.0474 10.784 39.0474 11.052V18H37.7934ZM36.7194 12.528V11.52H40.6854V12.528H36.7194ZM41.9454 10.458V9.24H43.1994V10.458H41.9454ZM41.9454 18V11.52H43.1994V18H41.9454ZM48.7121 18C48.3041 18.08 47.9041 18.114 47.5121 18.102C47.1201 18.09 46.7701 18.014 46.4621 17.874C46.1541 17.734 45.9221 17.514 45.7661 17.214C45.6261 16.946 45.5501 16.674 45.5381 16.398C45.5301 16.118 45.5261 15.802 45.5261 15.45V9.72H46.7861V15.39C46.7861 15.65 46.7881 15.876 46.7921 16.068C46.8001 16.26 46.8421 16.422 46.9181 16.554C47.0621 16.802 47.2901 16.944 47.6021 16.98C47.9181 17.012 48.2881 16.998 48.7121 16.938V18ZM44.2841 12.528V11.52L48.7121 11.52V12.528L44.2841 12.528Z" fill="#45AE4A"/>
<path d="M33 47L33 24M33 47L38 41.4286M33 47L28 41.4286" stroke="#45AE4A" stroke-width="2" stroke-linecap="round" stroke-linejoin="round"/>
</svg>