<svg width="500" height="224" viewBox="0 0 500 224" fill="none" xmlns="http://www.w3.org/2000/svg">
<path d="M0 33H500" stroke="#1D1D22" stroke-opacity="0.1"/>
<path d="M0 9H500" stroke="#1D1D22" stroke-opacity="0.1"/>
<path d="M0 57H500" stroke="#1D1D22" stroke-opacity="0.1"/>
<path d="M0 81H500" stroke="#1D1D22" stroke-opacity="0.1"/>
<path d="M0 133H500" stroke="#1D1D22" stroke-opacity="0.1"/>
<path d="M0 157H500" stroke="#1D1D22" stroke-opacity="0.1"/>
<path d="M0 181H500" stroke="#1D1D22" stroke-opacity="0.1"/>
<path d="M0 205H500" stroke="#1D1D22" stroke-opacity="0.1"/>
<path d="M0 109H500" stroke="#1D1D22"/>
<path d="M9.66 104.18C9.128 104.18 8.648 104.056 8.22 103.808C7.796 103.56 7.46 103.224 7.212 102.8C6.964 102.372 6.84 101.892 6.84 101.36V98C6.84 97.468 6.964 96.99 7.212 96.566C7.46 96.138 7.796 95.8 8.22 95.552C8.648 95.304 9.128 95.18 9.66 95.18C10.192 95.18 10.67 95.304 11.094 95.552C11.522 95.8 11.86 96.138 12.108 96.566C12.356 96.99 12.48 97.468 12.48 98V101.36C12.48 101.892 12.356 102.372 12.108 102.8C11.86 103.224 11.522 103.56 11.094 103.808C10.67 104.056 10.192 104.18 9.66 104.18ZM9.66 103.328C10.016 103.328 10.34 103.242 10.632 103.07C10.924 102.894 11.156 102.66 11.328 102.368C11.5 102.076 11.586 101.754 11.586 101.402V97.958C11.586 97.602 11.5 97.278 11.328 96.986C11.156 96.694 10.924 96.462 10.632 96.29C10.34 96.114 10.016 96.026 9.66 96.026C9.304 96.026 8.98 96.114 8.688 96.29C8.396 96.462 8.164 96.694 7.992 96.986C7.82 97.278 7.734 97.602 7.734 97.958V101.402C7.734 101.754 7.82 102.076 7.992 102.368C8.164 102.66 8.396 102.894 8.688 103.07C8.98 103.242 9.304 103.328 9.66 103.328Z" fill="#01031C"/>
<path d="M487.352 102.794C486.92 102.794 486.56 102.688 486.272 102.476C485.984 102.264 485.768 101.986 485.624 101.642C485.484 101.294 485.416 100.922 485.42 100.526C485.424 100.122 485.502 99.75 485.654 99.41C485.81 99.07 486.032 98.798 486.32 98.594C486.612 98.386 486.966 98.282 487.382 98.282C487.858 98.282 488.25 98.43 488.558 98.726C488.87 99.022 489.122 99.47 489.314 100.07H488.99C489.122 99.674 489.28 99.344 489.464 99.08C489.648 98.812 489.86 98.612 490.1 98.48C490.344 98.348 490.622 98.282 490.934 98.282C491.334 98.282 491.678 98.378 491.966 98.57C492.258 98.762 492.482 99.026 492.638 99.362C492.798 99.698 492.878 100.082 492.878 100.514C492.878 100.934 492.802 101.316 492.65 101.66C492.498 102.004 492.276 102.28 491.984 102.488C491.696 102.692 491.346 102.794 490.934 102.794C490.618 102.794 490.338 102.73 490.094 102.602C489.854 102.47 489.642 102.272 489.458 102.008C489.278 101.744 489.122 101.408 488.99 101H489.314C489.178 101.408 489.016 101.744 488.828 102.008C488.644 102.272 488.43 102.47 488.186 102.602C487.942 102.73 487.664 102.794 487.352 102.794ZM487.4 101.942C487.696 101.942 487.966 101.838 488.21 101.63C488.454 101.418 488.682 101.054 488.894 100.538C488.682 100.018 488.454 99.654 488.21 99.446C487.966 99.234 487.696 99.128 487.4 99.128C487.128 99.128 486.906 99.196 486.734 99.332C486.562 99.464 486.436 99.638 486.356 99.854C486.276 100.066 486.236 100.294 486.236 100.538C486.236 100.778 486.276 101.006 486.356 101.222C486.436 101.438 486.562 101.612 486.734 101.744C486.906 101.876 487.128 101.942 487.4 101.942ZM490.904 101.942C491.176 101.942 491.398 101.876 491.57 101.744C491.742 101.612 491.868 101.438 491.948 101.222C492.028 101.006 492.068 100.778 492.068 100.538C492.068 100.294 492.028 100.066 491.948 99.854C491.868 99.638 491.742 99.464 491.57 99.332C491.398 99.196 491.176 99.128 490.904 99.128C490.608 99.128 490.338 99.234 490.094 99.446C489.85 99.654 489.622 100.018 489.41 100.538C489.622 101.054 489.85 101.418 490.094 101.63C490.338 101.838 490.608 101.942 490.904 101.942Z" fill="#01031C"/>
<path d="M290.891 104.307C291.061 104.089 291.022 103.775 290.805 103.605L287.257 100.837C287.039 100.667 286.725 100.706 286.555 100.924C286.385 101.142 286.424 101.456 286.642 101.626L289.795 104.086L287.335 107.24C287.165 107.458 287.204 107.772 287.422 107.942C287.639 108.112 287.953 108.073 288.123 107.855L290.891 104.307ZM209.565 114.497L212.602 114.122L212.479 113.129L209.442 113.504L209.565 114.497ZM216.652 113.622L222.726 112.872L222.604 111.879L216.529 112.629L216.652 113.622ZM226.776 112.372L232.85 111.621L232.728 110.629L226.653 111.379L226.776 112.372ZM236.9 111.121L242.975 110.371L242.852 109.379L236.778 110.129L236.9 111.121ZM247.024 109.871L253.099 109.121L252.976 108.129L246.902 108.879L247.024 109.871ZM257.148 108.621L263.223 107.871L263.1 106.879L257.026 107.629L257.148 108.621ZM267.273 107.371L273.347 106.621L273.225 105.628L267.15 106.379L267.273 107.371ZM277.397 106.121L283.471 105.371L283.349 104.378L277.274 105.128L277.397 106.121ZM287.521 104.871L290.558 104.496L290.436 103.503L287.399 103.878L287.521 104.871ZM291.286 104.615C291.625 104.179 291.548 103.551 291.112 103.211L284.016 97.675C283.581 97.3353 282.953 97.4129 282.613 97.8483C282.273 98.2837 282.351 98.9121 282.786 99.2518L289.094 104.173L284.173 110.48C283.833 110.916 283.91 111.544 284.346 111.884C284.781 112.224 285.41 112.146 285.749 111.711L291.286 104.615ZM209.626 114.993L212.663 114.618L212.418 112.633L209.381 113.008L209.626 114.993ZM216.713 114.118L222.787 113.368L222.542 111.383L216.468 112.133L216.713 114.118ZM226.837 112.868L232.912 112.118L232.667 110.133L226.592 110.883L226.837 112.868ZM236.961 111.618L243.036 110.868L242.791 108.883L236.716 109.633L236.961 111.618ZM247.086 110.368L253.16 109.617L252.915 107.633L246.84 108.383L247.086 110.368ZM257.21 109.117L263.284 108.367L263.039 106.382L256.965 107.132L257.21 109.117ZM267.334 107.867L273.409 107.117L273.163 105.132L267.089 105.882L267.334 107.867ZM277.458 106.617L283.533 105.867L283.288 103.882L277.213 104.632L277.458 106.617ZM287.582 105.367L290.62 104.992L290.375 103.007L287.337 103.382L287.582 105.367Z" fill="black"/>
<path d="M250 109L0 132.5L2.0545e-06 109L250 109Z" fill="url(#paint0_linear_6447_122661)" fill-opacity="0.4"/>
<g filter="url(#filter0_d_6447_122661)">
<circle cx="250" cy="109" r="6" fill="#01031C"/>
<circle cx="250" cy="109" r="5" stroke="white" stroke-width="2"/>
</g>
<path d="M250 109L500 80.5V109H250Z" fill="url(#paint1_linear_6447_122661)" fill-opacity="0.4"/>
<defs>
<filter id="filter0_d_6447_122661" x="240" y="101" width="20" height="20" filterUnits="userSpaceOnUse" color-interpolation-filters="sRGB">
<feFlood flood-opacity="0" result="BackgroundImageFix"/>
<feColorMatrix in="SourceAlpha" type="matrix" values="0 0 0 0 0 0 0 0 0 0 0 0 0 0 0 0 0 0 127 0" result="hardAlpha"/>
<feOffset dy="2"/>
<feGaussianBlur stdDeviation="2"/>
<feComposite in2="hardAlpha" operator="out"/>
<feColorMatrix type="matrix" values="0 0 0 0 0 0 0 0 0 0 0 0 0 0 0 0 0 0 0.25 0"/>
<feBlend mode="normal" in2="BackgroundImageFix" result="effect1_dropShadow_6447_122661"/>
<feBlend mode="normal" in="SourceGraphic" in2="effect1_dropShadow_6447_122661" result="shape"/>
</filter>
<linearGradient id="paint0_linear_6447_122661" x1="125" y1="177" x2="125" y2="109" gradientUnits="userSpaceOnUse">
<stop stop-color="#F04853"/>
<stop offset="1" stop-color="#F04853" stop-opacity="0.345937"/>
</linearGradient>
<linearGradient id="paint1_linear_6447_122661" x1="375" y1="59" x2="375" y2="109" gradientUnits="userSpaceOnUse">
<stop stop-color="#45AE4A"/>
<stop offset="1" stop-color="#45AE4A" stop-opacity="0.3"/>
</linearGradient>
</defs>
</svg>
