<svg width="36" height="40" viewBox="0 0 36 40" fill="none" xmlns="http://www.w3.org/2000/svg">
<path d="M33.9023 8.79688L30.4785 12.2196" stroke="#2947F2" stroke-width="1.8" stroke-miterlimit="10" stroke-linecap="round" stroke-linejoin="round"/>
<path d="M30.4506 12.2196L27.0273 8.79688" stroke="#2947F2" stroke-width="1.8" stroke-miterlimit="10" stroke-linecap="round" stroke-linejoin="round"/>
<path d="M25.7148 2.52344C30.1613 4.31412 30.5284 7.77746 30.5284 11.6971" stroke="#2947F2" stroke-width="1.8" stroke-miterlimit="10" stroke-linecap="round" stroke-linejoin="round"/>
<path d="M2.22266 31.2274L5.64703 27.8047" stroke="#FF6805" stroke-width="1.8" stroke-miterlimit="10" stroke-linecap="round" stroke-linejoin="round"/>
<path d="M5.67383 27.8047L9.09764 31.2274" stroke="#FF6805" stroke-width="1.8" stroke-miterlimit="10" stroke-linecap="round" stroke-linejoin="round"/>
<path d="M10.4098 37.5102C5.96333 35.7189 5.5957 32.2556 5.5957 28.3359" stroke="#FF6805" stroke-width="1.8" stroke-miterlimit="10" stroke-linecap="round" stroke-linejoin="round"/>
<path d="M11.6772 25.1201C17.9819 25.1201 23.0928 20.0092 23.0928 13.7046C23.0928 7.39997 17.9819 2.28906 11.6772 2.28906C5.37262 2.28906 0.261719 7.39997 0.261719 13.7046C0.261719 20.0092 5.37262 25.1201 11.6772 25.1201Z" fill="#2947F2"/>
<path d="M24.3257 37.6982C30.6303 37.6982 35.7412 32.5873 35.7412 26.2827C35.7412 19.9781 30.6303 14.8672 24.3257 14.8672C18.0211 14.8672 12.9102 19.9781 12.9102 26.2827C12.9102 32.5873 18.0211 37.6982 24.3257 37.6982Z" fill="#FF6805"/>
<path d="M6.47461 12.3203H11.9336" stroke="white" stroke-width="1.8" stroke-miterlimit="10" stroke-linecap="round" stroke-linejoin="round"/>
<path d="M6.47461 14.9297H11.9336" stroke="white" stroke-width="1.8" stroke-miterlimit="10" stroke-linecap="round" stroke-linejoin="round"/>
<path d="M11.5687 19.3616C9.62269 18.9973 8.11719 16.8859 8.11719 14.3555V12.8991C8.11719 10.1134 9.94006 7.83594 12.1667 7.83594C13.3915 7.83594 14.4938 8.52544 15.2376 9.60855" stroke="white" stroke-width="1.8" stroke-miterlimit="10" stroke-linecap="round" stroke-linejoin="round"/>
<path d="M21.2544 28.8729C21.2544 30.222 22.6221 31.3147 24.3066 31.3147C25.9917 31.3147 27.3571 30.2214 27.3571 28.8729C27.3571 27.5249 25.7291 26.9337 24.2987 26.3108C22.8694 25.6857 21.2402 25.0956 21.2402 23.7476C21.2402 22.3974 22.608 21.3047 24.2913 21.3047C25.977 21.3047 27.3436 22.398 27.3436 23.7476" stroke="white" stroke-width="1.8" stroke-miterlimit="10" stroke-linecap="round"/>
<path d="M24.291 21.2959V19.6797" stroke="white" stroke-width="1.8" stroke-miterlimit="10" stroke-linecap="round"/>
<path d="M24.291 32.9437V31.3281" stroke="white" stroke-width="1.8" stroke-miterlimit="10" stroke-linecap="round"/>
<path d="M12.8145 38.1172C12.8145 38.1172 13.8253 38.4007 14.8615 38.329" stroke="#FF6805" stroke-width="1.8" stroke-miterlimit="10" stroke-linecap="round"/>
<path d="M23.2365 1.87949C23.2365 1.87949 22.2257 1.59658 21.1895 1.66773" stroke="#2947F2" stroke-width="1.8" stroke-miterlimit="10" stroke-linecap="round"/>
</svg>
