<svg width="107" height="93" viewBox="0 0 107 93" fill="none" xmlns="http://www.w3.org/2000/svg">
<path d="M14.5 49C22.5044 49 29 55.172 29 62.7778V79.2222C29 86.828 22.5044 93 14.5 93C6.49558 93 0 86.828 0 79.2222V62.7778C0 55.172 6.49558 49 14.5 49Z" fill="#FF6805"/>
<path d="M53.4925 0C61.4969 0 68 6.24351 68 13.9373V79.0627C68 86.7565 61.5044 93 53.5 93C45.4956 93 39 86.7565 39 79.0627V13.9373C38.9925 6.24351 45.4956 0 53.4925 0Z" fill="#05F2F2"/>
<path d="M92.5 0C100.504 0 107 6.31232 107 14.0909V30.9091C107 38.6877 100.504 45 92.5 45C84.4956 45 78 38.6877 78 30.9091V14.0909C78 6.31232 84.4956 0 92.5 0Z" fill="white"/>
</svg>
