<svg width="107" height="94" viewBox="0 0 107 94" fill="none" xmlns="http://www.w3.org/2000/svg">
<path d="M14.5 49.8398C22.5044 49.8398 29 56.0119 29 63.6176V80.0621C29 87.6678 22.5044 93.8398 14.5 93.8398C6.49558 93.8398 0 87.6678 0 80.0621V63.6176C0 56.0119 6.49558 49.8398 14.5 49.8398Z" fill="#FF6805"/>
<path d="M53.4925 0.839844C61.4969 0.839844 68 7.08335 68 14.7772V79.9025C68 87.5963 61.5044 93.8398 53.5 93.8398C45.4956 93.8398 39 87.5963 39 79.9025V14.7772C38.9925 7.08335 45.4956 0.839844 53.4925 0.839844Z" fill="#05F2F2"/>
<path d="M92.5 0.839844C100.504 0.839844 107 7.15216 107 14.9308V31.7489C107 39.5275 100.504 45.8398 92.5 45.8398C84.4956 45.8398 78 39.5275 78 31.7489V14.9308C78 7.15216 84.4956 0.839844 92.5 0.839844Z" fill="#2947F2"/>
</svg>
