<svg width="36" height="36" viewBox="0 0 36 36" fill="none" xmlns="http://www.w3.org/2000/svg">
<circle cx="18.0352" cy="18.1094" r="17.5" fill="white"/>
<path d="M11.1479 18.459C12.5536 18.459 13.6943 19.5569 13.6943 20.9098V23.8349C13.6943 25.1878 12.5536 26.2857 11.1479 26.2857C9.74226 26.2857 8.60156 25.1878 8.60156 23.8349V20.9098C8.60156 19.5569 9.74226 18.459 11.1479 18.459Z" fill="#FF6805"/>
<path d="M18.0372 9.93359C19.4429 9.93359 20.5849 11.0315 20.5849 12.3844V23.8362C20.5849 25.1891 19.4442 26.287 18.0385 26.287C16.6329 26.287 15.4922 25.1891 15.4922 23.8362V12.3844C15.4909 11.0315 16.6329 9.93359 18.0372 9.93359Z" fill="#05F2F2"/>
<path d="M24.9253 9.93359C26.3309 9.93359 27.4716 11.0315 27.4716 12.3844V15.3095C27.4716 16.6624 26.3309 17.7603 24.9253 17.7603C23.5196 17.7603 22.3789 16.6624 22.3789 15.3095V12.3844C22.3789 11.0315 23.5196 9.93359 24.9253 9.93359Z" fill="#2947F2"/>
</svg>
