<svg width="19" height="20" viewBox="0 0 19 20" fill="none" xmlns="http://www.w3.org/2000/svg">
<g id="lock">
<path id="primary" d="M9.49967 13.9583V13.1667M12.6663 7.625V6.04167C12.6663 5.20181 12.3327 4.39636 11.7388 3.8025C11.145 3.20863 10.3395 2.875 9.49967 2.875C8.65982 2.875 7.85437 3.20863 7.2605 3.8025C6.66664 4.39636 6.33301 5.20181 6.33301 6.04167V7.625M10.6872 11.9792C10.6872 12.214 10.6175 12.4436 10.487 12.6389C10.3566 12.8342 10.1711 12.9864 9.95411 13.0763C9.73712 13.1662 9.49836 13.1897 9.268 13.1438C9.03765 13.098 8.82606 12.9849 8.65998 12.8189C8.49391 12.6528 8.38081 12.4412 8.33499 12.2108C8.28917 11.9805 8.31269 11.7417 8.40257 11.5247C8.49245 11.3077 8.64465 11.1223 8.83993 10.9918C9.03522 10.8613 9.26481 10.7917 9.49967 10.7917C9.81462 10.7917 10.1167 10.9168 10.3394 11.1395C10.5621 11.3622 10.6872 11.6642 10.6872 11.9792ZM15.0413 16.3333V8.41667C15.0413 8.2067 14.9579 8.00534 14.8095 7.85687C14.661 7.70841 14.4596 7.625 14.2497 7.625H4.74967C4.53971 7.625 4.33835 7.70841 4.18988 7.85687C4.04142 8.00534 3.95801 8.2067 3.95801 8.41667V16.3333C3.95801 16.5433 4.04142 16.7447 4.18988 16.8931C4.33835 17.0416 4.53971 17.125 4.74967 17.125H14.2497C14.4596 17.125 14.661 17.0416 14.8095 16.8931C14.9579 16.7447 15.0413 16.5433 15.0413 16.3333Z" stroke="#6B6B6B" stroke-linecap="round" stroke-linejoin="round"/>
</g>
</svg>
