<svg id="Capa_1" enable-background="new 0 0 512 512" height="512" viewBox="0 0 512 512" width="512" xmlns="http://www.w3.org/2000/svg"><g><path d="m508 194-56-42v-142c0-5.522-4.477-10-10-10h-372c-5.523 0-10 4.478-10 10v142l-56 42c-2.518 1.889-4 4.853-4 8v300c0 5.522 4.477 10 10 10h492c5.523 0 10-4.478 10-10 0-7.901 0-297.02 0-300 0-3.147-1.482-6.111-4-8zm-428-174h352v281.902l-176 127.742-176-127.742c0-15.449 0-267.125 0-281.902zm412 462-94.002-70.502c-4.418-3.314-10.687-2.418-14 2s-2.418 10.687 2 14l86.002 64.502h-432l86.002-64.502c4.418-3.313 5.313-9.582 2-14s-9.581-5.313-14-2l-94.002 70.502v-200c102.049 76.527-15.448-11.112 230.126 168.093 3.503 2.543 8.245 2.543 11.748 0l230.126-168.403z"/><path d="m236 206c-5.514 0-10-4.486-10-10 0-5.522-4.477-10-10-10s-10 4.478-10 10c0 16.542 13.458 30 30 30h10v10c0 5.522 4.477 10 10 10s10-4.478 10-10v-10h10c16.542 0 30-13.458 30-30v-20c0-16.542-13.458-30-30-30h-10v-40h10c5.514 0 10 4.486 10 10 0 5.522 4.477 10 10 10s10-4.478 10-10c0-16.542-13.458-30-30-30h-10v-10c0-5.522-4.477-10-10-10s-10 4.478-10 10v10h-10c-16.542 0-30 13.458-30 30v20c0 16.542 13.458 30 30 30h10v40zm30-40h10c5.514 0 10 4.486 10 10v20c0 5.514-4.486 10-10 10h-10zm-30-20c-5.514 0-10-4.486-10-10v-20c0-5.514 4.486-10 10-10h10v40z"/><path d="m366 302c0-5.522-4.477-10-10-10h-200c-5.523 0-10 4.478-10 10s4.477 10 10 10h200c5.523 0 10-4.478 10-10z"/><path d="m286 362c0-5.522-4.477-10-10-10h-40c-5.523 0-10 4.478-10 10s4.477 10 10 10h40c5.523 0 10-4.478 10-10z"/></g></svg>