<svg width="241" height="40" viewBox="0 0 241 40" fill="none" xmlns="http://www.w3.org/2000/svg">
<g clip-path="url(#clip0_4230_117783)">
<path d="M65.2812 10.9375L69.5117 23.1133L73.7305 10.9375H76.8359L70.7539 28H68.2461L62.1758 10.9375H65.2812ZM63.582 10.9375L64.1562 23.582V28H60.4648V10.9375H63.582ZM78.5469 10.9375V28H74.8555V23.582L75.418 10.9375H78.5469ZM84.0312 28H80.1055L86.4453 10.9375H88.9297L88.5781 14.1719L84.0312 28ZM87.7461 14.1719L87.3594 10.9375H89.8555L96.2305 28H92.3047L87.7461 14.1719ZM92.1875 24.6016H83.1406V21.625H92.1875V24.6016ZM106.578 23.5C106.578 23.1172 106.496 22.7852 106.332 22.5039C106.168 22.2227 105.852 21.957 105.383 21.707C104.922 21.4492 104.238 21.1758 103.332 20.8867C102.566 20.6367 101.836 20.3555 101.141 20.043C100.453 19.7227 99.8438 19.3516 99.3125 18.9297C98.7812 18.5078 98.3633 18.0156 98.0586 17.4531C97.7539 16.8906 97.6016 16.2344 97.6016 15.4844C97.6016 14.5234 97.875 13.6875 98.4219 12.9766C98.9688 12.2578 99.7188 11.6992 100.672 11.3008C101.633 10.9023 102.73 10.7031 103.965 10.7031C105.23 10.7031 106.336 10.9258 107.281 11.3711C108.227 11.8164 108.957 12.4375 109.473 13.2344C109.996 14.0234 110.258 14.9375 110.258 15.9766H106.59C106.59 15.5156 106.492 15.1094 106.297 14.7578C106.102 14.3984 105.805 14.1211 105.406 13.9258C105.016 13.7227 104.516 13.6211 103.906 13.6211C103.32 13.6211 102.832 13.707 102.441 13.8789C102.051 14.0508 101.758 14.2773 101.562 14.5586C101.375 14.8398 101.281 15.1562 101.281 15.5078C101.281 15.875 101.41 16.1953 101.668 16.4688C101.926 16.7422 102.301 16.9961 102.793 17.2305C103.285 17.457 103.883 17.6797 104.586 17.8984C105.828 18.2734 106.871 18.7148 107.715 19.2227C108.559 19.7305 109.191 20.332 109.613 21.0273C110.043 21.7148 110.258 22.5312 110.258 23.4766C110.258 24.4766 110 25.332 109.484 26.043C108.977 26.7539 108.258 27.2969 107.328 27.6719C106.398 28.0469 105.305 28.2344 104.047 28.2344C103.188 28.2344 102.344 28.125 101.516 27.9062C100.695 27.6797 99.9492 27.3359 99.2773 26.875C98.6133 26.4062 98.082 25.8164 97.6836 25.1055C97.2852 24.3945 97.0859 23.5508 97.0859 22.5742H100.777C100.777 23.082 100.852 23.5117 101 23.8633C101.156 24.207 101.375 24.4883 101.656 24.707C101.945 24.9258 102.289 25.0859 102.688 25.1875C103.094 25.2812 103.547 25.3281 104.047 25.3281C104.633 25.3281 105.109 25.25 105.477 25.0938C105.852 24.9297 106.129 24.7109 106.309 24.4375C106.488 24.1562 106.578 23.8438 106.578 23.5ZM121.391 23.5C121.391 23.1172 121.309 22.7852 121.145 22.5039C120.98 22.2227 120.664 21.957 120.195 21.707C119.734 21.4492 119.051 21.1758 118.145 20.8867C117.379 20.6367 116.648 20.3555 115.953 20.043C115.266 19.7227 114.656 19.3516 114.125 18.9297C113.594 18.5078 113.176 18.0156 112.871 17.4531C112.566 16.8906 112.414 16.2344 112.414 15.4844C112.414 14.5234 112.688 13.6875 113.234 12.9766C113.781 12.2578 114.531 11.6992 115.484 11.3008C116.445 10.9023 117.543 10.7031 118.777 10.7031C120.043 10.7031 121.148 10.9258 122.094 11.3711C123.039 11.8164 123.77 12.4375 124.285 13.2344C124.809 14.0234 125.07 14.9375 125.07 15.9766H121.402C121.402 15.5156 121.305 15.1094 121.109 14.7578C120.914 14.3984 120.617 14.1211 120.219 13.9258C119.828 13.7227 119.328 13.6211 118.719 13.6211C118.133 13.6211 117.645 13.707 117.254 13.8789C116.863 14.0508 116.57 14.2773 116.375 14.5586C116.188 14.8398 116.094 15.1562 116.094 15.5078C116.094 15.875 116.223 16.1953 116.48 16.4688C116.738 16.7422 117.113 16.9961 117.605 17.2305C118.098 17.457 118.695 17.6797 119.398 17.8984C120.641 18.2734 121.684 18.7148 122.527 19.2227C123.371 19.7305 124.004 20.332 124.426 21.0273C124.855 21.7148 125.07 22.5312 125.07 23.4766C125.07 24.4766 124.812 25.332 124.297 26.043C123.789 26.7539 123.07 27.2969 122.141 27.6719C121.211 28.0469 120.117 28.2344 118.859 28.2344C118 28.2344 117.156 28.125 116.328 27.9062C115.508 27.6797 114.762 27.3359 114.09 26.875C113.426 26.4062 112.895 25.8164 112.496 25.1055C112.098 24.3945 111.898 23.5508 111.898 22.5742H115.59C115.59 23.082 115.664 23.5117 115.812 23.8633C115.969 24.207 116.188 24.4883 116.469 24.707C116.758 24.9258 117.102 25.0859 117.5 25.1875C117.906 25.2812 118.359 25.3281 118.859 25.3281C119.445 25.3281 119.922 25.25 120.289 25.0938C120.664 24.9297 120.941 24.7109 121.121 24.4375C121.301 24.1562 121.391 23.8438 121.391 23.5ZM135.805 22.0586V19.0938H140.094C140.742 19.0938 141.266 18.9883 141.664 18.7773C142.07 18.5664 142.367 18.2773 142.555 17.9102C142.742 17.543 142.836 17.1211 142.836 16.6445C142.836 16.168 142.742 15.7227 142.555 15.3086C142.367 14.8867 142.07 14.5508 141.664 14.3008C141.266 14.043 140.742 13.9141 140.094 13.9141H137.07V28H133.379V10.9375H140.094C141.445 10.9375 142.605 11.1836 143.574 11.6758C144.543 12.168 145.285 12.8438 145.801 13.7031C146.316 14.5547 146.574 15.5273 146.574 16.6211C146.574 17.7305 146.316 18.6914 145.801 19.5039C145.285 20.3164 144.543 20.9453 143.574 21.3906C142.605 21.8359 141.445 22.0586 140.094 22.0586H135.805ZM149.469 28H145.543L151.883 10.9375H154.367L154.016 14.1719L149.469 28ZM153.184 14.1719L152.797 10.9375H155.293L161.668 28H157.742L153.184 14.1719ZM157.625 24.6016H148.578V21.625H157.625V24.6016ZM166.754 18.5078L170.188 10.9375H174.195L168.629 21.8242V28H164.891V21.8242L159.312 10.9375H163.332L166.754 18.5078ZM180.5 10.9375L184.73 23.1133L188.949 10.9375H192.055L185.973 28H183.465L177.395 10.9375H180.5ZM178.801 10.9375L179.375 23.582V28H175.684V10.9375H178.801ZM193.766 10.9375V28H190.074V23.582L190.637 10.9375H193.766ZM208.25 28H199.238V25.0352H208.25V28ZM200.422 28H196.73V10.9375H200.422V28ZM207.078 20.6641H199.238V17.793H207.078V20.6641ZM208.238 13.9141H199.238V10.9375H208.238V13.9141ZM224.211 28H220.531L213.91 17.0195V28H210.23V10.9375H213.91L220.543 21.9297V10.9375H224.211V28ZM234.969 28H231.289V10.9375H234.969V28ZM240.148 13.9141H226.18V10.9375H240.148V13.9141Z" fill="#111827"/>
<path d="M40 20C40 8.9543 31.0457 0 20 0C8.9543 0 0 8.9543 0 20C0 31.0457 8.9543 40 20 40C31.0457 40 40 31.0457 40 20Z" fill="#DBEAFE"/>
<g clip-path="url(#clip1_4230_117783)">
<path d="M12.2 25.1324V26.6002C12.2 27.8136 14.9714 28.8002 18.3875 28.8002C21.8035 28.8002 24.575 27.8136 24.575 26.6002V25.1324C23.244 26.1327 20.8109 26.6002 18.3875 26.6002C15.964 26.6002 13.5309 26.1327 12.2 25.1324ZM22.5125 15.6002C25.9285 15.6002 28.7 14.6136 28.7 13.4002C28.7 12.1868 25.9285 11.2002 22.5125 11.2002C19.0964 11.2002 16.325 12.1868 16.325 13.4002C16.325 14.6136 19.0964 15.6002 22.5125 15.6002ZM12.2 21.5264V23.3002C12.2 24.5136 14.9714 25.5002 18.3875 25.5002C21.8035 25.5002 24.575 24.5136 24.575 23.3002V21.5264C23.244 22.6952 20.8077 23.3002 18.3875 23.3002C15.9672 23.3002 13.5309 22.6952 12.2 21.5264ZM25.6062 21.9046C27.4528 21.523 28.7 20.8149 28.7 20.0002V18.5324C27.9523 19.0961 26.8534 19.4811 25.6062 19.7183V21.9046ZM18.3875 16.7002C14.9714 16.7002 12.2 17.9308 12.2 19.4502C12.2 20.9696 14.9714 22.2002 18.3875 22.2002C21.8035 22.2002 24.575 20.9696 24.575 19.4502C24.575 17.9308 21.8035 16.7002 18.3875 16.7002ZM25.4547 18.6355C27.3883 18.2643 28.7 17.5355 28.7 16.7002V15.2324C27.5559 16.0952 25.5901 16.5593 23.5211 16.6693C24.4718 17.1608 25.1711 17.8208 25.4547 18.6355Z" fill="#374151"/>
</g>
</g>
<defs>
<clipPath id="clip0_4230_117783">
<rect width="241" height="40" fill="white"/>
</clipPath>
<clipPath id="clip1_4230_117783">
<rect width="16.5" height="17.6" fill="white" transform="translate(12.2 11.2002)"/>
</clipPath>
</defs>
</svg>
