<svg width="19" height="19" viewBox="0 0 19 19" fill="none" xmlns="http://www.w3.org/2000/svg">
<path d="M18.9553 6.25431C18.935 6.2059 18.9104 6.15995 18.8818 6.11717C18.8602 5.99857 18.8312 5.8818 18.7951 5.76774C18.7907 5.75452 18.7863 5.74131 18.7804 5.72808L16.7572 0.495652C16.7 0.348271 16.6057 0.222868 16.486 0.134823C16.3663 0.046779 16.2263 -7.78631e-05 16.0833 9.71243e-08H2.85495C2.7119 -7.78631e-05 2.57193 0.046779 2.45222 0.134823C2.33251 0.222868 2.23826 0.348271 2.18104 0.495652L0.145341 5.76691C-0.0484698 6.31981 -0.0484698 6.93476 0.145341 7.48765C0.332582 7.96879 0.60384 8.40279 0.943039 8.76392C1.28224 9.12505 1.68248 9.40598 2.12004 9.59006V18.1739C2.12004 18.393 2.19747 18.6031 2.33529 18.758C2.47311 18.913 2.66004 19 2.85495 19H16.0833C16.2782 19 16.4651 18.913 16.603 18.758C16.7408 18.6031 16.8182 18.393 16.8182 18.1739V9.59006C17.2557 9.40621 17.6558 9.12556 17.9951 8.76471C18.3342 8.40386 18.6056 7.97017 18.7929 7.48931C18.8535 7.31552 18.8938 7.13365 18.9127 6.94821C18.9617 6.842 18.9908 6.72561 18.9982 6.60623C19.0055 6.48687 18.9909 6.36708 18.9553 6.25431ZM7.2644 17.3479V12.3913H8.7342V17.3479H7.2644ZM10.204 17.3479V12.3913H11.6738V17.3479H10.204ZM15.3484 17.3479H13.1437V11.5652C13.1437 11.3461 13.0663 11.136 12.9284 10.981C12.7906 10.8262 12.6036 10.7391 12.4088 10.7391H6.52949C6.33458 10.7391 6.14766 10.8262 6.00983 10.981C5.87201 11.136 5.79459 11.3461 5.79459 11.5652V17.3479H3.58986V9.91306C4.14663 9.92085 4.69821 9.79184 5.20598 9.53505C5.71376 9.27817 6.16547 8.8997 6.52949 8.42609C6.89767 8.89422 7.35014 9.26908 7.85693 9.52584C8.36371 9.78253 8.91323 9.91534 9.46915 9.91534C10.025 9.91534 10.5745 9.78253 11.0813 9.52584C11.5881 9.26908 12.0405 8.89422 12.4088 8.42609C12.7728 8.8997 13.2245 9.27817 13.7322 9.53505C14.2401 9.79184 14.7917 9.92085 15.3484 9.91306V17.3479ZM17.4333 6.85652C17.2453 7.29351 16.9479 7.65923 16.5775 7.90873C16.2071 8.15822 15.7798 8.28062 15.3484 8.26087C14.8135 8.30976 14.2829 8.12081 13.8707 7.73463C13.4584 7.34845 13.1974 6.79586 13.1437 6.19565C13.1437 5.97656 13.0663 5.76644 12.9284 5.61152C12.7906 5.4566 12.6036 5.36956 12.4088 5.36956C12.2139 5.36956 12.0269 5.4566 11.8891 5.61152C11.7513 5.76644 11.6738 5.97656 11.6738 6.19565C11.6202 6.79586 11.3591 7.34845 10.9469 7.73463C10.5346 8.12081 10.004 8.30976 9.46915 8.26087C8.93421 8.30976 8.40363 8.12081 7.99136 7.73463C7.57909 7.34845 7.31807 6.79586 7.2644 6.19565C7.2644 5.97656 7.18697 5.76644 7.04916 5.61152C6.91133 5.4566 6.7244 5.36956 6.52949 5.36956C6.33458 5.36956 6.14766 5.4566 6.00983 5.61152C5.87201 5.76644 5.79459 5.97656 5.79459 6.19565C5.74091 6.79586 5.47989 7.34845 5.06762 7.73463C4.65535 8.12081 4.12474 8.30976 3.58986 8.26087C3.15829 8.28067 2.73097 8.15832 2.36044 7.90882C1.9899 7.65933 1.6923 7.29358 1.50419 6.85652C1.45493 6.70416 1.45493 6.53719 1.50419 6.38483L3.33705 1.65217H15.6012L17.4216 6.36087C17.4784 6.51911 17.4827 6.6951 17.4333 6.85652Z" fill="white"/>
</svg>
