<svg width="19" height="19" viewBox="0 0 19 19" fill="none" xmlns="http://www.w3.org/2000/svg">
<path d="M18.9572 6.25431C18.9369 6.2059 18.9123 6.15995 18.8837 6.11717C18.8621 5.99857 18.8331 5.8818 18.797 5.76774C18.7926 5.75452 18.7881 5.74131 18.7823 5.72808L16.759 0.495652C16.7019 0.348271 16.6076 0.222868 16.4879 0.134823C16.3682 0.046779 16.2282 -7.78631e-05 16.0851 9.71243e-08H2.85678C2.71373 -7.78631e-05 2.57376 0.046779 2.45405 0.134823C2.33434 0.222868 2.24009 0.348271 2.18287 0.495652L0.147172 5.76691C-0.0466387 6.31981 -0.0466387 6.93476 0.147172 7.48765C0.334413 7.96879 0.605671 8.40279 0.94487 8.76392C1.28407 9.12505 1.68431 9.40598 2.12187 9.59006V18.1739C2.12187 18.393 2.1993 18.6031 2.33712 18.758C2.47494 18.913 2.66187 19 2.85678 19H16.0851C16.2801 19 16.467 18.913 16.6048 18.758C16.7426 18.6031 16.82 18.393 16.82 18.1739V9.59006C17.2575 9.40621 17.6576 9.12556 17.9969 8.76471C18.336 8.40386 18.6074 7.97017 18.7947 7.48931C18.8553 7.31552 18.8956 7.13365 18.9145 6.94821C18.9636 6.842 18.9927 6.72561 19 6.60623C19.0073 6.48687 18.9927 6.36708 18.9572 6.25431ZM7.26623 17.3479V12.3913H8.73603V17.3479H7.26623ZM10.2058 17.3479V12.3913H11.6757V17.3479H10.2058ZM15.3502 17.3479H13.1455V11.5652C13.1455 11.3461 13.0681 11.136 12.9303 10.981C12.7924 10.8262 12.6055 10.7391 12.4106 10.7391H6.53132C6.33641 10.7391 6.14949 10.8262 6.01166 10.981C5.87384 11.136 5.79642 11.3461 5.79642 11.5652V17.3479H3.59169V9.91306C4.14846 9.92085 4.70004 9.79184 5.20781 9.53505C5.71559 9.27817 6.1673 8.8997 6.53132 8.42609C6.8995 8.89422 7.35197 9.26908 7.85876 9.52584C8.36554 9.78253 8.91506 9.91534 9.47098 9.91534C10.0268 9.91534 10.5764 9.78253 11.0831 9.52584C11.5899 9.26908 12.0424 8.89422 12.4106 8.42609C12.7747 8.8997 13.2263 9.27817 13.7341 9.53505C14.2419 9.79184 14.7935 9.92085 15.3502 9.91306V17.3479ZM17.4352 6.85652C17.2472 7.29351 16.9497 7.65923 16.5793 7.90873C16.2089 8.15822 15.7817 8.28062 15.3502 8.26087C14.8153 8.30976 14.2847 8.12081 13.8725 7.73463C13.4602 7.34845 13.1992 6.79586 13.1455 6.19565C13.1455 5.97656 13.0681 5.76644 12.9303 5.61152C12.7924 5.4566 12.6055 5.36956 12.4106 5.36956C12.2157 5.36956 12.0287 5.4566 11.8909 5.61152C11.7531 5.76644 11.6757 5.97656 11.6757 6.19565C11.622 6.79586 11.361 7.34845 10.9487 7.73463C10.5364 8.12081 10.0058 8.30976 9.47098 8.26087C8.93605 8.30976 8.40546 8.12081 7.9932 7.73463C7.58092 7.34845 7.31991 6.79586 7.26623 6.19565C7.26623 5.97656 7.18881 5.76644 7.05099 5.61152C6.91316 5.4566 6.72623 5.36956 6.53132 5.36956C6.33641 5.36956 6.14949 5.4566 6.01166 5.61152C5.87384 5.76644 5.79642 5.97656 5.79642 6.19565C5.74274 6.79586 5.48172 7.34845 5.06945 7.73463C4.65718 8.12081 4.12658 8.30976 3.59169 8.26087C3.16012 8.28067 2.7328 8.15832 2.36227 7.90882C1.99174 7.65933 1.69413 7.29358 1.50602 6.85652C1.45676 6.70416 1.45676 6.53719 1.50602 6.38483L3.33888 1.65217H15.6031L17.4234 6.36087C17.4803 6.51911 17.4845 6.6951 17.4352 6.85652Z" fill="#1E40AF"/>
</svg>
