<svg width="83" height="86" viewBox="0 0 83 86" fill="none" xmlns="http://www.w3.org/2000/svg">
<path d="M19.7741 51.9587L9.19512 62.3805C8.49832 63.0655 7.94565 63.8798 7.56893 64.7764M19.7741 51.9587L9.19512 72.8295C7.78397 71.4369 7.00001 69.5801 7.00001 67.605C6.99886 66.6343 7.19221 65.673 7.56893 64.7764M19.7741 51.9587C21.1852 50.5661 23.0668 49.7925 25.0682 49.7925L19.7741 51.9587ZM7.56893 64.7764L9.41279 65.5511C9.68638 64.8999 10.0885 64.3068 10.5973 63.8066L10.5987 63.8052L21.1777 53.3835L21.1789 53.3823C22.2147 52.3601 23.591 51.7925 25.0682 51.7925H25.0687C25.7909 51.7923 26.5055 51.933 27.1711 52.2058C27.8366 52.4786 28.4393 52.8778 28.9451 53.3792L28.9482 53.3823L36.6772 61.0097L37.6532 61.9728L38.9034 61.4098C43.1076 59.5163 46.9328 56.8897 50.1952 53.6552M7.56893 64.7764L9.41279 65.5511C9.13922 66.2022 8.99917 66.8993 9 67.6026L9.00001 67.605C9.00001 69.0387 9.56505 70.3847 10.5999 71.4059L20.4042 81.0813L20.4071 81.0842C22.2774 82.9375 24.8773 84 27.5492 84C28.1123 84 28.6447 83.9545 29.1662 83.865L29.1749 83.8635L29.1837 83.8621C41.1619 81.9153 53.1255 75.6079 62.8163 66.0534C72.4955 56.5103 78.8717 44.7213 80.8694 32.8791M50.1952 53.6552L80.8693 32.8796C80.8694 32.8794 80.8694 32.8793 80.8694 32.8791M50.1952 53.6552C53.4662 50.4344 56.1215 46.6554 58.032 42.4998L58.6177 41.2258L57.6196 40.2409L49.8906 32.6135C48.8557 31.5922 48.2907 30.2462 48.2907 28.8125V28.812C48.2905 28.11 48.4308 27.4143 48.7043 26.7645L46.861 25.9887L48.7043 26.7645C48.9778 26.1147 49.3795 25.5229 49.8875 25.0237L49.8906 25.0206L60.4604 14.5898L59.0555 13.1663L60.4604 14.5898C61.4961 13.5677 62.8725 13 64.3496 13H64.3501C65.0724 12.9998 65.7869 13.1405 66.4525 13.4133C67.1181 13.6862 67.7207 14.0853 68.2265 14.5867L68.2303 14.5905L78.0476 24.2696M50.1952 53.6552L78.0476 24.2696M50.1952 53.6552C50.1963 53.6541 50.1974 53.653 50.1985 53.6519L48.7902 52.2318L50.1933 53.657C50.1939 53.6564 50.1945 53.6558 50.1952 53.6552ZM80.8694 32.8791C81.3875 29.773 80.3456 26.5542 78.05 24.272M80.8694 32.8791L78.05 24.272M78.05 24.272C78.0492 24.2712 78.0484 24.2704 78.0476 24.2696M78.05 24.272L78.0476 24.2696" fill="#2947F2" stroke="white" stroke-width="4"/>
<circle cx="22.5" cy="22.5" r="22" fill="#FF0000" stroke="white"/>
</svg>
