<svg width="26" height="26" viewBox="0 0 26 26" fill="none" xmlns="http://www.w3.org/2000/svg">
<path d="M15.934 8.50684C15.934 8.50684 20.6638 12.0777 20.0362 18.8837C20.0362 18.8837 22.0108 19.415 21.5811 21.2967C21.2028 22.953 18.0092 22.9367 18.0092 22.9367H8.63056C8.63056 22.9367 5.43692 22.952 5.05863 21.2967C4.63004 19.415 6.60351 18.8837 6.60351 18.8837C5.97484 12.0777 10.7079 8.50684 10.7079 8.50684" stroke="#2947F2" stroke-linecap="round" stroke-linejoin="round"/>
<path d="M13.3187 16.1267C12.2603 16.1267 11.4031 15.4259 11.4031 14.5622C11.4031 13.6984 12.2603 12.9976 13.3187 12.9976C14.377 12.9976 15.2342 13.6973 15.2342 14.5622" stroke="#FF6805" stroke-linecap="round" stroke-linejoin="round"/>
<path d="M13.3187 16.1274C14.3759 16.1274 15.2342 16.8272 15.2342 17.692C15.2342 18.5568 14.3759 19.2544 13.3187 19.2544C12.2614 19.2544 11.4031 18.5536 11.4031 17.6898" stroke="#FF6805" stroke-linecap="round" stroke-linejoin="round"/>
<path d="M13.3176 12.1602V20.0956" stroke="#FF6805" stroke-linecap="round" stroke-linejoin="round"/>
<path d="M15.4073 6.38672H11.1487C10.5437 6.38672 10.0532 6.87696 10.0532 7.4817C10.0532 8.08644 10.5437 8.57665 11.1487 8.57665H15.4073C16.0123 8.57665 16.5028 8.08644 16.5028 7.4817C16.5028 6.87696 16.0123 6.38672 15.4073 6.38672Z" stroke="#2947F2" stroke-linecap="round" stroke-linejoin="round"/>
<path d="M11.3798 6.19723L9.59332 3.90887C9.59332 3.90887 9.84041 2.63623 13.2461 2.63623" stroke="#2947F2" stroke-linecap="round" stroke-linejoin="round"/>
<path d="M15.1941 6.19723L16.9806 3.90887C16.9806 3.90887 16.7335 2.63623 13.3289 2.63623" stroke="#2947F2" stroke-linecap="round" stroke-linejoin="round"/>
</svg>
