<svg width="31" height="31" viewBox="0 0 31 31" fill="none" xmlns="http://www.w3.org/2000/svg">
<g id="money-bag_svgrepo.com">
<path id="Vector" fill-rule="evenodd" clip-rule="evenodd" d="M15.2477 3.27936H15.1332C14.1436 3.27933 13.3184 3.2793 12.6634 3.36737C11.9719 3.46034 11.3477 3.66483 10.846 4.16647C10.3444 4.66811 10.1399 5.29236 10.0469 5.98379C9.98382 6.45338 9.96595 7.57631 9.96091 8.53911C7.73367 8.61186 6.39641 8.87186 5.46709 9.80118C4.17676 11.0915 4.17676 13.1683 4.17676 17.3218C4.17676 21.4753 4.17676 23.5521 5.46709 24.8424C6.75742 26.1327 8.83418 26.1327 12.9877 26.1327H17.3932C21.5466 26.1327 23.6235 26.1327 24.9137 24.8424C26.2041 23.5521 26.2041 21.4753 26.2041 17.3218C26.2041 13.1683 26.2041 11.0915 24.9137 9.80118C23.9844 8.87186 22.6472 8.61186 20.4199 8.53911C20.4149 7.57631 20.397 6.45338 20.3339 5.98379C20.241 5.29236 20.0364 4.66811 19.5348 4.16647C19.0332 3.66483 18.409 3.46034 17.7175 3.36737C17.0624 3.2793 16.2373 3.27933 15.2477 3.27936ZM18.7676 8.51292C18.7626 7.58045 18.7467 6.57693 18.6966 6.20393C18.6282 5.69568 18.5102 5.47817 18.3667 5.33464C18.2232 5.19111 18.0056 5.07302 17.4974 5.00469C16.9654 4.93317 16.2521 4.93141 15.1904 4.93141C14.1287 4.93141 13.4155 4.93317 12.8835 5.00469C12.3753 5.07302 12.1577 5.19111 12.0142 5.33464C11.8707 5.47817 11.7526 5.69568 11.6843 6.20393C11.6341 6.57693 11.6183 7.58045 11.6133 8.51292C12.0444 8.51085 12.5018 8.51085 12.9877 8.51085H17.3932C17.8791 8.51085 18.3365 8.51085 18.7676 8.51292ZM15.1904 12.0903C15.6466 12.0903 16.0165 12.4601 16.0165 12.9163V12.9276C17.2156 13.2297 18.2192 14.1752 18.2192 15.4861C18.2192 15.9423 17.8494 16.3122 17.3932 16.3122C16.937 16.3122 16.5671 15.9423 16.5671 15.4861C16.5671 15.0632 16.0982 14.4766 15.1904 14.4766C14.2827 14.4766 13.8137 15.0632 13.8137 15.4861C13.8137 15.9092 14.2827 16.4958 15.1904 16.4958C16.7157 16.4958 18.2192 17.5529 18.2192 19.1574C18.2192 20.4684 17.2156 21.4139 16.0165 21.716V21.7273C16.0165 22.1834 15.6466 22.5533 15.1904 22.5533C14.7342 22.5533 14.3644 22.1834 14.3644 21.7273V21.716C13.1652 21.4139 12.1617 20.4684 12.1617 19.1574C12.1617 18.7013 12.5315 18.3314 12.9877 18.3314C13.4439 18.3314 13.8137 18.7013 13.8137 19.1574C13.8137 19.5804 14.2827 20.167 15.1904 20.167C16.0982 20.167 16.5671 19.5804 16.5671 19.1574C16.5671 18.7344 16.0982 18.1478 15.1904 18.1478C13.6651 18.1478 12.1617 17.0908 12.1617 15.4861C12.1617 14.1752 13.1652 13.2297 14.3644 12.9276V12.9163C14.3644 12.4601 14.7342 12.0903 15.1904 12.0903Z" fill="white"/>
</g>
</svg>
