<svg width="29" height="37" viewBox="0 0 29 37" fill="none" xmlns="http://www.w3.org/2000/svg">
<path d="M16.2826 26.8605C16.2826 27.3987 16.0342 28.0197 15.289 28.2267C15.2062 28.2681 15.082 28.1853 15.082 28.1025V25.5771L15.4132 25.6599C15.8272 25.7841 16.2826 26.1981 16.2826 26.8605Z" fill="#2947F2"/>
<path d="M13.7983 21.065V23.0522C13.7983 23.1764 13.6741 23.2178 13.5913 23.1764C13.1773 23.0108 12.8047 22.6796 12.8047 22.1C12.8047 21.6032 13.0531 21.1064 13.5913 20.8994C13.6741 20.8994 13.7983 20.9408 13.7983 21.065Z" fill="#2947F2"/>
<path d="M19.9653 12.2468C19.7169 11.957 19.3443 11.75 18.889 11.75H10.1124C9.69837 11.75 9.28438 11.9156 9.03598 12.2468C6.05525 15.9727 -11.7878 36.4238 14.5007 36.4238C40.7891 36.4238 22.9461 15.9727 19.9653 12.2468ZM15.2458 29.9656C15.163 29.9656 15.1216 30.0484 15.1216 30.1312V31.2076C15.1216 31.2904 15.0388 31.3732 14.956 31.3732H13.9211C13.8383 31.3732 13.7555 31.2904 13.7555 31.2076V30.1312C13.7555 30.0484 13.7141 30.007 13.6313 29.9656C12.6791 29.8414 11.7683 29.4688 11.2301 28.6408C11.0231 28.3096 10.8575 27.8956 10.7747 27.523C10.7333 27.2747 10.6919 27.0677 10.6919 26.8193C10.6919 26.6951 10.6919 26.5709 10.6919 26.4467C10.6919 26.3225 10.6505 26.1569 10.8161 26.1155C10.8575 26.0741 12.4721 26.0741 12.5549 26.1155C12.6377 26.1569 12.5963 26.3225 12.6377 26.4053C12.7205 27.523 12.8861 27.937 13.6313 28.1854C13.7141 28.2268 13.8383 28.144 13.8383 28.0612V25.3289C13.8383 25.2461 13.7969 25.2047 13.7141 25.2047C12.3065 24.8321 10.9403 24.2111 10.9403 22.224C10.9403 20.6508 12.0995 19.4088 13.6727 19.2018C13.7555 19.2018 13.7969 19.119 13.7969 19.0776V18.4567C13.7969 18.3739 13.8797 18.2911 13.9625 18.2911H14.9974C15.0802 18.2911 15.163 18.3739 15.163 18.4567V19.0776C15.163 19.1604 15.2044 19.2018 15.2872 19.2018C16.198 19.326 17.0674 19.7814 17.5642 20.568C17.8126 21.0234 17.9368 21.5202 17.9782 22.017C17.9782 22.224 17.9368 22.3896 17.7298 22.431C17.5228 22.4724 16.7362 22.431 16.5292 22.431C16.3222 22.431 16.1566 22.3896 16.1566 22.1412C16.1152 21.6444 15.991 21.2304 15.4114 20.982C15.3286 20.9406 15.2044 21.0234 15.2044 21.1062V23.4245C15.2044 23.5073 15.2458 23.5487 15.3286 23.5487C17.0674 24.0455 18.268 24.5423 18.268 26.5709C18.1438 28.972 16.4878 29.8 15.2458 29.9656Z" fill="#2947F2"/>
<path d="M10.0718 8.72818L6.80126 2.02153C6.71846 1.81454 6.80126 1.56614 7.00826 1.48334C8.00183 1.02795 10.7342 0.158575 13.3009 2.43552C16.1161 4.91947 19.635 3.3049 21.4565 2.14573C21.7877 1.93873 22.2017 2.31133 22.0361 2.64252L19.221 8.68678C19.014 9.14217 18.5586 9.43197 18.0204 9.43197H11.2724C10.7756 9.47337 10.2788 9.18357 10.0718 8.72818Z" fill="#FF6805"/>
</svg>
