<svg width="42" height="42" viewBox="0 0 42 42" fill="none" xmlns="http://www.w3.org/2000/svg">
<path fill-rule="evenodd" clip-rule="evenodd" d="M2.16432 2.31721C0.353027 4.1285 0.353027 7.04372 0.353027 12.8742V29.3652C0.353027 35.1956 0.353027 38.1108 2.16432 39.9221C3.97561 41.7335 6.89083 41.7335 12.7213 41.7335H29.2123C35.0427 41.7335 37.9579 41.7335 39.7692 39.9221C41.5806 38.1108 41.5806 35.1956 41.5806 29.3652V12.8742C41.5806 7.04372 41.5806 4.1285 39.7692 2.31721C37.9579 0.50592 35.0427 0.50592 29.2123 0.50592H12.7213C6.89083 0.50592 3.97561 0.50592 2.16432 2.31721ZM32.989 16.079C33.6204 15.1317 33.3643 13.8519 32.4171 13.2204C31.4699 12.5889 30.19 12.8448 29.5584 13.7921L23.2834 23.2048L22.3378 21.3135C20.9221 18.4822 16.9758 18.2364 15.2199 20.8705L8.94474 30.2831C8.31324 31.2303 8.5692 32.5102 9.51647 33.1418C10.4637 33.7732 11.7436 33.5172 12.3751 32.57L18.6502 23.1574L19.5958 25.0487C21.0115 27.88 24.9578 28.1257 26.7137 25.4917L32.989 16.079Z" fill="#D0D5DD"/>
</svg>
