<svg width="17" height="18" viewBox="0 0 17 18" fill="none" xmlns="http://www.w3.org/2000/svg">
<g id="Group 240563">
<g id="Group">
<path id="Vector" d="M0.620117 9.33416C0.620117 4.96304 4.16354 1.41956 8.53473 1.41956C12.9058 1.41956 16.4493 4.96305 16.4493 9.33416C16.4493 13.7053 12.9058 17.2488 8.53473 17.2488C4.16354 17.2488 0.620117 13.7053 0.620117 9.33416Z" stroke="#586D8E"/>
<path id="Vector_2" d="M9.35486 11.7186H7.81519V13.2024H9.35486V11.7186Z" fill="#586D8E"/>
<path id="Vector_3" d="M10.1807 6.0512C9.9649 5.86151 9.71381 5.71639 9.42761 5.61587C9.14115 5.51559 8.84188 5.46533 8.52942 5.46533C8.20201 5.46533 7.89714 5.5176 7.61453 5.62153C7.33168 5.72576 7.08444 5.87259 6.87246 6.06231C6.66049 6.25203 6.49318 6.48633 6.37048 6.76519C6.24768 7.04412 6.18628 7.35477 6.18628 7.69672H7.63685C7.63685 7.43655 7.71107 7.21705 7.85987 7.0384C8.00857 6.86005 8.23175 6.77091 8.52939 6.77091C8.812 6.77091 9.03321 6.85838 9.19325 7.03301C9.35313 7.20794 9.4331 7.42554 9.4331 7.68567C9.4331 7.81235 9.40138 7.9387 9.33821 8.06508C9.27503 8.19176 9.19877 8.31443 9.10947 8.43313L8.41066 9.32823C8.26186 9.52163 7.85983 10.0812 7.85983 10.6534V10.9882H9.31033V10.7539C9.31033 10.6574 9.32881 10.5569 9.36618 10.4526C9.40322 10.3487 9.57829 10.0942 9.63794 10.0198L10.3369 9.09144C10.4931 8.88327 10.623 8.66942 10.7274 8.44989C10.8315 8.23065 10.8836 7.97959 10.8836 7.69675C10.8836 7.33979 10.8203 7.02365 10.6939 6.74846C10.5674 6.47324 10.3963 6.24063 10.1807 6.0512Z" fill="#586D8E"/>
</g>
</g>
</svg>
