<svg width="71" height="58" viewBox="0 0 71 58" fill="none" xmlns="http://www.w3.org/2000/svg">
<rect x="6.61328" width="58" height="58" rx="29" fill="#EDF1F5"/>
<rect x="0.59375" y="11.123" width="66.6336" height="15.9316" rx="3" fill="white"/>
<rect x="2.49219" y="13.0312" width="12.1136" height="12.1148" rx="3" fill="#C8D1DB"/>
<path d="M7.92888 20.408C7.92888 20.1318 7.96958 19.8862 8.05098 19.6711C8.13529 19.4559 8.24141 19.2611 8.36932 19.0867C8.50014 18.9094 8.62951 18.7451 8.75743 18.5939C8.85627 18.4777 8.94785 18.3628 9.03216 18.2494C9.11647 18.1361 9.18333 18.0198 9.23275 17.9006C9.28508 17.7814 9.31125 17.6578 9.31125 17.5299C9.31125 17.3003 9.2502 17.1273 9.12809 17.011C9.0089 16.8918 8.83447 16.8322 8.6048 16.8322C8.35479 16.8322 8.15855 16.9165 8.0161 17.0851C7.87365 17.2537 7.80242 17.5125 7.80242 17.8613H6.4375C6.4375 17.3671 6.53489 16.9674 6.72967 16.6621C6.92445 16.3569 7.18465 16.1345 7.51025 15.9949C7.83585 15.8525 8.19344 15.7812 8.583 15.7812C8.97547 15.7812 9.32724 15.8496 9.63831 15.9862C9.95228 16.1199 10.2008 16.322 10.384 16.5924C10.5701 16.8627 10.6631 17.2043 10.6631 17.6171C10.6631 17.8642 10.6195 18.0837 10.5323 18.2756C10.448 18.4675 10.3389 18.639 10.2052 18.7902C10.0744 18.9414 9.9392 19.0853 9.79965 19.2219C9.61359 19.4021 9.44934 19.5838 9.30689 19.767C9.16734 19.9472 9.09757 20.1609 9.09757 20.408H7.92888ZM8.57864 22.3965C8.35769 22.3965 8.17018 22.3195 8.0161 22.1654C7.86493 22.0113 7.78934 21.8253 7.78934 21.6072C7.78934 21.3921 7.86493 21.2075 8.0161 21.0534C8.17018 20.8993 8.35769 20.8223 8.57864 20.8223C8.79377 20.8223 8.97837 20.8993 9.13246 21.0534C9.28654 21.2075 9.36358 21.3921 9.36358 21.6072C9.36358 21.8253 9.28654 22.0113 9.13246 22.1654C8.97837 22.3195 8.79377 22.3965 8.57864 22.3965Z" fill="#F5F7FA"/>
<rect x="18.6055" y="15.5918" width="12.9216" height="2.4977" rx="1.24885" fill="#C8D1DB"/>
<rect x="18.6055" y="20.0898" width="22.0527" height="2.4977" rx="1.24885" fill="#EDF1F5"/>
<rect x="6.43359" y="30.9453" width="64.2425" height="15.9316" rx="3" fill="white"/>
<rect x="8.91406" y="32.8535" width="12.1136" height="12.1148" rx="2" fill="#FF6805"/>
<path d="M14.3508 40.2303C14.3508 39.9541 14.3915 39.7085 14.4729 39.4933C14.5572 39.2782 14.6633 39.0834 14.7912 38.909C14.922 38.7316 15.0514 38.5674 15.1793 38.4162C15.2781 38.2999 15.3697 38.1851 15.454 38.0717C15.5383 37.9583 15.6052 37.842 15.6546 37.7228C15.707 37.6037 15.7331 37.4801 15.7331 37.3522C15.7331 37.1225 15.6721 36.9495 15.55 36.8333C15.4308 36.7141 15.2563 36.6545 15.0267 36.6545C14.7767 36.6545 14.5804 36.7388 14.438 36.9074C14.2955 37.076 14.2243 37.3347 14.2243 37.6836H12.8594C12.8594 37.1894 12.9568 36.7896 13.1515 36.4844C13.3463 36.1791 13.6065 35.9567 13.9321 35.8172C14.2577 35.6747 14.6153 35.6035 15.0049 35.6035C15.3973 35.6035 15.7491 35.6718 16.0602 35.8085C16.3742 35.9422 16.6227 36.1443 16.8059 36.4146C16.9919 36.685 17.085 37.0266 17.085 37.4394C17.085 37.6865 17.0414 37.906 16.9541 38.0979C16.8698 38.2897 16.7608 38.4613 16.6271 38.6124C16.4963 38.7636 16.3611 38.9075 16.2215 39.0442C16.0355 39.2244 15.8712 39.4061 15.7288 39.5893C15.5892 39.7695 15.5194 39.9832 15.5194 40.2303H14.3508ZM15.0005 42.2188C14.7796 42.2188 14.5921 42.1418 14.438 41.9877C14.2868 41.8336 14.2112 41.6475 14.2112 41.4295C14.2112 41.2144 14.2868 41.0298 14.438 40.8757C14.5921 40.7216 14.7796 40.6446 15.0005 40.6446C15.2156 40.6446 15.4002 40.7216 15.5543 40.8757C15.7084 41.0298 15.7855 41.2144 15.7855 41.4295C15.7855 41.6475 15.7084 41.8336 15.5543 41.9877C15.4002 42.1418 15.2156 42.2188 15.0005 42.2188Z" fill="#F5F7FA"/>
<rect x="25.0273" y="35.4141" width="12.9216" height="2.4977" rx="1.24885" fill="#C8D1DB"/>
<rect x="25.0273" y="39.9121" width="22.0527" height="2.4977" rx="1.24885" fill="#EDF1F5"/>
</svg>
