<svg width="20" height="20" viewBox="0 0 20 20" fill="none" xmlns="http://www.w3.org/2000/svg">
<g clip-path="url(#clip0_18938_45460)">
<mask id="mask0_18938_45460" style="mask-type:luminance" maskUnits="userSpaceOnUse" x="0" y="0" width="20" height="20">
<path d="M20 0H0V20H20V0Z" fill="white"/>
</mask>
<g mask="url(#mask0_18938_45460)">
<path fill-rule="evenodd" clip-rule="evenodd" d="M3.21484 11.5559C3.22688 12.6104 3.65738 13.617 4.41161 14.3541C5.16584 15.0912 6.18202 15.4984 7.23656 15.4863H7.78056L9.39313 17.1688C9.5574 17.3352 9.78151 17.4289 10.0153 17.4289C10.2492 17.4289 10.4733 17.3352 10.6375 17.1688L12.2491 15.4863H12.7931C13.8477 15.4984 14.8638 15.0912 15.618 14.3541C16.3723 13.617 16.8028 12.6104 16.8148 11.5559V6.78615C16.7887 4.59094 14.9884 2.83233 12.7931 2.85769H7.23656C5.04133 2.83233 3.24098 4.59094 3.21484 6.78615V11.5559Z" stroke="white" stroke-width="2" stroke-linecap="round" stroke-linejoin="round"/>
<path d="M7.09967 6.98633C6.69729 6.98633 6.37109 7.31252 6.37109 7.7149C6.37109 8.11728 6.69729 8.44347 7.09967 8.44347V6.98633ZM12.9282 8.44347C13.3306 8.44347 13.6568 8.11728 13.6568 7.7149C13.6568 7.31252 13.3306 6.98633 12.9282 6.98633V8.44347ZM7.09967 9.90058C6.69729 9.90058 6.37109 10.2268 6.37109 10.6291C6.37109 11.0316 6.69729 11.3577 7.09967 11.3577V9.90058ZM12.9282 11.3577C13.3306 11.3577 13.6568 11.0316 13.6568 10.6291C13.6568 10.2268 13.3306 9.90058 12.9282 9.90058V11.3577ZM7.09967 8.44347H12.9282V6.98633H7.09967V8.44347ZM7.09967 11.3577H12.9282V9.90058H7.09967V11.3577Z" fill="white"/>
</g>
</g>
<defs>
<clipPath id="clip0_18938_45460">
<rect width="20" height="20" fill="white"/>
</clipPath>
</defs>
</svg>
