<svg width="20" height="20" viewBox="0 0 20 20" fill="none" xmlns="http://www.w3.org/2000/svg">
<g clip-path="url(#clip0_19381_3121)">
<mask id="mask0_19381_3121" style="mask-type:luminance" maskUnits="userSpaceOnUse" x="0" y="0" width="20" height="20">
<path d="M20 0H0V20H20V0Z" fill="white"/>
</mask>
<g mask="url(#mask0_19381_3121)">
<path fill-rule="evenodd" clip-rule="evenodd" d="M3.21484 11.5559C3.22688 12.6104 3.65738 13.617 4.41161 14.3541C5.16584 15.0912 6.18202 15.4984 7.23656 15.4863H7.78056L9.39313 17.1688C9.5574 17.3352 9.78151 17.4289 10.0153 17.4289C10.2492 17.4289 10.4733 17.3352 10.6375 17.1688L12.2491 15.4863H12.7931C13.8477 15.4984 14.8638 15.0912 15.618 14.3541C16.3723 13.617 16.8028 12.6104 16.8148 11.5559V6.78615C16.7887 4.59094 14.9884 2.83233 12.7931 2.85769H7.23656C5.04133 2.83233 3.24098 4.59094 3.21484 6.78615V11.5559Z" stroke="#5B5B66" stroke-linecap="round" stroke-linejoin="round"/>
<mask id="path-3-inside-1_19381_3121" fill="white">
<path d="M7.09967 6.98633C6.69729 6.98633 6.37109 7.31252 6.37109 7.7149C6.37109 8.11728 6.69729 8.44347 7.09967 8.44347V6.98633ZM12.9282 8.44347C13.3306 8.44347 13.6568 8.11728 13.6568 7.7149C13.6568 7.31252 13.3306 6.98633 12.9282 6.98633V8.44347ZM7.09967 9.90058C6.69729 9.90058 6.37109 10.2268 6.37109 10.6291C6.37109 11.0316 6.69729 11.3577 7.09967 11.3577V9.90058ZM12.9282 11.3577C13.3306 11.3577 13.6568 11.0316 13.6568 10.6291C13.6568 10.2268 13.3306 9.90058 12.9282 9.90058V11.3577ZM7.09967 8.44347H12.9282V6.98633H7.09967V8.44347ZM7.09967 11.3577H12.9282V9.90058H7.09967V11.3577Z"/>
</mask>
<path d="M7.09967 6.98633C6.69729 6.98633 6.37109 7.31252 6.37109 7.7149C6.37109 8.11728 6.69729 8.44347 7.09967 8.44347V6.98633ZM12.9282 8.44347C13.3306 8.44347 13.6568 8.11728 13.6568 7.7149C13.6568 7.31252 13.3306 6.98633 12.9282 6.98633V8.44347ZM7.09967 9.90058C6.69729 9.90058 6.37109 10.2268 6.37109 10.6291C6.37109 11.0316 6.69729 11.3577 7.09967 11.3577V9.90058ZM12.9282 11.3577C13.3306 11.3577 13.6568 11.0316 13.6568 10.6291C13.6568 10.2268 13.3306 9.90058 12.9282 9.90058V11.3577ZM7.09967 8.44347H12.9282V6.98633H7.09967V8.44347ZM7.09967 11.3577H12.9282V9.90058H7.09967V11.3577Z" fill="#797171"/>
<path d="M8.29967 8.44347V6.98633H5.89967V8.44347H8.29967ZM11.7282 6.98633V8.44347H14.1282V6.98633H11.7282ZM8.29967 11.3577V9.90058H5.89967V11.3577H8.29967ZM11.7282 9.90058V11.3577H14.1282V9.90058H11.7282ZM7.09967 4.58633C5.37181 4.58633 3.97109 5.98704 3.97109 7.7149H8.77109C8.77109 8.63801 8.02277 9.38633 7.09967 9.38633V4.58633ZM3.97109 7.7149C3.97109 9.44279 5.37183 10.8435 7.09967 10.8435V6.04347C8.02275 6.04347 8.77109 6.79178 8.77109 7.7149H3.97109ZM12.9282 10.8435C14.656 10.8435 16.0568 9.44281 16.0568 7.7149H11.2568C11.2568 6.79176 12.0052 6.04347 12.9282 6.04347V10.8435ZM16.0568 7.7149C16.0568 5.98702 14.6561 4.58633 12.9282 4.58633V9.38633C12.0051 9.38633 11.2568 8.63803 11.2568 7.7149H16.0568ZM7.09967 7.50058C5.37179 7.50058 3.97109 8.90132 3.97109 10.6291H8.77109C8.77109 11.5522 8.02279 12.3006 7.09967 12.3006V7.50058ZM3.97109 10.6291C3.97109 12.3573 5.37199 13.7577 7.09967 13.7577V8.95772C8.02259 8.95772 8.77109 9.70594 8.77109 10.6291H3.97109ZM12.9282 13.7577C14.6559 13.7577 16.0568 12.3573 16.0568 10.6291H11.2568C11.2568 9.70592 12.0053 8.95772 12.9282 8.95772V13.7577ZM16.0568 10.6291C16.0568 8.9013 14.6561 7.50058 12.9282 7.50058V12.3006C12.0051 12.3006 11.2568 11.5523 11.2568 10.6291H16.0568ZM7.09967 10.8435H12.9282V6.04347H7.09967V10.8435ZM12.9282 4.58633H7.09967V9.38633H12.9282V4.58633ZM7.09967 13.7577H12.9282V8.95772H7.09967V13.7577ZM12.9282 7.50058H7.09967V12.3006H12.9282V7.50058Z" fill="#5B5B66" mask="url(#path-3-inside-1_19381_3121)"/>
</g>
</g>
<defs>
<clipPath id="clip0_19381_3121">
<rect width="20" height="20" fill="white"/>
</clipPath>
</defs>
</svg>
