<svg width="21" height="20" viewBox="0 0 21 20" fill="none" xmlns="http://www.w3.org/2000/svg">
<g id="comment-add_svgrepo.com" clip-path="url(#clip0_18930_52768)">
<g id="Clip path group">
<mask id="mask0_18930_52768" style="mask-type:luminance" maskUnits="userSpaceOnUse" x="0" y="0" width="21" height="20">
<g id="clip0_429_11161">
<path id="Vector" d="M20.5 0H0.5V20H20.5V0Z" fill="white"/>
</g>
</mask>
<g mask="url(#mask0_18930_52768)">
<path id="Vector_2" fill-rule="evenodd" clip-rule="evenodd" d="M3.71484 11.5559C3.72688 12.6104 4.15738 13.617 4.91161 14.3541C5.66584 15.0912 6.68202 15.4984 7.73656 15.4863H8.28056L9.89313 17.1688C10.0574 17.3352 10.2815 17.4289 10.5153 17.4289C10.7492 17.4289 10.9733 17.3352 11.1375 17.1688L12.7491 15.4863H13.2931C14.3477 15.4984 15.3638 15.0912 16.118 14.3541C16.8723 13.617 17.3028 12.6104 17.3148 11.5559V6.78615C17.2887 4.59094 15.4884 2.83233 13.2931 2.85769H7.73656C5.54133 2.83233 3.74098 4.59094 3.71484 6.78615V11.5559Z" stroke="#2947F2" stroke-linecap="round" stroke-linejoin="round"/>
<path id="Vector_3" d="M7.59967 6.98633C7.19729 6.98633 6.87109 7.31252 6.87109 7.7149C6.87109 8.11728 7.19729 8.44347 7.59967 8.44347V6.98633ZM13.4282 8.44347C13.8306 8.44347 14.1568 8.11728 14.1568 7.7149C14.1568 7.31252 13.8306 6.98633 13.4282 6.98633V8.44347ZM7.59967 9.90058C7.19729 9.90058 6.87109 10.2268 6.87109 10.6291C6.87109 11.0316 7.19729 11.3577 7.59967 11.3577V9.90058ZM13.4282 11.3577C13.8306 11.3577 14.1568 11.0316 14.1568 10.6291C14.1568 10.2268 13.8306 9.90058 13.4282 9.90058V11.3577ZM7.59967 8.44347H13.4282V6.98633H7.59967V8.44347ZM7.59967 11.3577H13.4282V9.90058H7.59967V11.3577Z" fill="#2947F2"/>
</g>
</g>
</g>
<defs>
<clipPath id="clip0_18930_52768">
<rect width="20" height="20" fill="white" transform="translate(0.5)"/>
</clipPath>
</defs>
</svg>
