<svg width="38" height="38" viewBox="0 0 38 38" fill="none" xmlns="http://www.w3.org/2000/svg">
<g id="Layer_1" clip-path="url(#clip0_24613_15566)">
<path id="Vector" d="M28.6132 36.9652H27.0732C20.7032 36.3152 16.8232 29.4452 19.9532 23.7052C23.0832 17.9652 31.3232 17.3752 35.1732 22.8052C39.0232 28.2352 35.4632 36.4152 28.6232 36.9752L28.6132 36.9652ZM27.4732 20.4952C21.5332 20.8052 18.2532 27.6652 21.8432 32.4652C25.0332 36.7252 31.5832 36.3752 34.2832 31.7952C37.2932 26.6752 33.3932 20.1852 27.4732 20.4952Z" fill="#374151" stroke="#374151" stroke-width="0.3" stroke-miterlimit="10"/>
<path id="Vector_2" d="M0.893311 10.6555V9.11548C1.66331 1.43548 11.2333 -1.85452 16.4033 4.09548C21.2733 9.68548 17.3933 18.4155 10.0533 18.7255C5.47331 18.9155 1.26331 15.2255 0.893311 10.6555ZM9.37331 2.53548C3.78331 2.82548 0.493311 9.10548 3.55331 13.8455C6.61331 18.5855 13.3133 18.2755 16.0633 13.5755C18.9833 8.57548 15.1433 2.22548 9.37331 2.53548Z" fill="#374151" stroke="#374151" stroke-width="0.3" stroke-miterlimit="10"/>
<path id="Vector_3" d="M0.893311 28.1247L7.49331 21.4947C7.81331 21.1747 8.61331 21.6047 8.61331 21.9847V24.5447H16.3633C16.4933 24.5447 16.9433 25.0147 16.8933 25.2147C16.7433 27.2147 17.0833 29.4947 16.8933 31.4647C16.8633 31.7847 16.6633 32.1947 16.2933 32.1947H8.61331V34.7547C8.61331 35.0947 7.68331 35.5747 7.38331 35.1447C5.46331 32.9847 2.96331 31.0447 1.10331 28.8647C1.01331 28.7547 0.973311 28.6547 0.893311 28.5447V28.1247ZM7.14331 23.9847L2.72331 28.3647L7.14331 32.6947V31.1847C7.14331 30.9947 7.71331 30.7247 7.88331 30.7247H15.4233V25.9547H7.60331C7.51331 25.9547 7.14331 25.5847 7.14331 25.4947V23.9847Z" fill="#374151" stroke="#374151" stroke-width="0.3" stroke-miterlimit="10"/>
<path id="Vector_4" d="M29.1034 13.4655H21.3534C21.2234 13.4655 20.7734 12.9955 20.8234 12.7955C20.9634 10.7855 20.6434 8.52554 20.8234 6.54554C20.8534 6.22554 21.0734 5.81554 21.4234 5.81554H29.1034V3.25554C29.1034 2.91554 30.0334 2.43554 30.3334 2.86554L36.6534 9.17554C36.8634 9.44554 36.9134 9.83554 36.6534 10.0955L30.2234 16.5155C29.9034 16.8355 29.1034 16.4055 29.1034 16.0255V13.4655ZM30.5734 14.0255L34.9934 9.64554L30.5734 5.31554V6.82554C30.5734 7.01554 30.0034 7.28554 29.8334 7.28554H22.2934V12.0555H30.1134C30.2034 12.0555 30.5734 12.4255 30.5734 12.5155V14.0255Z" fill="#374151" stroke="#374151" stroke-width="0.3" stroke-miterlimit="10"/>
<path id="Vector_5" d="M28.5537 23.4085C29.6527 23.6688 30.6071 24.8642 30.5493 26.0114C30.5011 26.8405 29.4117 26.9755 29.1514 26.3006C28.9779 25.8572 29.1803 25.5583 28.7465 25.0956C27.6282 23.8905 25.7002 25.5487 26.8281 26.8598C27.3197 27.4382 28.1488 27.2261 28.8333 27.4864C31.2337 28.4215 31.0409 31.9499 28.5537 32.6247C28.7947 34.2828 26.8088 34.2828 27.0498 32.6247C25.9508 32.3644 24.9964 31.169 25.0543 30.0218C25.0928 29.2217 26.134 29.0481 26.4328 29.6844C26.6353 30.1086 26.4135 30.4942 26.8763 30.9666C27.8114 31.9017 29.3924 31.0051 29.0357 29.6458C28.7465 28.5275 27.58 28.8553 26.7606 28.5372C24.3602 27.6021 24.553 24.0641 27.0402 23.3989C26.7992 21.7407 28.7851 21.7407 28.5441 23.3989L28.5537 23.4085Z" fill="#003DFF" stroke="#003DFF" stroke-width="0.3" stroke-miterlimit="10"/>
<path id="Vector_6" d="M10.2724 4.20582C10.4897 4.40339 10.4897 4.93685 10.5095 5.21346C11.606 5.5197 12.7915 7.05091 12.4062 8.19686C12.2778 8.59201 11.685 8.70067 11.3393 8.5031C10.7564 8.1771 11.2306 7.1991 10.3218 6.75455C8.80043 6.01364 7.76315 8.16722 9.09679 8.95752C9.49194 9.18474 10.2526 9.10571 10.8058 9.33292C13.1471 10.2714 12.9495 13.7981 10.5391 14.5094C10.5589 15.191 10.1736 16.0209 9.3734 15.6158C8.82018 15.3294 9.09679 14.7267 8.94861 14.5094C8.92885 14.4798 8.40527 14.2526 8.26697 14.1538C7.56557 13.6796 6.84442 12.6226 7.00248 11.7433C7.13091 11.0123 8.11879 10.9036 8.41515 11.5161C8.61273 11.9212 8.40527 12.2472 8.82018 12.7016C10.0155 14.0056 11.9221 11.9607 10.5095 10.874C10.0155 10.4986 9.42279 10.6468 8.84982 10.4591C6.33072 9.63916 6.42951 5.88522 8.97824 5.22334C8.96836 4.8677 8.97824 4.2157 9.40303 4.08727C9.65 4.00824 10.0945 4.03788 10.2822 4.2157L10.2724 4.20582Z" fill="#003DFF" stroke="#003DFF" stroke-width="0.3" stroke-miterlimit="10"/>
</g>
<defs>
<clipPath id="clip0_24613_15566">
<rect width="36.43" height="36.43" fill="white" transform="translate(0.643311 0.785156)"/>
</clipPath>
</defs>
</svg>
