<svg width="37" height="38" viewBox="0 0 37 38" fill="none" xmlns="http://www.w3.org/2000/svg">
<g clip-path="url(#clip0_25925_4344)">
<path d="M27.989 36.7816H26.449C20.079 36.1316 16.199 29.2616 19.329 23.5216C22.459 17.7816 30.699 17.1916 34.549 22.6216C38.399 28.0516 34.839 36.2316 27.999 36.7916L27.989 36.7816ZM26.849 20.3116C20.909 20.6216 17.629 27.4816 21.219 32.2816C24.409 36.5416 30.959 36.1916 33.659 31.6116C36.669 26.4916 32.769 20.0016 26.849 20.3116Z" fill="white" stroke="white" stroke-width="0.3" stroke-miterlimit="10"/>
<path d="M0.269043 10.4719V8.93188C1.03904 1.25188 10.609 -2.03812 15.779 3.91188C20.649 9.50188 16.769 18.2319 9.42904 18.5419C4.84904 18.7319 0.639043 15.0419 0.269043 10.4719ZM8.74904 2.35188C3.15904 2.64188 -0.130957 8.92188 2.92904 13.6619C5.98904 18.4019 12.689 18.0919 15.439 13.3919C18.359 8.39188 14.519 2.04188 8.74904 2.35188Z" fill="white" stroke="white" stroke-width="0.3" stroke-miterlimit="10"/>
<path d="M0.269043 27.9411L6.86904 21.3111C7.18904 20.9911 7.98904 21.4211 7.98904 21.8011V24.3611H15.739C15.869 24.3611 16.319 24.8311 16.269 25.0311C16.119 27.0311 16.459 29.3111 16.269 31.2811C16.239 31.6011 16.039 32.0111 15.669 32.0111H7.98904V34.5711C7.98904 34.9111 7.05904 35.3911 6.75904 34.9611C4.83904 32.8011 2.33904 30.8611 0.479043 28.6811C0.389043 28.5711 0.349043 28.4711 0.269043 28.3611V27.9411ZM6.51904 23.8011L2.09904 28.1811L6.51904 32.5111V31.0011C6.51904 30.8111 7.08904 30.5411 7.25904 30.5411H14.799V25.7711H6.97904C6.88904 25.7711 6.51904 25.4011 6.51904 25.3111V23.8011Z" fill="white" stroke="white" stroke-width="0.3" stroke-miterlimit="10"/>
<path d="M28.4791 13.2819H20.7291C20.5991 13.2819 20.1491 12.8119 20.1991 12.6119C20.3391 10.6019 20.0191 8.34195 20.1991 6.36195C20.2291 6.04195 20.4491 5.63195 20.7991 5.63195H28.4791V3.07195C28.4791 2.73195 29.4091 2.25195 29.7091 2.68195L36.0291 8.99195C36.2391 9.26195 36.2891 9.65195 36.0291 9.91195L29.5991 16.3319C29.2791 16.6519 28.4791 16.2219 28.4791 15.8419V13.2819ZM29.9491 13.8419L34.3691 9.46195L29.9491 5.13195V6.64195C29.9491 6.83195 29.3791 7.10195 29.2091 7.10195H21.6691V11.8719H29.4891C29.5791 11.8719 29.9491 12.2419 29.9491 12.3319V13.8419Z" fill="white" stroke="white" stroke-width="0.3" stroke-miterlimit="10"/>
<path d="M27.9297 23.2249C29.0287 23.4852 29.9831 24.6806 29.9252 25.8278C29.877 26.6569 28.7877 26.7919 28.5274 26.117C28.3539 25.6736 28.5563 25.3747 28.1225 24.912C27.0042 23.7069 25.0761 25.3651 26.2041 26.6762C26.6957 27.2546 27.5248 27.0425 28.2093 27.3028C30.6097 28.2379 30.4169 31.7663 27.9297 32.4411C28.1707 34.0992 26.1848 34.0992 26.4258 32.4411C25.3268 32.1808 24.3724 30.9854 24.4302 29.8382C24.4688 29.0381 25.51 28.8645 25.8088 29.5008C26.0113 29.925 25.7895 30.3106 26.2523 30.783C27.1874 31.7181 28.7684 30.8215 28.4117 29.4622C28.1225 28.344 26.956 28.6717 26.1366 28.3536C23.7361 27.4185 23.9289 23.8805 26.4161 23.2153C26.1751 21.5571 28.1611 21.5571 27.92 23.2153L27.9297 23.2249Z" fill="white" stroke="white" stroke-width="0.3" stroke-miterlimit="10"/>
<path d="M9.64786 4.02222C9.86519 4.2198 9.86519 4.75326 9.88495 5.02986C10.9815 5.33611 12.167 6.86732 11.7817 8.01326C11.6533 8.40841 11.0605 8.51708 10.7148 8.3195C10.1319 7.9935 10.6061 7.0155 9.69725 6.57096C8.17591 5.83005 7.13864 7.98363 8.47228 8.77393C8.86743 9.00114 9.6281 8.92211 10.1813 9.14932C12.5226 10.0878 12.325 13.6145 9.91458 14.3258C9.93434 15.0075 9.54907 15.8373 8.74888 15.4322C8.19567 15.1458 8.47228 14.5432 8.3241 14.3258C8.30434 14.2962 7.78076 14.069 7.64246 13.9702C6.94106 13.496 6.21991 12.439 6.37797 11.5598C6.5064 10.8287 7.49428 10.7201 7.79064 11.3325C7.98822 11.7376 7.78076 12.0636 8.19567 12.518C9.39101 13.822 11.2976 11.7771 9.88495 10.6904C9.39101 10.315 8.79828 10.4632 8.22531 10.2755C5.70621 9.45557 5.805 5.70162 8.35373 5.03974C8.34385 4.6841 8.35373 4.0321 8.77852 3.90368C9.02549 3.82465 9.47004 3.85429 9.65773 4.0321L9.64786 4.02222Z" fill="white" stroke="white" stroke-width="0.3" stroke-miterlimit="10"/>
</g>
<defs>
<clipPath id="clip0_25925_4344">
<rect width="36.43" height="36.43" fill="white" transform="translate(0.019043 0.601562)"/>
</clipPath>
</defs>
</svg>
