<svg width="135" height="42" viewBox="0 0 135 42" fill="none" xmlns="http://www.w3.org/2000/svg">
<g id="Okoora_ABCm_icon 1" clip-path="url(#clip0_9190_31100)">
<g id="g10">
<g id="g12">
<g id="Clip path group">
<mask id="mask0_9190_31100" style="mask-type:luminance" maskUnits="userSpaceOnUse" x="-15" y="0" width="150" height="42">
<g id="clipPath18">
<path id="path16" d="M-14.4727 0.287109H134.527V41.2871H-14.4727V0.287109Z" fill="white"/>
</g>
</mask>
<g mask="url(#mask0_9190_31100)">
<g id="g14">
<g id="g20">
<path id="path22" d="M5.31912 36.9121C2.65987 36.9121 0.503906 34.7314 0.503906 32.0414V26.2274C0.503906 23.5374 2.65987 21.3565 5.31912 21.3565C7.97837 21.3565 10.1341 23.5371 10.1341 26.2272V32.0411C10.1341 34.7314 7.97837 36.9121 5.31912 36.9121Z" fill="#9CA3AF"/>
</g>
<g id="g24">
<path id="path26" d="M18.3426 36.9121C15.6833 36.9121 13.5273 34.7314 13.5273 32.0414L13.5276 9.28228C13.5276 6.59223 15.6833 4.41155 18.3426 4.41155C21.0018 4.41155 23.1578 6.59223 23.1578 9.28228L23.1575 32.0411C23.1575 34.7314 21.0018 36.9121 18.3426 36.9121Z" fill="#9CA3AF"/>
</g>
<g id="g28">
<path id="path30" d="M31.364 19.9668C28.7048 19.9668 26.5488 17.7861 26.5488 15.0961V9.28212C26.5488 6.59207 28.7048 4.41114 31.364 4.41114C34.0233 4.41114 36.1793 6.59182 36.179 9.28187V15.0958C36.179 17.7861 34.0233 19.9668 31.364 19.9668Z" fill="#9CA3AF"/>
</g>
<g id="g32">
<path id="path34" d="M49.1317 24.6738L48.7609 23.1265L48.3899 24.7207L46.7675 29.0816H50.638L49.1317 24.6738ZM43.9399 36.912H38.0996L45.2845 18.3906H52.4921L59.2133 36.912H53.2803L51.9357 32.9733H45.3772L43.9399 36.912Z" fill="#111827"/>
</g>
<g id="g36">
<path id="path38" d="M74.2077 31.332C74.2077 30.7458 74.0917 30.277 73.7673 29.9488C73.4428 29.6675 72.9561 29.5033 72.3533 29.5033H66.9765V32.9498H72.3072C72.933 32.9498 73.4659 32.8325 73.7903 32.5279C74.0917 32.2699 74.2077 31.8477 74.2077 31.332ZM73.0721 22.7745C72.7707 22.4699 72.2609 22.3526 71.5885 22.3526H66.9765V25.7991H71.7974C72.3533 25.7991 72.817 25.6584 73.1184 25.33C73.3734 25.0487 73.5353 24.6268 73.5353 24.0642C73.5353 23.5249 73.3734 23.0561 73.0721 22.7745ZM74.1611 36.912H61.4375V18.3906H73.7442C75.9921 18.3906 77.4757 18.9765 78.3099 19.8207C79.0517 20.5708 79.422 21.6258 79.422 22.9623C79.422 24.3455 79.1211 25.3771 78.4259 26.1508C77.9619 26.6665 77.1047 27.1121 76.3631 27.2294C77.4291 27.3462 78.5877 27.9795 79.2601 28.8001C79.8393 29.4798 80.1409 30.5583 80.1409 31.8011C80.1409 33.0902 79.7236 34.4268 78.9823 35.2238C77.9855 36.3259 76.4095 36.912 74.1611 36.912Z" fill="#111827"/>
</g>
<g id="g40">
<path id="path42" d="M100.789 32.9733C99.5143 35.7163 96.9422 37.1699 92.0055 37.1699C88.5987 37.1699 86.1183 36.4198 84.5195 34.8255C82.9898 33.2779 82.248 30.91 82.248 27.6277C82.248 24.6738 82.9435 22.3994 84.3339 20.8287C85.9565 19.0469 88.4827 18.1325 92.121 18.1325C97.7298 18.1325 100.187 20.2428 100.998 22.8449C101.345 23.9234 101.461 25.2131 101.461 25.9396H95.737C95.737 25.3302 95.5746 24.58 95.2502 24.0172C94.7168 23.0795 93.8596 22.6105 92.0516 22.6105C90.5222 22.6105 89.5489 23.0324 88.9231 23.9234C88.3432 24.7207 88.1347 26.0101 88.1347 27.6981C88.1347 29.6439 88.4133 30.8398 89.0155 31.6134C89.7107 32.5278 90.8235 32.8324 92.0982 32.8324C93.7666 32.8324 94.6707 32.3167 95.1573 31.637C95.5974 31.0506 95.737 30.4178 95.783 29.6439H101.508C101.461 30.3942 101.369 31.8479 100.789 32.9733Z" fill="#111827"/>
</g>
<g id="g44">
<path id="path46" d="M116.048 17.4973C116.048 16.826 115.766 16.238 114.77 16.238C113.924 16.238 113.343 16.7923 113.343 17.5979V22.6855H109.791V17.4301C109.791 16.7249 109.376 16.238 108.546 16.238C107.633 16.238 107.086 16.8929 107.086 17.5979V22.6855H103.301V13.4509H106.969V14.8108C107.401 13.8371 108.662 13.2664 110.106 13.2664C111.55 13.2664 112.546 13.8037 113.027 14.8615C113.326 13.9547 114.405 13.2664 116.164 13.2664C118.488 13.2664 119.467 14.5424 119.467 16.5404C119.467 21.4765 119.467 22.5847 119.55 22.6855H116.164C116.048 22.6855 116.048 21.6445 116.048 17.4973Z" fill="#111827"/>
</g>
</g>
</g>
</g>
</g>
</g>
<path id="Vector" d="M5.52734 21.2871C8.28749 21.2871 10.5273 23.5315 10.5273 26.2972V32.277C10.5273 35.0427 8.28749 37.2871 5.52734 37.2871C2.7672 37.2871 0.527344 35.0427 0.527344 32.277V26.2972C0.527344 23.5315 2.7672 21.2871 5.52734 21.2871Z" fill="#FF6805"/>
<path id="Vector_2" d="M18.5247 4.28711C21.2849 4.28711 23.5273 6.50255 23.5273 9.23261V32.3416C23.5273 35.0717 21.2875 37.2871 18.5273 37.2871C15.7672 37.2871 13.5273 35.0717 13.5273 32.3416V9.23261C13.5247 6.50255 15.7672 4.28711 18.5247 4.28711Z" fill="#05F2F2"/>
<path id="Vector_3" d="M31.5273 4.28711C34.2875 4.28711 36.5273 6.53149 36.5273 9.29721V15.277C36.5273 18.0427 34.2875 20.2871 31.5273 20.2871C28.7672 20.2871 26.5273 18.0427 26.5273 15.277V9.29721C26.5273 6.53149 28.7672 4.28711 31.5273 4.28711Z" fill="#1E40AF"/>
</g>
<defs>
<clipPath id="clip0_9190_31100">
<rect width="134" height="41" fill="white" transform="translate(0.527344 0.287109)"/>
</clipPath>
</defs>
</svg>
