<svg width="146" height="28" viewBox="0 0 146 28" fill="none" xmlns="http://www.w3.org/2000/svg">
<g id="logo.svg" clip-path="url(#clip0_144_942)">
<g id="Clip path group">
<mask id="mask0_144_942" style="mask-type:luminance" maskUnits="userSpaceOnUse" x="9" y="0" width="137" height="28">
<g id="clip0_2956_12936">
<path id="Vector" d="M145.643 0.270508H9.70471V27.1005H145.643V0.270508Z" fill="white"/>
</g>
</mask>
<g mask="url(#mask0_144_942)">
<g id="Group">
<path id="Vector_2" d="M58.3445 24.238C57.0479 25.9693 54.5035 27.1001 51.0054 27.1001C47.1401 27.1001 44.9385 25.9693 43.6176 24.1902C42.8588 23.2287 42.3942 21.8584 42.3942 20.199C42.3942 18.6851 42.8344 17.1694 43.6907 16.184C45.0622 14.4988 47.2151 13.3201 51.0561 13.3201C54.7003 13.3201 57.0236 14.4748 58.3445 16.1085C59.152 17.1915 59.568 18.6096 59.568 20.1953C59.568 21.8327 59.152 23.179 58.3445 24.238ZM53.6004 18.2026C53.1602 17.6501 52.3769 17.2652 51.0804 17.2652C49.8082 17.2652 48.9763 17.674 48.536 18.2984C48.1444 18.8269 47.9739 19.5489 47.9739 20.2451C47.9739 21.0389 48.1444 21.7609 48.4873 22.2655C48.9032 22.8899 49.8082 23.2508 51.0804 23.2508C52.2795 23.2508 53.1357 22.8899 53.6004 22.2416C53.9676 21.7369 54.1625 21.0149 54.1625 20.2451C54.1625 19.4752 53.9658 18.6593 53.6004 18.2026Z" fill="white"/>
<path id="Vector_3" d="M77.9359 26.8831H71.8934L68.7138 21.7372L67.3198 23.0835V26.8831H61.7419V7.71777H67.3198V17.7222L71.4775 13.6593H77.4712L72.774 18.6615L77.9359 26.8831Z" fill="white"/>
<path id="Vector_4" d="M94.0341 24.2381C92.7374 25.9693 90.1931 27.1002 86.695 27.1002C82.8296 27.1002 80.6281 25.9693 79.3072 24.1902C78.5483 23.2288 78.0836 21.8585 78.0836 20.1991C78.0836 18.6852 78.524 17.1694 79.3802 16.1841C80.7498 14.5007 82.9026 13.322 86.7436 13.322C90.3879 13.322 92.7131 14.4768 94.0341 16.1104C94.8415 17.1933 95.2575 18.6116 95.2575 20.1973C95.2575 21.8328 94.8415 23.1791 94.0341 24.2381ZM89.2881 18.2027C88.8477 17.6501 88.0646 17.2652 86.768 17.2652C85.4958 17.2652 84.6639 17.674 84.2236 18.2984C83.832 18.827 83.6615 19.549 83.6615 20.2451C83.6615 21.039 83.832 21.761 84.1749 22.2655C84.5908 22.89 85.4958 23.2509 86.768 23.2509C87.9672 23.2509 88.8234 22.89 89.2881 22.2417C89.6553 21.737 89.8502 21.015 89.8502 20.2451C89.8502 19.4753 89.6553 18.6594 89.2881 18.2027Z" fill="white"/>
<path id="Vector_5" d="M112.719 24.2383C111.423 25.9696 108.879 27.1005 105.38 27.1005C101.515 27.1005 99.3139 25.9696 97.9926 24.1905C97.2338 23.2291 96.7692 21.8588 96.7692 20.1993C96.7692 18.6854 97.2094 17.1697 98.0657 16.1843C99.4355 14.5009 101.588 13.3223 105.429 13.3223C109.074 13.3223 111.398 14.477 112.719 16.1106C113.527 17.1936 113.943 18.6118 113.943 20.1975C113.943 21.833 113.527 23.1793 112.719 24.2383ZM107.974 18.2029C107.533 17.6504 106.75 17.2655 105.453 17.2655C104.181 17.2655 103.349 17.6743 102.909 18.2987C102.517 18.8272 102.347 19.5492 102.347 20.2454C102.347 21.0392 102.517 21.7612 102.86 22.2658C103.277 22.8902 104.181 23.2512 105.453 23.2512C106.653 23.2512 107.509 22.8902 107.974 22.2419C108.34 21.7372 108.535 21.0152 108.535 20.2454C108.535 19.4755 108.34 18.6596 107.974 18.2029Z" fill="white"/>
<path id="Vector_6" d="M128.303 18.3702C127.301 18.0331 126.372 17.8177 124.781 17.8177C122.898 17.8177 121.772 18.9006 121.772 20.8953V26.8828H116.121V13.6589H121.599V15.8949C121.845 14.403 124.17 13.3201 126.005 13.3201C127.007 13.3201 127.814 13.4398 128.303 13.5852V18.3702Z" fill="white"/>
<path id="Vector_7" d="M140.338 26.8828C140.24 26.8828 140.092 26.3063 140.092 25.7519C139.089 26.5697 137.205 27.0504 134.539 27.0504C131.554 27.0504 129.353 26.0411 129.23 23.7315C129.23 23.5639 129.206 23.0575 129.255 22.6983C129.377 20.5342 131.603 18.8269 136.519 18.6593C137.57 18.6354 138.696 18.6833 139.92 18.803C139.895 18.466 139.871 18.2265 139.725 17.8895C139.479 17.337 138.796 16.9999 137.718 16.9999C136.813 16.9999 136.176 17.1196 135.787 17.4566C135.468 17.7459 135.273 18.0571 135.249 18.3462H129.94C129.965 17.7219 130.186 16.8065 130.576 16.1582C131.85 14.0421 134.346 13.3201 137.917 13.3201C142.271 13.3201 144.643 14.7622 145.156 17.0957C145.327 17.8415 145.427 19.2837 145.376 20.4624C145.351 21.2322 145.351 22.6983 145.351 23.8531C145.351 25.0797 145.4 26.5697 145.646 26.8828H140.338ZM137.672 21.2802C135.764 21.2802 134.907 21.8327 134.907 22.7941C134.907 23.4184 135.446 23.7076 136.718 23.7076C138.112 23.7076 139.554 23.2508 139.994 21.5914C139.335 21.3998 138.919 21.2802 137.672 21.2802Z" fill="white"/>
<path id="Vector_8" d="M13.6263 26.8831C11.4603 26.8831 9.70471 25.1574 9.70471 23.0282V18.4275C9.70471 16.2985 11.4603 14.5728 13.6263 14.5728C15.7922 14.5728 17.5478 16.2985 17.5478 18.4275V23.0282C17.5459 25.1574 15.7922 26.8831 13.6263 26.8831Z" fill="white"/>
<path id="Vector_9" d="M24.2298 26.8831C22.0639 26.8831 20.3082 25.1574 20.3082 23.0283V5.0196C20.3082 2.89053 22.0639 1.16479 24.2298 1.16479C26.3957 1.16479 28.1514 2.89053 28.1514 5.0196V23.0283C28.1495 25.1574 26.3957 26.8831 24.2298 26.8831Z" fill="white"/>
<path id="Vector_10" d="M34.8352 13.4732C32.6693 13.4732 30.9136 11.7475 30.9136 9.61848V5.01959C30.9136 2.89053 32.6693 1.16479 34.8352 1.16479C37.0012 1.16479 38.7568 2.89053 38.7568 5.01959V9.62036C38.7568 11.7475 37.0012 13.4732 34.8352 13.4732Z" fill="white"/>
</g>
</g>
</g>
</g>
<defs>
<clipPath id="clip0_144_942">
<rect width="145" height="27" fill="white" transform="translate(0.779419 0.270508)"/>
</clipPath>
</defs>
</svg>
