<svg width="126" height="126" viewBox="0 0 126 126" fill="none" xmlns="http://www.w3.org/2000/svg">
<g id="Cells">
<rect id="1,1" x="0.311523" y="0.38028" width="3.7993" height="3.7993" fill="black"/>
<rect id="1,2" x="4.11035" y="0.38028" width="3.7993" height="3.7993" fill="black"/>
<rect id="1,3" x="7.91016" y="0.38028" width="3.7993" height="3.7993" fill="black"/>
<rect id="1,4" x="11.709" y="0.38028" width="3.7993" height="3.7993" fill="black"/>
<rect id="1,5" x="15.5088" y="0.38028" width="3.7993" height="3.7993" fill="black"/>
<rect id="1,6" x="19.3076" y="0.38028" width="3.7993" height="3.7993" fill="black"/>
<rect id="1,7" x="23.1074" y="0.38028" width="3.7993" height="3.7993" fill="black"/>
<rect id="1,9" x="30.7056" y="0.38028" width="3.7993" height="3.7993" fill="black"/>
<rect id="1,10" x="34.5049" y="0.38028" width="3.7993" height="3.7993" fill="black"/>
<rect id="1,14" x="49.7021" y="0.38028" width="3.7993" height="3.7993" fill="black"/>
<rect id="1,15" x="53.5015" y="0.38028" width="3.7993" height="3.7993" fill="black"/>
<rect id="1,18" x="64.8994" y="0.38028" width="3.7993" height="3.7993" fill="black"/>
<rect id="1,19" x="68.6987" y="0.38028" width="3.7993" height="3.7993" fill="black"/>
<rect id="1,20" x="72.498" y="0.38028" width="3.7993" height="3.7993" fill="black"/>
<rect id="1,21" x="76.2974" y="0.38028" width="3.7993" height="3.7993" fill="black"/>
<rect id="1,22" x="80.0967" y="0.38028" width="3.7993" height="3.7993" fill="black"/>
<rect id="1,23" x="83.896" y="0.38028" width="3.7993" height="3.7993" fill="black"/>
<rect id="1,24" x="87.6953" y="0.38028" width="3.7993" height="3.7993" fill="black"/>
<rect id="1,27" x="99.0933" y="0.38028" width="3.7993" height="3.7993" fill="black"/>
<rect id="1,28" x="102.892" y="0.38028" width="3.7993" height="3.7993" fill="black"/>
<rect id="1,29" x="106.692" y="0.38028" width="3.7993" height="3.7993" fill="black"/>
<rect id="1,30" x="110.491" y="0.38028" width="3.7993" height="3.7993" fill="black"/>
<rect id="1,31" x="114.291" y="0.38028" width="3.7993" height="3.7993" fill="black"/>
<rect id="1,32" x="118.089" y="0.38028" width="3.7993" height="3.7993" fill="black"/>
<rect id="1,33" x="121.889" y="0.38028" width="3.7993" height="3.7993" fill="black"/>
<rect id="2,1" x="0.311523" y="4.17957" width="3.7993" height="3.7993" fill="black"/>
<rect id="2,7" x="23.1074" y="4.17957" width="3.7993" height="3.7993" fill="black"/>
<rect id="2,18" x="64.8994" y="4.17957" width="3.7993" height="3.7993" fill="black"/>
<rect id="2,22" x="80.0967" y="4.17957" width="3.7993" height="3.7993" fill="black"/>
<rect id="2,24" x="87.6953" y="4.17957" width="3.7993" height="3.7993" fill="black"/>
<rect id="2,25" x="91.4946" y="4.17957" width="3.7993" height="3.7993" fill="black"/>
<rect id="2,27" x="99.0933" y="4.17957" width="3.7993" height="3.7993" fill="black"/>
<rect id="2,33" x="121.889" y="4.17957" width="3.7993" height="3.7993" fill="black"/>
<rect id="3,1" x="0.311523" y="7.97888" width="3.7993" height="3.7993" fill="black"/>
<rect id="3,3" x="7.91016" y="7.97888" width="3.7993" height="3.7993" fill="black"/>
<rect id="3,4" x="11.709" y="7.97888" width="3.7993" height="3.7993" fill="black"/>
<rect id="3,5" x="15.5088" y="7.97888" width="3.7993" height="3.7993" fill="black"/>
<rect id="3,7" x="23.1074" y="7.97888" width="3.7993" height="3.7993" fill="black"/>
<rect id="3,9" x="30.7056" y="7.97888" width="3.7993" height="3.7993" fill="black"/>
<rect id="3,12" x="42.1035" y="7.97888" width="3.7993" height="3.7993" fill="black"/>
<rect id="3,13" x="45.9028" y="7.97888" width="3.7993" height="3.7993" fill="black"/>
<rect id="3,14" x="49.7021" y="7.97888" width="3.7993" height="3.7993" fill="black"/>
<rect id="3,15" x="53.5015" y="7.97888" width="3.7993" height="3.7993" fill="black"/>
<rect id="3,19" x="68.6987" y="7.97888" width="3.7993" height="3.7993" fill="black"/>
<rect id="3,21" x="76.2974" y="7.97888" width="3.7993" height="3.7993" fill="black"/>
<rect id="3,23" x="83.896" y="7.97888" width="3.7993" height="3.7993" fill="black"/>
<rect id="3,24" x="87.6953" y="7.97888" width="3.7993" height="3.7993" fill="black"/>
<rect id="3,25" x="91.4946" y="7.97888" width="3.7993" height="3.7993" fill="black"/>
<rect id="3,27" x="99.0933" y="7.97888" width="3.7993" height="3.7993" fill="black"/>
<rect id="3,29" x="106.692" y="7.97888" width="3.7993" height="3.7993" fill="black"/>
<rect id="3,30" x="110.491" y="7.97888" width="3.7993" height="3.7993" fill="black"/>
<rect id="3,31" x="114.291" y="7.97888" width="3.7993" height="3.7993" fill="black"/>
<rect id="3,33" x="121.889" y="7.97888" width="3.7993" height="3.7993" fill="black"/>
<rect id="4,1" x="0.311523" y="11.7782" width="3.7993" height="3.7993" fill="black"/>
<rect id="4,3" x="7.91016" y="11.7782" width="3.7993" height="3.7993" fill="black"/>
<rect id="4,4" x="11.709" y="11.7782" width="3.7993" height="3.7993" fill="black"/>
<rect id="4,5" x="15.5088" y="11.7782" width="3.7993" height="3.7993" fill="black"/>
<rect id="4,7" x="23.1074" y="11.7782" width="3.7993" height="3.7993" fill="black"/>
<rect id="4,9" x="30.7056" y="11.7782" width="3.7993" height="3.7993" fill="black"/>
<rect id="4,10" x="34.5049" y="11.7782" width="3.7993" height="3.7993" fill="black"/>
<rect id="4,12" x="42.1035" y="11.7782" width="3.7993" height="3.7993" fill="black"/>
<rect id="4,14" x="49.7021" y="11.7782" width="3.7993" height="3.7993" fill="black"/>
<rect id="4,15" x="53.5015" y="11.7782" width="3.7993" height="3.7993" fill="black"/>
<rect id="4,18" x="64.8994" y="11.7782" width="3.7993" height="3.7993" fill="black"/>
<rect id="4,20" x="72.498" y="11.7782" width="3.7993" height="3.7993" fill="black"/>
<rect id="4,21" x="76.2974" y="11.7782" width="3.7993" height="3.7993" fill="black"/>
<rect id="4,23" x="83.896" y="11.7782" width="3.7993" height="3.7993" fill="black"/>
<rect id="4,24" x="87.6953" y="11.7782" width="3.7993" height="3.7993" fill="black"/>
<rect id="4,25" x="91.4946" y="11.7782" width="3.7993" height="3.7993" fill="black"/>
<rect id="4,27" x="99.0933" y="11.7782" width="3.7993" height="3.7993" fill="black"/>
<rect id="4,29" x="106.692" y="11.7782" width="3.7993" height="3.7993" fill="black"/>
<rect id="4,30" x="110.491" y="11.7782" width="3.7993" height="3.7993" fill="black"/>
<rect id="4,31" x="114.291" y="11.7782" width="3.7993" height="3.7993" fill="black"/>
<rect id="4,33" x="121.889" y="11.7782" width="3.7993" height="3.7993" fill="black"/>
<rect id="5,1" x="0.311523" y="15.5775" width="3.7993" height="3.7993" fill="black"/>
<rect id="5,3" x="7.91016" y="15.5775" width="3.7993" height="3.7993" fill="black"/>
<rect id="5,4" x="11.709" y="15.5775" width="3.7993" height="3.7993" fill="black"/>
<rect id="5,5" x="15.5088" y="15.5775" width="3.7993" height="3.7993" fill="black"/>
<rect id="5,7" x="23.1074" y="15.5775" width="3.7993" height="3.7993" fill="black"/>
<rect id="5,9" x="30.7056" y="15.5775" width="3.7993" height="3.7993" fill="black"/>
<rect id="5,10" x="34.5049" y="15.5775" width="3.7993" height="3.7993" fill="black"/>
<rect id="5,11" x="38.3042" y="15.5775" width="3.7993" height="3.7993" fill="black"/>
<rect id="5,12" x="42.1035" y="15.5775" width="3.7993" height="3.7993" fill="black"/>
<rect id="5,15" x="53.5015" y="15.5775" width="3.7993" height="3.7993" fill="black"/>
<rect id="5,16" x="57.3008" y="15.5775" width="3.7993" height="3.7993" fill="black"/>
<rect id="5,17" x="61.1001" y="15.5775" width="3.7993" height="3.7993" fill="black"/>
<rect id="5,18" x="64.8994" y="15.5775" width="3.7993" height="3.7993" fill="black"/>
<rect id="5,20" x="72.498" y="15.5775" width="3.7993" height="3.7993" fill="black"/>
<rect id="5,21" x="76.2974" y="15.5775" width="3.7993" height="3.7993" fill="black"/>
<rect id="5,25" x="91.4946" y="15.5775" width="3.7993" height="3.7993" fill="black"/>
<rect id="5,27" x="99.0933" y="15.5775" width="3.7993" height="3.7993" fill="black"/>
<rect id="5,29" x="106.692" y="15.5775" width="3.7993" height="3.7993" fill="black"/>
<rect id="5,30" x="110.491" y="15.5775" width="3.7993" height="3.7993" fill="black"/>
<rect id="5,31" x="114.291" y="15.5775" width="3.7993" height="3.7993" fill="black"/>
<rect id="5,33" x="121.889" y="15.5775" width="3.7993" height="3.7993" fill="black"/>
<rect id="6,1" x="0.311523" y="19.3768" width="3.7993" height="3.7993" fill="black"/>
<rect id="6,7" x="23.1074" y="19.3768" width="3.7993" height="3.7993" fill="black"/>
<rect id="6,10" x="34.5049" y="19.3768" width="3.7993" height="3.7993" fill="black"/>
<rect id="6,13" x="45.9028" y="19.3768" width="3.7993" height="3.7993" fill="black"/>
<rect id="6,14" x="49.7021" y="19.3768" width="3.7993" height="3.7993" fill="black"/>
<rect id="6,15" x="53.5015" y="19.3768" width="3.7993" height="3.7993" fill="black"/>
<rect id="6,17" x="61.1001" y="19.3768" width="3.7993" height="3.7993" fill="black"/>
<rect id="6,19" x="68.6987" y="19.3768" width="3.7993" height="3.7993" fill="black"/>
<rect id="6,20" x="72.498" y="19.3768" width="3.7993" height="3.7993" fill="black"/>
<rect id="6,21" x="76.2974" y="19.3768" width="3.7993" height="3.7993" fill="black"/>
<rect id="6,27" x="99.0933" y="19.3768" width="3.7993" height="3.7993" fill="black"/>
<rect id="6,33" x="121.889" y="19.3768" width="3.7993" height="3.7993" fill="black"/>
<rect id="7,1" x="0.311523" y="23.1761" width="3.7993" height="3.7993" fill="black"/>
<rect id="7,2" x="4.11035" y="23.1761" width="3.7993" height="3.7993" fill="black"/>
<rect id="7,3" x="7.91016" y="23.1761" width="3.7993" height="3.7993" fill="black"/>
<rect id="7,4" x="11.709" y="23.1761" width="3.7993" height="3.7993" fill="black"/>
<rect id="7,5" x="15.5088" y="23.1761" width="3.7993" height="3.7993" fill="black"/>
<rect id="7,6" x="19.3076" y="23.1761" width="3.7993" height="3.7993" fill="black"/>
<rect id="7,7" x="23.1074" y="23.1761" width="3.7993" height="3.7993" fill="black"/>
<rect id="7,9" x="30.7056" y="23.1761" width="3.7993" height="3.7993" fill="black"/>
<rect id="7,11" x="38.3042" y="23.1761" width="3.7993" height="3.7993" fill="black"/>
<rect id="7,13" x="45.9028" y="23.1761" width="3.7993" height="3.7993" fill="black"/>
<rect id="7,15" x="53.5015" y="23.1761" width="3.7993" height="3.7993" fill="black"/>
<rect id="7,17" x="61.1001" y="23.1761" width="3.7993" height="3.7993" fill="black"/>
<rect id="7,19" x="68.6987" y="23.1761" width="3.7993" height="3.7993" fill="black"/>
<rect id="7,21" x="76.2974" y="23.1761" width="3.7993" height="3.7993" fill="black"/>
<rect id="7,23" x="83.896" y="23.1761" width="3.7993" height="3.7993" fill="black"/>
<rect id="7,25" x="91.4946" y="23.1761" width="3.7993" height="3.7993" fill="black"/>
<rect id="7,27" x="99.0933" y="23.1761" width="3.7993" height="3.7993" fill="black"/>
<rect id="7,28" x="102.892" y="23.1761" width="3.7993" height="3.7993" fill="black"/>
<rect id="7,29" x="106.692" y="23.1761" width="3.7993" height="3.7993" fill="black"/>
<rect id="7,30" x="110.491" y="23.1761" width="3.7993" height="3.7993" fill="black"/>
<rect id="7,31" x="114.291" y="23.1761" width="3.7993" height="3.7993" fill="black"/>
<rect id="7,32" x="118.089" y="23.1761" width="3.7993" height="3.7993" fill="black"/>
<rect id="7,33" x="121.889" y="23.1761" width="3.7993" height="3.7993" fill="black"/>
<rect id="8,10" x="34.5049" y="26.9754" width="3.7993" height="3.7993" fill="black"/>
<rect id="8,12" x="42.1035" y="26.9754" width="3.7993" height="3.7993" fill="black"/>
<rect id="8,18" x="64.8994" y="26.9754" width="3.7993" height="3.7993" fill="black"/>
<rect id="8,20" x="72.498" y="26.9754" width="3.7993" height="3.7993" fill="black"/>
<rect id="8,21" x="76.2974" y="26.9754" width="3.7993" height="3.7993" fill="black"/>
<rect id="8,23" x="83.896" y="26.9754" width="3.7993" height="3.7993" fill="black"/>
<rect id="8,24" x="87.6953" y="26.9754" width="3.7993" height="3.7993" fill="black"/>
<rect id="8,25" x="91.4946" y="26.9754" width="3.7993" height="3.7993" fill="black"/>
<rect id="9,1" x="0.311523" y="30.7747" width="3.7993" height="3.7993" fill="black"/>
<rect id="9,2" x="4.11035" y="30.7747" width="3.7993" height="3.7993" fill="black"/>
<rect id="9,3" x="7.91016" y="30.7747" width="3.7993" height="3.7993" fill="black"/>
<rect id="9,4" x="11.709" y="30.7747" width="3.7993" height="3.7993" fill="black"/>
<rect id="9,7" x="23.1074" y="30.7747" width="3.7993" height="3.7993" fill="black"/>
<rect id="9,9" x="30.7056" y="30.7747" width="3.7993" height="3.7993" fill="black"/>
<rect id="9,15" x="53.5015" y="30.7747" width="3.7993" height="3.7993" fill="black"/>
<rect id="9,16" x="57.3008" y="30.7747" width="3.7993" height="3.7993" fill="black"/>
<rect id="9,17" x="61.1001" y="30.7747" width="3.7993" height="3.7993" fill="black"/>
<rect id="9,18" x="64.8994" y="30.7747" width="3.7993" height="3.7993" fill="black"/>
<rect id="9,20" x="72.498" y="30.7747" width="3.7993" height="3.7993" fill="black"/>
<rect id="9,21" x="76.2974" y="30.7747" width="3.7993" height="3.7993" fill="black"/>
<rect id="9,22" x="80.0967" y="30.7747" width="3.7993" height="3.7993" fill="black"/>
<rect id="9,23" x="83.896" y="30.7747" width="3.7993" height="3.7993" fill="black"/>
<rect id="9,25" x="91.4946" y="30.7747" width="3.7993" height="3.7993" fill="black"/>
<rect id="9,26" x="95.2939" y="30.7747" width="3.7993" height="3.7993" fill="black"/>
<rect id="9,29" x="106.692" y="30.7747" width="3.7993" height="3.7993" fill="black"/>
<rect id="9,30" x="110.491" y="30.7747" width="3.7993" height="3.7993" fill="black"/>
<rect id="9,31" x="114.291" y="30.7747" width="3.7993" height="3.7993" fill="black"/>
<rect id="9,33" x="121.889" y="30.7747" width="3.7993" height="3.7993" fill="black"/>
<rect id="10,1" x="0.311523" y="34.574" width="3.7993" height="3.7993" fill="black"/>
<rect id="10,2" x="4.11035" y="34.574" width="3.7993" height="3.7993" fill="black"/>
<rect id="10,8" x="26.9062" y="34.574" width="3.7993" height="3.7993" fill="black"/>
<rect id="10,9" x="30.7056" y="34.574" width="3.7993" height="3.7993" fill="black"/>
<rect id="10,10" x="34.5049" y="34.574" width="3.7993" height="3.7993" fill="black"/>
<rect id="10,14" x="49.7021" y="34.574" width="3.7993" height="3.7993" fill="black"/>
<rect id="10,17" x="61.1001" y="34.574" width="3.7993" height="3.7993" fill="black"/>
<rect id="10,18" x="64.8994" y="34.574" width="3.7993" height="3.7993" fill="black"/>
<rect id="10,20" x="72.498" y="34.574" width="3.7993" height="3.7993" fill="black"/>
<rect id="10,21" x="76.2974" y="34.574" width="3.7993" height="3.7993" fill="black"/>
<rect id="10,24" x="87.6953" y="34.574" width="3.7993" height="3.7993" fill="black"/>
<rect id="10,27" x="99.0933" y="34.574" width="3.7993" height="3.7993" fill="black"/>
<rect id="10,31" x="114.291" y="34.574" width="3.7993" height="3.7993" fill="black"/>
<rect id="10,32" x="118.089" y="34.574" width="3.7993" height="3.7993" fill="black"/>
<rect id="10,33" x="121.889" y="34.574" width="3.7993" height="3.7993" fill="black"/>
<rect id="11,3" x="7.91016" y="38.3733" width="3.7993" height="3.7993" fill="black"/>
<rect id="11,5" x="15.5088" y="38.3733" width="3.7993" height="3.7993" fill="black"/>
<rect id="11,6" x="19.3076" y="38.3733" width="3.7993" height="3.7993" fill="black"/>
<rect id="11,7" x="23.1074" y="38.3733" width="3.7993" height="3.7993" fill="black"/>
<rect id="11,14" x="49.7021" y="38.3733" width="3.7993" height="3.7993" fill="black"/>
<rect id="11,18" x="64.8994" y="38.3733" width="3.7993" height="3.7993" fill="black"/>
<rect id="11,19" x="68.6987" y="38.3733" width="3.7993" height="3.7993" fill="black"/>
<rect id="11,21" x="76.2974" y="38.3733" width="3.7993" height="3.7993" fill="black"/>
<rect id="11,22" x="80.0967" y="38.3733" width="3.7993" height="3.7993" fill="black"/>
<rect id="11,23" x="83.896" y="38.3733" width="3.7993" height="3.7993" fill="black"/>
<rect id="11,24" x="87.6953" y="38.3733" width="3.7993" height="3.7993" fill="black"/>
<rect id="11,25" x="91.4946" y="38.3733" width="3.7993" height="3.7993" fill="black"/>
<rect id="11,26" x="95.2939" y="38.3733" width="3.7993" height="3.7993" fill="black"/>
<rect id="11,28" x="102.892" y="38.3733" width="3.7993" height="3.7993" fill="black"/>
<rect id="11,29" x="106.692" y="38.3733" width="3.7993" height="3.7993" fill="black"/>
<rect id="11,31" x="114.291" y="38.3733" width="3.7993" height="3.7993" fill="black"/>
<rect id="11,32" x="118.089" y="38.3733" width="3.7993" height="3.7993" fill="black"/>
<rect id="11,33" x="121.889" y="38.3733" width="3.7993" height="3.7993" fill="black"/>
<rect id="12,4" x="11.709" y="42.1726" width="3.7993" height="3.7993" fill="black"/>
<rect id="12,6" x="19.3076" y="42.1726" width="3.7993" height="3.7993" fill="black"/>
<rect id="12,8" x="26.9062" y="42.1726" width="3.7993" height="3.7993" fill="black"/>
<rect id="12,9" x="30.7056" y="42.1726" width="3.7993" height="3.7993" fill="black"/>
<rect id="12,12" x="42.1035" y="42.1726" width="3.7993" height="3.7993" fill="black"/>
<rect id="12,13" x="45.9028" y="42.1726" width="3.7993" height="3.7993" fill="black"/>
<rect id="12,14" x="49.7021" y="42.1726" width="3.7993" height="3.7993" fill="black"/>
<rect id="12,16" x="57.3008" y="42.1726" width="3.7993" height="3.7993" fill="black"/>
<rect id="12,19" x="68.6987" y="42.1726" width="3.7993" height="3.7993" fill="black"/>
<rect id="12,20" x="72.498" y="42.1726" width="3.7993" height="3.7993" fill="black"/>
<rect id="12,21" x="76.2974" y="42.1726" width="3.7993" height="3.7993" fill="black"/>
<rect id="12,24" x="87.6953" y="42.1726" width="3.7993" height="3.7993" fill="black"/>
<rect id="12,27" x="99.0933" y="42.1726" width="3.7993" height="3.7993" fill="black"/>
<rect id="12,28" x="102.892" y="42.1726" width="3.7993" height="3.7993" fill="black"/>
<rect id="12,32" x="118.089" y="42.1726" width="3.7993" height="3.7993" fill="black"/>
<rect id="13,1" x="0.311523" y="45.9719" width="3.7993" height="3.7993" fill="black"/>
<rect id="13,2" x="4.11035" y="45.9719" width="3.7993" height="3.7993" fill="black"/>
<rect id="13,6" x="19.3076" y="45.9719" width="3.7993" height="3.7993" fill="black"/>
<rect id="13,7" x="23.1074" y="45.9719" width="3.7993" height="3.7993" fill="black"/>
<rect id="13,9" x="30.7056" y="45.9719" width="3.7993" height="3.7993" fill="black"/>
<rect id="13,10" x="34.5049" y="45.9719" width="3.7993" height="3.7993" fill="black"/>
<rect id="13,12" x="42.1035" y="45.9719" width="3.7993" height="3.7993" fill="black"/>
<rect id="13,16" x="57.3008" y="45.9719" width="3.7993" height="3.7993" fill="black"/>
<rect id="13,18" x="64.8994" y="45.9719" width="3.7993" height="3.7993" fill="black"/>
<rect id="13,20" x="72.498" y="45.9719" width="3.7993" height="3.7993" fill="black"/>
<rect id="13,23" x="83.896" y="45.9719" width="3.7993" height="3.7993" fill="black"/>
<rect id="13,26" x="95.2939" y="45.9719" width="3.7993" height="3.7993" fill="black"/>
<rect id="13,28" x="102.892" y="45.9719" width="3.7993" height="3.7993" fill="black"/>
<rect id="13,29" x="106.692" y="45.9719" width="3.7993" height="3.7993" fill="black"/>
<rect id="13,30" x="110.491" y="45.9719" width="3.7993" height="3.7993" fill="black"/>
<rect id="14,1" x="0.311523" y="49.7712" width="3.7993" height="3.7993" fill="black"/>
<rect id="14,2" x="4.11035" y="49.7712" width="3.7993" height="3.7993" fill="black"/>
<rect id="14,4" x="11.709" y="49.7712" width="3.7993" height="3.7993" fill="black"/>
<rect id="14,5" x="15.5088" y="49.7712" width="3.7993" height="3.7993" fill="black"/>
<rect id="14,6" x="19.3076" y="49.7712" width="3.7993" height="3.7993" fill="black"/>
<rect id="14,10" x="34.5049" y="49.7712" width="3.7993" height="3.7993" fill="black"/>
<rect id="14,11" x="38.3042" y="49.7712" width="3.7993" height="3.7993" fill="black"/>
<rect id="14,12" x="42.1035" y="49.7712" width="3.7993" height="3.7993" fill="black"/>
<rect id="14,14" x="49.7021" y="49.7712" width="3.7993" height="3.7993" fill="black"/>
<rect id="14,15" x="53.5015" y="49.7712" width="3.7993" height="3.7993" fill="black"/>
<rect id="14,16" x="57.3008" y="49.7712" width="3.7993" height="3.7993" fill="black"/>
<rect id="14,18" x="64.8994" y="49.7712" width="3.7993" height="3.7993" fill="black"/>
<rect id="14,20" x="72.498" y="49.7712" width="3.7993" height="3.7993" fill="black"/>
<rect id="14,25" x="91.4946" y="49.7712" width="3.7993" height="3.7993" fill="black"/>
<rect id="14,28" x="102.892" y="49.7712" width="3.7993" height="3.7993" fill="black"/>
<rect id="14,30" x="110.491" y="49.7712" width="3.7993" height="3.7993" fill="black"/>
<rect id="14,31" x="114.291" y="49.7712" width="3.7993" height="3.7993" fill="black"/>
<rect id="14,32" x="118.089" y="49.7712" width="3.7993" height="3.7993" fill="black"/>
<rect id="15,1" x="0.311523" y="53.5704" width="3.7993" height="3.7993" fill="black"/>
<rect id="15,3" x="7.91016" y="53.5704" width="3.7993" height="3.7993" fill="black"/>
<rect id="15,5" x="15.5088" y="53.5704" width="3.7993" height="3.7993" fill="black"/>
<rect id="15,6" x="19.3076" y="53.5704" width="3.7993" height="3.7993" fill="black"/>
<rect id="15,7" x="23.1074" y="53.5704" width="3.7993" height="3.7993" fill="black"/>
<rect id="15,13" x="45.9028" y="53.5704" width="3.7993" height="3.7993" fill="black"/>
<rect id="15,15" x="53.5015" y="53.5704" width="3.7993" height="3.7993" fill="black"/>
<rect id="15,18" x="64.8994" y="53.5704" width="3.7993" height="3.7993" fill="black"/>
<rect id="15,20" x="72.498" y="53.5704" width="3.7993" height="3.7993" fill="black"/>
<rect id="15,21" x="76.2974" y="53.5704" width="3.7993" height="3.7993" fill="black"/>
<rect id="15,23" x="83.896" y="53.5704" width="3.7993" height="3.7993" fill="black"/>
<rect id="15,25" x="91.4946" y="53.5704" width="3.7993" height="3.7993" fill="black"/>
<rect id="15,28" x="102.892" y="53.5704" width="3.7993" height="3.7993" fill="black"/>
<rect id="15,31" x="114.291" y="53.5704" width="3.7993" height="3.7993" fill="black"/>
<rect id="16,1" x="0.311523" y="57.3698" width="3.7993" height="3.7993" fill="black"/>
<rect id="16,2" x="4.11035" y="57.3698" width="3.7993" height="3.7993" fill="black"/>
<rect id="16,4" x="11.709" y="57.3698" width="3.7993" height="3.7993" fill="black"/>
<rect id="16,5" x="15.5088" y="57.3698" width="3.7993" height="3.7993" fill="black"/>
<rect id="16,10" x="34.5049" y="57.3698" width="3.7993" height="3.7993" fill="black"/>
<rect id="16,13" x="45.9028" y="57.3698" width="3.7993" height="3.7993" fill="black"/>
<rect id="16,14" x="49.7021" y="57.3698" width="3.7993" height="3.7993" fill="black"/>
<rect id="16,16" x="57.3008" y="57.3698" width="3.7993" height="3.7993" fill="black"/>
<rect id="16,22" x="80.0967" y="57.3698" width="3.7993" height="3.7993" fill="black"/>
<rect id="16,23" x="83.896" y="57.3698" width="3.7993" height="3.7993" fill="black"/>
<rect id="16,24" x="87.6953" y="57.3698" width="3.7993" height="3.7993" fill="black"/>
<rect id="16,26" x="95.2939" y="57.3698" width="3.7993" height="3.7993" fill="black"/>
<rect id="16,27" x="99.0933" y="57.3698" width="3.7993" height="3.7993" fill="black"/>
<rect id="16,31" x="114.291" y="57.3698" width="3.7993" height="3.7993" fill="black"/>
<rect id="17,1" x="0.311523" y="61.1691" width="3.7993" height="3.7993" fill="black"/>
<rect id="17,6" x="19.3076" y="61.1691" width="3.7993" height="3.7993" fill="black"/>
<rect id="17,7" x="23.1074" y="61.1691" width="3.7993" height="3.7993" fill="black"/>
<rect id="17,8" x="26.9062" y="61.1691" width="3.7993" height="3.7993" fill="black"/>
<rect id="17,11" x="38.3042" y="61.1691" width="3.7993" height="3.7993" fill="black"/>
<rect id="17,12" x="42.1035" y="61.1691" width="3.7993" height="3.7993" fill="black"/>
<rect id="17,19" x="68.6987" y="61.1691" width="3.7993" height="3.7993" fill="black"/>
<rect id="17,20" x="72.498" y="61.1691" width="3.7993" height="3.7993" fill="black"/>
<rect id="17,21" x="76.2974" y="61.1691" width="3.7993" height="3.7993" fill="black"/>
<rect id="17,22" x="80.0967" y="61.1691" width="3.7993" height="3.7993" fill="black"/>
<rect id="17,23" x="83.896" y="61.1691" width="3.7993" height="3.7993" fill="black"/>
<rect id="17,26" x="95.2939" y="61.1691" width="3.7993" height="3.7993" fill="black"/>
<rect id="17,27" x="99.0933" y="61.1691" width="3.7993" height="3.7993" fill="black"/>
<rect id="17,29" x="106.692" y="61.1691" width="3.7993" height="3.7993" fill="black"/>
<rect id="17,30" x="110.491" y="61.1691" width="3.7993" height="3.7993" fill="black"/>
<rect id="17,31" x="114.291" y="61.1691" width="3.7993" height="3.7993" fill="black"/>
<rect id="17,32" x="118.089" y="61.1691" width="3.7993" height="3.7993" fill="black"/>
<rect id="17,33" x="121.889" y="61.1691" width="3.7993" height="3.7993" fill="black"/>
<rect id="18,2" x="4.11035" y="64.9684" width="3.7993" height="3.7993" fill="black"/>
<rect id="18,5" x="15.5088" y="64.9684" width="3.7993" height="3.7993" fill="black"/>
<rect id="18,8" x="26.9062" y="64.9684" width="3.7993" height="3.7993" fill="black"/>
<rect id="18,10" x="34.5049" y="64.9684" width="3.7993" height="3.7993" fill="black"/>
<rect id="18,13" x="45.9028" y="64.9684" width="3.7993" height="3.7993" fill="black"/>
<rect id="18,14" x="49.7021" y="64.9684" width="3.7993" height="3.7993" fill="black"/>
<rect id="18,16" x="57.3008" y="64.9684" width="3.7993" height="3.7993" fill="black"/>
<rect id="18,18" x="64.8994" y="64.9684" width="3.7993" height="3.7993" fill="black"/>
<rect id="18,21" x="76.2974" y="64.9684" width="3.7993" height="3.7993" fill="black"/>
<rect id="18,24" x="87.6953" y="64.9684" width="3.7993" height="3.7993" fill="black"/>
<rect id="18,26" x="95.2939" y="64.9684" width="3.7993" height="3.7993" fill="black"/>
<rect id="18,27" x="99.0933" y="64.9684" width="3.7993" height="3.7993" fill="black"/>
<rect id="18,28" x="102.892" y="64.9684" width="3.7993" height="3.7993" fill="black"/>
<rect id="18,29" x="106.692" y="64.9684" width="3.7993" height="3.7993" fill="black"/>
<rect id="18,30" x="110.491" y="64.9684" width="3.7993" height="3.7993" fill="black"/>
<rect id="18,31" x="114.291" y="64.9684" width="3.7993" height="3.7993" fill="black"/>
<rect id="18,33" x="121.889" y="64.9684" width="3.7993" height="3.7993" fill="black"/>
<rect id="19,2" x="4.11035" y="68.7677" width="3.7993" height="3.7993" fill="black"/>
<rect id="19,3" x="7.91016" y="68.7677" width="3.7993" height="3.7993" fill="black"/>
<rect id="19,4" x="11.709" y="68.7677" width="3.7993" height="3.7993" fill="black"/>
<rect id="19,6" x="19.3076" y="68.7677" width="3.7993" height="3.7993" fill="black"/>
<rect id="19,7" x="23.1074" y="68.7677" width="3.7993" height="3.7993" fill="black"/>
<rect id="19,9" x="30.7056" y="68.7677" width="3.7993" height="3.7993" fill="black"/>
<rect id="19,10" x="34.5049" y="68.7677" width="3.7993" height="3.7993" fill="black"/>
<rect id="19,11" x="38.3042" y="68.7677" width="3.7993" height="3.7993" fill="black"/>
<rect id="19,12" x="42.1035" y="68.7677" width="3.7993" height="3.7993" fill="black"/>
<rect id="19,13" x="45.9028" y="68.7677" width="3.7993" height="3.7993" fill="black"/>
<rect id="19,16" x="57.3008" y="68.7677" width="3.7993" height="3.7993" fill="black"/>
<rect id="19,18" x="64.8994" y="68.7677" width="3.7993" height="3.7993" fill="black"/>
<rect id="19,21" x="76.2974" y="68.7677" width="3.7993" height="3.7993" fill="black"/>
<rect id="19,22" x="80.0967" y="68.7677" width="3.7993" height="3.7993" fill="black"/>
<rect id="19,26" x="95.2939" y="68.7677" width="3.7993" height="3.7993" fill="black"/>
<rect id="19,27" x="99.0933" y="68.7677" width="3.7993" height="3.7993" fill="black"/>
<rect id="19,28" x="102.892" y="68.7677" width="3.7993" height="3.7993" fill="black"/>
<rect id="19,29" x="106.692" y="68.7677" width="3.7993" height="3.7993" fill="black"/>
<rect id="19,30" x="110.491" y="68.7677" width="3.7993" height="3.7993" fill="black"/>
<rect id="19,32" x="118.089" y="68.7677" width="3.7993" height="3.7993" fill="black"/>
<rect id="20,2" x="4.11035" y="72.567" width="3.7993" height="3.7993" fill="black"/>
<rect id="20,5" x="15.5088" y="72.567" width="3.7993" height="3.7993" fill="black"/>
<rect id="20,8" x="26.9062" y="72.567" width="3.7993" height="3.7993" fill="black"/>
<rect id="20,9" x="30.7056" y="72.567" width="3.7993" height="3.7993" fill="black"/>
<rect id="20,13" x="45.9028" y="72.567" width="3.7993" height="3.7993" fill="black"/>
<rect id="20,16" x="57.3008" y="72.567" width="3.7993" height="3.7993" fill="black"/>
<rect id="20,18" x="64.8994" y="72.567" width="3.7993" height="3.7993" fill="black"/>
<rect id="20,19" x="68.6987" y="72.567" width="3.7993" height="3.7993" fill="black"/>
<rect id="20,21" x="76.2974" y="72.567" width="3.7993" height="3.7993" fill="black"/>
<rect id="20,24" x="87.6953" y="72.567" width="3.7993" height="3.7993" fill="black"/>
<rect id="20,25" x="91.4946" y="72.567" width="3.7993" height="3.7993" fill="black"/>
<rect id="20,27" x="99.0933" y="72.567" width="3.7993" height="3.7993" fill="black"/>
<rect id="20,28" x="102.892" y="72.567" width="3.7993" height="3.7993" fill="black"/>
<rect id="20,29" x="106.692" y="72.567" width="3.7993" height="3.7993" fill="black"/>
<rect id="20,30" x="110.491" y="72.567" width="3.7993" height="3.7993" fill="black"/>
<rect id="20,33" x="121.889" y="72.567" width="3.7993" height="3.7993" fill="black"/>
<rect id="21,3" x="7.91016" y="76.3663" width="3.7993" height="3.7993" fill="black"/>
<rect id="21,4" x="11.709" y="76.3663" width="3.7993" height="3.7993" fill="black"/>
<rect id="21,5" x="15.5088" y="76.3663" width="3.7993" height="3.7993" fill="black"/>
<rect id="21,7" x="23.1074" y="76.3663" width="3.7993" height="3.7993" fill="black"/>
<rect id="21,8" x="26.9062" y="76.3663" width="3.7993" height="3.7993" fill="black"/>
<rect id="21,9" x="30.7056" y="76.3663" width="3.7993" height="3.7993" fill="black"/>
<rect id="21,10" x="34.5049" y="76.3663" width="3.7993" height="3.7993" fill="black"/>
<rect id="21,12" x="42.1035" y="76.3663" width="3.7993" height="3.7993" fill="black"/>
<rect id="21,13" x="45.9028" y="76.3663" width="3.7993" height="3.7993" fill="black"/>
<rect id="21,14" x="49.7021" y="76.3663" width="3.7993" height="3.7993" fill="black"/>
<rect id="21,18" x="64.8994" y="76.3663" width="3.7993" height="3.7993" fill="black"/>
<rect id="21,19" x="68.6987" y="76.3663" width="3.7993" height="3.7993" fill="black"/>
<rect id="21,20" x="72.498" y="76.3663" width="3.7993" height="3.7993" fill="black"/>
<rect id="21,22" x="80.0967" y="76.3663" width="3.7993" height="3.7993" fill="black"/>
<rect id="21,24" x="87.6953" y="76.3663" width="3.7993" height="3.7993" fill="black"/>
<rect id="21,31" x="114.291" y="76.3663" width="3.7993" height="3.7993" fill="black"/>
<rect id="22,1" x="0.311523" y="80.1656" width="3.7993" height="3.7993" fill="black"/>
<rect id="22,2" x="4.11035" y="80.1656" width="3.7993" height="3.7993" fill="black"/>
<rect id="22,8" x="26.9062" y="80.1656" width="3.7993" height="3.7993" fill="black"/>
<rect id="22,9" x="30.7056" y="80.1656" width="3.7993" height="3.7993" fill="black"/>
<rect id="22,10" x="34.5049" y="80.1656" width="3.7993" height="3.7993" fill="black"/>
<rect id="22,13" x="45.9028" y="80.1656" width="3.7993" height="3.7993" fill="black"/>
<rect id="22,14" x="49.7021" y="80.1656" width="3.7993" height="3.7993" fill="black"/>
<rect id="22,15" x="53.5015" y="80.1656" width="3.7993" height="3.7993" fill="black"/>
<rect id="22,17" x="61.1001" y="80.1656" width="3.7993" height="3.7993" fill="black"/>
<rect id="22,18" x="64.8994" y="80.1656" width="3.7993" height="3.7993" fill="black"/>
<rect id="22,19" x="68.6987" y="80.1656" width="3.7993" height="3.7993" fill="black"/>
<rect id="22,20" x="72.498" y="80.1656" width="3.7993" height="3.7993" fill="black"/>
<rect id="22,21" x="76.2974" y="80.1656" width="3.7993" height="3.7993" fill="black"/>
<rect id="22,22" x="80.0967" y="80.1656" width="3.7993" height="3.7993" fill="black"/>
<rect id="22,23" x="83.896" y="80.1656" width="3.7993" height="3.7993" fill="black"/>
<rect id="22,24" x="87.6953" y="80.1656" width="3.7993" height="3.7993" fill="black"/>
<rect id="22,27" x="99.0933" y="80.1656" width="3.7993" height="3.7993" fill="black"/>
<rect id="22,28" x="102.892" y="80.1656" width="3.7993" height="3.7993" fill="black"/>
<rect id="22,30" x="110.491" y="80.1656" width="3.7993" height="3.7993" fill="black"/>
<rect id="22,32" x="118.089" y="80.1656" width="3.7993" height="3.7993" fill="black"/>
<rect id="22,33" x="121.889" y="80.1656" width="3.7993" height="3.7993" fill="black"/>
<rect id="23,3" x="7.91016" y="83.9649" width="3.7993" height="3.7993" fill="black"/>
<rect id="23,5" x="15.5088" y="83.9649" width="3.7993" height="3.7993" fill="black"/>
<rect id="23,7" x="23.1074" y="83.9649" width="3.7993" height="3.7993" fill="black"/>
<rect id="23,8" x="26.9062" y="83.9649" width="3.7993" height="3.7993" fill="black"/>
<rect id="23,10" x="34.5049" y="83.9649" width="3.7993" height="3.7993" fill="black"/>
<rect id="23,12" x="42.1035" y="83.9649" width="3.7993" height="3.7993" fill="black"/>
<rect id="23,13" x="45.9028" y="83.9649" width="3.7993" height="3.7993" fill="black"/>
<rect id="23,14" x="49.7021" y="83.9649" width="3.7993" height="3.7993" fill="black"/>
<rect id="23,17" x="61.1001" y="83.9649" width="3.7993" height="3.7993" fill="black"/>
<rect id="23,18" x="64.8994" y="83.9649" width="3.7993" height="3.7993" fill="black"/>
<rect id="23,19" x="68.6987" y="83.9649" width="3.7993" height="3.7993" fill="black"/>
<rect id="23,21" x="76.2974" y="83.9649" width="3.7993" height="3.7993" fill="black"/>
<rect id="23,24" x="87.6953" y="83.9649" width="3.7993" height="3.7993" fill="black"/>
<rect id="23,25" x="91.4946" y="83.9649" width="3.7993" height="3.7993" fill="black"/>
<rect id="23,26" x="95.2939" y="83.9649" width="3.7993" height="3.7993" fill="black"/>
<rect id="23,27" x="99.0933" y="83.9649" width="3.7993" height="3.7993" fill="black"/>
<rect id="23,28" x="102.892" y="83.9649" width="3.7993" height="3.7993" fill="black"/>
<rect id="23,31" x="114.291" y="83.9649" width="3.7993" height="3.7993" fill="black"/>
<rect id="23,32" x="118.089" y="83.9649" width="3.7993" height="3.7993" fill="black"/>
<rect id="23,33" x="121.889" y="83.9649" width="3.7993" height="3.7993" fill="black"/>
<rect id="24,2" x="4.11035" y="87.7642" width="3.7993" height="3.7993" fill="black"/>
<rect id="24,6" x="19.3076" y="87.7642" width="3.7993" height="3.7993" fill="black"/>
<rect id="24,8" x="26.9062" y="87.7642" width="3.7993" height="3.7993" fill="black"/>
<rect id="24,10" x="34.5049" y="87.7642" width="3.7993" height="3.7993" fill="black"/>
<rect id="24,11" x="38.3042" y="87.7642" width="3.7993" height="3.7993" fill="black"/>
<rect id="24,16" x="57.3008" y="87.7642" width="3.7993" height="3.7993" fill="black"/>
<rect id="24,19" x="68.6987" y="87.7642" width="3.7993" height="3.7993" fill="black"/>
<rect id="24,20" x="72.498" y="87.7642" width="3.7993" height="3.7993" fill="black"/>
<rect id="24,21" x="76.2974" y="87.7642" width="3.7993" height="3.7993" fill="black"/>
<rect id="24,23" x="83.896" y="87.7642" width="3.7993" height="3.7993" fill="black"/>
<rect id="24,24" x="87.6953" y="87.7642" width="3.7993" height="3.7993" fill="black"/>
<rect id="24,25" x="91.4946" y="87.7642" width="3.7993" height="3.7993" fill="black"/>
<rect id="24,30" x="110.491" y="87.7642" width="3.7993" height="3.7993" fill="black"/>
<rect id="24,32" x="118.089" y="87.7642" width="3.7993" height="3.7993" fill="black"/>
<rect id="25,1" x="0.311523" y="91.5635" width="3.7993" height="3.7993" fill="black"/>
<rect id="25,3" x="7.91016" y="91.5635" width="3.7993" height="3.7993" fill="black"/>
<rect id="25,5" x="15.5088" y="91.5635" width="3.7993" height="3.7993" fill="black"/>
<rect id="25,7" x="23.1074" y="91.5635" width="3.7993" height="3.7993" fill="black"/>
<rect id="25,8" x="26.9062" y="91.5635" width="3.7993" height="3.7993" fill="black"/>
<rect id="25,9" x="30.7056" y="91.5635" width="3.7993" height="3.7993" fill="black"/>
<rect id="25,10" x="34.5049" y="91.5635" width="3.7993" height="3.7993" fill="black"/>
<rect id="25,11" x="38.3042" y="91.5635" width="3.7993" height="3.7993" fill="black"/>
<rect id="25,13" x="45.9028" y="91.5635" width="3.7993" height="3.7993" fill="black"/>
<rect id="25,15" x="53.5015" y="91.5635" width="3.7993" height="3.7993" fill="black"/>
<rect id="25,18" x="64.8994" y="91.5635" width="3.7993" height="3.7993" fill="black"/>
<rect id="25,19" x="68.6987" y="91.5635" width="3.7993" height="3.7993" fill="black"/>
<rect id="25,21" x="76.2974" y="91.5635" width="3.7993" height="3.7993" fill="black"/>
<rect id="25,23" x="83.896" y="91.5635" width="3.7993" height="3.7993" fill="black"/>
<rect id="25,24" x="87.6953" y="91.5635" width="3.7993" height="3.7993" fill="black"/>
<rect id="25,25" x="91.4946" y="91.5635" width="3.7993" height="3.7993" fill="black"/>
<rect id="25,26" x="95.2939" y="91.5635" width="3.7993" height="3.7993" fill="black"/>
<rect id="25,27" x="99.0933" y="91.5635" width="3.7993" height="3.7993" fill="black"/>
<rect id="25,28" x="102.892" y="91.5635" width="3.7993" height="3.7993" fill="black"/>
<rect id="25,29" x="106.692" y="91.5635" width="3.7993" height="3.7993" fill="black"/>
<rect id="25,30" x="110.491" y="91.5635" width="3.7993" height="3.7993" fill="black"/>
<rect id="25,33" x="121.889" y="91.5635" width="3.7993" height="3.7993" fill="black"/>
<rect id="26,9" x="30.7056" y="95.3628" width="3.7993" height="3.7993" fill="black"/>
<rect id="26,12" x="42.1035" y="95.3628" width="3.7993" height="3.7993" fill="black"/>
<rect id="26,13" x="45.9028" y="95.3628" width="3.7993" height="3.7993" fill="black"/>
<rect id="26,15" x="53.5015" y="95.3628" width="3.7993" height="3.7993" fill="black"/>
<rect id="26,16" x="57.3008" y="95.3628" width="3.7993" height="3.7993" fill="black"/>
<rect id="26,17" x="61.1001" y="95.3628" width="3.7993" height="3.7993" fill="black"/>
<rect id="26,20" x="72.498" y="95.3628" width="3.7993" height="3.7993" fill="black"/>
<rect id="26,23" x="83.896" y="95.3628" width="3.7993" height="3.7993" fill="black"/>
<rect id="26,24" x="87.6953" y="95.3628" width="3.7993" height="3.7993" fill="black"/>
<rect id="26,25" x="91.4946" y="95.3628" width="3.7993" height="3.7993" fill="black"/>
<rect id="26,29" x="106.692" y="95.3628" width="3.7993" height="3.7993" fill="black"/>
<rect id="26,30" x="110.491" y="95.3628" width="3.7993" height="3.7993" fill="black"/>
<rect id="27,1" x="0.311523" y="99.162" width="3.7993" height="3.7993" fill="black"/>
<rect id="27,2" x="4.11035" y="99.162" width="3.7993" height="3.7993" fill="black"/>
<rect id="27,3" x="7.91016" y="99.162" width="3.7993" height="3.7993" fill="black"/>
<rect id="27,4" x="11.709" y="99.162" width="3.7993" height="3.7993" fill="black"/>
<rect id="27,5" x="15.5088" y="99.162" width="3.7993" height="3.7993" fill="black"/>
<rect id="27,6" x="19.3076" y="99.162" width="3.7993" height="3.7993" fill="black"/>
<rect id="27,7" x="23.1074" y="99.162" width="3.7993" height="3.7993" fill="black"/>
<rect id="27,10" x="34.5049" y="99.162" width="3.7993" height="3.7993" fill="black"/>
<rect id="27,12" x="42.1035" y="99.162" width="3.7993" height="3.7993" fill="black"/>
<rect id="27,14" x="49.7021" y="99.162" width="3.7993" height="3.7993" fill="black"/>
<rect id="27,18" x="64.8994" y="99.162" width="3.7993" height="3.7993" fill="black"/>
<rect id="27,19" x="68.6987" y="99.162" width="3.7993" height="3.7993" fill="black"/>
<rect id="27,20" x="72.498" y="99.162" width="3.7993" height="3.7993" fill="black"/>
<rect id="27,21" x="76.2974" y="99.162" width="3.7993" height="3.7993" fill="black"/>
<rect id="27,22" x="80.0967" y="99.162" width="3.7993" height="3.7993" fill="black"/>
<rect id="27,23" x="83.896" y="99.162" width="3.7993" height="3.7993" fill="black"/>
<rect id="27,24" x="87.6953" y="99.162" width="3.7993" height="3.7993" fill="black"/>
<rect id="27,25" x="91.4946" y="99.162" width="3.7993" height="3.7993" fill="black"/>
<rect id="27,27" x="99.0933" y="99.162" width="3.7993" height="3.7993" fill="black"/>
<rect id="27,29" x="106.692" y="99.162" width="3.7993" height="3.7993" fill="black"/>
<rect id="28,1" x="0.311523" y="102.961" width="3.7993" height="3.7993" fill="black"/>
<rect id="28,7" x="23.1074" y="102.961" width="3.7993" height="3.7993" fill="black"/>
<rect id="28,10" x="34.5049" y="102.961" width="3.7993" height="3.7993" fill="black"/>
<rect id="28,12" x="42.1035" y="102.961" width="3.7993" height="3.7993" fill="black"/>
<rect id="28,15" x="53.5015" y="102.961" width="3.7993" height="3.7993" fill="black"/>
<rect id="28,17" x="61.1001" y="102.961" width="3.7993" height="3.7993" fill="black"/>
<rect id="28,19" x="68.6987" y="102.961" width="3.7993" height="3.7993" fill="black"/>
<rect id="28,21" x="76.2974" y="102.961" width="3.7993" height="3.7993" fill="black"/>
<rect id="28,22" x="80.0967" y="102.961" width="3.7993" height="3.7993" fill="black"/>
<rect id="28,23" x="83.896" y="102.961" width="3.7993" height="3.7993" fill="black"/>
<rect id="28,24" x="87.6953" y="102.961" width="3.7993" height="3.7993" fill="black"/>
<rect id="28,25" x="91.4946" y="102.961" width="3.7993" height="3.7993" fill="black"/>
<rect id="28,29" x="106.692" y="102.961" width="3.7993" height="3.7993" fill="black"/>
<rect id="28,30" x="110.491" y="102.961" width="3.7993" height="3.7993" fill="black"/>
<rect id="28,31" x="114.291" y="102.961" width="3.7993" height="3.7993" fill="black"/>
<rect id="28,33" x="121.889" y="102.961" width="3.7993" height="3.7993" fill="black"/>
<rect id="29,1" x="0.311523" y="106.761" width="3.7993" height="3.7993" fill="black"/>
<rect id="29,3" x="7.91016" y="106.761" width="3.7993" height="3.7993" fill="black"/>
<rect id="29,4" x="11.709" y="106.761" width="3.7993" height="3.7993" fill="black"/>
<rect id="29,5" x="15.5088" y="106.761" width="3.7993" height="3.7993" fill="black"/>
<rect id="29,7" x="23.1074" y="106.761" width="3.7993" height="3.7993" fill="black"/>
<rect id="29,10" x="34.5049" y="106.761" width="3.7993" height="3.7993" fill="black"/>
<rect id="29,11" x="38.3042" y="106.761" width="3.7993" height="3.7993" fill="black"/>
<rect id="29,13" x="45.9028" y="106.761" width="3.7993" height="3.7993" fill="black"/>
<rect id="29,15" x="53.5015" y="106.761" width="3.7993" height="3.7993" fill="black"/>
<rect id="29,16" x="57.3008" y="106.761" width="3.7993" height="3.7993" fill="black"/>
<rect id="29,19" x="68.6987" y="106.761" width="3.7993" height="3.7993" fill="black"/>
<rect id="29,21" x="76.2974" y="106.761" width="3.7993" height="3.7993" fill="black"/>
<rect id="29,22" x="80.0967" y="106.761" width="3.7993" height="3.7993" fill="black"/>
<rect id="29,24" x="87.6953" y="106.761" width="3.7993" height="3.7993" fill="black"/>
<rect id="29,25" x="91.4946" y="106.761" width="3.7993" height="3.7993" fill="black"/>
<rect id="29,26" x="95.2939" y="106.761" width="3.7993" height="3.7993" fill="black"/>
<rect id="29,27" x="99.0933" y="106.761" width="3.7993" height="3.7993" fill="black"/>
<rect id="29,28" x="102.892" y="106.761" width="3.7993" height="3.7993" fill="black"/>
<rect id="29,29" x="106.692" y="106.761" width="3.7993" height="3.7993" fill="black"/>
<rect id="29,30" x="110.491" y="106.761" width="3.7993" height="3.7993" fill="black"/>
<rect id="29,31" x="114.291" y="106.761" width="3.7993" height="3.7993" fill="black"/>
<rect id="29,32" x="118.089" y="106.761" width="3.7993" height="3.7993" fill="black"/>
<rect id="30,1" x="0.311523" y="110.56" width="3.7993" height="3.7993" fill="black"/>
<rect id="30,3" x="7.91016" y="110.56" width="3.7993" height="3.7993" fill="black"/>
<rect id="30,4" x="11.709" y="110.56" width="3.7993" height="3.7993" fill="black"/>
<rect id="30,5" x="15.5088" y="110.56" width="3.7993" height="3.7993" fill="black"/>
<rect id="30,7" x="23.1074" y="110.56" width="3.7993" height="3.7993" fill="black"/>
<rect id="30,9" x="30.7056" y="110.56" width="3.7993" height="3.7993" fill="black"/>
<rect id="30,10" x="34.5049" y="110.56" width="3.7993" height="3.7993" fill="black"/>
<rect id="30,15" x="53.5015" y="110.56" width="3.7993" height="3.7993" fill="black"/>
<rect id="30,16" x="57.3008" y="110.56" width="3.7993" height="3.7993" fill="black"/>
<rect id="30,18" x="64.8994" y="110.56" width="3.7993" height="3.7993" fill="black"/>
<rect id="30,21" x="76.2974" y="110.56" width="3.7993" height="3.7993" fill="black"/>
<rect id="30,22" x="80.0967" y="110.56" width="3.7993" height="3.7993" fill="black"/>
<rect id="30,23" x="83.896" y="110.56" width="3.7993" height="3.7993" fill="black"/>
<rect id="30,24" x="87.6953" y="110.56" width="3.7993" height="3.7993" fill="black"/>
<rect id="30,25" x="91.4946" y="110.56" width="3.7993" height="3.7993" fill="black"/>
<rect id="30,26" x="95.2939" y="110.56" width="3.7993" height="3.7993" fill="black"/>
<rect id="30,28" x="102.892" y="110.56" width="3.7993" height="3.7993" fill="black"/>
<rect id="30,30" x="110.491" y="110.56" width="3.7993" height="3.7993" fill="black"/>
<rect id="30,31" x="114.291" y="110.56" width="3.7993" height="3.7993" fill="black"/>
<rect id="30,33" x="121.889" y="110.56" width="3.7993" height="3.7993" fill="black"/>
<rect id="31,1" x="0.311523" y="114.359" width="3.7993" height="3.7993" fill="black"/>
<rect id="31,3" x="7.91016" y="114.359" width="3.7993" height="3.7993" fill="black"/>
<rect id="31,4" x="11.709" y="114.359" width="3.7993" height="3.7993" fill="black"/>
<rect id="31,5" x="15.5088" y="114.359" width="3.7993" height="3.7993" fill="black"/>
<rect id="31,7" x="23.1074" y="114.359" width="3.7993" height="3.7993" fill="black"/>
<rect id="31,9" x="30.7056" y="114.359" width="3.7993" height="3.7993" fill="black"/>
<rect id="31,10" x="34.5049" y="114.359" width="3.7993" height="3.7993" fill="black"/>
<rect id="31,11" x="38.3042" y="114.359" width="3.7993" height="3.7993" fill="black"/>
<rect id="31,14" x="49.7021" y="114.359" width="3.7993" height="3.7993" fill="black"/>
<rect id="31,15" x="53.5015" y="114.359" width="3.7993" height="3.7993" fill="black"/>
<rect id="31,16" x="57.3008" y="114.359" width="3.7993" height="3.7993" fill="black"/>
<rect id="31,17" x="61.1001" y="114.359" width="3.7993" height="3.7993" fill="black"/>
<rect id="31,18" x="64.8994" y="114.359" width="3.7993" height="3.7993" fill="black"/>
<rect id="31,23" x="83.896" y="114.359" width="3.7993" height="3.7993" fill="black"/>
<rect id="31,25" x="91.4946" y="114.359" width="3.7993" height="3.7993" fill="black"/>
<rect id="31,27" x="99.0933" y="114.359" width="3.7993" height="3.7993" fill="black"/>
<rect id="31,31" x="114.291" y="114.359" width="3.7993" height="3.7993" fill="black"/>
<rect id="32,1" x="0.311523" y="118.159" width="3.7993" height="3.7993" fill="black"/>
<rect id="32,7" x="23.1074" y="118.159" width="3.7993" height="3.7993" fill="black"/>
<rect id="32,9" x="30.7056" y="118.159" width="3.7993" height="3.7993" fill="black"/>
<rect id="32,10" x="34.5049" y="118.159" width="3.7993" height="3.7993" fill="black"/>
<rect id="32,11" x="38.3042" y="118.159" width="3.7993" height="3.7993" fill="black"/>
<rect id="32,12" x="42.1035" y="118.159" width="3.7993" height="3.7993" fill="black"/>
<rect id="32,14" x="49.7021" y="118.159" width="3.7993" height="3.7993" fill="black"/>
<rect id="32,15" x="53.5015" y="118.159" width="3.7993" height="3.7993" fill="black"/>
<rect id="32,16" x="57.3008" y="118.159" width="3.7993" height="3.7993" fill="black"/>
<rect id="32,18" x="64.8994" y="118.159" width="3.7993" height="3.7993" fill="black"/>
<rect id="32,19" x="68.6987" y="118.159" width="3.7993" height="3.7993" fill="black"/>
<rect id="32,23" x="83.896" y="118.159" width="3.7993" height="3.7993" fill="black"/>
<rect id="32,24" x="87.6953" y="118.159" width="3.7993" height="3.7993" fill="black"/>
<rect id="32,25" x="91.4946" y="118.159" width="3.7993" height="3.7993" fill="black"/>
<rect id="32,26" x="95.2939" y="118.159" width="3.7993" height="3.7993" fill="black"/>
<rect id="32,28" x="102.892" y="118.159" width="3.7993" height="3.7993" fill="black"/>
<rect id="32,33" x="121.889" y="118.159" width="3.7993" height="3.7993" fill="black"/>
<rect id="33,1" x="0.311523" y="121.958" width="3.7993" height="3.7993" fill="black"/>
<rect id="33,2" x="4.11035" y="121.958" width="3.7993" height="3.7993" fill="black"/>
<rect id="33,3" x="7.91016" y="121.958" width="3.7993" height="3.7993" fill="black"/>
<rect id="33,4" x="11.709" y="121.958" width="3.7993" height="3.7993" fill="black"/>
<rect id="33,5" x="15.5088" y="121.958" width="3.7993" height="3.7993" fill="black"/>
<rect id="33,6" x="19.3076" y="121.958" width="3.7993" height="3.7993" fill="black"/>
<rect id="33,7" x="23.1074" y="121.958" width="3.7993" height="3.7993" fill="black"/>
<rect id="33,9" x="30.7056" y="121.958" width="3.7993" height="3.7993" fill="black"/>
<rect id="33,11" x="38.3042" y="121.958" width="3.7993" height="3.7993" fill="black"/>
<rect id="33,14" x="49.7021" y="121.958" width="3.7993" height="3.7993" fill="black"/>
<rect id="33,15" x="53.5015" y="121.958" width="3.7993" height="3.7993" fill="black"/>
<rect id="33,16" x="57.3008" y="121.958" width="3.7993" height="3.7993" fill="black"/>
<rect id="33,17" x="61.1001" y="121.958" width="3.7993" height="3.7993" fill="black"/>
<rect id="33,18" x="64.8994" y="121.958" width="3.7993" height="3.7993" fill="black"/>
<rect id="33,19" x="68.6987" y="121.958" width="3.7993" height="3.7993" fill="black"/>
<rect id="33,20" x="72.498" y="121.958" width="3.7993" height="3.7993" fill="black"/>
<rect id="33,22" x="80.0967" y="121.958" width="3.7993" height="3.7993" fill="black"/>
<rect id="33,24" x="87.6953" y="121.958" width="3.7993" height="3.7993" fill="black"/>
<rect id="33,26" x="95.2939" y="121.958" width="3.7993" height="3.7993" fill="black"/>
<rect id="33,27" x="99.0933" y="121.958" width="3.7993" height="3.7993" fill="black"/>
<rect id="33,29" x="106.692" y="121.958" width="3.7993" height="3.7993" fill="black"/>
<rect id="33,31" x="114.291" y="121.958" width="3.7993" height="3.7993" fill="black"/>
</g>
</svg>
