<svg width="36" height="36" viewBox="0 0 36 36" fill="none" xmlns="http://www.w3.org/2000/svg">
<rect x="35.5" y="0.5" width="35" height="35" rx="17.5" transform="rotate(90 35.5 0.5)" stroke="#D1D5DB"/>
<path fill-rule="evenodd" clip-rule="evenodd" d="M17.9991 19.3872L22.5347 14.7571C22.8709 14.4144 23.413 14.4144 23.7491 14.7571C23.9097 14.9204 24 15.1432 24 15.3755C24 15.6078 23.9097 15.8305 23.7491 15.9938L18.6072 21.2422C18.2714 21.586 17.7286 21.586 17.3928 21.2422L12.2509 15.994C12.0903 15.8305 12 15.6078 12 15.3755C12 15.1432 12.0903 14.9204 12.2509 14.7569C12.5871 14.4144 13.1292 14.4144 13.4653 14.7573L17.9991 19.3872Z" fill="#111827"/>
</svg>
