<svg width="28" height="28" viewBox="0 0 28 28" fill="none" xmlns="http://www.w3.org/2000/svg">
<rect x="0.101562" y="0.337891" width="27.0012" height="27.0012" rx="13.5006" fill="#2947F2"/>
<path d="M18.6145 8.72497C18.8523 8.49865 19.1686 8.37353 19.4968 8.37601C19.8251 8.3785 20.1395 8.50839 20.3738 8.73828C20.608 8.96818 20.7438 9.28009 20.7525 9.6082C20.7612 9.93632 20.642 10.255 20.4202 10.4969L13.6868 18.9179C13.571 19.0426 13.4313 19.1427 13.276 19.2122C13.1206 19.2816 12.9529 19.3191 12.7827 19.3222C12.6126 19.3254 12.4435 19.2942 12.2857 19.2305C12.1279 19.1668 11.9846 19.072 11.8643 18.9517L7.39893 14.4863C7.27458 14.3705 7.17484 14.2307 7.10566 14.0755C7.03649 13.9202 6.99929 13.7526 6.99629 13.5827C6.99329 13.4127 7.02455 13.2439 7.08821 13.0863C7.15187 12.9287 7.24662 12.7856 7.3668 12.6654C7.48699 12.5452 7.63015 12.4505 7.78775 12.3868C7.94535 12.3231 8.11416 12.2919 8.2841 12.2949C8.45405 12.2979 8.62164 12.3351 8.7769 12.4043C8.93216 12.4734 9.07189 12.5732 9.18776 12.6975L12.7215 16.2296L18.5825 8.7621C18.593 8.74911 18.6043 8.73671 18.6162 8.72497H18.6145Z" fill="white"/>
</svg>
