<svg width="51" height="51" viewBox="0 0 51 51" fill="none" xmlns="http://www.w3.org/2000/svg">
<path d="M22.5345 38.5827C22.5345 38.5827 28.8882 39.1919 29.4975 39.366C30.2808 39.6271 31.2382 38.6697 31.4123 37.6253C30.5419 37.016 28.6271 36.2327 26.103 35.1012C23.579 33.8827 21.5771 33.2734 19.9234 33.2734C18.6179 33.2734 17.4864 33.5345 16.7031 33.8827C15.6586 34.3179 5.64941 38.5827 5.64941 38.5827L9.39199 46.1549L15.9197 42.0641C15.9197 42.0641 24.3623 44.6752 26.016 45.3715C26.9734 45.7197 27.7567 45.9808 28.6271 45.9808C29.4104 45.9808 30.2808 45.8067 31.4123 45.3715C34.0234 44.3271 47.0789 36.8419 47.0789 36.8419C47.0789 36.8419 46.3826 35.0142 44.2067 35.0142C43.9456 35.0142 43.6844 35.0142 43.4233 35.1012C40.8993 35.5364 34.6326 38.8438 33.153 39.366" stroke="#2947F2" stroke-width="2" stroke-miterlimit="10" stroke-linecap="round" stroke-linejoin="round"/>
<path d="M28.6285 26.7452C34.2045 26.7452 38.7247 22.225 38.7247 16.649C38.7247 11.073 34.2045 6.55273 28.6285 6.55273C23.0525 6.55273 18.5322 11.073 18.5322 16.649C18.5322 22.225 23.0525 26.7452 28.6285 26.7452Z" stroke="#2947F2" stroke-width="2" stroke-miterlimit="10" stroke-linecap="round" stroke-linejoin="round"/>
<path d="M32.1966 13.6897C32.1966 13.6897 31.8484 12.123 28.6281 12.123C26.104 12.123 25.0596 13.5156 25.0596 14.6471C25.0596 15.8656 26.5392 16.736 28.6281 16.736C31.4132 16.736 32.1966 17.6934 32.1966 18.8249C32.1966 20.3915 30.4558 21.3489 28.6281 21.3489C26.8003 21.3489 25.3207 20.3045 25.0596 19.7823" stroke="#FF6805" stroke-width="2" stroke-miterlimit="10" stroke-linecap="round" stroke-linejoin="round"/>
<path d="M28.6279 10.3828V22.9161" stroke="#FF6805" stroke-width="2" stroke-miterlimit="10" stroke-linecap="round" stroke-linejoin="round"/>
</svg>
