<svg width="51" height="51" viewBox="0 0 51 51" fill="none" xmlns="http://www.w3.org/2000/svg">
<path d="M40.7932 24.8863C40.8016 25.0998 40.8057 25.315 40.8057 25.5308C40.8057 34.2416 33.7435 41.3032 25.0327 41.3032C16.322 41.3032 9.25977 34.2416 9.25977 25.5308C9.25977 16.8194 16.322 9.75781 25.0327 9.75781C29.5522 9.75781 33.6276 11.6585 36.5039 14.7041" stroke="#2947F2" stroke-width="2" stroke-linecap="round" stroke-linejoin="round"/>
<path d="M38.7028 18.5579L44.0207 16.432C44.0207 16.432 46.6853 15.2964 48.0266 16.6192C48.0266 16.6192 49.1924 18.1257 47.1104 19.0817L31.2352 25.4323C31.2352 25.4323 28.3916 26.5161 26.9797 25.2652L22.9863 21.6886C22.9863 21.6886 24.0648 20.9633 25.6985 21.4526L27.6657 22.0917C27.6657 22.0917 28.8898 22.5049 30.3779 21.842L32.8719 20.7737L27.636 16.363C27.636 16.363 29.5973 15.5687 31.8196 16.4682C31.8208 16.4682 37.3664 18.7315 38.7028 18.5579Z" stroke="#FF6805" stroke-width="2" stroke-linecap="round" stroke-linejoin="round"/>
<path d="M5.20517 27.0352C5.20517 27.0352 -5.16906 38.2286 22.9626 27.4032" stroke="#FF6805" stroke-width="2" stroke-linecap="round" stroke-linejoin="round"/>
</svg>
