<svg width="46" height="45" viewBox="0 0 46 45" fill="none" xmlns="http://www.w3.org/2000/svg">
<path d="M45.254 14.8749C45.254 22.1507 39.8977 28.1542 32.9344 29.2032V29.0693C32.2425 20.4098 25.2123 13.3796 16.4859 12.6878H16.4189C17.4679 5.72451 23.4715 0.368164 30.7472 0.368164C38.7594 0.368164 45.254 6.86274 45.254 14.8749Z" fill="#D0D5DD"/>
<path d="M29.5861 29.3371C29.0282 22.2622 23.3594 16.5934 16.2845 16.0355C15.9051 16.0132 15.5034 15.9908 15.124 15.9908C7.11176 15.9908 0.617188 22.4854 0.617188 30.4976C0.617188 38.5098 7.11176 45.0044 15.124 45.0044C23.1362 45.0044 29.6308 38.5098 29.6308 30.4976C29.6308 30.1182 29.6084 29.7165 29.5861 29.3371ZM17.088 32.4616L15.124 36.0772L13.16 32.4616L9.54444 30.4976L13.16 28.5336L15.124 24.9181L17.088 28.5336L20.7035 30.4976L17.088 32.4616Z" fill="#D0D5DD"/>
</svg>
