<svg width="25" height="25" viewBox="0 0 25 25" fill="none" xmlns="http://www.w3.org/2000/svg">
<path d="M3.29289 1.29286C3.68342 0.902399 4.31645 0.902359 4.70696 1.29286L6.91399 3.49989H10.4999C11.2956 3.49989 12.0584 3.8162 12.621 4.3788C13.1836 4.9414 13.4999 5.70425 13.4999 6.49989V17.9999C13.4999 18.2651 13.6054 18.5194 13.7929 18.7069C13.9804 18.8945 14.2347 18.9999 14.4999 18.9999H18.1757C18.3236 18.5826 18.5598 18.1979 18.8788 17.8788C19.4414 17.3162 20.2043 16.9999 20.9999 16.9999L21.2968 17.0145C21.9834 17.0828 22.6288 17.3866 23.121 17.8788C23.6836 18.4414 23.9999 19.2042 23.9999 19.9999L23.9853 20.2968C23.917 20.9834 23.6132 21.6288 23.121 22.121C22.6288 22.6132 21.9834 22.917 21.2968 22.9852L20.9999 22.9999C20.2043 22.9999 19.4414 22.6836 18.8788 22.121C18.5596 21.8018 18.3216 21.4174 18.1738 20.9999H14.4999C13.7043 20.9999 12.9414 20.6836 12.3788 20.121C11.8162 19.5584 11.4999 18.7955 11.4999 17.9999V6.49989C11.4999 6.23469 11.3945 5.98039 11.207 5.79286C11.0428 5.62873 10.8275 5.52747 10.5986 5.50478L10.4999 5.49989H6.91399L4.70696 7.70693C4.31648 8.0974 3.68343 8.09731 3.29289 7.70693C2.90237 7.3164 2.90237 6.68339 3.29289 6.29286L5.08586 4.49989L3.29289 2.70693C2.90237 2.3164 2.90237 1.68339 3.29289 1.29286Z" fill="black"/>
<path d="M3.29289 1.29286C3.68342 0.902399 4.31645 0.902359 4.70696 1.29286L6.91399 3.49989H10.4999C11.2956 3.49989 12.0584 3.8162 12.621 4.3788C13.1836 4.9414 13.4999 5.70425 13.4999 6.49989V17.9999C13.4999 18.2651 13.6054 18.5194 13.7929 18.7069C13.9804 18.8945 14.2347 18.9999 14.4999 18.9999H18.1757C18.3236 18.5826 18.5598 18.1979 18.8788 17.8788C19.4414 17.3162 20.2043 16.9999 20.9999 16.9999L21.2968 17.0145C21.9834 17.0828 22.6288 17.3866 23.121 17.8788C23.6836 18.4414 23.9999 19.2042 23.9999 19.9999L23.9853 20.2968C23.917 20.9834 23.6132 21.6288 23.121 22.121C22.6288 22.6132 21.9834 22.917 21.2968 22.9852L20.9999 22.9999C20.2043 22.9999 19.4414 22.6836 18.8788 22.121C18.5596 21.8018 18.3216 21.4174 18.1738 20.9999H14.4999C13.7043 20.9999 12.9414 20.6836 12.3788 20.121C11.8162 19.5584 11.4999 18.7955 11.4999 17.9999V6.49989C11.4999 6.23469 11.3945 5.98039 11.207 5.79286C11.0428 5.62873 10.8275 5.52747 10.5986 5.50478L10.4999 5.49989H6.91399L4.70696 7.70693C4.31648 8.0974 3.68343 8.09731 3.29289 7.70693C2.90237 7.3164 2.90237 6.68339 3.29289 6.29286L5.08586 4.49989L3.29289 2.70693C2.90237 2.3164 2.90237 1.68339 3.29289 1.29286Z" fill="url(#paint0_linear_35469_123453)"/>
<defs>
<linearGradient id="paint0_linear_35469_123453" x1="12.4998" y1="1.5" x2="12.4998" y2="23.4999" gradientUnits="userSpaceOnUse">
<stop stop-color="#1D4ED8"/>
<stop offset="1" stop-color="#A60DAE"/>
</linearGradient>
</defs>
</svg>
