<svg width="129" height="80" viewBox="0 0 129 80" fill="none" xmlns="http://www.w3.org/2000/svg">
<path fill-rule="evenodd" clip-rule="evenodd" d="M107 74H127L115.5 6.5L107 74Z" fill="url(#paint0_linear)"/>
<path opacity="0.06" fill-rule="evenodd" clip-rule="evenodd" d="M64.5099 80C29.1642 80 0.510193 77.7619 0.510193 75C0.510193 72.2381 29.1642 70 64.5099 70C99.8562 70 128.51 72.2381 128.51 75C128.51 77.7619 99.8562 80 64.5099 80Z" fill="#1A1D21"/>
<path d="M63.8996 4.08838H25.6678C24.2694 4.08838 23.1358 5.22197 23.1358 6.62033V71.9253C23.1358 73.3236 24.2694 74.4572 25.6678 74.4572H63.8996V4.08838Z" fill="#D2D2D2"/>
<rect x="11.8938" y="4.08838" width="103.932" height="70.3688" rx="3.79792" fill="#D7D7D7"/>
<rect x="14.0195" y="4.08838" width="100.046" height="70.3688" rx="2.5291" fill="#EEEEEE"/>
<path d="M63.8996 4.08838H109.775C111.173 4.08838 112.307 5.22197 112.307 6.62033V71.9253C112.307 73.3236 111.173 74.4572 109.775 74.4572H63.8996V4.08838Z" fill="white"/>
<rect x="69.632" y="69.8102" width="26.5543" height="5.09547" rx="2.53195" transform="rotate(-90 69.632 69.8102)" fill="url(#paint1_linear)"/>
<rect x="77.2753" y="69.8102" width="21.2434" height="5.09547" rx="2.53195" transform="rotate(-90 77.2753 69.8102)" fill="url(#paint2_linear)"/>
<rect x="84.9185" y="69.8102" width="10.6217" height="5.09547" rx="2.53195" transform="rotate(-90 84.9185 69.8102)" fill="url(#paint3_linear)"/>
<rect x="101.479" y="69.8102" width="10.6217" height="5.09547" rx="2.53195" transform="rotate(-90 101.479 69.8102)" fill="url(#paint4_linear)"/>
<rect x="68.9328" y="38.3984" width="30.5374" height="32.5544" rx="1.61763" transform="rotate(-90 68.9328 38.3984)" fill="#F0F0F0"/>
<mask id="mask0" mask-type="alpha" maskUnits="userSpaceOnUse" x="68" y="7" width="34" height="32">
<rect x="68.9328" y="38.3984" width="30.5374" height="32.5544" rx="1.61763" transform="rotate(-90 68.9328 38.3984)" fill="white"/>
</mask>
<g mask="url(#mask0)">
<path fill-rule="evenodd" clip-rule="evenodd" d="M89.7481 13.4962C86.4331 15.1217 83.549 14.7574 81.0397 14.7995C78.0649 14.8494 73.8161 16.4231 73.8161 21.8092C73.8161 26.3416 75.9982 27.4174 76.4236 27.725C77.9112 28.801 79.8612 29.1667 81.4018 29.2888C87.6531 29.7835 91.1128 32.6017 92.9266 29.5937C95.9477 24.5832 98.1333 17.7629 97.0412 14.8377C95.9493 11.9127 94.0077 11.4079 89.7481 13.4962Z" fill="#FF8E3C"/>
<path fill-rule="evenodd" clip-rule="evenodd" d="M82.2878 14.0599C83.1249 14.0599 83.8033 14.5351 83.8033 15.1217C83.8033 15.7079 83.1249 16.1833 82.2878 16.1833C81.4507 16.1833 80.7723 15.7079 80.7723 15.1217C80.7723 14.5351 81.4507 14.0599 82.2878 14.0599Z" fill="#FBC492"/>
<path fill-rule="evenodd" clip-rule="evenodd" d="M83.8033 29.0592C83.8033 29.6456 83.1249 30.1211 82.2878 30.1211C81.4507 30.1211 80.7723 29.6456 80.7723 29.0592C80.7723 28.4728 81.4507 27.9976 82.2878 27.9976C83.1249 27.9976 83.8033 28.4728 83.8033 29.0592Z" fill="#FBC492"/>
<path fill-rule="evenodd" clip-rule="evenodd" d="M90.9609 19.3659C89.8215 19.2689 89.0385 18.2247 89.0385 18.2247L89.6994 22.0682L89.6957 22.0906L89.6994 22.1127L89.0385 25.9562C89.0385 25.9562 89.8215 24.912 90.9609 24.815C92.2139 24.7084 93.2185 25.407 94.0529 26.3657C94.0529 26.3657 100.54 23.4232 100.54 22.0906C100.54 20.7577 94.0529 17.8152 94.0529 17.8152C93.2185 18.7739 92.2139 19.4725 90.9609 19.3659Z" fill="url(#paint5_linear)"/>
<path fill-rule="evenodd" clip-rule="evenodd" d="M74.1372 22.0905C74.1372 22.1031 74.1364 22.1152 74.1364 22.1279C74.1364 26.8598 77.8167 29.0593 82.3567 29.0593C86.8966 29.0593 90.8166 25.061 90.8166 22.1279C90.8166 22.1156 90.8153 22.1029 90.8151 22.0905C90.8153 22.078 90.8166 22.0653 90.8166 22.0529C90.8166 19.1199 86.8966 15.1217 82.3567 15.1217C77.8167 15.1217 74.1364 17.321 74.1364 22.0529C74.1364 22.0657 74.1372 22.0778 74.1372 22.0905Z" fill="#FBC492"/>
<path fill-rule="evenodd" clip-rule="evenodd" d="M80.7689 28.9641C79.9114 29.0523 77.2777 28.4554 75.5536 26.83L77.453 25.4135C80.4269 25.1628 79.5319 28.7466 80.7689 28.9641Z" fill="#FF8E3C"/>
<path fill-rule="evenodd" clip-rule="evenodd" d="M102.93 21.9691C102.93 26.1483 105.014 31.7364 102.995 35.0053C101.32 33.8465 96.6331 30.3542 95.4799 28.4146C95.1704 27.8927 94.8215 27.338 94.4252 26.8243C94.307 26.6661 94.1808 26.514 94.0527 26.3661C94.0527 26.3661 96.4584 24.9574 96.4584 22.0904C96.4584 19.2234 94.0527 17.8146 94.0527 17.8146C94.6046 17.1838 95.0758 16.4462 95.4799 15.7661C95.8446 15.1518 96.2389 14.5497 96.6588 13.9806C97.5932 12.7149 101.913 9.90273 103.098 9.10552C105.053 12.3373 102.93 17.8639 102.93 21.9691Z" fill="url(#paint6_linear)"/>
<path fill-rule="evenodd" clip-rule="evenodd" d="M75.7955 27.0212C75.7955 27.0212 78.4373 25.3456 78.4522 22.5543C78.4694 19.3295 78.4783 16.7551 80.7684 15.2167C80.7684 15.2167 78.539 15.3749 77.1212 16.1054C76.092 16.6353 74.1364 18.2116 74.1364 22.2969C74.1364 26.0775 75.7955 27.0212 75.7955 27.0212Z" fill="#FF8E3C"/>
</g>
<path fill-rule="evenodd" clip-rule="evenodd" d="M77.3313 4.08838C77.3313 4.08838 78.95 31.6852 89.3769 47.9029C99.8038 64.1206 112.307 74.4572 112.307 74.4572H63.8996V4.08838H77.3313Z" fill="url(#paint7_linear)"/>
<path fill-rule="evenodd" clip-rule="evenodd" d="M16.3046 0C16.3046 0 28.2607 1.71144 40.102 0.352278C51.9433 -1.00688 63.8994 4.0884 63.8994 4.0884V74.4573C63.8994 74.4573 52.0402 68.7898 40.102 70.7211C28.1638 72.6524 16.3046 70.3689 16.3046 70.3689V0Z" fill="url(#paint8_linear)"/>
<defs>
<linearGradient id="paint0_linear" x1="111.391" y1="15.2277" x2="148.459" y2="52.8654" gradientUnits="userSpaceOnUse">
<stop stop-opacity="0.16"/>
<stop offset="1" stop-color="white" stop-opacity="0.01"/>
</linearGradient>
<linearGradient id="paint1_linear" x1="96.1863" y1="69.9628" x2="71.2226" y2="69.9628" gradientUnits="userSpaceOnUse">
<stop stop-opacity="0.0776606"/>
<stop offset="1" stop-opacity="0.0842166"/>
</linearGradient>
<linearGradient id="paint2_linear" x1="98.5187" y1="69.9628" x2="78.5477" y2="69.9628" gradientUnits="userSpaceOnUse">
<stop stop-opacity="0.0776606"/>
<stop offset="1" stop-opacity="0.0842166"/>
</linearGradient>
<linearGradient id="paint3_linear" x1="95.5402" y1="69.9628" x2="85.5547" y2="69.9628" gradientUnits="userSpaceOnUse">
<stop stop-opacity="0.0776606"/>
<stop offset="1" stop-opacity="0.0842166"/>
</linearGradient>
<linearGradient id="paint4_linear" x1="112.1" y1="69.9628" x2="102.115" y2="69.9628" gradientUnits="userSpaceOnUse">
<stop stop-opacity="0.0776606"/>
<stop offset="1" stop-opacity="0.0842166"/>
</linearGradient>
<linearGradient id="paint5_linear" x1="94.7877" y1="31.1099" x2="100.66" y2="20.3833" gradientUnits="userSpaceOnUse">
<stop stop-color="#ECB692"/>
<stop offset="1" stop-color="#FDC97E"/>
</linearGradient>
<linearGradient id="paint6_linear" x1="96" y1="25" x2="110.198" y2="19.9173" gradientUnits="userSpaceOnUse">
<stop stop-color="#612FFF"/>
<stop offset="1" stop-color="#D200A3"/>
</linearGradient>
<linearGradient id="paint7_linear" x1="55.5343" y1="45.956" x2="104.427" y2="80.3056" gradientUnits="userSpaceOnUse">
<stop stop-color="white" stop-opacity="0.237134"/>
<stop offset="1" stop-color="white" stop-opacity="0.01"/>
</linearGradient>
<linearGradient id="paint8_linear" x1="16.3046" y1="35.1513" x2="63.8994" y2="35.1513" gradientUnits="userSpaceOnUse">
<stop stop-color="white"/>
<stop offset="0.355681" stop-color="white"/>
<stop offset="0.563301" stop-color="white"/>
<stop offset="1" stop-color="#F0F0F0"/>
</linearGradient>
</defs>
</svg>
