<svg width="17" height="14" viewBox="0 0 17 14" fill="none" xmlns="http://www.w3.org/2000/svg">
<path id="Vector" d="M7.33333 0.612596L7.33332 0.612605L1.11109 6.73762C0.96297 6.88343 0.96297 7.11659 1.11109 7.2624L7.33332 13.3874C7.48583 13.5375 7.73637 13.5375 7.88888 13.3874C8.037 13.2416 8.037 13.0084 7.88888 12.8626L3.18407 8.23134L2.31415 7.37501H3.53483H15.6111C15.8333 7.37501 16 7.19973 16 7.00001C16 6.80029 15.8333 6.62501 15.6111 6.62501H3.53483H2.31415L3.18407 5.76868L7.88886 1.13741C7.88887 1.13741 7.88887 1.1374 7.88888 1.1374C8.037 0.991558 8.037 0.758425 7.88887 0.612596C7.73636 0.462468 7.48584 0.462468 7.33333 0.612596Z" fill="#1D4ED8" stroke="white"/>
</svg>
