<svg width="17" height="16" viewBox="0 0 17 16" fill="none" xmlns="http://www.w3.org/2000/svg">
<path d="M8.1738 10.6328L13.671 13.8027C13.7205 13.8312 13.7762 13.8468 13.8333 13.8481C13.8903 13.8494 13.9467 13.8364 13.9974 13.8103C14.0481 13.7841 14.0915 13.7457 14.1235 13.6985C14.1555 13.6513 14.1752 13.5968 14.1807 13.54L15.2812 2.23378C15.2873 2.17201 15.2763 2.10977 15.2496 2.05376C15.2229 1.99775 15.1814 1.95009 15.1296 1.91591C15.0778 1.88172 15.0177 1.86232 14.9557 1.85978C14.8936 1.85724 14.8321 1.87167 14.7777 1.9015L2.14028 8.83359C2.07829 8.86752 2.02836 8.91985 1.99739 8.98337C1.96642 9.04689 1.95595 9.11846 1.96741 9.18819C1.97887 9.25792 2.0117 9.32237 2.06136 9.37264C2.11103 9.42291 2.17508 9.45651 2.24467 9.46881L6.83309 10.2876" stroke="#2947F2" stroke-width="2" stroke-linecap="round" stroke-linejoin="round"/>
<path d="M13.1489 4.52734L8.03174 10.5534L8.61237 13.9648C8.61848 14.0081 8.6383 14.0483 8.66893 14.0795C8.69956 14.1108 8.73938 14.1314 8.78256 14.1383C8.82574 14.1452 8.87 14.1382 8.90887 14.1181C8.94774 14.0981 8.97917 14.0661 8.99855 14.0269L9.6208 12.8547" stroke="#FF6805" stroke-width="2" stroke-linecap="round" stroke-linejoin="round"/>
</svg>
