<svg width="39" height="38" viewBox="0 0 39 38" fill="none" xmlns="http://www.w3.org/2000/svg">
<path d="M12.3139 30.914H4.88281C3.22596 30.914 1.88281 29.5708 1.88281 27.914V4.14844C1.88281 2.49158 3.22596 1.14844 4.88281 1.14844H34.6621C36.319 1.14844 37.6621 2.49158 37.6621 4.14844V27.914C37.6621 29.5709 36.319 30.914 34.6621 30.914H27.511" stroke="#2947F2" stroke-width="2" stroke-linecap="round" stroke-linejoin="round"/>
<path d="M24.4219 15.9521L31.4961 23.0233" stroke="#2947F2" stroke-width="2" stroke-linecap="round" stroke-linejoin="round"/>
<path d="M15.0215 15.9521L7.94722 23.0233" stroke="#2947F2" stroke-width="2" stroke-linecap="round" stroke-linejoin="round"/>
<path d="M19.7949 23.2954V36.1026" stroke="#FF6805" stroke-width="2" stroke-linecap="round" stroke-linejoin="round"/>
<path d="M16.041 33.2344L19.6662 36.8565L23.2884 33.2344" stroke="#FF6805" stroke-width="2" stroke-linecap="round" stroke-linejoin="round"/>
<path d="M7.94727 8.57178L17.7524 18.3794C18.9239 19.5513 20.8236 19.5514 21.9953 18.3797L31.8032 8.57178" stroke="#2947F2" stroke-width="2" stroke-linecap="round" stroke-linejoin="round"/>
</svg>
