<svg width="36" height="36" viewBox="0 0 36 36" fill="none" xmlns="http://www.w3.org/2000/svg">
<g clip-path="url(#clip0_23427_40362)">
<path d="M30.6741 18.7347C29.4469 18.9842 29.3645 20.9843 29.0023 21.9854C28.4782 23.4349 27.5919 24.8019 26.5944 25.9694C26.2675 26.3522 25.0537 27.4203 25.0537 27.8819V35.8903L24.9432 36.0007H10.9471V27.8826C10.9471 27.4233 9.40635 25.9834 9.03901 25.5292C7.97824 24.2189 7.17659 22.7253 6.70694 21.1021C6.51333 20.4329 6.54499 19.6011 5.98773 19.1027C5.89056 19.0159 5.42385 18.7347 5.32668 18.7347H0.11042L0 18.6242V17.375L0.11042 17.2646H5.32668C5.42164 17.2646 5.84271 17.0084 5.9443 16.9274C6.58326 16.4158 6.63553 15.0878 6.90348 14.2862C8.00253 10.9993 10.7947 8.12326 14.0683 6.97783C14.8479 6.70473 16.3511 6.55824 16.8641 6.02675C16.962 5.92516 17.2653 5.43489 17.2653 5.32594V0.11042L17.3758 0H18.625L18.7354 0.11042V5.32668C18.7354 5.43489 19.0394 5.9259 19.1366 6.02748C19.6401 6.55014 20.7325 6.60093 21.4363 6.81368C24.8512 7.84721 27.8443 10.7027 29.0222 14.069C29.2953 14.8486 29.4418 16.3518 29.9733 16.8649C30.0748 16.9628 30.5651 17.2661 30.6741 17.2661H35.8903L36.0007 17.3765V18.6257L35.8903 18.7361H30.6741V18.7347ZM12.4738 26.905L12.4944 33.2402C12.6711 33.849 13.1989 34.3974 13.8452 34.4607C16.4836 34.7199 19.5429 34.2576 22.2262 34.4585C22.7937 34.3893 23.443 33.7401 23.5122 33.1725L23.5254 27.014C27.0743 23.7838 29.2165 19.9684 27.8245 15.0444C24.9845 4.99984 9.92311 5.61819 7.95689 15.927C7.09562 20.4425 9.11189 24.0878 12.4746 26.9043L12.4738 26.905Z" fill="white"/>
<path d="M33.4658 1.32324L34.6767 2.53419L30.1598 6.97824L29.0225 5.7673L33.4658 1.32324Z" fill="white"/>
<path d="M5.7673 29.0225L6.97824 30.2334L2.46057 34.6767L1.32324 33.4658L5.7673 29.0225Z" fill="white"/>
<path d="M2.46129 1.32324L6.97675 5.7673L5.84163 6.97824L1.32617 2.53419L2.46129 1.32324Z" fill="white"/>
<path d="M30.1597 29.0225L34.6767 33.4658L33.5393 34.6767L29.0526 30.2702C28.979 30.1046 30.0081 29.2065 30.1597 29.0225Z" fill="white"/>
<path fill-rule="evenodd" clip-rule="evenodd" d="M20.1508 12.8885C16.8241 11.5211 13.1383 13.5876 12.5268 17.1007L12.5039 17.2325H14.1431L14.1729 17.1661C14.2372 17.0225 14.2951 16.8839 14.3513 16.7493C14.5323 16.3155 14.6963 15.9228 15.0045 15.5393C16.4997 13.6778 18.8149 13.8019 20.3422 14.9665C21.1049 15.548 21.6639 16.3852 21.8215 17.3552C21.9787 18.3232 21.7381 19.4355 20.8802 20.5732C20.6873 20.8288 20.3669 21.1633 19.9883 21.5461C19.8987 21.6367 19.806 21.7298 19.7114 21.825L19.7113 21.8251L19.7111 21.8252L19.7111 21.8252C19.4081 22.1298 19.0844 22.4551 18.7754 22.7839C18.3699 23.2155 17.9856 23.6574 17.7022 24.0728C17.4218 24.4838 17.2269 24.8874 17.2269 25.2389V26.6374H18.7816L18.8486 26.5705L18.8483 26.5235C18.8405 25.2078 19.5295 24.2824 20.3845 23.4174C20.5982 23.2012 20.8211 22.9899 21.0455 22.7772L21.0487 22.7742L21.049 22.774C21.2718 22.5628 21.4962 22.3502 21.7116 22.1324C22.1447 21.6947 22.547 21.2312 22.8396 20.7021C24.4222 17.841 23.1777 14.1324 20.1508 12.8885ZM18.774 29.4961H17.2269V30.9423H18.774V29.4961Z" fill="white"/>
</g>
<defs>
<clipPath id="clip0_23427_40362">
<rect width="36" height="36" fill="white"/>
</clipPath>
</defs>
</svg>
