<svg width="36" height="36" viewBox="0 0 36 36" fill="none" xmlns="http://www.w3.org/2000/svg">
<g clip-path="url(#clip0_23427_40342)">
<path d="M18.0058 36C8.07879 36 0 27.9328 0 18.0058C0 8.07879 8.07879 0 18.0058 0C18.4824 0 18.8776 0.395221 18.8776 0.871812C18.8776 1.3484 18.4824 1.74362 18.0058 1.74362C9.03197 1.74362 1.74362 9.03197 1.74362 18.0058C1.74362 26.9797 9.03197 34.268 18.0058 34.268C26.9797 34.268 34.268 26.9797 34.268 18.0058C34.268 17.5292 34.6632 17.134 35.1398 17.134C35.6164 17.134 36.0116 17.5292 36.0116 18.0058C36.0116 27.9328 27.9328 36.0116 18.0058 36.0116V36Z" fill="white"/>
<path fill-rule="evenodd" clip-rule="evenodd" d="M22.7019 12H13.2981C12.5962 12 12.0288 12.6117 12 13.3902V22.5431C12 23.3438 12.5865 24 13.3077 24C16.4423 24 19.5769 23.9778 22.7115 23.9778C22.8846 23.9778 23.0481 23.9333 23.2019 23.8665C23.3558 23.7887 23.5 23.6886 23.625 23.5551C23.8654 23.2882 24 22.9212 24 22.532V13.4458C24 12.645 23.4135 12 22.7019 12ZM23.1731 22.532C23.1731 22.8211 22.9615 23.0658 22.6923 23.0658H13.2885C13.0288 23.0658 12.8077 22.8323 12.8077 22.532V13.4458C12.8077 13.1566 13.0192 12.912 13.2885 12.912H15.4423V20.1298L18 18.7507L20.5385 20.0074V12.912H22.6923C22.9615 12.912 23.1731 13.1566 23.1731 13.4569V22.5431V22.532Z" fill="white"/>
<path d="M34.8724 0.779297H27.0261C26.5495 0.779297 26.1543 1.17452 26.1543 1.65111C26.1543 2.1277 26.5495 2.52292 27.0261 2.52292H32.7684L26.4681 8.82321C26.131 9.16031 26.131 9.71827 26.4681 10.0554C26.8052 10.3925 27.3632 10.3925 27.7003 10.0554L34.0006 3.75508V9.49741C34.0006 9.974 34.3958 10.3692 34.8724 10.3692C35.349 10.3692 35.7442 9.974 35.7442 9.49741V1.65111C35.7442 1.17452 35.349 0.779297 34.8724 0.779297Z" fill="white"/>
</g>
<defs>
<clipPath id="clip0_23427_40342">
<rect width="36" height="36" fill="white"/>
</clipPath>
</defs>
</svg>
