<svg width="36" height="36" viewBox="0 0 36 36" fill="none" xmlns="http://www.w3.org/2000/svg">
<path id="Vector" d="M35.9433 32.1257C35.8747 31.44 35.4976 30.88 34.869 30.56L34.7204 30.48V30.3086C34.709 29.9657 34.709 29.6229 34.7204 29.2914C34.7319 28.56 34.7319 27.8171 34.6176 27.0971C34.229 24.64 32.4233 22.4 30.0119 21.3943L29.829 21.3143V21.1086C29.8861 20.3771 29.589 19.4514 28.6404 19.0857C28.149 18.9029 27.6119 18.9143 27.0519 18.9257C26.6633 18.9371 26.2633 18.9486 25.8747 18.8914L25.7604 18.8686L25.6919 18.7886C24.4004 17.1886 22.9947 15.6343 21.6461 14.1371C20.8804 13.2914 20.1033 12.4343 19.3604 11.5771L19.0976 11.28L19.4633 11.1314C20.9833 10.48 21.3719 9.18857 21.2347 8.20571C21.0861 7.21143 20.2976 5.97714 18.549 5.78286L18.1719 5.73714L18.3204 5.39429C18.4804 4.98286 18.7319 4.56 18.9947 4.11429C19.8976 2.59429 20.4119 1.53143 19.4176 0.56C19.1204 0.274286 18.789 0.16 18.3661 0.0228571L18.309 0H16.9719C16.8233 0.0342857 16.6176 0.08 16.4004 0.114286C16.0119 0.194286 15.6461 0.251429 15.2804 0.365714C14.9947 0.457143 14.7204 0.571429 14.4233 0.697143C14.2061 0.788571 13.989 0.891429 13.7604 0.971429L13.6576 1.00571L12.069 0.354286L10.3776 0H9.029C8.12615 0.217143 7.429 0.937143 7.40615 1.76C7.38329 2.42286 7.89757 3.29143 8.36615 4.06857C8.64043 4.53714 8.91472 4.98286 9.06329 5.39429L9.20043 5.73714L8.83472 5.78286C7.08615 5.98857 6.29757 7.21143 6.149 8.20571C6.01186 9.2 6.40043 10.48 7.92043 11.1314L8.28615 11.28L2.21757 18.08C0.286145 20.3543 -0.433855 23.2914 0.263288 26.1486C0.994717 29.1657 3.12043 31.5886 6.11472 32.8114C8.43472 33.7714 11.029 33.7029 13.5433 33.6457C14.1833 33.6229 14.8233 33.6114 15.4747 33.6114C15.9319 33.6114 16.389 33.6229 16.8347 33.6343L17.1204 33.6571V33.9429C17.0633 35.1086 17.8404 35.92 19.0976 36L34.3204 35.9657C35.9319 35.7029 36.1376 34.24 35.9433 32.1257ZM28.6976 27.1771C29.2919 27.0857 29.829 26.3086 29.829 25.8171V23.0286L30.2747 23.3371C31.4976 24.16 32.4119 25.3943 32.7776 26.72C32.9719 27.4171 32.9947 27.5886 32.9947 27.68V30.3543H20.0576V27.68C20.0576 27.5771 20.0919 27.3829 20.2633 26.7314C20.6404 25.3829 21.5547 24.1486 22.7776 23.3371L23.2233 23.0286V25.8171C23.2119 25.9543 23.3033 26.24 23.4061 26.4229C23.7033 26.96 24.3661 27.3029 25.2004 27.36C26.1261 27.4171 28.0919 27.4171 28.6976 27.1771ZM24.9376 20.5029H28.1147V25.7829H24.9376V20.5029ZM8.949 1.58857L9.40614 1.56571C10.4119 1.54286 11.4404 1.74857 12.389 2.18286C12.5376 2.25143 12.6976 2.34286 12.8461 2.43429C13.1433 2.61714 13.4747 2.82286 13.7261 2.78857C13.9661 2.78857 14.2519 2.60571 14.5261 2.43429C14.6861 2.34286 14.8461 2.24 14.9947 2.17143C15.9433 1.74857 16.9719 1.54286 17.9776 1.56571L18.4461 1.58857L16.1147 5.79429L11.1661 5.77143L8.949 1.58857ZM7.84043 8.62857C7.80615 8.13714 8.10329 7.55429 8.80043 7.39429L8.82329 7.37143H18.309C19.1661 7.42857 19.5547 8.03429 19.5547 8.57143C19.5547 9.10857 19.1776 9.70286 18.3433 9.78286C17.6576 9.85143 16.949 9.87429 16.2176 9.87429C15.3147 9.87429 14.389 9.84 13.4861 9.80571C12.0004 9.74857 10.4804 9.68 9.09757 9.78286C8.26329 9.74857 7.86329 9.15429 7.84043 8.62857ZM18.3319 29.2686C18.3433 29.6114 18.3433 29.9657 18.3319 30.3086V30.48L18.1833 30.56C17.6461 30.8229 17.3033 31.2571 17.1319 31.8629L17.0747 32.0686H9.68043C6.41186 31.7943 3.62329 29.8971 2.37757 27.1314C1.22329 24.5486 1.56615 21.7143 3.31472 19.3714C4.36615 17.9886 5.63472 16.64 6.85757 15.3486C7.95472 14.1943 9.07472 12.9943 10.0347 11.7829L10.5033 11.3714L16.6747 11.3486L17.029 11.4629L24.0233 19.2686L23.8176 19.4629C23.3833 19.8514 23.1776 20.4114 23.2119 21.12V21.3143L23.029 21.3943C20.6404 22.4 18.8233 24.64 18.4233 27.0971C18.309 27.8057 18.3204 28.5486 18.3319 29.2686ZM34.2176 34.4229H18.8347V31.92H34.2176V34.4229Z" fill="white"/>
</svg>
