<svg width="37" height="36" viewBox="0 0 37 36" fill="none" xmlns="http://www.w3.org/2000/svg">
<g id="Other reason" clip-path="url(#clip0_23259_12551)">
<path id="Vector" d="M30.8977 18.7347C29.6705 18.9842 29.5881 20.9843 29.2259 21.9854C28.7018 23.4349 27.8155 24.8019 26.818 25.9694C26.4912 26.3522 25.2773 27.4203 25.2773 27.8819V35.8903L25.1669 36.0007H11.1707V27.8826C11.1707 27.4233 9.62998 25.9834 9.26265 25.5292C8.20188 24.2189 7.40022 22.7253 6.93057 21.1021C6.73696 20.4329 6.76862 19.6011 6.21136 19.1027C6.11419 19.0159 5.64748 18.7347 5.55031 18.7347H0.334053L0.223633 18.6242V17.375L0.334053 17.2646H5.55031C5.64528 17.2646 6.06634 17.0084 6.16793 16.9274C6.8069 16.4158 6.85916 15.0878 7.12712 14.2862C8.22617 10.9993 11.0183 8.12326 14.2919 6.97783C15.0715 6.70473 16.5747 6.55824 17.0878 6.02675C17.1857 5.92516 17.489 5.43489 17.489 5.32594V0.11042L17.5994 0H18.8486L18.959 0.11042V5.32668C18.959 5.43489 19.2631 5.9259 19.3602 6.02748C19.8637 6.55014 20.9562 6.60093 21.6599 6.81368C25.0749 7.84721 28.068 10.7027 29.2458 14.069C29.5189 14.8486 29.6654 16.3518 30.1969 16.8649C30.2985 16.9628 30.7887 17.2661 30.8977 17.2661H36.1139L36.2244 17.3765V18.6257L36.1139 18.7361H30.8977V18.7347ZM12.6975 26.905L12.7181 33.2402C12.8947 33.849 13.4226 34.3974 14.0689 34.4607C16.7072 34.7199 19.7666 34.2576 22.4498 34.4585C23.0173 34.3893 23.6666 33.7401 23.7358 33.1725L23.7491 27.014C27.298 23.7838 29.4401 19.9684 28.0481 15.0444C25.2081 4.99984 10.1467 5.61819 8.18053 15.927C7.31925 20.4425 9.33553 24.0878 12.6982 26.9043L12.6975 26.905Z" fill="#374151"/>
<path id="Vector_2" d="M33.6892 1.32358L34.9001 2.53452L30.3832 6.97858L29.2458 5.76763L33.6892 1.32358Z" fill="#374151"/>
<path id="Vector_3" d="M5.99117 29.0222L7.20212 30.2331L2.68445 34.6764L1.54712 33.4655L5.99117 29.0222Z" fill="#374151"/>
<path id="Vector_4" d="M2.68444 1.32358L7.1999 5.76763L6.06477 6.97858L1.54932 2.53452L2.68444 1.32358Z" fill="#374151"/>
<path id="Vector_5" d="M30.3831 29.0222L34.9001 33.4655L33.7627 34.6764L29.276 30.2699C29.2024 30.1043 30.2315 29.2062 30.3831 29.0222Z" fill="#374151"/>
<path id="Union" fill-rule="evenodd" clip-rule="evenodd" d="M20.3739 12.8885C17.0472 11.5211 13.3614 13.5876 12.75 17.1007L12.7271 17.2325H14.3662L14.396 17.1661C14.4603 17.0225 14.5182 16.8839 14.5744 16.7493C14.7555 16.3155 14.9194 15.9228 15.2276 15.5393C16.7228 13.6778 19.0381 13.8019 20.5654 14.9665C21.328 15.548 21.8871 16.3852 22.0447 17.3552C22.2019 18.3232 21.9613 19.4355 21.1033 20.5732C20.9105 20.8288 20.59 21.1633 20.2114 21.5461C20.1218 21.6367 20.0292 21.7298 19.9345 21.825L19.9344 21.8251L19.9343 21.8252L19.9343 21.8252C19.6312 22.1298 19.3075 22.4551 18.9985 22.7839C18.593 23.2155 18.2088 23.6574 17.9254 24.0728C17.645 24.4838 17.45 24.8874 17.45 25.2389V26.6374H19.0048L19.0718 26.5705L19.0715 26.5235C19.0636 25.2078 19.7527 24.2824 20.6077 23.4174C20.8214 23.2012 21.0442 22.9899 21.2687 22.7772L21.2719 22.7742L21.2722 22.774C21.495 22.5628 21.7193 22.3502 21.9348 22.1324C22.3678 21.6947 22.7701 21.2312 23.0627 20.7021C24.6454 17.841 23.4009 14.1324 20.3739 12.8885ZM18.9972 29.4961H17.4501V30.9423H18.9972V29.4961Z" fill="#003DFF"/>
</g>
<defs>
<clipPath id="clip0_23259_12551">
<rect width="36" height="36" fill="white" transform="translate(0.223633)"/>
</clipPath>
</defs>
</svg>
