<svg width="37" height="36" viewBox="0 0 37 36" fill="none" xmlns="http://www.w3.org/2000/svg">
<g id="Exporting goods" clip-path="url(#clip0_23259_12542)">
<path id="Vector" d="M18.2294 36C8.30242 36 0.223633 27.9328 0.223633 18.0058C0.223633 8.07879 8.30242 0 18.2294 0C18.706 0 19.1013 0.395221 19.1013 0.871812C19.1013 1.3484 18.706 1.74362 18.2294 1.74362C9.2556 1.74362 1.96726 9.03197 1.96726 18.0058C1.96726 26.9797 9.2556 34.268 18.2294 34.268C27.2033 34.268 34.4916 26.9797 34.4916 18.0058C34.4916 17.5292 34.8869 17.134 35.3634 17.134C35.84 17.134 36.2353 17.5292 36.2353 18.0058C36.2353 27.9328 28.1565 36.0116 18.2294 36.0116V36Z" fill="#374151"/>
<path id="Vector_2" fill-rule="evenodd" clip-rule="evenodd" d="M22.9256 12H13.5217C12.8198 12 12.2525 12.6117 12.2236 13.3902V22.5431C12.2236 23.3438 12.8102 24 13.5313 24C16.6659 24 19.8006 23.9778 22.9352 23.9778C23.1082 23.9778 23.2717 23.9333 23.4256 23.8665C23.5794 23.7887 23.7236 23.6886 23.8486 23.5551C24.089 23.2882 24.2236 22.9212 24.2236 22.532V13.4458C24.2236 12.645 23.6371 12 22.9256 12ZM23.3967 22.532C23.3967 22.8211 23.1852 23.0658 22.9159 23.0658H13.5121C13.2525 23.0658 13.0313 22.8323 13.0313 22.532V13.4458C13.0313 13.1566 13.2429 12.912 13.5121 12.912H15.6659V20.1298L18.2236 18.7507L20.7621 20.0074V12.912H22.9159C23.1852 12.912 23.3967 13.1566 23.3967 13.4569V22.5431V22.532Z" fill="#003DFF"/>
<path id="Vector_3" d="M35.096 0.778824H27.2497C26.7732 0.778824 26.3779 1.17404 26.3779 1.65064C26.3779 2.12723 26.7732 2.52245 27.2497 2.52245H32.9921L26.6918 8.82274C26.3547 9.15984 26.3547 9.7178 26.6918 10.0549C27.0289 10.392 27.5868 10.392 27.9239 10.0549L34.2242 3.75461V9.49694C34.2242 9.97353 34.6195 10.3687 35.096 10.3687C35.5726 10.3687 35.9679 9.97353 35.9679 9.49694V1.65064C35.9679 1.17404 35.5726 0.778824 35.096 0.778824Z" fill="#374151"/>
</g>
<defs>
<clipPath id="clip0_23259_12542">
<rect width="36" height="36" fill="white" transform="translate(0.223633)"/>
</clipPath>
</defs>
</svg>
