<svg width="37" height="36" viewBox="0 0 37 36" fill="none" xmlns="http://www.w3.org/2000/svg">
<g id="My Accounts" clip-path="url(#clip0_23259_12703)">
<path id="Vector" d="M18.2238 36C8.32375 36 0.223755 27.9 0.223755 18C0.223755 8.1 8.32375 0 18.2238 0C28.1238 0 36.2238 8.1 36.2238 18C36.2238 27.9 28.1238 36 18.2238 36ZM18.2238 1.6875C9.22375 1.6875 1.91125 9 1.91125 18C1.91125 27 9.22375 34.3125 18.2238 34.3125C27.2238 34.3125 34.5363 27 34.5363 18C34.5363 9 27.2238 1.6875 18.2238 1.6875Z" fill="white"/>
<path id="Vector_2" fill-rule="evenodd" clip-rule="evenodd" d="M18.2238 17.8875C20.6988 17.8875 22.6113 15.975 22.6113 13.5C22.6113 11.025 20.6988 9.1125 18.2238 9.1125C15.7488 9.1125 13.8363 11.025 13.8363 13.5C13.8363 15.975 15.7488 17.8875 18.2238 17.8875ZM18.2238 19.575C21.5988 19.575 24.2988 16.875 24.2988 13.5C24.2988 10.125 21.5988 7.425 18.2238 7.425C14.8488 7.425 12.1488 10.125 12.1488 13.5C12.1488 16.875 14.8488 19.575 18.2238 19.575Z" fill="white"/>
<path id="Vector_3" d="M26.6613 23.85H18.7863C18.3363 23.85 17.8863 23.5125 17.8863 22.95C17.8863 22.3875 18.2238 22.05 18.7863 22.05H26.6613C27.1113 22.05 27.5613 22.3875 27.5613 22.95C27.5613 23.5125 27.2238 23.85 26.6613 23.85Z" fill="white"/>
<path id="Vector_4" d="M26.6613 26.55H18.7863C18.3363 26.55 17.8863 26.2125 17.8863 25.65C17.8863 25.0875 18.2238 24.75 18.7863 24.75H26.6613C27.1113 24.75 27.5613 25.0875 27.5613 25.65C27.5613 26.2125 27.2238 26.55 26.6613 26.55Z" fill="white"/>
<path id="Vector_5" d="M26.6613 29.3625H18.7863C18.3363 29.3625 17.8863 29.025 17.8863 28.4625C17.8863 27.9 18.2238 27.5625 18.7863 27.5625H26.6613C27.1113 27.5625 27.5613 27.9 27.5613 28.4625C27.5613 29.025 27.2238 29.3625 26.6613 29.3625Z" fill="white"/>
<path id="Vector_6" d="M9.78626 28.9125C9.33626 28.9125 8.99876 28.575 8.99876 28.125C8.99876 27.675 8.77376 23.0625 12.2613 20.1375C15.0738 17.8875 19.1238 17.4375 22.4988 19.2375C22.9488 19.4625 23.0613 19.9125 22.8363 20.3625C22.6113 20.8125 22.1613 20.925 21.7113 20.7C18.8988 19.2375 15.6363 19.575 13.3863 21.4875C10.4613 23.85 10.6863 27.5625 10.6863 28.0125C10.6863 28.4625 10.3488 28.9125 9.89876 28.9125H9.78626Z" fill="white"/>
</g>
<defs>
<clipPath id="clip0_23259_12703">
<rect width="36" height="36" fill="white" transform="translate(0.223755)"/>
</clipPath>
</defs>
</svg>
