<svg width="37" height="36" viewBox="0 0 37 36" fill="none" xmlns="http://www.w3.org/2000/svg">
<g id="Labor/ROI" clip-path="url(#clip0_23259_12547)">
<path id="Vector" d="M36.1664 32.1257C36.0979 31.44 35.7207 30.88 35.0921 30.56L34.9436 30.48V30.3086C34.9321 29.9657 34.9321 29.6229 34.9436 29.2914C34.955 28.56 34.955 27.8171 34.8407 27.0971C34.4521 24.64 32.6464 22.4 30.235 21.3943L30.0521 21.3143V21.1086C30.1093 20.3771 29.8121 19.4514 28.8636 19.0857C28.3721 18.9029 27.835 18.9143 27.275 18.9257C26.8864 18.9371 26.4864 18.9486 26.0979 18.8914L25.9836 18.8686L25.915 18.7886C24.6236 17.1886 23.2179 15.6343 21.8693 14.1371C21.1036 13.2914 20.3264 12.4343 19.5836 11.5771L19.3207 11.28L19.6864 11.1314C21.2064 10.48 21.595 9.18857 21.4579 8.20571C21.3093 7.21143 20.5207 5.97714 18.7721 5.78286L18.395 5.73714L18.5436 5.39429C18.7036 4.98286 18.955 4.56 19.2179 4.11429C20.1207 2.59429 20.635 1.53143 19.6407 0.56C19.3436 0.274286 19.0121 0.16 18.5893 0.0228571L18.5321 0H17.195C17.0464 0.0342857 16.8407 0.08 16.6236 0.114286C16.235 0.194286 15.8693 0.251429 15.5036 0.365714C15.2179 0.457143 14.9436 0.571429 14.6464 0.697143C14.4293 0.788571 14.2121 0.891429 13.9836 0.971429L13.8807 1.00571L12.2921 0.354286L10.6007 0H9.25215C8.34929 0.217143 7.65215 0.937143 7.62929 1.76C7.60643 2.42286 8.12072 3.29143 8.58929 4.06857C8.86358 4.53714 9.13786 4.98286 9.28643 5.39429L9.42358 5.73714L9.05786 5.78286C7.30929 5.98857 6.52072 7.21143 6.37215 8.20571C6.235 9.2 6.62358 10.48 8.14358 11.1314L8.50929 11.28L2.44072 18.08C0.50929 20.3543 -0.21071 23.2914 0.486432 26.1486C1.21786 29.1657 3.34358 31.5886 6.33786 32.8114C8.65786 33.7714 11.2521 33.7029 13.7664 33.6457C14.4064 33.6229 15.0464 33.6114 15.6979 33.6114C16.155 33.6114 16.6121 33.6229 17.0579 33.6343L17.3436 33.6571V33.9429C17.2864 35.1086 18.0636 35.92 19.3207 36L34.5436 35.9657C36.155 35.7029 36.3607 34.24 36.1664 32.1257ZM28.9207 27.1771C29.515 27.0857 30.0521 26.3086 30.0521 25.8171V23.0286L30.4979 23.3371C31.7207 24.16 32.635 25.3943 33.0007 26.72C33.195 27.4171 33.2179 27.5886 33.2179 27.68V30.3543H20.2807V27.68C20.2807 27.5771 20.315 27.3829 20.4864 26.7314C20.8636 25.3829 21.7779 24.1486 23.0007 23.3371L23.4464 23.0286V25.8171C23.435 25.9543 23.5264 26.24 23.6293 26.4229C23.9264 26.96 24.5893 27.3029 25.4236 27.36C26.3493 27.4171 28.315 27.4171 28.9207 27.1771ZM25.1607 20.5029H28.3379V25.7829H25.1607V20.5029ZM9.17215 1.58857L9.62929 1.56571C10.635 1.54286 11.6636 1.74857 12.6121 2.18286C12.7607 2.25143 12.9207 2.34286 13.0693 2.43429C13.3664 2.61714 13.6979 2.82286 13.9493 2.78857C14.1893 2.78857 14.475 2.60571 14.7493 2.43429C14.9093 2.34286 15.0693 2.24 15.2179 2.17143C16.1664 1.74857 17.195 1.54286 18.2007 1.56571L18.6693 1.58857L16.3379 5.79429L11.3893 5.77143L9.17215 1.58857ZM8.06358 8.62857C8.02929 8.13714 8.32643 7.55429 9.02358 7.39429L9.04643 7.37143H18.5321C19.3893 7.42857 19.7779 8.03429 19.7779 8.57143C19.7779 9.10857 19.4007 9.70286 18.5664 9.78286C17.8807 9.85143 17.1721 9.87429 16.4407 9.87429C15.5379 9.87429 14.6121 9.84 13.7093 9.80571C12.2236 9.74857 10.7036 9.68 9.32072 9.78286C8.48643 9.74857 8.08643 9.15429 8.06358 8.62857ZM18.555 29.2686C18.5664 29.6114 18.5664 29.9657 18.555 30.3086V30.48L18.4064 30.56C17.8693 30.8229 17.5264 31.2571 17.355 31.8629L17.2979 32.0686H9.90358C6.635 31.7943 3.84643 29.8971 2.60072 27.1314C1.44643 24.5486 1.78929 21.7143 3.53786 19.3714C4.58929 17.9886 5.85786 16.64 7.08072 15.3486C8.17786 14.1943 9.29786 12.9943 10.2579 11.7829L10.7264 11.3714L16.8979 11.3486L17.2521 11.4629L24.2464 19.2686L24.0407 19.4629C23.6064 19.8514 23.4007 20.4114 23.435 21.12V21.3143L23.2521 21.3943C20.8636 22.4 19.0464 24.64 18.6464 27.0971C18.5322 27.8057 18.5436 28.5486 18.555 29.2686ZM34.4407 34.4229H19.0579V31.92H34.4407V34.4229Z" fill="#374151"/>
<path id="Vector_2" d="M17.0122 23.5086C17.0693 24.4457 16.6008 25.3714 15.8122 25.9429C15.7093 26.0114 15.5493 26.08 15.4008 26.1486C15.1722 26.2514 15.035 26.32 14.9436 26.4C14.8293 26.5029 14.7722 26.6629 14.715 26.8114C14.6808 26.9029 14.635 27.0171 14.6008 27.0629C14.4636 27.2229 14.235 27.3371 13.9722 27.3486C13.6979 27.36 13.435 27.28 13.275 27.12C13.2293 27.0743 13.1493 26.9257 13.115 26.8571C13.035 26.72 13.0008 26.6514 12.875 26.5829L12.715 26.5143L12.2579 26.3429H12.2236C11.4579 26.0457 11.035 25.7486 10.9436 25.4286C10.875 25.1657 10.9436 24.9029 11.1379 24.6971C11.355 24.4686 11.6979 24.3771 12.0179 24.4571C12.2122 24.5029 12.3722 24.5829 12.5322 24.6629C12.8293 24.8229 13.1836 24.9829 13.8008 24.9943C14.4179 24.9943 15.0008 24.6286 15.2065 24.1257C15.3779 23.7029 15.2865 23.2686 14.9436 22.9143L14.8522 22.8571C14.5322 22.7086 14.1893 22.5829 13.835 22.4457C13.0236 22.1486 12.2008 21.84 11.6865 21.2686C11.275 20.8343 11.0922 20.24 11.1722 19.6114C11.2522 18.9029 11.6522 18.24 12.2465 17.8514C12.3036 17.8171 12.395 17.7714 12.4865 17.7371C12.6236 17.68 12.7722 17.6229 12.875 17.5314C13.0122 17.4171 13.0808 17.2571 13.1493 17.12C13.2065 17.0057 13.2522 16.8914 13.3322 16.8343C13.675 16.56 14.2693 16.5829 14.555 16.88C14.5893 16.9143 14.6465 17.04 14.6808 17.12C14.7722 17.3029 14.8408 17.4743 14.9893 17.5657C15.0808 17.6229 15.1836 17.6457 15.2865 17.6571C15.355 17.68 15.435 17.6914 15.4808 17.7143C15.8693 17.9086 15.9608 18.2857 15.9265 18.56C15.8808 18.8229 15.6865 19.1429 15.2636 19.2C15.1036 19.2229 14.8408 19.1657 14.5893 19.1086C14.1093 19.0057 13.5836 18.88 13.2179 19.1657C13.0008 19.3371 12.8865 19.6229 12.875 20.0229V20.0686L12.8979 20.1257C13.0008 20.4114 13.4693 20.6286 14.8293 21.12C15.195 21.2571 15.5379 21.3829 15.6636 21.4514C16.4636 21.8857 16.955 22.6286 17.0122 23.5086Z" fill="#003DFF"/>
</g>
<defs>
<clipPath id="clip0_23259_12547">
<rect width="36" height="36" fill="white" transform="translate(0.223633)"/>
</clipPath>
</defs>
</svg>
