<svg width="37" height="36" viewBox="0 0 37 36" fill="none" xmlns="http://www.w3.org/2000/svg">
<g id="My Accounts" clip-path="url(#clip0_23259_12534)">
<path id="Vector" d="M18.2236 36C8.32363 36 0.223633 27.9 0.223633 18C0.223633 8.1 8.32363 0 18.2236 0C28.1236 0 36.2236 8.1 36.2236 18C36.2236 27.9 28.1236 36 18.2236 36ZM18.2236 1.6875C9.22363 1.6875 1.91113 9 1.91113 18C1.91113 27 9.22363 34.3125 18.2236 34.3125C27.2236 34.3125 34.5361 27 34.5361 18C34.5361 9 27.2236 1.6875 18.2236 1.6875Z" fill="#374151"/>
<path id="Vector_2" fill-rule="evenodd" clip-rule="evenodd" d="M18.2237 17.8875C20.6987 17.8875 22.6112 15.975 22.6112 13.5C22.6112 11.025 20.6987 9.1125 18.2237 9.1125C15.7487 9.1125 13.8362 11.025 13.8362 13.5C13.8362 15.975 15.7487 17.8875 18.2237 17.8875ZM18.2237 19.575C21.5987 19.575 24.2987 16.875 24.2987 13.5C24.2987 10.125 21.5987 7.425 18.2237 7.425C14.8487 7.425 12.1487 10.125 12.1487 13.5C12.1487 16.875 14.8487 19.575 18.2237 19.575Z" fill="#374151"/>
<path id="Vector_3" d="M26.6612 23.85H18.7862C18.3362 23.85 17.8862 23.5125 17.8862 22.95C17.8862 22.3875 18.2237 22.05 18.7862 22.05H26.6612C27.1112 22.05 27.5612 22.3875 27.5612 22.95C27.5612 23.5125 27.2237 23.85 26.6612 23.85Z" fill="#003DFF"/>
<path id="Vector_4" d="M26.6612 26.55H18.7862C18.3362 26.55 17.8862 26.2125 17.8862 25.65C17.8862 25.0875 18.2237 24.75 18.7862 24.75H26.6612C27.1112 24.75 27.5612 25.0875 27.5612 25.65C27.5612 26.2125 27.2237 26.55 26.6612 26.55Z" fill="#003DFF"/>
<path id="Vector_5" d="M26.6612 29.3625H18.7862C18.3362 29.3625 17.8862 29.025 17.8862 28.4625C17.8862 27.9 18.2237 27.5625 18.7862 27.5625H26.6612C27.1112 27.5625 27.5612 27.9 27.5612 28.4625C27.5612 29.025 27.2237 29.3625 26.6612 29.3625Z" fill="#003DFF"/>
<path id="Vector_6" d="M9.78604 28.9125C9.33604 28.9125 8.99854 28.575 8.99854 28.125C8.99854 27.675 8.77354 23.0625 12.261 20.1375C15.0735 17.8875 19.1235 17.4375 22.4985 19.2375C22.9485 19.4625 23.061 19.9125 22.836 20.3625C22.611 20.8125 22.161 20.925 21.711 20.7C18.8985 19.2375 15.636 19.575 13.386 21.4875C10.461 23.85 10.686 27.5625 10.686 28.0125C10.686 28.4625 10.3485 28.9125 9.89854 28.9125H9.78604Z" fill="#374151"/>
</g>
<defs>
<clipPath id="clip0_23259_12534">
<rect width="36" height="36" fill="white" transform="translate(0.223633)"/>
</clipPath>
</defs>
</svg>
