<svg width="101" height="162" viewBox="0 0 101 162" fill="none" xmlns="http://www.w3.org/2000/svg">
<rect x="0.5" y="0.806641" width="99.3448" height="160.233" rx="3.5" fill="white" stroke="#D9DADD"/>
<rect x="6.58203" y="138.474" width="11.825" height="15.6018" rx="1" fill="#D9DADD"/>
<rect x="35.3672" y="138.474" width="11.825" height="15.6018" rx="1" fill="#D9DADD"/>
<rect x="6.15625" y="7.31537" width="88.0355" height="126.194" rx="1.5" fill="white" stroke="#45AE4A"/>
<rect x="11.8398" y="15.9843" width="22.3555" height="7.63281" rx="2" fill="#D9D9D9"/>
<rect x="11.8398" y="25.6171" width="22.3555" height="2.92773" rx="1.46387" fill="#D9D9D9"/>
<rect x="11.8398" y="30.5449" width="22.3555" height="2.92773" rx="1.46387" fill="#D9D9D9"/>
<rect x="76.1953" y="15.9843" width="7.81445" height="7.63281" rx="3.81641" fill="#D9D9D9"/>
<rect x="11.8398" y="54.4726" width="72.3359" height="2.92773" rx="1.46387" fill="#D9D9D9"/>
<rect x="11.8398" y="59.4003" width="72.3359" height="2.92773" rx="1.46387" fill="#D9D9D9"/>
<rect x="11.8398" y="64.3281" width="72.3359" height="2.92773" rx="1.46387" fill="#D9D9D9"/>
<rect x="61.8203" y="80.2558" width="22.3555" height="7.63281" rx="2" fill="#D9D9D9"/>
</svg>
