<svg width="16" height="16" viewBox="0 0 16 16" fill="none" xmlns="http://www.w3.org/2000/svg">
<g clip-path="url(#clip0_26004_235619)">
<path d="M3.97314 8.5H3.47314V7.5H3.97314C4.10575 7.5 4.23293 7.55268 4.3267 7.64645C4.42047 7.74021 4.47314 7.86739 4.47314 8C4.47314 8.13261 4.42047 8.25979 4.3267 8.35355C4.23293 8.44732 4.10575 8.5 3.97314 8.5ZM7.47314 10.5V7.5H7.97314C8.10575 7.5 8.23293 7.55268 8.3267 7.64645C8.42047 7.74021 8.47314 7.86739 8.47314 8V10C8.47314 10.1326 8.42047 10.2598 8.3267 10.3536C8.23293 10.4473 8.10575 10.5 7.97314 10.5H7.47314Z" fill="#B22234"/>
<path fill-rule="evenodd" clip-rule="evenodd" d="M1.47314 2C1.47314 1.60218 1.63118 1.22064 1.91248 0.93934C2.19379 0.658035 2.57532 0.5 2.97314 0.5L11.1801 0.5L14.4731 3.793V14C14.4731 14.3978 14.3151 14.7794 14.0338 15.0607C13.7525 15.342 13.371 15.5 12.9731 15.5H2.97314C2.57532 15.5 2.19379 15.342 1.91248 15.0607C1.63118 14.7794 1.47314 14.3978 1.47314 14V2ZM3.97314 6.5H2.47314V11.5H3.47314V9.5H3.97314C4.37097 9.5 4.7525 9.34196 5.0338 9.06066C5.31511 8.77936 5.47314 8.39782 5.47314 8C5.47314 7.60218 5.31511 7.22064 5.0338 6.93934C4.7525 6.65804 4.37097 6.5 3.97314 6.5ZM7.97314 6.5H6.47314V11.5H7.97314C8.37097 11.5 8.7525 11.342 9.0338 11.0607C9.31511 10.7794 9.47314 10.3978 9.47314 10V8C9.47314 7.60218 9.31511 7.22064 9.0338 6.93934C8.7525 6.65804 8.37097 6.5 7.97314 6.5ZM10.4731 11.5V6.5H13.4731V7.5H11.4731V8.5H12.4731V9.5H11.4731V11.5H10.4731Z" fill="#B22234"/>
</g>
<defs>
<clipPath id="clip0_26004_235619">
<rect width="15" height="15" fill="white" transform="translate(0.473145 0.5)"/>
</clipPath>
</defs>
</svg>
