<svg width="16" height="16" viewBox="0 0 16 16" fill="none" xmlns="http://www.w3.org/2000/svg">
<path d="M8 16C5.87827 16 3.84344 15.1571 2.34315 13.6569C0.842854 12.1566 0 10.1217 0 8C0 5.87827 0.842854 3.84344 2.34315 2.34315C3.84344 0.842854 5.87827 0 8 0C10.1217 0 12.1566 0.842854 13.6569 2.34315C15.1571 3.84344 16 5.87827 16 8C16 10.1217 15.1571 12.1566 13.6569 13.6569C12.1566 15.1571 10.1217 16 8 16ZM7.15625 10.75C6.90625 10.9688 6.8125 11.25 6.8125 11.5938C6.8125 11.9375 6.90625 12.2188 7.15625 12.4375C7.375 12.6875 7.65625 12.7812 8 12.7812C8.34375 12.7812 8.625 12.6875 8.875 12.4375C9.125 12.2188 9.21875 11.9375 9.21875 11.5938C9.21875 11.25 9.125 10.9688 8.875 10.75C8.625 10.5 8.34375 10.4062 8 10.4062C7.65625 10.4062 7.375 10.5312 7.15625 10.75ZM8.71875 9.28125L9.1875 3.1875H6.8125L7.28125 9.28125H8.71875Z" fill="#D5D5D5"/>
</svg>
