<svg width="20" height="20" viewBox="0 0 20 20" fill="none" xmlns="http://www.w3.org/2000/svg">
<path d="M19 3.5C19 12.0604 12.0604 19 3.5 19C3.11378 19 2.73086 18.9859 2.35172 18.9581C1.91662 18.9262 1.69906 18.9103 1.50103 18.7963C1.33701 18.7019 1.18146 18.5345 1.09925 18.364C1 18.1582 1 17.9181 1 17.438V14.6207C1 14.2169 1 14.015 1.06645 13.842C1.12515 13.6891 1.22049 13.553 1.3441 13.4456C1.48403 13.324 1.67376 13.255 2.05321 13.117L5.26005 11.9509C5.70153 11.7904 5.92227 11.7101 6.1317 11.7237C6.31637 11.7357 6.49408 11.7988 6.64506 11.9058C6.81628 12.0271 6.93713 12.2285 7.17882 12.6314L8 14C10.6499 12.7999 12.7981 10.6489 14 8L12.6314 7.17882C12.2285 6.93713 12.0271 6.81628 11.9058 6.64506C11.7988 6.49408 11.7357 6.31637 11.7237 6.1317C11.7101 5.92227 11.7904 5.70153 11.9509 5.26005L13.117 2.05321C13.255 1.67376 13.324 1.48403 13.4456 1.3441C13.553 1.22049 13.6891 1.12515 13.842 1.06645C14.015 1 14.2169 1 14.6207 1H17.438C17.9181 1 18.1582 1 18.364 1.09925C18.5345 1.18146 18.7019 1.33701 18.7963 1.50103C18.9103 1.69907 18.9262 1.91662 18.9581 2.35173C18.9859 2.73086 19 3.11378 19 3.5Z" stroke="#1D4ED8" stroke-width="1.95" stroke-linecap="round" stroke-linejoin="round"/>
</svg>
