<svg width="86" height="25" viewBox="0 0 86 25" fill="none" xmlns="http://www.w3.org/2000/svg">
<path d="M26.7856 15.7068C26.6528 15.863 26.4497 16.0349 26.1763 16.2224C25.9028 16.4099 25.5474 16.5701 25.1099 16.7029C24.6763 16.8357 24.147 16.9021 23.522 16.9021C22.7837 16.9021 22.1372 16.7419 21.5825 16.4216C21.0278 16.0974 20.5942 15.6287 20.2817 15.0154C19.9731 14.3982 19.8188 13.6501 19.8188 12.7712V12.2732C19.8188 11.3904 19.9653 10.6423 20.2583 10.0291C20.5552 9.41187 20.9712 8.94116 21.5063 8.61694C22.0454 8.29272 22.6763 8.13062 23.3989 8.13062C24.1372 8.13062 24.7446 8.25171 25.2212 8.4939C25.6978 8.73608 26.061 9.07202 26.311 9.50171C26.5649 9.92749 26.7231 10.4158 26.7856 10.9666H25.063C25.02 10.6814 24.938 10.4333 24.8169 10.2224C24.6958 10.0115 24.5239 9.84937 24.3013 9.73608C24.0825 9.6189 23.7974 9.5603 23.4458 9.5603C23.0474 9.5603 22.7114 9.66187 22.438 9.86499C22.1685 10.0681 21.9634 10.3708 21.8228 10.7732C21.6821 11.1716 21.6118 11.6677 21.6118 12.2615V12.7712C21.6118 13.3611 21.688 13.8572 21.8403 14.2595C21.9966 14.6619 22.2231 14.9646 22.52 15.1677C22.8169 15.3708 23.1821 15.4724 23.6157 15.4724C23.897 15.4724 24.1294 15.4509 24.313 15.408C24.4966 15.3611 24.6431 15.3064 24.7524 15.2439C24.8657 15.1814 24.9536 15.1189 25.0161 15.0564V13.5916H23.4282V12.2966H26.7856V15.7068ZM27.8345 13.5564C27.8345 12.9392 27.9517 12.3884 28.186 11.9041C28.4204 11.4158 28.7603 11.031 29.2056 10.7498C29.6548 10.4685 30.1978 10.3279 30.8345 10.3279C31.479 10.3279 32.0239 10.4685 32.4692 10.7498C32.9185 11.031 33.2583 11.4158 33.4888 11.9041C33.7231 12.3884 33.8403 12.9392 33.8403 13.5564V13.6794C33.8403 14.2927 33.7231 14.8435 33.4888 15.3318C33.2583 15.8201 32.9204 16.2048 32.4751 16.4861C32.0298 16.7634 31.4868 16.9021 30.8462 16.9021C30.2056 16.9021 29.6606 16.7634 29.2114 16.4861C28.7622 16.2048 28.4204 15.8201 28.186 15.3318C27.9517 14.8435 27.8345 14.2927 27.8345 13.6794V13.5564ZM29.5454 13.6794C29.5454 14.0193 29.5864 14.3298 29.6685 14.6111C29.7544 14.8923 29.8911 15.1169 30.0786 15.2849C30.27 15.449 30.5259 15.531 30.8462 15.531C31.1587 15.531 31.4087 15.449 31.5962 15.2849C31.7876 15.1169 31.9263 14.8923 32.0122 14.6111C32.0981 14.3298 32.1411 14.0193 32.1411 13.6794V13.5564C32.1411 13.2205 32.0981 12.9119 32.0122 12.6306C31.9263 12.3494 31.7876 12.1248 31.5962 11.9568C31.4087 11.7849 31.1548 11.699 30.8345 11.699C30.522 11.699 30.27 11.7849 30.0786 11.9568C29.8911 12.1248 29.7544 12.3494 29.6685 12.6306C29.5864 12.9119 29.5454 13.2205 29.5454 13.5564V13.6794ZM34.6313 13.5564C34.6313 12.9392 34.7485 12.3884 34.9829 11.9041C35.2173 11.4158 35.5571 11.031 36.0024 10.7498C36.4517 10.4685 36.9946 10.3279 37.6313 10.3279C38.2759 10.3279 38.8208 10.4685 39.2661 10.7498C39.7153 11.031 40.0552 11.4158 40.2856 11.9041C40.52 12.3884 40.6372 12.9392 40.6372 13.5564V13.6794C40.6372 14.2927 40.52 14.8435 40.2856 15.3318C40.0552 15.8201 39.7173 16.2048 39.272 16.4861C38.8267 16.7634 38.2837 16.9021 37.6431 16.9021C37.0024 16.9021 36.4575 16.7634 36.0083 16.4861C35.5591 16.2048 35.2173 15.8201 34.9829 15.3318C34.7485 14.8435 34.6313 14.2927 34.6313 13.6794V13.5564ZM36.3423 13.6794C36.3423 14.0193 36.3833 14.3298 36.4653 14.6111C36.5513 14.8923 36.688 15.1169 36.8755 15.2849C37.0669 15.449 37.3228 15.531 37.6431 15.531C37.9556 15.531 38.2056 15.449 38.3931 15.2849C38.5845 15.1169 38.7231 14.8923 38.8091 14.6111C38.895 14.3298 38.938 14.0193 38.938 13.6794V13.5564C38.938 13.2205 38.895 12.9119 38.8091 12.6306C38.7231 12.3494 38.5845 12.1248 38.3931 11.9568C38.2056 11.7849 37.9517 11.699 37.6313 11.699C37.3188 11.699 37.0669 11.7849 36.8755 11.9568C36.688 12.1248 36.5513 12.3494 36.4653 12.6306C36.3833 12.9119 36.3423 13.2205 36.3423 13.5564V13.6794ZM44.1938 19.281C43.9399 19.281 43.6626 19.2458 43.3618 19.1755C43.0649 19.1052 42.7798 18.9958 42.5063 18.8474C42.2368 18.7029 42.0122 18.5173 41.8325 18.2908L42.5884 17.2537C42.7837 17.4724 43.0103 17.6443 43.2681 17.7693C43.5298 17.8943 43.813 17.9568 44.1177 17.9568C44.5669 17.9568 44.9165 17.8357 45.1665 17.5935C45.4165 17.3552 45.5415 17.0154 45.5415 16.574V11.9158L45.6997 10.4451H47.2524V16.5681C47.2524 17.1462 47.1235 17.6365 46.8657 18.0388C46.6079 18.4451 46.2485 18.7537 45.7876 18.9646C45.3306 19.1755 44.7993 19.281 44.1938 19.281ZM44.0063 16.9021C43.4829 16.9021 43.0278 16.7634 42.6411 16.4861C42.2583 16.2048 41.9614 15.822 41.7505 15.3376C41.5435 14.8533 41.4399 14.3044 41.4399 13.6912V13.5681C41.4399 12.9236 41.5435 12.3591 41.7505 11.8748C41.9614 11.3865 42.2583 11.0076 42.6411 10.738C43.0278 10.4646 43.4868 10.3279 44.0181 10.3279C44.4399 10.3279 44.7935 10.408 45.0786 10.5681C45.3677 10.7283 45.604 10.9529 45.7876 11.2419C45.9712 11.531 46.1157 11.8708 46.2212 12.2615C46.3267 12.6521 46.4087 13.0779 46.4673 13.5388V13.7673C46.3892 14.3533 46.2563 14.8826 46.0688 15.3552C45.8853 15.8279 45.6255 16.2048 45.2896 16.4861C44.9536 16.7634 44.5259 16.9021 44.0063 16.9021ZM44.4399 15.5193C44.7446 15.5193 44.9927 15.4548 45.1841 15.3259C45.3755 15.197 45.52 15.0173 45.6177 14.7869C45.7153 14.5564 45.7739 14.2927 45.7935 13.9958V13.3103C45.7817 13.0603 45.7466 12.8376 45.688 12.6423C45.6333 12.4431 45.5513 12.2751 45.4419 12.1384C45.3325 12.0017 45.1958 11.8962 45.0317 11.822C44.8716 11.7478 44.6782 11.7107 44.4517 11.7107C44.1587 11.7107 43.9146 11.7927 43.7192 11.9568C43.5278 12.1208 43.3853 12.3435 43.2915 12.6248C43.1978 12.9021 43.1509 13.2166 43.1509 13.5681V13.6912C43.1509 14.031 43.1958 14.3396 43.2856 14.6169C43.3794 14.8904 43.52 15.1091 43.7075 15.2732C43.8989 15.4373 44.1431 15.5193 44.4399 15.5193ZM50.3462 16.7849H48.6411V7.78491H50.3462V16.7849ZM54.6587 16.9021C54.0024 16.9021 53.438 16.7634 52.9653 16.4861C52.4966 16.2087 52.1372 15.8396 51.8872 15.3787C51.6372 14.9138 51.5122 14.3982 51.5122 13.8318V13.6033C51.5122 12.9666 51.6313 12.4021 51.8696 11.9099C52.1118 11.4138 52.4536 11.0271 52.895 10.7498C53.3403 10.4685 53.8657 10.3279 54.4712 10.3279C55.0845 10.3279 55.5981 10.4587 56.0122 10.7205C56.4263 10.9783 56.7388 11.3416 56.9497 11.8103C57.1606 12.2751 57.2661 12.8201 57.2661 13.4451V14.1716H52.2446V13.0056H55.5903V12.8708C55.5864 12.6482 55.5454 12.449 55.4673 12.2732C55.3892 12.0935 55.2681 11.9529 55.104 11.8513C54.9399 11.7498 54.7251 11.699 54.4595 11.699C54.1665 11.699 53.9282 11.783 53.7446 11.9509C53.561 12.115 53.4263 12.3396 53.3403 12.6248C53.2544 12.9099 53.2114 13.2361 53.2114 13.6033V13.8318C53.2114 14.1638 53.272 14.4568 53.3931 14.7107C53.5181 14.9646 53.6978 15.1638 53.9321 15.3083C54.1665 15.4529 54.4458 15.5251 54.77 15.5251C55.0786 15.5251 55.3638 15.4685 55.6255 15.3552C55.8872 15.238 56.1118 15.0583 56.2993 14.8162L57.1313 15.7537C56.9321 16.0427 56.6255 16.3064 56.2114 16.5447C55.8013 16.783 55.2837 16.9021 54.6587 16.9021ZM62.5044 13.7791V12.3494H64.6606C64.9966 12.3494 65.2681 12.2947 65.4751 12.1853C65.6821 12.0759 65.8345 11.9275 65.9321 11.74C66.0298 11.5486 66.0786 11.3298 66.0786 11.0837C66.0786 10.8416 66.0298 10.615 65.9321 10.4041C65.8345 10.1892 65.6821 10.0173 65.4751 9.88843C65.2681 9.75562 64.9966 9.68921 64.6606 9.68921H63.1021V16.7849H61.3208V8.25366H64.6606C65.3325 8.25366 65.9087 8.37671 66.3892 8.6228C66.8696 8.86499 67.2368 9.19897 67.4907 9.62476C67.7446 10.0466 67.8716 10.5291 67.8716 11.072C67.8716 11.6228 67.7446 12.1013 67.4907 12.5076C67.2368 12.9138 66.8696 13.2283 66.3892 13.4509C65.9087 13.6697 65.3325 13.7791 64.6606 13.7791H62.5044ZM70.7603 16.7849H69.0552V7.78491H70.7603V16.7849ZM75.5767 12.5486C75.5767 12.2556 75.5005 12.0232 75.3481 11.8513C75.1997 11.6755 74.9653 11.5876 74.645 11.5876C74.4614 11.5876 74.3013 11.6189 74.1646 11.6814C74.0317 11.74 73.9282 11.8259 73.854 11.9392C73.7837 12.0525 73.7485 12.1892 73.7485 12.3494H72.0435C72.0435 11.9783 72.1528 11.6404 72.3716 11.3357C72.5942 11.031 72.9067 10.7869 73.3091 10.6033C73.7153 10.4197 74.1919 10.3279 74.7388 10.3279C75.2271 10.3279 75.6626 10.4099 76.0454 10.574C76.4321 10.738 76.7349 10.9861 76.9536 11.3181C77.1763 11.6501 77.2876 12.0642 77.2876 12.5603V15.238C77.2876 15.5974 77.3091 15.8884 77.3521 16.1111C77.395 16.3298 77.4575 16.5212 77.5396 16.6853V16.7849H75.8169C75.7388 16.6091 75.6782 16.3904 75.6353 16.1287C75.5962 15.863 75.5767 15.5955 75.5767 15.3259V12.5486ZM75.7993 13.9021H74.8911C74.4419 13.9021 74.1157 13.9958 73.9126 14.1833C73.7095 14.3669 73.6079 14.5974 73.6079 14.8748C73.6079 15.0818 73.6802 15.2556 73.8247 15.3962C73.9731 15.533 74.1743 15.6013 74.4282 15.6013C74.6782 15.6013 74.895 15.5525 75.0786 15.4548C75.2661 15.3533 75.4106 15.2322 75.5122 15.0916C75.6138 14.947 75.6626 14.8142 75.6587 14.6931L76.1157 15.4314C76.061 15.5916 75.979 15.7576 75.8696 15.9294C75.7642 16.0974 75.6294 16.2556 75.4653 16.4041C75.3013 16.5486 75.1021 16.6677 74.8677 16.7615C74.6372 16.8552 74.3677 16.9021 74.0591 16.9021C73.6528 16.9021 73.2856 16.822 72.9575 16.6619C72.6333 16.4978 72.3755 16.2732 72.1841 15.988C71.9927 15.699 71.897 15.3689 71.897 14.9978C71.897 14.3337 72.1431 13.8201 72.6353 13.4568C73.1313 13.0935 73.8618 12.9119 74.8267 12.9119H75.7993V13.9021ZM82.1274 10.4451H83.9556L81.4185 17.7341C81.3638 17.8943 81.2896 18.0662 81.1958 18.2498C81.1021 18.4373 80.9771 18.613 80.8208 18.7771C80.6685 18.9451 80.4751 19.0818 80.2407 19.1873C80.0103 19.2927 79.7271 19.3455 79.3911 19.3455C79.2856 19.3455 79.1919 19.3416 79.1099 19.3337C79.0317 19.3259 78.9556 19.3123 78.8813 19.2927C78.8071 19.2771 78.7251 19.2576 78.6353 19.2341V17.9451C78.6782 17.9451 78.7231 17.9451 78.77 17.9451C78.8169 17.949 78.8599 17.9509 78.8989 17.9509C79.231 17.9509 79.4771 17.8962 79.6372 17.7869C79.7974 17.6814 79.9185 17.5115 80.0005 17.2771L80.4634 16.0642L82.1274 10.4451ZM81.1489 14.9744L81.3892 16.8435L80.2349 16.9548L77.9614 10.4451H79.8013L81.1489 14.9744Z" fill="#6B7280"/>
<g clip-path="url(#clip0_16954_195)">
<path d="M6.19811 12.2747L0.411082 18.9954L0.234934 19.202C0.125422 19.0286 0.0516211 18.822 0.0349688 18.5925C0.0302109 18.5517 0.027832 18.5108 0.027832 18.47V6.07689C0.027832 5.79892 0.106391 5.54896 0.234934 5.34485L6.19811 12.2747Z" fill="#59A6CA"/>
<path d="M8.79994 9.24976L6.19804 12.2748L0.234863 5.34484C0.572887 4.81436 1.26323 4.5874 1.84886 4.94956L8.79994 9.24976Z" fill="#B6D9A2"/>
<path d="M12.4709 12.3104C12.4614 12.7338 12.259 13.1572 11.8662 13.3995L8.80014 15.2971L6.19824 12.2747L8.80014 9.24976L10.7284 10.4435L11.8662 11.1473C12.2828 11.405 12.4852 11.859 12.4709 12.3104Z" fill="#F0CE89"/>
<path d="M0.235352 19.2017C0.573539 19.7324 1.26345 19.9586 1.84798 19.597L8.79898 15.2972L6.19705 12.2735L0.235352 19.2017Z" fill="#B6547C"/>
<path opacity="0.2" d="M12.4437 11.9933C12.3767 11.6559 12.1844 11.3442 11.8661 11.1473L10.7282 10.4435L8.80001 9.24976L1.84893 4.94956C1.2633 4.5874 0.572957 4.81436 0.234934 5.34484C0.106391 5.54895 0.027832 5.79891 0.027832 6.07688V13.2171C1.03083 13.3083 2.05745 13.3562 3.10266 13.3562C4.41473 13.3562 5.69622 13.2787 6.93948 13.1363L6.20046 12.2775L6.93978 13.1363C8.88688 12.9133 10.7347 12.5237 12.4437 11.9933Z" fill="white"/>
</g>
<defs>
<clipPath id="clip0_16954_195">
<rect width="14" height="15" fill="white" transform="translate(0.027832 4.77319)"/>
</clipPath>
</defs>
</svg>
