<svg width="17" height="17" viewBox="0 0 17 17" fill="none" xmlns="http://www.w3.org/2000/svg">
<path fill-rule="evenodd" clip-rule="evenodd" d="M8.60352 15.3729C12.361 15.3729 15.407 12.3259 15.407 8.56946C15.407 4.81297 12.361 1.76599 8.60352 1.76599C4.84606 1.76599 1.80005 4.81297 1.80005 8.56946C1.80005 12.3259 4.84606 15.3729 8.60352 15.3729ZM8.60352 0.794067C12.898 0.794067 16.3789 4.27355 16.3789 8.56946C16.3789 12.8654 12.898 16.3448 8.60352 16.3448C4.30907 16.3448 0.828125 12.8654 0.828125 8.56946C0.828125 4.27355 4.30907 0.794067 8.60352 0.794067ZM5.68774 8.0835H8.11755V5.65369C8.11755 5.38641 8.33478 5.16772 8.60352 5.16772C8.87225 5.16772 9.08948 5.38641 9.08948 5.65369V8.0835H11.5193C11.788 8.0835 12.0052 8.30218 12.0052 8.56946C12.0052 8.83674 11.788 9.05542 11.5193 9.05542H9.08948V11.4852C9.08948 11.7525 8.87225 11.9712 8.60352 11.9712C8.33478 11.9712 8.11755 11.7525 8.11755 11.4852V9.05542H5.68774C5.41901 9.05542 5.20178 8.83674 5.20178 8.56946C5.20178 8.30218 5.41901 8.0835 5.68774 8.0835Z" fill="#464455"/>
</svg>
