<svg width="20" height="24" viewBox="0 0 20 24" fill="none" xmlns="http://www.w3.org/2000/svg">
<path d="M9.06137 14.7508C8.96283 14.7513 8.86519 14.7321 8.77418 14.6943C8.68316 14.6565 8.60061 14.6009 8.53137 14.5308L6.06137 12.0608L3.59137 14.5308C3.44919 14.6633 3.26115 14.7354 3.06685 14.732C2.87255 14.7286 2.68716 14.6499 2.54975 14.5124C2.41233 14.375 2.33362 14.1896 2.33019 13.9953C2.32677 13.801 2.39889 13.613 2.53137 13.4708L5.53137 10.4708C5.672 10.3304 5.86262 10.2515 6.06137 10.2515C6.26012 10.2515 6.45074 10.3304 6.59137 10.4708L9.06137 12.9408L12.5314 9.47082C12.6735 9.33834 12.8616 9.26622 13.0559 9.26965C13.2502 9.27308 13.4356 9.35179 13.573 9.4892C13.7104 9.62662 13.7891 9.812 13.7925 10.0063C13.796 10.2006 13.7239 10.3886 13.5914 10.5308L9.59137 14.5308C9.52213 14.6009 9.43958 14.6565 9.34856 14.6943C9.25755 14.7321 9.15991 14.7513 9.06137 14.7508Z" fill="#15803D"/>
<path d="M13.5615 13.84C13.3634 13.8374 13.1742 13.7576 13.0341 13.6175C12.894 13.4774 12.8141 13.2881 12.8115 13.09V10.25H10.0615C9.86261 10.25 9.67185 10.171 9.53119 10.0303C9.39054 9.88968 9.31152 9.69891 9.31152 9.5C9.31152 9.30109 9.39054 9.11032 9.53119 8.96967C9.67185 8.82902 9.86261 8.75 10.0615 8.75H13.5615C13.7596 8.75259 13.9489 8.83244 14.089 8.97253C14.2291 9.11263 14.3089 9.30189 14.3115 9.5V13.09C14.3089 13.2881 14.2291 13.4774 14.089 13.6175C13.9489 13.7576 13.7596 13.8374 13.5615 13.84Z" fill="#15803D"/>
</svg>
