<svg
		id="Group_7281" data-name="Group 7281" xmlns="http://www.w3.org/2000/svg" width="45.014" height="45"
		viewBox="0 0 45.014 45"
>
  <defs>
    <clipPath id="clip-path">
      <rect id="Rectangle_3017" data-name="Rectangle 3017" width="45.014" height="45" fill="none"/>
    </clipPath>
  </defs>
  <g id="Group_7280" data-name="Group 7280" clip-path="url(#clip-path)">
    <path id="Path_7033" data-name="Path 7033" d="M0,39.023c.362-1.261.657-2.546,1.1-3.777a21.921,21.921,0,0,1,4.316-7.181,22.672,22.672,0,0,1,9.6-6.429c.092-.032.178-.08.3-.136a11.85,11.85,0,0,1-4.751-9.594,11.524,11.524,0,0,1,3.5-8.409,11.96,11.96,0,1,1,15.666,18c.826.343,1.654.668,2.466,1.028a1.754,1.754,0,1,1-1.34,3.242A35.94,35.94,0,0,0,27.27,24.5a18.845,18.845,0,0,0-13.561,1.54,19.172,19.172,0,0,0-8.484,8.5,18.471,18.471,0,0,0-1.662,4.748,1.789,1.789,0,0,0,1.492,2.159,4.054,4.054,0,0,0,.656.037q10.483,0,20.965.007a2.753,2.753,0,0,1,.947.129,1.657,1.657,0,0,1,1.118,1.54,1.73,1.73,0,0,1-1,1.667c-.13.062-.264.117-.4.175H4.66a.992.992,0,0,0-.2-.08A5.123,5.123,0,0,1,.636,42.143,12.981,12.981,0,0,1,0,40.341V39.023M22.5,3.509a8.436,8.436,0,1,0,8.446,8.443A8.466,8.466,0,0,0,22.5,3.509" transform="translate(0 -0.001)" fill="#01031c"/>
    <path id="Path_7034" data-name="Path 7034" d="M265.2,273.772a1.986,1.986,0,0,1-1.417-2.194c.043-1.447.011-2.9.011-4.4h-.5c-1.392,0-2.784,0-4.176,0a1.764,1.764,0,1,1,.006-3.514c1.536,0,3.073,0,4.666,0v-.493c0-1.392,0-2.784,0-4.176a1.764,1.764,0,1,1,3.514,0c0,1.536,0,3.073,0,4.669h.49c1.392,0,2.784,0,4.176,0a1.764,1.764,0,1,1,.006,3.514c-1.537,0-3.074,0-4.672,0v.487c0,1.3-.033,2.609.01,3.911a1.982,1.982,0,0,1-1.417,2.194Z" transform="translate(-228.887 -228.772)" fill="#ff6805"/>
  </g>
</svg>
