<svg width="44" height="44" viewBox="0 0 44 44" fill="none" xmlns="http://www.w3.org/2000/svg">
<path d="M31.1663 14.6667C31.1663 16.4797 30.6287 18.2519 29.6215 19.7594C28.6142 21.2668 27.1826 22.4418 25.5076 23.1356C23.8326 23.8294 21.9895 24.0109 20.2113 23.6572C18.4332 23.3035 16.7998 22.4305 15.5179 21.1485C14.2359 19.8665 13.3628 18.2332 13.0091 16.455C12.6554 14.6768 12.837 12.8337 13.5308 11.1587C14.2246 9.48375 15.3995 8.05211 16.9069 7.04486C18.4144 6.03762 20.1867 5.5 21.9997 5.5C24.4308 5.5 26.7624 6.46577 28.4815 8.18485C30.2006 9.90394 31.1663 12.2355 31.1663 14.6667ZM23.833 23.8333H20.1663C16.7627 23.8333 13.4985 25.1854 11.0918 27.5921C8.68509 29.9988 7.33301 33.2631 7.33301 36.6667C7.33301 37.1529 7.52616 37.6192 7.86998 37.963C8.2138 38.3068 8.68011 38.5 9.16634 38.5H34.833C35.3192 38.5 35.7856 38.3068 36.1294 37.963C36.4732 37.6192 36.6663 37.1529 36.6663 36.6667C36.6663 33.2631 35.3143 29.9988 32.9075 27.5921C30.5008 25.1854 27.2366 23.8333 23.833 23.8333Z" stroke="#01031C" stroke-width="3" stroke-linecap="round" stroke-linejoin="round"/>
</svg>
