<svg width="50" height="51" viewBox="0 0 50 51" fill="none" xmlns="http://www.w3.org/2000/svg">
<path d="M24.9993 25.5026C22.755 25.5026 20.9375 24.0164 20.9375 22.1849C20.9375 20.3533 22.755 18.8672 24.9993 18.8672C27.2435 18.8672 29.0612 20.351 29.0612 22.1849" stroke="#FF6805" stroke-width="2" stroke-linecap="round" stroke-linejoin="round"/>
<path d="M24.9993 25.502C27.2412 25.502 29.0612 26.9858 29.0612 28.8196C29.0612 30.6535 27.2412 32.1326 24.9993 32.1326C22.7575 32.1326 20.9375 30.6465 20.9375 28.8149" stroke="#FF6805" stroke-width="2" stroke-linecap="round" stroke-linejoin="round"/>
<path d="M25.0005 17.0859V33.9131" stroke="#FF6805" stroke-width="2" stroke-linecap="round" stroke-linejoin="round"/>
<path d="M15.6263 7.57234L12.2929 10.9058C12.1054 11.0933 12 11.3476 12 11.6129V39.3868C12 39.652 12.1054 39.9063 12.2929 40.0939L15.6263 43.4273C16.0168 43.8178 16.65 43.8178 17.0405 43.4273L19.9597 40.5081C20.3502 40.1176 20.9834 40.1176 21.3739 40.5081L24.2931 43.4273C24.6836 43.8178 25.3168 43.8178 25.7073 43.4273L28.6265 40.5081C29.0171 40.1176 29.6502 40.1176 30.0407 40.5081L32.9599 43.4273C33.3505 43.8178 33.9836 43.8178 34.3742 43.4273L37.7076 40.0939C37.8951 39.9063 38.0005 39.652 38.0005 39.3868V11.6129C38.0005 11.3476 37.8951 11.0933 37.7076 10.9058L34.3742 7.57234C33.9836 7.18182 33.3505 7.18182 32.9599 7.57234L30.0407 10.4915C29.6502 10.8821 29.0171 10.8821 28.6265 10.4915L25.7073 7.57234C25.3168 7.18182 24.6836 7.18182 24.2931 7.57234L21.3739 10.4915C20.9834 10.8821 20.3502 10.8821 19.9597 10.4915L17.0405 7.57234C16.65 7.18182 16.0168 7.18182 15.6263 7.57234Z" stroke="#2947F2" stroke-width="2" stroke-linecap="round" stroke-linejoin="round"/>
</svg>
