<svg width="19" height="19" viewBox="0 0 19 19" fill="none" xmlns="http://www.w3.org/2000/svg">
<path d="M3.39304 2.21421H2.89304V2.71421L2.89304 16.2855V16.7855H3.39304H9.00013V17.1428H2.53577L2.53577 1.85693L15.1072 1.85693V7.64275H14.7501V2.71421V2.21421H14.2501L3.39304 2.21421Z" fill="#0F1F3C" stroke="#1E40AF"/>
<path d="M13.0085 16.5728L13.2321 16.6846L13.4557 16.5728L13.5945 16.5034C15.1432 15.7291 16.1071 14.1695 16.1071 12.4379V11.6395V11.3305L15.8307 11.1923L13.4557 10.0048L13.2321 9.89296L13.0085 10.0048L10.6335 11.1923L10.3571 11.3305V11.6395V12.4379C10.3571 14.1693 11.3209 15.7291 12.8697 16.5034L13.0085 16.5728ZM10 11.1098L13.2321 9.4936L16.4642 11.1098V12.4381C16.4642 14.2951 15.415 15.9926 13.7542 16.823C13.7542 16.823 13.7542 16.823 13.7542 16.8231L13.2321 17.084L12.71 16.8231C12.71 16.823 12.71 16.823 12.7099 16.823C11.0491 15.9926 10 14.2951 10 12.4381V11.1098Z" fill="#0F1F3C" stroke="#1E40AF"/>
<path d="M12.2066 12.6767L11.5325 13.4395L13.2627 14.969L15.3766 12.5367L14.6087 11.8687L13.1681 13.5264L12.2066 12.6767ZM4.75 4.75L12.8929 4.75V6.10709H4.75V4.75ZM4.75 8.14291H10.1785V9.5H4.75V8.14291ZM4.75 11.5356H7.46436V12.8927H4.75L4.75 11.5356Z" fill="#1E40AF"/>
</svg>
