<svg width="19" height="19" viewBox="0 0 19 19" fill="none" xmlns="http://www.w3.org/2000/svg">
<path d="M9.49998 17.4167C13.8722 17.4167 17.4166 13.8722 17.4166 9.49999C17.4166 5.12774 13.8722 1.58333 9.49998 1.58333C5.12772 1.58333 1.58331 5.12774 1.58331 9.49999C1.58331 13.8722 5.12772 17.4167 9.49998 17.4167Z" stroke="white" stroke-width="0.791667" stroke-linecap="round" stroke-linejoin="round"/>
<path d="M7.19629 7.12501C7.38241 6.59591 7.74978 6.14976 8.23334 5.86557C8.71689 5.58138 9.28541 5.4775 9.83822 5.57232C10.391 5.66714 10.8924 5.95455 11.2536 6.38363C11.6148 6.81272 11.8125 7.3558 11.8117 7.91667C11.8117 9.50001 9.43671 10.2917 9.43671 10.2917" stroke="white" stroke-width="0.791667" stroke-linecap="round" stroke-linejoin="round"/>
<path d="M9.5 13.4583H9.50792" stroke="white" stroke-width="1.58333" stroke-linecap="round" stroke-linejoin="round"/>
</svg>
