<svg width="18" height="18" viewBox="0 0 18 18" fill="none" xmlns="http://www.w3.org/2000/svg">
<g id="question-mark_svgrepo.com" clip-path="url(#clip0_14441_4531)">
<g id="Group">
<path id="Vector" d="M8.66504 0.697266C3.97055 0.697266 0.165039 4.50284 0.165039 9.19727C0.165039 13.8917 3.97055 17.6973 8.66504 17.6973C13.3594 17.6973 17.165 13.8917 17.165 9.19727C17.165 4.50284 13.3594 0.697266 8.66504 0.697266Z" fill="#374151"/>
<path id="Vector_2" d="M9.49378 11.6064H7.93848V13.1054H9.49378V11.6064Z" fill="white"/>
<path id="Vector_3" d="M10.3279 5.88088C10.1099 5.68926 9.85629 5.54267 9.5672 5.44113C9.27783 5.33983 8.97552 5.28906 8.65989 5.28906C8.32915 5.28906 8.02119 5.34186 7.73571 5.44684C7.45 5.55213 7.20024 5.70045 6.98612 5.8921C6.77199 6.08375 6.60299 6.32042 6.47904 6.60211C6.35499 6.88388 6.29297 7.19768 6.29297 7.54309H7.75826C7.75826 7.28029 7.83323 7.05856 7.98354 6.8781C8.13375 6.69794 8.3592 6.60789 8.65985 6.60789C8.94533 6.60789 9.16879 6.69624 9.33046 6.87265C9.49196 7.04936 9.57274 7.26916 9.57274 7.53193C9.57274 7.6599 9.5407 7.78753 9.47688 7.9152C9.41307 8.04316 9.33603 8.16708 9.24582 8.28697L8.53992 9.19116C8.38961 9.38653 7.98351 9.95178 7.98351 10.5298V10.868H9.44873V10.6313C9.44873 10.5338 9.46739 10.4323 9.50514 10.3269C9.54256 10.222 9.7194 9.96489 9.77966 9.88972L10.4857 8.95197C10.6435 8.74169 10.7747 8.52567 10.8802 8.30391C10.9853 8.08244 11.038 7.82884 11.038 7.54312C11.038 7.18254 10.974 6.86319 10.8463 6.58521C10.7185 6.3072 10.5457 6.07222 10.3279 5.88088Z" fill="white"/>
</g>
</g>
<defs>
<clipPath id="clip0_14441_4531">
<rect width="17" height="17" fill="white" transform="translate(0.165039 0.697266)"/>
</clipPath>
</defs>
</svg>
