<svg width="14" height="15" viewBox="0 0 14 15" fill="none" xmlns="http://www.w3.org/2000/svg">
<path d="M7.10459 1.49219C3.75554 1.49219 1.03125 4.21623 1.03125 7.56553C1.03125 10.9143 3.75529 13.6389 7.10459 13.6389C10.4534 13.6389 13.1779 10.9143 13.1779 7.56553C13.1777 4.21623 10.4532 1.49219 7.10459 1.49219ZM7.84542 10.9104C7.84542 11.083 7.77085 11.2398 7.62416 11.3759C7.47921 11.5105 7.28511 11.5784 7.04705 11.5784C6.80184 11.5784 6.59959 11.511 6.44673 11.3774C6.29017 11.2413 6.21115 11.084 6.21115 10.9104V10.6118C6.21115 10.4382 6.29066 10.2809 6.44673 10.1449C6.59959 10.0118 6.80184 9.94434 7.04705 9.94434C7.28511 9.94434 7.47921 10.0127 7.62416 10.1468C7.77085 10.2829 7.84542 10.4397 7.84542 10.6118V10.9104ZM9.49057 6.43724C9.3945 6.62541 9.27177 6.79087 9.12558 6.92965C8.98211 7.06522 8.82555 7.18746 8.6596 7.2934C8.50081 7.39415 8.35141 7.50379 8.21559 7.61813C8.08249 7.73049 7.97112 7.85594 7.88395 7.99151C7.80097 8.12066 7.75875 8.28241 7.75875 8.47132V8.659C7.75875 8.78346 7.69775 8.9136 7.57724 9.04719C7.45525 9.18178 7.29202 9.25413 7.09299 9.26228L7.05175 9.26327C6.84975 9.26327 6.68528 9.20549 6.5628 9.09066C6.43142 8.96817 6.365 8.83013 6.365 8.68122C6.365 8.33303 6.4134 8.03645 6.50921 7.79914C6.60428 7.5638 6.72158 7.35958 6.85888 7.1919C6.99569 7.02448 7.14978 6.87828 7.31672 6.75679C7.47624 6.64147 7.62342 6.52713 7.75455 6.41823C7.88123 6.31254 7.99013 6.19968 8.07854 6.08387C8.15954 5.97644 8.1993 5.84631 8.1993 5.68678C8.1993 5.42354 8.12793 5.23487 7.98026 5.11041C7.8311 4.98398 7.62416 4.92002 7.36611 4.92002C7.19423 4.92002 7.04656 4.93064 6.92753 4.95187C6.81122 4.97237 6.70405 5.00694 6.60799 5.05485C6.51316 5.10177 6.42401 5.16746 6.34252 5.24895C6.25708 5.33439 6.16719 5.4423 6.07484 5.57022C5.99186 5.68703 5.86864 5.77519 5.70936 5.83248C5.54588 5.8915 5.36438 5.87569 5.17497 5.78506C5.00483 5.70011 4.90086 5.58924 4.8653 5.45465C4.83197 5.33118 4.83197 5.20153 4.86481 5.07016C4.88901 4.95829 4.95593 4.82025 5.06977 4.65159C5.18115 4.48614 5.33993 4.32538 5.54193 4.17301C5.74294 4.02139 5.99804 3.88878 6.29857 3.77963C6.60157 3.67023 6.96408 3.61467 7.37697 3.61467C7.78394 3.61467 8.13707 3.67616 8.42599 3.7979C8.7164 3.92039 8.95371 4.08362 9.13077 4.28364C9.30733 4.48342 9.43747 4.71283 9.51798 4.9657C9.59749 5.2161 9.63799 5.47737 9.63799 5.74259C9.63799 6.01151 9.58836 6.24586 9.49057 6.43724Z" fill="#A3A5AA"/>
</svg>
