<svg width="12" height="13" viewBox="0 0 12 13" fill="none" xmlns="http://www.w3.org/2000/svg">
<path d="M5.97018 10.0003C6.17435 10.0003 6.34702 9.92974 6.48818 9.78858C6.62896 9.6478 6.69935 9.47533 6.69935 9.27116C6.69935 9.06699 6.62896 8.89452 6.48818 8.75374C6.34702 8.61258 6.17435 8.54199 5.97018 8.54199C5.76602 8.54199 5.59335 8.61258 5.45218 8.75374C5.31141 8.89452 5.24102 9.06699 5.24102 9.27116C5.24102 9.47533 5.31141 9.6478 5.45218 9.78858C5.59335 9.92974 5.76602 10.0003 5.97018 10.0003ZM6.05768 3.99199C6.32991 3.99199 6.54866 4.06724 6.71393 4.21774C6.87921 4.36863 6.96185 4.5656 6.96185 4.80866C6.96185 4.97394 6.90604 5.14155 6.79443 5.31149C6.68243 5.48183 6.52435 5.65935 6.32018 5.84408C6.02852 6.09685 5.81463 6.33991 5.67852 6.57324C5.5424 6.80658 5.47435 7.03991 5.47435 7.27324C5.47435 7.40935 5.52549 7.52349 5.62777 7.61566C5.72965 7.70821 5.84866 7.75449 5.98477 7.75449C6.12088 7.75449 6.2424 7.70588 6.34935 7.60866C6.45629 7.51144 6.52435 7.38991 6.55352 7.24408C6.58268 7.0788 6.64841 6.92577 6.75068 6.78499C6.85257 6.64383 7.02018 6.46144 7.25352 6.23783C7.5549 5.95588 7.76646 5.69824 7.88818 5.46491C8.00952 5.23158 8.07018 4.97394 8.07018 4.69199C8.07018 4.19616 7.88313 3.79016 7.50902 3.47399C7.13452 3.15821 6.65074 3.00033 6.05768 3.00033C5.64935 3.00033 5.28729 3.0781 4.97152 3.23366C4.65535 3.38921 4.40977 3.62741 4.23477 3.94824C4.16671 4.07463 4.14241 4.19849 4.16185 4.31983C4.18129 4.44155 4.24935 4.5413 4.36602 4.61908C4.4924 4.69685 4.63104 4.72116 4.78193 4.69199C4.93243 4.66283 5.05629 4.58019 5.15352 4.44408C5.26046 4.29824 5.38938 4.18644 5.54027 4.10866C5.69077 4.03088 5.86324 3.99199 6.05768 3.99199ZM5.99935 12.3337C5.20213 12.3337 4.44865 12.1804 3.73893 11.874C3.02921 11.5679 2.40952 11.1524 1.87985 10.6274C1.34979 10.1024 0.931738 9.48505 0.625682 8.77533C0.319238 8.0656 0.166016 7.30727 0.166016 6.50033C0.166016 5.69338 0.319238 4.93505 0.625682 4.22533C0.931738 3.5156 1.34979 2.89824 1.87985 2.37324C2.40952 1.84824 3.02921 1.43252 3.73893 1.12608C4.44865 0.82002 5.20213 0.666992 5.99935 0.666992C6.81602 0.666992 7.57921 0.82002 8.28893 1.12608C8.99866 1.43252 9.61602 1.84824 10.141 2.37324C10.666 2.89824 11.0792 3.5156 11.3806 4.22533C11.682 4.93505 11.8327 5.69338 11.8327 6.50033C11.8327 7.30727 11.682 8.0656 11.3806 8.77533C11.0792 9.48505 10.666 10.1024 10.141 10.6274C9.61602 11.1524 8.99866 11.5679 8.28893 11.874C7.57921 12.1804 6.81602 12.3337 5.99935 12.3337Z" fill="url(#paint0_linear_5593_109403)"/>
<defs>
<linearGradient id="paint0_linear_5593_109403" x1="10.0808" y1="0.666992" x2="7.67655" y2="13.6074" gradientUnits="userSpaceOnUse">
<stop stop-color="#2947F2"/>
<stop offset="1" stop-color="#2320E6"/>
</linearGradient>
</defs>
</svg>
