<svg xmlns="http://www.w3.org/2000/svg" width="393" height="257" viewBox="0 0 393 257" fill="none">
<rect y="52.8776" width="53.8259" height="23" rx="11.5" fill="#45AE4A"/>
<path d="M11.2354 69.3776L11.2354 60.7376L14.8054 60.7376C14.8894 60.7376 14.9974 60.7416 15.1294 60.7496C15.2614 60.7536 15.3834 60.7656 15.4954 60.7856C15.9954 60.8616 16.4074 61.0276 16.7314 61.2836C17.0594 61.5396 17.3014 61.8636 17.4574 62.2556C17.6174 62.6436 17.6974 63.0756 17.6974 63.5516C17.6974 64.0236 17.6174 64.4556 17.4574 64.8476C17.2974 65.2356 17.0534 65.5576 16.7254 65.8136C16.4014 66.0696 15.9914 66.2356 15.4954 66.3116C15.3834 66.3276 15.2594 66.3396 15.1234 66.3476C14.9914 66.3556 14.8854 66.3596 14.8054 66.3596L12.6814 66.3596L12.6814 69.3776L11.2354 69.3776ZM12.6814 65.0096L14.7454 65.0096C14.8254 65.0096 14.9154 65.0056 15.0154 64.9976C15.1154 64.9896 15.2074 64.9736 15.2914 64.9496C15.5314 64.8896 15.7194 64.7836 15.8554 64.6316C15.9954 64.4796 16.0934 64.3076 16.1494 64.1156C16.2094 63.9236 16.2394 63.7356 16.2394 63.5516C16.2394 63.3676 16.2094 63.1796 16.1494 62.9876C16.0934 62.7916 15.9954 62.6176 15.8554 62.4656C15.7194 62.3136 15.5314 62.2076 15.2914 62.1476C15.2074 62.1236 15.1154 62.1096 15.0154 62.1056C14.9154 62.0976 14.8254 62.0936 14.7454 62.0936L12.6814 62.0936L12.6814 65.0096ZM18.8994 69.3776L18.8994 62.8976L20.1774 62.8976L20.1774 64.4756L20.0214 64.2716C20.1014 64.0556 20.2074 63.8596 20.3394 63.6836C20.4754 63.5036 20.6374 63.3556 20.8254 63.2396C20.9854 63.1316 21.1614 63.0476 21.3534 62.9876C21.5494 62.9236 21.7494 62.8856 21.9534 62.8736C22.1574 62.8576 22.3554 62.8656 22.5474 62.8976L22.5474 64.2476C22.3554 64.1916 22.1334 64.1736 21.8814 64.1936C21.6334 64.2136 21.4094 64.2836 21.2094 64.4036C21.0094 64.5116 20.8454 64.6496 20.7174 64.8176C20.5934 64.9856 20.5014 65.1776 20.4414 65.3936C20.3814 65.6056 20.3514 65.8356 20.3514 66.0836L20.3514 69.3776L18.8994 69.3776ZM26.4372 69.5576C25.7892 69.5576 25.2232 69.4116 24.7392 69.1196C24.2552 68.8276 23.8792 68.4256 23.6112 67.9136C23.3472 67.3976 23.2152 66.8056 23.2152 66.1376C23.2152 65.4576 23.3512 64.8616 23.6232 64.3496C23.8952 63.8376 24.2732 63.4376 24.7572 63.1496C25.2412 62.8616 25.8012 62.7176 26.4372 62.7176C27.0892 62.7176 27.6572 62.8636 28.1412 63.1556C28.6252 63.4476 29.0012 63.8516 29.2692 64.3676C29.5372 64.8796 29.6712 65.4696 29.6712 66.1376C29.6712 66.8096 29.5352 67.4036 29.2632 67.9196C28.9952 68.4316 28.6192 68.8336 28.1352 69.1256C27.6512 69.4136 27.0852 69.5576 26.4372 69.5576ZM26.4372 68.2016C27.0132 68.2016 27.4412 68.0096 27.7212 67.6256C28.0012 67.2416 28.1412 66.7456 28.1412 66.1376C28.1412 65.5096 27.9992 65.0096 27.7152 64.6376C27.4312 64.2616 27.0052 64.0736 26.4372 64.0736C26.0492 64.0736 25.7292 64.1616 25.4772 64.3376C25.2292 64.5096 25.0452 64.7516 24.9252 65.0636C24.8052 65.3716 24.7452 65.7296 24.7452 66.1376C24.7452 66.7656 24.8872 67.2676 25.1712 67.6436C25.4592 68.0156 25.8812 68.2016 26.4372 68.2016ZM31.5572 69.3776L31.5572 62.7956C31.5572 62.6316 31.5632 62.4516 31.5752 62.2556C31.5872 62.0556 31.6212 61.8576 31.6772 61.6616C31.7332 61.4656 31.8352 61.2876 31.9832 61.1276C32.1672 60.9236 32.3652 60.7836 32.5772 60.7076C32.7932 60.6276 33.0052 60.5836 33.2132 60.5756C33.4212 60.5636 33.6032 60.5576 33.7592 60.5576L34.5692 60.5576L34.5692 61.7336L33.8192 61.7336C33.5432 61.7336 33.3372 61.8036 33.2012 61.9436C33.0692 62.0796 33.0032 62.2596 33.0032 62.4836L33.0032 69.3776L31.5572 69.3776ZM30.5132 64.0316L30.5132 62.8976L34.5692 62.8976L34.5692 64.0316L30.5132 64.0316ZM35.8292 61.9136L35.8292 60.5876L37.2752 60.5876L37.2752 61.9136L35.8292 61.9136ZM35.8292 69.3776L35.8292 62.8976L37.2752 62.8976L37.2752 69.3776L35.8292 69.3776ZM42.8771 69.3776C42.4491 69.4576 42.0291 69.4916 41.6171 69.4796C41.2091 69.4716 40.8431 69.3976 40.5191 69.2576C40.1951 69.1136 39.9491 68.8876 39.7811 68.5796C39.6331 68.2996 39.5551 68.0136 39.5471 67.7216C39.5391 67.4296 39.5351 67.0996 39.5351 66.7316L39.5351 61.0976L40.9751 61.0976L40.9751 66.6476C40.9751 66.9076 40.9771 67.1356 40.9811 67.3316C40.9891 67.5276 41.0311 67.6876 41.1071 67.8116C41.2511 68.0516 41.4811 68.1856 41.7971 68.2136C42.1131 68.2416 42.4731 68.2256 42.8771 68.1656L42.8771 69.3776ZM38.3591 64.0316L38.3591 62.8976L42.8771 62.8976L42.8771 64.0316L38.3591 64.0316Z" fill="white"/>
<rect y="202.687" width="53.8259" height="23" rx="11.5" fill="#F04853"/>
<path d="M15.1991 217.687L15.1991 209.047L16.6451 209.047L16.6451 216.331L20.4611 216.331L20.4611 217.687L15.1991 217.687ZM24.3396 217.867C23.6916 217.867 23.1256 217.721 22.6416 217.429C22.1576 217.137 21.7816 216.735 21.5136 216.223C21.2496 215.707 21.1176 215.115 21.1176 214.447C21.1176 213.767 21.2536 213.171 21.5256 212.659C21.7976 212.147 22.1756 211.747 22.6596 211.459C23.1436 211.171 23.7036 211.027 24.3396 211.027C24.9916 211.027 25.5596 211.173 26.0436 211.465C26.5276 211.757 26.9036 212.161 27.1716 212.677C27.4396 213.189 27.5736 213.779 27.5736 214.447C27.5736 215.119 27.4376 215.713 27.1656 216.229C26.8976 216.741 26.5216 217.143 26.0376 217.435C25.5536 217.723 24.9876 217.867 24.3396 217.867ZM24.3396 216.511C24.9156 216.511 25.3436 216.319 25.6236 215.935C25.9036 215.551 26.0436 215.055 26.0436 214.447C26.0436 213.819 25.9016 213.319 25.6176 212.947C25.3336 212.571 24.9076 212.383 24.3396 212.383C23.9516 212.383 23.6316 212.471 23.3796 212.647C23.1316 212.819 22.9476 213.061 22.8276 213.373C22.7076 213.681 22.6476 214.039 22.6476 214.447C22.6476 215.075 22.7896 215.577 23.0736 215.953C23.3616 216.325 23.7836 216.511 24.3396 216.511ZM31.2452 217.867C30.4452 217.867 29.7952 217.687 29.2952 217.327C28.7952 216.967 28.4912 216.461 28.3832 215.809L29.8592 215.581C29.9352 215.901 30.1032 216.153 30.3632 216.337C30.6232 216.521 30.9512 216.613 31.3472 216.613C31.6952 216.613 31.9632 216.545 32.1512 216.409C32.3432 216.269 32.4392 216.079 32.4392 215.839C32.4392 215.691 32.4032 215.573 32.3312 215.485C32.2632 215.393 32.1112 215.305 31.8752 215.221C31.6392 215.137 31.2772 215.031 30.7892 214.903C30.2452 214.759 29.8132 214.605 29.4932 214.441C29.1732 214.273 28.9432 214.075 28.8032 213.847C28.6632 213.619 28.5932 213.343 28.5932 213.019C28.5932 212.615 28.6992 212.263 28.9112 211.963C29.1232 211.663 29.4192 211.433 29.7992 211.273C30.1792 211.109 30.6272 211.027 31.1432 211.027C31.6472 211.027 32.0932 211.105 32.4812 211.261C32.8732 211.417 33.1892 211.639 33.4292 211.927C33.6692 212.215 33.8172 212.553 33.8732 212.941L32.3972 213.205C32.3612 212.929 32.2352 212.711 32.0192 212.551C31.8072 212.391 31.5232 212.301 31.1672 212.281C30.8272 212.261 30.5532 212.313 30.3452 212.437C30.1372 212.557 30.0332 212.727 30.0332 212.947C30.0332 213.071 30.0752 213.177 30.1592 213.265C30.2432 213.353 30.4112 213.441 30.6632 213.529C30.9192 213.617 31.2992 213.725 31.8032 213.853C32.3192 213.985 32.7312 214.137 33.0392 214.309C33.3512 214.477 33.5752 214.679 33.7112 214.915C33.8512 215.151 33.9212 215.437 33.9212 215.773C33.9212 216.425 33.6832 216.937 33.2072 217.309C32.7352 217.681 32.0812 217.867 31.2452 217.867ZM39.0334 217.687C38.6054 217.767 38.1854 217.801 37.7734 217.789C37.3654 217.781 36.9994 217.707 36.6754 217.567C36.3514 217.423 36.1054 217.197 35.9374 216.889C35.7894 216.609 35.7114 216.323 35.7034 216.031C35.6954 215.739 35.6914 215.409 35.6914 215.041L35.6914 209.407L37.1314 209.407L37.1314 214.957C37.1314 215.217 37.1334 215.445 37.1374 215.641C37.1454 215.837 37.1874 215.997 37.2634 216.121C37.4074 216.361 37.6374 216.495 37.9534 216.523C38.2694 216.551 38.6294 216.535 39.0334 216.475L39.0334 217.687ZM34.5154 212.341L34.5154 211.207L39.0334 211.207L39.0334 212.341L34.5154 212.341Z" fill="white"/>
<rect x="179.42" y="34.6184" width="122.761" height="218.136" fill="#F5F7FA"/>
<line x1="66.1019" y1="253.199" x2="382.447" y2="253.199" stroke="#B4B6BB" stroke-dasharray="3 3"/>
<path d="M65.0391 14.4343C64.8438 14.239 64.5272 14.239 64.332 14.4343L61.15 17.6163C60.9547 17.8115 60.9547 18.1281 61.15 18.3234C61.3453 18.5186 61.6618 18.5186 61.8571 18.3234L64.6855 15.4949L67.514 18.3234C67.7092 18.5186 68.0258 18.5186 68.2211 18.3234C68.4163 18.1281 68.4163 17.8115 68.2211 17.6163L65.0391 14.4343ZM65.1855 253.699L65.1855 252.206L64.1855 252.206L64.1855 253.699L65.1855 253.699ZM65.1855 249.22L65.1855 246.233L64.1855 246.233L64.1855 249.22L65.1855 249.22ZM65.1855 243.247L65.1855 240.26L64.1855 240.26L64.1855 243.247L65.1855 243.247ZM65.1855 237.274L65.1855 234.288L64.1855 234.288L64.1855 237.274L65.1855 237.274ZM65.1855 231.301L65.1855 228.315L64.1855 228.315L64.1855 231.301L65.1855 231.301ZM65.1855 225.329L65.1855 222.342L64.1855 222.342L64.1855 225.329L65.1855 225.329ZM65.1855 219.356L65.1855 216.369L64.1855 216.369L64.1855 219.356L65.1855 219.356ZM65.1855 213.383L65.1855 210.397L64.1855 210.397L64.1855 213.383L65.1855 213.383ZM65.1855 207.41L65.1855 204.424L64.1855 204.424L64.1855 207.41L65.1855 207.41ZM65.1855 201.437L65.1855 198.451L64.1855 198.451L64.1855 201.437L65.1855 201.437ZM65.1855 195.465L65.1855 192.478L64.1855 192.478L64.1855 195.465L65.1855 195.465ZM65.1855 189.492L65.1855 186.505L64.1855 186.505L64.1855 189.492L65.1855 189.492ZM65.1855 183.519L65.1855 180.533L64.1855 180.533L64.1855 183.519L65.1855 183.519ZM65.1855 177.546L65.1855 174.56L64.1855 174.56L64.1855 177.546L65.1855 177.546ZM65.1855 171.573L65.1855 168.587L64.1855 168.587L64.1855 171.573L65.1855 171.573ZM65.1855 165.601L65.1855 162.614L64.1855 162.614L64.1855 165.601L65.1855 165.601ZM65.1855 159.628L65.1855 156.642L64.1855 156.642L64.1855 159.628L65.1855 159.628ZM65.1855 153.655L65.1855 150.669L64.1855 150.669L64.1855 153.655L65.1855 153.655ZM65.1855 147.682L65.1855 144.696L64.1855 144.696L64.1855 147.682L65.1855 147.682ZM65.1855 141.71L65.1855 138.723L64.1855 138.723L64.1855 141.71L65.1855 141.71ZM65.1855 135.737L65.1855 132.75L64.1855 132.75L64.1855 135.737L65.1855 135.737ZM65.1855 129.764L65.1855 126.778L64.1855 126.778L64.1855 129.764L65.1855 129.764ZM65.1855 123.791L65.1855 120.805L64.1855 120.805L64.1855 123.791L65.1855 123.791ZM65.1855 117.818L65.1855 114.832L64.1855 114.832L64.1855 117.818L65.1855 117.818ZM65.1855 111.846L65.1855 108.859L64.1855 108.859L64.1855 111.846L65.1855 111.846ZM65.1855 105.873L65.1855 102.887L64.1855 102.887L64.1855 105.873L65.1855 105.873ZM65.1855 99.9001L65.1855 96.9137L64.1855 96.9137L64.1855 99.9001L65.1855 99.9001ZM65.1855 93.9273L65.1855 90.9409L64.1855 90.9409L64.1855 93.9273L65.1855 93.9273ZM65.1855 87.9546L65.1855 84.9682L64.1855 84.9682L64.1855 87.9546L65.1855 87.9546ZM65.1855 81.9818L65.1855 78.9954L64.1855 78.9954L64.1855 81.9818L65.1855 81.9818ZM65.1855 76.009L65.1855 73.0226L64.1855 73.0226L64.1855 76.009L65.1855 76.009ZM65.1855 70.0362L65.1855 67.0499L64.1855 67.0499L64.1855 70.0362L65.1855 70.0362ZM65.1855 64.0635L65.1855 61.0771L64.1855 61.0771L64.1855 64.0635L65.1855 64.0635ZM65.1855 58.0907L65.1855 55.1043L64.1855 55.1043L64.1855 58.0907L65.1855 58.0907ZM65.1855 52.1179L65.1855 49.1315L64.1855 49.1315L64.1855 52.1179L65.1855 52.1179ZM65.1855 46.1451L65.1855 43.1587L64.1855 43.1587L64.1855 46.1451L65.1855 46.1451ZM65.1855 40.1723L65.1855 37.186L64.1855 37.186L64.1855 40.1723L65.1855 40.1723ZM65.1855 34.1996L65.1855 31.2132L64.1855 31.2132L64.1855 34.1996L65.1855 34.1996ZM65.1855 28.2268L65.1855 25.2404L64.1855 25.2404L64.1855 28.2268L65.1855 28.2268ZM65.1855 22.254L65.1855 19.2676L64.1855 19.2676L64.1855 22.254L65.1855 22.254ZM65.1855 16.2812L65.1855 14.7878L64.1855 14.7878L64.1855 16.2812L65.1855 16.2812Z" fill="#B4B6BB"/>
<path d="M65.6815 60.7715H382.446" stroke="#1D1D22" stroke-opacity="0.1"/>
<path d="M65.6815 35.7619H382.446" stroke="#1D1D22" stroke-opacity="0.1"/>
<path d="M65.6815 85.7811H382.446" stroke="#1D1D22" stroke-opacity="0.1"/>
<path d="M65.6815 110.783H382.446" stroke="#1D1D22" stroke-opacity="0.1"/>
<path d="M65.6815 164.971H382.446" stroke="#1D1D22" stroke-opacity="0.1"/>
<path d="M65.6815 189.973H382.446" stroke="#1D1D22" stroke-opacity="0.1"/>
<path d="M65.6815 214.982H382.446" stroke="#1D1D22" stroke-opacity="0.1"/>
<path d="M65.6815 239.992H382.446" stroke="#1D1D22" stroke-opacity="0.1"/>
<path d="M382.8 140.315C382.995 140.119 382.995 139.803 382.8 139.608L379.618 136.426C379.423 136.23 379.106 136.23 378.911 136.426C378.715 136.621 378.715 136.937 378.911 137.133L381.739 139.961L378.911 142.79C378.715 142.985 378.715 143.301 378.911 143.497C379.106 143.692 379.423 143.692 379.618 143.497L382.8 140.315ZM65.6815 140.461H382.446V139.461H65.6815V140.461Z" fill="#1D1D22"/>
<path d="M177.804 139.443L177.804 139.943L177.607 139.943L177.463 139.809L177.804 139.443ZM301.591 139.443L301.591 138.943L301.798 138.943L301.945 139.089L301.591 139.443ZM380.941 218.292C380.941 218.568 380.717 218.792 380.441 218.792L375.941 218.792C375.665 218.792 375.441 218.568 375.441 218.292C375.441 218.016 375.665 217.792 375.941 217.792L379.941 217.792L379.941 213.792C379.941 213.516 380.165 213.292 380.441 213.292C380.717 213.292 380.941 213.516 380.941 213.792L380.941 218.292ZM92.8153 60.5923L92.4751 60.959L92.4651 60.9492L92.8153 60.5923ZM380.087 218.645L377.937 216.495L378.644 215.788L380.794 217.938L380.087 218.645ZM375.07 213.628L370.769 209.327L371.476 208.62L375.777 212.921L375.07 213.628ZM367.901 206.46L363.6 202.159L364.308 201.452L368.608 205.752L367.901 206.46ZM360.733 199.291L356.432 194.991L357.139 194.283L361.44 198.584L360.733 199.291ZM353.565 192.123L349.264 187.822L349.971 187.115L354.272 191.416L353.565 192.123ZM346.397 184.955L342.096 180.654L342.803 179.947L347.104 184.248L346.397 184.955ZM339.229 177.787L334.928 173.486L335.635 172.779L339.936 177.08L339.229 177.787ZM332.061 170.619L327.76 166.318L328.467 165.611L332.768 169.912L332.061 170.619ZM324.892 163.451L320.591 159.15L321.299 158.443L325.599 162.744L324.892 163.451ZM317.724 156.283L313.423 151.982L314.13 151.275L318.431 155.576L317.724 156.283ZM310.556 149.115L306.255 144.814L306.962 144.107L311.263 148.408L310.556 149.115ZM303.388 141.947L301.237 139.796L301.945 139.089L304.095 141.239L303.388 141.947ZM301.591 139.943L298.496 139.943L298.496 138.943L301.591 138.943L301.591 139.943ZM294.37 139.943L288.181 139.943L288.181 138.943L294.37 138.943L294.37 139.943ZM284.054 139.943L277.865 139.943L277.865 138.943L284.054 138.943L284.054 139.943ZM273.739 139.943L267.549 139.943L267.549 138.943L273.739 138.943L273.739 139.943ZM263.423 139.943L257.234 139.943L257.234 138.943L263.423 138.943L263.423 139.943ZM253.108 139.943L246.918 139.943L246.918 138.943L253.108 138.943L253.108 139.943ZM242.792 139.943L236.603 139.943L236.603 138.943L242.792 138.943L242.792 139.943ZM232.476 139.943L226.287 139.943L226.287 138.943L232.476 138.943L232.476 139.943ZM222.161 139.943L215.971 139.943L215.971 138.943L222.161 138.943L222.161 139.943ZM211.845 139.943L205.656 139.943L205.656 138.943L211.845 138.943L211.845 139.943ZM201.529 139.943L195.34 139.943L195.34 138.943L201.529 138.943L201.529 139.943ZM191.214 139.943L185.024 139.943L185.024 138.943L191.214 138.943L191.214 139.943ZM180.898 139.943L177.804 139.943L177.804 138.943L180.898 138.943L180.898 139.943ZM177.463 139.809L175.339 137.838L176.019 137.105L178.144 139.076L177.463 139.809ZM172.506 135.209L168.256 131.267L168.937 130.534L173.186 134.476L172.506 135.209ZM165.423 128.639L161.174 124.696L161.854 123.963L166.104 127.906L165.423 128.639ZM158.341 122.068L154.092 118.125L154.772 117.392L159.021 121.335L158.341 122.068ZM151.259 115.497L147.009 111.554L147.689 110.821L151.939 114.764L151.259 115.497ZM144.176 108.926L139.927 104.984L140.607 104.25L144.857 108.193L144.176 108.926ZM137.094 102.355L132.845 98.4127L133.525 97.6796L137.774 101.622L137.094 102.355ZM130.012 95.7844L125.762 91.8419L126.442 91.1088L130.692 95.0513L130.012 95.7844ZM122.929 89.2135L118.68 85.271L119.36 84.5379L123.609 88.4804L122.929 89.2135ZM115.847 82.6427L111.598 78.7002L112.278 77.9671L116.527 81.9096L115.847 82.6427ZM108.765 76.0718L104.515 72.1293L105.195 71.3962L109.445 75.3388L108.765 76.0718ZM101.682 69.501L97.4329 65.5585L98.113 64.8254L102.362 68.7679L101.682 69.501ZM94.6 62.9301L92.4752 60.9589L93.1554 60.2258L95.2801 62.1971L94.6 62.9301ZM92.4651 60.9492L90.5883 59.1078L91.2887 58.394L93.1655 60.2354L92.4651 60.9492ZM88.0859 56.6526L84.3322 52.9698L85.0326 52.256L88.7862 55.9388L88.0859 56.6526ZM81.8298 50.5146L78.0761 46.8317L78.7765 46.1179L82.5301 49.8008L81.8298 50.5146ZM75.5737 44.3765L71.8201 40.6937L72.5204 39.9799L76.2741 43.6627L75.5737 44.3765ZM69.3176 38.2385L67.4408 36.3971L68.1411 35.6833L70.018 37.5247L69.3176 38.2385ZM177.804 139.443L177.804 140.443L177.411 140.443L177.123 140.176L177.804 139.443ZM301.591 139.443L301.591 138.443L302.005 138.443L302.298 138.735L301.591 139.443ZM381.441 218.292C381.441 218.844 380.993 219.292 380.441 219.292L371.441 219.292C370.888 219.292 370.441 218.844 370.441 218.292C370.441 217.74 370.888 217.292 371.441 217.292L379.441 217.292L379.441 209.292C379.441 208.74 379.888 208.292 380.441 208.292C380.993 208.292 381.441 208.74 381.441 209.292L381.441 218.292ZM92.8153 60.5923L92.1352 61.3254L92.1249 61.3159L92.115 61.3061L92.8153 60.5923ZM379.734 218.999L377.583 216.848L378.997 215.434L381.148 217.585L379.734 218.999ZM374.716 213.981L370.415 209.68L371.829 208.266L376.13 212.567L374.716 213.981ZM367.548 206.813L363.247 202.512L364.661 201.098L368.962 205.399L367.548 206.813ZM360.38 199.645L356.079 195.344L357.493 193.93L361.794 198.231L360.38 199.645ZM353.211 192.477L348.911 188.176L350.325 186.762L354.626 191.063L353.211 192.477ZM346.043 185.309L341.742 181.008L343.157 179.594L347.458 183.895L346.043 185.309ZM338.875 178.141L334.574 173.84L335.988 172.426L340.289 176.726L338.875 178.141ZM331.707 170.973L327.406 166.672L328.82 165.257L333.121 169.558L331.707 170.973ZM324.539 163.804L320.238 159.504L321.652 158.089L325.953 162.39L324.539 163.804ZM317.371 156.636L313.07 152.335L314.484 150.921L318.785 155.222L317.371 156.636ZM310.202 149.468L305.902 145.167L307.316 143.753L311.617 148.054L310.202 149.468ZM303.034 142.3L300.884 140.15L302.298 138.735L304.449 140.886L303.034 142.3ZM301.591 140.443L298.496 140.443L298.496 138.443L301.591 138.443L301.591 140.443ZM294.37 140.443L288.181 140.443L288.181 138.443L294.37 138.443L294.37 140.443ZM284.054 140.443L277.865 140.443L277.865 138.443L284.054 138.443L284.054 140.443ZM273.739 140.443L267.549 140.443L267.549 138.443L273.739 138.443L273.739 140.443ZM263.423 140.443L257.234 140.443L257.234 138.443L263.423 138.443L263.423 140.443ZM253.108 140.443L246.918 140.443L246.918 138.443L253.108 138.443L253.108 140.443ZM242.792 140.443L236.603 140.443L236.603 138.443L242.792 138.443L242.792 140.443ZM232.476 140.443L226.287 140.443L226.287 138.443L232.476 138.443L232.476 140.443ZM222.161 140.443L215.971 140.443L215.971 138.443L222.161 138.443L222.161 140.443ZM211.845 140.443L205.656 140.443L205.656 138.443L211.845 138.443L211.845 140.443ZM201.529 140.443L195.34 140.443L195.34 138.443L201.529 138.443L201.529 140.443ZM191.214 140.443L185.024 140.443L185.024 138.443L191.214 138.443L191.214 140.443ZM180.898 140.443L177.804 140.443L177.804 138.443L180.898 138.443L180.898 140.443ZM177.123 140.176L174.999 138.204L176.359 136.738L178.484 138.709L177.123 140.176ZM172.166 135.576L167.916 131.633L169.277 130.167L173.526 134.11L172.166 135.576ZM165.083 129.005L160.834 125.063L162.194 123.596L166.444 127.539L165.083 129.005ZM158.001 122.434L153.752 118.492L155.112 117.026L159.361 120.968L158.001 122.434ZM150.919 115.863L146.669 111.921L148.03 110.455L152.279 114.397L150.919 115.863ZM143.836 109.293L139.587 105.35L140.947 103.884L145.197 107.826L143.836 109.293ZM136.754 102.722L132.505 98.7793L133.865 97.3131L138.114 101.256L136.754 102.722ZM129.672 96.1509L125.422 92.2084L126.783 90.7422L131.032 94.6848L129.672 96.1509ZM122.589 89.5801L118.34 85.6376L119.7 84.1714L123.95 88.1139L122.589 89.5801ZM115.507 83.0092L111.258 79.0667L112.618 77.6005L116.867 81.5431L115.507 83.0092ZM108.425 76.4384L104.175 72.4959L105.535 71.0297L109.785 74.9722L108.425 76.4384ZM101.342 69.8675L97.0928 65.925L98.4531 64.4588L102.703 68.4014L101.342 69.8675ZM94.2599 63.2967L92.1352 61.3254L93.4954 59.8592L95.6202 61.8305L94.2599 63.2967ZM92.115 61.3061L90.2381 59.4647L91.6388 58.0371L93.5157 59.8785L92.115 61.3061ZM87.7357 57.0095L83.9821 53.3267L85.3827 51.8991L89.1364 55.5819L87.7357 57.0095ZM81.4796 50.8715L77.726 47.1886L79.1267 45.761L82.8803 49.4438L81.4796 50.8715ZM75.2236 44.7334L71.4699 41.0506L72.8706 39.623L76.6242 43.3058L75.2236 44.7334ZM68.9675 38.5954L67.0906 36.754L68.4913 35.3264L70.3682 37.1678L68.9675 38.5954Z" fill="black"/>
<g filter="url(#filter0_d_22_83)">
<circle cx="302.498" cy="139.958" r="6.25194" transform="rotate(-17.9221 302.498 139.958)" fill="#01031C"/>
<circle cx="302.498" cy="139.958" r="5.25194" transform="rotate(-17.9221 302.498 139.958)" stroke="white" stroke-width="2"/>
</g>
<g filter="url(#filter1_d_22_83)">
<circle cx="179.738" cy="139.958" r="6.25194" transform="rotate(-17.9221 179.738 139.958)" fill="#01031C"/>
<circle cx="179.738" cy="139.958" r="5.25194" transform="rotate(-17.9221 179.738 139.958)" stroke="white" stroke-width="2"/>
</g>
<path d="M179.693 140.382L98.9538 66.253L64.6837 34.4635V140.382H179.693Z" fill="url(#paint0_linear_22_83)" fill-opacity="0.4"/>
<path d="M380.831 217.343L317.562 155.018L303.87 140.382H380.831L380.831 217.343Z" fill="url(#paint1_linear_22_83)" fill-opacity="0.4"/>
<defs>
<filter id="filter0_d_22_83" x="292.245" y="131.704" width="20.5072" height="20.5072" filterUnits="userSpaceOnUse" color-interpolation-filters="sRGB">
<feFlood flood-opacity="0" result="BackgroundImageFix"/>
<feColorMatrix in="SourceAlpha" type="matrix" values="0 0 0 0 0 0 0 0 0 0 0 0 0 0 0 0 0 0 127 0" result="hardAlpha"/>
<feOffset dy="2"/>
<feGaussianBlur stdDeviation="2"/>
<feComposite in2="hardAlpha" operator="out"/>
<feColorMatrix type="matrix" values="0 0 0 0 0 0 0 0 0 0 0 0 0 0 0 0 0 0 0.25 0"/>
<feBlend mode="normal" in2="BackgroundImageFix" result="effect1_dropShadow_22_83"/>
<feBlend mode="normal" in="SourceGraphic" in2="effect1_dropShadow_22_83" result="shape"/>
</filter>
<filter id="filter1_d_22_83" x="169.484" y="131.704" width="20.5072" height="20.5072" filterUnits="userSpaceOnUse" color-interpolation-filters="sRGB">
<feFlood flood-opacity="0" result="BackgroundImageFix"/>
<feColorMatrix in="SourceAlpha" type="matrix" values="0 0 0 0 0 0 0 0 0 0 0 0 0 0 0 0 0 0 127 0" result="hardAlpha"/>
<feOffset dy="2"/>
<feGaussianBlur stdDeviation="2"/>
<feComposite in2="hardAlpha" operator="out"/>
<feColorMatrix type="matrix" values="0 0 0 0 0 0 0 0 0 0 0 0 0 0 0 0 0 0 0.25 0"/>
<feBlend mode="normal" in2="BackgroundImageFix" result="effect1_dropShadow_22_83"/>
<feBlend mode="normal" in="SourceGraphic" in2="effect1_dropShadow_22_83" result="shape"/>
</filter>
<linearGradient id="paint0_linear_22_83" x1="119.951" y1="88.6687" x2="119.951" y2="140.382" gradientUnits="userSpaceOnUse">
<stop stop-color="#45AE4A"/>
<stop offset="1" stop-color="#45AE4A" stop-opacity="0.3"/>
</linearGradient>
<linearGradient id="paint1_linear_22_83" x1="329.912" y1="141.798" x2="329.839" y2="214.982" gradientUnits="userSpaceOnUse">
<stop stop-color="#FF0000"/>
<stop offset="1" stop-color="#FF0000" stop-opacity="0"/>
</linearGradient>
</defs>
</svg>