<svg xmlns="http://www.w3.org/2000/svg" width="385" height="252" viewBox="0 0 385 252" fill="none">
<rect y="51.8525" width="52.7787" height="23" rx="11.5" fill="#45AE4A"/>
<path d="M10.7118 68.3525L10.7118 59.7125L14.2818 59.7125C14.3658 59.7125 14.4738 59.7165 14.6058 59.7245C14.7378 59.7285 14.8598 59.7405 14.9718 59.7605C15.4718 59.8365 15.8838 60.0025 16.2078 60.2585C16.5358 60.5145 16.7778 60.8385 16.9338 61.2305C17.0938 61.6185 17.1738 62.0505 17.1738 62.5265C17.1738 62.9985 17.0938 63.4305 16.9338 63.8225C16.7738 64.2105 16.5298 64.5325 16.2018 64.7885C15.8778 65.0445 15.4678 65.2105 14.9718 65.2865C14.8598 65.3025 14.7358 65.3145 14.5998 65.3225C14.4678 65.3305 14.3618 65.3345 14.2818 65.3345L12.1578 65.3345L12.1578 68.3525L10.7118 68.3525ZM12.1578 63.9845L14.2218 63.9845C14.3018 63.9845 14.3918 63.9805 14.4918 63.9725C14.5918 63.9645 14.6838 63.9485 14.7678 63.9245C15.0078 63.8645 15.1958 63.7585 15.3318 63.6065C15.4718 63.4545 15.5698 63.2825 15.6258 63.0905C15.6858 62.8985 15.7158 62.7105 15.7158 62.5265C15.7158 62.3425 15.6858 62.1545 15.6258 61.9625C15.5698 61.7665 15.4718 61.5925 15.3318 61.4405C15.1958 61.2885 15.0078 61.1825 14.7678 61.1225C14.6838 61.0985 14.5918 61.0845 14.4918 61.0805C14.3918 61.0725 14.3018 61.0685 14.2218 61.0685L12.1578 61.0685L12.1578 63.9845ZM18.3759 68.3525L18.3759 61.8725L19.6539 61.8725L19.6539 63.4505L19.4979 63.2465C19.5779 63.0305 19.6839 62.8345 19.8159 62.6585C19.9519 62.4785 20.1139 62.3305 20.3019 62.2145C20.4619 62.1065 20.6379 62.0225 20.8299 61.9625C21.0259 61.8985 21.2259 61.8605 21.4299 61.8485C21.6339 61.8325 21.8319 61.8405 22.0239 61.8725L22.0239 63.2225C21.8319 63.1665 21.6099 63.1485 21.3579 63.1685C21.1099 63.1885 20.8859 63.2585 20.6859 63.3785C20.4859 63.4865 20.3219 63.6245 20.1939 63.7925C20.0699 63.9605 19.9779 64.1525 19.9179 64.3685C19.8579 64.5805 19.8279 64.8105 19.8279 65.0585L19.8279 68.3525L18.3759 68.3525ZM25.9137 68.5325C25.2657 68.5325 24.6997 68.3865 24.2157 68.0945C23.7317 67.8025 23.3557 67.4005 23.0877 66.8885C22.8237 66.3725 22.6917 65.7805 22.6917 65.1125C22.6917 64.4325 22.8277 63.8365 23.0997 63.3245C23.3717 62.8125 23.7497 62.4125 24.2337 62.1245C24.7177 61.8365 25.2777 61.6925 25.9137 61.6925C26.5657 61.6925 27.1337 61.8385 27.6177 62.1305C28.1017 62.4225 28.4777 62.8265 28.7457 63.3425C29.0137 63.8545 29.1477 64.4445 29.1477 65.1125C29.1477 65.7845 29.0117 66.3785 28.7397 66.8945C28.4717 67.4065 28.0957 67.8085 27.6117 68.1005C27.1277 68.3885 26.5617 68.5325 25.9137 68.5325ZM25.9137 67.1765C26.4897 67.1765 26.9177 66.9845 27.1977 66.6005C27.4777 66.2165 27.6177 65.7205 27.6177 65.1125C27.6177 64.4845 27.4757 63.9845 27.1917 63.6125C26.9077 63.2365 26.4817 63.0485 25.9137 63.0485C25.5257 63.0485 25.2057 63.1365 24.9537 63.3125C24.7057 63.4845 24.5217 63.7265 24.4017 64.0385C24.2817 64.3465 24.2217 64.7045 24.2217 65.1125C24.2217 65.7405 24.3637 66.2425 24.6477 66.6185C24.9357 66.9905 25.3577 67.1765 25.9137 67.1765ZM31.0336 68.3525L31.0336 61.7705C31.0336 61.6065 31.0396 61.4265 31.0516 61.2305C31.0636 61.0305 31.0976 60.8325 31.1536 60.6365C31.2096 60.4405 31.3116 60.2625 31.4596 60.1025C31.6436 59.8985 31.8416 59.7585 32.0536 59.6825C32.2696 59.6025 32.4816 59.5585 32.6896 59.5505C32.8976 59.5385 33.0796 59.5325 33.2356 59.5325L34.0456 59.5325L34.0456 60.7085L33.2956 60.7085C33.0196 60.7085 32.8136 60.7785 32.6776 60.9185C32.5456 61.0545 32.4796 61.2345 32.4796 61.4585L32.4796 68.3525L31.0336 68.3525ZM29.9896 63.0065L29.9896 61.8725L34.0456 61.8725L34.0456 63.0065L29.9896 63.0065ZM35.3056 60.8885L35.3056 59.5625L36.7516 59.5625L36.7516 60.8885L35.3056 60.8885ZM35.3056 68.3525L35.3056 61.8725L36.7516 61.8725L36.7516 68.3525L35.3056 68.3525ZM42.3536 68.3525C41.9256 68.4325 41.5056 68.4665 41.0936 68.4545C40.6856 68.4465 40.3196 68.3725 39.9956 68.2325C39.6716 68.0885 39.4256 67.8625 39.2576 67.5545C39.1096 67.2745 39.0316 66.9885 39.0236 66.6965C39.0156 66.4045 39.0116 66.0745 39.0116 65.7065L39.0116 60.0725L40.4516 60.0725L40.4516 65.6225C40.4516 65.8825 40.4536 66.1105 40.4576 66.3065C40.4656 66.5025 40.5076 66.6625 40.5836 66.7865C40.7276 67.0265 40.9576 67.1605 41.2736 67.1885C41.5896 67.2165 41.9496 67.2005 42.3536 67.1405L42.3536 68.3525ZM37.8356 63.0065L37.8356 61.8725L42.3536 61.8725L42.3536 63.0065L37.8356 63.0065Z" fill="white"/>
<rect y="198.3" width="52.7787" height="23" rx="11.5" fill="#F04853"/>
<path d="M14.6756 213.3L14.6756 204.66L16.1216 204.66L16.1216 211.944L19.9376 211.944L19.9376 213.3L14.6756 213.3ZM23.816 213.48C23.168 213.48 22.602 213.334 22.118 213.042C21.634 212.75 21.258 212.348 20.99 211.836C20.726 211.32 20.594 210.728 20.594 210.06C20.594 209.38 20.73 208.784 21.002 208.272C21.274 207.76 21.652 207.36 22.136 207.072C22.62 206.784 23.18 206.64 23.816 206.64C24.468 206.64 25.036 206.786 25.52 207.078C26.004 207.37 26.38 207.774 26.648 208.29C26.916 208.802 27.05 209.392 27.05 210.06C27.05 210.732 26.914 211.326 26.642 211.842C26.374 212.354 25.998 212.756 25.514 213.048C25.03 213.336 24.464 213.48 23.816 213.48ZM23.816 212.124C24.392 212.124 24.82 211.932 25.1 211.548C25.38 211.164 25.52 210.668 25.52 210.06C25.52 209.432 25.378 208.932 25.094 208.56C24.81 208.184 24.384 207.996 23.816 207.996C23.428 207.996 23.108 208.084 22.856 208.26C22.608 208.432 22.424 208.674 22.304 208.986C22.184 209.294 22.124 209.652 22.124 210.06C22.124 210.688 22.266 211.19 22.55 211.566C22.838 211.938 23.26 212.124 23.816 212.124ZM30.7216 213.48C29.9216 213.48 29.2716 213.3 28.7716 212.94C28.2716 212.58 27.9676 212.074 27.8596 211.422L29.3356 211.194C29.4116 211.514 29.5796 211.766 29.8396 211.95C30.0996 212.134 30.4276 212.226 30.8236 212.226C31.1716 212.226 31.4396 212.158 31.6276 212.022C31.8196 211.882 31.9156 211.692 31.9156 211.452C31.9156 211.304 31.8796 211.186 31.8076 211.098C31.7396 211.006 31.5876 210.918 31.3516 210.834C31.1156 210.75 30.7536 210.644 30.2656 210.516C29.7216 210.372 29.2896 210.218 28.9696 210.054C28.6496 209.886 28.4196 209.688 28.2796 209.46C28.1396 209.232 28.0696 208.956 28.0696 208.632C28.0696 208.228 28.1756 207.876 28.3876 207.576C28.5996 207.276 28.8956 207.046 29.2756 206.886C29.6556 206.722 30.1036 206.64 30.6196 206.64C31.1236 206.64 31.5696 206.718 31.9576 206.874C32.3496 207.03 32.6656 207.252 32.9056 207.54C33.1456 207.828 33.2936 208.166 33.3496 208.554L31.8736 208.818C31.8376 208.542 31.7116 208.324 31.4956 208.164C31.2836 208.004 30.9996 207.914 30.6436 207.894C30.3036 207.874 30.0296 207.926 29.8216 208.05C29.6136 208.17 29.5096 208.34 29.5096 208.56C29.5096 208.684 29.5516 208.79 29.6356 208.878C29.7196 208.966 29.8876 209.054 30.1396 209.142C30.3956 209.23 30.7756 209.338 31.2796 209.466C31.7956 209.598 32.2076 209.75 32.5156 209.922C32.8276 210.09 33.0516 210.292 33.1876 210.528C33.3276 210.764 33.3976 211.05 33.3976 211.386C33.3976 212.038 33.1596 212.55 32.6836 212.922C32.2116 213.294 31.5576 213.48 30.7216 213.48ZM38.5098 213.3C38.0818 213.38 37.6618 213.414 37.2498 213.402C36.8418 213.394 36.4758 213.32 36.1518 213.18C35.8278 213.036 35.5818 212.81 35.4138 212.502C35.2658 212.222 35.1878 211.936 35.1798 211.644C35.1718 211.352 35.1678 211.022 35.1678 210.654L35.1678 205.02L36.6078 205.02L36.6078 210.57C36.6078 210.83 36.6098 211.058 36.6138 211.254C36.6218 211.45 36.6638 211.61 36.7398 211.734C36.8838 211.974 37.1138 212.108 37.4298 212.136C37.7458 212.164 38.1058 212.148 38.5098 212.088L38.5098 213.3ZM33.9918 207.954L33.9918 206.82L38.5098 206.82L38.5098 207.954L33.9918 207.954Z" fill="white"/>
<rect x="141.669" y="33.9485" width="120.372" height="213.893" fill="#F5F7FA"/>
<line x1="64.816" y1="248.267" x2="375.007" y2="248.267" stroke="#B4B6BB" stroke-dasharray="3 3"/>
<path d="M63.7805 14.1502C63.5853 13.9549 63.2687 13.9549 63.0734 14.1502L59.8915 17.3322C59.6962 17.5275 59.6962 17.844 59.8915 18.0393C60.0867 18.2346 60.4033 18.2346 60.5986 18.0393L63.427 15.2109L66.2554 18.0393C66.4507 18.2346 66.7673 18.2346 66.9625 18.0393C67.1578 17.844 67.1578 17.5275 66.9625 17.3322L63.7805 14.1502ZM63.927 248.767L63.927 247.265L62.927 247.265L62.927 248.767L63.927 248.767ZM63.927 244.262L63.927 241.259L62.927 241.259L62.927 244.262L63.927 244.262ZM63.927 238.255L63.927 235.252L62.927 235.252L62.927 238.255L63.927 238.255ZM63.927 232.249L63.927 229.245L62.927 229.245L62.927 232.249L63.927 232.249ZM63.927 226.242L63.927 223.238L62.927 223.238L62.927 226.242L63.927 226.242ZM63.927 220.235L63.927 217.232L62.927 217.232L62.927 220.235L63.927 220.235ZM63.927 214.228L63.927 211.225L62.927 211.225L62.927 214.228L63.927 214.228ZM63.927 208.222L63.927 205.218L62.927 205.218L62.927 208.222L63.927 208.222ZM63.927 202.215L63.927 199.211L62.927 199.211L62.927 202.215L63.927 202.215ZM63.927 196.208L63.927 193.205L62.927 193.205L62.927 196.208L63.927 196.208ZM63.927 190.201L63.927 187.198L62.927 187.198L62.927 190.201L63.927 190.201ZM63.927 184.194L63.927 181.191L62.927 181.191L62.927 184.194L63.927 184.194ZM63.927 178.188L63.927 175.184L62.927 175.184L62.927 178.188L63.927 178.188ZM63.927 172.181L63.927 169.178L62.927 169.178L62.927 172.181L63.927 172.181ZM63.927 166.174L63.927 163.171L62.927 163.171L62.927 166.174L63.927 166.174ZM63.927 160.168L63.927 157.164L62.927 157.164L62.927 160.168L63.927 160.168ZM63.927 154.161L63.927 151.157L62.927 151.157L62.927 154.161L63.927 154.161ZM63.927 148.154L63.927 145.151L62.927 145.151L62.927 148.154L63.927 148.154ZM63.927 142.147L63.927 139.144L62.927 139.144L62.927 142.147L63.927 142.147ZM63.927 136.141L63.927 133.137L62.927 133.137L62.927 136.141L63.927 136.141ZM63.927 130.134L63.927 127.13L62.927 127.13L62.927 130.134L63.927 130.134ZM63.927 124.127L63.927 121.124L62.927 121.124L62.927 124.127L63.927 124.127ZM63.927 118.12L63.927 115.117L62.927 115.117L62.927 118.12L63.927 118.12ZM63.927 112.114L63.927 109.11L62.927 109.11L62.927 112.114L63.927 112.114ZM63.927 106.107L63.927 103.103L62.927 103.103L62.927 106.107L63.927 106.107ZM63.927 100.1L63.927 97.0967L62.927 97.0967L62.927 100.1L63.927 100.1ZM63.927 94.0933L63.927 91.09L62.927 91.09L62.927 94.0933L63.927 94.0933ZM63.927 88.0866L63.927 85.0832L62.927 85.0832L62.927 88.0866L63.927 88.0866ZM63.927 82.0798L63.927 79.0765L62.927 79.0765L62.927 82.0798L63.927 82.0798ZM63.927 76.0731L63.927 73.0697L62.927 73.0697L62.927 76.0731L63.927 76.0731ZM63.927 70.0663L63.927 67.063L62.927 67.063L62.927 70.0663L63.927 70.0663ZM63.927 64.0596L63.927 61.0562L62.927 61.0562L62.927 64.0596L63.927 64.0596ZM63.927 58.0529L63.927 55.0495L62.927 55.0495L62.927 58.0529L63.927 58.0529ZM63.927 52.0461L63.927 49.0428L62.927 49.0428L62.927 52.0461L63.927 52.0461ZM63.927 46.0394L63.927 43.036L62.927 43.036L62.927 46.0394L63.927 46.0394ZM63.927 40.0326L63.927 37.0293L62.927 37.0293L62.927 40.0326L63.927 40.0326ZM63.927 34.0259L63.927 31.0225L62.927 31.0225L62.927 34.0259L63.927 34.0259ZM63.927 28.0191L63.927 25.0158L62.927 25.0158L62.927 28.0191L63.927 28.0191ZM63.927 22.0124L63.927 19.009L62.927 19.009L62.927 22.0124L63.927 22.0124ZM63.927 16.0057L63.927 14.5038L62.927 14.5038L62.927 16.0057L63.927 16.0057Z" fill="#B4B6BB"/>
<path d="M64.4036 59.5891H375.006" stroke="#1D1D22" stroke-opacity="0.1"/>
<path d="M64.4036 35.0698H375.006" stroke="#1D1D22" stroke-opacity="0.1"/>
<path d="M64.4036 84.1122H375.006" stroke="#1D1D22" stroke-opacity="0.1"/>
<path d="M64.4036 108.635H375.006" stroke="#1D1D22" stroke-opacity="0.1"/>
<path d="M64.4036 161.761H375.006" stroke="#1D1D22" stroke-opacity="0.1"/>
<path d="M64.4036 186.284H375.006" stroke="#1D1D22" stroke-opacity="0.1"/>
<path d="M64.4036 210.803H375.006" stroke="#1D1D22" stroke-opacity="0.1"/>
<path d="M64.4036 235.327H375.006" stroke="#1D1D22" stroke-opacity="0.1"/>
<path d="M375.359 137.595C375.554 137.4 375.554 137.083 375.359 136.888L372.177 133.706C371.982 133.511 371.665 133.511 371.47 133.706C371.275 133.901 371.275 134.218 371.47 134.413L374.298 137.242L371.47 140.07C371.275 140.265 371.275 140.582 371.47 140.777C371.665 140.972 371.982 140.972 372.177 140.777L375.359 137.595ZM64.4036 137.742H375.006V136.742H64.4036V137.742Z" fill="#1D1D22"/>
<path d="M263.431 136.73L263.431 137.23L263.627 137.23L263.771 137.096L263.431 136.73ZM142.052 136.73L142.052 136.23L141.845 136.23L141.698 136.376L142.052 136.73ZM346.766 59.4135L347.106 59.7802L347.116 59.7704L346.766 59.4135ZM371.803 35.3438C371.806 35.0676 371.584 34.8416 371.308 34.839L366.808 34.7962C366.532 34.7935 366.306 35.0153 366.303 35.2914C366.301 35.5675 366.522 35.7935 366.799 35.7961L370.798 35.8342L370.76 39.834C370.758 40.1102 370.979 40.3361 371.255 40.3388C371.532 40.3414 371.758 40.1197 371.76 39.8436L371.803 35.3438ZM65.0895 214.398L67.1981 212.29L66.491 211.583L64.3824 213.691L65.0895 214.398ZM70.0096 209.478L74.2268 205.261L73.5197 204.554L69.3025 208.771L70.0096 209.478ZM77.0383 202.45L81.2555 198.233L80.5484 197.525L76.3312 201.743L77.0383 202.45ZM84.067 195.421L88.2843 191.204L87.5772 190.497L83.3599 194.714L84.067 195.421ZM91.0957 188.392L95.313 184.175L94.6059 183.468L90.3886 187.685L91.0957 188.392ZM98.1244 181.364L102.342 177.147L101.635 176.439L97.4173 180.657L98.1244 181.364ZM105.153 174.335L109.37 170.118L108.663 169.411L104.446 173.628L105.153 174.335ZM112.182 167.306L116.399 163.089L115.692 162.382L111.475 166.599L112.182 167.306ZM119.211 160.278L123.428 156.061L122.721 155.353L118.503 159.571L119.211 160.278ZM126.239 153.249L130.456 149.032L129.749 148.325L125.532 152.542L126.239 153.249ZM133.268 146.22L137.485 142.003L136.778 141.296L132.561 145.513L133.268 146.22ZM140.297 139.192L142.405 137.083L141.698 136.376L139.59 138.485L140.297 139.192ZM142.052 137.23L145.086 137.23L145.086 136.23L142.052 136.23L142.052 137.23ZM149.132 137.23L155.201 137.23L155.201 136.23L149.132 136.23L149.132 137.23ZM159.247 137.23L165.316 137.23L165.316 136.23L159.247 136.23L159.247 137.23ZM169.362 137.23L175.431 137.23L175.431 136.23L169.362 136.23L169.362 137.23ZM179.477 137.23L185.546 137.23L185.546 136.23L179.477 136.23L179.477 137.23ZM189.592 137.23L195.661 137.23L195.661 136.23L189.592 136.23L189.592 137.23ZM199.707 137.23L205.776 137.23L205.776 136.23L199.707 136.23L199.707 137.23ZM209.822 137.23L215.891 137.23L215.891 136.23L209.822 136.23L209.822 137.23ZM219.937 137.23L226.006 137.23L226.006 136.23L219.937 136.23L219.937 137.23ZM230.052 137.23L236.121 137.23L236.121 136.23L230.052 136.23L230.052 137.23ZM240.167 137.23L246.235 137.23L246.235 136.23L240.167 136.23L240.167 137.23ZM250.281 137.23L256.35 137.23L256.35 136.23L250.281 136.23L250.281 137.23ZM260.396 137.23L263.431 137.23L263.431 136.23L260.396 136.23L260.396 137.23ZM263.771 137.096L266.044 134.988L265.364 134.254L263.091 136.363L263.771 137.096ZM269.074 132.176L273.62 127.959L272.939 127.226L268.394 131.443L269.074 132.176ZM276.65 125.147L281.195 120.93L280.515 120.197L275.97 124.414L276.65 125.147ZM284.226 118.119L288.771 113.901L288.091 113.168L283.546 117.385L284.226 118.119ZM291.802 111.09L296.347 106.873L295.667 106.14L291.122 110.357L291.802 111.09ZM299.378 104.061L303.923 99.8439L303.243 99.1108L298.697 103.328L299.378 104.061ZM306.953 97.0323L311.499 92.8151L310.819 92.082L306.273 96.2993L306.953 97.0323ZM314.529 90.0036L319.075 85.7864L318.395 85.0533L313.849 89.2705L314.529 90.0036ZM322.105 82.9749L326.651 78.7576L325.971 78.0245L321.425 82.2418L322.105 82.9749ZM329.681 75.9461L334.227 71.7289L333.547 70.9958L329.001 75.213L329.681 75.9461ZM337.257 68.9174L341.803 64.7001L341.122 63.9671L336.577 68.1843L337.257 68.9174ZM344.833 61.8887L347.106 59.78L346.426 59.047L344.153 61.1556L344.833 61.8887ZM347.116 59.7704L349.57 57.3629L348.869 56.6491L346.415 59.0566L347.116 59.7704ZM352.841 54.153L357.749 49.3381L357.048 48.6243L352.141 53.4392L352.841 54.153ZM361.02 46.1282L365.928 41.3133L365.228 40.5995L360.32 45.4144L361.02 46.1282ZM369.2 38.1034L371.653 35.6959L370.953 34.9821L368.499 37.3895L369.2 38.1034ZM263.431 136.73L263.431 137.73L263.823 137.73L264.111 137.463L263.431 136.73ZM142.052 136.73L142.052 135.73L141.638 135.73L141.345 136.023L142.052 136.73ZM346.766 59.4135L347.446 60.1466L347.456 60.1371L347.466 60.1273L346.766 59.4135ZM372.303 35.3485C372.308 34.7963 371.865 34.3443 371.313 34.339L362.313 34.2533C361.761 34.2481 361.309 34.6915 361.304 35.2438C361.298 35.796 361.742 36.248 362.294 36.2532L370.294 36.3294L370.217 44.3291C370.212 44.8813 370.656 45.3333 371.208 45.3385C371.76 45.3438 372.212 44.9004 372.217 44.3481L372.303 35.3485ZM65.4431 214.752L67.5517 212.643L66.1375 211.229L64.0289 213.338L65.4431 214.752ZM70.3632 209.832L74.5804 205.615L73.1662 204.201L68.949 208.418L70.3632 209.832ZM77.3919 202.803L81.6091 198.586L80.1949 197.172L75.9777 201.389L77.3919 202.803ZM84.4206 195.775L88.6378 191.557L87.2236 190.143L83.0064 194.36L84.4206 195.775ZM91.4493 188.746L95.6665 184.529L94.2523 183.115L90.0351 187.332L91.4493 188.746ZM98.478 181.717L102.695 177.5L101.281 176.086L97.0638 180.303L98.478 181.717ZM105.507 174.689L109.724 170.471L108.31 169.057L104.092 173.274L105.507 174.689ZM112.535 167.66L116.753 163.443L115.338 162.029L111.121 166.246L112.535 167.66ZM119.564 160.631L123.781 156.414L122.367 155L118.15 159.217L119.564 160.631ZM126.593 153.603L130.81 149.385L129.396 147.971L125.179 152.188L126.593 153.603ZM133.622 146.574L137.839 142.357L136.425 140.943L132.207 145.16L133.622 146.574ZM140.65 139.545L142.759 137.437L141.345 136.023L139.236 138.131L140.65 139.545ZM142.052 137.73L145.086 137.73L145.086 135.73L142.052 135.73L142.052 137.73ZM149.132 137.73L155.201 137.73L155.201 135.73L149.132 135.73L149.132 137.73ZM159.247 137.73L165.316 137.73L165.316 135.73L159.247 135.73L159.247 137.73ZM169.362 137.73L175.431 137.73L175.431 135.73L169.362 135.73L169.362 137.73ZM179.477 137.73L185.546 137.73L185.546 135.73L179.477 135.73L179.477 137.73ZM189.592 137.73L195.661 137.73L195.661 135.73L189.592 135.73L189.592 137.73ZM199.707 137.73L205.776 137.73L205.776 135.73L199.707 135.73L199.707 137.73ZM209.822 137.73L215.891 137.73L215.891 135.73L209.822 135.73L209.822 137.73ZM219.937 137.73L226.006 137.73L226.006 135.73L219.937 135.73L219.937 137.73ZM230.052 137.73L236.121 137.73L236.121 135.73L230.052 135.73L230.052 137.73ZM240.167 137.73L246.235 137.73L246.235 135.73L240.167 135.73L240.167 137.73ZM250.281 137.73L256.35 137.73L256.35 135.73L250.281 135.73L250.281 137.73ZM260.396 137.73L263.431 137.73L263.431 135.73L260.396 135.73L260.396 137.73ZM264.111 137.463L266.384 135.354L265.024 133.888L262.751 135.997L264.111 137.463ZM269.414 132.543L273.96 128.325L272.599 126.859L268.054 131.076L269.414 132.543ZM276.99 125.514L281.536 121.297L280.175 119.83L275.63 124.048L276.99 125.514ZM284.566 118.485L289.111 114.268L287.751 112.802L283.206 117.019L284.566 118.485ZM292.142 111.456L296.687 107.239L295.327 105.773L290.782 109.99L292.142 111.456ZM299.718 104.428L304.263 100.21L302.903 98.7442L298.357 102.961L299.718 104.428ZM307.294 97.3989L311.839 93.1817L310.479 91.7155L305.933 95.9327L307.294 97.3989ZM314.869 90.3702L319.415 86.1529L318.055 84.6867L313.509 88.904L314.869 90.3702ZM322.445 83.3414L326.991 79.1242L325.631 77.658L321.085 81.8752L322.445 83.3414ZM330.021 76.3127L334.567 72.0954L333.206 70.6293L328.661 74.8465L330.021 76.3127ZM337.597 69.2839L342.143 65.0667L340.782 63.6005L336.237 67.8178L337.597 69.2839ZM345.173 62.2552L347.446 60.1466L346.085 58.6804L343.813 60.789L345.173 62.2552ZM347.466 60.1273L349.92 57.7199L348.519 56.2922L346.065 58.6997L347.466 60.1273ZM353.191 54.5099L358.099 49.695L356.698 48.2674L351.791 53.0823L353.191 54.5099ZM361.371 46.4851L366.278 41.6702L364.877 40.2426L359.97 45.0575L361.371 46.4851ZM369.55 38.4603L372.003 36.0528L370.603 34.6252L368.149 37.0326L369.55 38.4603Z" fill="black"/>
<g filter="url(#filter0_d_22_110)">
<circle cx="263.717" cy="137.238" r="6.1303" transform="rotate(-17.9221 263.717 137.238)" fill="#01031C"/>
<circle cx="263.717" cy="137.238" r="5.1303" transform="rotate(-17.9221 263.717 137.238)" stroke="white" stroke-width="2"/>
</g>
<g filter="url(#filter1_d_22_110)">
<circle cx="141.981" cy="137.238" r="6.1303" transform="rotate(-17.9221 141.981 137.238)" fill="#01031C"/>
<circle cx="141.981" cy="137.238" r="5.1303" transform="rotate(-17.9221 141.981 137.238)" stroke="white" stroke-width="2"/>
</g>
<path d="M261.579 137.654L340.747 64.9676L368.525 38.1153V137.654H261.579Z" fill="url(#paint0_linear_22_110)" fill-opacity="0.4"/>
<path d="M64.353 213.118L126.391 152.006L139.817 137.654H64.353L64.353 213.118Z" fill="url(#paint1_linear_22_110)" fill-opacity="0.4"/>
<defs>
<filter id="filter0_d_22_110" x="253.585" y="129.106" width="20.2639" height="20.2639" filterUnits="userSpaceOnUse" color-interpolation-filters="sRGB">
<feFlood flood-opacity="0" result="BackgroundImageFix"/>
<feColorMatrix in="SourceAlpha" type="matrix" values="0 0 0 0 0 0 0 0 0 0 0 0 0 0 0 0 0 0 127 0" result="hardAlpha"/>
<feOffset dy="2"/>
<feGaussianBlur stdDeviation="2"/>
<feComposite in2="hardAlpha" operator="out"/>
<feColorMatrix type="matrix" values="0 0 0 0 0 0 0 0 0 0 0 0 0 0 0 0 0 0 0.25 0"/>
<feBlend mode="normal" in2="BackgroundImageFix" result="effect1_dropShadow_22_110"/>
<feBlend mode="normal" in="SourceGraphic" in2="effect1_dropShadow_22_110" result="shape"/>
</filter>
<filter id="filter1_d_22_110" x="131.849" y="129.106" width="20.2639" height="20.2639" filterUnits="userSpaceOnUse" color-interpolation-filters="sRGB">
<feFlood flood-opacity="0" result="BackgroundImageFix"/>
<feColorMatrix in="SourceAlpha" type="matrix" values="0 0 0 0 0 0 0 0 0 0 0 0 0 0 0 0 0 0 127 0" result="hardAlpha"/>
<feOffset dy="2"/>
<feGaussianBlur stdDeviation="2"/>
<feComposite in2="hardAlpha" operator="out"/>
<feColorMatrix type="matrix" values="0 0 0 0 0 0 0 0 0 0 0 0 0 0 0 0 0 0 0.25 0"/>
<feBlend mode="normal" in2="BackgroundImageFix" result="effect1_dropShadow_22_110"/>
<feBlend mode="normal" in="SourceGraphic" in2="effect1_dropShadow_22_110" result="shape"/>
</filter>
<linearGradient id="paint0_linear_22_110" x1="320.158" y1="86.9472" x2="320.158" y2="137.654" gradientUnits="userSpaceOnUse">
<stop stop-color="#45AE4A"/>
<stop offset="1" stop-color="#45AE4A" stop-opacity="0.3"/>
</linearGradient>
<linearGradient id="paint1_linear_22_110" x1="114.282" y1="139.043" x2="114.354" y2="210.803" gradientUnits="userSpaceOnUse">
<stop stop-color="#FF0000"/>
<stop offset="1" stop-color="#FF0000" stop-opacity="0"/>
</linearGradient>
</defs>
</svg>