<svg xmlns="http://www.w3.org/2000/svg" xmlns:xlink="http://www.w3.org/1999/xlink" width="260px" height="134px" viewBox="0 0 260 134" version="1.1">
    <!-- Generator: sketchtool 61 (101010) - https://sketch.com -->
    <title>BB18B048-2FFF-4FC0-8E91-D7BC1F08CEF9@1x</title>
    <desc>Created with sketchtool.</desc>
    <defs>
        <rect id="path-1" x="0" y="0" width="260" height="134"/>
        <rect id="path-3" x="68" y="72" width="21" height="21" rx="10.5"/>
        <filter x="-31.0%" y="-26.2%" width="161.9%" height="161.9%" filterUnits="objectBoundingBox" id="filter-4">
            <feOffset dx="0" dy="1" in="SourceAlpha" result="shadowOffsetOuter1"/>
            <feGaussianBlur stdDeviation="2" in="shadowOffsetOuter1" result="shadowBlurOuter1"/>
            <feColorMatrix values="0 0 0 0 0.2   0 0 0 0 0.274509804   0 0 0 0 0.349019608  0 0 0 0.304059222 0" type="matrix" in="shadowBlurOuter1"/>
        </filter>
        <circle id="path-5" cx="7.80000043" cy="7.80000043" r="7.80000043"/>
        <filter x="-51.3%" y="-44.9%" width="202.6%" height="202.6%" filterUnits="objectBoundingBox" id="filter-6">
            <feOffset dx="0" dy="1" in="SourceAlpha" result="shadowOffsetOuter1"/>
            <feGaussianBlur stdDeviation="2.5" in="shadowOffsetOuter1" result="shadowBlurOuter1"/>
            <feColorMatrix values="0 0 0 0 0.2   0 0 0 0 0.274509804   0 0 0 0 0.349019608  0 0 0 0.304059222 0" type="matrix" in="shadowBlurOuter1"/>
        </filter>
        <circle id="path-7" cx="9" cy="9" r="9"/>
        <filter x="-55.6%" y="-44.4%" width="211.1%" height="211.1%" filterUnits="objectBoundingBox" id="filter-8">
            <feOffset dx="0" dy="2" in="SourceAlpha" result="shadowOffsetOuter1"/>
            <feGaussianBlur stdDeviation="3" in="shadowOffsetOuter1" result="shadowBlurOuter1"/>
            <feColorMatrix values="0 0 0 0 0.2   0 0 0 0 0.274509804   0 0 0 0 0.349019608  0 0 0 0.304059222 0" type="matrix" in="shadowBlurOuter1"/>
        </filter>
        <rect id="path-9" x="118" y="72" width="21" height="21" rx="10.5"/>
        <filter x="-31.0%" y="-26.2%" width="161.9%" height="161.9%" filterUnits="objectBoundingBox" id="filter-10">
            <feOffset dx="0" dy="1" in="SourceAlpha" result="shadowOffsetOuter1"/>
            <feGaussianBlur stdDeviation="2" in="shadowOffsetOuter1" result="shadowBlurOuter1"/>
            <feColorMatrix values="0 0 0 0 0.2   0 0 0 0 0.274509804   0 0 0 0 0.349019608  0 0 0 0.304059222 0" type="matrix" in="shadowBlurOuter1"/>
        </filter>
    </defs>
    <g id="graphs" stroke="none" stroke-width="1" fill="none" fill-rule="evenodd">
        <g id="Graphs" transform="translate(-420.000000, -1876.000000)">
            <g id="Group-17-Copy" transform="translate(420.000000, 1846.000000)">
                <g id="groph/product-100-copy-17-groph/product-104-B" transform="translate(0.000000, 30.000000)">
                    <g id="Group-5">
                        <mask id="mask-2" fill="white">
                            <use xlink:href="#path-1"/>
                        </mask>
                        <use id="Rectangle" fill="#FFFFFF" xlink:href="#path-1"/>
                        <line x1="18.5" y1="45.5" x2="241.5" y2="45.5" id="Line-20-Copy-4" stroke="#F4F7FA" stroke-linecap="round" mask="url(#mask-2)"/>
                        <line x1="18.5" y1="63.5" x2="241.5" y2="63.5" id="Line-20-Copy-5" stroke="#F4F7FA" stroke-linecap="round" mask="url(#mask-2)"/>
                        <line x1="12.5" y1="81.5" x2="246.5" y2="81.5" id="Line-20" stroke="#788592" stroke-linecap="round" mask="url(#mask-2)"/>
                        <path d="M18.5,100.5 L241.5,100.5 M18,82.5 L241,82.5" id="Line-20-Copy-6" stroke="#F4F7FA" stroke-linecap="round" mask="url(#mask-2)"/>
                        <path d="M137.950195,76 C144.762473,69.984375 173.450299,44.6510417 224.013672,1.0658141e-13 L248,1.0658141e-13 L248,82 L133.332031,81.5 C129.59853,83.8489583 131.137918,82.015625 137.950195,76 Z" id="Path-2" fill-opacity="0.32268903" fill="#1CBC95" mask="url(#mask-2)"/>
                        <path d="M80.5,81.5 L63.6141555,101.538044 C46.6490725,119.27376 35.0182473,131.41798 28.7216797,137.970703 C22.4251121,144.523426 16.8512189,150.283843 12,155.251953 L12,131.640184 L12.5,81.5 L80.5,81.5 Z" id="Path-4" fill-opacity="0.272454108" fill="#FF4545" mask="url(#mask-2)"/>
                        <line x1="80.4999999" y1="82.4999999" x2="12.5000001" y2="155.5" id="Line-23-Copy-2" stroke="#334659" fill="#334659" stroke-linecap="round" stroke-dasharray="5" mask="url(#mask-2)" transform="translate(46.500000, 119.000000) rotate(0.000000) translate(-46.500000, -119.000000) "/>
                        <g id="np_arrow_2335675_000000" mask="url(#mask-2)" fill="#334659" fill-rule="nonzero">
                            <g transform="translate(164.760742, 52.626953) rotate(-40.000000) translate(-164.760742, -52.626953) translate(160.260742, 47.626953)" id="Path">
                                <polygon points="0 10 9 5 6.44319014e-16 0"/>
                            </g>
                        </g>
                        <polyline id="Line-23-Copy" stroke="#334659" stroke-width="2" stroke-linecap="round" mask="url(#mask-2)" transform="translate(119.000000, 67.500000) rotate(0.000000) translate(-119.000000, -67.500000) " points="165 52.9999999 130 82 73 81.6500001"/>
                        <g id="Rectangle-Copy-2" mask="url(#mask-2)">
                            <use fill="black" fill-opacity="1" filter="url(#filter-4)" xlink:href="#path-3"/>
                            <use fill="#FFFFFF" fill-rule="evenodd" xlink:href="#path-3"/>
                        </g>
                        <g id="Group" mask="url(#mask-2)">
                            <g transform="translate(4.000000, 74.000000)">
                                <g id="Oval">
                                    <use fill="black" fill-opacity="1" filter="url(#filter-6)" xlink:href="#path-5"/>
                                    <use fill="#FFFFFF" fill-rule="evenodd" xlink:href="#path-5"/>
                                </g>
                                <text id="0" font-family="Rubik-Regular, Rubik" font-size="12.000001" font-weight="normal" letter-spacing="-0.0428571439">
                                    <tspan x="4" y="11.65" fill="#334659">0</tspan>
                                </text>
                            </g>
                        </g>
                        <g id="Group-2" mask="url(#mask-2)">
                            <g transform="translate(239.000000, 73.000000)">
                                <g id="Oval-Copy">
                                    <use fill="black" fill-opacity="1" filter="url(#filter-8)" xlink:href="#path-7"/>
                                    <use fill="#FFFFFF" fill-rule="evenodd" xlink:href="#path-7"/>
                                </g>
                                <g id="np_infinity_686117_000000" stroke-width="1" fill-rule="evenodd" transform="translate(9.000000, 9.000000) scale(-1, 1) translate(-9.000000, -9.000000) translate(3.000000, 6.000000)">
                                    <path d="M11.7715756,1.83188898 C11.550612,1.29300116 11.1831073,0.835773634 10.7204144,0.512672901 C10.4890679,0.351122534 10.232909,0.222962702 9.96003122,0.135320179 C9.68656269,0.0470946941 9.39579929,0 9.09694231,0 C8.8927123,0 8.69366632,0.0238449318 8.50386592,0.0691495392 C8.14616802,0.153202733 7.82136136,0.309384366 7.52770318,0.505515606 C7.27039227,0.677199115 7.03501379,0.87987722 6.81405015,1.09865542 C6.59366251,1.3180288 6.38712849,1.55469261 6.18865851,1.79790328 C6.35538924,2.00833385 6.51635995,2.2211451 6.67385986,2.42919499 L6.68655231,2.4458872 C6.76559175,2.55020821 6.84462823,2.65512743 6.92482558,2.76004513 C6.94155625,2.73858393 6.95828693,2.71772095 6.9750176,2.69685644 C7.15385917,2.47211129 7.33213951,2.26108555 7.50982907,2.07450754 C7.64309845,1.93441837 7.7763708,1.80803947 7.90905827,1.69836042 C8.10810426,1.5338342 8.30425546,1.40865022 8.49810264,1.32578431 C8.59560372,1.284652 8.69252583,1.25305765 8.79118482,1.23219315 C8.88983938,1.21073347 8.99080681,1.20000211 9.09695383,1.20000211 C9.33925912,1.20000211 9.56657357,1.2500757 9.7742596,1.34128314 C10.0858034,1.47720001 10.3534971,1.70610678 10.5415695,1.99403147 C10.6356087,2.13769775 10.7100283,2.29567558 10.7608052,2.46436798 C10.8115747,2.63307564 10.8392671,2.81190118 10.8392671,2.99968479 C10.8392671,3.25005276 10.7908061,3.48493106 10.7031118,3.70012298 C10.5709959,4.02203338 10.3494607,4.29863459 10.0713841,4.49236989 C9.93234438,4.58953818 9.77887796,4.66583891 9.61619402,4.71890056 C9.4529193,4.77135941 9.27985253,4.79997332 9.09811618,4.79997332 C8.98157746,4.79997332 8.87137774,4.78626245 8.7629267,4.76122474 C8.6210025,4.72784183 8.48139412,4.67299925 8.34003706,4.59669852 C8.29330549,4.57106503 8.24599791,4.54364298 8.19869034,4.5132405 C8.05676614,4.42262976 7.91368697,4.31056239 7.76946467,4.17881628 C7.71523324,4.12933786 7.66100181,4.07807088 7.60734196,4.02382804 C7.44464324,3.86108734 7.2819593,3.67748518 7.11868458,3.47956843 C6.98252927,3.31444705 6.84579205,3.13977243 6.70849655,2.95975655 C6.62599667,2.85185842 6.54291782,2.74216868 6.45926445,2.63129929 C6.23252601,2.33145595 6.00117955,2.02444005 5.75714625,1.72935807 C5.57425789,1.50819918 5.38388149,1.29358717 5.18195549,1.09328974 C5.03023038,0.943067434 4.87213969,0.800588434 4.70425695,0.671238264 C4.67310257,0.646796636 4.64137218,0.622951704 4.60906432,0.599703468 C4.38406866,0.435772424 4.1417486,0.294488341 3.87867765,0.189570641 C3.63464435,0.0924023536 3.37213465,0.0286154442 3.09751411,0.0077539903 C3.03405186,0.00298500394 2.97001361,0.000600510762 2.90539493,0.000600510762 C2.50616573,0.000600510762 2.12307938,0.0840585351 1.77520306,0.236669151 C1.2536692,0.464985326 0.811165923,0.844718727 0.498470103,1.3228077 C0.342122192,1.56185219 0.218089531,1.82653475 0.133269387,2.10849248 C0.0455766121,2.38987031 0,2.69030882 0,2.99969013 C0,3.41220364 0.0813464027,3.80803713 0.228466448,4.16748899 C0.449430087,4.70637682 0.816934815,5.16360434 1.27962774,5.48670507 C1.51097421,5.64825544 1.76713311,5.77641527 2.04001087,5.86465296 C2.3129034,5.95228328 2.6036668,5.99937645 2.90309978,5.99937645 C3.10732979,5.99937645 3.30637577,5.97553151 3.49617617,5.93082208 C3.85387408,5.84676888 4.17868073,5.69058725 4.47291491,5.49445601 C4.73022582,5.3227725 4.96560431,5.12009439 5.18599195,4.90072102 C5.40637958,4.68134765 5.6129136,4.44468384 5.81138359,4.20147317 C5.64407685,3.98985226 5.48195414,3.77643058 5.32387822,3.56720561 L5.31349347,3.55349474 C5.23503152,3.44917373 5.15541755,3.34425451 5.0752202,3.23933681 C5.05848953,3.26020131 5.04175886,3.28166099 5.02502818,3.30252549 C4.84561061,3.52727065 4.66733028,3.73770122 4.48964071,3.9248744 C4.35637133,4.06496356 4.22309899,4.19134247 4.09041151,4.30102152 C3.89136553,4.46554774 3.69521433,4.59073172 3.50136714,4.67359763 C3.40386607,4.71532664 3.30694395,4.74632429 3.20828496,4.76718879 C3.10963041,4.7880533 3.00866298,4.79937983 2.90309195,4.79937983 C2.66078666,4.79937983 2.43347222,4.74930624 2.22521018,4.6580988 C1.91366637,4.52218193 1.64597264,4.29327516 1.45847625,4.00535047 C1.36443711,3.86168419 1.29001751,3.70311119 1.23924062,3.53501396 C1.18847112,3.3663063 1.16135615,3.18748076 1.16135615,2.99969715 C1.16135615,2.74932918 1.2098172,2.51445088 1.29751146,2.29925896 C1.42962736,1.97734856 1.65116257,1.70074735 1.92923913,1.50701205 C2.06827889,1.40984376 2.2211693,1.33294786 2.38442925,1.28048138 C2.5476892,1.2280149 2.72077073,1.19940862 2.90250709,1.19940862 C3.0190458,1.19940862 3.12924553,1.21311949 3.23769657,1.2381572 C3.42692096,1.28286664 3.6127041,1.36513127 3.8019285,1.48614449 C3.9438527,1.57675523 4.08750786,1.6888226 4.23115417,1.82056871 C4.44749501,2.01729512 4.66442663,2.2563396 4.88191948,2.52041173 C5.10000311,2.78449912 5.31807196,3.07361415 5.54133961,3.36869613 C5.76807805,3.66853948 5.99942451,3.97555537 6.24345781,4.27063736 C6.42634617,4.49179624 6.61672257,4.70640825 6.81864857,4.90730085 C6.85672533,4.94485605 6.89480209,4.98181607 6.93345632,5.0187761 C7.04999504,5.12786609 7.17057759,5.23218251 7.29633826,5.32995818 C7.54787437,5.52428865 7.8213429,5.69180597 8.12191312,5.81161817 C8.14095223,5.81877165 8.15941387,5.82652137 8.17845151,5.83307785 C8.46345488,5.93918741 8.77210391,6 9.09518255,6 C9.49441175,6 9.8774981,5.91654198 10.2253744,5.76393136 C10.7469083,5.53561518 11.1894116,5.15588178 11.5021074,4.67779281 C11.6584553,4.43874832 11.783064,4.17406576 11.8678841,3.89210803 C11.9544234,3.6089447 12,3.30910135 12,2.99970478 C12,2.58719128 11.9192296,2.19076261 11.7715336,1.83190592 L11.7715756,1.83188898 Z" id="Path" fill="#000000" fill-rule="nonzero"/>
                                </g>
                            </g>
                        </g>
                        <g id="Rectangle-Copy" mask="url(#mask-2)">
                            <use fill="black" fill-opacity="1" filter="url(#filter-10)" xlink:href="#path-9"/>
                            <use fill="#FFFFFF" fill-rule="evenodd" xlink:href="#path-9"/>
                        </g>
                    </g>
                </g>
            </g>
        </g>
    </g>
</svg>