<svg width="26" height="27" viewBox="0 0 26 27" fill="none" xmlns="http://www.w3.org/2000/svg">
<path d="M22.2083 12.8805V8.26554C22.2083 3.89971 21.19 2.80554 17.095 2.80554H8.90496C4.80996 2.80554 3.79163 3.89971 3.79163 8.26554V20.4639C3.79163 23.3455 5.37329 24.028 7.29079 21.9697L7.30163 21.9589C8.18996 21.0164 9.54413 21.0922 10.3133 22.1214L11.4075 23.5839" stroke="#2947F2" stroke-width="1.5" stroke-linecap="round" stroke-linejoin="round"/>
<path d="M23.8333 24.4723L22.75 23.389M8.66663 8.22229H17.3333M9.74996 12.5556H16.25M19.7166 23.8223C20.636 23.8223 21.5178 23.4571 22.1679 22.8069C22.8181 22.1568 23.1833 21.275 23.1833 20.3556C23.1833 19.4362 22.8181 18.5544 22.1679 17.9043C21.5178 17.2542 20.636 16.889 19.7166 16.889C18.7972 16.889 17.9154 17.2542 17.2653 17.9043C16.6152 18.5544 16.25 19.4362 16.25 20.3556C16.25 21.275 16.6152 22.1568 17.2653 22.8069C17.9154 23.4571 18.7972 23.8223 19.7166 23.8223Z" stroke="#FF6805" stroke-width="1.5" stroke-linecap="round" stroke-linejoin="round"/>
</svg>
