<svg width="16" height="16" viewBox="0 0 16 16" fill="none" xmlns="http://www.w3.org/2000/svg">
<path fill-rule="evenodd" clip-rule="evenodd" d="M7.70701 0.273572C5.94633 1.35238 3.71762 2.09109 2.03568 2.33758C1.42501 2.42729 0.925039 2.95382 0.925782 3.60126L0.927268 3.98895C0.904981 8.70279 1.28163 12.8285 7.95663 15.614C8.21016 15.7188 8.49207 15.7188 8.74559 15.614C15.425 12.8285 15.8054 8.70357 15.7816 3.98895V3.59814C15.7816 2.95226 15.2817 2.42027 14.674 2.32042C13.0775 2.05755 10.75 1.32664 8.99075 0.270452C8.79513 0.152857 8.57353 0.0912529 8.34811 0.0918005C8.1227 0.0923481 7.90212 0.155028 7.70701 0.273572ZM11.1073 6.88683C11.2467 6.74057 11.325 6.54215 11.3251 6.33523C11.3252 6.1283 11.247 5.92982 11.1077 5.78345C10.9684 5.63709 10.7794 5.55481 10.5823 5.55474C10.3852 5.55467 10.1962 5.6368 10.0568 5.78306L7.61044 8.35255L6.64986 7.34394C6.58133 7.26944 6.49935 7.21001 6.40872 7.16913C6.31808 7.12825 6.2206 7.10673 6.12195 7.10583C6.02331 7.10493 5.92549 7.12467 5.83419 7.16389C5.74289 7.20311 5.65994 7.26103 5.59019 7.33427C5.52043 7.40752 5.46527 7.49461 5.42792 7.59047C5.39056 7.68634 5.37177 7.78906 5.37262 7.89263C5.37348 7.99621 5.39397 8.09856 5.43291 8.19373C5.47184 8.2889 5.52844 8.37498 5.59939 8.44693L7.0852 10.0078C7.22452 10.154 7.41345 10.2362 7.61044 10.2362C7.80743 10.2362 7.99636 10.154 8.13567 10.0078L11.1073 6.88683Z" fill="#175CD3"/>
</svg>
