<svg width="17" height="18" viewBox="0 0 17 18" fill="none" xmlns="http://www.w3.org/2000/svg">
<g id="warning-filled_svgrepo.com">
<path id="Vector" d="M8.5 1.10742C10.4725 1.10742 12.3643 1.89101 13.7591 3.28582C15.1539 4.68062 15.9375 6.57237 15.9375 8.54492C15.9375 10.5175 15.1539 12.4092 13.7591 13.804C12.3643 15.1988 10.4725 15.9824 8.5 15.9824C6.52745 15.9824 4.63569 15.1988 3.24089 13.804C1.84609 12.4092 1.0625 10.5175 1.0625 8.54492C1.0625 6.57237 1.84609 4.68062 3.24089 3.28582C4.63569 1.89101 6.52745 1.10742 8.5 1.10742ZM8.5 4.29492C8.36511 4.29481 8.23167 4.32283 8.10821 4.37719C7.98476 4.43156 7.874 4.51107 7.78301 4.61066C7.69202 4.71025 7.6228 4.82772 7.57978 4.95557C7.53675 5.08342 7.52086 5.21884 7.53312 5.35317L7.92094 9.60955C7.93597 9.75265 8.00346 9.88511 8.11039 9.98139C8.21732 10.0777 8.35611 10.131 8.5 10.131C8.64389 10.131 8.78268 10.0777 8.88961 9.98139C8.99654 9.88511 9.06403 9.75265 9.07906 9.60955L9.46581 5.35317C9.47807 5.21892 9.46221 5.0836 9.41924 4.95582C9.37628 4.82804 9.30716 4.71063 9.21628 4.61105C9.12541 4.51148 9.01478 4.43195 8.89145 4.37751C8.76813 4.32308 8.63481 4.29495 8.5 4.29492ZM8.5 12.7949C8.72543 12.7949 8.94163 12.7054 9.10104 12.546C9.26045 12.3866 9.35 12.1704 9.35 11.9449C9.35 11.7195 9.26045 11.5033 9.10104 11.3439C8.94163 11.1845 8.72543 11.0949 8.5 11.0949C8.27457 11.0949 8.05837 11.1845 7.89896 11.3439C7.73955 11.5033 7.65 11.7195 7.65 11.9449C7.65 12.1704 7.73955 12.3866 7.89896 12.546C8.05837 12.7054 8.27457 12.7949 8.5 12.7949Z" fill="#DC2626"/>
</g>
</svg>
