<svg width="20" height="26" viewBox="0 0 20 26" fill="none" xmlns="http://www.w3.org/2000/svg">
<path d="M10 3.66643C11.7166 3.66643 13.3629 4.34065 14.5768 5.54078C15.7906 6.7409 16.4725 8.36862 16.4725 10.0659C16.4725 12.6911 17.006 14.6569 17.6978 16.1025C18.5817 17.9496 19.0236 18.8731 18.999 19.084C18.9704 19.3302 18.9338 19.398 18.7519 19.5417C18.5959 19.665 17.8203 19.665 16.269 19.665H3.73099C2.17966 19.665 1.404 19.665 1.24808 19.5417C1.06619 19.398 1.02964 19.3302 1.00097 19.084C0.976389 18.8731 1.41833 17.9496 2.30222 16.1025C2.99402 14.6569 3.52751 12.6911 3.52751 10.0659C3.52751 8.36862 4.20943 6.7409 5.42325 5.54078C6.63708 4.34065 8.28335 3.66643 10 3.66643ZM10 3.66643V1M6.82847 23.6647C7.67494 24.4956 8.78689 25 10.0048 25C11.2226 25 12.3345 24.4956 13.1811 23.6647" stroke="#4B5563" stroke-width="2" stroke-linecap="round" stroke-linejoin="round"/>
</svg>
