<svg width="13" height="13" viewBox="0 0 13 13" fill="none" xmlns="http://www.w3.org/2000/svg">
<rect width="13" height="13" rx="6.5" fill="#DBEAFE"/>
<path fill-rule="evenodd" clip-rule="evenodd" d="M6.49962 6.14823L8.38947 4.11303C8.52952 3.96239 8.75541 3.96239 8.89546 4.11303C8.96236 4.1848 9 4.28271 9 4.38482C9 4.48693 8.96236 4.58484 8.89546 4.65661L6.75299 6.96361C6.6131 7.11472 6.3869 7.11472 6.247 6.96361L4.10454 4.65671C4.03763 4.58484 4 4.48693 4 4.38482C4 4.2827 4.03763 4.1848 4.10454 4.11293C4.24461 3.96239 4.4705 3.96239 4.61053 4.11312L6.49962 6.14823Z" fill="#6B7280"/>
<path fill-rule="evenodd" clip-rule="evenodd" d="M6.50038 7.23642L4.61053 9.27162C4.47048 9.42225 4.24459 9.42225 4.10454 9.27162C4.03764 9.19984 4 9.10194 4 8.99982C4 8.89771 4.03764 8.79981 4.10454 8.72803L6.24701 6.42103C6.3869 6.26992 6.6131 6.26992 6.753 6.42103L8.89546 8.72794C8.96237 8.79981 9 8.89771 9 8.99983C9 9.10194 8.96237 9.19984 8.89546 9.27171C8.75539 9.42225 8.5295 9.42225 8.38947 9.27152L6.50038 7.23642Z" fill="#6B7280"/>
</svg>
