<svg width="43" height="43" viewBox="0 0 43 43" fill="none" xmlns="http://www.w3.org/2000/svg">
<path d="M31.5753 8.33924C31.8564 7.99833 31.8089 7.49249 31.4554 7.22747C28.788 5.22793 25.5991 4.04121 22.2734 3.81049C21.8327 3.77991 21.4661 4.13165 21.4559 4.57336L21.3848 7.65377C21.3747 8.09548 21.7249 8.45918 22.1651 8.49731C24.4414 8.69448 26.622 9.50598 28.4734 10.8449C28.8314 11.1038 29.3342 11.0576 29.6153 10.7167L31.5753 8.33924Z" fill="#FDCC4D"/>
<path d="M20.3467 4.58507C20.3272 4.14367 19.9532 3.79974 19.5132 3.83962C16.1932 4.14048 13.03 5.39425 10.4054 7.44964C10.0576 7.72206 10.0208 8.22879 10.309 8.56369L12.3188 10.8992C12.607 11.2341 13.1107 11.2697 13.4631 11.0033C15.2858 9.62563 17.4489 8.76828 19.7205 8.52311C20.1597 8.4757 20.5022 8.10469 20.4827 7.66329L20.3467 4.58507Z" fill="#EFE94D"/>
<path d="M9.62165 9.18972C9.31506 8.87158 8.8071 8.861 8.50346 9.18196C6.21248 11.6037 4.66948 14.6362 4.0606 17.9138C3.97991 18.3482 4.2875 18.7526 4.72516 18.8131L7.77732 19.2353C8.21498 19.2959 8.61629 18.9894 8.70442 18.5565C9.16016 16.3176 10.2153 14.2439 11.7568 12.5574C12.0549 12.2313 12.0664 11.7265 11.7598 11.4084L9.62165 9.18972Z" fill="#C5E176"/>
<path d="M4.65001 19.4461C4.21034 19.4025 3.81663 19.7237 3.79339 20.1649C3.61803 23.4939 4.40821 26.8034 6.06859 29.6942C6.28865 30.0773 6.78497 30.1859 7.15752 29.9484L9.75562 28.292C10.1282 28.0544 10.2352 27.561 10.0217 27.1741C8.91789 25.1737 8.37755 22.9106 8.45861 20.6272C8.47429 20.1857 8.15587 19.7938 7.7162 19.7502L4.65001 19.4461Z" fill="#8CDFAD"/>
<path d="M37.344 18.286C37.7795 18.2113 38.0738 17.7972 37.9792 17.3657C37.2647 14.1095 35.6245 11.1284 33.2565 8.78195C32.9426 8.47097 32.4353 8.49796 32.1391 8.82584L30.0738 11.1124C29.7777 11.4403 29.8054 11.9445 30.1139 12.2608C31.7091 13.8965 32.8307 15.9351 33.3585 18.1581C33.4606 18.5879 33.8716 18.8813 34.3071 18.8066L37.344 18.286Z" fill="#FFAD7D"/>
<path d="M35.2882 29.467C35.6687 29.6917 36.161 29.5661 36.3678 29.1757C37.9283 26.2298 38.6048 22.8952 38.3157 19.5741C38.2773 19.134 37.8729 18.8265 37.4349 18.8851L34.3809 19.2939C33.943 19.3525 33.6382 19.755 33.669 20.1958C33.8281 22.475 33.3655 24.7553 32.3308 26.7924C32.1307 27.1863 32.2545 27.6758 32.635 27.9004L35.2882 29.467Z" fill="#FF7078"/>
<path d="M2.7 41.5748V34.3748H3.375L6.205 40.4298L9.02 34.3748H9.705V41.5698H9.005V36.0148L6.44 41.5748H5.965L3.405 36.0148V41.5748H2.7ZM13.6932 41.7248C13.1665 41.7248 12.7099 41.6082 12.3232 41.3748C11.9399 41.1415 11.6415 40.8132 11.4282 40.3898C11.2149 39.9665 11.1082 39.4698 11.1082 38.8998C11.1082 38.3098 11.2132 37.7998 11.4232 37.3698C11.6332 36.9398 11.9282 36.6082 12.3082 36.3748C12.6915 36.1415 13.1432 36.0248 13.6632 36.0248C14.1965 36.0248 14.6515 36.1482 15.0282 36.3948C15.4049 36.6382 15.6899 36.9882 15.8832 37.4448C16.0765 37.9015 16.1649 38.4465 16.1482 39.0798H15.3982V38.8198C15.3849 38.1198 15.2332 37.5915 14.9432 37.2348C14.6565 36.8782 14.2365 36.6998 13.6832 36.6998C13.1032 36.6998 12.6582 36.8882 12.3482 37.2648C12.0415 37.6415 11.8882 38.1782 11.8882 38.8748C11.8882 39.5548 12.0415 40.0832 12.3482 40.4598C12.6582 40.8332 13.0965 41.0198 13.6632 41.0198C14.0499 41.0198 14.3865 40.9315 14.6732 40.7548C14.9632 40.5748 15.1915 40.3165 15.3582 39.9798L16.0432 40.2448C15.8299 40.7148 15.5149 41.0798 15.0982 41.3398C14.6849 41.5965 14.2165 41.7248 13.6932 41.7248ZM11.6282 39.0798V38.4648H15.7532V39.0798H11.6282ZM19.6528 41.7248C19.1495 41.7248 18.7195 41.5998 18.3628 41.3498C18.0061 41.0965 17.7328 40.7548 17.5428 40.3248C17.3528 39.8948 17.2578 39.4098 17.2578 38.8698C17.2578 38.3332 17.3511 37.8498 17.5378 37.4198C17.7278 36.9898 17.9995 36.6498 18.3528 36.3998C18.7061 36.1498 19.1295 36.0248 19.6228 36.0248C20.1295 36.0248 20.5561 36.1482 20.9028 36.3948C21.2495 36.6415 21.5111 36.9798 21.6878 37.4098C21.8678 37.8365 21.9578 38.3232 21.9578 38.8698C21.9578 39.4065 21.8695 39.8915 21.6928 40.3248C21.5161 40.7548 21.2561 41.0965 20.9128 41.3498C20.5695 41.5998 20.1495 41.7248 19.6528 41.7248ZM19.7278 41.0398C20.1111 41.0398 20.4278 40.9465 20.6778 40.7598C20.9278 40.5732 21.1145 40.3165 21.2378 39.9898C21.3611 39.6598 21.4228 39.2865 21.4228 38.8698C21.4228 38.4465 21.3611 38.0732 21.2378 37.7498C21.1145 37.4232 20.9278 37.1682 20.6778 36.9848C20.4311 36.8015 20.1195 36.7098 19.7428 36.7098C19.3561 36.7098 19.0361 36.8048 18.7828 36.9948C18.5295 37.1848 18.3411 37.4432 18.2178 37.7698C18.0978 38.0965 18.0378 38.4632 18.0378 38.8698C18.0378 39.2798 18.0995 39.6498 18.2228 39.9798C18.3495 40.3065 18.5378 40.5648 18.7878 40.7548C19.0378 40.9448 19.3511 41.0398 19.7278 41.0398ZM21.4228 41.5748V37.5098H21.3428V34.3748H22.0828V41.5748H21.4228ZM23.8855 35.1498V34.3248H24.6205V35.1498H23.8855ZM23.8855 41.5748V36.1748H24.6205V41.5748H23.8855ZM28.4845 41.7098C28.1612 41.7098 27.8779 41.6598 27.6345 41.5598C27.3945 41.4598 27.1895 41.3248 27.0195 41.1548C26.8529 40.9848 26.7179 40.7915 26.6145 40.5748C26.5112 40.3548 26.4362 40.1232 26.3895 39.8798C26.3429 39.6332 26.3195 39.3882 26.3195 39.1448V36.1748H27.0595V38.9298C27.0595 39.2265 27.0879 39.5015 27.1445 39.7548C27.2012 40.0082 27.2912 40.2298 27.4145 40.4198C27.5412 40.6065 27.7029 40.7515 27.8995 40.8548C28.0995 40.9582 28.3412 41.0098 28.6245 41.0098C28.8845 41.0098 29.1129 40.9648 29.3095 40.8748C29.5095 40.7848 29.6762 40.6565 29.8095 40.4898C29.9462 40.3198 30.0495 40.1148 30.1195 39.8748C30.1895 39.6315 30.2245 39.3582 30.2245 39.0548L30.7445 39.1698C30.7445 39.7232 30.6479 40.1882 30.4545 40.5648C30.2612 40.9415 29.9945 41.2265 29.6545 41.4198C29.3145 41.6132 28.9245 41.7098 28.4845 41.7098ZM30.2995 41.5748V40.2448H30.2245V36.1748H30.9595V41.5748H30.2995ZM39.097 41.5748L39.102 38.0298C39.102 37.6132 38.9854 37.2865 38.752 37.0498C38.522 36.8098 38.2287 36.6898 37.872 36.6898C37.6687 36.6898 37.4704 36.7365 37.277 36.8298C37.0837 36.9232 36.9237 37.0732 36.797 37.2798C36.6737 37.4865 36.612 37.7565 36.612 38.0898L36.177 37.9648C36.167 37.5782 36.242 37.2398 36.402 36.9498C36.5654 36.6598 36.7887 36.4348 37.072 36.2748C37.3587 36.1115 37.682 36.0298 38.042 36.0298C38.5854 36.0298 39.0204 36.1982 39.347 36.5348C39.6737 36.8682 39.837 37.3198 39.837 37.8898L39.832 41.5748H39.097ZM32.652 41.5748V36.1748H33.312V37.5048H33.392V41.5748H32.652ZM35.882 41.5748L35.887 38.0798C35.887 37.6498 35.772 37.3115 35.542 37.0648C35.3154 36.8148 35.0154 36.6898 34.642 36.6898C34.2687 36.6898 33.967 36.8182 33.737 37.0748C33.507 37.3282 33.392 37.6665 33.392 38.0898L32.952 37.8498C32.952 37.5032 33.0337 37.1932 33.197 36.9198C33.3604 36.6432 33.5837 36.4265 33.867 36.2698C34.1504 36.1098 34.472 36.0298 34.832 36.0298C35.1754 36.0298 35.4804 36.1032 35.747 36.2498C36.017 36.3965 36.2287 36.6098 36.382 36.8898C36.5354 37.1698 36.612 37.5098 36.612 37.9098L36.607 41.5748H35.882Z" fill="#01031C"/>
<path d="M27.5811 18.0758C28.3294 17.8705 28.7036 17.7678 28.7772 17.9143C28.8507 18.0609 28.5448 18.2996 27.9331 18.7769L22.9376 22.6751C22.7597 22.814 22.6707 22.8834 22.5783 22.8626C22.486 22.8418 22.4354 22.741 22.3341 22.5392L21.2191 20.318C21.1178 20.1163 21.0671 20.0154 21.1056 19.9289C21.1441 19.8425 21.253 19.8126 21.4707 19.7528L27.5811 18.0758Z" fill="black"/>
</svg>
