<svg width="43" height="43" viewBox="0 0 43 43" fill="none" xmlns="http://www.w3.org/2000/svg">
<path d="M31.5753 8.33924C31.8564 7.99833 31.8089 7.49249 31.4554 7.22747C28.788 5.22793 25.5991 4.04121 22.2734 3.81049C21.8327 3.77991 21.4661 4.13165 21.4559 4.57336L21.3848 7.65377C21.3747 8.09548 21.7249 8.45918 22.1651 8.49731C24.4414 8.69448 26.622 9.50598 28.4734 10.8449C28.8314 11.1038 29.3342 11.0576 29.6153 10.7167L31.5753 8.33924Z" fill="#FDCC4D"/>
<path d="M20.3467 4.58507C20.3272 4.14367 19.9532 3.79974 19.5132 3.83962C16.1932 4.14048 13.03 5.39425 10.4054 7.44964C10.0576 7.72206 10.0208 8.22879 10.309 8.56369L12.3188 10.8992C12.607 11.2341 13.1107 11.2697 13.4631 11.0033C15.2858 9.62563 17.4489 8.76828 19.7205 8.52311C20.1597 8.4757 20.5022 8.10469 20.4827 7.66329L20.3467 4.58507Z" fill="#EFE94D"/>
<path d="M9.62165 9.18972C9.31506 8.87158 8.8071 8.861 8.50346 9.18196C6.21248 11.6037 4.66948 14.6362 4.0606 17.9138C3.97991 18.3482 4.2875 18.7526 4.72516 18.8131L7.77732 19.2353C8.21498 19.2959 8.61629 18.9894 8.70442 18.5565C9.16016 16.3176 10.2153 14.2439 11.7568 12.5574C12.0549 12.2313 12.0664 11.7265 11.7598 11.4084L9.62165 9.18972Z" fill="#C5E176"/>
<path d="M4.65001 19.4461C4.21034 19.4025 3.81663 19.7237 3.79339 20.1649C3.61803 23.4939 4.40821 26.8034 6.06859 29.6942C6.28865 30.0773 6.78497 30.1859 7.15752 29.9484L9.75562 28.292C10.1282 28.0544 10.2352 27.561 10.0217 27.1741C8.91789 25.1737 8.37755 22.9106 8.45861 20.6272C8.47429 20.1857 8.15587 19.7938 7.7162 19.7502L4.65001 19.4461Z" fill="#8CDFAD"/>
<path d="M37.344 18.286C37.7795 18.2113 38.0738 17.7972 37.9792 17.3657C37.2647 14.1095 35.6245 11.1284 33.2565 8.78195C32.9426 8.47097 32.4353 8.49796 32.1391 8.82584L30.0738 11.1124C29.7777 11.4403 29.8054 11.9445 30.1139 12.2608C31.7091 13.8965 32.8307 15.9351 33.3585 18.1581C33.4606 18.5879 33.8716 18.8813 34.3071 18.8066L37.344 18.286Z" fill="#FFAD7D"/>
<path d="M35.2882 29.467C35.6687 29.6917 36.161 29.5661 36.3678 29.1757C37.9283 26.2298 38.6048 22.8952 38.3157 19.5741C38.2773 19.134 37.8729 18.8265 37.4349 18.8851L34.3809 19.2939C33.943 19.3525 33.6382 19.755 33.669 20.1958C33.8281 22.475 33.3655 24.7553 32.3308 26.7924C32.1307 27.1863 32.2545 27.6758 32.635 27.9004L35.2882 29.467Z" fill="#FF7078"/>
<path d="M12.8 41.5748V34.3748H13.535V40.8698H16.955V41.5748H12.8ZM20.3624 41.7248C19.8258 41.7248 19.3674 41.6032 18.9874 41.3598C18.6074 41.1165 18.3158 40.7798 18.1124 40.3498C17.9091 39.9198 17.8074 39.4265 17.8074 38.8698C17.8074 38.3032 17.9108 37.8065 18.1174 37.3798C18.3241 36.9532 18.6174 36.6215 18.9974 36.3848C19.3808 36.1448 19.8358 36.0248 20.3624 36.0248C20.9024 36.0248 21.3624 36.1465 21.7424 36.3898C22.1258 36.6298 22.4174 36.9648 22.6174 37.3948C22.8208 37.8215 22.9224 38.3132 22.9224 38.8698C22.9224 39.4365 22.8208 39.9348 22.6174 40.3648C22.4141 40.7915 22.1208 41.1248 21.7374 41.3648C21.3541 41.6048 20.8958 41.7248 20.3624 41.7248ZM20.3624 41.0198C20.9624 41.0198 21.4091 40.8215 21.7024 40.4248C21.9958 40.0248 22.1424 39.5065 22.1424 38.8698C22.1424 38.2165 21.9941 37.6965 21.6974 37.3098C21.4041 36.9232 20.9591 36.7298 20.3624 36.7298C19.9591 36.7298 19.6258 36.8215 19.3624 37.0048C19.1024 37.1848 18.9074 37.4365 18.7774 37.7598C18.6508 38.0798 18.5874 38.4498 18.5874 38.8698C18.5874 39.5198 18.7374 40.0415 19.0374 40.4348C19.3374 40.8248 19.7791 41.0198 20.3624 41.0198ZM25.2801 41.5748L23.6301 36.1698L24.3651 36.1748L25.6451 40.3698L26.9301 36.1748H27.6001L28.8851 40.3698L30.1751 36.1748H30.9051L29.2551 41.5748H28.6151L27.2651 37.2748L25.9201 41.5748H25.2801Z" fill="#01031C"/>
<path d="M23.9451 14.2302C24.2799 13.5302 24.4474 13.1802 24.6063 13.2206C24.7652 13.261 24.7452 13.6485 24.7054 14.4234L24.3797 20.7514C24.3681 20.9769 24.3623 21.0896 24.2861 21.1458C24.2099 21.2019 24.1005 21.1742 23.8817 21.1186L21.4729 20.5065C21.2541 20.4509 21.1447 20.4231 21.1046 20.3374C21.0645 20.2517 21.1132 20.1499 21.2106 19.9462L23.9451 14.2302Z" fill="black"/>
</svg>
