<svg width="43" height="45" viewBox="0 0 43 45" fill="none" xmlns="http://www.w3.org/2000/svg">
<path d="M31.5753 8.33924C31.8564 7.99833 31.8089 7.49249 31.4554 7.22747C28.788 5.22793 25.5991 4.04121 22.2734 3.81049C21.8327 3.77991 21.4661 4.13165 21.4559 4.57336L21.3848 7.65377C21.3747 8.09548 21.7249 8.45918 22.1651 8.49731C24.4414 8.69448 26.622 9.50598 28.4734 10.8449C28.8314 11.1038 29.3342 11.0576 29.6153 10.7167L31.5753 8.33924Z" fill="#FDCC4D"/>
<path d="M20.3467 4.58507C20.3272 4.14367 19.9532 3.79974 19.5132 3.83962C16.1932 4.14048 13.03 5.39425 10.4054 7.44964C10.0576 7.72206 10.0208 8.22879 10.309 8.56369L12.3188 10.8992C12.607 11.2341 13.1107 11.2697 13.4631 11.0033C15.2858 9.62563 17.4489 8.76828 19.7205 8.52311C20.1597 8.4757 20.5022 8.10469 20.4827 7.66329L20.3467 4.58507Z" fill="#EFE94D"/>
<path d="M9.62165 9.18972C9.31506 8.87158 8.8071 8.861 8.50346 9.18196C6.21248 11.6037 4.66948 14.6362 4.0606 17.9138C3.97991 18.3482 4.2875 18.7526 4.72516 18.8131L7.77732 19.2353C8.21498 19.2959 8.61629 18.9894 8.70442 18.5565C9.16016 16.3176 10.2153 14.2439 11.7568 12.5574C12.0549 12.2313 12.0664 11.7265 11.7598 11.4084L9.62165 9.18972Z" fill="#C5E176"/>
<path d="M4.65001 19.4461C4.21034 19.4025 3.81663 19.7237 3.79339 20.1649C3.61803 23.4939 4.40821 26.8034 6.06859 29.6942C6.28865 30.0773 6.78497 30.1859 7.15752 29.9484L9.75562 28.292C10.1282 28.0544 10.2352 27.561 10.0217 27.1741C8.91789 25.1737 8.37755 22.9106 8.45861 20.6272C8.47429 20.1857 8.15587 19.7938 7.7162 19.7502L4.65001 19.4461Z" fill="#8CDFAD"/>
<path d="M37.344 18.286C37.7795 18.2113 38.0738 17.7972 37.9792 17.3657C37.2647 14.1095 35.6245 11.1284 33.2565 8.78195C32.9426 8.47097 32.4353 8.49796 32.1391 8.82584L30.0738 11.1124C29.7777 11.4403 29.8054 11.9445 30.1139 12.2608C31.7091 13.8965 32.8307 15.9351 33.3585 18.1581C33.4606 18.5879 33.8716 18.8813 34.3071 18.8066L37.344 18.286Z" fill="#FFAD7D"/>
<path d="M35.2882 29.467C35.6687 29.6917 36.161 29.5661 36.3678 29.1757C37.9283 26.2298 38.6048 22.8952 38.3157 19.5741C38.2773 19.134 37.8729 18.8265 37.4349 18.8851L34.3809 19.2939C33.943 19.3525 33.6382 19.755 33.669 20.1958C33.8281 22.475 33.3655 24.7553 32.3308 26.7924C32.1307 27.1863 32.2545 27.6758 32.635 27.9004L35.2882 29.467Z" fill="#FF7078"/>
<path d="M28.3937 21.323C28.5838 21.431 28.4876 21.722 28.2706 21.6954L20.7465 20.7736C20.6212 20.7583 20.5413 20.6321 20.5809 20.5123L21.5142 17.6893C21.5538 17.5695 21.6932 17.5159 21.8029 17.5782L28.3937 21.323Z" fill="black"/>
<path d="M10.7 41.5748V34.3748H11.435V37.6198H15.415V34.3748H16.145V41.5748H15.415V38.3248H11.435V41.5748H10.7ZM17.9457 35.1498V34.3248H18.6807V35.1498H17.9457ZM17.9457 41.5748V36.1748H18.6807V41.5748H17.9457ZM22.6247 44.1248C22.348 44.1248 22.0747 44.0832 21.8047 43.9998C21.538 43.9198 21.2914 43.7915 21.0647 43.6148C20.838 43.4415 20.648 43.2148 20.4947 42.9348L21.1597 42.5648C21.3097 42.8648 21.5197 43.0798 21.7897 43.2098C22.063 43.3432 22.3414 43.4098 22.6247 43.4098C23.0147 43.4098 23.3297 43.3365 23.5697 43.1898C23.813 43.0465 23.9897 42.8332 24.0997 42.5498C24.2097 42.2665 24.263 41.9132 24.2597 41.4898V40.0498H24.3447V36.1748H24.9997V41.4998C24.9997 41.6532 24.9947 41.7998 24.9847 41.9398C24.978 42.0832 24.963 42.2232 24.9397 42.3598C24.8764 42.7632 24.7447 43.0948 24.5447 43.3548C24.348 43.6148 24.088 43.8082 23.7647 43.9348C23.4447 44.0615 23.0647 44.1248 22.6247 44.1248ZM22.5747 41.7248C22.0714 41.7248 21.6414 41.5998 21.2847 41.3498C20.928 41.0965 20.6547 40.7548 20.4647 40.3248C20.2747 39.8948 20.1797 39.4098 20.1797 38.8698C20.1797 38.3332 20.273 37.8498 20.4597 37.4198C20.6497 36.9898 20.9214 36.6498 21.2747 36.3998C21.628 36.1498 22.0514 36.0248 22.5447 36.0248C23.0514 36.0248 23.478 36.1482 23.8247 36.3948C24.1714 36.6415 24.433 36.9798 24.6097 37.4098C24.7897 37.8365 24.8797 38.3232 24.8797 38.8698C24.8797 39.4065 24.7914 39.8915 24.6147 40.3248C24.438 40.7548 24.178 41.0965 23.8347 41.3498C23.4914 41.5998 23.0714 41.7248 22.5747 41.7248ZM22.6497 41.0398C23.033 41.0398 23.3497 40.9465 23.5997 40.7598C23.8497 40.5732 24.0364 40.3165 24.1597 39.9898C24.283 39.6598 24.3447 39.2865 24.3447 38.8698C24.3447 38.4465 24.283 38.0732 24.1597 37.7498C24.0364 37.4232 23.8497 37.1682 23.5997 36.9848C23.353 36.8015 23.0414 36.7098 22.6647 36.7098C22.278 36.7098 21.958 36.8048 21.7047 36.9948C21.4514 37.1848 21.263 37.4432 21.1397 37.7698C21.0197 38.0965 20.9597 38.4632 20.9597 38.8698C20.9597 39.2798 21.0214 39.6498 21.1447 39.9798C21.2714 40.3065 21.4597 40.5648 21.7097 40.7548C21.9597 40.9448 22.273 41.0398 22.6497 41.0398ZM30.5977 41.5748V38.8198C30.5977 38.5198 30.5693 38.2448 30.5127 37.9948C30.456 37.7415 30.3643 37.5215 30.2377 37.3348C30.1143 37.1448 29.9527 36.9982 29.7527 36.8948C29.556 36.7915 29.316 36.7398 29.0327 36.7398C28.7727 36.7398 28.5427 36.7848 28.3427 36.8748C28.146 36.9648 27.9793 37.0948 27.8427 37.2648C27.7093 37.4315 27.6077 37.6348 27.5377 37.8748C27.4677 38.1148 27.4327 38.3882 27.4327 38.6948L26.9127 38.5798C26.9127 38.0265 27.0093 37.5615 27.2027 37.1848C27.396 36.8082 27.6627 36.5232 28.0027 36.3298C28.3427 36.1365 28.7327 36.0398 29.1727 36.0398C29.496 36.0398 29.7777 36.0898 30.0177 36.1898C30.261 36.2898 30.466 36.4248 30.6327 36.5948C30.8027 36.7648 30.9393 36.9598 31.0427 37.1798C31.146 37.3965 31.221 37.6282 31.2677 37.8748C31.3143 38.1182 31.3377 38.3615 31.3377 38.6048V41.5748H30.5977ZM26.6927 41.5748V34.3748H27.3577V38.4398H27.4327V41.5748H26.6927Z" fill="#01031C"/>
</svg>
