<svg width="14" height="13" viewBox="0 0 14 13" fill="none" xmlns="http://www.w3.org/2000/svg">
<path fill-rule="evenodd" clip-rule="evenodd" d="M5.82569 7.32303C5.82569 7.53665 5.91055 7.74152 6.0616 7.89257C6.21265 8.04362 6.41752 8.12848 6.63114 8.12848C6.84476 8.12848 7.04963 8.04362 7.20068 7.89257C7.35174 7.74152 7.4366 7.53665 7.4366 7.32303V5.71212C7.4366 5.4985 7.35174 5.29363 7.20068 5.14257C7.04963 4.99152 6.84476 4.90666 6.63114 4.90666C6.41752 4.90666 6.21265 4.99152 6.0616 5.14257C5.91055 5.29363 5.82569 5.4985 5.82569 5.71212V7.32303ZM5.82569 10.5448C5.82569 10.7585 5.91055 10.9633 6.0616 11.1144C6.21265 11.2654 6.41752 11.3503 6.63114 11.3503C6.84476 11.3503 7.04963 11.2654 7.20068 11.1144C7.35174 10.9633 7.4366 10.7585 7.4366 10.5448C7.4366 10.3312 7.35174 10.1264 7.20068 9.97531C7.04963 9.82425 6.84476 9.73939 6.63114 9.73939C6.41752 9.73939 6.21265 9.82425 6.0616 9.97531C5.91055 10.1264 5.82569 10.3312 5.82569 10.5448ZM12.9902 11.7925L7.35202 0.483909C7.07897 -0.0629955 6.18411 -0.0629955 5.91026 0.483909L0.272073 11.7925C0.210891 11.9155 0.182073 12.0522 0.188342 12.1894C0.194611 12.3267 0.235758 12.4601 0.307901 12.5771C0.380043 12.694 0.480801 12.7907 0.600663 12.8579C0.720525 12.9251 0.855537 12.9607 0.992956 12.9612H12.2693C12.4071 12.9616 12.5426 12.9266 12.663 12.8596C12.7834 12.7926 12.8845 12.6959 12.9569 12.5786C13.0292 12.4614 13.0702 12.3275 13.0761 12.1899C13.0819 12.0523 13.0523 11.9154 12.9902 11.7925Z" fill="#D92D20"/>
</svg>
