<svg width="43" height="43" viewBox="0 0 43 43" fill="none" xmlns="http://www.w3.org/2000/svg">
<path d="M31.5753 8.33924C31.8564 7.99833 31.8089 7.49249 31.4554 7.22747C28.788 5.22793 25.5991 4.04121 22.2734 3.81049C21.8327 3.77991 21.4661 4.13165 21.4559 4.57336L21.3848 7.65377C21.3747 8.09548 21.7249 8.45918 22.1651 8.49731C24.4414 8.69448 26.622 9.50598 28.4734 10.8449C28.8314 11.1038 29.3342 11.0576 29.6153 10.7167L31.5753 8.33924Z" fill="#FDCC4D"/>
<path d="M20.3467 4.58507C20.3272 4.14367 19.9532 3.79974 19.5132 3.83962C16.1932 4.14048 13.03 5.39425 10.4054 7.44964C10.0576 7.72206 10.0208 8.22879 10.309 8.56369L12.3188 10.8992C12.607 11.2341 13.1107 11.2697 13.4631 11.0033C15.2858 9.62563 17.4489 8.76828 19.7205 8.52311C20.1597 8.4757 20.5022 8.10469 20.4827 7.66329L20.3467 4.58507Z" fill="#EFE94D"/>
<path d="M9.62165 9.18972C9.31506 8.87158 8.8071 8.861 8.50346 9.18196C6.21248 11.6037 4.66948 14.6362 4.0606 17.9138C3.97991 18.3482 4.2875 18.7526 4.72516 18.8131L7.77732 19.2353C8.21498 19.2959 8.61629 18.9894 8.70442 18.5565C9.16016 16.3176 10.2153 14.2439 11.7568 12.5574C12.0549 12.2313 12.0664 11.7265 11.7598 11.4084L9.62165 9.18972Z" fill="#C5E176"/>
<path d="M4.65001 19.4461C4.21034 19.4025 3.81663 19.7237 3.79339 20.1649C3.61803 23.4939 4.40821 26.8034 6.06859 29.6942C6.28865 30.0773 6.78497 30.1859 7.15752 29.9484L9.75562 28.292C10.1282 28.0544 10.2352 27.561 10.0217 27.1741C8.91789 25.1737 8.37755 22.9106 8.45861 20.6272C8.47429 20.1857 8.15587 19.7938 7.7162 19.7502L4.65001 19.4461Z" fill="#8CDFAD"/>
<path d="M37.344 18.286C37.7795 18.2113 38.0738 17.7972 37.9792 17.3657C37.2647 14.1095 35.6245 11.1284 33.2565 8.78195C32.9426 8.47097 32.4353 8.49796 32.1391 8.82584L30.0738 11.1124C29.7777 11.4403 29.8054 11.9445 30.1139 12.2608C31.7091 13.8965 32.8307 15.9351 33.3585 18.1581C33.4606 18.5879 33.8716 18.8813 34.3071 18.8066L37.344 18.286Z" fill="#FFAD7D"/>
<path d="M35.2882 29.467C35.6687 29.6917 36.161 29.5661 36.3678 29.1757C37.9283 26.2298 38.6048 22.8952 38.3157 19.5741C38.2773 19.134 37.8729 18.8265 37.4349 18.8851L34.3809 19.2939C33.943 19.3525 33.6382 19.755 33.669 20.1958C33.8281 22.475 33.3655 24.7553 32.3308 26.7924C32.1307 27.1863 32.2545 27.6758 32.635 27.9004L35.2882 29.467Z" fill="#FF7078"/>
<path d="M11.585 41.7248C11.0783 41.7248 10.6217 41.6365 10.215 41.4598C9.80833 41.2832 9.46167 41.0315 9.175 40.7048C8.89167 40.3782 8.675 39.9848 8.525 39.5248C8.375 39.0615 8.3 38.5448 8.3 37.9748C8.3 37.2215 8.43 36.5648 8.69 36.0048C8.95333 35.4415 9.33 35.0048 9.82 34.6948C10.31 34.3848 10.8983 34.2298 11.585 34.2298C12.3517 34.2298 12.975 34.4098 13.455 34.7698C13.9383 35.1265 14.275 35.6065 14.465 36.2098L13.725 36.3898C13.5683 35.9498 13.31 35.5982 12.95 35.3348C12.5933 35.0715 12.1483 34.9398 11.615 34.9398C11.0517 34.9365 10.5833 35.0632 10.21 35.3198C9.83667 35.5732 9.555 35.9298 9.365 36.3898C9.17833 36.8465 9.08333 37.3748 9.08 37.9748C9.07667 38.5748 9.16833 39.1032 9.355 39.5598C9.545 40.0132 9.82833 40.3698 10.205 40.6298C10.5817 40.8865 11.0517 41.0165 11.615 41.0198C12.1317 41.0198 12.5583 40.9198 12.895 40.7198C13.2317 40.5198 13.4867 40.2332 13.66 39.8598C13.8367 39.4865 13.9367 39.0448 13.96 38.5348H12.3V37.9048H14.73C14.74 37.9815 14.745 38.0632 14.745 38.1498C14.7483 38.2332 14.75 38.2932 14.75 38.3298C14.75 38.9798 14.6333 39.5615 14.4 40.0748C14.1667 40.5848 13.815 40.9882 13.345 41.2848C12.8783 41.5782 12.2917 41.7248 11.585 41.7248ZM18.3058 41.7248C17.7691 41.7248 17.3108 41.6032 16.9308 41.3598C16.5508 41.1165 16.2591 40.7798 16.0558 40.3498C15.8524 39.9198 15.7508 39.4265 15.7508 38.8698C15.7508 38.3032 15.8541 37.8065 16.0608 37.3798C16.2674 36.9532 16.5608 36.6215 16.9408 36.3848C17.3241 36.1448 17.7791 36.0248 18.3058 36.0248C18.8458 36.0248 19.3058 36.1465 19.6858 36.3898C20.0691 36.6298 20.3608 36.9648 20.5608 37.3948C20.7641 37.8215 20.8658 38.3132 20.8658 38.8698C20.8658 39.4365 20.7641 39.9348 20.5608 40.3648C20.3574 40.7915 20.0641 41.1248 19.6808 41.3648C19.2974 41.6048 18.8391 41.7248 18.3058 41.7248ZM18.3058 41.0198C18.9058 41.0198 19.3524 40.8215 19.6458 40.4248C19.9391 40.0248 20.0858 39.5065 20.0858 38.8698C20.0858 38.2165 19.9374 37.6965 19.6408 37.3098C19.3474 36.9232 18.9024 36.7298 18.3058 36.7298C17.9024 36.7298 17.5691 36.8215 17.3058 37.0048C17.0458 37.1848 16.8508 37.4365 16.7208 37.7598C16.5941 38.0798 16.5308 38.4498 16.5308 38.8698C16.5308 39.5198 16.6808 40.0415 16.9808 40.4348C17.2808 40.8248 17.7224 41.0198 18.3058 41.0198ZM24.5238 41.7248C23.9871 41.7248 23.5288 41.6032 23.1488 41.3598C22.7688 41.1165 22.4771 40.7798 22.2738 40.3498C22.0704 39.9198 21.9688 39.4265 21.9688 38.8698C21.9688 38.3032 22.0721 37.8065 22.2788 37.3798C22.4854 36.9532 22.7788 36.6215 23.1588 36.3848C23.5421 36.1448 23.9971 36.0248 24.5238 36.0248C25.0638 36.0248 25.5238 36.1465 25.9038 36.3898C26.2871 36.6298 26.5788 36.9648 26.7788 37.3948C26.9821 37.8215 27.0838 38.3132 27.0838 38.8698C27.0838 39.4365 26.9821 39.9348 26.7788 40.3648C26.5754 40.7915 26.2821 41.1248 25.8988 41.3648C25.5154 41.6048 25.0571 41.7248 24.5238 41.7248ZM24.5238 41.0198C25.1238 41.0198 25.5704 40.8215 25.8638 40.4248C26.1571 40.0248 26.3038 39.5065 26.3038 38.8698C26.3038 38.2165 26.1554 37.6965 25.8588 37.3098C25.5654 36.9232 25.1204 36.7298 24.5238 36.7298C24.1204 36.7298 23.7871 36.8215 23.5238 37.0048C23.2638 37.1848 23.0688 37.4365 22.9388 37.7598C22.8121 38.0798 22.7488 38.4498 22.7488 38.8698C22.7488 39.5198 22.8988 40.0415 23.1988 40.4348C23.4988 40.8248 23.9404 41.0198 24.5238 41.0198ZM30.5817 41.7248C30.0784 41.7248 29.6484 41.5998 29.2917 41.3498C28.9351 41.0965 28.6617 40.7548 28.4717 40.3248C28.2817 39.8948 28.1867 39.4098 28.1867 38.8698C28.1867 38.3332 28.2801 37.8498 28.4667 37.4198C28.6567 36.9898 28.9284 36.6498 29.2817 36.3998C29.6351 36.1498 30.0584 36.0248 30.5517 36.0248C31.0584 36.0248 31.4851 36.1482 31.8317 36.3948C32.1784 36.6415 32.4401 36.9798 32.6167 37.4098C32.7967 37.8365 32.8867 38.3232 32.8867 38.8698C32.8867 39.4065 32.7984 39.8915 32.6217 40.3248C32.4451 40.7548 32.1851 41.0965 31.8417 41.3498C31.4984 41.5998 31.0784 41.7248 30.5817 41.7248ZM30.6567 41.0398C31.0401 41.0398 31.3567 40.9465 31.6067 40.7598C31.8567 40.5732 32.0434 40.3165 32.1667 39.9898C32.2901 39.6598 32.3517 39.2865 32.3517 38.8698C32.3517 38.4465 32.2901 38.0732 32.1667 37.7498C32.0434 37.4232 31.8567 37.1682 31.6067 36.9848C31.3601 36.8015 31.0484 36.7098 30.6717 36.7098C30.2851 36.7098 29.9651 36.8048 29.7117 36.9948C29.4584 37.1848 29.2701 37.4432 29.1467 37.7698C29.0267 38.0965 28.9667 38.4632 28.9667 38.8698C28.9667 39.2798 29.0284 39.6498 29.1517 39.9798C29.2784 40.3065 29.4667 40.5648 29.7167 40.7548C29.9667 40.9448 30.2801 41.0398 30.6567 41.0398ZM32.3517 41.5748V37.5098H32.2717V34.3748H33.0117V41.5748H32.3517Z" fill="#01031C"/>
<path d="M15.705 18.0758C14.9567 17.8705 14.5825 17.7678 14.509 17.9143C14.4354 18.0609 14.7413 18.2996 15.3531 18.7769L20.3485 22.6751C20.5265 22.814 20.6154 22.8834 20.7078 22.8626C20.8001 22.8418 20.8508 22.741 20.952 22.5392L22.0671 20.318C22.1684 20.1163 22.219 20.0154 22.1805 19.9289C22.142 19.8425 22.0332 19.8126 21.8155 19.7528L15.705 18.0758Z" fill="black"/>
</svg>
