<svg width="245" height="124" viewBox="0 0 245 124" fill="none" xmlns="http://www.w3.org/2000/svg">
<path fill-rule="evenodd" clip-rule="evenodd" d="M24.5426 123.5H0.345703V120.883H24.5426V123.5ZM24.6134 118.21L0.450459 116.925L0.589605 114.311L24.7524 115.596L24.6134 118.21ZM24.9597 112.995L0.898982 110.431L1.17642 107.828L25.2372 110.392L24.9597 112.995ZM25.5746 107.861L1.68307 104.029L2.09764 101.445L25.9892 105.277L25.5746 107.861ZM26.4509 102.814L2.79424 97.7295L3.34421 95.1706L27.001 100.255L26.4509 102.814ZM27.582 97.8587L4.22371 91.5429L4.90693 89.0163L28.265 95.3322L27.582 97.8587ZM28.9606 93.0024L5.96298 85.4789L6.77672 82.9914L29.7744 90.5149L28.9606 93.0024ZM30.5805 88.251L8.003 79.5474L8.94451 77.1053L31.5218 85.8089L30.5805 88.251ZM32.4347 83.6113L10.3348 73.7579L11.4007 71.3674L33.5006 81.2209L32.4347 83.6113ZM34.5166 79.0902L12.9497 68.1194L14.1363 65.7867L35.7033 76.7575L34.5166 79.0902ZM36.8195 74.6949L15.8383 62.6414L17.1421 60.3721L38.1232 72.4255L36.8195 74.6949ZM39.3364 70.4324L18.9921 57.3327L20.409 55.1322L40.7534 68.2319L39.3364 70.4324ZM42.0604 66.3102L22.402 52.2021L23.928 50.0757L43.5864 64.1839L42.0604 66.3102ZM44.9843 62.3357L26.0592 47.258L27.6902 45.211L46.6154 60.2887L44.9843 62.3357ZM48.1014 58.5164L29.9554 42.5096L31.6867 40.5469L49.8328 56.5536L48.1014 58.5164ZM51.4041 54.8597L34.0816 37.9652L35.9091 36.0914L53.2315 52.986L51.4041 54.8597ZM54.8853 51.3732L38.4293 33.6334L40.3481 31.8535L56.804 49.5932L54.8853 51.3732ZM58.5375 48.0642L42.9902 29.5229L44.9957 27.8413L60.543 46.3824L58.5375 48.0642ZM62.3535 44.94L47.7558 25.6424L49.843 24.0634L64.4408 43.3611L62.3535 44.94ZM66.326 42.0082L52.7173 22.0007L54.8814 20.5288L68.4902 40.5361L66.326 42.0082ZM70.4478 39.2757L57.8665 18.6066L60.1022 17.2458L72.6834 37.9147L70.4478 39.2757ZM74.7114 36.7498L63.1949 15.4692L65.4968 14.2235L77.0132 35.504L74.7114 36.7498ZM79.1099 34.4375L68.6937 12.5973L71.0561 11.4706L81.4724 33.3108L79.1099 34.4375ZM83.6366 32.3459L74.3541 10.0003L76.7712 8.9962L86.0536 31.3418L83.6368 32.3459H83.6366ZM88.2843 30.4819L80.1673 7.687L82.6328 6.80908H82.633L90.7502 29.604L90.75 29.604L88.2845 30.4819H88.2843ZM93.0469 28.8527L86.124 5.66728L88.6318 4.91847L95.5549 28.1039L95.5547 28.1039L93.0471 28.8527H93.0469ZM97.9178 27.4651H97.9176L92.2149 3.94973L94.7584 3.33288H94.7586L100.461 26.8482L100.461 26.8482L97.9178 27.4651ZM102.891 26.3262L102.891 26.3262L98.4302 2.54388L98.4304 2.54388L101.003 2.06153L101.003 2.06153L105.463 25.8439L105.463 25.8439L102.891 26.3262ZM110.554 25.0973L107.96 25.4434L104.76 1.45904L104.76 1.45904L107.354 1.11282L107.355 1.11282L110.555 25.0973L110.554 25.0973ZM115.729 24.6157L113.121 24.824L111.195 0.703854L113.804 0.495527H113.804L115.73 24.6157H115.729ZM118.366 24.4758H118.366L117.723 0.287289L120.34 0.217773H120.34L120.983 24.4062L118.366 24.4758ZM123.674 24.4062L123.674 24.4062L124.317 0.217773H124.317L126.933 0.287289L126.29 24.4758H126.29L123.674 24.4062ZM131.536 24.824L128.927 24.6157L130.852 0.495527L133.461 0.703854L131.536 24.824ZM136.696 25.4434L134.102 25.0973L137.302 1.11282L139.896 1.45904L136.696 25.4434ZM141.765 26.3262L139.193 25.8439L143.653 2.06153L146.226 2.54388L141.765 26.3262ZM146.738 27.4651L144.195 26.8482L149.898 3.33288L152.441 3.94973L146.738 27.4651ZM149.101 28.1039L156.024 4.91847L158.532 5.66728L151.609 28.8527L149.101 28.1039ZM156.372 30.4819L153.906 29.604L162.023 6.80908L164.489 7.687L156.372 30.4819ZM161.019 32.3459L158.603 31.3418L167.885 8.9962L170.302 10.0003L161.019 32.3459ZM220.114 123.5H244.311V120.883H220.114V123.5ZM220.043 118.21L244.206 116.925L244.067 114.311L219.904 115.596L220.043 118.21ZM219.697 112.995L243.757 110.431L243.48 107.828L219.419 110.392L219.697 112.995ZM219.082 107.861L242.973 104.029L242.559 101.445L218.667 105.277L219.082 107.861ZM218.205 102.814L241.862 97.7295L241.312 95.1706L217.655 100.255L218.205 102.814ZM217.074 97.8587L240.433 91.5429L239.749 89.0163L216.391 95.3322L217.074 97.8587ZM215.696 93.0024L238.693 85.4789L237.88 82.9914L214.882 90.5149L215.696 93.0024ZM214.076 88.251L236.653 79.5474L235.712 77.1053L213.134 85.8089L214.076 88.251ZM212.222 83.6113L234.321 73.7579L233.256 71.3674L211.156 81.2209L212.222 83.6113ZM210.14 79.0902L231.707 68.1194L230.52 65.7867L208.953 76.7575L210.14 79.0902ZM207.837 74.6949L228.818 62.6414L227.514 60.3721L206.533 72.4255L207.837 74.6949ZM205.32 70.4324L225.664 57.3327L224.247 55.1322L203.903 68.2319L205.32 70.4324ZM202.596 66.3102L222.254 52.2021L220.728 50.0757L201.07 64.1839L202.596 66.3102ZM199.672 62.3357L218.597 47.258L216.966 45.211L198.041 60.2887L199.672 62.3357ZM196.555 58.5164L214.701 42.5096L212.969 40.5469L194.823 56.5536L196.555 58.5164ZM193.252 54.8597L210.575 37.9653L208.747 36.0914L191.425 52.986L193.252 54.8597ZM189.771 51.3732L206.227 33.6334L204.308 31.8535L187.852 49.5932L189.771 51.3732ZM186.119 48.0642L201.666 29.5229L199.661 27.8413L184.113 46.3824L186.119 48.0642ZM182.303 44.94L196.9 25.6424L194.813 24.0634L180.215 43.3611L182.303 44.94ZM178.33 42.0082L191.939 22.0007L189.775 20.5288L176.166 40.5361L178.33 42.0082ZM174.208 39.2757L186.79 18.6066L184.554 17.2458L171.973 37.9148L174.208 39.2757ZM169.945 36.7498L181.461 15.4692L179.159 14.2235L167.643 35.504L169.945 36.7498ZM165.546 34.4375L175.963 12.5973L173.6 11.4706L163.184 33.3108L165.546 34.4375Z" fill="url(#paint0_linear_0_5)"/>
<path d="M203.6 123.5C203.6 76.6073 167.212 38.5933 122.327 38.5933C77.4408 38.5933 41.0536 76.6073 41.0536 123.5" stroke="#A28888" stroke-width="0.25" stroke-miterlimit="10"/>
<defs>
<linearGradient id="paint0_linear_0_5" x1="244.311" y1="61.8588" x2="6.43215" y2="61.8588" gradientUnits="userSpaceOnUse">
<stop stop-color="#FF2828"/>
<stop offset="0.31" stop-color="#F9891A"/>
<stop offset="0.745" stop-color="#FFDE20"/>
<stop offset="1" stop-color="#12B01C"/>
</linearGradient>
</defs>
</svg>
