<svg width="245" height="203" viewBox="0 0 245 203" fill="none" xmlns="http://www.w3.org/2000/svg">
<path fill-rule="evenodd" clip-rule="evenodd" d="M24.5426 178.5H0.345703V175.883H24.5426V178.5ZM24.6134 173.21L0.450459 171.925L0.589605 169.311L24.7524 170.596L24.6134 173.21ZM24.9597 167.995L0.898982 165.431L1.17642 162.828L25.2372 165.392L24.9597 167.995ZM25.5746 162.861L1.68307 159.029L2.09764 156.445L25.9892 160.277L25.5746 162.861ZM26.4509 157.814L2.79424 152.73L3.34421 150.171L27.001 155.255L26.4509 157.814ZM27.582 152.859L4.22371 146.543L4.90693 144.016L28.265 150.332L27.582 152.859ZM28.9606 148.002L5.96298 140.479L6.77672 137.991L29.7744 145.515L28.9606 148.002ZM30.5805 143.251L8.003 134.547L8.94451 132.105L31.5218 140.809L30.5805 143.251ZM32.4347 138.611L10.3348 128.758L11.4007 126.367L33.5006 136.221L32.4347 138.611ZM34.5166 134.09L12.9497 123.119L14.1363 120.787L35.7033 131.758L34.5166 134.09ZM36.8195 129.695L15.8383 117.641L17.1421 115.372L38.1232 127.426L36.8195 129.695ZM39.3364 125.432L18.9921 112.333L20.409 110.132L40.7534 123.232L39.3364 125.432ZM42.0604 121.31L22.402 107.202L23.928 105.076L43.5864 119.184L42.0604 121.31ZM44.9843 117.336L26.0592 102.258L27.6902 100.211L46.6154 115.289L44.9843 117.336ZM48.1014 113.516L29.9554 97.5096L31.6867 95.5469L49.8328 111.554L48.1014 113.516ZM51.4041 109.86L34.0816 92.9652L35.9091 91.0914L53.2315 107.986L51.4041 109.86ZM54.8853 106.373L38.4293 88.6334L40.3481 86.8535L56.804 104.593L54.8853 106.373ZM58.5375 103.064L42.9902 84.5229L44.9957 82.8413L60.543 101.382L58.5375 103.064ZM62.3535 99.94L47.7558 80.6424L49.843 79.0634L64.4408 98.3611L62.3535 99.94ZM66.326 97.0082L52.7173 77.0007L54.8814 75.5288L68.4902 95.5361L66.326 97.0082ZM70.4478 94.2757L57.8665 73.6066L60.1022 72.2458L72.6834 92.9147L70.4478 94.2757ZM74.7114 91.7498L63.1949 70.4692L65.4968 69.2235L77.0132 90.504L74.7114 91.7498ZM79.1099 89.4375L68.6937 67.5973L71.0561 66.4706L81.4724 88.3108L79.1099 89.4375ZM83.6366 87.3459L74.3541 65.0003L76.7712 63.9962L86.0536 86.3418L83.6368 87.3459H83.6366ZM88.2843 85.4819L80.1673 62.687L82.6328 61.8091H82.633L90.7502 84.604L90.75 84.604L88.2845 85.4819H88.2843ZM93.0469 83.8527L86.124 60.6673L88.6318 59.9185L95.5549 83.1039L95.5547 83.1039L93.0471 83.8527H93.0469ZM97.9178 82.4651H97.9176L92.2149 58.9497L94.7584 58.3329H94.7586L100.461 81.8482L100.461 81.8482L97.9178 82.4651ZM102.891 81.3262L102.891 81.3262L98.4302 57.5439L98.4304 57.5439L101.003 57.0615L101.003 57.0615L105.463 80.8439L105.463 80.8439L102.891 81.3262ZM110.554 80.0973L107.96 80.4434L104.76 56.459L104.76 56.459L107.354 56.1128L107.355 56.1128L110.555 80.0973L110.554 80.0973ZM115.729 79.6157L113.121 79.824L111.195 55.7039L113.804 55.4955H113.804L115.73 79.6157H115.729ZM118.366 79.4758H118.366L117.723 55.2873L120.34 55.2178H120.34L120.983 79.4062L118.366 79.4758ZM123.674 79.4062L123.674 79.4062L124.317 55.2178H124.317L126.933 55.2873L126.29 79.4758H126.29L123.674 79.4062ZM131.536 79.824L128.927 79.6157L130.852 55.4955L133.461 55.7039L131.536 79.824ZM136.696 80.4434L134.102 80.0973L137.302 56.1128L139.896 56.459L136.696 80.4434ZM141.765 81.3262L139.193 80.8439L143.653 57.0615L146.226 57.5439L141.765 81.3262ZM146.738 82.4651L144.195 81.8482L149.898 58.3329L152.441 58.9497L146.738 82.4651ZM149.101 83.1039L156.024 59.9185L158.532 60.6673L151.609 83.8527L149.101 83.1039ZM156.372 85.4819L153.906 84.604L162.023 61.8091L164.489 62.687L156.372 85.4819ZM161.019 87.3459L158.603 86.3418L167.885 63.9962L170.302 65.0003L161.019 87.3459ZM220.114 178.5H244.311V175.883H220.114V178.5ZM220.043 173.21L244.206 171.925L244.067 169.311L219.904 170.596L220.043 173.21ZM219.697 167.995L243.757 165.431L243.48 162.828L219.419 165.392L219.697 167.995ZM219.082 162.861L242.973 159.029L242.559 156.445L218.667 160.277L219.082 162.861ZM218.205 157.814L241.862 152.73L241.312 150.171L217.655 155.255L218.205 157.814ZM217.074 152.859L240.433 146.543L239.749 144.016L216.391 150.332L217.074 152.859ZM215.696 148.002L238.693 140.479L237.88 137.991L214.882 145.515L215.696 148.002ZM214.076 143.251L236.653 134.547L235.712 132.105L213.134 140.809L214.076 143.251ZM212.222 138.611L234.321 128.758L233.256 126.367L211.156 136.221L212.222 138.611ZM210.14 134.09L231.707 123.119L230.52 120.787L208.953 131.758L210.14 134.09ZM207.837 129.695L228.818 117.641L227.514 115.372L206.533 127.426L207.837 129.695ZM205.32 125.432L225.664 112.333L224.247 110.132L203.903 123.232L205.32 125.432ZM202.596 121.31L222.254 107.202L220.728 105.076L201.07 119.184L202.596 121.31ZM199.672 117.336L218.597 102.258L216.966 100.211L198.041 115.289L199.672 117.336ZM196.555 113.516L214.701 97.5096L212.969 95.5469L194.823 111.554L196.555 113.516ZM193.252 109.86L210.575 92.9653L208.747 91.0914L191.425 107.986L193.252 109.86ZM189.771 106.373L206.227 88.6334L204.308 86.8535L187.852 104.593L189.771 106.373ZM186.119 103.064L201.666 84.5229L199.661 82.8413L184.113 101.382L186.119 103.064ZM182.303 99.94L196.9 80.6424L194.813 79.0634L180.215 98.3611L182.303 99.94ZM178.33 97.0082L191.939 77.0007L189.775 75.5288L176.166 95.5361L178.33 97.0082ZM174.208 94.2757L186.79 73.6066L184.554 72.2458L171.973 92.9148L174.208 94.2757ZM169.945 91.7498L181.461 70.4692L179.159 69.2235L167.643 90.504L169.945 91.7498ZM165.546 89.4375L175.963 67.5973L173.6 66.4706L163.184 88.3108L165.546 89.4375Z" fill="url(#paint0_linear_1_129)"/>
<path d="M133.424 55.7039L131.498 79.824L128.889 79.6157L130.815 55.4955L133.424 55.7039ZM126.895 55.2873L126.252 79.4758L123.636 79.4062L124.279 55.2178L126.895 55.2873ZM120.945 79.4062L118.329 79.4758L117.686 55.2873L120.302 55.2178L120.945 79.4062Z" fill="#344054"/>
<path d="M203.599 178.5C203.599 131.607 167.212 93.5933 122.326 93.5933C77.4399 93.5933 41.0527 131.607 41.0527 178.5" stroke="#A28888" stroke-width="0.25" stroke-miterlimit="10"/>
<path d="M203.598 178.5C203.598 150.001 190.158 124.782 169.539 109.382" stroke="#D92D20" stroke-width="4" stroke-miterlimit="10" stroke-linecap="round"/>
<path d="M102.906 159.901H92.0664V155.902H102.906V159.901ZM93.6191 168.793H88.6387V147.465H93.6191V168.793ZM106.363 168.793H101.412V147.465H106.363V168.793ZM115.05 168.793H110.099V147.465H115.05V168.793ZM136.041 166.127C135.689 166.527 135.152 166.957 134.43 167.416C133.707 167.875 132.789 168.271 131.676 168.603C130.562 168.925 129.225 169.086 127.662 169.086C125.787 169.086 124.146 168.686 122.74 167.885C121.334 167.074 120.24 165.897 119.459 164.354C118.678 162.802 118.287 160.917 118.287 158.7V157.587C118.287 155.36 118.668 153.471 119.43 151.918C120.201 150.365 121.271 149.184 122.638 148.373C124.005 147.562 125.582 147.157 127.369 147.157C129.293 147.157 130.865 147.465 132.086 148.08C133.307 148.695 134.234 149.555 134.869 150.658C135.504 151.752 135.89 153.012 136.026 154.438H131.236C131.139 153.734 130.948 153.139 130.665 152.65C130.392 152.162 130.001 151.791 129.493 151.537C128.985 151.273 128.326 151.142 127.516 151.142C126.637 151.142 125.885 151.381 125.26 151.859C124.635 152.328 124.156 153.036 123.824 153.983C123.492 154.931 123.326 156.122 123.326 157.558V158.7C123.326 160.116 123.497 161.298 123.839 162.245C124.181 163.192 124.693 163.905 125.377 164.384C126.07 164.853 126.939 165.087 127.984 165.087C128.59 165.087 129.093 165.043 129.493 164.955C129.894 164.857 130.221 164.745 130.475 164.618C130.738 164.481 130.938 164.35 131.075 164.223V160.941H127.428V157.367H136.041V166.127ZM153.473 159.901H142.633V155.902H153.473V159.901ZM144.186 168.793H139.205V147.465H144.186V168.793ZM156.93 168.793H151.979V147.465H156.93V168.793Z" fill="#D92D20"/>
<rect x="79.7988" y="0.928711" width="86" height="42" rx="8" fill="#344054"/>
<path d="M93.9707 22.208V20.96H95.793C96.2617 20.96 96.6094 20.8701 96.8359 20.6904C97.0664 20.5107 97.1816 20.251 97.1816 19.9111C97.1816 19.5283 97.0703 19.2529 96.8477 19.085C96.625 18.917 96.2734 18.833 95.793 18.833H94.5742V25.9287H92.793V17.3975H95.793C96.7852 17.3975 97.5605 17.5889 98.1191 17.9717C98.6777 18.3506 98.957 18.9385 98.957 19.7354C98.957 20.083 98.875 20.4072 98.7109 20.708C98.5508 21.0088 98.3008 21.2529 97.9609 21.4404C97.6211 21.624 97.1797 21.7256 96.6367 21.7451L96.1328 22.208H93.9707ZM93.4727 25.9287L94.1816 24.499H96.0625C96.5156 24.499 96.8477 24.3955 97.0586 24.1885C97.2695 23.9775 97.375 23.7139 97.375 23.3975C97.375 23.1514 97.332 22.9404 97.2461 22.7646C97.1641 22.585 97.0312 22.4482 96.8477 22.3545C96.668 22.2568 96.4297 22.208 96.1328 22.208H94.4336V20.96H96.5723L96.9766 21.458C97.4961 21.4463 97.9141 21.5342 98.2305 21.7217C98.5469 21.9092 98.7773 22.1533 98.9219 22.4541C99.0703 22.7549 99.1445 23.0752 99.1445 23.415C99.1445 24.2432 98.877 24.8701 98.3418 25.2959C97.8105 25.7178 97.0508 25.9287 96.0625 25.9287H93.4727ZM103.275 26.0459C102.619 26.0459 102.055 25.9072 101.582 25.6299C101.113 25.3525 100.754 24.9834 100.504 24.5225C100.254 24.0576 100.129 23.542 100.129 22.9756V22.7471C100.129 22.1104 100.248 21.5459 100.486 21.0537C100.729 20.5576 101.07 20.1709 101.512 19.8936C101.957 19.6123 102.482 19.4717 103.088 19.4717C103.701 19.4717 104.215 19.6025 104.629 19.8643C105.043 20.1221 105.355 20.4854 105.566 20.9541C105.777 21.4189 105.883 21.9639 105.883 22.5889V23.3154H100.861V22.1494H104.207V22.0146C104.203 21.792 104.162 21.5928 104.084 21.417C104.006 21.2373 103.885 21.0967 103.721 20.9951C103.557 20.8936 103.342 20.8428 103.076 20.8428C102.783 20.8428 102.545 20.9268 102.361 21.0947C102.178 21.2588 102.043 21.4834 101.957 21.7686C101.871 22.0537 101.828 22.3799 101.828 22.7471V22.9756C101.828 23.3076 101.889 23.6006 102.01 23.8545C102.135 24.1084 102.314 24.3076 102.549 24.4521C102.783 24.5967 103.062 24.6689 103.387 24.6689C103.695 24.6689 103.98 24.6123 104.242 24.499C104.504 24.3818 104.729 24.2021 104.916 23.96L105.748 24.8975C105.549 25.1865 105.242 25.4502 104.828 25.6885C104.418 25.9268 103.9 26.0459 103.275 26.0459ZM108.514 25.9287H106.809V19.5889H108.408L108.514 20.9424V25.9287ZM107.787 22.5596C107.787 21.9268 107.891 21.3799 108.098 20.9189C108.309 20.4541 108.602 20.0967 108.977 19.8467C109.352 19.5967 109.787 19.4717 110.283 19.4717C110.686 19.4717 111.035 19.5498 111.332 19.7061C111.633 19.8623 111.867 20.1162 112.035 20.4678C112.207 20.8193 112.293 21.2939 112.293 21.8916V25.9287H110.582V21.8857C110.582 21.6162 110.543 21.4072 110.465 21.2588C110.387 21.1104 110.273 21.0068 110.125 20.9482C109.977 20.8857 109.793 20.8545 109.574 20.8545C109.355 20.8545 109.164 20.8975 109 20.9834C108.836 21.0654 108.699 21.1846 108.59 21.3408C108.48 21.4932 108.398 21.6729 108.344 21.8799C108.289 22.083 108.262 22.3037 108.262 22.542L107.787 22.5596ZM116.236 26.0459C115.58 26.0459 115.035 25.9033 114.602 25.6182C114.172 25.333 113.848 24.9482 113.629 24.4639C113.414 23.9795 113.307 23.4385 113.307 22.8408V22.6768C113.307 22.0791 113.414 21.5381 113.629 21.0537C113.844 20.5693 114.168 20.1846 114.602 19.8994C115.035 19.6143 115.578 19.4717 116.23 19.4717C116.754 19.4717 117.211 19.5732 117.602 19.7764C117.996 19.9756 118.305 20.2607 118.527 20.6318C118.754 21.0029 118.869 21.4424 118.873 21.9502H117.273C117.266 21.7471 117.221 21.5615 117.139 21.3936C117.057 21.2256 116.938 21.0928 116.781 20.9951C116.625 20.8936 116.432 20.8428 116.201 20.8428C115.877 20.8428 115.629 20.9307 115.457 21.1064C115.285 21.2783 115.168 21.5049 115.105 21.7861C115.043 22.0635 115.012 22.3604 115.012 22.6768V22.8408C115.012 23.165 115.041 23.4678 115.1 23.749C115.162 24.0264 115.279 24.251 115.451 24.4229C115.627 24.5908 115.879 24.6748 116.207 24.6748C116.414 24.6748 116.596 24.6357 116.752 24.5576C116.912 24.4795 117.037 24.3701 117.127 24.2295C117.217 24.085 117.266 23.9189 117.273 23.7314H118.873C118.869 24.1807 118.748 24.5791 118.51 24.9268C118.275 25.2744 117.961 25.5479 117.566 25.7471C117.172 25.9463 116.729 26.0459 116.236 26.0459ZM121.504 25.9287H119.799V16.9287H121.504V25.9287ZM120.783 22.5596C120.783 21.9658 120.883 21.4365 121.082 20.9717C121.281 20.5068 121.561 20.1416 121.92 19.876C122.283 19.6064 122.707 19.4717 123.191 19.4717C123.609 19.4717 123.975 19.5537 124.287 19.7178C124.604 19.8779 124.85 20.1377 125.025 20.4971C125.201 20.8564 125.289 21.335 125.289 21.9326V25.9287H123.578V21.9209C123.578 21.6514 123.539 21.4385 123.461 21.2822C123.383 21.126 123.268 21.0166 123.115 20.9541C122.967 20.8877 122.785 20.8545 122.57 20.8545C122.332 20.8545 122.129 20.8975 121.961 20.9834C121.797 21.0654 121.662 21.1846 121.557 21.3408C121.451 21.4932 121.375 21.6729 121.328 21.8799C121.281 22.083 121.258 22.3037 121.258 22.542L120.783 22.5596ZM128.271 25.9287H126.566V19.5889H128.166L128.271 20.9072V25.9287ZM127.539 22.5596C127.539 21.9658 127.633 21.4365 127.82 20.9717C128.008 20.5068 128.287 20.1416 128.658 19.876C129.029 19.6064 129.488 19.4717 130.035 19.4717C130.602 19.4717 131.064 19.6455 131.424 19.9932C131.783 20.3369 131.963 20.9053 131.963 21.6982V25.9287H130.252V21.9033C130.252 21.6221 130.213 21.4072 130.135 21.2588C130.061 21.1064 129.953 21.001 129.812 20.9424C129.672 20.8838 129.502 20.8545 129.303 20.8545C129.08 20.8545 128.889 20.8975 128.729 20.9834C128.568 21.0654 128.436 21.1846 128.33 21.3408C128.229 21.4932 128.152 21.6729 128.102 21.8799C128.055 22.083 128.031 22.3037 128.031 22.542L127.539 22.5596ZM131.172 22.4658C131.172 21.9033 131.262 21.3975 131.441 20.9482C131.625 20.4951 131.898 20.1357 132.262 19.8701C132.629 19.6045 133.08 19.4717 133.615 19.4717C134.029 19.4717 134.389 19.5498 134.693 19.7061C134.998 19.8623 135.234 20.1182 135.402 20.4736C135.57 20.8252 135.654 21.2979 135.654 21.8916V25.9287H133.943V21.8857C133.943 21.6045 133.904 21.3896 133.826 21.2412C133.748 21.0928 133.639 20.9912 133.498 20.9365C133.361 20.8818 133.193 20.8545 132.994 20.8545C132.799 20.8545 132.627 20.8936 132.479 20.9717C132.33 21.0459 132.207 21.1533 132.109 21.2939C132.012 21.4307 131.938 21.5928 131.887 21.7803C131.836 21.9639 131.811 22.165 131.811 22.3838L131.172 22.4658ZM140.389 21.6924C140.389 21.3994 140.312 21.167 140.16 20.9951C140.012 20.8193 139.777 20.7314 139.457 20.7314C139.273 20.7314 139.113 20.7627 138.977 20.8252C138.844 20.8838 138.74 20.9697 138.666 21.083C138.596 21.1963 138.561 21.333 138.561 21.4932H136.855C136.855 21.1221 136.965 20.7842 137.184 20.4795C137.406 20.1748 137.719 19.9307 138.121 19.7471C138.527 19.5635 139.004 19.4717 139.551 19.4717C140.039 19.4717 140.475 19.5537 140.857 19.7178C141.244 19.8818 141.547 20.1299 141.766 20.4619C141.988 20.7939 142.1 21.208 142.1 21.7041V24.3818C142.1 24.7412 142.121 25.0322 142.164 25.2549C142.207 25.4736 142.27 25.665 142.352 25.8291V25.9287H140.629C140.551 25.7529 140.49 25.5342 140.447 25.2725C140.408 25.0068 140.389 24.7393 140.389 24.4697V21.6924ZM140.611 23.0459H139.703C139.254 23.0459 138.928 23.1396 138.725 23.3271C138.521 23.5107 138.42 23.7412 138.42 24.0186C138.42 24.2256 138.492 24.3994 138.637 24.54C138.785 24.6768 138.986 24.7451 139.24 24.7451C139.49 24.7451 139.707 24.6963 139.891 24.5986C140.078 24.4971 140.223 24.376 140.324 24.2354C140.426 24.0908 140.475 23.958 140.471 23.8369L140.928 24.5752C140.873 24.7354 140.791 24.9014 140.682 25.0732C140.576 25.2412 140.441 25.3994 140.277 25.5479C140.113 25.6924 139.914 25.8115 139.68 25.9053C139.449 25.999 139.18 26.0459 138.871 26.0459C138.465 26.0459 138.098 25.9658 137.77 25.8057C137.445 25.6416 137.188 25.417 136.996 25.1318C136.805 24.8428 136.709 24.5127 136.709 24.1416C136.709 23.4775 136.955 22.9639 137.447 22.6006C137.943 22.2373 138.674 22.0557 139.639 22.0557H140.611V23.0459ZM145.111 25.9287H143.406V19.5889H145.018L145.111 21.001V25.9287ZM146.975 21.1826C146.889 21.1709 146.787 21.1611 146.67 21.1533C146.557 21.1416 146.455 21.1357 146.365 21.1357C146.053 21.1357 145.795 21.1865 145.592 21.2881C145.389 21.3896 145.236 21.5361 145.135 21.7275C145.037 21.9189 144.984 22.1553 144.977 22.4365L144.631 22.3193C144.631 21.7686 144.701 21.2803 144.842 20.8545C144.982 20.4248 145.189 20.0869 145.463 19.8408C145.74 19.5947 146.076 19.4717 146.471 19.4717C146.561 19.4717 146.656 19.4795 146.758 19.4951C146.859 19.5068 146.939 19.5244 146.998 19.5479L146.975 21.1826ZM149.494 25.9287H147.789V16.9229H149.494V25.9287ZM150.742 22.7471L149.236 24.2588L148.639 22.999L149.822 21.4814L151.428 19.5889H153.479L150.742 22.7471ZM149.863 23.0225L151.029 21.9795L153.678 25.9287H151.715L149.863 23.0225Z" fill="white"/>
<path d="M130.799 42.9287H114.799L121.385 49.5145C122.166 50.2955 123.432 50.2955 124.213 49.5145L130.799 42.9287Z" fill="#344054"/>
<path d="M82.1992 136.098H80.771V126.855H82.1992V136.098ZM85.1191 128.017H77.8638V126.855H85.1191V128.017ZM84.8271 132.594C84.8271 131.929 84.9541 131.335 85.208 130.81C85.4619 130.285 85.8237 129.871 86.2935 129.566C86.7674 129.257 87.3302 129.103 87.9819 129.103C88.6463 129.103 89.2155 129.257 89.6895 129.566C90.1634 129.871 90.5252 130.285 90.7749 130.81C91.0288 131.335 91.1558 131.929 91.1558 132.594V132.74C91.1558 133.4 91.0288 133.994 90.7749 134.523C90.5252 135.048 90.1634 135.463 89.6895 135.768C89.2197 136.072 88.6548 136.225 87.9946 136.225C87.3387 136.225 86.7738 136.072 86.2998 135.768C85.8258 135.463 85.4619 135.048 85.208 134.523C84.9541 133.994 84.8271 133.4 84.8271 132.74V132.594ZM86.2173 132.74C86.2173 133.167 86.2808 133.561 86.4077 133.92C86.5347 134.28 86.7293 134.57 86.9917 134.79C87.2541 135.006 87.5884 135.114 87.9946 135.114C88.4009 135.114 88.7352 135.006 88.9976 134.79C89.2599 134.57 89.4546 134.28 89.5815 133.92C89.7085 133.561 89.772 133.167 89.772 132.74V132.594C89.772 132.171 89.7085 131.779 89.5815 131.419C89.4546 131.056 89.2578 130.764 88.9912 130.543C88.7288 130.323 88.3924 130.213 87.9819 130.213C87.5841 130.213 87.252 130.323 86.9854 130.543C86.723 130.764 86.5283 131.056 86.4014 131.419C86.2786 131.779 86.2173 132.171 86.2173 132.594V132.74ZM95.5547 130.258H91.7397V129.229H95.5547V130.258ZM94.3042 127.554V134.276C94.3042 134.5 94.3359 134.669 94.3994 134.784C94.4671 134.898 94.556 134.974 94.666 135.012C94.7803 135.05 94.9051 135.069 95.0405 135.069C95.1421 135.069 95.2437 135.063 95.3452 135.05C95.451 135.033 95.5314 135.019 95.5864 135.006V136.085C95.4722 136.123 95.3368 136.155 95.1802 136.18C95.0236 136.21 94.8374 136.225 94.6216 136.225C94.3 136.225 94.0101 136.165 93.752 136.047C93.4938 135.924 93.2907 135.725 93.1426 135.45C92.9945 135.171 92.9204 134.799 92.9204 134.333V127.554H94.3042ZM100.766 131.426C100.766 131.041 100.656 130.736 100.436 130.512C100.22 130.283 99.8944 130.169 99.4585 130.169C99.1919 130.169 98.9591 130.215 98.7603 130.309C98.5614 130.397 98.4069 130.518 98.2969 130.67C98.1868 130.823 98.1318 130.992 98.1318 131.178H96.748C96.748 130.827 96.8623 130.495 97.0908 130.182C97.3193 129.864 97.6431 129.606 98.062 129.407C98.481 129.204 98.9718 129.103 99.5347 129.103C100.042 129.103 100.493 129.189 100.887 129.363C101.285 129.532 101.596 129.79 101.82 130.137C102.044 130.484 102.156 130.918 102.156 131.438V134.549C102.156 134.824 102.177 135.088 102.22 135.342C102.262 135.592 102.323 135.81 102.404 135.996V136.098H100.982C100.914 135.945 100.861 135.749 100.823 135.507C100.785 135.262 100.766 135.027 100.766 134.803V131.426ZM100.982 132.822H99.8711C99.2575 132.822 98.7899 132.928 98.4683 133.14C98.1466 133.347 97.9858 133.643 97.9858 134.028C97.9858 134.329 98.0874 134.581 98.2905 134.784C98.4937 134.987 98.7856 135.088 99.1665 135.088C99.5008 135.088 99.7949 135.021 100.049 134.885C100.303 134.746 100.502 134.574 100.646 134.371C100.789 134.168 100.866 133.973 100.874 133.787L101.382 134.422C101.34 134.6 101.255 134.792 101.128 135C101.005 135.203 100.84 135.397 100.633 135.583C100.425 135.77 100.18 135.924 99.8965 136.047C99.613 136.165 99.2892 136.225 98.9253 136.225C98.4683 136.225 98.0641 136.136 97.7129 135.958C97.3659 135.78 97.0929 135.537 96.894 135.228C96.6994 134.915 96.6021 134.568 96.6021 134.187C96.6021 133.451 96.8771 132.89 97.4272 132.505C97.9816 132.116 98.7454 131.921 99.7188 131.921H100.982V132.822ZM105.349 136.098H103.965V126.348H105.349V136.098ZM113.69 126.855C114.392 126.855 114.989 126.961 115.48 127.173C115.971 127.384 116.345 127.698 116.604 128.112C116.862 128.523 116.991 129.031 116.991 129.636C116.991 130.08 116.904 130.478 116.73 130.829C116.561 131.176 116.318 131.472 116 131.718C115.687 131.959 115.313 132.141 114.877 132.264L114.458 132.46H111.563V131.305H113.715C114.122 131.305 114.46 131.233 114.731 131.089C115.002 130.945 115.205 130.751 115.34 130.505C115.476 130.26 115.543 129.985 115.543 129.68C115.543 129.177 115.395 128.775 115.099 128.474C114.807 128.169 114.337 128.017 113.69 128.017H111.957V136.098H110.516V126.855H113.69ZM113.633 131.927H115.15L117.378 136.015V136.098H115.835L113.633 131.927ZM119.27 126.665C119.528 126.665 119.727 126.739 119.866 126.887C120.006 127.031 120.076 127.209 120.076 127.42C120.076 127.632 120.006 127.81 119.866 127.954C119.727 128.097 119.528 128.169 119.27 128.169C119.016 128.169 118.819 128.097 118.679 127.954C118.544 127.81 118.476 127.632 118.476 127.42C118.476 127.209 118.544 127.031 118.679 126.887C118.819 126.739 119.016 126.665 119.27 126.665ZM119.968 136.098H118.584V129.229H119.968V136.098ZM124.322 136.225C123.704 136.225 123.182 136.115 122.754 135.895C122.331 135.674 122.01 135.393 121.79 135.05C121.569 134.703 121.459 134.339 121.459 133.958H122.818C122.835 134.255 122.919 134.492 123.072 134.669C123.224 134.847 123.412 134.974 123.637 135.05C123.865 135.126 124.096 135.165 124.329 135.165C124.625 135.165 124.872 135.126 125.071 135.05C125.27 134.97 125.42 134.862 125.522 134.727C125.628 134.587 125.681 134.428 125.681 134.25C125.681 134.094 125.643 133.95 125.566 133.819C125.494 133.683 125.348 133.561 125.128 133.451C124.913 133.341 124.589 133.241 124.157 133.152C123.662 133.051 123.228 132.917 122.856 132.752C122.488 132.583 122.202 132.369 121.999 132.111C121.796 131.849 121.694 131.527 121.694 131.146C121.694 130.778 121.8 130.44 122.012 130.131C122.223 129.822 122.524 129.574 122.913 129.388C123.307 129.198 123.768 129.103 124.297 129.103C124.86 129.103 125.342 129.2 125.744 129.395C126.15 129.585 126.459 129.843 126.671 130.169C126.887 130.495 126.995 130.861 126.995 131.267H125.611C125.611 130.988 125.499 130.734 125.274 130.505C125.05 130.277 124.724 130.163 124.297 130.163C124.009 130.163 123.772 130.207 123.586 130.296C123.404 130.385 123.269 130.501 123.18 130.645C123.095 130.785 123.053 130.935 123.053 131.096C123.053 131.252 123.095 131.39 123.18 131.508C123.264 131.623 123.412 131.726 123.624 131.819C123.84 131.908 124.147 131.997 124.544 132.086C125.086 132.204 125.543 132.35 125.916 132.524C126.288 132.693 126.569 132.911 126.76 133.178C126.954 133.444 127.052 133.777 127.052 134.174C127.052 134.572 126.938 134.928 126.709 135.241C126.485 135.55 126.167 135.791 125.757 135.964C125.351 136.138 124.872 136.225 124.322 136.225ZM129.857 136.098H128.474V126.348H129.857V136.098ZM131.108 132.492L129.438 134.206L129.178 132.924L130.403 131.432L132.409 129.229H134.085L131.108 132.492ZM130.448 132.854L131.254 131.788L134.371 136.098H132.758L130.448 132.854ZM144.286 136.098H139.665V134.942H144.286V136.098ZM140.014 136.098H138.573V126.855H140.014V136.098ZM148.38 136.225C147.72 136.225 147.148 136.081 146.666 135.793C146.184 135.501 145.809 135.105 145.542 134.606C145.28 134.102 145.149 133.535 145.149 132.905V132.638C145.149 131.91 145.286 131.282 145.562 130.753C145.841 130.224 146.213 129.818 146.679 129.534C147.148 129.246 147.66 129.103 148.215 129.103C148.875 129.103 149.417 129.249 149.84 129.541C150.267 129.828 150.585 130.226 150.792 130.734C150.999 131.237 151.103 131.815 151.103 132.467V133.07H145.879V132.029H149.726V131.921C149.713 131.633 149.656 131.36 149.554 131.102C149.457 130.84 149.3 130.626 149.084 130.461C148.869 130.296 148.577 130.213 148.208 130.213C147.866 130.213 147.567 130.311 147.313 130.505C147.064 130.7 146.871 130.979 146.736 131.343C146.6 131.703 146.533 132.135 146.533 132.638V132.905C146.533 133.315 146.609 133.688 146.761 134.022C146.914 134.356 147.134 134.623 147.421 134.822C147.713 135.016 148.06 135.114 148.462 135.114C148.852 135.114 149.188 135.035 149.472 134.879C149.759 134.722 150.009 134.504 150.221 134.225L150.995 134.923C150.779 135.253 150.46 135.554 150.037 135.825C149.613 136.091 149.061 136.225 148.38 136.225ZM156.213 129.229H157.635L155.223 136.098H154.309L154.455 134.949L156.213 129.229ZM154.854 134.968L154.969 136.098H154.061L151.624 129.229H153.052L154.854 134.968ZM161.621 136.225C160.961 136.225 160.39 136.081 159.907 135.793C159.425 135.501 159.05 135.105 158.784 134.606C158.521 134.102 158.39 133.535 158.39 132.905V132.638C158.39 131.91 158.528 131.282 158.803 130.753C159.082 130.224 159.454 129.818 159.92 129.534C160.39 129.246 160.902 129.103 161.456 129.103C162.116 129.103 162.658 129.249 163.081 129.541C163.508 129.828 163.826 130.226 164.033 130.734C164.241 131.237 164.344 131.815 164.344 132.467V133.07H159.12V132.029H162.967V131.921C162.954 131.633 162.897 131.36 162.795 131.102C162.698 130.84 162.542 130.626 162.326 130.461C162.11 130.296 161.818 130.213 161.45 130.213C161.107 130.213 160.809 130.311 160.555 130.505C160.305 130.7 160.112 130.979 159.977 131.343C159.842 131.703 159.774 132.135 159.774 132.638V132.905C159.774 133.315 159.85 133.688 160.002 134.022C160.155 134.356 160.375 134.623 160.663 134.822C160.955 135.016 161.302 135.114 161.704 135.114C162.093 135.114 162.429 135.035 162.713 134.879C163.001 134.722 163.25 134.504 163.462 134.225L164.236 134.923C164.021 135.253 163.701 135.554 163.278 135.825C162.855 136.091 162.302 136.225 161.621 136.225ZM167.099 136.098H165.715V126.348H167.099V136.098Z" fill="#344054"/>
<path d="M204.899 135.071L198.13 144.018L193.766 133.683L204.899 135.071Z" fill="#D92D20"/>
<path d="M62.9863 191.263C62.9863 190.937 62.8932 190.679 62.707 190.489C62.5244 190.296 62.2487 190.199 61.8799 190.199C61.6543 190.199 61.4574 190.239 61.2891 190.317C61.1208 190.393 60.9901 190.495 60.897 190.624C60.8039 190.752 60.7573 190.896 60.7573 191.053H59.5864C59.5864 190.756 59.6831 190.475 59.8765 190.21C60.0698 189.941 60.3438 189.723 60.6982 189.555C61.0527 189.383 61.4681 189.297 61.9443 189.297C62.374 189.297 62.7554 189.37 63.0884 189.517C63.425 189.66 63.6882 189.879 63.8779 190.172C64.0677 190.466 64.1626 190.833 64.1626 191.273V193.905C64.1626 194.138 64.1805 194.362 64.2163 194.577C64.2521 194.788 64.304 194.972 64.3721 195.13V195.216H63.1689C63.1117 195.087 63.0669 194.92 63.0347 194.716C63.0024 194.509 62.9863 194.31 62.9863 194.12V191.263ZM63.1689 192.444H62.229C61.7098 192.444 61.3141 192.534 61.042 192.713C60.7699 192.888 60.6338 193.139 60.6338 193.465C60.6338 193.719 60.7197 193.932 60.8916 194.104C61.0635 194.276 61.3105 194.362 61.6328 194.362C61.9157 194.362 62.1646 194.305 62.3794 194.19C62.5942 194.072 62.7625 193.927 62.8843 193.755C63.006 193.583 63.0705 193.418 63.0776 193.261L63.5073 193.798C63.4715 193.948 63.3999 194.111 63.2925 194.287C63.1886 194.458 63.049 194.623 62.8735 194.781C62.6981 194.938 62.4904 195.069 62.2505 195.173C62.0106 195.273 61.7367 195.323 61.4287 195.323C61.042 195.323 60.7 195.248 60.4028 195.098C60.1092 194.947 59.8783 194.741 59.71 194.48C59.5452 194.215 59.4629 193.921 59.4629 193.599C59.4629 192.976 59.6956 192.502 60.1611 192.176C60.6302 191.846 61.2765 191.682 62.1001 191.682H63.1689V192.444ZM66.7729 195.216H65.6021V189.404H66.7031L66.7729 190.645V195.216ZM66.1123 192.084C66.1195 191.54 66.2197 191.059 66.4131 190.64C66.61 190.221 66.8822 189.893 67.2295 189.657C67.5804 189.417 67.9886 189.297 68.4541 189.297C68.8337 189.297 69.1613 189.368 69.437 189.512C69.7127 189.651 69.9276 189.879 70.0815 190.194C70.2355 190.505 70.3125 190.921 70.3125 191.44V195.216H69.1362V191.429C69.1362 191.143 69.0951 190.914 69.0127 190.742C68.9303 190.57 68.8086 190.446 68.6475 190.371C68.4863 190.296 68.2876 190.258 68.0513 190.258C67.8185 190.258 67.609 190.307 67.4229 190.403C67.2367 190.5 67.0773 190.634 66.9448 190.806C66.8123 190.974 66.7103 191.17 66.6387 191.392C66.5706 191.61 66.5366 191.845 66.5366 192.095L66.1123 192.084ZM73.75 195.323C73.2881 195.323 72.8853 195.196 72.5415 194.942C72.2013 194.684 71.9364 194.333 71.7466 193.889C71.5604 193.445 71.4673 192.94 71.4673 192.375V192.262C71.4673 191.671 71.5604 191.153 71.7466 190.709C71.9364 190.262 72.2013 189.915 72.5415 189.667C72.8853 189.42 73.2917 189.297 73.7607 189.297C74.2406 189.297 74.6398 189.413 74.9585 189.646C75.2808 189.879 75.5332 190.206 75.7158 190.629C75.8984 191.048 76.0184 191.542 76.0757 192.111V192.541C76.0184 193.096 75.8984 193.583 75.7158 194.002C75.5368 194.417 75.2861 194.741 74.9639 194.974C74.6416 195.207 74.237 195.323 73.75 195.323ZM74.0454 194.356C74.3534 194.356 74.6076 194.29 74.8081 194.158C75.0086 194.022 75.1662 193.843 75.2808 193.621C75.3989 193.399 75.4867 193.152 75.5439 192.879V191.778C75.5117 191.571 75.458 191.375 75.3828 191.193C75.3112 191.01 75.2163 190.849 75.0981 190.709C74.98 190.57 74.835 190.461 74.6631 190.382C74.4912 190.299 74.2889 190.258 74.0562 190.258C73.7196 190.258 73.4474 190.35 73.2397 190.532C73.0321 190.711 72.8799 190.953 72.7832 191.257C72.6865 191.562 72.6382 191.896 72.6382 192.262V192.375C72.6382 192.74 72.6865 193.073 72.7832 193.374C72.8799 193.671 73.0303 193.909 73.2344 194.088C73.4421 194.267 73.7124 194.356 74.0454 194.356ZM75.4097 195.216L75.3022 194.045V186.966H76.4785V195.216H75.4097ZM115.575 190.274H112.347V189.404H115.575V190.274ZM114.517 187.986V193.674C114.517 193.864 114.543 194.007 114.597 194.104C114.654 194.201 114.73 194.265 114.823 194.297C114.919 194.33 115.025 194.346 115.14 194.346C115.226 194.346 115.312 194.34 115.397 194.33C115.487 194.315 115.555 194.303 115.602 194.292V195.205C115.505 195.237 115.39 195.264 115.258 195.286C115.125 195.311 114.968 195.323 114.785 195.323C114.513 195.323 114.268 195.273 114.049 195.173C113.831 195.069 113.659 194.901 113.534 194.668C113.408 194.432 113.346 194.117 113.346 193.723V187.986H114.517ZM117.809 195.216H116.633V186.966H117.809V195.216ZM117.148 192.084C117.152 191.551 117.25 191.075 117.444 190.656C117.637 190.237 117.906 189.906 118.25 189.662C118.597 189.419 119.001 189.297 119.463 189.297C119.847 189.297 120.178 189.368 120.457 189.512C120.74 189.655 120.958 189.884 121.112 190.199C121.27 190.514 121.349 190.931 121.349 191.451V195.216H120.172V191.44C120.172 191.153 120.131 190.924 120.049 190.752C119.966 190.577 119.845 190.452 119.684 190.376C119.522 190.298 119.324 190.258 119.087 190.258C118.847 190.258 118.634 190.307 118.448 190.403C118.262 190.5 118.103 190.634 117.97 190.806C117.841 190.974 117.743 191.17 117.675 191.392C117.607 191.61 117.573 191.845 117.573 192.095L117.148 192.084ZM125.232 195.323C124.673 195.323 124.19 195.201 123.782 194.958C123.374 194.711 123.057 194.376 122.831 193.954C122.609 193.528 122.498 193.048 122.498 192.514V192.289C122.498 191.673 122.614 191.141 122.847 190.693C123.083 190.246 123.399 189.902 123.792 189.662C124.19 189.419 124.623 189.297 125.092 189.297C125.651 189.297 126.109 189.42 126.467 189.667C126.829 189.911 127.097 190.248 127.273 190.677C127.448 191.103 127.536 191.592 127.536 192.144V192.654H123.116V191.773H126.371V191.682C126.36 191.438 126.312 191.207 126.226 190.989C126.143 190.767 126.011 190.586 125.828 190.446C125.646 190.307 125.398 190.237 125.087 190.237C124.797 190.237 124.544 190.319 124.33 190.484C124.118 190.649 123.955 190.885 123.841 191.193C123.726 191.497 123.669 191.862 123.669 192.289V192.514C123.669 192.861 123.733 193.177 123.862 193.459C123.991 193.742 124.177 193.968 124.421 194.136C124.668 194.301 124.962 194.383 125.302 194.383C125.631 194.383 125.916 194.317 126.156 194.185C126.399 194.052 126.611 193.868 126.79 193.631L127.445 194.222C127.262 194.501 126.992 194.756 126.634 194.985C126.276 195.21 125.808 195.323 125.232 195.323ZM134.116 195.323C133.625 195.323 133.219 195.207 132.896 194.974C132.574 194.738 132.324 194.41 132.145 193.991C131.965 193.572 131.846 193.085 131.785 192.53V192.101C131.846 191.535 131.965 191.042 132.145 190.624C132.324 190.205 132.572 189.879 132.891 189.646C133.213 189.413 133.618 189.297 134.105 189.297C134.599 189.297 135.014 189.422 135.351 189.673C135.688 189.92 135.942 190.267 136.114 190.715C136.286 191.159 136.372 191.673 136.372 192.256V192.369C136.372 192.938 136.286 193.447 136.114 193.895C135.942 194.339 135.688 194.688 135.351 194.942C135.014 195.196 134.603 195.323 134.116 195.323ZM131.35 195.216V186.966H132.521V194.023L132.418 195.216H131.35ZM133.82 194.356C134.157 194.356 134.425 194.269 134.626 194.093C134.83 193.914 134.977 193.674 135.066 193.374C135.156 193.073 135.201 192.738 135.201 192.369V192.256C135.201 191.895 135.158 191.563 135.072 191.263C134.986 190.958 134.841 190.715 134.637 190.532C134.436 190.35 134.16 190.258 133.81 190.258C133.573 190.258 133.369 190.299 133.197 190.382C133.025 190.461 132.879 190.57 132.757 190.709C132.639 190.849 132.544 191.01 132.472 191.193C132.404 191.375 132.354 191.567 132.322 191.768V192.869C132.368 193.13 132.449 193.375 132.563 193.604C132.678 193.83 132.837 194.013 133.042 194.152C133.249 194.288 133.509 194.356 133.82 194.356ZM140.035 195.323C139.476 195.323 138.993 195.201 138.584 194.958C138.176 194.711 137.859 194.376 137.634 193.954C137.412 193.528 137.301 193.048 137.301 192.514V192.289C137.301 191.673 137.417 191.141 137.65 190.693C137.886 190.246 138.201 189.902 138.595 189.662C138.993 189.419 139.426 189.297 139.895 189.297C140.454 189.297 140.912 189.42 141.27 189.667C141.632 189.911 141.9 190.248 142.076 190.677C142.251 191.103 142.339 191.592 142.339 192.144V192.654H137.918V191.773H141.173V191.682C141.163 191.438 141.114 191.207 141.028 190.989C140.946 190.767 140.813 190.586 140.631 190.446C140.448 190.307 140.201 190.237 139.89 190.237C139.6 190.237 139.347 190.319 139.132 190.484C138.921 190.649 138.758 190.885 138.644 191.193C138.529 191.497 138.472 191.862 138.472 192.289V192.514C138.472 192.861 138.536 193.177 138.665 193.459C138.794 193.742 138.98 193.968 139.224 194.136C139.471 194.301 139.764 194.383 140.104 194.383C140.434 194.383 140.719 194.317 140.958 194.185C141.202 194.052 141.413 193.868 141.592 193.631L142.248 194.222C142.065 194.501 141.795 194.756 141.437 194.985C141.078 195.21 140.611 195.323 140.035 195.323ZM144.579 195.216H143.408V189.404H144.509L144.579 190.645V195.216ZM143.918 192.084C143.925 191.54 144.025 191.059 144.219 190.64C144.416 190.221 144.688 189.893 145.035 189.657C145.386 189.417 145.794 189.297 146.26 189.297C146.639 189.297 146.967 189.368 147.243 189.512C147.518 189.651 147.733 189.879 147.887 190.194C148.041 190.505 148.118 190.921 148.118 191.44V195.216H146.942V191.429C146.942 191.143 146.901 190.914 146.818 190.742C146.736 190.57 146.614 190.446 146.453 190.371C146.292 190.296 146.093 190.258 145.857 190.258C145.624 190.258 145.415 190.307 145.229 190.403C145.042 190.5 144.883 190.634 144.75 190.806C144.618 190.974 144.516 191.17 144.444 191.392C144.376 191.61 144.342 191.845 144.342 192.095L143.918 192.084ZM151.883 195.323C151.292 195.323 150.804 195.191 150.417 194.926C150.03 194.661 149.74 194.308 149.547 193.868C149.357 193.424 149.262 192.938 149.262 192.412V192.208C149.262 191.678 149.359 191.193 149.552 190.752C149.746 190.312 150.036 189.959 150.422 189.694C150.809 189.429 151.294 189.297 151.878 189.297C152.34 189.297 152.744 189.39 153.092 189.576C153.443 189.759 153.717 190.013 153.914 190.339C154.111 190.661 154.216 191.032 154.23 191.451H153.124C153.11 191.229 153.051 191.026 152.947 190.844C152.843 190.658 152.7 190.511 152.517 190.403C152.334 190.292 152.12 190.237 151.873 190.237C151.5 190.237 151.208 190.333 150.997 190.527C150.789 190.72 150.643 190.967 150.557 191.268C150.474 191.569 150.433 191.882 150.433 192.208V192.412C150.433 192.738 150.474 193.053 150.557 193.357C150.639 193.658 150.784 193.905 150.992 194.099C151.203 194.288 151.497 194.383 151.873 194.383C152.095 194.383 152.297 194.339 152.479 194.249C152.666 194.156 152.816 194.031 152.931 193.873C153.045 193.712 153.11 193.529 153.124 193.325H154.23C154.216 193.69 154.102 194.025 153.887 194.33C153.672 194.63 153.389 194.872 153.038 195.055C152.691 195.234 152.306 195.323 151.883 195.323ZM156.438 195.216H155.262V186.966H156.438V195.216ZM155.777 192.084C155.781 191.551 155.879 191.075 156.073 190.656C156.266 190.237 156.535 189.906 156.878 189.662C157.226 189.419 157.63 189.297 158.092 189.297C158.475 189.297 158.807 189.368 159.086 189.512C159.369 189.655 159.587 189.884 159.741 190.199C159.899 190.514 159.978 190.931 159.978 191.451V195.216H158.801V191.44C158.801 191.153 158.76 190.924 158.678 190.752C158.595 190.577 158.474 190.452 158.312 190.376C158.151 190.298 157.953 190.258 157.716 190.258C157.476 190.258 157.263 190.307 157.077 190.403C156.891 190.5 156.732 190.634 156.599 190.806C156.47 190.974 156.372 191.17 156.304 191.392C156.236 191.61 156.202 191.845 156.202 192.095L155.777 192.084ZM162.534 195.216H161.363V189.404H162.47L162.534 190.575V195.216ZM161.863 192.084C161.863 191.551 161.951 191.075 162.126 190.656C162.305 190.237 162.566 189.906 162.91 189.662C163.257 189.419 163.689 189.297 164.205 189.297C164.742 189.297 165.182 189.456 165.526 189.775C165.873 190.094 166.047 190.616 166.047 191.343V195.216H164.876V191.429C164.876 191.143 164.829 190.914 164.736 190.742C164.643 190.57 164.513 190.446 164.344 190.371C164.176 190.296 163.975 190.258 163.743 190.258C163.481 190.258 163.259 190.307 163.077 190.403C162.898 190.5 162.753 190.634 162.642 190.806C162.531 190.974 162.45 191.17 162.4 191.392C162.35 191.61 162.325 191.845 162.325 192.095L161.863 192.084ZM165.354 191.832C165.358 191.381 165.445 190.964 165.617 190.581C165.793 190.194 166.05 189.884 166.391 189.651C166.731 189.415 167.148 189.297 167.642 189.297C168.047 189.297 168.392 189.37 168.679 189.517C168.965 189.66 169.184 189.889 169.334 190.205C169.488 190.516 169.565 190.924 169.565 191.429V195.216H168.389V191.424C168.389 191.119 168.342 190.883 168.249 190.715C168.16 190.547 168.031 190.428 167.862 190.36C167.694 190.292 167.495 190.258 167.266 190.258C167.058 190.258 166.876 190.296 166.718 190.371C166.561 190.443 166.428 190.545 166.321 190.677C166.217 190.806 166.136 190.955 166.079 191.123C166.025 191.291 165.999 191.472 165.999 191.666L165.354 191.832ZM174.308 191.263C174.308 190.937 174.215 190.679 174.028 190.489C173.846 190.296 173.57 190.199 173.201 190.199C172.976 190.199 172.779 190.239 172.61 190.317C172.442 190.393 172.311 190.495 172.218 190.624C172.125 190.752 172.079 190.896 172.079 191.053H170.908C170.908 190.756 171.004 190.475 171.198 190.21C171.391 189.941 171.665 189.723 172.02 189.555C172.374 189.383 172.789 189.297 173.266 189.297C173.695 189.297 174.077 189.37 174.41 189.517C174.746 189.66 175.009 189.879 175.199 190.172C175.389 190.466 175.484 190.833 175.484 191.273V193.905C175.484 194.138 175.502 194.362 175.538 194.577C175.573 194.788 175.625 194.972 175.693 195.13V195.216H174.49C174.433 195.087 174.388 194.92 174.356 194.716C174.324 194.509 174.308 194.31 174.308 194.12V191.263ZM174.49 192.444H173.55C173.031 192.444 172.635 192.534 172.363 192.713C172.091 192.888 171.955 193.139 171.955 193.465C171.955 193.719 172.041 193.932 172.213 194.104C172.385 194.276 172.632 194.362 172.954 194.362C173.237 194.362 173.486 194.305 173.701 194.19C173.916 194.072 174.084 193.927 174.206 193.755C174.327 193.583 174.392 193.418 174.399 193.261L174.829 193.798C174.793 193.948 174.721 194.111 174.614 194.287C174.51 194.458 174.37 194.623 174.195 194.781C174.019 194.938 173.812 195.069 173.572 195.173C173.332 195.273 173.058 195.323 172.75 195.323C172.363 195.323 172.021 195.248 171.724 195.098C171.431 194.947 171.2 194.741 171.031 194.48C170.867 194.215 170.784 193.921 170.784 193.599C170.784 192.976 171.017 192.502 171.482 192.176C171.951 191.846 172.598 191.682 173.421 191.682H174.49V192.444ZM178.1 195.216H176.929V189.404H178.057L178.1 190.43V195.216ZM179.883 190.462C179.797 190.448 179.713 190.437 179.63 190.43C179.548 190.423 179.462 190.419 179.373 190.419C179.072 190.419 178.819 190.479 178.615 190.597C178.415 190.711 178.261 190.872 178.153 191.08C178.046 191.284 177.981 191.524 177.96 191.8L177.665 191.88C177.665 191.401 177.727 190.965 177.853 190.575C177.981 190.185 178.177 189.875 178.438 189.646C178.699 189.413 179.032 189.297 179.437 189.297C179.509 189.297 179.591 189.304 179.684 189.318C179.777 189.333 179.845 189.351 179.888 189.372L179.883 190.462ZM181.918 195.216H180.748V186.966H181.918V195.216ZM182.977 192.165L181.564 193.615L181.344 192.53L182.38 191.268L184.078 189.404H185.496L182.977 192.165ZM182.418 192.471L183.1 191.569L185.737 195.216H184.373L182.418 192.471Z" fill="#98A2B3"/>
<path d="M83.998 191.263C83.998 190.937 83.9049 190.679 83.7188 190.489C83.5361 190.296 83.2604 190.199 82.8916 190.199C82.666 190.199 82.4691 190.239 82.3008 190.317C82.1325 190.393 82.0018 190.495 81.9087 190.624C81.8156 190.752 81.769 190.896 81.769 191.053H80.5981C80.5981 190.756 80.6948 190.475 80.8882 190.21C81.0815 189.941 81.3555 189.723 81.71 189.555C82.0645 189.383 82.4798 189.297 82.9561 189.297C83.3857 189.297 83.7671 189.37 84.1001 189.517C84.4367 189.66 84.6999 189.879 84.8896 190.172C85.0794 190.466 85.1743 190.833 85.1743 191.273V193.905C85.1743 194.138 85.1922 194.362 85.228 194.577C85.2638 194.788 85.3158 194.972 85.3838 195.13V195.216H84.1807C84.1234 195.087 84.0786 194.92 84.0464 194.716C84.0142 194.509 83.998 194.31 83.998 194.12V191.263ZM84.1807 192.444H83.2407C82.7215 192.444 82.3258 192.534 82.0537 192.713C81.7816 192.888 81.6455 193.139 81.6455 193.465C81.6455 193.719 81.7314 193.932 81.9033 194.104C82.0752 194.276 82.3223 194.362 82.6445 194.362C82.9274 194.362 83.1763 194.305 83.3911 194.19C83.606 194.072 83.7743 193.927 83.896 193.755C84.0177 193.583 84.0822 193.418 84.0894 193.261L84.519 193.798C84.4832 193.948 84.4116 194.111 84.3042 194.287C84.2004 194.458 84.0607 194.623 83.8853 194.781C83.7098 194.938 83.5021 195.069 83.2622 195.173C83.0223 195.273 82.7484 195.323 82.4404 195.323C82.0537 195.323 81.7118 195.248 81.4146 195.098C81.1209 194.947 80.89 194.741 80.7217 194.48C80.557 194.215 80.4746 193.921 80.4746 193.599C80.4746 192.976 80.7074 192.502 81.1729 192.176C81.6419 191.846 82.2882 191.682 83.1118 191.682H84.1807V192.444ZM89.3853 195.323C88.8947 195.323 88.4883 195.207 88.166 194.974C87.8438 194.738 87.5931 194.41 87.4141 193.991C87.235 193.572 87.1151 193.085 87.0542 192.53V192.101C87.1151 191.535 87.235 191.042 87.4141 190.624C87.5931 190.205 87.842 189.879 88.1606 189.646C88.4829 189.413 88.8875 189.297 89.3745 189.297C89.8687 189.297 90.284 189.422 90.6206 189.673C90.9572 189.92 91.2114 190.267 91.3833 190.715C91.5552 191.159 91.6411 191.673 91.6411 192.256V192.369C91.6411 192.938 91.5552 193.447 91.3833 193.895C91.2114 194.339 90.9572 194.688 90.6206 194.942C90.284 195.196 89.8722 195.323 89.3853 195.323ZM86.6191 195.216V186.966H87.79V194.023L87.688 195.216H86.6191ZM89.0898 194.356C89.4264 194.356 89.695 194.269 89.8955 194.093C90.0996 193.914 90.2464 193.674 90.3359 193.374C90.4255 193.073 90.4702 192.738 90.4702 192.369V192.256C90.4702 191.895 90.4272 191.563 90.3413 191.263C90.2554 190.958 90.1104 190.715 89.9062 190.532C89.7057 190.35 89.43 190.258 89.0791 190.258C88.8428 190.258 88.6387 190.299 88.4668 190.382C88.2949 190.461 88.1481 190.57 88.0264 190.709C87.9082 190.849 87.8133 191.01 87.7417 191.193C87.6737 191.375 87.6235 191.567 87.5913 191.768V192.869C87.6379 193.13 87.7184 193.375 87.833 193.604C87.9476 193.83 88.1069 194.013 88.311 194.152C88.5187 194.288 88.7783 194.356 89.0898 194.356ZM92.5542 192.251C92.5542 191.689 92.6616 191.186 92.8765 190.742C93.0913 190.298 93.3975 189.947 93.7949 189.689C94.196 189.428 94.6722 189.297 95.2236 189.297C95.7858 189.297 96.2674 189.428 96.6685 189.689C97.0695 189.947 97.3757 190.298 97.5869 190.742C97.8018 191.186 97.9092 191.689 97.9092 192.251V192.375C97.9092 192.933 97.8018 193.436 97.5869 193.884C97.3757 194.328 97.0695 194.679 96.6685 194.937C96.271 195.194 95.793 195.323 95.2344 195.323C94.6794 195.323 94.2013 195.194 93.8003 194.937C93.3993 194.679 93.0913 194.328 92.8765 193.884C92.6616 193.436 92.5542 192.933 92.5542 192.375V192.251ZM93.7305 192.375C93.7305 192.736 93.7842 193.069 93.8916 193.374C93.999 193.678 94.1637 193.923 94.3857 194.109C94.6077 194.292 94.8906 194.383 95.2344 194.383C95.5781 194.383 95.861 194.292 96.083 194.109C96.305 193.923 96.4697 193.678 96.5771 193.374C96.6846 193.069 96.7383 192.736 96.7383 192.375V192.251C96.7383 191.893 96.6846 191.562 96.5771 191.257C96.4697 190.949 96.3032 190.702 96.0776 190.516C95.8556 190.33 95.571 190.237 95.2236 190.237C94.887 190.237 94.606 190.33 94.3804 190.516C94.1584 190.702 93.9937 190.949 93.8862 191.257C93.7824 191.562 93.7305 191.893 93.7305 192.251V192.375ZM102.308 189.404H103.511L101.47 195.216H100.697L100.82 194.244L102.308 189.404ZM101.159 194.26L101.255 195.216H100.487L98.4248 189.404H99.6333L101.159 194.26ZM106.884 195.323C106.326 195.323 105.842 195.201 105.434 194.958C105.026 194.711 104.709 194.376 104.483 193.954C104.261 193.528 104.15 193.048 104.15 192.514V192.289C104.15 191.673 104.267 191.141 104.5 190.693C104.736 190.246 105.051 189.902 105.445 189.662C105.842 189.419 106.276 189.297 106.745 189.297C107.303 189.297 107.762 189.42 108.12 189.667C108.481 189.911 108.75 190.248 108.925 190.677C109.101 191.103 109.188 191.592 109.188 192.144V192.654H104.768V191.773H108.023V191.682C108.012 191.438 107.964 191.207 107.878 190.989C107.796 190.767 107.663 190.586 107.48 190.446C107.298 190.307 107.051 190.237 106.739 190.237C106.449 190.237 106.197 190.319 105.982 190.484C105.771 190.649 105.608 190.885 105.493 191.193C105.379 191.497 105.321 191.862 105.321 192.289V192.514C105.321 192.861 105.386 193.177 105.515 193.459C105.644 193.742 105.83 193.968 106.073 194.136C106.32 194.301 106.614 194.383 106.954 194.383C107.284 194.383 107.568 194.317 107.808 194.185C108.052 194.052 108.263 193.868 108.442 193.631L109.097 194.222C108.915 194.501 108.644 194.756 108.286 194.985C107.928 195.21 107.461 195.323 106.884 195.323Z" fill="#D92D20"/>
<defs>
<linearGradient id="paint0_linear_1_129" x1="244.311" y1="116.859" x2="6.43215" y2="116.859" gradientUnits="userSpaceOnUse">
<stop stop-color="#FF2828"/>
<stop offset="0.31" stop-color="#F9891A"/>
<stop offset="0.745" stop-color="#FFDE20"/>
<stop offset="1" stop-color="#12B01C"/>
</linearGradient>
</defs>
</svg>
