<svg width="16" height="19" viewBox="0 0 16 19" fill="none" xmlns="http://www.w3.org/2000/svg">
<g id="Group 624908">
<path id="Vector" d="M9.83875 6.96441C9.40676 6.86019 8.7027 6.85635 8.11078 6.86019M8.11078 6.86019C7.91284 6.86146 8.03251 6.85328 7.76519 6.86019C7.06761 6.88135 6.3842 7.16338 6.38281 7.9624C6.3813 8.81358 7.2468 9.06545 8.11078 9.06545C8.97477 9.06545 9.83875 9.25975 9.83875 10.1685C9.83875 10.8514 9.14108 11.1506 8.27157 11.2498C7.58038 11.2498 7.2468 11.2715 6.38281 11.1665M8.11078 6.86019V5.70386M8.11078 11.2501V12.4272" stroke="#4B5563" stroke-linecap="round" stroke-linejoin="round"/>
<path id="Vector_2" d="M15.2656 9.52081C15.2656 13.6829 10.4028 16.6988 8.71187 17.6218C8.52903 17.7216 8.43756 17.7715 8.31073 17.7974C8.21187 17.8175 8.06937 17.8175 7.97051 17.7974C7.84369 17.7715 7.75222 17.7216 7.56938 17.6218C5.8784 16.6988 1.01563 13.6829 1.01563 9.52081L1.01563 5.99193C1.01563 5.24601 1.01563 4.87305 1.13208 4.55245C1.23496 4.26923 1.40214 4.01653 1.61917 3.81617C1.86484 3.58937 2.1982 3.45842 2.86492 3.19651L7.64027 1.32061C7.82543 1.24788 7.91797 1.21151 8.01327 1.19709C8.0977 1.1843 8.18355 1.1843 8.26798 1.19709C8.36328 1.21151 8.45582 1.24788 8.64098 1.32061L13.4163 3.19651C14.0831 3.45842 14.4164 3.58937 14.662 3.81617C14.8791 4.01653 15.0463 4.26923 15.1491 4.55245C15.2656 4.87305 15.2656 5.24601 15.2656 5.99193V9.52081Z" stroke="#4B5563" stroke-linecap="round" stroke-linejoin="round"/>
</g>
</svg>
