<svg width="59" height="43" viewBox="0 0 59 43" fill="none" xmlns="http://www.w3.org/2000/svg">
<path d="M40.5753 8.33924C40.8564 7.99833 40.8089 7.49249 40.4554 7.22747C37.788 5.22793 34.5991 4.04121 31.2734 3.81049C30.8327 3.77991 30.4661 4.13165 30.4559 4.57336L30.3848 7.65377C30.3747 8.09548 30.7249 8.45918 31.1651 8.49731C33.4414 8.69448 35.622 9.50599 37.4734 10.8449C37.8314 11.1038 38.3342 11.0576 38.6153 10.7167L40.5753 8.33924Z" fill="#FDCC4D"/>
<path d="M29.3467 4.58507C29.3272 4.14367 28.9532 3.79974 28.5132 3.83962C25.1932 4.14048 22.03 5.39425 19.4054 7.44964C19.0576 7.72206 19.0208 8.22879 19.309 8.56369L21.3188 10.8992C21.607 11.2341 22.1107 11.2697 22.4631 11.0033C24.2859 9.62563 26.4489 8.76828 28.7205 8.52311C29.1597 8.4757 29.5022 8.10469 29.4827 7.66329L29.3467 4.58507Z" fill="#EFE94D"/>
<path d="M18.6217 9.18972C18.3151 8.87158 17.8071 8.861 17.5035 9.18196C15.2125 11.6037 13.6695 14.6362 13.0606 17.9138C12.9799 18.3482 13.2875 18.7526 13.7252 18.8131L16.7773 19.2353C17.215 19.2959 17.6163 18.9894 17.7044 18.5565C18.1602 16.3176 19.2153 14.2439 20.7568 12.5574C21.0549 12.2313 21.0664 11.7265 20.7598 11.4084L18.6217 9.18972Z" fill="#C5E176"/>
<path d="M13.65 19.4461C13.2103 19.4025 12.8166 19.7237 12.7934 20.1649C12.618 23.4939 13.4082 26.8034 15.0686 29.6942C15.2886 30.0773 15.785 30.1859 16.1575 29.9484L18.7556 28.292C19.1282 28.0544 19.2352 27.561 19.0217 27.1741C17.9179 25.1737 17.3775 22.9106 17.4586 20.6272C17.4743 20.1857 17.1559 19.7938 16.7162 19.7502L13.65 19.4461Z" fill="#8CDFAD"/>
<path d="M46.344 18.286C46.7795 18.2113 47.0738 17.7972 46.9792 17.3657C46.2647 14.1095 44.6245 11.1284 42.2565 8.78195C41.9426 8.47097 41.4353 8.49796 41.1391 8.82584L39.0738 11.1124C38.7777 11.4403 38.8054 11.9445 39.1139 12.2608C40.7091 13.8965 41.8307 15.9351 42.3585 18.1581C42.4606 18.5879 42.8716 18.8813 43.3071 18.8066L46.344 18.286Z" fill="#FFAD7D"/>
<path d="M44.2882 29.467C44.6687 29.6916 45.161 29.5661 45.3678 29.1757C46.9283 26.2298 47.6048 22.8952 47.3156 19.5741C47.2773 19.134 46.8729 18.8265 46.4349 18.8851L43.3809 19.2939C42.943 19.3525 42.6382 19.755 42.669 20.1958C42.8281 22.475 42.3655 24.7553 41.3308 26.7924C41.1307 27.1863 41.2545 27.6758 41.635 27.9004L44.2882 29.467Z" fill="#FF7078"/>
<path d="M8.7 41.5748V34.3748H13.2V35.0798H9.435V37.5698H12.6V38.2748H9.435V40.8698H13.2V41.5748H8.7ZM14.1031 41.5748L16.2131 38.8448L14.1481 36.1748H15.0281L16.6431 38.2798L18.2431 36.1748H19.1231L17.0581 38.8448L19.1731 41.5748H18.2881L16.6431 39.4098L14.9881 41.5748H14.1031ZM22.3213 41.7248C21.7779 41.7248 21.3179 41.6032 20.9413 41.3598C20.5646 41.1165 20.2779 40.7815 20.0813 40.3548C19.8879 39.9248 19.7879 39.4315 19.7813 38.8748C19.7879 38.3082 19.8913 37.8115 20.0913 37.3848C20.2913 36.9548 20.5796 36.6215 20.9563 36.3848C21.3329 36.1448 21.7896 36.0248 22.3263 36.0248C22.8729 36.0248 23.3479 36.1582 23.7513 36.4248C24.1579 36.6915 24.4363 37.0565 24.5863 37.5198L23.8663 37.7498C23.7396 37.4265 23.5379 37.1765 23.2613 36.9998C22.9879 36.8198 22.6746 36.7298 22.3213 36.7298C21.9246 36.7298 21.5963 36.8215 21.3363 37.0048C21.0763 37.1848 20.8829 37.4365 20.7563 37.7598C20.6296 38.0832 20.5646 38.4548 20.5613 38.8748C20.5679 39.5215 20.7179 40.0415 21.0113 40.4348C21.3046 40.8248 21.7413 41.0198 22.3213 41.0198C22.6879 41.0198 22.9996 40.9365 23.2563 40.7698C23.5163 40.5998 23.7129 40.3532 23.8463 40.0298L24.5863 40.2498C24.3863 40.7298 24.0929 41.0965 23.7063 41.3498C23.3196 41.5998 22.8579 41.7248 22.3213 41.7248ZM28.0569 41.7248C27.5302 41.7248 27.0735 41.6082 26.6869 41.3748C26.3035 41.1415 26.0052 40.8132 25.7919 40.3898C25.5785 39.9665 25.4719 39.4698 25.4719 38.8998C25.4719 38.3098 25.5769 37.7998 25.7869 37.3698C25.9969 36.9398 26.2919 36.6082 26.6719 36.3748C27.0552 36.1415 27.5069 36.0248 28.0269 36.0248C28.5602 36.0248 29.0152 36.1482 29.3919 36.3948C29.7685 36.6382 30.0535 36.9882 30.2469 37.4448C30.4402 37.9015 30.5285 38.4465 30.5119 39.0798H29.7619V38.8198C29.7485 38.1198 29.5969 37.5915 29.3069 37.2348C29.0202 36.8782 28.6002 36.6998 28.0469 36.6998C27.4669 36.6998 27.0219 36.8882 26.7119 37.2648C26.4052 37.6415 26.2519 38.1782 26.2519 38.8748C26.2519 39.5548 26.4052 40.0832 26.7119 40.4598C27.0219 40.8332 27.4602 41.0198 28.0269 41.0198C28.4135 41.0198 28.7502 40.9315 29.0369 40.7548C29.3269 40.5748 29.5552 40.3165 29.7219 39.9798L30.4069 40.2448C30.1935 40.7148 29.8785 41.0798 29.4619 41.3398C29.0485 41.5965 28.5802 41.7248 28.0569 41.7248ZM25.9919 39.0798V38.4648H30.1169V39.0798H25.9919ZM32.0215 41.5748V34.2248H32.7565V41.5748H32.0215ZM34.6555 41.5748V34.2248H35.3905V41.5748H34.6555ZM39.4745 41.7248C38.9478 41.7248 38.4911 41.6082 38.1045 41.3748C37.7211 41.1415 37.4228 40.8132 37.2095 40.3898C36.9961 39.9665 36.8895 39.4698 36.8895 38.8998C36.8895 38.3098 36.9945 37.7998 37.2045 37.3698C37.4145 36.9398 37.7095 36.6082 38.0895 36.3748C38.4728 36.1415 38.9245 36.0248 39.4445 36.0248C39.9778 36.0248 40.4328 36.1482 40.8095 36.3948C41.1861 36.6382 41.4711 36.9882 41.6645 37.4448C41.8578 37.9015 41.9461 38.4465 41.9295 39.0798H41.1795V38.8198C41.1661 38.1198 41.0145 37.5915 40.7245 37.2348C40.4378 36.8782 40.0178 36.6998 39.4645 36.6998C38.8845 36.6998 38.4395 36.8882 38.1295 37.2648C37.8228 37.6415 37.6695 38.1782 37.6695 38.8748C37.6695 39.5548 37.8228 40.0832 38.1295 40.4598C38.4395 40.8332 38.8778 41.0198 39.4445 41.0198C39.8311 41.0198 40.1678 40.9315 40.4545 40.7548C40.7445 40.5748 40.9728 40.3165 41.1395 39.9798L41.8245 40.2448C41.6111 40.7148 41.2961 41.0798 40.8795 41.3398C40.4661 41.5965 39.9978 41.7248 39.4745 41.7248ZM37.4095 39.0798V38.4648H41.5345V39.0798H37.4095ZM47.0926 41.5748V38.8198C47.0926 38.5198 47.0642 38.2448 47.0076 37.9948C46.9509 37.7415 46.8592 37.5215 46.7326 37.3348C46.6092 37.1448 46.4476 36.9982 46.2476 36.8948C46.0509 36.7915 45.8109 36.7398 45.5276 36.7398C45.2676 36.7398 45.0376 36.7848 44.8376 36.8748C44.6409 36.9648 44.4742 37.0948 44.3376 37.2648C44.2042 37.4315 44.1026 37.6348 44.0326 37.8748C43.9626 38.1148 43.9276 38.3882 43.9276 38.6948L43.4076 38.5798C43.4076 38.0265 43.5042 37.5615 43.6976 37.1848C43.8909 36.8082 44.1576 36.5232 44.4976 36.3298C44.8376 36.1365 45.2276 36.0398 45.6676 36.0398C45.9909 36.0398 46.2726 36.0898 46.5126 36.1898C46.7559 36.2898 46.9609 36.4248 47.1276 36.5948C47.2976 36.7648 47.4342 36.9598 47.5376 37.1798C47.6409 37.3965 47.7159 37.6282 47.7626 37.8748C47.8092 38.1182 47.8326 38.3615 47.8326 38.6048V41.5748H47.0926ZM43.1876 41.5748V36.1748H43.8526V37.5048H43.9276V41.5748H43.1876ZM52.3701 41.5748C52.0667 41.6382 51.7667 41.6632 51.4701 41.6498C51.1767 41.6365 50.9134 41.5732 50.6801 41.4598C50.4501 41.3465 50.2751 41.1698 50.1551 40.9298C50.0584 40.7298 50.0051 40.5282 49.9951 40.3248C49.9884 40.1182 49.9851 39.8832 49.9851 39.6198V34.6748H50.7151V39.5898C50.7151 39.8165 50.7167 40.0065 50.7201 40.1598C50.7267 40.3098 50.7617 40.4432 50.8251 40.5598C50.9451 40.7832 51.1351 40.9165 51.3951 40.9598C51.6584 41.0032 51.9834 40.9932 52.3701 40.9298V41.5748ZM48.8301 36.8048V36.1748H52.3701V36.8048H48.8301Z" fill="#01031C"/>
<path d="M24.4212 22.1801C23.7021 22.4717 23.3425 22.6175 23.3732 22.7786C23.4038 22.9397 23.7918 22.9434 24.5677 22.9508L30.9038 23.0114C31.1295 23.0135 31.2424 23.0146 31.3031 22.942C31.3638 22.8694 31.3428 22.7585 31.3006 22.5367L30.8365 20.0951C30.7944 19.8733 30.7733 19.7624 30.6902 19.7171C30.607 19.6718 30.5024 19.7143 30.2932 19.7991L24.4212 22.1801Z" fill="black"/>
</svg>
