<svg width="43" height="45" viewBox="0 0 43 45" fill="none" xmlns="http://www.w3.org/2000/svg">
<path d="M31.5753 8.33924C31.8564 7.99833 31.8089 7.49249 31.4554 7.22747C28.788 5.22793 25.5991 4.04121 22.2734 3.81049C21.8327 3.77991 21.4661 4.13165 21.4559 4.57336L21.3848 7.65377C21.3747 8.09548 21.7249 8.45918 22.1651 8.49731C24.4414 8.69448 26.622 9.50598 28.4734 10.8449C28.8314 11.1038 29.3342 11.0576 29.6153 10.7167L31.5753 8.33924Z" fill="#FDCC4D"/>
<path d="M20.3467 4.58507C20.3272 4.14367 19.9532 3.79974 19.5132 3.83962C16.1932 4.14048 13.03 5.39425 10.4054 7.44964C10.0576 7.72206 10.0208 8.22879 10.309 8.56369L12.3188 10.8992C12.607 11.2341 13.1107 11.2697 13.4631 11.0033C15.2858 9.62563 17.4489 8.76828 19.7205 8.52311C20.1597 8.4757 20.5022 8.10469 20.4827 7.66329L20.3467 4.58507Z" fill="#EFE94D"/>
<path d="M9.62165 9.18972C9.31506 8.87158 8.8071 8.861 8.50346 9.18196C6.21248 11.6037 4.66948 14.6362 4.0606 17.9138C3.97991 18.3482 4.2875 18.7526 4.72516 18.8131L7.77732 19.2353C8.21498 19.2959 8.61629 18.9894 8.70442 18.5565C9.16016 16.3176 10.2153 14.2439 11.7568 12.5574C12.0549 12.2313 12.0664 11.7265 11.7598 11.4084L9.62165 9.18972Z" fill="#C5E176"/>
<path d="M4.65001 19.4461C4.21034 19.4025 3.81663 19.7237 3.79339 20.1649C3.61803 23.4939 4.40821 26.8034 6.06859 29.6942C6.28865 30.0773 6.78497 30.1859 7.15752 29.9484L9.75562 28.292C10.1282 28.0544 10.2352 27.561 10.0217 27.1741C8.91789 25.1737 8.37755 22.9106 8.45861 20.6272C8.47429 20.1857 8.15587 19.7938 7.7162 19.7502L4.65001 19.4461Z" fill="#8CDFAD"/>
<path d="M37.344 18.286C37.7795 18.2113 38.0738 17.7972 37.9792 17.3657C37.2647 14.1095 35.6245 11.1284 33.2565 8.78195C32.9426 8.47097 32.4353 8.49796 32.1391 8.82584L30.0738 11.1124C29.7777 11.4403 29.8054 11.9445 30.1139 12.2608C31.7091 13.8965 32.8307 15.9351 33.3585 18.1581C33.4606 18.5879 33.8716 18.8813 34.3071 18.8066L37.344 18.286Z" fill="#FFAD7D"/>
<path d="M35.2882 29.467C35.6687 29.6917 36.161 29.5661 36.3678 29.1757C37.9283 26.2298 38.6048 22.8952 38.3157 19.5741C38.2773 19.134 37.8729 18.8265 37.4349 18.8851L34.3809 19.2939C33.943 19.3525 33.6382 19.755 33.669 20.1958C33.8281 22.475 33.3655 24.7553 32.3308 26.7924C32.1307 27.1863 32.2545 27.6758 32.635 27.9004L35.2882 29.467Z" fill="#FF7078"/>
<path d="M2.2 41.5748L4.68 34.3748H5.655L8.135 41.5748H7.37L5.015 34.7848H5.305L2.965 41.5748H2.2ZM3.305 39.8298V39.1398H7.025V39.8298H3.305ZM10.3975 41.5748L8.4375 36.1748H9.1825L10.7775 40.6148L12.3625 36.1748H13.1175L11.1575 41.5748H10.3975ZM16.4053 41.7248C15.8786 41.7248 15.422 41.6082 15.0353 41.3748C14.652 41.1415 14.3536 40.8132 14.1403 40.3898C13.927 39.9665 13.8203 39.4698 13.8203 38.8998C13.8203 38.3098 13.9253 37.7998 14.1353 37.3698C14.3453 36.9398 14.6403 36.6082 15.0203 36.3748C15.4036 36.1415 15.8553 36.0248 16.3753 36.0248C16.9086 36.0248 17.3636 36.1482 17.7403 36.3948C18.117 36.6382 18.402 36.9882 18.5953 37.4448C18.7886 37.9015 18.877 38.4465 18.8603 39.0798H18.1103V38.8198C18.097 38.1198 17.9453 37.5915 17.6553 37.2348C17.3686 36.8782 16.9486 36.6998 16.3953 36.6998C15.8153 36.6998 15.3703 36.8882 15.0603 37.2648C14.7536 37.6415 14.6003 38.1782 14.6003 38.8748C14.6003 39.5548 14.7536 40.0832 15.0603 40.4598C15.3703 40.8332 15.8086 41.0198 16.3753 41.0198C16.762 41.0198 17.0986 40.9315 17.3853 40.7548C17.6753 40.5748 17.9036 40.3165 18.0703 39.9798L18.7553 40.2448C18.542 40.7148 18.227 41.0798 17.8103 41.3398C17.397 41.5965 16.9286 41.7248 16.4053 41.7248ZM14.3403 39.0798V38.4648H18.4653V39.0798H14.3403ZM20.2699 41.5748V36.1748H20.9299V37.4748L20.7999 37.3048C20.8599 37.1448 20.9383 36.9982 21.0349 36.8648C21.1316 36.7282 21.2366 36.6165 21.3499 36.5298C21.4899 36.4065 21.6533 36.3132 21.8399 36.2498C22.0266 36.1832 22.2149 36.1448 22.4049 36.1348C22.5949 36.1215 22.7683 36.1348 22.9249 36.1748V36.8648C22.7283 36.8148 22.5133 36.8032 22.2799 36.8298C22.0466 36.8565 21.8316 36.9498 21.6349 37.1098C21.4549 37.2498 21.3199 37.4182 21.2299 37.6148C21.1399 37.8082 21.0799 38.0148 21.0499 38.2348C21.0199 38.4515 21.0049 38.6665 21.0049 38.8798V41.5748H20.2699ZM25.5134 41.7248C25.1067 41.7248 24.765 41.6515 24.4884 41.5048C24.215 41.3582 24.01 41.1632 23.8734 40.9198C23.7367 40.6765 23.6684 40.4115 23.6684 40.1248C23.6684 39.8315 23.7267 39.5815 23.8434 39.3748C23.9634 39.1648 24.125 38.9932 24.3284 38.8598C24.535 38.7265 24.7734 38.6248 25.0434 38.5548C25.3167 38.4882 25.6184 38.4298 25.9484 38.3798C26.2817 38.3265 26.6067 38.2815 26.9234 38.2448C27.2434 38.2048 27.5234 38.1665 27.7634 38.1298L27.5034 38.2898C27.5134 37.7565 27.41 37.3615 27.1934 37.1048C26.9767 36.8482 26.6 36.7198 26.0634 36.7198C25.6934 36.7198 25.38 36.8032 25.1234 36.9698C24.87 37.1365 24.6917 37.3998 24.5884 37.7598L23.8734 37.5498C23.9967 37.0665 24.245 36.6915 24.6184 36.4248C24.9917 36.1582 25.4767 36.0248 26.0734 36.0248C26.5667 36.0248 26.985 36.1182 27.3284 36.3048C27.675 36.4882 27.92 36.7548 28.0634 37.1048C28.13 37.2615 28.1734 37.4365 28.1934 37.6298C28.2134 37.8232 28.2234 38.0198 28.2234 38.2198V41.5748H27.5684V40.2198L27.7584 40.2998C27.575 40.7632 27.29 41.1165 26.9034 41.3598C26.5167 41.6032 26.0534 41.7248 25.5134 41.7248ZM25.5984 41.0898C25.9417 41.0898 26.2417 41.0282 26.4984 40.9048C26.755 40.7815 26.9617 40.6132 27.1184 40.3998C27.275 40.1832 27.3767 39.9398 27.4234 39.6698C27.4634 39.4965 27.485 39.3065 27.4884 39.0998C27.4917 38.8898 27.4934 38.7332 27.4934 38.6298L27.7734 38.7748C27.5234 38.8082 27.2517 38.8415 26.9584 38.8748C26.6684 38.9082 26.3817 38.9465 26.0984 38.9898C25.8184 39.0332 25.565 39.0848 25.3384 39.1448C25.185 39.1882 25.0367 39.2498 24.8934 39.3298C24.75 39.4065 24.6317 39.5098 24.5384 39.6398C24.4484 39.7698 24.4034 39.9315 24.4034 40.1248C24.4034 40.2815 24.4417 40.4332 24.5184 40.5798C24.5984 40.7265 24.725 40.8482 24.8984 40.9448C25.075 41.0415 25.3084 41.0898 25.5984 41.0898ZM31.97 44.1248C31.6933 44.1248 31.42 44.0832 31.15 43.9998C30.8833 43.9198 30.6367 43.7915 30.41 43.6148C30.1833 43.4415 29.9933 43.2148 29.84 42.9348L30.505 42.5648C30.655 42.8648 30.865 43.0798 31.135 43.2098C31.4083 43.3432 31.6867 43.4098 31.97 43.4098C32.36 43.4098 32.675 43.3365 32.915 43.1898C33.1583 43.0465 33.335 42.8332 33.445 42.5498C33.555 42.2665 33.6083 41.9132 33.605 41.4898V40.0498H33.69V36.1748H34.345V41.4998C34.345 41.6532 34.34 41.7998 34.33 41.9398C34.3233 42.0832 34.3083 42.2232 34.285 42.3598C34.2217 42.7632 34.09 43.0948 33.89 43.3548C33.6933 43.6148 33.4333 43.8082 33.11 43.9348C32.79 44.0615 32.41 44.1248 31.97 44.1248ZM31.92 41.7248C31.4167 41.7248 30.9867 41.5998 30.63 41.3498C30.2733 41.0965 30 40.7548 29.81 40.3248C29.62 39.8948 29.525 39.4098 29.525 38.8698C29.525 38.3332 29.6183 37.8498 29.805 37.4198C29.995 36.9898 30.2667 36.6498 30.62 36.3998C30.9733 36.1498 31.3967 36.0248 31.89 36.0248C32.3967 36.0248 32.8233 36.1482 33.17 36.3948C33.5167 36.6415 33.7783 36.9798 33.955 37.4098C34.135 37.8365 34.225 38.3232 34.225 38.8698C34.225 39.4065 34.1367 39.8915 33.96 40.3248C33.7833 40.7548 33.5233 41.0965 33.18 41.3498C32.8367 41.5998 32.4167 41.7248 31.92 41.7248ZM31.995 41.0398C32.3783 41.0398 32.695 40.9465 32.945 40.7598C33.195 40.5732 33.3817 40.3165 33.505 39.9898C33.6283 39.6598 33.69 39.2865 33.69 38.8698C33.69 38.4465 33.6283 38.0732 33.505 37.7498C33.3817 37.4232 33.195 37.1682 32.945 36.9848C32.6983 36.8015 32.3867 36.7098 32.01 36.7098C31.6233 36.7098 31.3033 36.8048 31.05 36.9948C30.7967 37.1848 30.6083 37.4432 30.485 37.7698C30.365 38.0965 30.305 38.4632 30.305 38.8698C30.305 39.2798 30.3667 39.6498 30.49 39.9798C30.6167 40.3065 30.805 40.5648 31.055 40.7548C31.305 40.9448 31.6183 41.0398 31.995 41.0398ZM38.328 41.7248C37.8013 41.7248 37.3446 41.6082 36.958 41.3748C36.5746 41.1415 36.2763 40.8132 36.063 40.3898C35.8496 39.9665 35.743 39.4698 35.743 38.8998C35.743 38.3098 35.848 37.7998 36.058 37.3698C36.268 36.9398 36.563 36.6082 36.943 36.3748C37.3263 36.1415 37.778 36.0248 38.298 36.0248C38.8313 36.0248 39.2863 36.1482 39.663 36.3948C40.0396 36.6382 40.3246 36.9882 40.518 37.4448C40.7113 37.9015 40.7996 38.4465 40.783 39.0798H40.033V38.8198C40.0196 38.1198 39.868 37.5915 39.578 37.2348C39.2913 36.8782 38.8713 36.6998 38.318 36.6998C37.738 36.6998 37.293 36.8882 36.983 37.2648C36.6763 37.6415 36.523 38.1782 36.523 38.8748C36.523 39.5548 36.6763 40.0832 36.983 40.4598C37.293 40.8332 37.7313 41.0198 38.298 41.0198C38.6846 41.0198 39.0213 40.9315 39.308 40.7548C39.598 40.5748 39.8263 40.3165 39.993 39.9798L40.678 40.2448C40.4646 40.7148 40.1496 41.0798 39.733 41.3398C39.3196 41.5965 38.8513 41.7248 38.328 41.7248ZM36.263 39.0798V38.4648H40.388V39.0798H36.263Z" fill="#01031C"/>
<path d="M19.3411 14.2302C19.0062 13.5302 18.8388 13.1802 18.6799 13.2206C18.5209 13.261 18.5409 13.6485 18.5808 14.4234L18.9064 20.7514C18.918 20.9769 18.9238 21.0896 19 21.1458C19.0762 21.2019 19.1856 21.1742 19.4044 21.1186L21.8132 20.5065C22.032 20.4509 22.1414 20.4231 22.1815 20.3374C22.2217 20.2517 22.173 20.1499 22.0756 19.9462L19.3411 14.2302Z" fill="black"/>
</svg>
