<svg width="51" height="51" viewBox="0 0 51 51" fill="none" xmlns="http://www.w3.org/2000/svg">
<path d="M19.9983 6.92346C15.4953 8.17121 11.5974 11.0093 9.02707 14.9116C6.45682 18.8138 5.38869 23.5157 6.02044 28.1455C6.6522 32.7753 8.94118 37.019 12.4629 40.0899C15.9848 43.1609 20.5006 44.8508 25.1732 44.8464C29.846 44.842 34.3586 43.1437 37.8747 40.066C41.3907 36.9885 43.6717 32.7405 44.2948 28.1096C44.9179 23.4786 43.8408 18.7788 41.2633 14.8814C38.6857 10.9838 34.7824 8.15318 30.2771 6.91379" stroke="#2947F2" stroke-width="2" stroke-linecap="round" stroke-linejoin="round"/>
<path opacity="0.96" d="M25.1562 35.3867L25.1562 17.1098" stroke="#FF6805" stroke-width="2" stroke-linecap="round" stroke-linejoin="round"/>
<path d="M32.7422 23.2734L25.1518 15.683L17.5614 23.2734" stroke="#FF6805" stroke-width="2" stroke-linecap="round" stroke-linejoin="round"/>
</svg>
