<svg width="51" height="51" viewBox="0 0 51 51" fill="none" xmlns="http://www.w3.org/2000/svg">
<path d="M20.4514 7.07581C15.9484 8.32355 12.0505 11.1616 9.48019 15.064C6.90994 18.9662 5.84181 23.6681 6.47356 28.2978C7.10533 32.9276 9.39431 37.1713 12.9161 40.2422C16.4379 43.3132 20.9537 45.0031 25.6264 44.9988C30.2991 44.9944 34.8117 43.296 38.3278 40.2184C41.8438 37.1408 44.1248 32.8929 44.7479 28.2619C45.371 23.6309 44.2939 18.9312 41.7164 15.0337C39.1388 11.1362 35.2355 8.30553 30.7302 7.06613" stroke="#2947F2" stroke-width="2" stroke-linecap="round" stroke-linejoin="round"/>
<path opacity="0.96" d="M25.6094 15.8359L25.6094 34.1128" stroke="#FF6805" stroke-width="2" stroke-linecap="round" stroke-linejoin="round"/>
<path d="M33.1953 27.9473L25.6049 35.5377L18.0145 27.9473" stroke="#FF6805" stroke-width="2" stroke-linecap="round" stroke-linejoin="round"/>
</svg>
