<svg width="385" height="270" viewBox="0 0 385 270" fill="none" xmlns="http://www.w3.org/2000/svg">
<path d="M23.3535 37.6464C23.1583 37.4512 22.8417 37.4512 22.6464 37.6464L19.4645 40.8284C19.2692 41.0237 19.2692 41.3403 19.4645 41.5355C19.6597 41.7308 19.9763 41.7308 20.1716 41.5355L23 38.7071L25.8284 41.5355C26.0237 41.7308 26.3403 41.7308 26.5355 41.5355C26.7308 41.3403 26.7308 41.0237 26.5355 40.8284L23.3535 37.6464ZM23.5 270L23.5 38L22.5 38L22.5 270L23.5 270Z" fill="#B4B6BB"/>
<path d="M24.4341 65.7578H352.725" stroke="#1D1D22" stroke-opacity="0.05"/>
<path d="M24.4341 39.2773H352.725" stroke="#1D1D22" stroke-opacity="0.05"/>
<path d="M24.4341 92.2422H352.725" stroke="#1D1D22" stroke-opacity="0.05"/>
<path d="M24.4341 118.727H352.725" stroke="#1D1D22" stroke-opacity="0.05"/>
<path d="M24.4341 176.102H352.725" stroke="#1D1D22" stroke-opacity="0.05"/>
<path d="M24.4341 202.586H352.725" stroke="#1D1D22" stroke-opacity="0.05"/>
<path d="M24.4341 229.07H352.725" stroke="#1D1D22" stroke-opacity="0.05"/>
<path d="M24.4341 255.551H352.725" stroke="#1D1D22" stroke-opacity="0.08"/>
<path d="M353.079 149.975C353.274 149.779 353.274 149.463 353.079 149.268L349.897 146.086C349.702 145.89 349.385 145.89 349.19 146.086C348.995 146.281 348.995 146.597 349.19 146.793L352.018 149.621L349.19 152.45C348.995 152.645 348.995 152.961 349.19 153.157C349.385 153.352 349.702 153.352 349.897 153.157L353.079 149.975ZM24.4341 150.121H352.725V149.121H24.4341V150.121Z" fill="#B4B6BB"/>
<path d="M151.423 174.539L151.554 174.753L151.56 174.748L151.423 174.539ZM106.504 203.137L106.502 203.389L106.573 203.389L106.634 203.35L106.504 203.137ZM310.643 65.5703L310.506 65.361L310.506 65.3613L310.643 65.5703ZM349.054 39.6188C349.081 39.4821 348.995 39.3495 348.861 39.3227L346.677 38.8861C346.543 38.8593 346.412 38.9484 346.384 39.0851C346.357 39.2219 346.444 39.3544 346.578 39.3812L348.519 39.7694L348.123 41.7499C348.096 41.8867 348.182 42.0192 348.316 42.046C348.45 42.0728 348.581 41.9837 348.609 41.847L349.054 39.6188ZM23.8892 203.389L26.9872 203.389L26.991 202.884L23.893 202.884L23.8892 203.389ZM31.1178 203.389L37.3138 203.389L37.3176 202.884L31.1216 202.884L31.1178 203.389ZM41.4444 203.389L47.6404 203.389L47.6442 202.884L41.4482 202.884L41.4444 203.389ZM51.771 203.389L57.967 203.389L57.9708 202.884L51.7748 202.884L51.771 203.389ZM62.0976 203.389L68.2936 203.389L68.2974 202.884L62.1014 202.884L62.0976 203.389ZM72.4242 203.389L78.6202 203.389L78.624 202.884L72.428 202.884L72.4242 203.389ZM82.7508 203.389L88.9468 203.389L88.9506 202.884L82.7546 202.884L82.7508 203.389ZM93.0774 203.389L99.2734 203.389L99.2772 202.884L93.0812 202.884L93.0774 203.389ZM103.404 203.389L106.502 203.389L106.506 202.884L103.408 202.884L103.404 203.389ZM106.634 203.35L109.329 201.634L109.069 201.207L106.374 202.923L106.634 203.35ZM112.923 199.347L118.313 195.915L118.053 195.488L112.662 198.919L112.923 199.347ZM121.907 193.627L127.297 190.195L127.037 189.768L121.646 193.2L121.907 193.627ZM130.891 187.908L136.281 184.476L136.021 184.049L130.63 187.48L130.891 187.908ZM139.874 182.188L145.265 178.756L145.004 178.329L139.614 181.761L139.874 182.188ZM148.858 176.468L151.553 174.753L151.293 174.325L148.598 176.041L148.858 176.468ZM151.56 174.748L154.074 173.027L153.8 172.609L151.286 174.33L151.56 174.748ZM157.426 170.733L162.454 167.292L162.18 166.874L157.152 170.315L157.426 170.733ZM165.806 164.998L170.834 161.557L170.56 161.139L165.532 164.58L165.806 164.998ZM174.186 159.263L179.214 155.822L178.94 155.404L173.912 158.845L174.186 159.263ZM182.566 153.528L187.594 150.087L187.32 149.669L182.292 153.11L182.566 153.528ZM190.946 147.793L195.974 144.352L195.7 143.933L190.672 147.375L190.946 147.793ZM199.326 142.057L204.354 138.616L204.08 138.198L199.052 141.639L199.326 142.057ZM207.706 136.322L212.734 132.881L212.46 132.463L207.432 135.904L207.706 136.322ZM216.086 130.587L221.114 127.146L220.84 126.728L215.812 130.169L216.086 130.587ZM224.466 124.852L229.494 121.411L229.22 120.993L224.192 124.434L224.466 124.852ZM232.846 119.117L237.874 115.676L237.6 115.257L232.572 118.699L232.846 119.117ZM241.226 113.381L246.254 109.94L245.98 109.522L240.952 112.963L241.226 113.381ZM249.606 107.646L254.634 104.205L254.36 103.787L249.332 107.228L249.606 107.646ZM257.986 101.911L263.014 98.47L262.74 98.0519L257.712 101.493L257.986 101.911ZM266.366 96.1759L271.394 92.7348L271.12 92.3167L266.092 95.7578L266.366 96.1759ZM274.746 90.4407L279.774 86.9996L279.5 86.5815L274.472 90.0226L274.746 90.4407ZM283.126 84.7055L288.154 81.2644L287.88 80.8463L282.852 84.2874L283.126 84.7055ZM291.506 78.9703L296.534 75.5292L296.26 75.1111L291.232 78.5522L291.506 78.9703ZM299.886 73.2351L304.914 69.794L304.64 69.3759L299.612 72.817L299.886 73.2351ZM308.266 67.4999L310.78 65.7794L310.506 65.3613L307.992 67.0818L308.266 67.4999ZM310.78 65.7797L313.07 64.2197L312.797 63.801L310.506 65.361L310.78 65.7797ZM316.123 62.1397L320.703 59.0197L320.43 58.601L315.85 61.721L316.123 62.1397ZM323.757 56.9397L328.337 53.8197L328.064 53.401L323.484 56.521L323.757 56.9397ZM331.391 51.7397L335.971 48.6197L335.698 48.201L331.117 51.321L331.391 51.7397ZM339.024 46.5397L343.604 43.4197L343.331 43.0009L338.751 46.121L339.024 46.5397ZM346.658 41.3397L348.948 39.7797L348.675 39.3609L346.385 40.9209L346.658 41.3397ZM151.423 174.539L151.684 174.966L151.691 174.962L151.697 174.957L151.423 174.539ZM106.504 203.137L106.5 203.641L106.643 203.641L106.764 203.564L106.504 203.137ZM310.643 65.5703L310.37 65.1516L310.369 65.1522L310.643 65.5703ZM349.297 39.6674C349.352 39.3939 349.179 39.1288 348.91 39.0752L344.542 38.2018C344.274 38.1482 344.012 38.3265 343.957 38.5999C343.903 38.8734 344.076 39.1385 344.344 39.1921L348.227 39.9684L347.435 43.9295C347.38 44.203 347.553 44.4681 347.821 44.5217C348.089 44.5753 348.351 44.3971 348.406 44.1236L349.297 39.6674ZM23.8873 203.641L26.9853 203.641L26.9929 202.632L23.8949 202.632L23.8873 203.641ZM31.1159 203.641L37.3119 203.641L37.3195 202.632L31.1235 202.632L31.1159 203.641ZM41.4425 203.641L47.6385 203.641L47.6461 202.632L41.4501 202.632L41.4425 203.641ZM51.7691 203.641L57.9651 203.641L57.9727 202.632L51.7767 202.632L51.7691 203.641ZM62.0957 203.641L68.2917 203.641L68.2993 202.632L62.1033 202.632L62.0957 203.641ZM72.4223 203.641L78.6183 203.641L78.6259 202.632L72.4299 202.632L72.4223 203.641ZM82.7489 203.641L88.9449 203.641L88.9525 202.632L82.7565 202.632L82.7489 203.641ZM93.0755 203.641L99.2715 203.641L99.2791 202.632L93.0831 202.632L93.0755 203.641ZM103.402 203.641L106.5 203.641L106.508 202.632L103.41 202.632L103.402 203.641ZM106.764 203.564L109.459 201.848L108.939 200.994L106.244 202.709L106.764 203.564ZM113.053 199.56L118.443 196.129L117.923 195.274L112.532 198.706L113.053 199.56ZM122.037 193.841L127.427 190.409L126.907 189.554L121.516 192.986L122.037 193.841ZM131.021 188.121L136.411 184.689L135.89 183.835L130.5 187.267L131.021 188.121ZM140.005 182.402L145.395 178.97L144.874 178.115L139.484 181.547L140.005 182.402ZM148.988 176.682L151.684 174.966L151.163 174.112L148.468 175.828L148.988 176.682ZM151.697 174.957L154.211 173.237L153.663 172.4L151.149 174.121L151.697 174.957ZM157.563 170.942L162.591 167.501L162.043 166.665L157.015 170.106L157.563 170.942ZM165.943 165.207L170.971 161.766L170.423 160.93L165.395 164.371L165.943 165.207ZM174.323 159.472L179.351 156.031L178.803 155.195L173.775 158.636L174.323 159.472ZM182.703 153.737L187.731 150.296L187.183 149.46L182.155 152.901L182.703 153.737ZM191.083 148.002L196.111 144.561L195.563 143.724L190.535 147.165L191.083 148.002ZM199.463 142.267L204.491 138.825L203.943 137.989L198.915 141.43L199.463 142.267ZM207.843 136.531L212.871 133.09L212.323 132.254L207.295 135.695L207.843 136.531ZM216.223 130.796L221.251 127.355L220.703 126.519L215.675 129.96L216.223 130.796ZM224.603 125.061L229.631 121.62L229.083 120.784L224.055 124.225L224.603 125.061ZM232.983 119.326L238.011 115.885L237.463 115.048L232.435 118.489L232.983 119.326ZM241.363 113.591L246.391 110.149L245.843 109.313L240.815 112.754L241.363 113.591ZM249.743 107.855L254.771 104.414L254.223 103.578L249.195 107.019L249.743 107.855ZM258.123 102.12L263.151 98.679L262.603 97.8428L257.575 101.284L258.123 102.12ZM266.503 96.385L271.531 92.9439L270.983 92.1076L265.955 95.5487L266.503 96.385ZM274.883 90.6498L279.911 87.2087L279.363 86.3724L274.335 89.8135L274.883 90.6498ZM283.263 84.9146L288.291 81.4735L287.743 80.6372L282.715 84.0784L283.263 84.9146ZM291.643 79.1794L296.671 75.7383L296.123 74.902L291.095 78.3432L291.643 79.1794ZM300.023 73.4442L305.051 70.0031L304.503 69.1669L299.475 72.608L300.023 73.4442ZM308.403 67.709L310.917 65.9884L310.369 65.1522L307.855 66.8728L308.403 67.709ZM310.916 65.9891L313.206 64.4291L312.66 63.5916L310.37 65.1516L310.916 65.9891ZM316.26 62.3491L320.84 59.2291L320.294 58.3916L315.713 61.5116L316.26 62.3491ZM323.894 57.1491L328.474 54.0291L327.927 53.1916L323.347 56.3116L323.894 57.1491ZM331.527 51.949L336.107 48.8291L335.561 47.9916L330.981 51.1116L331.527 51.949ZM339.161 46.749L343.741 43.629L343.195 42.7916L338.614 45.9116L339.161 46.749ZM346.795 41.549L349.085 39.989L348.538 39.1516L346.248 40.7116L346.795 41.549Z" fill="#4B4B55"/>
<path d="M188.309 150.07L310.643 66.0703L345.875 42.5703V150.07H188.309Z" fill="url(#paint0_linear_276_6342)" fill-opacity="0.4"/>
<rect x="328" y="11" width="57" height="23" rx="11.5" fill="#B7F0BE"/>
<path d="M340.822 27.5L340.822 18.86L344.392 18.86C344.476 18.86 344.584 18.864 344.716 18.872C344.848 18.876 344.97 18.888 345.082 18.908C345.582 18.984 345.994 19.15 346.318 19.406C346.646 19.662 346.888 19.986 347.044 20.378C347.204 20.766 347.284 21.198 347.284 21.674C347.284 22.146 347.204 22.578 347.044 22.97C346.884 23.358 346.64 23.68 346.312 23.936C345.988 24.192 345.578 24.358 345.082 24.434C344.97 24.45 344.846 24.462 344.71 24.47C344.578 24.478 344.472 24.482 344.392 24.482L342.268 24.482L342.268 27.5L340.822 27.5ZM342.268 23.132L344.332 23.132C344.412 23.132 344.502 23.128 344.602 23.12C344.702 23.112 344.794 23.096 344.878 23.072C345.118 23.012 345.306 22.906 345.442 22.754C345.582 22.602 345.68 22.43 345.736 22.238C345.796 22.046 345.826 21.858 345.826 21.674C345.826 21.49 345.796 21.302 345.736 21.11C345.68 20.914 345.582 20.74 345.442 20.588C345.306 20.436 345.118 20.33 344.878 20.27C344.794 20.246 344.702 20.232 344.602 20.228C344.502 20.22 344.412 20.216 344.332 20.216L342.268 20.216L342.268 23.132ZM348.486 27.5L348.486 21.02L349.764 21.02L349.764 22.598L349.608 22.394C349.688 22.178 349.794 21.982 349.926 21.806C350.062 21.626 350.224 21.478 350.412 21.362C350.572 21.254 350.748 21.17 350.94 21.11C351.136 21.046 351.336 21.008 351.54 20.996C351.744 20.98 351.942 20.988 352.134 21.02L352.134 22.37C351.942 22.314 351.72 22.296 351.468 22.316C351.22 22.336 350.996 22.406 350.796 22.526C350.596 22.634 350.432 22.772 350.304 22.94C350.18 23.108 350.088 23.3 350.028 23.516C349.968 23.728 349.938 23.958 349.938 24.206L349.938 27.5L348.486 27.5ZM356.024 27.68C355.376 27.68 354.81 27.534 354.326 27.242C353.842 26.95 353.466 26.548 353.198 26.036C352.934 25.52 352.802 24.928 352.802 24.26C352.802 23.58 352.938 22.984 353.21 22.472C353.482 21.96 353.86 21.56 354.344 21.272C354.828 20.984 355.388 20.84 356.024 20.84C356.676 20.84 357.244 20.986 357.728 21.278C358.212 21.57 358.588 21.974 358.856 22.49C359.124 23.002 359.258 23.592 359.258 24.26C359.258 24.932 359.122 25.526 358.85 26.042C358.582 26.554 358.206 26.956 357.722 27.248C357.238 27.536 356.672 27.68 356.024 27.68ZM356.024 26.324C356.6 26.324 357.028 26.132 357.308 25.748C357.588 25.364 357.728 24.868 357.728 24.26C357.728 23.632 357.586 23.132 357.302 22.76C357.018 22.384 356.592 22.196 356.024 22.196C355.636 22.196 355.316 22.284 355.064 22.46C354.816 22.632 354.632 22.874 354.512 23.186C354.392 23.494 354.332 23.852 354.332 24.26C354.332 24.888 354.474 25.39 354.758 25.766C355.046 26.138 355.468 26.324 356.024 26.324ZM361.144 27.5L361.144 20.918C361.144 20.754 361.15 20.574 361.162 20.378C361.174 20.178 361.208 19.98 361.264 19.784C361.32 19.588 361.422 19.41 361.57 19.25C361.754 19.046 361.952 18.906 362.164 18.83C362.38 18.75 362.592 18.706 362.8 18.698C363.008 18.686 363.19 18.68 363.346 18.68L364.156 18.68L364.156 19.856L363.406 19.856C363.13 19.856 362.924 19.926 362.788 20.066C362.656 20.202 362.59 20.382 362.59 20.606L362.59 27.5L361.144 27.5ZM360.1 22.154L360.1 21.02L364.156 21.02L364.156 22.154L360.1 22.154ZM365.416 20.036L365.416 18.71L366.862 18.71L366.862 20.036L365.416 20.036ZM365.416 27.5L365.416 21.02L366.862 21.02L366.862 27.5L365.416 27.5ZM372.464 27.5C372.036 27.58 371.616 27.614 371.204 27.602C370.796 27.594 370.43 27.52 370.106 27.38C369.782 27.236 369.536 27.01 369.368 26.702C369.22 26.422 369.142 26.136 369.134 25.844C369.126 25.552 369.122 25.222 369.122 24.854L369.122 19.22L370.562 19.22L370.562 24.77C370.562 25.03 370.564 25.258 370.568 25.454C370.576 25.65 370.618 25.81 370.694 25.934C370.838 26.174 371.068 26.308 371.384 26.336C371.7 26.364 372.06 26.348 372.464 26.288L372.464 27.5ZM367.946 22.154L367.946 21.02L372.464 21.02L372.464 22.154L367.946 22.154Z" fill="#45AE4A"/>
<g filter="url(#filter0_d_276_6342)">
<ellipse cx="4.33598" cy="4.4124" rx="4.33598" ry="4.4124" transform="matrix(0.949497 -0.313775 0.301765 0.953382 101 198.723)" fill="white" shape-rendering="crispEdges"/>
<path d="M108.233 207.206C111.316 206.187 112.968 202.827 111.99 199.738C111.012 196.648 107.748 194.913 104.664 195.932C101.581 196.951 99.9294 200.311 100.907 203.4C101.885 206.489 105.149 208.225 108.233 207.206Z" stroke="#959595" stroke-opacity="0.6" stroke-width="3" shape-rendering="crispEdges"/>
</g>
<path d="M9.39116 153.21C8.67716 153.21 8.04716 153.058 7.50116 152.755C6.95516 152.447 6.52816 152.02 6.22016 151.474C5.91682 150.928 5.76516 150.298 5.76516 149.584L5.76516 146.336C5.76516 145.622 5.91682 144.992 6.22016 144.446C6.52816 143.9 6.95516 143.475 7.50116 143.172C8.04716 142.864 8.67716 142.71 9.39116 142.71C10.1052 142.71 10.7328 142.864 11.2742 143.172C11.8202 143.475 12.2472 143.9 12.5552 144.446C12.8632 144.992 13.0172 145.622 13.0172 146.336L13.0172 149.584C13.0172 150.298 12.8632 150.928 12.5552 151.474C12.2472 152.02 11.8202 152.447 11.2742 152.755C10.7328 153.058 10.1052 153.21 9.39116 153.21ZM9.39116 151.607C9.74582 151.607 10.0678 151.523 10.3572 151.355C10.6465 151.182 10.8752 150.954 11.0432 150.669C11.2112 150.38 11.2952 150.058 11.2952 149.703L11.2952 146.21C11.2952 145.851 11.2112 145.529 11.0432 145.244C10.8752 144.955 10.6465 144.726 10.3572 144.558C10.0678 144.385 9.74582 144.299 9.39116 144.299C9.03649 144.299 8.71449 144.385 8.42516 144.558C8.13582 144.726 7.90716 144.955 7.73916 145.244C7.57116 145.529 7.48716 145.851 7.48716 146.21L7.48716 149.703C7.48716 150.058 7.57116 150.38 7.73916 150.669C7.90716 150.954 8.13582 151.182 8.42516 151.355C8.71449 151.523 9.03649 151.607 9.39116 151.607Z" fill="#01031C"/>
<defs>
<filter id="filter0_d_276_6342" x="95.1323" y="192.133" width="22.6328" height="22.8716" filterUnits="userSpaceOnUse" color-interpolation-filters="sRGB">
<feFlood flood-opacity="0" result="BackgroundImageFix"/>
<feColorMatrix in="SourceAlpha" type="matrix" values="0 0 0 0 0 0 0 0 0 0 0 0 0 0 0 0 0 0 127 0" result="hardAlpha"/>
<feOffset dy="2"/>
<feGaussianBlur stdDeviation="2"/>
<feComposite in2="hardAlpha" operator="out"/>
<feColorMatrix type="matrix" values="0 0 0 0 0 0 0 0 0 0 0 0 0 0 0 0 0 0 0.25 0"/>
<feBlend mode="normal" in2="BackgroundImageFix" result="effect1_dropShadow_276_6342"/>
<feBlend mode="normal" in="SourceGraphic" in2="effect1_dropShadow_276_6342" result="shape"/>
</filter>
<linearGradient id="paint0_linear_276_6342" x1="294.754" y1="95.3079" x2="294.754" y2="150.07" gradientUnits="userSpaceOnUse">
<stop stop-color="#00D60B"/>
<stop offset="1" stop-color="#00D60B" stop-opacity="0.3"/>
</linearGradient>
</defs>
</svg>
