<svg width="16" height="18" viewBox="0 0 16 18" fill="none" xmlns="http://www.w3.org/2000/svg">
<path d="M-2.64916e-06 7.57573C-1.64271e-06 4.6976 -1.06237e-06 3.25855 0.32564 2.77442C0.651273 2.2903 1.94798 1.82713 4.5414 0.900796L5.0355 0.724316C6.3874 0.24144 7.06332 2.46998e-06 7.76321 2.71473e-06C8.46311 2.95947e-06 9.13903 0.241441 10.4909 0.724318L10.985 0.900798C13.5785 1.82714 14.8752 2.2903 15.2008 2.77443C15.5264 3.25856 15.5264 4.6976 15.5264 7.57573C15.5264 8.01038 15.5264 8.48185 15.5264 8.99309C15.5264 14.0678 11.8699 16.5305 9.57583 17.5762C8.95357 17.8598 8.64243 18.0017 7.76321 18.0017C6.88398 18.0017 6.57285 17.8598 5.95055 17.5762C3.65643 16.5305 -4.91937e-06 14.0678 -3.1448e-06 8.99309C-2.96602e-06 8.48184 -2.80116e-06 8.01038 -2.64916e-06 7.57573Z" fill="#2947F2"/>
<path d="M4.61279 9.17714L6.67012 11.0973L11.8135 6.29688" stroke="white" stroke-width="1.60015" stroke-linecap="round" stroke-linejoin="round"/>
</svg>
