<svg width="38" height="38" viewBox="0 0 38 38" fill="none" xmlns="http://www.w3.org/2000/svg">
<path d="M23.401 6.08304H13.7675C12.5994 6.07921 11.4614 6.45314 10.5233 7.14904C9.59466 7.85056 8.7678 8.67743 8.06628 9.60602C7.37037 10.5442 6.99644 11.6822 7.00027 12.8503V30.5577C7.00027 30.9183 7.14353 31.2641 7.39852 31.5191C7.65351 31.7741 7.99936 31.9174 8.35998 31.9174H26.0361C26.3967 31.9174 26.7426 31.7741 26.9976 31.5191C27.2525 31.2641 27.3958 30.9183 27.3958 30.5577V22.753" stroke="#2947F2" stroke-width="2" stroke-linecap="round" stroke-linejoin="round"/>
<path d="M12.4391 8.80225V11.5216H9.0398C8.49887 11.5216 7.98011 11.7365 7.59762 12.119C7.21513 12.5015 7.00024 13.0203 7.00024 13.5612V15.6008" stroke="#2947F2" stroke-width="2" stroke-linecap="round" stroke-linejoin="round"/>
<path d="M24.2682 17.7155L20.4216 21.5621C18.5044 23.4779 16.4404 23.9701 15.4695 22.9993C14.4987 22.0285 14.9896 19.9645 16.9067 18.0473L20.7588 14.2007" stroke="#2947F2" stroke-width="2" stroke-linecap="round" stroke-linejoin="round"/>
<path d="M21.9077 12.7345L26.0208 8.62137C26.4445 8.19816 27.0189 7.96045 27.6178 7.96045C28.2167 7.96045 28.791 8.19816 29.2148 8.62137L29.8538 9.26043C30.2774 9.68421 30.5154 10.2589 30.5154 10.8581C30.5154 11.4573 30.2774 12.032 29.8538 12.4557L25.7665 16.5525" stroke="#2947F2" stroke-width="2" stroke-linecap="round" stroke-linejoin="round"/>
<path d="M14.198 24.2771L15.4761 22.999" stroke="#2947F2" stroke-width="2" stroke-linecap="round" stroke-linejoin="round"/>
<path d="M21.8899 12.748L25.6971 16.6096" stroke="#2947F2" stroke-width="2" stroke-linecap="round" stroke-linejoin="round"/>
<path d="M30.1888 12.0278C30.4215 12.2206 30.6129 12.4584 30.7516 12.7269C30.8903 12.9953 30.9734 13.289 30.996 13.5904C31.0186 13.8917 30.9802 14.1945 30.8831 14.4806C30.786 14.7668 30.6322 15.0304 30.4309 15.2558L27.9834 17.7032" stroke="#2947F2" stroke-width="2" stroke-linecap="round" stroke-linejoin="round"/>
<path d="M11.1387 27.01C11.2363 27.3603 11.4412 27.6713 11.7246 27.8993C12.0079 28.1273 12.3555 28.2609 12.7186 28.2813C13.4497 28.305 14.167 28.078 14.7514 27.6381C15.2722 27.2819 15.8759 26.8142 16.4592 27.0521C16.8249 27.2003 17.0303 27.5838 17.3212 27.8516C17.7759 28.1512 18.306 28.3162 18.8503 28.3278C19.3947 28.3393 19.9313 28.1969 20.3982 27.9169C21.3278 27.3438 22.3918 27.0254 23.4834 26.9936" stroke="#FF6805" stroke-width="2" stroke-linecap="round" stroke-linejoin="round"/>
</svg>
