<svg width="57" height="56" viewBox="0 0 57 56" fill="none" xmlns="http://www.w3.org/2000/svg">
<rect x="4.5" y="4" width="48" height="48" rx="24" fill="#FEF0C7"/>
<rect x="4.5" y="4" width="48" height="48" rx="24" stroke="#FFFAEB" stroke-width="8"/>
<path d="M23.5 19V22.4C23.5 22.9601 23.5 23.2401 23.609 23.454C23.7049 23.6422 23.8578 23.7951 24.046 23.891C24.2599 24 24.5399 24 25.1 24H31.9C32.4601 24 32.7401 24 32.954 23.891C33.1422 23.7951 33.2951 23.6422 33.391 23.454C33.5 23.2401 33.5 22.9601 33.5 22.4V20M33.5 37V30.6C33.5 30.0399 33.5 29.7599 33.391 29.546C33.2951 29.3578 33.1422 29.2049 32.954 29.109C32.7401 29 32.4601 29 31.9 29H25.1C24.5399 29 24.2599 29 24.046 29.109C23.8578 29.2049 23.7049 29.3578 23.609 29.546C23.5 29.7599 23.5 30.0399 23.5 30.6V37M37.5 25.3255V32.2C37.5 33.8802 37.5 34.7202 37.173 35.362C36.8854 35.9265 36.4265 36.3854 35.862 36.673C35.2202 37 34.3802 37 32.7 37H24.3C22.6198 37 21.7798 37 21.138 36.673C20.5735 36.3854 20.1146 35.9265 19.827 35.362C19.5 34.7202 19.5 33.8802 19.5 32.2V23.8C19.5 22.1198 19.5 21.2798 19.827 20.638C20.1146 20.0735 20.5735 19.6146 21.138 19.327C21.7798 19 22.6198 19 24.3 19H31.1745C31.6637 19 31.9083 19 32.1385 19.0553C32.3425 19.1043 32.5376 19.1851 32.7166 19.2947C32.9184 19.4184 33.0914 19.5914 33.4373 19.9373L36.5627 23.0627C36.9086 23.4086 37.0816 23.5816 37.2053 23.7834C37.3149 23.9624 37.3957 24.1575 37.4447 24.3615C37.5 24.5917 37.5 24.8363 37.5 25.3255Z" stroke="#DC6803" stroke-width="2" stroke-linecap="round" stroke-linejoin="round"/>
</svg>
