<svg width="25" height="25" viewBox="0 0 25 25" fill="none" xmlns="http://www.w3.org/2000/svg">
<g id="material-symbols-light:search-rounded">
<path id="Vector" d="M9.82084 15.9932C8.22218 15.9932 6.86718 15.4379 5.75584 14.3272C4.64518 13.2172 4.08984 11.8625 4.08984 10.2632C4.08984 8.66387 4.64518 7.30887 5.75584 6.1982C6.86651 5.08754 8.22151 4.53254 9.82084 4.5332C11.4202 4.53387 12.7748 5.0892 13.8848 6.1992C14.9948 7.3092 15.5502 8.66387 15.5508 10.2632C15.5508 10.9579 15.4278 11.6302 15.1818 12.2802C14.9358 12.9302 14.6125 13.4862 14.2118 13.9482L20.1208 19.8552C20.2142 19.9485 20.2642 20.0635 20.2708 20.2002C20.2768 20.3355 20.2268 20.4565 20.1208 20.5632C20.0142 20.6699 19.8962 20.7232 19.7668 20.7232C19.6375 20.7232 19.5195 20.6699 19.4128 20.5632L13.5048 14.6552C13.0048 15.0812 12.4298 15.4109 11.7798 15.6442C11.1298 15.8775 10.4765 15.9942 9.81984 15.9942M9.81984 14.9942C11.1465 14.9942 12.2668 14.5375 13.1808 13.6242C14.0942 12.7109 14.5508 11.5905 14.5508 10.2632C14.5508 8.93587 14.0945 7.81587 13.1818 6.9032C12.2692 5.99054 11.1492 5.53387 9.82184 5.5332C8.49451 5.5332 7.37418 5.98987 6.46084 6.9032C5.54751 7.81654 5.09051 8.93654 5.08984 10.2632C5.08918 11.5899 5.54584 12.7099 6.45984 13.6232C7.37384 14.5365 8.49384 14.9932 9.81984 14.9932" fill="black"/>
</g>
</svg>
