<svg width="18" height="18" viewBox="0 0 18 18" fill="none" xmlns="http://www.w3.org/2000/svg">
<path d="M12.5 11.255H11.71L11.43 10.985C12.41 9.845 13 8.365 13 6.755C13 3.165 10.09 0.255005 6.5 0.255005C2.91 0.255005 0 3.165 0 6.755C0 10.345 2.91 13.255 6.5 13.255C8.11 13.255 9.59 12.665 10.73 11.685L11 11.965V12.755L16 17.745L17.49 16.255L12.5 11.255ZM6.5 11.255C4.01 11.255 2 9.245 2 6.755C2 4.26501 4.01 2.255 6.5 2.255C8.99 2.255 11 4.26501 11 6.755C11 9.245 8.99 11.255 6.5 11.255Z" fill="#D1D5DB"/>
</svg>
