<svg width="19" height="18" viewBox="0 0 19 18" fill="none" xmlns="http://www.w3.org/2000/svg">
<path d="M16.5094 17.3156L10.9094 11.7156C10.4094 12.1156 9.83437 12.4323 9.18437 12.6656C8.53437 12.899 7.84271 13.0156 7.10938 13.0156C5.29271 13.0156 3.75537 12.3866 2.49738 11.1286C1.23871 9.86996 0.609375 8.33229 0.609375 6.51562C0.609375 4.69896 1.23871 3.16129 2.49738 1.90263C3.75537 0.644625 5.29271 0.015625 7.10938 0.015625C8.92604 0.015625 10.4637 0.644625 11.7224 1.90263C12.9804 3.16129 13.6094 4.69896 13.6094 6.51562C13.6094 7.24896 13.4927 7.94062 13.2594 8.59062C13.026 9.24062 12.7094 9.81563 12.3094 10.3156L17.9344 15.9406C18.1177 16.124 18.2094 16.349 18.2094 16.6156C18.2094 16.8823 18.1094 17.1156 17.9094 17.3156C17.726 17.499 17.4927 17.5906 17.2094 17.5906C16.926 17.5906 16.6927 17.499 16.5094 17.3156ZM7.10938 11.0156C8.35938 11.0156 9.42204 10.5783 10.2974 9.70362C11.172 8.82829 11.6094 7.76562 11.6094 6.51562C11.6094 5.26562 11.172 4.20296 10.2974 3.32762C9.42204 2.45296 8.35938 2.01562 7.10938 2.01562C5.85938 2.01562 4.79671 2.45296 3.92137 3.32762C3.04671 4.20296 2.60938 5.26562 2.60938 6.51562C2.60938 7.76562 3.04671 8.82829 3.92137 9.70362C4.79671 10.5783 5.85938 11.0156 7.10938 11.0156Z" fill="black"/>
</svg>
