<svg width="23" height="22" viewBox="0 0 23 22" fill="none" xmlns="http://www.w3.org/2000/svg">
<g id="check-circle_svgrepo.com">
<path id="Vector" d="M19.5002 11C19.5002 15.3435 15.979 18.8646 11.6356 18.8646C7.29209 18.8646 3.771 15.3435 3.771 11C3.771 6.65655 7.29209 3.13546 11.6356 3.13546C15.979 3.13546 19.5002 6.65655 19.5002 11Z" fill="#05F2F2"/>
<path id="Vector_2" d="M14.4249 8.90158C14.6277 9.1044 14.6277 9.43325 14.4249 9.63605L10.9625 13.0985C10.7596 13.3013 10.4309 13.3013 10.228 13.0985L8.84303 11.7135C8.64021 11.5107 8.64021 11.1819 8.84303 10.9791C9.04586 10.7762 9.3747 10.7762 9.57752 10.9791L10.5952 11.9967L12.1428 10.4492L13.6904 8.90158C13.8933 8.69876 14.2221 8.69876 14.4249 8.90158Z" fill="#2947F2"/>
</g>
</svg>
