<svg width="41" height="41" viewBox="0 0 41 41" fill="none" xmlns="http://www.w3.org/2000/svg">
<path d="M22.0326 29.1111C22.0326 29.6493 21.7842 30.2703 21.039 30.4773C20.9562 30.5187 20.832 30.4359 20.832 30.3531V27.8278L21.1632 27.9106C21.5772 28.0348 22.0326 28.4487 22.0326 29.1111Z" fill="#2947F2"/>
<path d="M19.5483 23.3154V25.3025C19.5483 25.4267 19.4241 25.4681 19.3413 25.4267C18.9273 25.2611 18.5547 24.9299 18.5547 24.3504C18.5547 23.8536 18.8031 23.3568 19.3413 23.1498C19.4241 23.1498 19.5483 23.1912 19.5483 23.3154Z" fill="#2947F2"/>
<path d="M25.7153 14.4973C25.4669 14.2075 25.0943 14.0005 24.639 14.0005H15.8624C15.4484 14.0005 15.0344 14.1661 14.786 14.4973C11.8052 18.2232 -6.03775 38.6743 20.2507 38.6743C46.5391 38.6743 28.6961 18.2232 25.7153 14.4973ZM20.9958 32.2161C20.913 32.2161 20.8716 32.2989 20.8716 32.3817V33.4581C20.8716 33.5409 20.7888 33.6236 20.706 33.6236H19.6711C19.5883 33.6236 19.5055 33.5409 19.5055 33.4581V32.3817C19.5055 32.2989 19.4641 32.2575 19.3813 32.2161C18.4291 32.0919 17.5183 31.7193 16.9801 30.8913C16.7731 30.5601 16.6075 30.1461 16.5247 29.7735C16.4833 29.5251 16.4419 29.3181 16.4419 29.0697C16.4419 28.9456 16.4419 28.8214 16.4419 28.6972C16.4419 28.573 16.4005 28.4074 16.5661 28.366C16.6075 28.3246 18.2221 28.3246 18.3049 28.366C18.3877 28.4074 18.3463 28.573 18.3877 28.6558C18.4705 29.7735 18.6361 30.1875 19.3813 30.4359C19.4641 30.4773 19.5883 30.3945 19.5883 30.3117V27.5794C19.5883 27.4966 19.5469 27.4552 19.4641 27.4552C18.0565 27.0826 16.6903 26.4616 16.6903 24.4745C16.6903 22.9013 17.8495 21.6593 19.4227 21.4523C19.5055 21.4523 19.5469 21.3695 19.5469 21.3281V20.7071C19.5469 20.6243 19.6297 20.5415 19.7125 20.5415H20.7474C20.8302 20.5415 20.913 20.6243 20.913 20.7071V21.3281C20.913 21.4109 20.9544 21.4523 21.0372 21.4523C21.948 21.5765 22.8174 22.0319 23.3142 22.8185C23.5626 23.2739 23.6868 23.7707 23.7282 24.2675C23.7282 24.4745 23.6868 24.64 23.4798 24.6814C23.2728 24.7228 22.4862 24.6814 22.2792 24.6814C22.0722 24.6814 21.9066 24.6401 21.9066 24.3917C21.8652 23.8949 21.741 23.4809 21.1614 23.2325C21.0786 23.1911 20.9544 23.2739 20.9544 23.3567V25.675C20.9544 25.7578 20.9958 25.7992 21.0786 25.7992C22.8174 26.296 24.018 26.7928 24.018 28.8214C23.8938 31.2225 22.2378 32.0505 20.9958 32.2161Z" fill="#2947F2"/>
<path d="M15.8218 10.9784L12.5513 4.27178C12.4685 4.06478 12.5513 3.81639 12.7583 3.73359C13.7518 3.2782 16.4842 2.40882 19.0509 4.68577C21.8661 7.16971 25.385 5.55515 27.2065 4.39597C27.5377 4.18898 27.9517 4.56157 27.7861 4.89276L24.971 10.937C24.764 11.3924 24.3086 11.6822 23.7704 11.6822H17.0224C16.5256 11.7236 16.0288 11.4338 15.8218 10.9784Z" fill="#FF6805"/>
</svg>
