<svg width="21" height="20" viewBox="0 0 21 20" fill="none" xmlns="http://www.w3.org/2000/svg">
<path d="M9.83951 13.7506L17.9899 18.4427C18.0613 18.4838 18.1419 18.5064 18.2242 18.5083C18.3066 18.5102 18.3881 18.4914 18.4614 18.4536C18.5346 18.4159 18.5972 18.3604 18.6434 18.2922C18.6897 18.224 18.7181 18.1453 18.7261 18.0633L20.3157 1.73204C20.3244 1.64282 20.3086 1.55292 20.27 1.47201C20.2315 1.3911 20.1715 1.32226 20.0967 1.27288C20.0219 1.22351 19.935 1.19548 19.8454 1.19182C19.7559 1.18815 19.667 1.20899 19.5884 1.25208L1.33435 11.2651C1.24481 11.3141 1.17269 11.3897 1.12796 11.4814C1.08323 11.5732 1.0681 11.6766 1.08465 11.7773C1.1012 11.878 1.14862 11.9711 1.22036 12.0437C1.29211 12.1163 1.38463 12.1649 1.48514 12.1826L8.11286 13.3653" stroke="#2947F2" stroke-linecap="round" stroke-linejoin="round"/>
<path d="M17.2353 5.04688L9.84375 13.7511L10.6824 18.6788C10.6913 18.7413 10.7199 18.7994 10.7641 18.8445C10.8084 18.8896 10.8659 18.9193 10.9283 18.9294C10.9906 18.9394 11.0546 18.9292 11.1107 18.9002C11.1669 18.8713 11.2123 18.8251 11.2403 18.7685L12.1391 17.0753" stroke="#FF6805" stroke-linecap="round" stroke-linejoin="round"/>
</svg>
