<svg width="38" height="37" viewBox="0 0 38 37" fill="none" xmlns="http://www.w3.org/2000/svg">
<g clip-path="url(#clip0_25925_4364)">
<path d="M1.68359 26.9965V26.5818C3.20103 25.4606 4.59656 22.4654 6.80115 24.0567C9.02328 26.4747 11.7109 28.6414 13.9192 31.0418C14.6571 31.8434 14.4964 32.9868 13.8167 33.7728L11.4966 36.0152L10.9268 36.1076L1.68359 26.9965ZM5.32988 24.731C5.20982 24.7522 5.09068 24.8021 4.99924 24.8852L3.06712 26.8238L11.2232 34.7093L13.22 32.6913C13.3604 32.4484 13.3124 32.1491 13.1886 31.9109L6.10939 24.9554C5.84616 24.7531 5.67161 24.6718 5.32896 24.731H5.32988Z" fill="white" stroke="white" stroke-width="0.5" stroke-miterlimit="10"/>
<path d="M27.4828 22.8595C27.6805 24.594 26.7772 25.7707 25.0196 25.8926C22.7559 26.0496 20.3149 25.767 18.0318 25.8926C17.2819 25.8944 17.0602 25.1057 17.7594 24.7852H25.0196C26.755 24.6365 26.8326 22.5123 25.0889 22.3617C22.9813 22.1798 20.6243 22.8438 18.7143 21.6847C18.2729 21.4169 17.9524 21.0078 17.4731 20.7824C16.6114 20.3788 14.1352 20.4204 13.1239 20.4943C11.1428 20.6402 10.4234 22.0062 9.08326 23.1597C8.96412 23.2622 8.65749 23.5374 8.54759 23.5919C7.94264 23.8939 7.41343 23.1551 7.93803 22.5677C8.54297 21.8907 10.2932 20.28 11.0606 19.8838C12.64 19.0692 16.6686 19.0775 18.2756 19.8413C19.1272 20.2458 19.5216 20.8046 20.556 21.0179C22.1205 21.3403 25.0538 20.7492 26.2738 21.3837C26.4844 21.4936 26.7717 21.8214 26.9471 21.8113C27.8162 21.3282 29.2311 20.8545 29.9257 20.1498C30.4798 19.5882 30.768 18.5695 31.3083 17.9378C32.4544 16.5958 35.1901 16.0435 36.496 17.3836C37.3956 18.3072 36.968 19.168 36.4452 20.1027C34.8206 23.0101 32.2937 26.057 29.7539 28.2061C28.5726 29.2055 27.3221 30.25 25.7077 30.3812C22.7328 30.6241 19.431 30.1641 16.4423 30.3793C16.2207 30.395 15.9492 30.4504 15.7275 30.4948C15.5603 30.5289 15.4199 30.6601 15.2712 30.6638C14.7799 30.6758 14.5952 29.9388 14.9905 29.6192C15.2094 29.4428 15.8716 29.3615 16.1653 29.3421C19.2048 29.1362 22.549 29.5906 25.5692 29.344C26.9397 29.2322 27.9446 28.3816 28.9559 27.5458C31.0118 25.8455 32.9088 23.6547 34.3995 21.4446C34.6775 21.0327 35.965 19.0719 35.965 18.733C35.965 17.8898 34.5667 17.7337 33.9423 17.8076C31.8661 18.0514 31.7978 20.1562 30.4771 21.2553C29.6689 21.9276 28.4341 22.4125 27.4837 22.8577L27.4828 22.8595Z" fill="white" stroke="white" stroke-width="0.5" stroke-miterlimit="10"/>
<path d="M23.9632 5.06243C24.0796 5.17788 25.1094 5.5861 25.2858 5.56393C25.7143 5.51036 26.6601 4.58401 27.1016 4.33372C27.8035 3.93566 28.522 3.96891 29.1621 4.46118C30.0718 5.16125 31.0591 6.22521 30.48 7.4351C30.2306 7.956 29.2424 8.90452 29.1427 9.34876C29.0854 9.60367 29.4668 10.591 29.6571 10.7415C30.0413 11.0463 31.5726 11.0251 32.1711 11.2698C32.7003 11.4859 33.0827 12.0964 33.1381 12.6533C33.2591 13.8586 33.2674 15.3493 31.882 15.751C31.4119 15.8877 29.7956 15.9256 29.5629 16.1629C29.501 16.2267 29.0558 17.3183 29.0558 17.4227C29.054 17.8983 30.0284 18.4137 29.4022 19.0094C28.7501 19.6291 27.9162 18.1237 27.8838 17.5585C27.8589 17.1216 28.4066 15.7298 28.7114 15.4148C29.4742 14.627 31.6003 14.8884 31.8986 14.385C31.9919 14.2271 31.9984 13.0274 31.967 12.7872C31.8792 12.1167 30.2491 12.1731 29.6793 12.0327C28.6689 11.7852 28.3234 11.0925 28.0196 10.1661C27.8626 9.68587 27.8256 9.32844 28.0196 8.84726C28.2422 8.29588 29.5795 7.00194 29.4465 6.53277C29.3939 6.34528 28.414 5.4217 28.2108 5.34412C27.99 5.25915 27.8654 5.26192 27.652 5.36906C26.9252 5.73387 26.238 6.70178 25.3421 6.79506C24.7963 6.85232 23.4109 6.28525 23.0443 5.8798C22.3581 5.12061 22.6324 3.30116 22.1946 2.89294C21.9295 2.64542 20.4232 2.63896 20.1701 2.9345C19.917 3.23005 19.8672 4.83246 19.6908 5.35797C19.3629 6.33235 17.7577 6.95761 16.8055 6.79506C16.147 6.68331 15.3158 5.65075 14.7321 5.41246C14.4947 5.31549 14.2795 5.32934 14.0615 5.46696C13.8306 5.61196 13.0244 6.45149 13.016 6.71102C12.9985 7.26886 14.4513 8.43719 14.5427 9.26656C14.6175 9.94632 14.1437 11.4083 13.5702 11.8203C12.8526 12.3347 11.7295 12.1906 10.9306 12.4298C10.7053 12.4972 10.5058 12.6977 10.4679 12.935C10.3931 13.4088 10.3386 14.5402 10.8761 14.7314C11.7138 15.0297 12.9883 14.7813 13.7161 15.4869C14.1918 15.9477 15.2677 18.3869 13.9563 18.2936C13.3282 18.2493 13.4982 17.6628 13.403 17.2518C13.367 17.0967 13.1066 16.5305 13.0114 16.3994C12.6965 15.969 11.2557 15.9819 10.6859 15.8212C9.34667 15.4453 9.33743 14.095 9.42425 12.9286C9.47874 12.1971 9.88789 11.5155 10.6046 11.2744C11.1403 11.0943 12.5829 11.074 12.9089 10.8136C13.0715 10.6843 13.4566 9.69787 13.4409 9.47621C13.415 9.11694 12.4767 8.16565 12.2329 7.77498C11.8228 7.11832 11.7701 6.43394 12.231 5.78097C12.3631 5.59349 13.4021 4.49997 13.5785 4.36328C14.0735 3.97907 14.7274 4.05111 15.2428 4.35035C15.6723 4.59971 16.7141 5.5547 17.0835 5.62581C17.3338 5.67384 18.4236 5.20558 18.5437 4.97376C18.7986 4.48057 18.7469 3.2947 18.9464 2.67959C19.1228 2.13468 19.6778 1.64426 20.2523 1.56576C20.654 1.51034 21.7042 1.51311 22.1133 1.55929C22.7598 1.63225 23.3454 2.25013 23.5116 2.85784C23.6354 3.31132 23.7074 4.81214 23.9642 5.06705L23.9632 5.06243Z" fill="white" stroke="white" stroke-width="0.5" stroke-miterlimit="10"/>
<path d="M20.7107 8.73362C24.5374 8.37431 27.3749 12.3522 25.4434 15.7757C23.7841 18.7165 19.5849 19.075 17.4337 16.4781C14.9841 13.5211 16.9572 9.086 20.7099 8.73439L20.7107 8.73362ZM20.7677 9.65658C18.2495 9.91334 16.6588 12.5581 17.6133 14.9129C18.8054 17.8521 22.9429 18.1428 24.5552 15.4071C26.1805 12.6498 23.9075 9.33659 20.7677 9.65735V9.65658Z" fill="white" stroke="white" stroke-width="0.5" stroke-miterlimit="10"/>
</g>
<defs>
<clipPath id="clip0_25925_4364">
<rect width="36.7658" height="36" fill="white" transform="translate(0.967285 0.817383)"/>
</clipPath>
</defs>
</svg>
