<svg width="37" height="36" viewBox="0 0 37 36" fill="none" xmlns="http://www.w3.org/2000/svg">
<g id="Services" clip-path="url(#clip0_24610_15458)">
<path id="Vector" d="M0.716309 26.1791V25.7644C2.23375 24.6432 3.62928 21.648 5.83386 23.2394C8.05599 25.6573 10.7436 27.824 12.9519 30.2244C13.6898 31.0261 13.5291 32.1694 12.8494 32.9554L10.5293 35.1979L9.95949 35.2902L0.716309 26.1791ZM4.3626 23.9136C4.24253 23.9348 4.12339 23.9847 4.03196 24.0678L2.09983 26.0064L10.256 33.8919L12.2527 31.8739C12.3931 31.631 12.3451 31.3318 12.2213 31.0935L5.1421 24.138C4.87888 23.9357 4.70432 23.8545 4.36168 23.9136H4.3626Z" fill="#374151" stroke="#374151" stroke-width="0.5" stroke-miterlimit="10"/>
<path id="Vector_2" d="M26.5155 22.0422C26.7132 23.7766 25.8099 24.9533 24.0523 25.0752C21.7886 25.2322 19.3476 24.9496 17.0645 25.0752C16.3146 25.077 16.0929 24.2883 16.7921 23.9678H24.0523C25.7877 23.8191 25.8653 21.6949 24.1216 21.5443C22.014 21.3624 19.657 22.0265 17.7471 20.8674C17.3056 20.5995 16.9851 20.1904 16.5058 19.965C15.6441 19.5614 13.168 19.603 12.1566 19.6769C10.1756 19.8228 9.45609 21.1888 8.11598 22.3423C7.99684 22.4448 7.69021 22.7201 7.5803 22.7746C6.97536 23.0766 6.44615 22.3377 6.97074 21.7503C7.57569 21.0733 9.32587 19.4626 10.0934 19.0664C11.6727 18.2518 15.7013 18.2601 17.3084 19.0239C18.1599 19.4284 18.5543 19.9872 19.5887 20.2005C21.1532 20.5229 24.0865 19.9318 25.3066 20.5663C25.5171 20.6762 25.8044 21.0041 25.9798 20.9939C26.8489 20.5109 28.2639 20.0371 28.9584 19.3324C29.5125 18.7708 29.8007 17.7521 30.341 17.1204C31.4872 15.7784 34.2228 15.2261 35.5287 16.5663C36.4283 17.4898 36.0007 18.3506 35.4779 19.2853C33.8534 22.1927 31.3264 25.2396 28.7866 27.3888C27.6053 28.3881 26.3548 29.4326 24.7404 29.5638C21.7656 29.8067 18.4638 29.3467 15.4751 29.5619C15.2534 29.5776 14.9819 29.6331 14.7602 29.6774C14.593 29.7116 14.4527 29.8427 14.304 29.8464C13.8126 29.8584 13.6279 29.1214 14.0232 28.8018C14.2421 28.6254 14.9043 28.5442 15.198 28.5248C18.2375 28.3188 21.5818 28.7732 24.6019 28.5266C25.9725 28.4149 26.9773 27.5642 27.9886 26.7284C30.0445 25.0281 31.9416 22.8374 33.4322 20.6272C33.7102 20.2153 34.9977 18.2546 34.9977 17.9156C34.9977 17.0724 33.5994 16.9163 32.975 16.9902C30.8988 17.234 30.8305 19.3388 29.5098 20.4379C28.7016 21.1103 27.4668 21.5951 26.5164 22.0403L26.5155 22.0422Z" fill="#374151" stroke="#374151" stroke-width="0.5" stroke-miterlimit="10"/>
<path id="Vector_3" d="M22.9957 4.24505C23.1121 4.36049 24.1419 4.76871 24.3183 4.74655C24.7468 4.69298 25.6926 3.76663 26.134 3.51634C26.8359 3.11828 27.5545 3.15153 28.1945 3.6438C29.1043 4.34387 30.0916 5.40783 29.5125 6.61772C29.2631 7.13862 28.2749 8.08713 28.1751 8.53138C28.1179 8.78628 28.4993 9.77359 28.6896 9.92413C29.0738 10.2289 30.6051 10.2077 31.2036 10.4524C31.7328 10.6685 32.1151 11.279 32.1705 11.8359C32.2915 13.0412 32.2998 14.5319 30.9145 14.9336C30.4444 15.0703 28.8281 15.1082 28.5954 15.3455C28.5335 15.4093 28.0883 16.5009 28.0883 16.6053C28.0865 17.0809 29.0608 17.5963 28.4347 18.192C27.7826 18.8117 26.9486 17.3063 26.9163 16.7411C26.8914 16.3042 27.439 14.9124 27.7438 14.5974C28.5067 13.8096 30.6328 14.071 30.9311 13.5677C31.0244 13.4097 31.0308 12.21 30.9994 11.9699C30.9117 11.2993 29.2816 11.3557 28.7117 11.2153C27.7013 10.9678 27.3559 10.2751 27.0521 9.34874C26.8951 8.86848 26.8581 8.51106 27.0521 8.02987C27.2746 7.4785 28.612 6.18456 28.479 5.71538C28.4263 5.5279 27.4464 4.60432 27.2432 4.52674C27.0225 4.44177 26.8978 4.44454 26.6845 4.55167C25.9576 4.91649 25.2705 5.8844 24.3746 5.97768C23.8288 6.03494 22.4434 5.46786 22.0767 5.06241C21.3905 4.30323 21.6648 2.48378 21.227 2.07556C20.962 1.82804 19.4556 1.82157 19.2026 2.11712C18.9495 2.41266 18.8996 4.01507 18.7232 4.54059C18.3954 5.51497 16.7902 6.14023 15.838 5.97768C15.1795 5.86593 14.3482 4.83336 13.7645 4.59508C13.5272 4.49811 13.312 4.51196 13.094 4.64957C12.8631 4.79457 12.0568 5.63411 12.0485 5.89363C12.031 6.45148 13.4838 7.6198 13.5752 8.44918C13.65 9.12893 13.1762 10.591 12.6027 11.0029C11.885 11.5173 10.762 11.3732 9.96308 11.6124C9.73772 11.6799 9.53823 11.8803 9.50036 12.1176C9.42555 12.5914 9.37106 13.7228 9.90859 13.914C10.7463 14.2123 12.0208 13.9639 12.7486 14.6695C13.2242 15.1304 14.3002 17.5695 12.9887 17.4762C12.3607 17.4319 12.5306 16.8454 12.4355 16.4344C12.3995 16.2793 12.139 15.7131 12.0439 15.582C11.729 15.1516 10.2882 15.1645 9.71833 15.0038C8.37914 14.6279 8.3699 13.2776 8.45672 12.1112C8.51121 11.3797 8.92036 10.6981 9.63705 10.457C10.1727 10.2769 11.6154 10.2566 11.9414 9.99617C12.1039 9.86687 12.4891 8.88049 12.4734 8.65883C12.4475 8.29956 11.5091 7.34827 11.2653 6.9576C10.8553 6.30093 10.8026 5.61656 11.2635 4.96359C11.3955 4.7761 12.4346 3.68259 12.611 3.5459C13.106 3.16169 13.7599 3.23373 14.2753 3.53297C14.7047 3.78233 15.7465 4.73731 16.116 4.80843C16.3663 4.85645 17.4561 4.3882 17.5761 4.15638C17.831 3.66319 17.7793 2.47731 17.9788 1.86221C18.1552 1.3173 18.7103 0.826878 19.2848 0.748374C19.6865 0.692959 20.7366 0.69573 21.1458 0.741909C21.7923 0.814872 22.3778 1.43275 22.5441 2.04046C22.6678 2.49394 22.7399 3.99476 22.9966 4.24966L22.9957 4.24505Z" fill="#374151" stroke="#374151" stroke-width="0.5" stroke-miterlimit="10"/>
<path id="Vector_4" d="M19.7436 7.91624C23.5704 7.55693 26.4079 11.5348 24.4764 14.9583C22.8171 17.8991 18.6179 18.2576 16.4667 15.6607C14.017 12.7037 15.9901 8.26861 19.7429 7.91701L19.7436 7.91624ZM19.8007 8.83919C17.2824 9.09595 15.6917 11.7407 16.6463 14.0955C17.8384 17.0347 21.9758 17.3254 23.5881 14.5897C25.2135 11.8324 22.9404 8.5192 19.8007 8.83996V8.83919Z" fill="#003DFF" stroke="#003DFF" stroke-width="0.5" stroke-miterlimit="10"/>
</g>
<defs>
<clipPath id="clip0_24610_15458">
<rect width="36.7658" height="36" fill="white"/>
</clipPath>
</defs>
</svg>
