<svg width="34" height="36" viewBox="0 0 34 36" fill="none" xmlns="http://www.w3.org/2000/svg">
<path d="M22.7894 1.00394H10.1138C8.57682 0.998903 7.07944 1.49092 5.84502 2.40658C4.62318 3.32964 3.5352 4.41762 2.61215 5.63946C1.69649 6.87387 1.20447 8.37126 1.20951 9.9082V33.2074C1.20951 33.6819 1.398 34.137 1.73352 34.4725C2.06904 34.808 2.5241 34.9965 2.99859 34.9965H26.2566C26.7311 34.9965 27.1862 34.808 27.5217 34.4725C27.8572 34.137 28.0457 33.6819 28.0457 33.2074V22.9381" stroke="#2947F2" stroke-width="2" stroke-linecap="round" stroke-linejoin="round"/>
<path d="M8.3658 4.58203V8.16019H3.89309C3.18135 8.16019 2.49876 8.44293 1.99549 8.94621C1.49221 9.44949 1.20947 10.1321 1.20947 10.8438V13.5274" stroke="#2947F2" stroke-width="2" stroke-linecap="round" stroke-linejoin="round"/>
<path d="M23.9305 16.3098L18.8692 21.3711C16.3466 23.892 13.6308 24.5396 12.3534 23.2622C11.076 21.9848 11.7218 19.269 14.2444 16.7464L19.3129 11.6851" stroke="#2947F2" stroke-width="2" stroke-linecap="round" stroke-linejoin="round"/>
<path d="M20.8247 9.75572L26.2367 4.34375C26.7942 3.7869 27.55 3.47412 28.338 3.47412C29.1259 3.47412 29.8817 3.7869 30.4392 4.34375L31.2801 5.18462C31.8375 5.74222 32.1506 6.49837 32.1506 7.28679C32.1506 8.07522 31.8375 8.83136 31.2801 9.38896L25.9021 14.7795" stroke="#2947F2" stroke-width="2" stroke-linecap="round" stroke-linejoin="round"/>
<path d="M10.6802 24.9435L12.3619 23.2617" stroke="#2947F2" stroke-width="2" stroke-linecap="round" stroke-linejoin="round"/>
<path d="M20.801 9.77344L25.8105 14.8544" stroke="#2947F2" stroke-width="2" stroke-linecap="round" stroke-linejoin="round"/>
<path d="M31.7207 8.82617C32.0269 9.07987 32.2787 9.3927 32.4612 9.74596C32.6437 10.0992 32.7531 10.4856 32.7828 10.8821C32.8125 11.2786 32.762 11.677 32.6342 12.0535C32.5065 12.43 32.3041 12.7769 32.0392 13.0735L28.8188 16.2938" stroke="#2947F2" stroke-width="2" stroke-linecap="round" stroke-linejoin="round"/>
<path d="M6.65479 28.5396C6.78328 29.0005 7.05286 29.4097 7.42569 29.7097C7.79852 30.0097 8.25591 30.1855 8.7337 30.2124C9.69567 30.2435 10.6394 29.9449 11.4084 29.3661C12.0936 28.8974 12.8879 28.282 13.6555 28.595C14.1367 28.7901 14.4069 29.2946 14.7897 29.647C15.388 30.0412 16.0854 30.2584 16.8017 30.2736C17.518 30.2888 18.224 30.1013 18.8384 29.7329C20.0616 28.9789 21.4616 28.5599 22.8979 28.5181" stroke="#FF6805" stroke-width="2" stroke-linecap="round" stroke-linejoin="round"/>
</svg>
