<svg width="53" height="53" viewBox="0 0 53 53" fill="none" xmlns="http://www.w3.org/2000/svg">
<path d="M7.53043 48.5833C7.53043 40.037 16.0325 33.125 26.5 33.125C28.62 33.125 30.6738 33.412 32.595 33.942M26.5 26.5C29.4284 26.5 32.2369 25.3366 34.3076 23.2659C36.3784 21.1952 37.5417 18.3867 37.5417 15.4583C37.5417 12.5299 36.3784 9.72137 34.3076 7.65066C32.2369 5.57994 29.4284 4.41663 26.5 4.41663C23.5716 4.41663 20.7631 5.57994 18.6924 7.65066C16.6217 9.72137 15.4583 12.5299 15.4583 15.4583C15.4583 18.3867 16.6217 21.1952 18.6924 23.2659C20.7631 25.3366 23.5716 26.5 26.5 26.5Z" stroke="#2947F2" stroke-width="3.3125" stroke-linecap="round" stroke-linejoin="round"/>
<path d="M43.0404 39.7058H36.4596M39.75 36.4816V43.0846M48.5834 39.75C48.5834 40.4566 48.495 41.1412 48.3184 41.8037C48.1196 42.6871 47.7663 43.5483 47.3025 44.2991C46.524 45.6076 45.4182 46.6907 44.0939 47.4419C42.7696 48.1931 41.2725 48.5865 39.75 48.5833C37.5758 48.5897 35.4788 47.7777 33.8759 46.3087C33.2134 45.7345 32.6392 45.05 32.1975 44.2991C31.3569 42.9309 30.9134 41.3558 30.9167 39.75C30.9152 38.5895 31.1427 37.4402 31.5861 36.3679C32.0295 35.2955 32.6801 34.3212 33.5007 33.5006C34.3212 32.6801 35.2956 32.0295 36.3679 31.5861C37.4403 31.1427 38.5896 30.9152 39.75 30.9166C42.3559 30.9166 44.7188 32.0429 46.3088 33.8537C47.7221 35.4216 48.5834 37.4975 48.5834 39.75Z" stroke="#FF6805" stroke-width="3.3125" stroke-miterlimit="10" stroke-linecap="round" stroke-linejoin="round"/>
</svg>
