<svg width="452" height="193" viewBox="0 0 452 193" fill="none" xmlns="http://www.w3.org/2000/svg">
<rect x="73" y="122" width="55" height="326" rx="27.5" transform="rotate(-90 73 122)" fill="white"/>
<path fill-rule="evenodd" clip-rule="evenodd" d="M525.993 159.107C525.912 162.886 526 166.72 526 170.5C526 182.926 515.926 193 503.5 193L222.5 193C210.074 193 200 182.926 200 170.5C200 158.074 210.074 148 222.5 148L452 148C462.493 148 471 139.493 471 129C471 118.507 462.493 110 452 110L441.5 110C429.626 110 420 100.374 420 88.5C420 76.6259 429.626 67 441.5 67L498.479 67C498.486 67 498.493 67 498.5 67C498.507 67 498.514 67 498.521 67L504.5 67C516.374 67 526 76.6259 526 88.5C526 90.3744 525.973 92.2553 525.998 94.1296C525.999 94.2529 526 94.3763 526 94.5L526 158.5C526 158.703 525.998 158.905 525.993 159.107Z" fill="white"/>
<rect y="122" width="55" height="56" rx="27.5" transform="rotate(-90 0 122)" fill="#05F2F2"/>
<rect x="44" y="193" width="45" height="133" rx="22.5" transform="rotate(-90 44 193)" fill="#FF6805"/>
<rect x="134" y="45" width="45" height="133" rx="22.5" transform="rotate(-90 134 45)" fill="#FF6805"/>
</svg>
