<svg xmlns="http://www.w3.org/2000/svg" width="19" height="19" viewBox="0 0 19 19" fill="none">
<path d="M9.5 11.875C10.8117 11.875 11.875 10.8117 11.875 9.5C11.875 8.18832 10.8117 7.125 9.5 7.125C8.18832 7.125 7.125 8.18832 7.125 9.5C7.125 10.8117 8.18832 11.875 9.5 11.875Z" stroke="#374151" stroke-linecap="round" stroke-linejoin="round"/>
<path d="M15.3583 11.8748C15.2529 12.1136 15.2215 12.3785 15.268 12.6353C15.3146 12.8921 15.437 13.1291 15.6195 13.3157L15.667 13.3632C15.8143 13.5102 15.931 13.6848 16.0107 13.8771C16.0904 14.0693 16.1314 14.2753 16.1314 14.4834C16.1314 14.6915 16.0904 14.8975 16.0107 15.0897C15.931 15.2819 15.8143 15.4565 15.667 15.6036C15.52 15.7508 15.3454 15.8676 15.1532 15.9473C14.9609 16.0269 14.7549 16.068 14.5468 16.068C14.3388 16.068 14.1327 16.0269 13.9405 15.9473C13.7483 15.8676 13.5737 15.7508 13.4266 15.6036L13.3791 15.5561C13.1925 15.3736 12.9556 15.2511 12.6988 15.2046C12.4419 15.158 12.1771 15.1895 11.9383 15.2948C11.7041 15.3952 11.5044 15.5618 11.3638 15.7742C11.2231 15.9866 11.1476 16.2355 11.1466 16.4903V16.6248C11.1466 17.0448 10.9798 17.4475 10.6829 17.7444C10.3859 18.0414 9.98322 18.2082 9.56329 18.2082C9.14337 18.2082 8.74064 18.0414 8.44371 17.7444C8.14677 17.4475 7.97996 17.0448 7.97996 16.6248V16.5536C7.97383 16.2915 7.88901 16.0374 7.73653 15.8242C7.58405 15.611 7.37096 15.4486 7.12496 15.3582C6.88618 15.2528 6.62131 15.2214 6.36449 15.2679C6.10768 15.3145 5.8707 15.4369 5.68413 15.6194L5.63663 15.6669C5.48958 15.8141 5.31495 15.9309 5.12274 16.0106C4.93053 16.0903 4.72449 16.1313 4.51642 16.1313C4.30834 16.1313 4.10231 16.0903 3.9101 16.0106C3.71788 15.9309 3.54326 15.8141 3.39621 15.6669C3.249 15.5199 3.13221 15.3452 3.05253 15.153C2.97285 14.9608 2.93184 14.7548 2.93184 14.5467C2.93184 14.3386 2.97285 14.1326 3.05253 13.9404C3.13221 13.7482 3.249 13.5736 3.39621 13.4265L3.44371 13.379C3.62622 13.1924 3.74865 12.9554 3.79521 12.6986C3.84178 12.4418 3.81034 12.1769 3.70496 11.9382C3.60461 11.704 3.43797 11.5043 3.22558 11.3637C3.01318 11.223 2.76429 11.1475 2.50954 11.1465H2.37496C1.95503 11.1465 1.55231 10.9797 1.25537 10.6828C0.958441 10.3858 0.791626 9.9831 0.791626 9.56317C0.791626 9.14324 0.958441 8.74052 1.25537 8.44358C1.55231 8.14665 1.95503 7.97984 2.37496 7.97984H2.44621C2.70825 7.97371 2.96238 7.88889 3.17557 7.73641C3.38876 7.58393 3.55115 7.37084 3.64163 7.12484C3.74701 6.88606 3.77844 6.62118 3.73188 6.36437C3.68531 6.10756 3.56288 5.87058 3.38038 5.684L3.33288 5.6365C3.18566 5.48945 3.06888 5.31483 2.9892 5.12262C2.90952 4.9304 2.86851 4.72437 2.86851 4.5163C2.86851 4.30822 2.90952 4.10219 2.9892 3.90997C3.06888 3.71776 3.18566 3.54314 3.33288 3.39609C3.47992 3.24887 3.65455 3.13209 3.84676 3.05241C4.03898 2.97273 4.24501 2.93172 4.45308 2.93172C4.66116 2.93172 4.86719 2.97273 5.05941 3.05241C5.25162 3.13209 5.42624 3.24887 5.57329 3.39609L5.62079 3.44359C5.80737 3.6261 6.04435 3.74853 6.30116 3.79509C6.55797 3.84166 6.82285 3.81022 7.06163 3.70484H7.12496C7.35911 3.60448 7.55881 3.43785 7.69947 3.22546C7.84013 3.01306 7.91561 2.76417 7.91663 2.50942V2.37484C7.91663 1.95491 8.08344 1.55218 8.38037 1.25525C8.67731 0.958319 9.08003 0.791504 9.49996 0.791504C9.91988 0.791504 10.3226 0.958319 10.6195 1.25525C10.9165 1.55218 11.0833 1.95491 11.0833 2.37484V2.44609C11.0843 2.70083 11.1598 2.94973 11.3005 3.16212C11.4411 3.37452 11.6408 3.54115 11.875 3.6415C12.1137 3.74689 12.3786 3.77832 12.6354 3.73176C12.8922 3.68519 13.1292 3.56276 13.3158 3.38025L13.3633 3.33275C13.5103 3.18554 13.685 3.06876 13.8772 2.98908C14.0694 2.9094 14.2754 2.86838 14.4835 2.86838C14.6916 2.86838 14.8976 2.9094 15.0898 2.98908C15.282 3.06876 15.4567 3.18554 15.6037 3.33275C15.7509 3.4798 15.8677 3.65443 15.9474 3.84664C16.0271 4.03885 16.0681 4.24489 16.0681 4.45296C16.0681 4.66104 16.0271 4.86707 15.9474 5.05928C15.8677 5.2515 15.7509 5.42612 15.6037 5.57317L15.5562 5.62067C15.3737 5.80725 15.2513 6.04422 15.2047 6.30104C15.1581 6.55785 15.1896 6.82272 15.295 7.0615V7.12484C15.3953 7.35899 15.5619 7.55868 15.7743 7.69934C15.9867 7.84 16.2356 7.91549 16.4904 7.9165H16.625C17.0449 7.9165 17.4476 8.08332 17.7445 8.38025C18.0415 8.67718 18.2083 9.07991 18.2083 9.49984C18.2083 9.91976 18.0415 10.3225 17.7445 10.6194C17.4476 10.9164 17.0449 11.0832 16.625 11.0832H16.5537C16.299 11.0842 16.0501 11.1597 15.8377 11.3003C15.6253 11.441 15.4586 11.6407 15.3583 11.8748Z" stroke="#374151" stroke-linecap="round" stroke-linejoin="round"/>
</svg>
