<svg width="19" height="19" viewBox="0 0 19 19" fill="none" xmlns="http://www.w3.org/2000/svg">
<path d="M9.5 11.875C10.8117 11.875 11.875 10.8117 11.875 9.5C11.875 8.18832 10.8117 7.125 9.5 7.125C8.18832 7.125 7.125 8.18832 7.125 9.5C7.125 10.8117 8.18832 11.875 9.5 11.875Z" stroke="#1E40AF" stroke-width="0.791667" stroke-linecap="round" stroke-linejoin="round"/>
<path d="M15.3584 11.875C15.253 12.1138 15.2215 12.3786 15.2681 12.6355C15.3147 12.8923 15.4371 13.1292 15.6196 13.3158L15.6671 13.3633C15.8143 13.5104 15.9311 13.685 16.0108 13.8772C16.0905 14.0694 16.1315 14.2755 16.1315 14.4835C16.1315 14.6916 16.0905 14.8976 16.0108 15.0899C15.9311 15.2821 15.8143 15.4567 15.6671 15.6037C15.5201 15.751 15.3454 15.8677 15.1532 15.9474C14.961 16.0271 14.755 16.0681 14.5469 16.0681C14.3388 16.0681 14.1328 16.0271 13.9406 15.9474C13.7484 15.8677 13.5737 15.751 13.4267 15.6037L13.3792 15.5562C13.1926 15.3737 12.9556 15.2513 12.6988 15.2047C12.442 15.1582 12.1771 15.1896 11.9384 15.295C11.7042 15.3953 11.5045 15.562 11.3638 15.7744C11.2232 15.9868 11.1477 16.2357 11.1467 16.4904V16.625C11.1467 17.0449 10.9799 17.4476 10.6829 17.7446C10.386 18.0415 9.98328 18.2083 9.56335 18.2083C9.14343 18.2083 8.7407 18.0415 8.44377 17.7446C8.14683 17.4476 7.98002 17.0449 7.98002 16.625V16.5537C7.97389 16.2917 7.88907 16.0376 7.73659 15.8244C7.58411 15.6112 7.37102 15.4488 7.12502 15.3583C6.88624 15.2529 6.62137 15.2215 6.36455 15.2681C6.10774 15.3146 5.87077 15.4371 5.68419 15.6196L5.63669 15.6671C5.48964 15.8143 5.31501 15.9311 5.1228 16.0108C4.93059 16.0904 4.72455 16.1314 4.51648 16.1314C4.3084 16.1314 4.10237 16.0904 3.91016 16.0108C3.71794 15.9311 3.54332 15.8143 3.39627 15.6671C3.24906 15.52 3.13227 15.3454 3.05259 15.1532C2.97291 14.961 2.9319 14.7549 2.9319 14.5469C2.9319 14.3388 2.97291 14.1328 3.05259 13.9405C3.13227 13.7483 3.24906 13.5737 3.39627 13.4267L3.44377 13.3792C3.62628 13.1926 3.74871 12.9556 3.79527 12.6988C3.84184 12.442 3.8104 12.1771 3.70502 11.9383C3.60467 11.7042 3.43803 11.5045 3.22564 11.3638C3.01324 11.2232 2.76435 11.1477 2.5096 11.1467H2.37502C1.95509 11.1467 1.55237 10.9798 1.25543 10.6829C0.958502 10.386 0.791687 9.98326 0.791687 9.56333C0.791687 9.1434 0.958502 8.74068 1.25543 8.44374C1.55237 8.14681 1.95509 7.98 2.37502 7.98H2.44627C2.70831 7.97387 2.96244 7.88905 3.17563 7.73657C3.38882 7.58409 3.55121 7.371 3.64169 7.125C3.74707 6.88622 3.77851 6.62134 3.73194 6.36453C3.68538 6.10772 3.56294 5.87074 3.38044 5.68416L3.33294 5.63666C3.18572 5.48961 3.06894 5.31499 2.98926 5.12278C2.90958 4.93056 2.86857 4.72453 2.86857 4.51646C2.86857 4.30838 2.90958 4.10235 2.98926 3.91013C3.06894 3.71792 3.18572 3.5433 3.33294 3.39625C3.47999 3.24903 3.65461 3.13225 3.84682 3.05257C4.03904 2.97289 4.24507 2.93188 4.45314 2.93188C4.66122 2.93188 4.86725 2.97289 5.05947 3.05257C5.25168 3.13225 5.4263 3.24903 5.57335 3.39625L5.62085 3.44375C5.80743 3.62626 6.04441 3.74869 6.30122 3.79525C6.55803 3.84182 6.82291 3.81038 7.06169 3.705H7.12502C7.35917 3.60464 7.55887 3.43801 7.69953 3.22562C7.84019 3.01322 7.91567 2.76433 7.91669 2.50958V2.375C7.91669 1.95507 8.0835 1.55234 8.38043 1.25541C8.67737 0.958479 9.08009 0.791664 9.50002 0.791664C9.91995 0.791664 10.3227 0.958479 10.6196 1.25541C10.9165 1.55234 11.0834 1.95507 11.0834 2.375V2.44625C11.0844 2.70099 11.1599 2.94989 11.3005 3.16228C11.4412 3.37468 11.6409 3.54131 11.875 3.64166C12.1138 3.74705 12.3787 3.77848 12.6355 3.73192C12.8923 3.68535 13.1293 3.56292 13.3159 3.38041L13.3634 3.33291C13.5104 3.1857 13.685 3.06892 13.8772 2.98924C14.0695 2.90956 14.2755 2.86854 14.4836 2.86854C14.6916 2.86854 14.8977 2.90956 15.0899 2.98924C15.2821 3.06892 15.4567 3.1857 15.6038 3.33291C15.751 3.47996 15.8678 3.65459 15.9474 3.8468C16.0271 4.03901 16.0681 4.24505 16.0681 4.45312C16.0681 4.6612 16.0271 4.86723 15.9474 5.05944C15.8678 5.25166 15.751 5.42628 15.6038 5.57333L15.5563 5.62083C15.3738 5.80741 15.2513 6.04438 15.2048 6.3012C15.1582 6.55801 15.1896 6.82288 15.295 7.06166V7.125C15.3954 7.35915 15.562 7.55884 15.7744 7.6995C15.9868 7.84016 16.2357 7.91565 16.4904 7.91666H16.625C17.0449 7.91666 17.4477 8.08348 17.7446 8.38041C18.0415 8.67734 18.2084 9.08007 18.2084 9.5C18.2084 9.91992 18.0415 10.3226 17.7446 10.6196C17.4477 10.9165 17.0449 11.0833 16.625 11.0833H16.5538C16.299 11.0843 16.0501 11.1598 15.8377 11.3005C15.6253 11.4411 15.4587 11.6408 15.3584 11.875Z" stroke="#1E40AF" stroke-width="0.791667" stroke-linecap="round" stroke-linejoin="round"/>
</svg>
