<svg width="30" height="30" viewBox="0 0 30 30" fill="none" xmlns="http://www.w3.org/2000/svg">
<rect width="30" height="30" rx="8" fill="#25336F"/>
<path d="M16.3477 7.47852C17.164 7.4786 17.8262 8.14066 17.8262 8.95703C17.8259 9.7404 17.216 10.3794 16.4453 10.4297L11.001 19.3506C11.1108 19.5572 11.1738 19.7926 11.1738 20.043C11.1738 20.8592 10.5124 21.5212 9.69629 21.5215C8.8799 21.5215 8.21783 20.8593 8.21777 20.043C8.2178 19.2596 8.82709 18.6199 9.59766 18.5693L15.042 9.64844C14.9324 9.44208 14.8692 9.20693 14.8691 8.95703C14.8691 8.14068 15.5313 7.47863 16.3477 7.47852ZM21.5215 7.47852C22.3377 7.47876 23 8.14076 23 8.95703C22.9998 9.76983 22.3428 10.4281 21.5312 10.4336L16.1729 19.3477C16.2836 19.555 16.3476 19.7915 16.3477 20.043C16.3476 20.8592 15.6853 21.5213 14.8691 21.5215C14.0529 21.5213 13.3917 20.8592 13.3916 20.043C13.3916 19.2602 13.9998 18.6208 14.7695 18.5693L20.1777 9.57031C20.0922 9.38338 20.043 9.17602 20.043 8.95703C20.043 8.14061 20.7051 7.47852 21.5215 7.47852ZM9.69629 19.1982C9.22978 19.1982 8.85159 19.5765 8.85156 20.043C8.85162 20.5094 9.2298 20.8877 9.69629 20.8877C10.1625 20.8874 10.541 20.5093 10.541 20.043C10.541 19.5767 10.1625 19.1985 9.69629 19.1982ZM14.8691 19.1982C14.4028 19.1984 14.0244 19.5766 14.0244 20.043C14.0245 20.5093 14.4028 20.8875 14.8691 20.8877C15.3354 20.8875 15.7138 20.5093 15.7139 20.043C15.7138 19.5766 15.3355 19.1985 14.8691 19.1982ZM7.47852 14.8691C8.29472 14.8693 8.95589 15.5305 8.95605 16.3467C8.95605 17.163 8.29482 17.8251 7.47852 17.8252C6.66209 17.8252 6 17.1631 6 16.3467C6.00017 15.5304 6.6622 14.8691 7.47852 14.8691ZM7.47852 15.502C7.01209 15.502 6.63396 15.8803 6.63379 16.3467C6.63379 16.8132 7.01199 17.1914 7.47852 17.1914C7.94492 17.1913 8.32324 16.8131 8.32324 16.3467C8.32307 15.8804 7.94482 15.5021 7.47852 15.502ZM8.21777 10.4355C9.03392 10.4357 9.69509 11.097 9.69531 11.9131C9.69531 12.7294 9.03405 13.3914 8.21777 13.3916C7.40135 13.3916 6.73926 12.7295 6.73926 11.9131C6.73948 11.0969 7.40149 10.4355 8.21777 10.4355ZM8.21777 11.0684C7.75139 11.0684 7.37327 11.4467 7.37305 11.9131C7.37305 12.3796 7.75125 12.7578 8.21777 12.7578C8.68416 12.7576 9.0625 12.3795 9.0625 11.9131C9.06228 11.4469 8.68402 11.0685 8.21777 11.0684ZM11.9131 8.21777C12.7293 8.21802 13.3906 8.88002 13.3906 9.69629C13.3904 10.5124 12.7292 11.1736 11.9131 11.1738C11.0968 11.1738 10.4348 10.5125 10.4346 9.69629C10.4346 8.87987 11.0967 8.21777 11.9131 8.21777ZM11.9131 8.85156C11.4466 8.85156 11.0684 9.22976 11.0684 9.69629C11.0686 10.1626 11.4467 10.541 11.9131 10.541C12.3793 10.5408 12.7576 10.1625 12.7578 9.69629C12.7578 9.22992 12.3794 8.85181 11.9131 8.85156ZM16.3477 8.1123C15.8812 8.11242 15.5029 8.49057 15.5029 8.95703C15.5032 9.42328 15.8814 9.80165 16.3477 9.80176C16.814 9.80167 17.1921 9.42329 17.1924 8.95703C17.1924 8.49056 16.8141 8.11239 16.3477 8.1123ZM21.5215 8.1123C21.055 8.1123 20.6768 8.4905 20.6768 8.95703C20.677 9.42335 21.0551 9.80176 21.5215 9.80176C21.9876 9.80151 22.366 9.42319 22.3662 8.95703C22.3662 8.49066 21.9878 8.11255 21.5215 8.1123Z" fill="white"/>
</svg>
