<svg width="25" height="25" viewBox="0 0 25 25" fill="none" xmlns="http://www.w3.org/2000/svg">
<path d="M12.8926 13.2952L9.01784 17.17C7.22966 18.9581 5.30346 19.4169 4.39719 18.5116C3.49193 17.6064 3.95065 15.6791 5.73883 13.891L9.61255 10.0182" stroke="#2947F2" stroke-width="1.6934" stroke-linecap="round" stroke-linejoin="round"/>
<path d="M11.1797 7.71821L15.4821 3.41575C15.9254 2.97263 16.5264 2.72369 17.1532 2.72369C17.7799 2.72369 18.381 2.97263 18.8242 3.41575L19.4922 4.08371C19.9353 4.52692 20.1842 5.128 20.1842 5.75473C20.1842 6.38147 19.9353 6.98254 19.4922 7.42576L15.2102 11.7077" stroke="#2947F2" stroke-width="1.6934" stroke-linecap="round" stroke-linejoin="round"/>
<path d="M3.22266 19.6856L4.23535 18.672" stroke="#2947F2" stroke-width="1.6934" stroke-linecap="round" stroke-linejoin="round"/>
<path d="M11.1641 7.73315L15.1468 11.7716" stroke="#2947F2" stroke-width="1.6934" stroke-linecap="round" stroke-linejoin="round"/>
<path d="M19.8421 6.97754C20.0847 7.16467 20.2845 7.40135 20.4283 7.67181C20.5722 7.94226 20.6567 8.24027 20.6763 8.54597C20.6959 8.85167 20.6501 9.15803 20.542 9.44464C20.4339 9.73125 20.2659 9.99151 20.0492 10.2081L17.4844 12.7741" stroke="#2947F2" stroke-width="1.6934" stroke-linecap="round" stroke-linejoin="round"/>
<path opacity="0.96" d="M3.75 21.7908C5.08249 22.3447 6.48386 22.7156 7.91591 22.8934C18.7545 24.2441 17.6257 11.9694 12.6576 19.6993C9.24385 25.0191 18.9935 23.426 22.0352 19.6083" stroke="#FF6805" stroke-width="1.6934" stroke-linecap="round" stroke-linejoin="round"/>
</svg>
