<svg width="16" height="17" viewBox="0 0 16 17" fill="none" xmlns="http://www.w3.org/2000/svg">
<path fill-rule="evenodd" clip-rule="evenodd" d="M7.70701 0.810682C5.94633 1.88949 3.71762 2.6282 2.03568 2.87469C1.42501 2.9644 0.925039 3.49093 0.925782 4.13837L0.927268 4.52606C0.904981 9.2399 1.28163 13.3656 7.95663 16.1511C8.21016 16.2559 8.49207 16.2559 8.74559 16.1511C15.425 13.3656 15.8054 9.24068 15.7816 4.52606V4.13525C15.7816 3.48937 15.2817 2.95738 14.674 2.85753C13.0775 2.59466 10.75 1.86375 8.99075 0.807561C8.79513 0.689967 8.57353 0.628362 8.34811 0.62891C8.1227 0.629457 7.90212 0.692138 7.70701 0.810682ZM11.1073 7.42394C11.2467 7.27768 11.325 7.07926 11.3251 6.87233C11.3252 6.66541 11.247 6.46693 11.1077 6.32056C10.9684 6.17419 10.7794 6.09192 10.5823 6.09185C10.3852 6.09178 10.1962 6.17391 10.0568 6.32017L7.61044 8.88966L6.64986 7.88105C6.58133 7.80655 6.49935 7.74712 6.40872 7.70624C6.31808 7.66536 6.2206 7.64384 6.12195 7.64294C6.02331 7.64204 5.92549 7.66178 5.83419 7.701C5.74289 7.74022 5.65994 7.79814 5.59019 7.87138C5.52043 7.94462 5.46527 8.03172 5.42792 8.12758C5.39056 8.22345 5.37177 8.32617 5.37262 8.42974C5.37348 8.53332 5.39397 8.63567 5.43291 8.73084C5.47184 8.82601 5.52844 8.91209 5.59939 8.98404L7.0852 10.5449C7.22452 10.6912 7.41345 10.7733 7.61044 10.7733C7.80743 10.7733 7.99636 10.6912 8.13567 10.5449L11.1073 7.42394Z" fill="#175CD3"/>
</svg>
