<svg width="160" height="142" viewBox="0 0 160 142" fill="none" xmlns="http://www.w3.org/2000/svg">
<path d="M65.0079 28.4513C66.8417 28.4513 68.3283 26.9647 68.3283 25.1309C68.3283 23.2971 66.8417 21.8105 65.0079 21.8105C63.1741 21.8105 61.6875 23.2971 61.6875 25.1309C61.6875 26.9647 63.1741 28.4513 65.0079 28.4513Z" fill="#05F2F2"/>
<path d="M47.5841 54.3395C49.4179 54.3395 50.9045 52.8529 50.9045 51.0191C50.9045 49.1853 49.4179 47.6987 47.5841 47.6987C45.7503 47.6987 44.2637 49.1853 44.2637 51.0191C44.2637 52.8529 45.7503 54.3395 47.5841 54.3395Z" fill="#FF6805"/>
<path d="M32.0196 95.5578C33.8534 95.5578 35.34 94.0712 35.34 92.2374C35.34 90.4036 33.8534 88.917 32.0196 88.917C30.1858 88.917 28.6992 90.4036 28.6992 92.2374C28.6992 94.0712 30.1858 95.5578 32.0196 95.5578Z" fill="#05F2F2"/>
<path d="M126.608 95.5578C128.441 95.5578 129.928 94.0712 129.928 92.2374C129.928 90.4036 128.441 88.917 126.608 88.917C124.774 88.917 123.287 90.4036 123.287 92.2374C123.287 94.0712 124.774 95.5578 126.608 95.5578Z" fill="#05F2F2"/>
<path d="M33.1589 47.8373C34.3631 47.8373 35.3393 46.8611 35.3393 45.6569C35.3393 44.4527 34.3631 43.4766 33.1589 43.4766C31.9547 43.4766 30.9785 44.4527 30.9785 45.6569C30.9785 46.8611 31.9547 47.8373 33.1589 47.8373Z" fill="#05F2F2"/>
<path d="M102.522 26.5951C103.329 26.5951 103.984 25.9407 103.984 25.1335C103.984 24.3263 103.329 23.6719 102.522 23.6719C101.715 23.6719 101.061 24.3263 101.061 25.1335C101.061 25.9407 101.715 26.5951 102.522 26.5951Z" fill="#2947F2"/>
<path d="M35.3376 115.573C36.5418 115.573 37.518 114.597 37.518 113.393C37.518 112.189 36.5418 111.212 35.3376 111.212C34.1334 111.212 33.1572 112.189 33.1572 113.393C33.1572 114.597 34.1334 115.573 35.3376 115.573Z" fill="#FF6805"/>
<path d="M116.456 99.913C117.66 99.913 118.636 98.9368 118.636 97.7326C118.636 96.5284 117.66 95.5522 116.456 95.5522C115.252 95.5522 114.275 96.5284 114.275 97.7326C114.275 98.9368 115.252 99.913 116.456 99.913Z" fill="#FF6805"/>
<path d="M96.4102 44.3185C98.244 44.3185 99.7306 42.8319 99.7306 40.9981C99.7306 39.1643 98.244 37.6777 96.4102 37.6777C94.5764 37.6777 93.0898 39.1643 93.0898 40.9981C93.0898 42.8319 94.5764 44.3185 96.4102 44.3185Z" fill="#05F2F2"/>
<ellipse cx="80.1973" cy="128.279" rx="79.6914" ry="11.3046" fill="#F5F7FA"/>
<path d="M77.6489 32.9692C78.8228 31.0813 81.5705 31.0813 82.7443 32.9692L98.351 58.0704C98.764 58.7346 99.4202 59.2113 100.18 59.3988L128.875 66.485C131.033 67.018 131.882 69.6312 130.449 71.331L111.4 93.9305C110.895 94.5286 110.645 95.2999 110.701 96.0801L112.829 125.561C112.989 127.778 110.766 129.393 108.707 128.556L81.3267 117.422C80.6021 117.127 79.7911 117.127 79.0666 117.422L51.6864 128.556C49.6271 129.393 47.4041 127.778 47.5641 125.561L49.6921 96.0801C49.7484 95.2999 49.4978 94.5286 48.9937 93.9306L29.9438 71.331C28.511 69.6312 29.3601 67.018 31.5184 66.485L60.2138 59.3988C60.9731 59.2113 61.6292 58.7346 62.0422 58.0704L77.6489 32.9692Z" fill="url(#paint0_linear_437_8088)"/>
<path d="M68.8489 86.6668L76.1336 94.0414L91.545 75.9468" stroke="white" stroke-width="4" stroke-linecap="round" stroke-linejoin="round"/>
<path d="M27.5079 21.1612C27.5079 21.1612 36.937 20.5518 37.5465 29.981C38.1559 39.4101 47.5851 38.8007 47.5851 38.8007" stroke="#FF6805" stroke-width="4" stroke-linecap="round" stroke-linejoin="round"/>
<path d="M128.731 36.5343C128.731 36.5343 119.302 35.9249 118.693 45.354C118.083 54.7832 108.654 54.1738 108.654 54.1738" stroke="#FF6805" stroke-width="4" stroke-linecap="round" stroke-linejoin="round"/>
<path d="M111.371 34.0747C111.371 34.0747 108.396 34.8344 109.156 37.8089C109.916 40.7834 106.941 41.5432 106.941 41.5432" stroke="#2947F2" stroke-width="2.6" stroke-linecap="round" stroke-linejoin="round"/>
<path d="M115.545 106.667C115.545 106.667 115.522 109.056 117.91 109.079C120.299 109.102 120.276 111.491 120.276 111.491" fill="#05F2F2"/>
<path d="M115.545 106.667C115.545 106.667 115.522 109.056 117.91 109.079C120.299 109.102 120.276 111.491 120.276 111.491" stroke="url(#paint1_linear_437_8088)" stroke-width="1.8" stroke-linecap="round" stroke-linejoin="round"/>
<path d="M35.3887 100.919C35.3887 100.919 35.3653 103.308 37.754 103.331C40.1428 103.355 40.1194 105.744 40.1194 105.744" stroke="#2947F2" stroke-width="1.8" stroke-linecap="round" stroke-linejoin="round"/>
<path d="M56.4059 34.9324C56.4059 34.9324 59.0472 36.4972 57.4824 39.1385C55.9176 41.7797 58.5589 43.3445 58.5589 43.3445" stroke="#2947F2" stroke-width="2.6" stroke-linecap="round" stroke-linejoin="round"/>
<path d="M93.7473 2.94321C93.7473 2.94321 85.2448 4.27483 86.5764 12.7774C87.908 21.28 79.4054 22.6116 79.4054 22.6116" stroke="#FF6805" stroke-width="4" stroke-linecap="round" stroke-linejoin="round"/>
<defs>
<linearGradient id="paint0_linear_437_8088" x1="119.455" y1="28.8716" x2="96.3291" y2="153.341" gradientUnits="userSpaceOnUse">
<stop stop-color="#2947F2"/>
<stop offset="1" stop-color="#2320E6"/>
</linearGradient>
<linearGradient id="paint1_linear_437_8088" x1="115.607" y1="111.086" x2="120.998" y2="109.13" gradientUnits="userSpaceOnUse">
<stop stop-color="#15F3FF"/>
<stop offset="1" stop-color="#05F2F2"/>
</linearGradient>
</defs>
</svg>
