<svg width="22" height="22" viewBox="0 0 22 22" fill="none" xmlns="http://www.w3.org/2000/svg">
<path d="M22 11C22 17.0751 17.0751 22 11 22C4.92487 22 0 17.0751 0 11C0 4.92487 4.92487 0 11 0C17.0751 0 22 4.92487 22 11Z" fill="#22C55E"/>
<path d="M8.53909 14.7987L8.5391 14.7987C8.92311 15.2004 9.5475 15.2004 9.93147 14.7987L15.8138 8.64486C16.1954 8.24576 16.1954 7.6004 15.8138 7.20126C15.4299 6.79958 14.8055 6.79958 14.4215 7.20126L14.4927 7.26936L14.4215 7.20126L11.7922 9.95183L11.8609 10.0175L11.7922 9.95183L9.2353 12.6267L7.57856 10.8936C7.1946 10.4919 6.57011 10.4919 6.18614 10.8936C5.80462 11.2928 5.80462 11.938 6.18614 12.3372L6.25104 12.2751L6.18615 12.3372L8.53909 14.7987Z" fill="white" stroke="white" stroke-width="0.2"/>
</svg>
