<svg width="44" height="44" viewBox="0 0 44 44" fill="none" xmlns="http://www.w3.org/2000/svg">
<path d="M36.3553 26.3818L35.0353 36.8868C34.9812 37.334 34.7645 37.7456 34.4263 38.0432C34.0882 38.3408 33.6524 38.5034 33.202 38.5002H10.7803C10.3299 38.5034 9.89403 38.3408 9.55589 38.0432C9.21776 37.7456 9.00099 37.334 8.94695 36.8868L7.62695 26.3818" stroke="#01031C" stroke-width="3" stroke-linecap="round" stroke-linejoin="round"/>
<path d="M20.1662 22H23.8329M37.2529 26.0883L28.9479 28.8567C24.4373 30.3581 19.5618 30.3581 15.0512 28.8567L6.74623 26.0883C6.36677 25.9608 6.03948 25.7125 5.81437 25.3815C5.58926 25.0504 5.4787 24.6548 5.49956 24.255V12.8333H38.4996V24.3467C38.5006 24.731 38.3807 25.1059 38.157 25.4185C37.9333 25.731 37.617 25.9653 37.2529 26.0883ZM31.1662 11C31.1662 9.54131 30.5868 8.14236 29.5553 7.11091C28.5239 6.07946 27.1249 5.5 25.6662 5.5H18.3329C16.8742 5.5 15.4753 6.07946 14.4438 7.11091C13.4124 8.14236 12.8329 9.54131 12.8329 11V12.8333H31.1662V11Z" stroke="#01031C" stroke-width="3" stroke-linecap="round" stroke-linejoin="round"/>
</svg>
