<svg width="24" height="23" viewBox="0 0 24 23" fill="none" xmlns="http://www.w3.org/2000/svg">
<path d="M2 8H23" stroke="#6F6F7B" stroke-width="2" stroke-miterlimit="10" stroke-linecap="round" stroke-linejoin="round"/>
<path d="M2 15H23" stroke="#6F6F7B" stroke-width="2" stroke-miterlimit="10" stroke-linecap="round" stroke-linejoin="round"/>
<path d="M6.18214 1H3.07411C2.49277 1.0376 1.94832 1.33505 1.56011 1.82713C1.17191 2.31921 0.971651 2.96575 1.00324 3.625V19.375C0.971651 20.0342 1.17191 20.6808 1.56011 21.1729C1.94832 21.665 2.49277 21.9624 3.07411 22H20.9259C21.5072 21.9624 22.0517 21.665 22.4399 21.1729C22.8281 20.6808 23.0283 20.0342 22.9968 19.375V3.625C23.0283 2.96575 22.8281 2.31921 22.4399 1.82713C22.0517 1.33505 21.5072 1.0376 20.9259 1H19.5241" stroke="#6F6F7B" stroke-width="2" stroke-miterlimit="10" stroke-linecap="round" stroke-linejoin="round"/>
<path d="M5 1L20 1" stroke="#6F6F7B" stroke-width="2" stroke-miterlimit="10" stroke-linecap="round" stroke-linejoin="round"/>
</svg>
