<svg width="16" height="16" viewBox="0 0 16 16" fill="none" xmlns="http://www.w3.org/2000/svg">
<path opacity="0.9" d="M16 8C16 12.4182 12.4182 16 8 16C3.58172 16 0 12.4182 0 8C0 3.58172 3.58172 0 8 0C12.4182 0 16 3.58172 16 8Z" fill="#15803D"/>
<path d="M11.0347 5.70079C11.2552 5.91708 11.2552 6.26776 11.0347 6.48403L7.26996 10.1764C7.04942 10.3926 6.69192 10.3926 6.47136 10.1764L4.20138 8.13435C3.98085 7.91805 3.98085 7.56743 4.20138 7.35113C4.42191 7.13484 4.77947 7.13484 5 7.35113L6.87067 9.00145L8.55335 7.35113L10.2361 5.70079C10.4566 5.4845 10.8141 5.4845 11.0347 5.70079Z" fill="white"/>
</svg>
