<svg width="15" height="16" viewBox="0 0 15 16" fill="none" xmlns="http://www.w3.org/2000/svg">
<path id="Vector" fill-rule="evenodd" clip-rule="evenodd" d="M0.124649 8.00021C0.124649 4.10661 3.28103 0.950226 7.17464 0.950226C11.0682 0.950226 14.2246 4.10661 14.2246 8.00021C14.2246 11.8938 11.0682 15.0502 7.17464 15.0502C3.28103 15.0502 0.124649 11.8938 0.124649 8.00021ZM9.78814 6.0917C10.0634 6.36703 10.0634 6.81342 9.78814 7.08872L7.19177 9.68509C6.79295 10.0839 6.14633 10.0839 5.74749 9.68509L4.56113 8.49872C4.28581 8.22342 4.28581 7.77701 4.56113 7.50171C4.83645 7.22641 5.28283 7.22641 5.55815 7.50171L6.46964 8.4132L8.79113 6.0917C9.06643 5.81639 9.51284 5.81639 9.78814 6.0917Z" fill="#2947F2"/>
</svg>
