<svg width="12" height="12" viewBox="0 0 12 12" fill="none" xmlns="http://www.w3.org/2000/svg">
<path d="M11.3252 9.73975C11.7822 10.1616 11.7822 10.8999 11.3252 11.3218C11.1143 11.5327 10.833 11.6382 10.5518 11.6382C10.2354 11.6382 9.9541 11.5327 9.74316 11.3218L6.05176 7.63037L2.3252 11.3218C2.11426 11.5327 1.83301 11.6382 1.55176 11.6382C1.23535 11.6382 0.954102 11.5327 0.743164 11.3218C0.286133 10.8999 0.286133 10.1616 0.743164 9.73975L4.43457 6.01318L0.743164 2.32178C0.286133 1.8999 0.286133 1.16162 0.743164 0.739746C1.16504 0.282715 1.90332 0.282715 2.3252 0.739746L6.05176 4.43115L9.74316 0.739746C10.165 0.282715 10.9033 0.282715 11.3252 0.739746C11.7822 1.16162 11.7822 1.8999 11.3252 2.32178L7.63379 6.04834L11.3252 9.73975Z" fill="white"/>
</svg>
