<svg width="17" height="16" viewBox="0 0 17 16" fill="none" xmlns="http://www.w3.org/2000/svg">
<path d="M1.28809 8C1.28809 3.85786 4.64589 0.5 8.78809 0.5C12.9302 0.5 16.2881 3.85786 16.2881 8C16.2881 12.1421 12.9302 15.5 8.78809 15.5C4.64589 15.5 1.28809 12.1421 1.28809 8Z" fill="#586D8E" stroke="#586D8E"/>
<path d="M9.5683 10.2666H8.10449V11.6774H9.5683V10.2666Z" fill="white"/>
<path d="M10.3523 4.88024C10.1471 4.6999 9.90841 4.56193 9.63631 4.46637C9.36397 4.37102 9.07944 4.32324 8.78237 4.32324C8.47109 4.32324 8.18125 4.37293 7.91256 4.47174C7.64366 4.57084 7.40859 4.71043 7.20706 4.8908C7.00553 5.07118 6.84647 5.29393 6.72981 5.55905C6.61306 5.82424 6.55469 6.11959 6.55469 6.44468H7.93378C7.93378 6.19734 8.00434 5.98865 8.14581 5.8188C8.28719 5.64924 8.49937 5.56449 8.78234 5.56449C9.05103 5.56449 9.26134 5.64765 9.4135 5.81368C9.5655 5.97999 9.64153 6.18687 9.64153 6.43418C9.64153 6.55462 9.61137 6.67474 9.55131 6.7949C9.49125 6.91534 9.41875 7.03196 9.33384 7.1448L8.66947 7.9958C8.528 8.17968 8.14578 8.71168 8.14578 9.25568V9.57402H9.52481V9.35127C9.52481 9.25946 9.54237 9.1639 9.57791 9.06477C9.61312 8.96596 9.77956 8.72402 9.83628 8.65327L10.5008 7.77068C10.6493 7.57277 10.7728 7.36946 10.8721 7.16074C10.971 6.9523 11.0206 6.71362 11.0206 6.44471C11.0206 6.10534 10.9604 5.80477 10.8402 5.54315C10.7199 5.28149 10.5573 5.06034 10.3523 4.88024Z" fill="white"/>
</svg>
