<svg width="14" height="17" viewBox="0 0 14 17" fill="none" xmlns="http://www.w3.org/2000/svg">
<path d="M7.1114 8.63209C6.12393 8.63209 5.32422 7.97819 5.32422 7.17231C5.32422 6.36642 6.12393 5.71252 7.1114 5.71252C8.09886 5.71252 8.89863 6.36542 8.89863 7.17231" stroke="#FF6805" stroke-linecap="round" stroke-linejoin="round"/>
<path d="M7.1114 8.63184C8.09785 8.63184 8.89863 9.28473 8.89863 10.0916C8.89863 10.8985 8.09785 11.5493 7.1114 11.5493C6.125 11.5493 5.32422 10.8954 5.32422 10.0895" stroke="#FF6805" stroke-linecap="round" stroke-linejoin="round"/>
<path d="M7.11328 4.92896V12.3329" stroke="#FF6805" stroke-linecap="round" stroke-linejoin="round"/>
<path d="M2.59022 1.13875L1.68352 2.04545C1.49598 2.23298 1.39062 2.48734 1.39062 2.75255V14.5092C1.39062 14.7744 1.49598 15.0287 1.68352 15.2163L2.59022 16.123C2.98074 16.5135 3.61391 16.5135 4.00443 16.123L4.49692 15.6305C4.88744 15.2399 5.52061 15.2399 5.91113 15.6305L6.40362 16.123C6.79414 16.5135 7.42731 16.5135 7.81783 16.123L8.31032 15.6305C8.70084 15.2399 9.33401 15.2399 9.72453 15.6305L10.217 16.123C10.6075 16.5135 11.2407 16.5135 11.6312 16.123L12.5379 15.2163C12.7255 15.0287 12.8308 14.7744 12.8308 14.5092V2.75255C12.8308 2.48734 12.7255 2.23298 12.5379 2.04545L11.6312 1.13875C11.2407 0.748223 10.6075 0.748223 10.217 1.13875L9.72453 1.63123C9.33401 2.02176 8.70084 2.02176 8.31032 1.63123L7.81783 1.13875C7.42731 0.748223 6.79414 0.748223 6.40362 1.13875L5.91113 1.63123C5.52061 2.02176 4.88744 2.02176 4.49692 1.63123L4.00443 1.13875C3.61391 0.748223 2.98074 0.748223 2.59022 1.13875Z" stroke="#2947F2" stroke-linecap="round" stroke-linejoin="round"/>
</svg>
