<svg width="22" height="22" viewBox="0 0 22 22" fill="none" xmlns="http://www.w3.org/2000/svg">
<path d="M11.1397 10.8066C9.5522 10.8066 8.26318 9.75502 8.26318 8.45722C8.26318 7.15942 9.5522 6.10791 11.1397 6.10791C12.7272 6.10791 14.0162 7.15942 14.0162 8.45722" stroke="#FF6805" stroke-linecap="round" stroke-linejoin="round"/>
<path d="M11.1397 10.8062C12.7272 10.8062 14.0162 11.8577 14.0162 13.1555C14.0162 14.4533 12.7272 15.5019 11.1397 15.5019C9.5522 15.5019 8.26318 14.4504 8.26318 13.1555" stroke="#FF6805" stroke-linecap="round" stroke-linejoin="round"/>
<path d="M11.1396 4.84766V16.7623" stroke="#FF6805" stroke-linecap="round" stroke-linejoin="round"/>
<path d="M10.9993 21.4365C16.7636 21.4365 21.4365 16.7636 21.4365 10.9993C21.4365 5.23493 16.7636 0.562012 10.9993 0.562012C5.23483 0.562012 0.562012 5.23493 0.562012 10.9993C0.562012 16.7636 5.23483 21.4365 10.9993 21.4365Z" stroke="#2947F2" stroke-linecap="round" stroke-linejoin="round"/>
</svg>
