<svg width="17" height="19" viewBox="0 0 17 19" fill="none" xmlns="http://www.w3.org/2000/svg">
<path d="M5.71484 0.697266C5.89062 0.310547 6.27734 0.0644531 6.69922 0.0644531H10.9531C11.375 0.0644531 11.7617 0.310547 11.9375 0.697266L12.2188 1.18945H15.5938C16.1914 1.18945 16.7188 1.7168 16.7188 2.31445C16.7188 2.94727 16.1914 3.43945 15.5938 3.43945H2.09375C1.46094 3.43945 0.96875 2.94727 0.96875 2.31445C0.96875 1.7168 1.46094 1.18945 2.09375 1.18945H5.46875L5.71484 0.697266ZM14.8203 16.4824C14.7852 17.3965 14.0469 18.0645 13.1328 18.0645H4.51953C3.60547 18.0645 2.86719 17.3965 2.83203 16.4824L2.05859 4.56445H15.5938L14.8203 16.4824Z" fill="#DC2626"/>
</svg>
