<svg width="16" height="19" viewBox="0 0 16 19" fill="none" xmlns="http://www.w3.org/2000/svg">
<path d="M4.74609 1.18115C4.92188 0.794434 5.30859 0.54834 5.73047 0.54834H9.98438C10.4062 0.54834 10.793 0.794434 10.9688 1.18115L11.25 1.67334H14.625C15.2227 1.67334 15.75 2.20068 15.75 2.79834C15.75 3.43115 15.2227 3.92334 14.625 3.92334H1.125C0.492188 3.92334 0 3.43115 0 2.79834C0 2.20068 0.492188 1.67334 1.125 1.67334H4.5L4.74609 1.18115ZM13.8516 16.9663C13.8164 17.8804 13.0781 18.5483 12.1641 18.5483H3.55078C2.63672 18.5483 1.89844 17.8804 1.86328 16.9663L1.08984 5.04834H14.625L13.8516 16.9663Z" fill="#9CA3AF"/>
</svg>
