<svg width="38" height="38" viewBox="0 0 38 38" fill="none" xmlns="http://www.w3.org/2000/svg">
<path d="M11.0008 21.4998C11.0008 21.765 11.1062 22.0194 11.2937 22.2069C11.4813 22.3945 11.7356 22.4998 12.0008 22.4998L23.5908 22.4998L21.2908 24.7898C21.1025 24.9781 20.9967 25.2335 20.9967 25.4998C20.9967 25.7661 21.1025 26.0215 21.2908 26.2098C21.4791 26.3981 21.7345 26.5039 22.0008 26.5039C22.2671 26.5039 22.5225 26.3981 22.7108 26.2098L26.7108 22.2098C26.8496 22.0692 26.9436 21.8906 26.981 21.6966C27.0183 21.5026 26.9974 21.3019 26.9208 21.1198C26.8458 20.9372 26.7184 20.7809 26.5547 20.6705C26.391 20.5602 26.1983 20.5008 26.0008 20.4998L12.0008 20.4998C11.7356 20.4998 11.4813 20.6052 11.2937 20.7927C11.1062 20.9802 11.0008 21.2346 11.0008 21.4998Z" fill="#949494"/>
<path d="M11.4452 17.3293C11.2814 17.2189 11.154 17.0626 11.079 16.88C11.0024 16.6979 10.9815 16.4972 11.0189 16.3032C11.0563 16.1092 11.1503 15.9306 11.289 15.79L15.289 11.79C15.382 11.6963 15.4926 11.6219 15.6144 11.5711C15.7363 11.5203 15.867 11.4942 15.999 11.4942C16.131 11.4942 16.2617 11.5203 16.3836 11.5711C16.5055 11.6219 16.6161 11.6963 16.709 11.79C16.8028 11.883 16.8771 11.9936 16.9279 12.1154C16.9787 12.2373 17.0048 12.368 17.0048 12.5C17.0048 12.632 16.9787 12.7627 16.9279 12.8846C16.8771 13.0064 16.8028 13.117 16.709 13.21L14.409 15.5L25.999 15.5C26.2642 15.5 26.5186 15.6054 26.7061 15.7929C26.8937 15.9804 26.999 16.2348 26.999 16.5C26.999 16.7652 26.8937 17.0196 26.7061 17.2071C26.5186 17.3946 26.2642 17.5 25.999 17.5L11.999 17.5C11.8016 17.499 11.6089 17.4396 11.4452 17.3293Z" fill="#949494"/>
</svg>
