<svg width="29" height="29" viewBox="0 0 29 29" fill="none" xmlns="http://www.w3.org/2000/svg">
<path d="M14.3516 28.2812C22.0835 28.2812 28.3516 22.0132 28.3516 14.2812C28.3516 6.54926 22.0835 0.28125 14.3516 0.28125C6.61958 0.28125 0.351562 6.54926 0.351562 14.2812C0.351562 22.0132 6.61958 28.2812 14.3516 28.2812Z" fill="#FCD66D"/>
<path d="M14.3511 25.2452C20.4045 25.2452 25.3116 20.3381 25.3116 14.2847C25.3116 8.2314 20.4045 3.32422 14.3511 3.32422C8.29781 3.32422 3.39062 8.2314 3.39062 14.2847C3.39062 20.3381 8.29781 25.2452 14.3511 25.2452Z" fill="#FFECAE"/>
<path d="M14.8951 13.6497L15.2232 12.4775L15.2214 12.4793H13.0502C13.2616 10.8367 13.8086 10.0364 14.7183 10.0364C15.1813 10.0364 15.5459 10.2041 15.8358 10.5487C16.1348 10.906 16.3171 11.4165 16.379 12.0655L16.3973 12.2569H18.1875L18.1583 12.0199C18.0216 10.9352 17.657 10.0838 17.0736 9.48769C16.4811 8.88244 15.6899 8.57617 14.7201 8.57617C12.7403 8.57617 11.5772 9.88876 11.2599 12.4775H10.5234V13.6497H11.1724C11.167 13.7718 11.167 13.925 11.167 14.1109V14.1109C11.167 14.3096 11.1688 14.4719 11.1724 14.6013H10.5234V15.7735H11.2618C11.5917 18.3258 12.6582 19.6201 14.7201 19.6201C16.7819 19.6201 17.9396 18.3951 18.1602 15.9814L18.182 15.7517H16.4009L16.3827 15.9431C16.2387 17.4361 15.6954 18.1617 14.7219 18.1617C13.8122 18.1617 13.2653 17.3796 13.0538 15.7735H14.2643L14.5925 14.6013H12.9608C12.9554 14.4719 12.9554 14.3096 12.9554 14.1109V14.1109C12.9554 13.925 12.9572 13.77 12.9608 13.6497H14.8951Z" fill="#ECC251"/>
<path fill-rule="evenodd" clip-rule="evenodd" d="M14.6406 26.8186C14.5555 27.6662 13.7994 28.2843 12.9518 28.1992C9.72017 27.8748 6.70187 26.4367 4.41399 24.1314C2.1261 21.8261 0.711008 18.7969 0.411117 15.5629C0.332462 14.7147 0.95631 13.9633 1.80452 13.8846C2.65273 13.806 3.4041 14.4298 3.48276 15.278C3.71657 17.7994 4.81983 20.1611 6.60355 21.9584C8.38727 23.7557 10.7405 24.8769 13.26 25.1298C14.1076 25.2149 14.7257 25.971 14.6406 26.8186Z" fill="#EFC356"/>
<path fill-rule="evenodd" clip-rule="evenodd" d="M15.2481 1.75049C15.4127 0.914697 16.2237 0.370606 17.0595 0.535228C20.2416 1.16199 23.1074 2.87418 25.1672 5.3793C27.227 7.88442 28.3531 11.027 28.3531 14.2702C28.3531 15.1221 27.6626 15.8127 26.8107 15.8127C25.9589 15.8127 25.2683 15.1221 25.2683 14.2702C25.2683 11.7417 24.3903 9.29161 22.7844 7.33852C21.1785 5.38543 18.9443 4.05054 16.4634 3.5619C15.6276 3.39727 15.0835 2.58628 15.2481 1.75049Z" fill="#FFE593"/>
</svg>
