<svg width="51" height="52" viewBox="0 0 51 52" fill="none" xmlns="http://www.w3.org/2000/svg">
<rect y="0.5" width="51" height="51" rx="25.5" fill="white"/>
<path opacity="0.5" d="M17 26.499C17.1015 26.3788 17.2135 26.2666 17.335 26.1638C18.1646 25.4622 19.5054 25.4622 22.1872 25.4622H28.812C31.4937 25.4622 32.8346 25.4622 33.6642 26.1638C33.786 26.2669 33.8983 26.3794 34 26.5V23.8965C34 23.0297 34 22.3106 33.9188 21.7372C33.833 21.1321 33.6461 20.5957 33.1992 20.1549C33.1263 20.083 33.0494 20.0148 32.9688 19.9505C32.4813 19.5615 31.897 19.4025 31.2355 19.3287C30.5982 19.2576 29.7954 19.2576 28.8112 19.2576H28.4753C27.5398 19.2576 27.2045 19.2522 26.9007 19.1754C26.7223 19.1303 26.5511 19.0673 26.3903 18.9879C26.1196 18.8543 25.8837 18.653 25.2212 18.0653L24.7696 17.6647C24.58 17.4965 24.4506 17.3817 24.312 17.2797C23.717 16.8422 22.9925 16.5776 22.234 16.5146C22.0574 16.5 21.8772 16.5 21.6074 16.5L21.4965 16.5C20.8863 16.4999 20.4836 16.4998 20.1339 16.5584C18.6054 16.8142 17.3693 17.8842 17.0682 19.2998C16.9997 19.6218 16.9999 19.9908 17 20.5231L17 26.499Z" fill="#1C274C"/>
<path fill-rule="evenodd" clip-rule="evenodd" d="M17.3202 27.6725C16.7743 28.4716 16.9996 29.5827 17.4503 31.805C17.7747 33.4047 17.9369 34.2045 18.4989 34.7353C18.6447 34.8731 18.8079 34.9952 18.9851 35.0992C19.6681 35.5 20.5748 35.5 22.3883 35.5H28.6116C30.4252 35.5 31.332 35.5 32.0149 35.0992C32.1922 34.9952 32.3553 34.8731 32.5011 34.7353C33.0631 34.2045 33.2253 33.4047 33.5498 31.805C34.0004 29.5827 34.2257 28.4716 33.6798 27.6725C33.5405 27.4685 33.3686 27.2839 33.1698 27.1245C32.3905 26.5 31.1308 26.5 28.6116 26.5H22.3883C19.8691 26.5 18.6095 26.5 17.8302 27.1245C17.6314 27.2839 17.4596 27.4685 17.3202 27.6725ZM22.9904 31.4091C22.9904 31.0702 23.2968 30.7954 23.6748 30.7954H27.3251C27.703 30.7954 28.0095 31.0702 28.0095 31.4091C28.0095 31.7479 27.703 32.0227 27.3251 32.0227H23.6748C23.2968 32.0227 22.9904 31.7479 22.9904 31.4091Z" fill="#1C274C"/>
</svg>
