<svg width="24" height="25" viewBox="0 0 24 25" fill="none" xmlns="http://www.w3.org/2000/svg">
<path d="M11.9951 12.6675C10.7676 12.6675 9.77344 11.8546 9.77344 10.8529C9.77344 9.85107 10.7676 9.03821 11.9951 9.03821C13.2226 9.03821 14.2168 9.84981 14.2168 10.8529" stroke="#FF6805" stroke-width="1.5" stroke-linecap="round" stroke-linejoin="round"/>
<path d="M11.9951 12.6671C13.2213 12.6671 14.2168 13.4787 14.2168 14.4818C14.2168 15.4848 13.2213 16.2938 11.9951 16.2938C10.7689 16.2938 9.77344 15.481 9.77344 14.4792" stroke="#FF6805" stroke-width="1.5" stroke-linecap="round" stroke-linejoin="round"/>
<path d="M11.9961 8.06409V17.2679" stroke="#FF6805" stroke-width="1.5" stroke-linecap="round" stroke-linejoin="round"/>
<path d="M7.25692 2.47363L4.88672 4.84384V20.4882L7.25692 22.8584L9.62713 20.4882L11.9973 22.8584L14.3675 20.4882L16.7377 22.8584L19.1079 20.4882V4.84384L16.7377 2.47363L14.3675 4.84384L11.9973 2.47363L9.62713 4.84384L7.25692 2.47363Z" stroke="#2947F2" stroke-width="1.69" stroke-linecap="round" stroke-linejoin="round"/>
</svg>
