<svg width="51" height="50" viewBox="0 0 51 50" fill="none" xmlns="http://www.w3.org/2000/svg">
<g id="Group 240535">
<path id="Vector" opacity="0.5" fill-rule="evenodd" clip-rule="evenodd" d="M30.5 50H20.5C11.0719 50 6.35787 50 3.42893 47.071C0.5 44.1423 0.5 39.428 0.5 30V20C0.5 10.5719 0.5 5.85787 3.42893 2.92893C6.35787 2.98023e-07 11.0967 0 20.5745 0C22.0895 0 23.3035 -6.0536e-08 24.325 0.0416499C24.2915 0.241475 24.2738 0.445325 24.273 0.651425L24.25 7.73743C24.2498 10.4802 24.2495 12.9041 24.5123 14.8579C24.797 16.9757 25.4508 19.0931 27.179 20.8212C28.907 22.5495 31.0245 23.2032 33.1423 23.488C35.0962 23.7507 37.52 23.7505 40.2627 23.7502H40.5H50.3935C50.5 25.086 50.5 26.7252 50.5 28.9072V30C50.5 39.428 50.5 44.1423 47.571 47.071C44.6423 50 39.928 50 30.5 50Z" fill="#1C274C"/>
<path id="Vector_2" d="M21.9015 33.7457C22.5895 32.9717 22.5197 31.7865 21.7457 31.0987C20.9717 30.4107 19.7866 30.4802 19.0986 31.2542L13.8334 37.1777L11.9014 35.0042C11.2135 34.2302 10.0283 34.1607 9.25435 34.8487C8.48038 35.5365 8.41065 36.7217 9.09862 37.4957L12.432 41.2457C12.7878 41.646 13.2978 41.875 13.8334 41.875C14.3689 41.875 14.8789 41.646 15.2348 41.2457L21.9015 33.7457Z" fill="#1C274C"/>
<path id="Vector_3" d="M24.273 0.650248L24.25 7.73625C24.2498 10.479 24.2495 12.9029 24.5123 14.8567C24.797 16.9745 25.4508 19.092 27.179 20.8202C28.9073 22.5482 31.0245 23.202 33.1425 23.4867C35.0963 23.7495 37.52 23.7492 40.2628 23.749H50.3935C50.4245 24.138 50.4465 24.5525 50.462 24.9987H50.5C50.5 24.33 50.5 23.9957 50.4753 23.602C50.3338 21.3657 49.4043 18.8031 48.0788 16.9963C47.8455 16.6782 47.6858 16.4873 47.3668 16.1054C45.3855 13.734 42.7775 10.7798 40.5 8.74882C38.473 6.94112 35.6968 4.9634 33.2753 3.34625C31.1953 1.95687 30.155 1.26217 28.7288 0.745848C28.3508 0.608973 27.852 0.457773 27.4615 0.361648C26.5015 0.125323 25.567 0.0431234 24.25 0.0146484L24.273 0.650248Z" fill="#1C274C"/>
</g>
</svg>
