<svg width="29" height="29" viewBox="0 0 29 29" fill="none" xmlns="http://www.w3.org/2000/svg">
<path d="M14.4531 28.4434C22.1851 28.4434 28.4531 22.1753 28.4531 14.4434C28.4531 6.71137 22.1851 0.443359 14.4531 0.443359C6.72114 0.443359 0.453125 6.71137 0.453125 14.4434C0.453125 22.1753 6.72114 28.4434 14.4531 28.4434Z" fill="#6D82FC"/>
<path d="M14.4527 25.4074C20.506 25.4074 25.4132 20.5002 25.4132 14.4468C25.4132 8.39351 20.506 3.48633 14.4527 3.48633C8.39937 3.48633 3.49219 8.39351 3.49219 14.4468C3.49219 20.5002 8.39937 25.4074 14.4527 25.4074Z" fill="#AEBAFF"/>
<path d="M15.0981 19.8748C16.0123 19.7836 16.7477 19.4261 17.2839 18.8117V18.808C17.8555 18.1526 18.1459 17.3409 18.1459 16.4881C18.1459 15.6354 17.9132 14.9484 17.4533 14.4439C17.0139 13.9635 16.2431 13.606 15.0981 13.3528V10.1896C15.6995 10.346 16.0104 10.7537 16.07 11.4556L16.0867 11.653H17.9188L17.8946 11.4147C17.7233 9.76508 16.7831 8.83416 15.0981 8.64426V7.52344H13.9009V8.64798C13.0575 8.75969 12.3687 9.07248 11.8511 9.58262C11.2888 10.1374 11.0039 10.8766 11.0039 11.7759C11.0039 13.3379 11.9777 14.347 13.9009 14.7771V18.3332C13.1134 18.1135 12.687 17.5196 12.5995 16.5291L12.5828 16.3317H10.7656L10.7824 16.5626C10.9183 18.4896 11.9684 19.6048 13.9009 19.8785V20.9993H15.0981V19.8748Z" fill="#5168EC"/>
<path d="M15.0956 15.0645V18.3506C15.9278 18.1663 16.317 17.5965 16.317 16.5818C16.317 16.1406 16.2202 15.8017 16.0302 15.5765C15.8664 15.381 15.5518 15.2097 15.0938 15.0663L15.0956 15.0645Z" fill="#AEBAFF"/>
<path d="M12.8203 11.6694C12.8203 12.1367 12.9357 12.4737 13.1648 12.6729C13.3602 12.8424 13.606 12.9801 13.8983 13.0826V10.1855C13.1648 10.3885 12.8203 10.8651 12.8203 11.6694Z" fill="#AEBAFF"/>
<path fill-rule="evenodd" clip-rule="evenodd" d="M14.7422 26.9807C14.6571 27.8283 13.901 28.4464 13.0534 28.3613C9.82173 28.0369 6.80344 26.5988 4.51555 24.2935C2.22766 21.9882 0.812571 18.959 0.51268 15.725C0.434026 14.8768 1.05787 14.1254 1.90608 14.0468C2.75429 13.9681 3.50567 14.5919 3.58432 15.4402C3.81813 17.9615 4.92139 20.3232 6.70511 22.1205C8.48884 23.9178 10.842 25.039 13.3615 25.2919C14.2091 25.377 14.8273 26.1331 14.7422 26.9807Z" fill="#566DEF"/>
<path fill-rule="evenodd" clip-rule="evenodd" d="M15.3497 1.9126C15.5143 1.07681 16.3253 0.532716 17.1611 0.697337C20.3432 1.3241 23.2089 3.03629 25.2688 5.54141C27.3286 8.04652 28.4547 11.1891 28.4547 14.4324C28.4547 15.2842 27.7641 15.9748 26.9123 15.9748C26.0604 15.9748 25.3699 15.2842 25.3699 14.4324C25.3699 11.9038 24.4919 9.45372 22.886 7.50063C21.2801 5.54754 19.0458 4.21265 16.5649 3.72401C15.7291 3.55938 15.1851 2.74839 15.3497 1.9126Z" fill="#93A3FF"/>
</svg>
