<svg width="18" height="18" viewBox="0 0 18 18" fill="none" xmlns="http://www.w3.org/2000/svg">
<g id="Flags">
<g clip-path="url(#clip0_20912_114693)">
<g id="Group">
<g id="Group_2">
<path id="Vector" d="M38.0659 0.898438H-8.37891V17.0984H38.0659V0.898438Z" fill="white"/>
<path id="Vector_2" d="M38.0659 0.898438H-8.37891V2.69844H38.0659V0.898438Z" fill="#B22234"/>
<path id="Vector_3" d="M38.0659 4.5H-8.37891V6.30001H38.0659V4.5Z" fill="#B22234"/>
<path id="Vector_4" d="M38.0659 8.09375H-8.37891V9.89378H38.0659V8.09375Z" fill="#B22234"/>
<path id="Vector_5" d="M38.0659 11.7031H-8.37891V13.5031H38.0659V11.7031Z" fill="#B22234"/>
<path id="Vector_6" d="M38.0659 15.2969H-8.37891V17.0969H38.0659V15.2969Z" fill="#B22234"/>
<path id="Vector_7" d="M10.199 0.898438H-8.37891V9.89846H10.199V0.898438Z" fill="#3C3B6E"/>
<path id="Vector_8" d="M7.06971 1.60938L6.90066 2.10759H6.35352L6.79611 2.41536L6.62715 2.91335L7.06971 2.60558L7.51225 2.91335L7.34325 2.41531L7.78564 2.10759H7.23873L7.06971 1.60938Z" fill="white"/>
<path id="Vector_9" d="M5.53044 2.875L5.36145 3.373H4.81445L5.25703 3.68079L5.0879 4.17879L5.53051 3.87099L5.973 4.17879L5.80399 3.68079L6.24658 3.373H5.69945L5.53044 2.875Z" fill="white"/>
<path id="Vector_10" d="M8.61047 2.875L8.44147 3.373H7.89453L8.33707 3.68077L8.16793 4.17879L8.61055 3.87099L9.05303 4.17879L8.88403 3.68082L9.32666 3.373H8.77963L8.61047 2.875Z" fill="white"/>
<path id="Vector_11" d="M3.98958 4.14062L3.82057 4.63863H3.27344L3.71606 4.94643L3.54704 5.44458L3.98951 5.1368L4.4321 5.44458L4.26294 4.94643L4.70555 4.63863H4.15856L3.98958 4.14062ZM3.98948 4.86144H3.98946L3.98951 4.86136L3.98953 4.86141L3.98948 4.86144Z" fill="white"/>
<path id="Vector_12" d="M7.06971 4.14062L6.90069 4.63863H6.35352L6.79618 4.94645L6.62715 5.44458L7.06969 5.13683L7.51223 5.44458L7.34317 4.9464L7.78563 4.63863H7.2387L7.06971 4.14062ZM7.06971 4.86144L7.06966 4.86141L7.06969 4.86136L7.06974 4.86144H7.06971Z" fill="white"/>
<path id="Vector_13" d="M2.45031 5.40625L2.28133 5.90421H1.73438L2.1768 6.21196L2.00777 6.70999L2.45031 6.40221L2.89285 6.70999L2.72386 6.21202L3.16649 5.90421H2.61932L2.45031 5.40625Z" fill="white"/>
<path id="Vector_14" d="M5.53044 5.40625L5.36145 5.90421H4.81445L5.25705 6.21199L5.0879 6.70999L5.53051 6.40218L5.973 6.70999L5.80399 6.21199L6.24658 5.90421H5.69945L5.53044 5.40625Z" fill="white"/>
<path id="Vector_15" d="M8.61047 5.40625L8.44147 5.90421H7.89453L8.33707 6.21196L8.16793 6.70999L8.61055 6.40218L9.05303 6.70999L8.88401 6.21202L9.32666 5.90421H8.77963L8.61047 5.40625Z" fill="white"/>
<path id="Vector_16" d="M4.15857 7.16985L3.98958 6.67188L3.82057 7.16985H3.27344L3.71603 7.47765L3.54702 7.97559L3.98951 7.6678L4.4321 7.97559L4.26299 7.47763L4.70555 7.16985H4.15857Z" fill="white"/>
<path id="Vector_17" d="M7.2387 7.16985L7.06971 6.67188L6.90069 7.16985H6.35352L6.79616 7.47768L6.62715 7.97559L7.06971 7.66785L7.51225 7.97559L7.34324 7.4776L7.78564 7.16985H7.2387Z" fill="white"/>
<path id="Vector_18" d="M2.61932 8.43546L2.45031 7.9375L2.28132 8.43546H1.73438L2.17678 8.74324L2.00777 9.24124L2.45031 8.93346L2.89285 9.24124L2.72386 8.7433L3.16649 8.43546H2.61932Z" fill="white"/>
<path id="Vector_19" d="M5.69945 8.43546L5.53044 7.9375L5.36145 8.43546H4.81445L5.25705 8.74327L5.0879 9.24124L5.53051 8.93343L5.973 9.24124L5.80399 8.74327L6.24658 8.43546H5.69945Z" fill="white"/>
<path id="Vector_20" d="M8.77963 8.43546L8.61047 7.9375L8.44147 8.43546H7.89453L8.33707 8.74324L8.16793 9.24124L8.61055 8.93343L9.05303 9.24124L8.88401 8.7433L9.32666 8.43546H8.77963Z" fill="white"/>
</g>
</g>
</g>
</g>
<defs>
<clipPath id="clip0_20912_114693">
<rect x="0.939453" y="0.898438" width="16.9232" height="16.2" rx="8.1" fill="white"/>
</clipPath>
</defs>
</svg>
