<svg width="81" height="76" viewBox="0 0 81 76" fill="none" xmlns="http://www.w3.org/2000/svg">
<path d="M22.6206 12.6992H7.58189C4.27337 12.6992 1.56641 15.378 1.56641 18.652V69.251C1.56641 72.5251 4.27337 75.2039 7.58189 75.2039H73.7522C77.0607 75.2039 79.7677 72.5251 79.7677 69.251V18.652C79.7677 15.378 77.0607 12.6992 73.7522 12.6992H46.6825" stroke="#2947F2" stroke-width="1.3" stroke-linecap="round" stroke-linejoin="round"/>
<path d="M28.6365 43.9529C32.7894 43.9529 36.1559 40.6214 36.1559 36.5118C36.1559 32.4023 32.7894 29.0708 28.6365 29.0708C24.4837 29.0708 21.1172 32.4023 21.1172 36.5118C21.1172 40.6214 24.4837 43.9529 28.6365 43.9529Z" stroke="#FF6805" stroke-width="1.3" stroke-linecap="round" stroke-linejoin="round"/>
<path d="M42.472 60.3224C41.5697 56.7508 38.5619 54.3696 34.9526 54.3696H22.3201C18.7108 54.3696 15.7031 56.7508 14.8008 60.3224" stroke="#FF6805" stroke-width="1.3" stroke-linecap="round" stroke-linejoin="round"/>
<path d="M52.6992 60.3223H64.7302" stroke="#FF6805" stroke-width="1.3" stroke-linecap="round" stroke-linejoin="round"/>
<path d="M52.6992 48.417H64.7302" stroke="#FF6805" stroke-width="1.3" stroke-linecap="round" stroke-linejoin="round"/>
<path d="M52.6992 36.5107H64.7302" stroke="#FF6805" stroke-width="1.3" stroke-linecap="round" stroke-linejoin="round"/>
<path d="M40.6678 18.6529C43.9763 18.6529 46.6833 15.9741 46.6833 12.7001V3.79443C46.6833 2.13758 45.3402 0.794434 43.6833 0.794434H37.6523C35.9955 0.794434 34.6523 2.13758 34.6523 3.79443V12.7001C34.6523 15.9741 37.3593 18.6529 40.6678 18.6529Z" stroke="#2947F2" stroke-width="1.3" stroke-linecap="round" stroke-linejoin="round"/>
</svg>
