<svg width="43" height="41" viewBox="0 0 43 41" fill="none" xmlns="http://www.w3.org/2000/svg">
<path d="M34.0074 17.0211V12.8227C34.0074 8.62474 29.4075 4.42676 21.741 4.42676C14.0745 4.42676 9.47461 8.62474 9.47461 12.8227V17.0211" stroke="#6F6F7B" stroke-width="1.77062" stroke-linecap="round" stroke-linejoin="round"/>
<path d="M30.505 17.1313C19.1148 17.1313 14.734 12.8965 14.734 12.8965V16.2843C14.734 16.2843 12.1055 17.9783 12.1055 20.5192" stroke="#6F6F7B" stroke-width="1.77062" stroke-linecap="round" stroke-linejoin="round"/>
<path d="M8.37109 22.6191C8.37508 23.5259 8.66033 24.4106 9.18997 25.159C9.71961 25.9074 10.4693 26.485 11.3421 26.8171V28.2165C11.3421 32.8524 16.8202 36.6124 21.7422 36.6124C26.6643 36.6124 32.1424 32.8524 32.1424 28.2165V26.8171C33.0152 26.485 33.765 25.9074 34.2947 25.1591C34.8244 24.4107 35.1097 23.5259 35.1137 22.6191" stroke="#6F6F7B" stroke-width="1.77062" stroke-linecap="round" stroke-linejoin="round"/>
</svg>
