<svg width="35" height="36" viewBox="0 0 35 36" fill="none" xmlns="http://www.w3.org/2000/svg">
<path d="M18.21 34.38C18.62 34.38 18.96 34.72 18.96 35.13C18.96 35.51 18.68 35.82 18.31 35.87H18.21H16.21C15.8 35.87 15.46 35.53 15.46 35.12C15.46 34.74 15.74 34.43 16.11 34.38H16.21H18.21ZM20.21 32.38C20.62 32.38 20.96 32.72 20.96 33.13C20.96 33.51 20.68 33.82 20.31 33.87H20.21H14.21C13.8 33.87 13.46 33.53 13.46 33.12C13.46 32.74 13.74 32.43 14.11 32.38H14.21H20.21ZM21.21 30.38C21.62 30.38 21.96 30.72 21.96 31.13C21.96 31.51 21.68 31.82 21.31 31.87H21.21H13.21C12.8 31.87 12.46 31.53 12.46 31.12C12.46 30.74 12.74 30.43 13.11 30.38H13.21H21.21ZM17.21 7.38C22.59 7.38 26.96 11.75 26.96 17.13C26.96 19.43 25.59 21.91 22.91 24.61C22.36 25.17 22.02 25.91 21.97 26.69V26.9V28.63C21.97 29.28 21.48 29.81 20.85 29.87H20.72H13.72C13.07 29.87 12.54 29.38 12.48 28.75V28.62V26.9C12.48 26.04 12.14 25.22 11.54 24.61C8.86 21.91 7.48 19.42 7.48 17.12C7.48 11.74 11.85 7.37 17.23 7.37L17.21 7.38ZM8.24 25.26C8.51 25.53 8.53 25.95 8.31 26.24L8.24 26.32L6.12 28.44C5.83 28.73 5.35 28.73 5.06 28.44C4.79 28.17 4.77 27.75 4.99 27.46L5.06 27.38L7.18 25.26C7.47 24.97 7.95 24.97 8.24 25.26ZM27.26 25.19L27.34 25.26L29.46 27.38C29.75 27.67 29.75 28.15 29.46 28.44C29.19 28.71 28.77 28.73 28.48 28.51L28.4 28.44L26.28 26.32C25.99 26.03 25.99 25.55 26.28 25.26C26.55 24.99 26.97 24.97 27.26 25.19ZM17.22 8.87C12.66 8.87 8.97 12.56 8.97 17.12C8.97 18.95 10.16 21.1 12.59 23.55C13.42 24.38 13.9 25.48 13.96 26.65V26.9V28.37H20.46V26.89C20.46 25.8 20.83 24.75 21.51 23.92L21.67 23.73L21.84 23.55C24.27 21.1 25.46 18.95 25.46 17.12C25.46 12.56 21.77 8.87 17.21 8.87H17.22ZM3.75 15.5C4.16 15.5 4.5 15.84 4.5 16.25C4.5 16.63 4.22 16.94 3.85 16.99H3.75H0.75C0.34 16.99 0 16.65 0 16.24C0 15.86 0.28 15.55 0.65 15.5H0.75H3.75ZM33.75 15.5C34.16 15.5 34.5 15.84 34.5 16.25C34.5 16.63 34.22 16.94 33.85 16.99H33.75H30.75C30.34 16.99 30 16.65 30 16.24C30 15.86 30.28 15.55 30.65 15.5H30.75H33.75ZM18.21 10.38C21.39 10.38 23.96 12.95 23.96 16.13C23.96 16.54 23.62 16.88 23.21 16.88C22.8 16.88 22.46 16.54 22.46 16.13C22.46 13.78 20.56 11.88 18.21 11.88C17.8 11.88 17.46 11.54 17.46 11.13C17.46 10.72 17.8 10.38 18.21 10.38ZM6.04 3.99L6.12 4.06L8.24 6.18C8.53 6.47 8.53 6.95 8.24 7.24C7.97 7.51 7.55 7.53 7.26 7.31L7.18 7.24L5.06 5.12C4.77 4.83 4.77 4.35 5.06 4.06C5.33 3.79 5.75 3.77 6.04 3.99ZM29.45 4.06C29.72 4.33 29.74 4.75 29.52 5.04L29.45 5.12L27.33 7.24C27.04 7.53 26.56 7.53 26.27 7.24C26 6.97 25.98 6.55 26.2 6.26L26.27 6.18L28.39 4.06C28.68 3.77 29.16 3.77 29.45 4.06ZM17.25 0C17.63 0 17.94 0.28 17.99 0.65V0.75V3.75C17.99 4.16 17.65 4.5 17.24 4.5C16.86 4.5 16.55 4.22 16.5 3.85V3.75V0.75C16.5 0.34 16.84 0 17.25 0Z" fill="black"/>
</svg>
