<svg width="28" height="28" viewBox="0 0 28 28" fill="none" xmlns="http://www.w3.org/2000/svg">
<g id="Group 240448">
<path id="Vector" opacity="0.8" d="M28 14C28 21.7319 21.7319 28 14 28C6.26801 28 0 21.7319 0 14C0 6.26801 6.26801 0 14 0C21.7319 0 28 6.26801 28 14Z" fill="#16A34A"/>
<path id="Vector_2" d="M19.7157 10.2704C20.0948 10.6308 20.0948 11.2153 19.7157 11.5758L13.2451 17.7296C12.8661 18.0901 12.2516 18.0901 11.8725 17.7296L9.28428 15.2681C8.90524 14.9076 8.90524 14.3232 9.28428 13.9627C9.66331 13.6022 10.2779 13.6022 10.6569 13.9627L12.5588 15.7715L15.4509 13.0209L18.3432 10.2704C18.7222 9.90988 19.3367 9.90988 19.7157 10.2704Z" fill="white"/>
</g>
</svg>
