<svg width="22" height="22" viewBox="0 0 22 22" fill="none" xmlns="http://www.w3.org/2000/svg">
<path d="M11.9154 4.58268C11.9154 4.07643 11.505 3.66602 10.9987 3.66602C10.4924 3.66602 10.082 4.07643 10.082 4.58268C10.082 5.08894 10.4924 5.49935 10.9987 5.49935C11.505 5.49935 11.9154 5.08894 11.9154 4.58268Z" stroke="#5B5B66" stroke-width="1.83333" stroke-linecap="round" stroke-linejoin="round"/>
<path d="M11.9154 11.0007C11.9154 10.4944 11.505 10.084 10.9987 10.084C10.4924 10.084 10.082 10.4944 10.082 11.0007C10.082 11.5069 10.4924 11.9173 10.9987 11.9173C11.505 11.9173 11.9154 11.5069 11.9154 11.0007Z" stroke="#5B5B66" stroke-width="1.83333" stroke-linecap="round" stroke-linejoin="round"/>
<path d="M11.9154 17.4167C11.9154 16.9104 11.505 16.5 10.9987 16.5C10.4924 16.5 10.082 16.9104 10.082 17.4167C10.082 17.9229 10.4924 18.3333 10.9987 18.3333C11.505 18.3333 11.9154 17.9229 11.9154 17.4167Z" stroke="#5B5B66" stroke-width="1.83333" stroke-linecap="round" stroke-linejoin="round"/>
</svg>
