<svg width="226" height="114" viewBox="0 0 226 114" fill="none" xmlns="http://www.w3.org/2000/svg">
<path fill-rule="evenodd" clip-rule="evenodd" d="M108.769 0.202649L111.177 0.138672L111.769 22.4046L109.361 22.4686L108.769 0.202649ZM105.16 0.3943L102.759 0.586102L104.532 22.7892L106.934 22.5974L105.16 0.3943ZM96.8357 1.28138L99.2239 0.962684L102.17 23.0406L99.7821 23.3593L96.8357 1.28138ZM93.3769 1.83605L91.0089 2.28019L95.1149 24.1723L97.4829 23.7281L93.3769 1.83605ZM85.2875 3.57414L87.6288 3.0063L92.8787 24.6526L90.5374 25.2204L85.2875 3.57414ZM81.9901 4.46567L79.6814 5.15486L86.0529 26.4979L88.3615 25.8087L81.9901 4.46567ZM74.1972 7.01466L76.4668 6.20636L83.9395 27.1893L81.6699 27.9976L74.1972 7.01466ZM71.0713 8.21953L68.8464 9.14384L77.3915 29.7132L79.6164 28.7888L71.0713 8.21953ZM63.6363 11.5343L65.8109 10.4972L75.3995 30.6014L73.2249 31.6386L63.6363 11.5343ZM60.6938 13.0309L58.5749 14.1776L69.1758 33.7667L71.2948 32.62L60.6938 13.0309ZM53.67 17.0657L55.7279 15.8131L67.3089 34.8396L65.2509 36.0922L53.67 17.0657ZM50.9222 18.8351L48.9301 20.19L61.457 38.6073L63.4491 37.2524L50.9222 18.8351ZM44.3623 23.5425L46.2837 22.089L59.7212 39.8529L57.7997 41.3064L44.3623 23.5425ZM41.8216 25.5668L39.9754 27.1148L54.2873 44.1821L56.1335 42.634L41.8216 25.5668ZM35.7772 30.8986L37.5434 29.26L52.6921 45.5892L50.9258 47.2278L35.7772 30.8986ZM33.4574 33.161L31.7753 34.8858L47.7211 50.4372L49.4032 48.7125L33.4574 33.161ZM27.9768 39.0692L29.5705 37.2625L46.2743 51.9971L44.6806 53.8038L27.9768 39.0692ZM25.8917 41.5561L24.3906 43.4404L41.812 57.319L43.3132 55.4347L25.8917 41.5561ZM21.0241 47.9908L22.4289 46.0334L40.5248 59.0203L39.1201 60.9777L21.0241 47.9908ZM19.1893 50.6885L17.8849 52.7141L36.612 64.7731L37.9164 62.7474L19.1893 50.6885ZM14.9821 57.6004L16.1823 55.5115L35.4954 66.6076L34.2953 68.6965L14.9821 57.6004ZM13.4152 60.4957L12.3228 62.6432L32.1756 72.7422L33.268 70.5948L13.4152 60.4957ZM9.9158 67.8338L10.897 65.6334L31.2401 74.7041L30.259 76.9045L9.9158 67.8338ZM8.63586 70.9151L7.76928 73.1631L28.5524 81.1746L29.419 78.9266L8.63586 70.9151ZM5.89146 78.6234L6.6405 76.3337L27.8104 83.2589L27.0614 85.5486L5.89146 78.6234ZM4.9195 81.8791L4.29057 84.2049L25.7921 90.0193L26.421 87.6935L4.9195 81.8791ZM2.97451 89.9003L3.48064 87.5448L25.2573 92.2242L24.7512 94.5796L2.97451 89.9003ZM2.3335 93.3197L1.95188 95.6986L23.9445 99.2267L24.3261 96.8478L2.3335 93.3197ZM1.23012 101.592L1.48536 99.1963L23.6337 101.556L23.3785 103.952L1.23012 101.592ZM0.945234 105.163L0.817276 107.569L23.0595 108.752L23.1875 106.346L0.945234 105.163ZM0.720703 111.213V113.622H22.9944V111.213H0.720703Z" fill="#14B96E"/>
<path fill-rule="evenodd" clip-rule="evenodd" d="M114.838 0.138893L114.247 22.4048L116.655 22.4688L117.246 0.202869L114.838 0.138893ZM120.855 0.394265L119.082 22.5973L121.483 22.7891L123.256 0.586065L120.855 0.394265ZM123.845 23.0407L126.792 0.962731L129.18 1.28143L126.233 23.3594L123.845 23.0407ZM132.638 1.8354L128.532 23.7275L130.9 24.1716L135.006 2.27954L132.638 1.8354ZM133.137 24.6529L138.386 3.00655L140.728 3.57439L135.478 25.2207L133.137 24.6529ZM144.026 4.46557L137.653 25.8082L139.962 26.4975L146.334 5.15488L144.026 4.46557ZM142.076 27.1894L149.548 6.2064L151.818 7.01465L144.345 27.9977L142.076 27.1894ZM154.944 8.21924L146.399 28.7887L148.624 29.713L157.169 9.14356L154.944 8.21924ZM150.616 30.6017L160.205 10.4974L162.379 11.5346L152.791 31.6388L150.616 30.6017ZM165.322 13.0317L154.721 32.6207L156.839 33.7674L167.441 14.1783L165.322 13.0317ZM158.706 34.8397L170.288 15.8138L172.346 17.0666L160.764 36.0924L158.706 34.8397ZM175.093 18.8352L162.567 37.2529L164.559 38.6079L177.085 20.1901L175.093 18.8352ZM166.294 39.8528L179.731 22.0889L181.653 23.5424L168.215 41.3063L166.294 39.8528ZM184.194 25.5665L169.882 42.6338L171.728 44.1819L186.04 27.1146L184.194 25.5665ZM173.323 45.5902L188.472 29.2605L190.238 30.899L175.09 47.2288L173.323 45.5902ZM192.558 33.1615L176.612 48.7129L178.294 50.4377L194.24 34.8862L192.558 33.1615ZM179.741 51.9968L196.445 37.2623L198.039 39.0689L181.335 53.8035L179.741 51.9968ZM200.124 41.5555L182.703 55.4348L184.204 57.3192L201.625 43.4398L200.124 41.5555ZM185.491 59.0207L203.587 46.0337L204.992 47.9911L186.896 60.978L185.491 59.0207ZM206.826 50.6883L188.099 62.7472L189.403 64.7729L208.13 52.714L206.826 50.6883ZM190.52 66.6069L209.834 55.5117L211.034 57.6007L191.72 68.6959L190.52 66.6069ZM212.6 60.4962L192.747 70.5952L193.84 72.7426L213.692 62.6436L212.6 60.4962ZM194.775 74.7041L215.118 65.6334L216.099 67.8338L195.756 76.9046L194.775 74.7041ZM217.379 70.9155L196.596 78.9269L197.463 81.175L218.246 73.1635L217.379 70.9155ZM198.205 83.2586L219.375 76.3334L220.124 78.6232L198.954 85.5484L198.205 83.2586ZM221.096 81.8792L199.594 87.6936L200.223 90.0194L221.725 84.205L221.096 81.8792ZM200.758 92.2251L222.535 87.5445L223.041 89.9L201.264 94.5806L200.758 92.2251ZM223.682 93.3197L201.689 96.8478L202.071 99.2267L224.064 95.6986L223.682 93.3197ZM202.382 101.557L224.53 99.1956L224.786 101.591L202.637 103.952L202.382 101.557ZM225.07 105.164L202.828 106.347L202.956 108.753L225.198 107.57L225.07 105.164ZM225.295 111.213V113.622H203.021V111.213H225.295Z" fill="url(#paint0_linear_1_77)"/>
<path d="M0.720703 113.622H22.9944V111.213H0.720703V113.622V113.622ZM0.817133 107.569L23.0596 108.752L23.1875 106.347L0.945219 105.164L0.817133 107.569V107.569ZM1.23001 101.592L23.3784 103.952L23.6338 101.556L1.48539 99.1961L1.23001 101.592V101.592ZM1.95178 95.6987L23.9444 99.2264L24.326 96.8475L2.33339 93.3199L1.95178 95.6987V95.6987ZM2.97463 89.9001L24.7511 94.5801L25.2574 92.2247L3.48089 87.5445L2.97463 89.9001V89.9001ZM4.29048 84.2051L25.7922 90.019L26.421 87.6933L4.91939 81.8794L4.29048 84.2051V84.2051ZM5.89151 78.6231L27.0613 85.5487L27.8103 83.2588L6.64057 76.3333L5.89151 78.6231V78.6231ZM7.76939 73.163L28.5524 81.1748L29.4189 78.9269L8.63607 70.9151L7.76939 73.163V73.163ZM9.91589 67.8337L30.2592 76.904L31.2404 74.7036L10.897 65.6332L9.91589 67.8337ZM12.3229 62.6434L32.1757 72.7422L33.268 70.5949L13.4152 60.4961L12.3229 62.6434ZM14.9819 57.6008L34.2955 68.6962L35.4956 66.6072L16.1821 55.5118L14.9819 57.6008ZM17.885 52.714L36.6124 64.7726L37.9167 62.747L19.1894 50.6884L17.885 52.714V52.714ZM21.0239 47.9912L39.1198 60.978L40.5246 59.0206L22.4286 46.0338L21.0239 47.9912V47.9912ZM24.3905 43.4401L41.8114 57.3193L43.3128 55.4351L25.8918 41.5558L24.3905 43.4401V43.4401ZM27.977 39.0691L44.6807 53.8036L46.2745 51.9968L29.5707 37.2624L27.977 39.0691ZM31.7752 34.8859L47.7209 50.4376L49.403 48.7128L33.4575 33.161L31.7752 34.8859V34.8859ZM35.7774 30.8984L50.9254 47.2282L52.6916 45.5897L37.5437 29.26L35.7774 30.8984V30.8984ZM39.9758 27.1145L54.2873 44.1822L56.1334 42.6341L41.8219 25.5666L39.9758 27.1145ZM44.3626 23.5425L57.8 41.3063L59.7215 39.8529L46.2839 22.089L44.3626 23.5425ZM48.9298 20.1902L61.4568 38.6075L63.449 37.2524L50.9218 18.8353L48.9298 20.1902V20.1902ZM53.6697 17.0659L65.251 36.0922L67.3089 34.8394L55.7277 15.8133L53.6697 17.0659V17.0659ZM58.5745 14.1779L69.1757 33.767L71.2946 32.6203L60.6935 13.0312L58.5745 14.1779V14.1779ZM63.6363 11.5343L73.2246 31.6386L75.3993 30.6014L65.8109 10.4971L63.6363 11.5343V11.5343ZM68.8469 9.14366L77.3915 29.7132L79.6165 28.789L71.0718 8.21938L68.8469 9.14366ZM74.1979 7.01424L81.6698 27.9974L83.9395 27.1892L76.4675 6.20609L74.1979 7.01424V7.01424ZM79.6812 5.15505L86.0538 26.4977L88.3623 25.8083L81.9897 4.46575L79.6812 5.15505ZM85.288 3.57401L90.5374 25.2204L92.8788 24.6525L87.6293 3.00618L85.288 3.57401ZM91.0093 2.2799L95.1152 24.172L97.4832 23.728L93.3772 1.83589L91.0093 2.2799ZM96.8361 1.28128L99.7819 23.3593L102.17 23.0408L99.2242 0.96258L96.8361 1.28128V1.28128ZM102.759 0.586118L104.532 22.7892L106.934 22.5974L105.161 0.394349L102.759 0.586118ZM108.769 0.202662L109.361 22.4686L111.769 22.4045L111.177 0.138672L108.769 0.202662V0.202662ZM114.246 22.4045L116.655 22.4686L117.247 0.202662L114.838 0.138672L114.246 22.4045V22.4045ZM119.082 22.5974L121.483 22.7892L123.256 0.586118L120.855 0.394349L119.082 22.5974ZM126.791 0.96258L123.846 23.0408L126.234 23.3593L129.179 1.28128L126.791 0.96258ZM132.638 1.83589L128.532 23.728L130.9 24.172L135.006 2.2799L132.638 1.83589ZM138.386 3.00618L133.137 24.6525L135.478 25.2204L140.728 3.57401L138.386 3.00618ZM144.026 4.46575L137.653 25.8083L139.962 26.4977L146.334 5.15505L144.026 4.46575ZM149.548 6.20609L142.076 27.1892L144.346 27.9974L151.818 7.01424L149.548 6.20609V6.20609ZM154.944 8.21938L146.399 28.789L148.624 29.7132L157.169 9.14366L154.944 8.21938Z" fill="url(#paint1_linear_1_77)"/>
<defs>
<linearGradient id="paint0_linear_1_77" x1="169.771" y1="0.138893" x2="169.771" y2="113.622" gradientUnits="userSpaceOnUse">
<stop stop-color="#FE9A28"/>
<stop offset="1" stop-color="#EE0B0B"/>
</linearGradient>
<linearGradient id="paint1_linear_1_77" x1="0.720703" y1="56.8804" x2="84.6456" y2="56.8804" gradientUnits="userSpaceOnUse">
<stop stop-color="#12B01C"/>
<stop offset="1" stop-color="#FE9A28"/>
</linearGradient>
</defs>
</svg>
