<svg width="29" height="29" viewBox="0 0 29 29" fill="none" xmlns="http://www.w3.org/2000/svg">
<g clip-path="url(#clip0_144_14256)">
<path d="M35.6231 -1.46973H-6.70312V29.997H35.6231V-1.46973Z" fill="#00247D"/>
<path d="M30.8848 29.9968L14.4599 17.7815L-1.97656 29.9968H-6.70312V26.4704L9.72778 14.2636L-6.70312 2.04021V-1.46973H-1.97642L14.4599 10.7455L30.885 -1.46973H35.6231V2.03968L19.1922 14.2636L35.6231 26.4696V29.9968H30.8848Z" fill="white"/>
<path d="M-3.55391 29.9968H-6.70312L12.8942 15.3397L-6.70312 0.875693V-1.46973L12.9437 13.0455L32.4682 -1.46973H35.6231L15.9716 13.0496L35.6231 27.6514V29.9968L16.0978 15.3912L-3.55391 29.9968Z" fill="#CF142B"/>
<path d="M18.2987 30.9414H10.6152V18.1057H-8.59375V10.4223H10.6152V-2.09863H18.2987V10.4223H37.5077V18.1057H18.2987V30.9414Z" fill="white"/>
<path d="M16.762 30.9414H12.1518V16.5691H-8.59375V11.959H12.1518V-2.09863H16.762V11.959H37.5077V16.5691H16.762V30.9414Z" fill="#CF142B"/>
</g>
<defs>
<clipPath id="clip0_144_14256">
<rect x="0.453125" y="0.28125" width="28" height="28" rx="14" fill="white"/>
</clipPath>
</defs>
</svg>
