<svg width="37" height="35" viewBox="0 0 37 35" fill="none" xmlns="http://www.w3.org/2000/svg">
<path d="M25.1133 1.5625H13.0979C12.8522 1.5625 12.6151 1.65294 12.4319 1.81656L2.27148 10.8884C2.05899 11.0781 1.9375 11.3495 1.9375 11.6343V32.4375C1.9375 32.9898 2.38522 33.4375 2.9375 33.4375H25.1133C25.6656 33.4375 26.1133 32.9898 26.1133 32.4375V2.5625C26.1133 2.01022 25.6656 1.5625 25.1133 1.5625Z" stroke="#2947F2" stroke-width="2" stroke-linecap="round" stroke-linejoin="round"/>
<path d="M12.6379 1.86938V10.1407C12.6379 10.693 12.1902 11.1407 11.6379 11.1407H2.08984" stroke="#2947F2" stroke-width="2" stroke-linecap="round" stroke-linejoin="round"/>
<path d="M33.3431 16.2267L28.8789 11.7625L17.5738 23.0676L16.0569 28.937L22.038 27.5318L33.3431 16.2267Z" fill="white" stroke="#FF6805" stroke-width="2" stroke-linecap="round" stroke-linejoin="round"/>
<path d="M28.8789 11.7625L33.3431 16.2267L34.2342 15.3356C35.4058 14.164 35.4058 12.2645 34.2342 11.093L34.0126 10.8714C32.841 9.69981 30.9416 9.69981 29.77 10.8714L28.8789 11.7625Z" fill="white" stroke="#FF6805" stroke-width="2" stroke-linecap="round" stroke-linejoin="round"/>
</svg>
