<svg width="47" height="48" viewBox="0 0 47 48" fill="none" xmlns="http://www.w3.org/2000/svg">
<path d="M33.1197 23.9961H43.5666C45.4304 23.9961 46.4004 24.8149 46.4003 29.2627C46.4003 33.7107 45.4303 34.5295 43.5666 34.5295H33.1197C30.2673 34.5295 27.9551 32.2052 27.9551 29.2627C27.9551 26.3202 30.2673 23.9961 33.1197 23.9961Z" fill="#FF6805"/>
<path d="M30.4297 29.0891C30.4297 30.6227 31.6348 31.8662 33.1214 31.8662C34.6077 31.8662 35.8126 30.6227 35.8126 29.0891C35.8126 27.5556 34.6077 26.3125 33.1214 26.3125C31.6347 26.3125 30.4297 27.5556 30.4297 29.0891Z" fill="#F5F7FA"/>
<path d="M25.5436 29.2631C25.5436 24.9496 28.9451 21.5017 33.1264 21.5017H44.787V15.6651C44.787 13.6044 42.9679 12.077 40.9703 12.077C37.0745 12.077 11.5463 12.077 7.65355 12.077C5.17973 12.077 3.38428 10.7705 3.38428 8.99426C3.38428 7.23018 5.13986 5.9787 7.65355 5.9787H11.3698L21.9284 2.65234H7.65355C3.31163 2.65234 0.185547 5.19689 0.185547 8.86043V40.5567C0.185547 42.3372 1.12379 44.0805 2.78189 45.2741C4.66762 46.6313 6.66061 47.0037 8.82834 47.0037H40.9557C42.959 47.0037 44.787 45.26 44.787 43.1933V37.0247H33.1263C28.9451 37.0247 25.5436 33.5766 25.5436 29.2631Z" fill="#2947F2"/>
<path d="M40.6314 9.49406L39.1342 1.72836C38.9501 0.761054 37.9949 0.117294 37.0814 0.405024L8.06641 9.49406H40.6314Z" fill="#FF6805"/>
</svg>
