<svg width="29" height="29" viewBox="0 0 29 29" fill="none" xmlns="http://www.w3.org/2000/svg">
<g clip-path="url(#clip0_144_14283)">
<path d="M61.8756 0.443359H-14.9688V28.4434H61.8756V0.443359Z" fill="white"/>
<path d="M61.8756 0.443359H-14.9688V3.55447H61.8756V0.443359Z" fill="#B22234"/>
<path d="M61.8756 6.66602H-14.9688V9.77715H61.8756V6.66602Z" fill="#B22234"/>
<path d="M61.8756 12.8877H-14.9688V15.9989H61.8756V12.8877Z" fill="#B22234"/>
<path d="M61.8756 19.1104H-14.9688V22.2215H61.8756V19.1104Z" fill="#B22234"/>
<path d="M61.8756 25.332H-14.9688V28.4431H61.8756V25.332Z" fill="#B22234"/>
<path d="M15.7689 0.443359H-14.9688V15.999H15.7689V0.443359Z" fill="#3C3B6E"/>
<path d="M10.5912 1.67969L10.3115 2.5408H9.40625L10.1385 3.07274L9.85898 3.93346L10.5912 3.40152L11.3234 3.93346L11.0438 3.07266L11.7757 2.5408H10.8709L10.5912 1.67969Z" fill="white"/>
<path d="M8.044 3.86426L7.76439 4.72501H6.85938L7.59163 5.25698L7.3118 6.11773L8.04411 5.58573L8.77623 6.11773L8.49659 5.25698L9.22888 4.72501H8.32363L8.044 3.86426Z" fill="white"/>
<path d="M13.1377 3.86426L12.8581 4.72501H11.9531L12.6853 5.25695L12.4055 6.11773L13.1378 5.58573L13.8699 6.11773L13.5903 5.25703L14.3226 4.72501H13.4176L13.1377 3.86426Z" fill="white"/>
<path d="M5.49738 6.04785L5.21774 6.9086H4.3125L5.04484 7.4406L4.76518 8.3016L5.49726 7.76963L6.22955 8.3016L5.94966 7.4406L6.68197 6.9086H5.77696L5.49738 6.04785ZM5.49721 7.29371H5.49718L5.49726 7.29357L5.49729 7.29366L5.49721 7.29371Z" fill="white"/>
<path d="M10.5912 6.04785L10.3116 6.9086H9.40625L10.1386 7.44063L9.85898 8.3016L10.5912 7.76968L11.3234 8.3016L11.0437 7.44054L11.7757 6.9086H10.8708L10.5912 6.04785ZM10.5912 7.29371L10.5911 7.29366L10.5912 7.29357L10.5913 7.29371H10.5912Z" fill="white"/>
<path d="M2.95017 8.23242L2.67059 9.09309H1.76562L2.49763 9.625L2.21797 10.4858L2.95017 9.95383L3.68237 10.4858L3.40276 9.62511L4.1351 9.09309H3.2298L2.95017 8.23242Z" fill="white"/>
<path d="M8.044 8.23242L7.76439 9.09309H6.85938L7.59166 9.62506L7.3118 10.4858L8.04411 9.95378L8.77623 10.4858L8.49659 9.62506L9.22888 9.09309H8.32363L8.044 8.23242Z" fill="white"/>
<path d="M13.1377 8.23242L12.8581 9.09309H11.9531L12.6853 9.625L12.4055 10.4858L13.1378 9.95378L13.8699 10.4858L13.5903 9.62511L14.3226 9.09309H13.4176L13.1377 8.23242Z" fill="white"/>
<path d="M5.77698 11.2767L5.49738 10.416L5.21774 11.2767H4.3125L5.04478 11.8087L4.76515 12.6693L5.49726 12.1374L6.22955 12.6693L5.94974 11.8087L6.68197 11.2767H5.77698Z" fill="white"/>
<path d="M10.8708 11.2767L10.5912 10.416L10.3116 11.2767H9.40625L10.1386 11.8088L9.85898 12.6693L10.5912 12.1375L11.3234 12.6693L11.0438 11.8086L11.7757 11.2767H10.8708Z" fill="white"/>
<path d="M3.2298 13.4613L2.95017 12.6006L2.67056 13.4613H1.76562L2.4976 13.9932L2.21797 14.854L2.95017 14.322L3.68237 14.854L3.40276 13.9933L4.1351 13.4613H3.2298Z" fill="white"/>
<path d="M8.32363 13.4613L8.044 12.6006L7.76439 13.4613H6.85938L7.59166 13.9933L7.3118 14.854L8.04411 14.3219L8.77623 14.854L8.49659 13.9933L9.22888 13.4613H8.32363Z" fill="white"/>
<path d="M13.4176 13.4613L13.1377 12.6006L12.8581 13.4613H11.9531L12.6853 13.9932L12.4055 14.854L13.1378 14.3219L13.8699 14.854L13.5903 13.9933L14.3226 13.4613H13.4176Z" fill="white"/>
</g>
<defs>
<clipPath id="clip0_144_14283">
<rect x="0.453125" y="0.443359" width="28" height="28" rx="14" fill="white"/>
</clipPath>
</defs>
</svg>
