<svg width="29" height="39" viewBox="0 0 29 39" fill="none" xmlns="http://www.w3.org/2000/svg">
<path d="M14.0618 19.5026C11.8175 19.5026 10 18.0164 10 16.1849C10 14.3533 11.8175 12.8672 14.0618 12.8672C16.306 12.8672 18.1237 14.351 18.1237 16.1849" stroke="#FF6805" stroke-width="2" stroke-linecap="round" stroke-linejoin="round"/>
<path d="M14.0618 19.5022C16.3037 19.5022 18.1237 20.986 18.1237 22.8199C18.1237 24.6537 16.3037 26.1329 14.0618 26.1329C11.82 26.1329 10 24.6467 10 22.8152" stroke="#FF6805" stroke-width="2" stroke-linecap="round" stroke-linejoin="round"/>
<path d="M14.0625 11.0864V27.9136" stroke="#FF6805" stroke-width="2" stroke-linecap="round" stroke-linejoin="round"/>
<path d="M4.6888 1.57258L1.35539 4.906C1.16786 5.09353 1.0625 5.34788 1.0625 5.6131V33.387C1.0625 33.6522 1.16786 33.9066 1.35539 34.0941L4.6888 37.4275C5.07933 37.8181 5.71249 37.8181 6.10302 37.4275L9.02221 34.5083C9.41274 34.1178 10.0459 34.1178 10.4364 34.5083L13.3556 37.4275C13.7461 37.8181 14.3793 37.8181 14.7698 37.4275L17.689 34.5083C18.0796 34.1178 18.7127 34.1178 19.1032 34.5083L22.0224 37.4275C22.413 37.8181 23.0461 37.8181 23.4367 37.4275L26.7701 34.0941C26.9576 33.9066 27.063 33.6522 27.063 33.387V5.6131C27.063 5.34789 26.9576 5.09353 26.7701 4.906L23.4367 1.57259C23.0461 1.18206 22.413 1.18206 22.0224 1.57258L19.1032 4.49178C18.7127 4.88231 18.0796 4.88231 17.689 4.49178L14.7698 1.57259C14.3793 1.18206 13.7461 1.18206 13.3556 1.57258L10.4364 4.49178C10.0459 4.88231 9.41274 4.88231 9.02221 4.49178L6.10302 1.57259C5.71249 1.18206 5.07933 1.18206 4.6888 1.57258Z" stroke="#2947F2" stroke-width="2" stroke-linecap="round" stroke-linejoin="round"/>
</svg>
