<svg width="29" height="29" viewBox="0 0 29 29" fill="none" xmlns="http://www.w3.org/2000/svg">
<path d="M14.3516 28.2812C22.0835 28.2812 28.3516 22.0132 28.3516 14.2812C28.3516 6.54926 22.0835 0.28125 14.3516 0.28125C6.61958 0.28125 0.351562 6.54926 0.351562 14.2812C0.351562 22.0132 6.61958 28.2812 14.3516 28.2812Z" fill="#092EB3"/>
<path d="M14.929 5.92371L15.7544 5.32395C15.7704 5.31275 15.7673 5.30323 15.7485 5.30323H14.7277C14.7083 5.30323 14.6868 5.28811 14.6809 5.26991L14.3659 4.29999C14.3597 4.28151 14.3502 4.28151 14.3438 4.29999L14.0288 5.26991C14.0229 5.28811 14.0022 5.30351 13.9826 5.30351H12.9623C12.9427 5.30351 12.9396 5.31303 12.9555 5.32423L13.7807 5.92371C13.7964 5.93519 13.8042 5.95927 13.7983 5.97831L13.4828 6.94851C13.4769 6.96699 13.4845 6.97287 13.5004 6.96139L14.3256 6.36163C14.3413 6.35015 14.3667 6.35015 14.383 6.36163L15.2087 6.96139C15.2247 6.97287 15.2322 6.96727 15.2263 6.94851L14.9108 5.97803C14.9055 5.95927 14.9133 5.93547 14.929 5.92371Z" fill="#FFE000"/>
<path d="M14.929 23.2319L15.7544 22.6318C15.7704 22.6204 15.7673 22.612 15.7485 22.612H14.7277C14.7083 22.612 14.6868 22.5963 14.6809 22.5781L14.3659 21.6082C14.3597 21.5902 14.3502 21.5902 14.3438 21.6082L14.0288 22.5786C14.0229 22.5963 14.0022 22.612 13.9826 22.612H12.9623C12.9427 22.612 12.9396 22.6206 12.9555 22.6321L13.7807 23.2324C13.7964 23.2439 13.8042 23.268 13.7983 23.2862L13.4828 24.257C13.4769 24.2746 13.4845 24.2808 13.5004 24.2696L14.3256 23.6695C14.3413 23.6583 14.3667 23.6583 14.383 23.6695L15.2087 24.2696C15.2247 24.2808 15.2322 24.2754 15.2263 24.257L14.9108 23.2859C14.9055 23.268 14.9133 23.2436 14.929 23.2319Z" fill="#FFE000"/>
<path d="M6.28063 10.2504L5.45547 9.65068C5.43951 9.6392 5.44287 9.62968 5.46191 9.62968H6.48195C6.50155 9.62968 6.52255 9.61456 6.52843 9.59608L6.84343 8.62616C6.84931 8.60768 6.85939 8.60768 6.86527 8.62616L7.18055 9.59636C7.18643 9.61456 7.20743 9.62996 7.22647 9.62996H8.24679C8.26639 9.62996 8.26947 9.63948 8.25323 9.65096L7.42835 10.2507C7.41211 10.2622 7.40455 10.2863 7.41071 10.305L7.72627 11.2752C7.73215 11.2934 7.72459 11.2993 7.70863 11.2881L6.88319 10.6886C6.86723 10.6774 6.84231 10.6774 6.82635 10.6886L6.00063 11.2884C5.98495 11.2999 5.97711 11.294 5.98299 11.2755L6.29799 10.305C6.30471 10.286 6.29603 10.2619 6.28063 10.2504Z" fill="#FFE000"/>
<path d="M6.28063 18.9061L5.45547 18.3061C5.43951 18.2949 5.44287 18.2857 5.46191 18.2857L6.48195 18.2859C6.50155 18.2859 6.52255 18.27 6.52843 18.2521L6.84343 17.2824C6.84931 17.2639 6.85939 17.2639 6.86527 17.2824L7.18055 18.2521C7.18643 18.27 7.20743 18.2859 7.22647 18.2859H8.24679C8.26639 18.2859 8.26947 18.2952 8.25323 18.3064L7.42835 18.9061C7.41211 18.9176 7.40455 18.9423 7.41071 18.9607L7.72627 19.9307C7.73215 19.9489 7.72459 19.955 7.70863 19.9435L6.88319 19.3432C6.86723 19.3317 6.84231 19.3317 6.82635 19.3432L6.00063 19.9435C5.98495 19.955 5.97711 19.9494 5.98299 19.9307L6.29827 18.9602C6.30471 18.942 6.29603 18.9176 6.28063 18.9061Z" fill="#FFE000"/>
<path d="M9.45269 22.0745L8.62753 21.4744C8.61157 21.4624 8.61437 21.4534 8.63397 21.4534H9.65457C9.67361 21.4534 9.69461 21.4383 9.70021 21.4198L10.0152 20.4502C10.0211 20.432 10.0314 20.432 10.0373 20.4502L10.3526 21.4201C10.3585 21.4383 10.3798 21.4537 10.3988 21.4537H11.4194C11.4387 21.4537 11.4418 21.4629 11.4258 21.4744L10.6007 22.0745C10.5847 22.0859 10.5772 22.11 10.583 22.1279L10.8986 23.0987C10.9045 23.1166 10.8966 23.1231 10.881 23.1113L10.0558 22.5113C10.0398 22.5003 10.0141 22.5003 9.99869 22.5113L9.17297 23.1113C9.15673 23.1231 9.14973 23.1172 9.15533 23.0987L9.47089 22.1279C9.47677 22.1097 9.46865 22.0857 9.45269 22.0745Z" fill="#FFE000"/>
<path d="M9.45269 7.08199L8.62753 6.48251C8.61157 6.47075 8.61437 6.46151 8.63397 6.46151L9.65457 6.46179C9.67361 6.46179 9.69461 6.44611 9.70021 6.42791L10.0152 5.45799C10.0211 5.43979 10.0314 5.43979 10.0373 5.45799L10.3526 6.42791C10.3585 6.44639 10.3798 6.46179 10.3988 6.46179H11.4194C11.4387 6.46179 11.4418 6.47103 11.4258 6.48251L10.6007 7.08199C10.5847 7.09347 10.5772 7.11811 10.583 7.13631L10.8986 8.10679C10.9045 8.12499 10.8966 8.13087 10.881 8.11939L10.0558 7.51963C10.0398 7.50815 10.0141 7.50815 9.99869 7.51963L9.17297 8.11939C9.15673 8.13087 9.14973 8.12527 9.15533 8.10679L9.47089 7.13631C9.47677 7.11811 9.46865 7.09347 9.45269 7.08199Z" fill="#FFE000"/>
<path d="M5.12452 14.5781L4.29908 13.9786C4.2834 13.9671 4.28648 13.9579 4.3058 13.9579H5.32612C5.34544 13.9579 5.36644 13.9428 5.37204 13.9243L5.68704 12.9541C5.69292 12.9359 5.70328 12.9359 5.70888 12.9541L6.02444 13.9243C6.03032 13.9425 6.05076 13.9579 6.07036 13.9579H7.09068C7.11028 13.9579 7.11364 13.9674 7.09712 13.9789L6.27224 14.5786C6.25572 14.5901 6.24872 14.6142 6.2546 14.6327L6.57016 15.6029C6.57604 15.6211 6.5682 15.6275 6.55252 15.616L5.72708 15.016C5.7114 15.0048 5.68564 15.0048 5.66996 15.016L4.84424 15.616C4.82828 15.6275 4.82044 15.6219 4.8266 15.6029L5.1416 14.6327C5.14804 14.6139 5.1402 14.5901 5.12452 14.5781Z" fill="#FFE000"/>
<path d="M23.5775 14.5781L24.4024 13.9786C24.418 13.9671 24.4158 13.9579 24.3962 13.9579H23.3753C23.356 13.9579 23.3353 13.9428 23.3288 13.9243L23.0138 12.9541C23.0082 12.9359 22.9979 12.9359 22.9923 12.9541L22.6778 13.9243C22.672 13.9425 22.6501 13.9579 22.6308 13.9579H21.6105C21.5909 13.9579 21.5881 13.9674 21.6043 13.9789L22.4292 14.5786C22.446 14.5901 22.4527 14.6142 22.4468 14.6327L22.1313 15.6029C22.1254 15.6211 22.1335 15.6275 22.1489 15.616L22.9746 15.016C22.99 15.0048 23.0155 15.0048 23.0312 15.016L23.8569 15.616C23.8732 15.6275 23.8804 15.6219 23.8746 15.6029L23.5596 14.6327C23.554 14.6139 23.5607 14.5901 23.5775 14.5781Z" fill="#FFE000"/>
<path d="M22.42 10.2504L23.2451 9.65068C23.2614 9.6392 23.2577 9.62968 23.239 9.62968H22.2184C22.1996 9.62968 22.1778 9.61456 22.1719 9.59608L21.8575 8.62616C21.8516 8.60768 21.8415 8.60768 21.8351 8.62616L21.5206 9.59636C21.5145 9.61456 21.4937 9.62996 21.4741 9.62996H20.4544C20.4351 9.62996 20.4314 9.63948 20.4482 9.65096L21.2728 10.2507C21.2888 10.2622 21.2969 10.2863 21.2905 10.305L20.9749 11.2752C20.9693 11.2934 20.9766 11.2993 20.9928 11.2881L21.8177 10.6884C21.8339 10.6772 21.8586 10.6772 21.8745 10.6884L22.7 11.2881C22.7157 11.2996 22.7235 11.2937 22.7176 11.2752L22.4029 10.305C22.3965 10.286 22.4049 10.2619 22.42 10.2504Z" fill="#FFE000"/>
<path d="M22.42 18.9061L23.2451 18.3061C23.2614 18.2949 23.2577 18.2857 23.239 18.2857L22.2184 18.2859C22.1996 18.2859 22.1778 18.27 22.1719 18.2521L21.8575 17.2824C21.8516 17.2639 21.8415 17.2639 21.8351 17.2824L21.5206 18.2521C21.5145 18.27 21.4937 18.2859 21.4741 18.2859H20.4544C20.4351 18.2859 20.4314 18.2952 20.4482 18.3064L21.2728 18.9061C21.2888 18.9176 21.2969 18.9423 21.2905 18.9607L20.9749 19.9307C20.9693 19.9489 20.9766 19.955 20.9928 19.9435L21.8177 19.3432C21.8339 19.3317 21.8586 19.3317 21.8745 19.3432L22.7 19.9435C22.7157 19.955 22.7235 19.9494 22.7176 19.9307L22.4026 18.9602C22.3965 18.942 22.4049 18.9176 22.42 18.9061Z" fill="#FFE000"/>
<path d="M19.2577 22.0745L20.0823 21.4744C20.0991 21.4624 20.0955 21.4534 20.0764 21.4534H19.0555C19.0365 21.4534 19.0152 21.4383 19.0091 21.4198L18.6941 20.4502C18.6882 20.432 18.6778 20.432 18.6722 20.4502L18.3572 21.4201C18.3513 21.4383 18.3295 21.4537 18.3107 21.4537H17.2904C17.2711 21.4537 17.2675 21.4629 17.2837 21.4744L18.1094 22.0745C18.1254 22.0859 18.1321 22.11 18.1271 22.1279L17.8112 23.0987C17.8053 23.1166 17.8137 23.1231 17.8289 23.1113L18.6535 22.5113C18.6705 22.5003 18.6946 22.5003 18.7109 22.5113L19.5369 23.1113C19.5531 23.1231 19.5598 23.1172 19.5542 23.0987L19.2392 22.1279C19.2331 22.1097 19.2417 22.0857 19.2577 22.0745Z" fill="#FFE000"/>
<path d="M19.2577 7.08199L20.0823 6.48251C20.0991 6.47075 20.0955 6.46151 20.0764 6.46151L19.0555 6.46179C19.0365 6.46179 19.0152 6.44611 19.0091 6.42791L18.6941 5.45799C18.6882 5.43979 18.6778 5.43979 18.6722 5.45799L18.3572 6.42791C18.3513 6.44639 18.3295 6.46179 18.3107 6.46179H17.2904C17.2711 6.46179 17.2675 6.47103 17.2837 6.48251L18.1094 7.08199C18.1254 7.09347 18.1321 7.11811 18.1271 7.13631L17.8112 8.10679C17.8053 8.12499 17.8137 8.13087 17.8289 8.11939L18.6535 7.51963C18.6705 7.50815 18.6946 7.50815 18.7109 7.51963L19.5369 8.11939C19.5531 8.13087 19.5598 8.12527 19.5542 8.10679L19.2392 7.13631C19.2331 7.11811 19.2417 7.09347 19.2577 7.08199Z" fill="#FFE000"/>
</svg>
