<svg width="27" height="26" viewBox="0 0 27 26" fill="none" xmlns="http://www.w3.org/2000/svg">
<path d="M18.7115 12.9277H24.4865C25.5168 12.9277 26.053 13.3665 26.053 15.7497C26.053 18.133 25.5167 18.5718 24.4865 18.5718H18.7115C17.1346 18.5718 15.8564 17.3264 15.8564 15.7497C15.8564 14.1731 17.1346 12.9277 18.7115 12.9277Z" fill="#FF6805"/>
<path d="M17.2236 15.6538C17.2236 16.4755 17.8898 17.1418 18.7116 17.1418C19.5332 17.1418 20.1993 16.4755 20.1993 15.6538C20.1993 14.8321 19.5332 14.166 18.7116 14.166C17.8898 14.166 17.2236 14.8321 17.2236 15.6538Z" fill="#F5F5F5"/>
<path d="M14.5201 15.744C14.5201 13.4327 16.4005 11.5853 18.7118 11.5853H25.1578V8.45791C25.1578 7.35369 24.1523 6.5353 23.048 6.5353C20.8944 6.5353 6.78244 6.5353 4.6305 6.5353C3.26298 6.5353 2.27045 5.83526 2.27045 4.88349C2.27045 3.93826 3.24094 3.26769 4.6305 3.26769H6.68482L12.5216 1.48535H4.6305C2.23029 1.48535 0.502197 2.84878 0.502197 4.81178V21.7954C0.502197 22.7494 1.02086 23.6835 1.93745 24.3231C2.97988 25.0503 4.0816 25.2498 5.27993 25.2498H23.0399C24.1473 25.2498 25.1578 24.3155 25.1578 23.2081V19.9028H18.7118C16.4005 19.9028 14.5201 18.0553 14.5201 15.744Z" fill="#2947F2"/>
<path d="M22.8571 5.15713L22.0295 0.99609C21.9277 0.477787 21.3996 0.132846 20.8947 0.287018L4.85522 5.15713H22.8571Z" fill="#FF6805"/>
</svg>
