<svg width="18" height="18" viewBox="0 0 18 18" fill="none" xmlns="http://www.w3.org/2000/svg">
<path fill-rule="evenodd" clip-rule="evenodd" d="M14.625 8.31152C14.625 11.4181 12.1066 13.9365 9 13.9365C5.89339 13.9365 3.375 11.4181 3.375 8.31152C3.375 5.20492 5.89339 2.68652 9 2.68652C12.1066 2.68652 14.625 5.20492 14.625 8.31152ZM15.75 8.31152C15.75 12.0395 12.728 15.0615 9 15.0615C5.27208 15.0615 2.25 12.0395 2.25 8.31152C2.25 4.5836 5.27208 1.56152 9 1.56152C12.728 1.56152 15.75 4.5836 15.75 8.31152ZM8.4375 9.43652V5.49902H9.5625V9.43652H8.4375ZM8.4375 11.124V9.99902H9.5625V11.124H8.4375Z" fill="#D92D20"/>
</svg>
