<svg width="23" height="22" viewBox="0 0 23 22" fill="none" xmlns="http://www.w3.org/2000/svg">
<path fill-rule="evenodd" clip-rule="evenodd" d="M12.4588 2.07488C12.743 2.23729 12.9785 2.47284 13.1409 2.75707L20.9818 16.4785C21.4841 17.3576 21.1787 18.4775 20.2996 18.9799C20.0226 19.1382 19.7091 19.2215 19.39 19.2215H3.70833C2.69581 19.2215 1.875 18.4006 1.875 17.3881C1.875 17.0691 1.95826 16.7555 2.11655 16.4785L9.95739 2.75707C10.4597 1.87795 11.5796 1.57252 12.4588 2.07488ZM11.5492 3.66665L3.70833 17.3881H19.39L11.5492 3.66665ZM11.5 13.5205C12.1548 13.5205 12.6458 14.0045 12.6458 14.6645C12.6458 15.3245 12.1548 15.8085 11.5 15.8085C10.8304 15.8085 10.3542 15.3245 10.3542 14.6498C10.3542 14.0045 10.8452 13.5205 11.5 13.5205ZM12.4167 6.41634V11.9163H10.5833V6.41634H12.4167Z" fill="black"/>
</svg>
