<svg width="14" height="14" viewBox="0 0 14 14" fill="none" xmlns="http://www.w3.org/2000/svg">
<path d="M7.10264 1.17969C3.75358 1.17969 1.0293 3.90373 1.0293 7.25303C1.0293 10.6018 3.75334 13.3264 7.10264 13.3264C10.4514 13.3264 13.176 10.6018 13.176 7.25303C13.1757 3.90373 10.4512 1.17969 7.10264 1.17969ZM7.84347 10.5979C7.84347 10.7705 7.76889 10.9273 7.62221 11.0634C7.47725 11.198 7.28316 11.2659 7.0451 11.2659C6.79989 11.2659 6.59764 11.1985 6.44478 11.0649C6.28822 10.9288 6.2092 10.7715 6.2092 10.5979V10.2993C6.2092 10.1257 6.28871 9.96843 6.44478 9.83236C6.59764 9.69926 6.79989 9.63184 7.0451 9.63184C7.28316 9.63184 7.47725 9.70024 7.62221 9.83434C7.76889 9.9704 7.84347 10.1272 7.84347 10.2993V10.5979ZM9.48861 6.12474C9.39255 6.31291 9.26982 6.47837 9.12363 6.61715C8.98015 6.75272 8.82359 6.87496 8.65765 6.9809C8.49886 7.08165 8.34946 7.19129 8.21364 7.30563C8.08054 7.41799 7.96917 7.54344 7.88199 7.67901C7.79902 7.80816 7.75679 7.96991 7.75679 8.15882V8.3465C7.75679 8.47096 7.6958 8.6011 7.57529 8.73469C7.4533 8.86928 7.29007 8.94163 7.09103 8.94978L7.04979 8.95077C6.84779 8.95077 6.68333 8.89299 6.56084 8.77816C6.42947 8.65567 6.36304 8.51763 6.36304 8.36872C6.36304 8.02053 6.41144 7.72395 6.50726 7.48664C6.60233 7.2513 6.71963 7.04708 6.85693 6.8794C6.99374 6.71198 7.14783 6.56578 7.31476 6.44429C7.47429 6.32897 7.62147 6.21463 7.7526 6.10573C7.87928 6.00004 7.98818 5.88718 8.07659 5.77137C8.15758 5.66394 8.19734 5.53381 8.19734 5.37428C8.19734 5.11104 8.12598 4.92237 7.9783 4.79791C7.82915 4.67148 7.62221 4.60752 7.36415 4.60752C7.19228 4.60752 7.04461 4.61814 6.92558 4.63937C6.80927 4.65987 6.7021 4.69444 6.60603 4.74235C6.51121 4.78927 6.42206 4.85496 6.34057 4.93645C6.25513 5.02189 6.16524 5.1298 6.07288 5.25772C5.98991 5.37453 5.86668 5.46269 5.70741 5.51998C5.54393 5.579 5.36242 5.56319 5.17302 5.47256C5.00287 5.38761 4.89891 5.27674 4.86335 5.14215C4.83001 5.01868 4.83001 4.88903 4.86286 4.75766C4.88706 4.64579 4.95398 4.50775 5.06782 4.33909C5.17919 4.17364 5.33798 4.01288 5.53998 3.86051C5.74099 3.70889 5.99608 3.57628 6.29661 3.46713C6.59961 3.35773 6.96213 3.30217 7.37502 3.30217C7.78198 3.30217 8.13511 3.36366 8.42404 3.4854C8.71444 3.60789 8.95176 3.77112 9.12882 3.97114C9.30538 4.17092 9.43552 4.40033 9.51602 4.6532C9.59554 4.9036 9.63604 5.16487 9.63604 5.43009C9.63604 5.69901 9.5864 5.93336 9.48861 6.12474Z" fill="#A3A5AA"/>
</svg>
