<svg width="160" height="141" viewBox="0 0 160 141" fill="none" xmlns="http://www.w3.org/2000/svg">
<path d="M64.5079 28.131C66.3417 28.131 67.8283 26.6444 67.8283 24.8106C67.8283 22.9768 66.3417 21.4902 64.5079 21.4902C62.6741 21.4902 61.1875 22.9768 61.1875 24.8106C61.1875 26.6444 62.6741 28.131 64.5079 28.131Z" fill="#05F2F2"/>
<path d="M47.086 54.0197C48.9198 54.0197 50.4064 52.5331 50.4064 50.6993C50.4064 48.8655 48.9198 47.3789 47.086 47.3789C45.2522 47.3789 43.7656 48.8655 43.7656 50.6993C43.7656 52.5331 45.2522 54.0197 47.086 54.0197Z" fill="#FF6805"/>
<path d="M31.5196 95.2375C33.3534 95.2375 34.84 93.7509 34.84 91.9171C34.84 90.0833 33.3534 88.5967 31.5196 88.5967C29.6858 88.5967 28.1992 90.0833 28.1992 91.9171C28.1992 93.7509 29.6858 95.2375 31.5196 95.2375Z" fill="#05F2F2"/>
<path d="M126.109 95.2375C127.943 95.2375 129.43 93.7509 129.43 91.9171C129.43 90.0833 127.943 88.5967 126.109 88.5967C124.276 88.5967 122.789 90.0833 122.789 91.9171C122.789 93.7509 124.276 95.2375 126.109 95.2375Z" fill="#05F2F2"/>
<path d="M32.6608 47.517C33.865 47.517 34.8412 46.5408 34.8412 45.3366C34.8412 44.1324 33.865 43.1562 32.6608 43.1562C31.4567 43.1562 30.4805 44.1324 30.4805 45.3366C30.4805 46.5408 31.4567 47.517 32.6608 47.517Z" fill="#05F2F2"/>
<path d="M102.024 26.2748C102.831 26.2748 103.486 25.6204 103.486 24.8132C103.486 24.006 102.831 23.3516 102.024 23.3516C101.217 23.3516 100.562 24.006 100.562 24.8132C100.562 25.6204 101.217 26.2748 102.024 26.2748Z" fill="#2947F2"/>
<path d="M34.8405 115.252C36.0447 115.252 37.0209 114.276 37.0209 113.072C37.0209 111.868 36.0447 110.892 34.8405 110.892C33.6363 110.892 32.6602 111.868 32.6602 113.072C32.6602 114.276 33.6363 115.252 34.8405 115.252Z" fill="#FF6805"/>
<path d="M115.958 99.5932C117.162 99.5932 118.138 98.617 118.138 97.4128C118.138 96.2086 117.162 95.2324 115.958 95.2324C114.754 95.2324 113.777 96.2086 113.777 97.4128C113.777 98.617 114.754 99.5932 115.958 99.5932Z" fill="#FF6805"/>
<path d="M95.9141 43.9982C97.748 43.9982 99.2345 42.5116 99.2345 40.6778C99.2345 38.844 97.748 37.3574 95.9141 37.3574C94.0803 37.3574 92.5938 38.844 92.5938 40.6778C92.5938 42.5116 94.0803 43.9982 95.9141 43.9982Z" fill="#05F2F2"/>
<ellipse cx="79.6992" cy="127.958" rx="79.6914" ry="11.3046" fill="#F5F7FA"/>
<path d="M77.1509 32.6484C78.3247 30.7605 81.0725 30.7605 82.2463 32.6484L97.853 57.7496C98.266 58.4138 98.9221 58.8905 99.6815 59.078L128.377 66.1642C130.535 66.6972 131.384 69.3104 129.951 71.0102L110.902 93.6097C110.397 94.2078 110.147 94.9791 110.203 95.7593L112.331 125.24C112.491 127.457 110.268 129.072 108.209 128.235L80.8287 117.101C80.1041 116.806 79.2931 116.806 78.5685 117.101L51.1884 128.235C49.129 129.072 46.906 127.457 47.0661 125.24L49.1941 95.7593C49.2504 94.9791 48.9998 94.2078 48.4957 93.6098L29.4458 71.0102C28.013 69.3104 28.8621 66.6972 31.0204 66.1642L59.7157 59.078C60.4751 58.8905 61.1312 58.4138 61.5442 57.7496L77.1509 32.6484Z" fill="url(#paint0_linear_437_9269)"/>
<path d="M68.3518 86.347L75.6365 93.7216L91.0479 75.627" stroke="white" stroke-width="4" stroke-linecap="round" stroke-linejoin="round"/>
<path d="M27.0089 20.8409C27.0089 20.8409 36.438 20.2315 37.0474 29.6607C37.6569 39.0898 47.086 38.4804 47.086 38.4804" stroke="#FF6805" stroke-width="4" stroke-linecap="round" stroke-linejoin="round"/>
<path d="M128.233 36.214C128.233 36.214 118.804 35.6045 118.195 45.0337C117.585 54.4629 108.156 53.8534 108.156 53.8534" stroke="#FF6805" stroke-width="4" stroke-linecap="round" stroke-linejoin="round"/>
<path d="M110.871 33.7539C110.871 33.7539 107.896 34.5136 108.656 37.4881C109.416 40.4626 106.441 41.2224 106.441 41.2224" stroke="#2947F2" stroke-width="2.6" stroke-linecap="round" stroke-linejoin="round"/>
<path d="M115.047 106.346C115.047 106.346 115.023 108.735 117.412 108.759C119.801 108.782 119.778 111.171 119.778 111.171" fill="#05F2F2"/>
<path d="M115.047 106.346C115.047 106.346 115.023 108.735 117.412 108.759C119.801 108.782 119.778 111.171 119.778 111.171" stroke="url(#paint1_linear_437_9269)" stroke-width="1.8" stroke-linecap="round" stroke-linejoin="round"/>
<path d="M34.8907 100.598C34.8907 100.598 34.8672 102.987 37.256 103.011C39.6448 103.034 39.6213 105.423 39.6213 105.423" stroke="#2947F2" stroke-width="1.8" stroke-linecap="round" stroke-linejoin="round"/>
<path d="M55.9089 34.6126C55.9089 34.6126 58.5501 36.1774 56.9853 38.8186C55.4205 41.4599 58.0618 43.0247 58.0618 43.0247" stroke="#2947F2" stroke-width="2.6" stroke-linecap="round" stroke-linejoin="round"/>
<path d="M93.2473 2.6229C93.2473 2.6229 84.7448 3.95452 86.0764 12.4571C87.408 20.9596 78.9054 22.2913 78.9054 22.2913" stroke="#FF6805" stroke-width="4" stroke-linecap="round" stroke-linejoin="round"/>
<defs>
<linearGradient id="paint0_linear_437_9269" x1="118.957" y1="28.5508" x2="95.831" y2="153.02" gradientUnits="userSpaceOnUse">
<stop stop-color="#2947F2"/>
<stop offset="1" stop-color="#2320E6"/>
</linearGradient>
<linearGradient id="paint1_linear_437_9269" x1="115.109" y1="110.766" x2="120.5" y2="108.81" gradientUnits="userSpaceOnUse">
<stop stop-color="#15F3FF"/>
<stop offset="1" stop-color="#05F2F2"/>
</linearGradient>
</defs>
</svg>
