<svg width="24" height="22" viewBox="0 0 24 22" fill="none" xmlns="http://www.w3.org/2000/svg">
<path d="M18.5194 3.32812V18.8062C18.5194 19.8381 17.6751 20.6824 16.6432 20.6824H7.7316C6.69973 20.6824 5.85547 19.8381 5.85547 18.8062V3.32812" stroke="#2947F2" stroke-miterlimit="10" stroke-linecap="round" stroke-linejoin="round"/>
<path d="M14.2028 11.4195C14.2028 11.4195 15.127 11.2094 15.127 9.23512C15.127 7.72289 14.2868 7.05078 13.5307 7.05078C12.7746 7.05078 12.2705 7.93292 12.2705 9.23512C12.2705 10.9574 11.6824 11.4195 11.0103 11.4195C10.0862 11.4195 9.41406 10.3693 9.41406 9.23512C9.41406 8.10095 10.0442 7.1768 10.3382 7.05078" stroke="#FF6805" stroke-miterlimit="10" stroke-linecap="round" stroke-linejoin="round"/>
<path d="M16.1766 9.40234H8.19531" stroke="#FF6805" stroke-miterlimit="10" stroke-linecap="round" stroke-linejoin="round"/>
<path d="M3.83764 7.07762C2.28983 7.07762 1.02344 5.81123 1.02344 4.26342C1.02344 2.71561 2.28983 1.44922 3.83764 1.44922H20.7229C22.2707 1.44922 23.4902 2.71561 23.4902 4.31032C23.4902 5.90504 22.13 7.07762 20.5821 7.07762" stroke="#2947F2" stroke-miterlimit="10" stroke-linecap="round" stroke-linejoin="round"/>
</svg>
