<svg width="36" height="37" viewBox="0 0 36 37" fill="none" xmlns="http://www.w3.org/2000/svg">
<g clip-path="url(#clip0_7743_19991)">
<path d="M40.3198 2.64062H-4.31934V35.1054H40.3198V2.64062Z" fill="white"/>
<path d="M40.3198 5.68359H-4.31934V10.7562H40.3198V5.68359Z" fill="#2A499F"/>
<path d="M40.3198 26.9883H-4.31934V32.0609H40.3198V26.9883Z" fill="#2A499F"/>
<path d="M22.0586 18.8725L24.0877 15.3581H20.0295L18.0004 11.8438L15.9713 15.3581H11.9131L13.9422 18.8725L11.9131 22.3869H15.9713L18.0004 25.9012L20.0295 22.3869H24.0877L22.0586 18.8725ZM22.1547 16.4742L21.4143 17.7566L20.6738 16.4742H22.1547ZM20.7699 18.8725L19.3852 21.271H16.6156L15.2308 18.8725L16.6156 16.4742H19.3852L20.7699 18.8725ZM18.0004 14.0757L18.7409 15.3581H17.2599L18.0004 14.0757ZM13.846 16.4742H15.3269L14.5865 17.7566L13.846 16.4742ZM13.846 21.271L14.5865 19.9884L15.327 21.271H13.846ZM18.0004 23.6694L17.2599 22.3869H18.7409L18.0004 23.6694ZM21.4142 19.9884L22.1547 21.271H20.6737L21.4142 19.9884Z" fill="#2A499F"/>
</g>
<rect x="2.2998" y="3.14062" width="31.4" height="31.4" rx="15.7" stroke="white"/>
<defs>
<clipPath id="clip0_7743_19991">
<rect x="1.7998" y="2.64062" width="32.4" height="32.4" rx="16.2" fill="white"/>
</clipPath>
</defs>
</svg>
