<svg width="34" height="34" viewBox="0 0 34 34" fill="none" xmlns="http://www.w3.org/2000/svg">
<g id="Flags">
<g clip-path="url(#clip0_9729_18875)">
<g id="Group">
<g id="Group_2">
<path id="Vector" d="M71.8789 0.640625H-17.041V33.0406H71.8789V0.640625Z" fill="white"/>
<path id="Vector_2" d="M71.8789 0.640625H-17.041V4.24062H71.8789V0.640625Z" fill="#B22234"/>
<path id="Vector_3" d="M71.8789 7.83984H-17.041V11.4399H71.8789V7.83984Z" fill="#B22234"/>
<path id="Vector_4" d="M71.8789 15.0391H-17.041V18.6391H71.8789V15.0391Z" fill="#B22234"/>
<path id="Vector_5" d="M71.8789 22.2422H-17.041V25.8422H71.8789V22.2422Z" fill="#B22234"/>
<path id="Vector_6" d="M71.8789 29.4414H-17.041V33.0414H71.8789V29.4414Z" fill="#B22234"/>
<path id="Vector_7" d="M18.5269 0.640625H-17.041V18.6407H18.5269V0.640625Z" fill="#3C3B6E"/>
<path id="Vector_8" d="M12.5362 2.07031L12.2126 3.06674H11.165L12.0124 3.68228L11.6889 4.67825L12.5362 4.06272L13.3835 4.67825L13.0599 3.68218L13.9069 3.06674H12.8598L12.5362 2.07031Z" fill="white"/>
<path id="Vector_9" d="M9.58758 4.59766L9.26403 5.59366H8.2168L9.06412 6.20923L8.74032 7.20524L9.58771 6.58964L10.4349 7.20524L10.1113 6.20923L10.9586 5.59366H9.91115L9.58758 4.59766Z" fill="white"/>
<path id="Vector_10" d="M15.4849 4.59766L15.1614 5.59366H14.1143L14.9615 6.2092L14.6377 7.20524L15.4851 6.58964L16.3322 7.20524L16.0087 6.2093L16.8561 5.59366H15.8088L15.4849 4.59766Z" fill="white"/>
<path id="Vector_11" d="M6.63963 7.125L6.31605 8.12101H5.26855L6.11598 8.73661L5.79237 9.73291L6.6395 9.11734L7.48685 9.73291L7.16298 8.73661L8.01037 8.12101H6.96314L6.63963 7.125ZM6.63943 8.56664H6.6394L6.6395 8.56648L6.63953 8.56657L6.63943 8.56664Z" fill="white"/>
<path id="Vector_12" d="M12.5372 7.125L12.2136 8.12101H11.166L12.0135 8.73664L11.6899 9.73291L12.5372 9.11741L13.3844 9.73291L13.0607 8.73654L13.9078 8.12101H12.8607L12.5372 7.125ZM12.5372 8.56664L12.5371 8.56657L12.5372 8.56648L12.5372 8.56664H12.5372Z" fill="white"/>
<path id="Vector_13" d="M3.69099 9.65234L3.36748 10.6483H2.32031L3.16735 11.2638L2.84373 12.2598L3.69099 11.6443L4.53826 12.2598L4.21471 11.2639L5.06213 10.6483H4.01457L3.69099 9.65234Z" fill="white"/>
<path id="Vector_14" d="M9.58758 9.65234L9.26403 10.6483H8.2168L9.06415 11.2638L8.74032 12.2598L9.58771 11.6442L10.4349 12.2598L10.1113 11.2638L10.9586 10.6483H9.91115L9.58758 9.65234Z" fill="white"/>
<path id="Vector_15" d="M15.4849 9.65234L15.1614 10.6483H14.1143L14.9615 11.2638L14.6377 12.2598L15.4851 11.6442L16.3322 12.2598L16.0087 11.2639L16.8561 10.6483H15.8088L15.4849 9.65234Z" fill="white"/>
<path id="Vector_16" d="M6.96317 13.1756L6.63963 12.1797L6.31605 13.1756H5.26855L6.11591 13.7912L5.79233 14.7871L6.6395 14.1715L7.48685 14.7871L7.16308 13.7912L8.01037 13.1756H6.96317Z" fill="white"/>
<path id="Vector_17" d="M12.8598 13.1756L12.5362 12.1797L12.2126 13.1756H11.165L12.0125 13.7913L11.6889 14.7871L12.5362 14.1716L13.3835 14.7871L13.0599 13.7911L13.9069 13.1756H12.8598Z" fill="white"/>
<path id="Vector_18" d="M4.01457 15.7029L3.69099 14.707L3.36745 15.7029H2.32031L3.16731 16.3185L2.84373 17.3145L3.69099 16.699L4.53826 17.3145L4.21471 16.3186L5.06213 15.7029H4.01457Z" fill="white"/>
<path id="Vector_19" d="M9.91115 15.7029L9.58758 14.707L9.26403 15.7029H8.2168L9.06415 16.3186L8.74032 17.3145L9.58771 16.6989L10.4349 17.3145L10.1113 16.3186L10.9586 15.7029H9.91115Z" fill="white"/>
<path id="Vector_20" d="M15.8088 15.7029L15.4849 14.707L15.1614 15.7029H14.1143L14.9615 16.3185L14.6377 17.3145L15.4851 16.6989L16.3322 17.3145L16.0087 16.3186L16.8561 15.7029H15.8088Z" fill="white"/>
</g>
</g>
</g>
<rect x="1.2998" y="1.14062" width="31.4" height="31.4" rx="15.7" stroke="white"/>
</g>
<defs>
<clipPath id="clip0_9729_18875">
<rect x="0.799805" y="0.640625" width="32.4" height="32.4" rx="16.2" fill="white"/>
</clipPath>
</defs>
</svg>
