<svg width="13" height="15" viewBox="0 0 13 15" fill="none" xmlns="http://www.w3.org/2000/svg">
<path d="M6.36523 1.29688C9.57783 1.29698 12.2305 4.06271 12.2305 7.53516C12.2305 11.0076 9.57782 13.7733 6.36523 13.7734C3.15247 13.7734 0.500016 11.0077 0.5 7.53516C0.5 4.06264 3.15246 1.29688 6.36523 1.29688Z" stroke="#586D8E"/>
<path d="M6.98497 9.44458H5.82031V10.6328H6.98497V9.44458Z" fill="#586D8E"/>
<path d="M7.61038 4.90616C7.44712 4.75426 7.25719 4.63805 7.04071 4.55756C6.82402 4.47726 6.59764 4.43701 6.36129 4.43701C6.11362 4.43701 5.88301 4.47886 5.66924 4.56209C5.45529 4.64556 5.26826 4.76313 5.10792 4.91506C4.94757 5.06699 4.82102 5.2546 4.7282 5.47791C4.63531 5.70128 4.58887 5.95004 4.58887 6.22386H5.68612C5.68612 6.01553 5.74226 5.83975 5.85482 5.6967C5.9673 5.55388 6.13612 5.48249 6.36126 5.48249C6.57504 5.48249 6.74237 5.55253 6.86343 5.69238C6.98437 5.83246 7.04486 6.00671 7.04486 6.21501C7.04486 6.31646 7.02086 6.41764 6.97308 6.51884C6.92529 6.62028 6.86761 6.71851 6.80005 6.81356L6.27145 7.53034C6.1589 7.68522 5.85479 8.13331 5.85479 8.59151V8.85965H6.95199V8.67203C6.95199 8.5947 6.96597 8.51421 6.99424 8.43071C7.02226 8.34749 7.15468 8.14371 7.19981 8.08412L7.7285 7.34072C7.84666 7.17403 7.94494 7.00278 8.02391 6.82698C8.10263 6.65142 8.14206 6.45038 8.14206 6.22389C8.14206 5.93804 8.09417 5.68488 7.99855 5.46452C7.90287 5.24413 7.77346 5.05785 7.61038 4.90616Z" fill="#586D8E"/>
</svg>
