<svg width="19" height="20" viewBox="0 0 19 20" fill="none" xmlns="http://www.w3.org/2000/svg">
<path d="M9.70151 5.68839C9.57263 5.80905 9.50022 5.97268 9.50022 6.14329C9.50022 6.31391 9.57263 6.47754 9.70151 6.5982L12.653 9.36045H4.68751C4.50517 9.36045 4.3303 9.42824 4.20137 9.54891C4.07243 9.66958 4 9.83324 4 10.0039C4 10.1745 4.07243 10.3382 4.20137 10.4589C4.3303 10.5795 4.50517 10.6473 4.68751 10.6473H12.653L9.70151 13.4096C9.57628 13.5309 9.50698 13.6935 9.50855 13.8622C9.51011 14.0309 9.58242 14.1922 9.70989 14.3115C9.83736 14.4308 10.0098 14.4985 10.1901 14.5C10.3703 14.5014 10.544 14.4366 10.6737 14.3194L14.7987 10.4588C14.9276 10.3381 15 10.1745 15 10.0039C15 9.83327 14.9276 9.66964 14.7987 9.54898L10.6737 5.68839C10.5447 5.56776 10.3699 5.5 10.1876 5.5C10.0053 5.5 9.83044 5.56776 9.70151 5.68839Z" fill="#2320E6"/>
</svg>
