<svg width="38" height="38" viewBox="0 0 38 38" fill="none" xmlns="http://www.w3.org/2000/svg">
<rect x="0.5" y="0.5" width="37" height="37" rx="4.5" fill="#F6F9FD"/>
<rect x="0.5" y="0.5" width="37" height="37" rx="4.5" stroke="#DCE7F9"/>
<path d="M12.5713 10C13.0835 10 13.584 10.153 14.0086 10.4393C14.4333 10.7257 14.7628 11.1323 14.9548 11.6071H23.8204C24.9285 11.6071 25.9913 12.0474 26.7749 12.831C27.5584 13.6147 27.9987 14.6775 27.9987 15.7857C27.9987 16.8939 27.5584 17.9568 26.7749 18.7404C25.9913 19.524 24.9285 19.9643 23.8204 19.9643H14.1783C13.5816 19.9643 13.0094 20.2013 12.5874 20.6233C12.1655 21.0452 11.9285 21.6175 11.9285 22.2143C11.9285 22.811 12.1655 23.3833 12.5874 23.8053C13.0094 24.2272 13.5816 24.4643 14.1783 24.4643H23.0452C23.2689 23.9111 23.6781 23.4529 24.2026 23.1684C24.7271 22.8838 25.3342 22.7905 25.9199 22.9045C26.5056 23.0185 27.0335 23.3326 27.413 23.7931C27.7925 24.2537 28 24.8318 28 25.4286C28 26.0253 27.7925 26.6035 27.413 27.064C27.0335 27.5245 26.5056 27.8387 25.9199 27.9526C25.3342 28.0666 24.7271 27.9734 24.2026 27.6888C23.6781 27.4042 23.2689 26.9461 23.0452 26.3929H14.1783C13.0702 26.3929 12.0074 25.9526 11.2238 25.169C10.4403 24.3853 10.0001 23.3225 10.0001 22.2143C10.0001 21.1061 10.4403 20.0432 11.2238 19.2596C12.0074 18.476 13.0702 18.0357 14.1783 18.0357H23.8204C24.1159 18.0357 24.4084 17.9775 24.6814 17.8644C24.9543 17.7514 25.2024 17.5856 25.4113 17.3767C25.6202 17.1678 25.7859 16.9197 25.899 16.6468C26.012 16.3738 26.0702 16.0812 26.0702 15.7857C26.0702 15.4902 26.012 15.1977 25.899 14.9247C25.7859 14.6517 25.6202 14.4037 25.4113 14.1947C25.2024 13.9858 24.9543 13.8201 24.6814 13.707C24.4084 13.5939 24.1159 13.5357 23.8204 13.5357H14.9548C14.7799 13.9682 14.4906 14.345 14.1179 14.6256C13.7452 14.9063 13.3032 15.0802 12.8392 15.1289C12.3752 15.1775 11.9067 15.0989 11.4839 14.9016C11.0612 14.7043 10.7001 14.3957 10.4393 14.0089C10.1785 13.622 10.0278 13.1715 10.0035 12.7056C9.97917 12.2396 10.082 11.7759 10.3011 11.3639C10.5202 10.952 10.8472 10.6075 11.2471 10.3672C11.647 10.1269 12.1048 9.99999 12.5713 10Z" fill="url(#paint0_linear_39097_62765)"/>
<defs>
<linearGradient id="paint0_linear_39097_62765" x1="19" y1="10" x2="19" y2="28" gradientUnits="userSpaceOnUse">
<stop stop-color="#2320E6"/>
<stop offset="1" stop-color="#641280"/>
</linearGradient>
</defs>
</svg>
