<svg width="32" height="33" viewBox="0 0 32 33" fill="none" xmlns="http://www.w3.org/2000/svg">
<path d="M11.9997 23.1667V24.5C11.9997 25.5609 12.4211 26.5783 13.1712 27.3284C13.9214 28.0786 14.9388 28.5 15.9997 28.5C17.0605 28.5 18.078 28.0786 18.8281 27.3284C19.5782 26.5783 19.9997 25.5609 19.9997 24.5V23.1667M13.333 7.16667C13.333 6.45942 13.614 5.78115 14.1141 5.28105C14.6142 4.78095 15.2924 4.5 15.9997 4.5C16.7069 4.5 17.3852 4.78095 17.8853 5.28105C18.3854 5.78115 18.6663 6.45942 18.6663 7.16667C20.1976 7.8907 21.5029 9.01777 22.4424 10.4271C23.3819 11.8364 23.9203 13.4748 23.9997 15.1667V19.1667C24.1 19.9956 24.3936 20.7894 24.8568 21.4842C25.3199 22.1789 25.9398 22.7552 26.6663 23.1667H5.33301C6.05959 22.7552 6.67942 22.1789 7.14259 21.4842C7.60576 20.7894 7.89933 19.9956 7.99967 19.1667V15.1667C8.07909 13.4748 8.61741 11.8364 9.55694 10.4271C10.4965 9.01777 11.8018 7.8907 13.333 7.16667Z" stroke="#1E40AF" stroke-width="2" stroke-linecap="round" stroke-linejoin="round"/>
</svg>
