<svg width="24" height="24" viewBox="0 0 24 24" fill="none" xmlns="http://www.w3.org/2000/svg">
<path d="M7.05041 7.05041C7.23793 6.86293 7.49224 6.75762 7.75741 6.75762C8.02257 6.75762 8.27688 6.86293 8.46441 7.05041L12.0004 10.5864L15.5364 7.05041C15.6287 6.9549 15.739 6.87871 15.861 6.8263C15.983 6.7739 16.1142 6.74631 16.247 6.74515C16.3798 6.744 16.5115 6.7693 16.6344 6.81958C16.7573 6.86986 16.8689 6.94412 16.9628 7.03801C17.0567 7.1319 17.1309 7.24355 17.1812 7.36645C17.2315 7.48935 17.2568 7.62103 17.2557 7.75381C17.2545 7.88659 17.2269 8.01781 17.1745 8.13981C17.1221 8.26181 17.0459 8.37216 16.9504 8.46441L13.4144 12.0004L16.9504 15.5364C17.0459 15.6287 17.1221 15.739 17.1745 15.861C17.2269 15.983 17.2545 16.1142 17.2557 16.247C17.2568 16.3798 17.2315 16.5115 17.1812 16.6344C17.1309 16.7573 17.0567 16.8689 16.9628 16.9628C16.8689 17.0567 16.7573 17.1309 16.6344 17.1812C16.5115 17.2315 16.3798 17.2568 16.247 17.2557C16.1142 17.2545 15.983 17.2269 15.861 17.1745C15.739 17.1221 15.6287 17.0459 15.5364 16.9504L12.0004 13.4144L8.46441 16.9504C8.37216 17.0459 8.26181 17.1221 8.13981 17.1745C8.01781 17.2269 7.88659 17.2545 7.75381 17.2557C7.62103 17.2568 7.48935 17.2315 7.36645 17.1812C7.24355 17.1309 7.1319 17.0567 7.03801 16.9628C6.94412 16.8689 6.86986 16.7573 6.81958 16.6344C6.7693 16.5115 6.744 16.3798 6.74515 16.247C6.74631 16.1142 6.7739 15.983 6.8263 15.861C6.87871 15.739 6.9549 15.6287 7.05041 15.5364L10.5864 12.0004L7.05041 8.46441C6.86293 8.27688 6.75762 8.02257 6.75762 7.75741C6.75762 7.49224 6.86293 7.23793 7.05041 7.05041Z" fill="black"/>
</svg>
