<svg width="38" height="38" viewBox="0 0 38 38" fill="none" xmlns="http://www.w3.org/2000/svg">
<rect width="38" height="38" rx="10" fill="#2947F2"/>
<path d="M11.513 26.4875C14.025 28.8795 17.016 27.9225 18.213 26.9535C18.831 26.4525 19.11 26.1285 19.349 25.8885C20.186 25.1115 20.133 24.3335 19.589 23.7115C19.37 23.4625 17.973 22.1205 16.633 20.7445C15.939 20.0505 15.461 19.5605 15.051 19.1645C14.504 18.6185 14.025 17.9925 13.307 18.0105C12.649 18.0105 12.171 18.5905 11.572 19.1895C10.884 19.8775 10.376 20.7445 10.197 21.5225C9.658 23.7955 10.496 25.4105 11.513 26.4875ZM11.513 26.4875L9 28.9995M26.487 11.5155C23.974 9.12149 20.993 10.0955 19.797 11.0655C19.177 11.5675 18.899 11.8915 18.659 12.1315C17.822 12.9095 17.875 13.6875 18.42 14.3095C18.498 14.3995 18.73 14.6295 19.055 14.9535M26.487 11.5155C27.504 12.5925 28.353 14.2255 27.814 16.5005C27.634 17.2785 27.126 18.1455 26.438 18.8345C25.84 19.4325 25.361 20.0135 24.703 20.0135C23.985 20.0315 23.613 19.5115 23.064 18.9655M26.487 11.5155L29 9.00049M19.055 14.9535C19.636 15.5285 20.518 16.3955 21.376 17.2775C22.07 17.9715 22.654 18.5695 23.064 18.9645L21.502 20.4885M19.055 14.9535L17.512 16.5055" stroke="white" stroke-width="1.5" stroke-linecap="round" stroke-linejoin="round"/>
</svg>
