<svg width="14" height="10" viewBox="0 0 14 10" fill="none" xmlns="http://www.w3.org/2000/svg">
<path d="M11.2008 3.57183C11.2008 3.38252 11.127 3.20097 10.9957 3.06711C10.8644 2.93325 10.6863 2.85805 10.5006 2.85805H2.38616L3.99646 1.22349C4.12829 1.08908 4.20236 0.906783 4.20236 0.716702C4.20236 0.526621 4.12829 0.344325 3.99646 0.209917C3.86462 0.0755095 3.68581 1.41622e-09 3.49937 0C3.31292 -1.41622e-09 3.13411 0.0755095 3.00228 0.209917L0.201767 3.06504C0.104619 3.16542 0.0388098 3.29288 0.0126431 3.43135C-0.0135235 3.56981 0.00112503 3.71308 0.0547404 3.84307C0.107264 3.97342 0.196459 4.085 0.311084 4.16375C0.425709 4.24251 0.560634 4.28491 0.698857 4.28561H10.5006C10.6863 4.28561 10.8644 4.21041 10.9957 4.07655C11.127 3.94269 11.2008 3.76113 11.2008 3.57183ZM13.9453 6.15572C13.8927 6.02537 13.8035 5.91378 13.6889 5.83503C13.5743 5.75628 13.4394 5.71388 13.3011 5.71317H3.49937C3.31368 5.71317 3.1356 5.78837 3.0043 5.92223C2.873 6.05609 2.79924 6.23765 2.79924 6.42695C2.79924 6.61626 2.873 6.79781 3.0043 6.93167C3.1356 7.06553 3.31368 7.14074 3.49937 7.14074H11.6138L10.0035 8.7753C9.93792 8.84165 9.88584 8.9206 9.85029 9.00758C9.81475 9.09456 9.79645 9.18785 9.79645 9.28208C9.79645 9.37631 9.81475 9.4696 9.85029 9.55658C9.88584 9.64356 9.93792 9.72251 10.0035 9.78886C10.0686 9.85577 10.1461 9.90887 10.2314 9.94511C10.3167 9.98134 10.4082 10 10.5006 10C10.5931 10 10.6846 9.98134 10.7699 9.94511C10.8552 9.90887 10.9326 9.85577 10.9977 9.78886L13.7982 6.93374C13.8954 6.83336 13.9612 6.7059 13.9874 6.56744C14.0135 6.42897 13.9989 6.2857 13.9453 6.15572Z" fill="black"/>
</svg>
