<svg width="38" height="38" viewBox="0 0 38 38" fill="none" xmlns="http://www.w3.org/2000/svg">
<rect width="38" height="38" rx="10" fill="#2947F2"/>
<path d="M15.625 11.2243C15.3266 11.2243 15.0405 11.3414 14.8295 11.5497C14.6185 11.758 14.5 12.0405 14.5 12.3351C14.5 12.6298 14.6185 12.9123 14.8295 13.1206C15.0405 13.3289 15.3266 13.446 15.625 13.446C15.9234 13.446 16.2095 13.3289 16.4205 13.1206C16.6315 12.9123 16.75 12.6298 16.75 12.3351C16.75 12.0405 16.6315 11.758 16.4205 11.5497C16.2095 11.3414 15.9234 11.2243 15.625 11.2243ZM12.4413 11.2243C12.6737 10.5739 13.1047 10.0107 13.6749 9.61232C14.2451 9.21394 14.9265 9 15.625 9C16.3235 9 17.0049 9.21394 17.5751 9.61232C18.1453 10.0107 18.5763 10.5739 18.8088 11.2243H26.875C27.1734 11.2243 27.4595 11.3414 27.6705 11.5497C27.8815 11.758 28 12.0405 28 12.3351C28 12.6298 27.8815 12.9123 27.6705 13.1206C27.4595 13.3289 27.1734 13.446 26.875 13.446H18.8088C18.5763 14.0964 18.1453 14.6596 17.5751 15.058C17.0049 15.4564 16.3235 15.6703 15.625 15.6703C14.9265 15.6703 14.2451 15.4564 13.6749 15.058C13.1047 14.6596 12.6737 14.0964 12.4413 13.446H11.125C10.8266 13.446 10.5405 13.3289 10.3295 13.1206C10.1185 12.9123 10 12.6298 10 12.3351C10 12.0405 10.1185 11.758 10.3295 11.5497C10.5405 11.3414 10.8266 11.2243 11.125 11.2243H12.4413ZM22.375 17.8892C22.0766 17.8892 21.7905 18.0062 21.5795 18.2145C21.3685 18.4229 21.25 18.7054 21.25 19C21.25 19.2946 21.3685 19.5771 21.5795 19.7855C21.7905 19.9938 22.0766 20.1108 22.375 20.1108C22.6734 20.1108 22.9595 19.9938 23.1705 19.7855C23.3815 19.5771 23.5 19.2946 23.5 19C23.5 18.7054 23.3815 18.4229 23.1705 18.2145C22.9595 18.0062 22.6734 17.8892 22.375 17.8892ZM19.1912 17.8892C19.4237 17.2388 19.8547 16.6756 20.4249 16.2772C20.9951 15.8788 21.6765 15.6649 22.375 15.6649C23.0735 15.6649 23.7549 15.8788 24.3251 16.2772C24.8953 16.6756 25.3263 17.2388 25.5588 17.8892H26.875C27.1734 17.8892 27.4595 18.0062 27.6705 18.2145C27.8815 18.4229 28 18.7054 28 19C28 19.2946 27.8815 19.5771 27.6705 19.7855C27.4595 19.9938 27.1734 20.1108 26.875 20.1108H25.5588C25.3263 20.7612 24.8953 21.3244 24.3251 21.7228C23.7549 22.1212 23.0735 22.3351 22.375 22.3351C21.6765 22.3351 20.9951 22.1212 20.4249 21.7228C19.8547 21.3244 19.4237 20.7612 19.1912 20.1108H11.125C10.8266 20.1108 10.5405 19.9938 10.3295 19.7855C10.1185 19.5771 10 19.2946 10 19C10 18.7054 10.1185 18.4229 10.3295 18.2145C10.5405 18.0062 10.8266 17.8892 11.125 17.8892H19.1912ZM15.625 24.554C15.3266 24.554 15.0405 24.6711 14.8295 24.8794C14.6185 25.0877 14.5 25.3702 14.5 25.6649C14.5 25.9595 14.6185 26.242 14.8295 26.4503C15.0405 26.6586 15.3266 26.7757 15.625 26.7757C15.9234 26.7757 16.2095 26.6586 16.4205 26.4503C16.6315 26.242 16.75 25.9595 16.75 25.6649C16.75 25.3702 16.6315 25.0877 16.4205 24.8794C16.2095 24.6711 15.9234 24.554 15.625 24.554ZM12.4413 24.554C12.6737 23.9036 13.1047 23.3404 13.6749 22.942C14.2451 22.5436 14.9265 22.3297 15.625 22.3297C16.3235 22.3297 17.0049 22.5436 17.5751 22.942C18.1453 23.3404 18.5763 23.9036 18.8088 24.554H26.875C27.1734 24.554 27.4595 24.6711 27.6705 24.8794C27.8815 25.0877 28 25.3702 28 25.6649C28 25.9595 27.8815 26.242 27.6705 26.4503C27.4595 26.6586 27.1734 26.7757 26.875 26.7757H18.8088C18.5763 27.4261 18.1453 27.9893 17.5751 28.3877C17.0049 28.7861 16.3235 29 15.625 29C14.9265 29 14.2451 28.7861 13.6749 28.3877C13.1047 27.9893 12.6737 27.4261 12.4413 26.7757H11.125C10.8266 26.7757 10.5405 26.6586 10.3295 26.4503C10.1185 26.242 10 25.9595 10 25.6649C10 25.3702 10.1185 25.0877 10.3295 24.8794C10.5405 24.6711 10.8266 24.554 11.125 24.554H12.4413Z" fill="white"/>
</svg>
