<svg width="40" height="40" viewBox="0 0 40 40" fill="none" xmlns="http://www.w3.org/2000/svg">
<rect width="40" height="40" rx="10" fill="white"/>
<path d="M16.5 22C16.8315 22 17.1495 21.8683 17.3839 21.6339C17.6183 21.3995 17.75 21.0815 17.75 20.75C17.75 20.4185 17.6183 20.1005 17.3839 19.8661C17.1495 19.6317 16.8315 19.5 16.5 19.5C16.1685 19.5 15.8505 19.6317 15.6161 19.8661C15.3817 20.1005 15.25 20.4185 15.25 20.75C15.25 21.0815 15.3817 21.3995 15.6161 21.6339C15.8505 21.8683 16.1685 22 16.5 22ZM16.5 25.5C16.8315 25.5 17.1495 25.3683 17.3839 25.1339C17.6183 24.8995 17.75 24.5815 17.75 24.25C17.75 23.9185 17.6183 23.6005 17.3839 23.3661C17.1495 23.1317 16.8315 23 16.5 23C16.1685 23 15.8505 23.1317 15.6161 23.3661C15.3817 23.6005 15.25 23.9185 15.25 24.25C15.25 24.5815 15.3817 24.8995 15.6161 25.1339C15.8505 25.3683 16.1685 25.5 16.5 25.5ZM21.25 20.75C21.25 21.0815 21.1183 21.3995 20.8839 21.6339C20.6495 21.8683 20.3315 22 20 22C19.6685 22 19.3505 21.8683 19.1161 21.6339C18.8817 21.3995 18.75 21.0815 18.75 20.75C18.75 20.4185 18.8817 20.1005 19.1161 19.8661C19.3505 19.6317 19.6685 19.5 20 19.5C20.3315 19.5 20.6495 19.6317 20.8839 19.8661C21.1183 20.1005 21.25 20.4185 21.25 20.75ZM20 25.5C20.3315 25.5 20.6495 25.3683 20.8839 25.1339C21.1183 24.8995 21.25 24.5815 21.25 24.25C21.25 23.9185 21.1183 23.6005 20.8839 23.3661C20.6495 23.1317 20.3315 23 20 23C19.6685 23 19.3505 23.1317 19.1161 23.3661C18.8817 23.6005 18.75 23.9185 18.75 24.25C18.75 24.5815 18.8817 24.8995 19.1161 25.1339C19.3505 25.3683 19.6685 25.5 20 25.5ZM24.75 20.75C24.75 21.0815 24.6183 21.3995 24.3839 21.6339C24.1495 21.8683 23.8315 22 23.5 22C23.1685 22 22.8505 21.8683 22.6161 21.6339C22.3817 21.3995 22.25 21.0815 22.25 20.75C22.25 20.4185 22.3817 20.1005 22.6161 19.8661C22.8505 19.6317 23.1685 19.5 23.5 19.5C23.8315 19.5 24.1495 19.6317 24.3839 19.8661C24.6183 20.1005 24.75 20.4185 24.75 20.75Z" fill="#1D4ED8"/>
<path fill-rule="evenodd" clip-rule="evenodd" d="M16 11.25C16.1989 11.25 16.3897 11.329 16.5303 11.4697C16.671 11.6103 16.75 11.8011 16.75 12V12.75H23.25V12C23.25 11.8011 23.329 11.6103 23.4697 11.4697C23.6103 11.329 23.8011 11.25 24 11.25C24.1989 11.25 24.3897 11.329 24.5303 11.4697C24.671 11.6103 24.75 11.8011 24.75 12V12.758C24.902 12.762 25.0437 12.7693 25.175 12.78C25.555 12.81 25.911 12.878 26.248 13.05C26.7656 13.3137 27.1863 13.7344 27.45 14.252C27.622 14.589 27.69 14.945 27.72 15.325C27.75 15.69 27.75 16.135 27.75 16.67V24.33C27.75 24.865 27.75 25.31 27.72 25.675C27.69 26.055 27.622 26.411 27.45 26.748C27.1866 27.2654 26.7662 27.6862 26.249 27.95C25.911 28.122 25.555 28.19 25.175 28.22C24.81 28.25 24.365 28.25 23.831 28.25H16.17C15.635 28.25 15.19 28.25 14.825 28.22C14.445 28.19 14.089 28.122 13.752 27.95C13.2348 27.6869 12.814 27.2668 12.55 26.75C12.378 26.412 12.31 26.056 12.28 25.676C12.25 25.311 12.25 24.866 12.25 24.332V16.67C12.25 16.135 12.25 15.69 12.28 15.325C12.31 14.945 12.378 14.589 12.55 14.252C12.8137 13.7344 13.2344 13.3137 13.752 13.05C14.089 12.878 14.445 12.81 14.825 12.78C14.9563 12.7693 15.098 12.762 15.25 12.758V12C15.25 11.9015 15.2694 11.804 15.3071 11.713C15.3448 11.622 15.4 11.5393 15.4697 11.4697C15.5393 11.4 15.622 11.3448 15.713 11.3071C15.804 11.2694 15.9015 11.25 16 11.25ZM15.25 14.5V14.258C15.1489 14.2611 15.0478 14.2668 14.947 14.275C14.66 14.298 14.523 14.34 14.433 14.386C14.1974 14.5059 14.0059 14.6974 13.886 14.933C13.84 15.023 13.798 15.16 13.775 15.447C13.751 15.743 13.75 16.127 13.75 16.7V17.25H26.25V16.7C26.25 16.128 26.25 15.743 26.225 15.447C26.202 15.16 26.16 15.023 26.114 14.933C25.9941 14.6974 25.8026 14.5059 25.567 14.386C25.477 14.34 25.34 14.298 25.052 14.275C24.9515 14.2668 24.8508 14.2611 24.75 14.258V14.5C24.75 14.6989 24.671 14.8897 24.5303 15.0303C24.3897 15.171 24.1989 15.25 24 15.25C23.8011 15.25 23.6103 15.171 23.4697 15.0303C23.329 14.8897 23.25 14.6989 23.25 14.5V14.25H16.75V14.5C16.75 14.6989 16.671 14.8897 16.5303 15.0303C16.3897 15.171 16.1989 15.25 16 15.25C15.8011 15.25 15.6103 15.171 15.4697 15.0303C15.329 14.8897 15.25 14.6989 15.25 14.5ZM26.25 18.25H13.75V24.3C13.75 24.872 13.75 25.257 13.775 25.552C13.798 25.84 13.84 25.977 13.886 26.067C14.006 26.303 14.197 26.494 14.433 26.614C14.523 26.66 14.66 26.702 14.947 26.725C15.243 26.749 15.627 26.75 16.2 26.75H23.8C24.372 26.75 24.757 26.75 25.052 26.725C25.34 26.702 25.477 26.66 25.567 26.614C25.8026 26.4941 25.9941 26.3026 26.114 26.067C26.16 25.977 26.202 25.84 26.225 25.552C26.249 25.257 26.25 24.872 26.25 24.3V18.25Z" fill="#1D4ED8"/>
<path fill-rule="evenodd" clip-rule="evenodd" d="M17.75 15.75C17.75 15.5511 17.829 15.3603 17.9697 15.2197C18.1103 15.079 18.3011 15 18.5 15H21.5C21.6989 15 21.8897 15.079 22.0303 15.2197C22.171 15.3603 22.25 15.5511 22.25 15.75C22.25 15.9489 22.171 16.1397 22.0303 16.2803C21.8897 16.421 21.6989 16.5 21.5 16.5H18.5C18.3011 16.5 18.1103 16.421 17.9697 16.2803C17.829 16.1397 17.75 15.9489 17.75 15.75Z" fill="#1D4ED8"/>
</svg>
