<svg width="25" height="24" viewBox="0 0 25 24" fill="none" xmlns="http://www.w3.org/2000/svg">
<path d="M10.5002 6.00181C10.235 6.00181 9.98061 6.10717 9.79308 6.29471C9.60554 6.48224 9.50018 6.7366 9.50018 7.00181L9.50019 18.5918L7.21019 16.2918C7.02188 16.1035 6.76649 15.9977 6.50019 15.9977C6.23388 15.9977 5.97849 16.1035 5.79019 16.2918C5.60188 16.4801 5.49609 16.7355 5.49609 17.0018C5.49609 17.2681 5.60188 17.5235 5.79019 17.7118L9.79019 21.7118C9.93081 21.8506 10.1094 21.9446 10.3034 21.9819C10.4974 22.0193 10.6981 21.9984 10.8802 21.9218C11.0628 21.8468 11.2191 21.7194 11.3295 21.5557C11.4398 21.392 11.4992 21.1992 11.5002 21.0018L11.5002 7.00181C11.5002 6.7366 11.3948 6.48224 11.2073 6.29471C11.0198 6.10717 10.7654 6.00181 10.5002 6.00181ZM14.1202 2.08181C13.9376 2.15683 13.7812 2.28423 13.6709 2.44795C13.5606 2.61167 13.5012 2.80439 13.5002 3.00181L13.5002 17.0018C13.5002 17.267 13.6055 17.5214 13.7931 17.7089C13.9806 17.8965 14.235 18.0018 14.5002 18.0018C14.7654 18.0018 15.0198 17.8965 15.2073 17.7089C15.3948 17.5214 15.5002 17.267 15.5002 17.0018L15.5002 5.41181L17.7902 7.71181C17.8831 7.80554 17.9937 7.87994 18.1156 7.93071C18.2375 7.98147 18.3682 8.00761 18.5002 8.00761C18.6322 8.00761 18.7629 7.98147 18.8848 7.93071C19.0066 7.87994 19.1172 7.80554 19.2102 7.71181C19.3039 7.61885 19.3783 7.50825 19.4291 7.38639C19.4798 7.26453 19.506 7.13382 19.506 7.00181C19.506 6.8698 19.4798 6.7391 19.4291 6.61724C19.3783 6.49538 19.3039 6.38478 19.2102 6.29181L15.2102 2.29181C15.0696 2.15306 14.891 2.05906 14.697 2.02169C14.503 1.98431 14.3023 2.00523 14.1202 2.08181Z" fill="black"/>
</svg>
