<svg width="40" height="40" viewBox="0 0 40 40" fill="none" xmlns="http://www.w3.org/2000/svg">
<rect width="40" height="40" rx="10" fill="white"/>
<path d="M14 29V27C14 25.9391 14.4214 24.9217 15.1716 24.1716C15.9217 23.4214 16.9391 23 18 23H21.5M30 30L25 25M25 30L30 25M16 15C16 16.0609 16.4214 17.0783 17.1716 17.8284C17.9217 18.5786 18.9391 19 20 19C21.0609 19 22.0783 18.5786 22.8284 17.8284C23.5786 17.0783 24 16.0609 24 15C24 13.9391 23.5786 12.9217 22.8284 12.1716C22.0783 11.4214 21.0609 11 20 11C18.9391 11 17.9217 11.4214 17.1716 12.1716C16.4214 12.9217 16 13.9391 16 15Z" stroke="#1D4ED8" stroke-width="2" stroke-linecap="round" stroke-linejoin="round"/>
</svg>
