<svg width="40" height="40" viewBox="0 0 40 40" fill="none" xmlns="http://www.w3.org/2000/svg">
<path d="M28.016 10C26.903 10 26 12.686 26 16H28.016C28.988 16 29.473 16 29.774 15.665C30.074 15.329 30.022 14.887 29.918 14.004C29.64 11.67 28.894 10 28.016 10Z" stroke="#2947F2" stroke-width="1.5" stroke-linecap="round" stroke-linejoin="round"/>
<path d="M26 16.054V26.646C26 28.157 26 28.913 25.538 29.211C24.783 29.697 23.616 28.677 23.029 28.307C22.544 28.001 22.302 27.849 22.033 27.84C21.742 27.83 21.495 27.977 20.971 28.307L19.06 29.512C18.544 29.837 18.287 30 18 30C17.713 30 17.455 29.837 16.94 29.512L15.03 28.307C14.544 28.001 14.302 27.849 14.033 27.84C13.742 27.83 13.495 27.977 12.971 28.307C12.384 28.677 11.217 29.697 10.461 29.211C10 28.913 10 28.158 10 26.646V16.054C10 13.2 10 11.774 10.879 10.887C11.757 10 13.172 10 16 10H28" stroke="#2947F2" stroke-width="1.5" stroke-linecap="round" stroke-linejoin="round"/>
<path d="M18 16C16.895 16 16 16.672 16 17.5C16 18.328 16.895 19 18 19C19.105 19 20 19.672 20 20.5C20 21.328 19.105 22 18 22M18 16C18.87 16 19.612 16.417 19.886 17M18 16V15M18 22C17.13 22 16.388 21.583 16.114 21M18 22V23" stroke="#2947F2" stroke-width="1.5" stroke-linecap="round" stroke-linejoin="round"/>
</svg>
