<svg width="25" height="24" viewBox="0 0 25 24" fill="none" xmlns="http://www.w3.org/2000/svg">
<path d="M9.125 17C8.81562 17 8.55087 16.8975 8.33075 16.6925C8.11062 16.4875 8.00037 16.2408 8 15.9524V10.7143C8 10.4262 8.11025 10.1797 8.33075 9.97467C8.55125 9.76968 8.816 9.66702 9.125 9.66667H9.6875V8.61905C9.6875 7.89444 9.96181 7.27687 10.5104 6.76633C11.0591 6.25579 11.7222 6.00035 12.5 6C13.2777 5.99965 13.9411 6.2551 14.4901 6.76633C15.0391 7.27757 15.3132 7.89514 15.3125 8.61905V9.66667H15.875C16.1844 9.66667 16.4493 9.76933 16.6698 9.97467C16.8903 10.18 17.0004 10.4265 17 10.7143V15.9524C17 16.2405 16.8899 16.4872 16.6698 16.6925C16.4497 16.8979 16.1847 17.0003 15.875 17H9.125ZM12.5 14.381C12.8094 14.381 13.0743 14.2785 13.2948 14.0735C13.5153 13.8685 13.6254 13.6218 13.625 13.3333C13.6246 13.0449 13.5146 12.7983 13.2948 12.5937C13.0751 12.3891 12.8101 12.2864 12.5 12.2857C12.1899 12.285 11.9251 12.3877 11.7057 12.5937C11.4864 12.7997 11.3761 13.0463 11.375 13.3333C11.3739 13.6204 11.4841 13.8671 11.7057 14.0735C11.9274 14.2799 12.1921 14.3823 12.5 14.381ZM10.8125 9.66667H14.1875V8.61905C14.1875 8.18254 14.0234 7.81151 13.6953 7.50595C13.3672 7.2004 12.9687 7.04762 12.5 7.04762C12.0312 7.04762 11.6328 7.2004 11.3047 7.50595C10.9766 7.81151 10.8125 8.18254 10.8125 8.61905V9.66667Z" fill="#8F8F8F"/>
</svg>
