<svg width="45" height="46" viewBox="0 0 45 46" fill="none" xmlns="http://www.w3.org/2000/svg">
<rect y="0.5" width="45" height="45" rx="10" fill="#F7F8FD"/>
<path d="M16.875 33C16.3594 33 15.9181 32.8137 15.5512 32.441C15.1844 32.0683 15.0006 31.6197 15 31.0952V21.5714C15 21.0476 15.1837 20.5994 15.5512 20.2267C15.9187 19.854 16.36 19.6673 16.875 19.6667H17.8125V17.7619C17.8125 16.4444 18.2697 15.3216 19.1841 14.3933C20.0984 13.4651 21.2037 13.0006 22.5 13C23.7962 12.9994 24.9019 13.4638 25.8169 14.3933C26.7319 15.3229 27.1887 16.4457 27.1875 17.7619V19.6667H28.125C28.6406 19.6667 29.0822 19.8533 29.4497 20.2267C29.8172 20.6 30.0006 21.0483 30 21.5714V31.0952C30 31.619 29.8166 32.0676 29.4497 32.441C29.0828 32.8143 28.6412 33.0006 28.125 33H16.875ZM16.875 31.0952H28.125V21.5714H16.875V31.0952ZM22.5 28.2381C23.0156 28.2381 23.4572 28.0517 23.8247 27.679C24.1922 27.3063 24.3756 26.8578 24.375 26.3333C24.3744 25.8089 24.1909 25.3606 23.8247 24.9886C23.4584 24.6165 23.0169 24.4298 22.5 24.4286C21.9831 24.4273 21.5419 24.614 21.1762 24.9886C20.8106 25.3632 20.6269 25.8114 20.625 26.3333C20.6231 26.8552 20.8069 27.3038 21.1762 27.679C21.5456 28.0543 21.9869 28.2406 22.5 28.2381ZM19.6875 19.6667H25.3125V17.7619C25.3125 16.9683 25.0391 16.2937 24.4922 15.7381C23.9453 15.1825 23.2812 14.9048 22.5 14.9048C21.7187 14.9048 21.0547 15.1825 20.5078 15.7381C19.9609 16.2937 19.6875 16.9683 19.6875 17.7619V19.6667Z" fill="black"/>
</svg>
