<svg width="38" height="38" viewBox="0 0 38 38" fill="none" xmlns="http://www.w3.org/2000/svg">
<rect width="38" height="38" rx="10" fill="#2947F2"/>
<path d="M19.846 26.5378L14.0204 28.4789C10.8426 29.5385 9.25315 30.0683 8.41417 29.2294C7.5752 28.3904 8.10502 26.8009 9.16465 23.6232L11.1069 17.7975C11.9873 15.1565 12.4275 13.8359 13.4687 13.5911C14.5099 13.344 15.4949 14.329 17.4624 16.2977L21.347 20.1811C23.3146 22.1498 24.2995 23.1336 24.0536 24.1748" stroke="white" stroke-linecap="round"/>
<path d="M18.6151 26.5925C18.6151 26.5925 17.744 23.971 17.744 22.2367C17.744 20.5013 18.6151 17.8787 18.6151 17.8787M13.8227 27.9004C13.8227 27.9004 13.0871 24.7364 12.9515 22.6711C12.7274 19.2589 13.8227 13.9585 13.8227 13.9585M21.2298 17.0075L21.3941 16.18C21.5619 15.3445 22.1641 14.663 22.9721 14.394C23.3688 14.2611 23.7236 14.0259 24.0004 13.7122C24.2772 13.3984 24.4664 13.0172 24.5489 12.6069L24.7144 11.7794M24.7465 20.7392L24.9902 20.8806C25.7453 21.3173 26.6946 21.2208 27.3474 20.6427C27.6365 20.3855 27.9932 20.2167 28.3754 20.1562C28.7575 20.0957 29.149 20.1461 29.5034 20.3013L29.8379 20.4484M15.8109 8.70166C15.6224 9.00992 15.5431 9.37266 15.5858 9.73146C15.6286 10.0903 15.7908 10.4242 16.0465 10.6796L16.1591 10.7922C16.6108 11.2439 16.7774 11.907 16.5924 12.5196" stroke="white" stroke-linecap="round"/>
<path d="M27.0544 23.6089L26.8933 23.5425H26.8923M27.0544 23.6089C27.0457 23.6302 27.033 23.6499 27.0164 23.6665L26.9597 23.7046C26.9387 23.7133 26.9161 23.7182 26.8933 23.7183L26.8259 23.7046C26.8047 23.6958 26.7855 23.6827 26.7693 23.6665M27.0544 23.6089L26.8923 23.5425M27.0544 23.6089C27.0629 23.5881 27.0681 23.5654 27.0681 23.5425C27.0681 23.5195 27.0631 23.4969 27.0544 23.4761L27.0164 23.4194C26.9996 23.4027 26.9802 23.3891 26.9587 23.3804L26.8933 23.3677C26.8701 23.3677 26.8469 23.3726 26.8259 23.3813L26.7693 23.4194L26.7312 23.4761C26.7225 23.4971 26.7176 23.5197 26.7175 23.5425L26.7312 23.6099L26.7693 23.6665M26.7693 23.6665L26.8923 23.5425M26.7693 23.6665L26.8923 23.5425M24.8699 17.6831L24.7097 17.6177M24.8699 17.6831C24.8783 17.6625 24.8825 17.6403 24.8826 17.6177C24.8826 17.5945 24.8786 17.5713 24.8699 17.5503M24.8699 17.6831C24.8612 17.7045 24.8484 17.7241 24.8318 17.7407M24.8699 17.6831L24.7097 17.6177M24.7097 17.6177L24.7078 17.6167M24.7097 17.6177L24.7078 17.6167M24.7078 17.6167L24.8699 17.5503M24.7078 17.6167L24.8318 17.7407M24.7078 17.6167L24.7742 17.4546M24.7078 17.6167L24.8318 17.7407M24.7078 17.6167L24.8699 17.5503M24.7078 17.6167L24.8318 17.4937M24.7078 17.6167L24.8318 17.4937M24.7078 17.6167L24.7742 17.4546M24.8699 17.5503L24.8318 17.4937M24.8318 17.7407C24.8156 17.7569 24.7963 17.77 24.7751 17.7788C24.7539 17.7876 24.7307 17.7925 24.7078 17.7925C24.685 17.7924 24.6624 17.7875 24.6414 17.7788C24.6202 17.77 24.6009 17.7569 24.5847 17.7407L24.5466 17.6841L24.533 17.6177C24.533 17.5947 24.5378 17.5715 24.5466 17.5503L24.5847 17.4937L24.6414 17.4556C24.6622 17.447 24.6848 17.4429 24.7078 17.4429L24.7742 17.4546M24.7742 17.4546C24.7956 17.4633 24.8151 17.477 24.8318 17.4937M12.8279 10.5962L12.8845 10.6343L12.9509 10.6479V10.4722M12.8279 10.5962L12.9509 10.4722M12.8279 10.5962L12.95 10.4731L12.9509 10.4722M12.8279 10.5962L12.7898 10.5396C12.781 10.5183 12.7771 10.4951 12.7771 10.4722M12.9509 10.4722V10.647C12.9739 10.647 12.9971 10.643 13.0183 10.6343L13.075 10.5962M12.9509 10.4722L13.075 10.5962M12.9509 10.4722H12.7771M12.9509 10.4722L13.075 10.5962M12.9509 10.4722H13.1257M12.9509 10.4722H13.1257M12.9509 10.4722L13.075 10.3491M12.9509 10.4722L12.9519 10.4712H12.9509L13.075 10.3491M12.9509 10.4722H12.7771M13.075 10.5962C13.1077 10.5635 13.1266 10.5194 13.1267 10.4731L13.1257 10.4722M12.7771 10.4722L12.7898 10.4058L12.8279 10.3491V10.3481C12.8607 10.3156 12.9057 10.2983 12.9519 10.2983L13.0183 10.311L13.075 10.3491M13.1257 10.4722C13.1256 10.4261 13.1075 10.3818 13.075 10.3491M19.1365 14.1694C19.1365 14.2158 19.1185 14.2607 19.0857 14.2935L19.0291 14.3306C19.0078 14.3394 18.9846 14.3442 18.9617 14.3442L18.8943 14.3306C18.8733 14.3218 18.8537 14.3096 18.8376 14.2935C18.8215 14.2774 18.8093 14.2578 18.8005 14.2368L18.7869 14.1694C18.7869 14.1465 18.7917 14.1233 18.8005 14.1021L18.8376 14.0454L18.8943 14.0083C18.9155 13.9994 18.9383 13.9946 18.9617 13.9946L19.0281 14.0073C19.0493 14.016 19.0691 14.0288 19.0857 14.0454L19.1228 14.1021C19.1317 14.1232 19.1365 14.146 19.1365 14.1694Z" fill="white" stroke="white" stroke-width="1.58333"/>
<path d="M26.8061 14.3734C26.0361 15.1434 26.5878 17.3776 26.5878 17.3776C26.5878 17.3776 28.822 17.9304 29.592 17.1593C30.408 16.3433 29.946 15.2744 28.6887 15.2767C28.6921 14.0194 27.6221 13.5574 26.8061 14.3734Z" stroke="white" stroke-linejoin="round"/>
<path d="M22.009 9.43518L21.978 9.54781C21.9435 9.66963 21.9251 9.7317 21.9343 9.79146C21.9423 9.85122 21.9745 9.90409 22.0412 10.0087L22.1009 10.1029C22.3331 10.4707 22.4492 10.6546 22.3699 10.8051C22.2906 10.9557 22.0687 10.9729 21.6251 11.0074L21.5102 11.0166C21.3838 11.0269 21.3217 11.0315 21.2665 11.0603C21.2114 11.089 21.1712 11.1384 21.0884 11.2384L21.0149 11.3292C20.7264 11.6786 20.5827 11.8533 20.4172 11.8314C20.254 11.8084 20.1782 11.6039 20.0265 11.1936L19.9874 11.0878C19.9449 10.9706 19.923 10.9132 19.8805 10.8695C19.838 10.8281 19.7805 10.8063 19.6633 10.7637L19.5576 10.7247C19.1473 10.573 18.9427 10.4971 18.9197 10.3339C18.8967 10.1684 19.0726 10.0236 19.422 9.73629L19.5128 9.66159C19.6116 9.58114 19.6622 9.53977 19.6909 9.4846C19.7196 9.42944 19.7254 9.36622 19.7346 9.2398L19.7438 9.12488C19.7782 8.6824 19.7955 8.46059 19.946 8.38129C20.0954 8.30199 20.2793 8.41807 20.6471 8.65022L20.7425 8.70999C20.8471 8.77664 20.8999 8.80882 20.9597 8.81687C21.0195 8.82491 21.0815 8.80768 21.2033 8.7732L21.316 8.74217C21.7469 8.61919 21.963 8.55828 22.0779 8.67321C22.1929 8.78814 22.132 9.0042 22.009 9.43518Z" stroke="white"/>
</svg>
