<svg width="45" height="46" viewBox="0 0 45 46" fill="none" xmlns="http://www.w3.org/2000/svg">
<rect y="0.5" width="45" height="45" rx="10" fill="#F7F8FD"/>
<path d="M14.25 11C13.6533 11 13.081 11.2371 12.659 11.659C12.2371 12.081 12 12.6533 12 13.25V32.75C12 33.3467 12.2371 33.919 12.659 34.341C13.081 34.7629 13.6533 35 14.25 35H24.75C25.3467 35 25.919 34.7629 26.341 34.341C26.7629 33.919 27 33.3467 27 32.75V30.5C27 30.3011 26.921 30.1103 26.7803 29.9697C26.6397 29.829 26.4489 29.75 26.25 29.75C25.6305 29.75 25.2345 29.597 24.966 29.396C24.693 29.192 24.481 28.8805 24.33 28.4615C24.009 27.5795 24 26.411 24 25.25C24 25.1513 23.9805 25.0536 23.9427 24.9625C23.9048 24.8714 23.8494 24.7887 23.7795 24.719L23.3505 24.2885L21.531 22.469C20.8305 21.7685 20.625 21.299 20.586 21.0365C20.556 20.8265 20.619 20.6855 20.769 20.5415C21.09 20.234 21.3195 20.0255 21.579 19.9625C21.7335 19.9235 22.086 19.8965 22.719 20.5295L27.219 25.0295C27.3596 25.1703 27.5504 25.2495 27.7495 25.2497C27.848 25.2497 27.9456 25.2304 28.0367 25.1927C28.1278 25.1551 28.2105 25.0999 28.2803 25.0303C28.35 24.9606 28.4053 24.8779 28.4431 24.7869C28.4809 24.6959 28.5003 24.5983 28.5004 24.4998C28.5005 24.4012 28.4811 24.3036 28.4435 24.2126C28.4058 24.1215 28.3506 24.0387 28.281 23.969L27 22.6895V18.0605L30.84 21.9005C31.0492 22.1094 31.2151 22.3575 31.3284 22.6306C31.4416 22.9037 31.4999 23.1964 31.5 23.492V34.25C31.5 34.4489 31.579 34.6397 31.7197 34.7803C31.8603 34.921 32.0511 35 32.25 35C32.4489 35 32.6397 34.921 32.7803 34.7803C32.921 34.6397 33 34.4489 33 34.25V23.492C32.9998 22.4979 32.6049 21.5445 31.902 20.8415L27 15.9395V13.25C27 12.6533 26.7629 12.081 26.341 11.659C25.919 11.2371 25.3467 11 24.75 11H14.25ZM25.5 16.25V21.1895L23.781 19.469C22.914 18.602 22.05 18.3035 21.2235 18.5045C21.0611 18.5444 20.9036 18.6022 20.754 18.677C20.0835 18.4824 19.3769 18.4466 18.6901 18.5722C18.0033 18.6979 17.3552 18.9816 16.797 19.401C16.2388 19.8204 15.7858 20.3639 15.474 20.9885C15.1621 21.6132 14.9998 22.3018 15 23C14.9999 23.8699 15.252 24.7212 15.7257 25.4508C16.1995 26.1804 16.8745 26.7571 17.6692 27.111C18.4638 27.465 19.3441 27.581 20.2033 27.445C21.0625 27.3091 21.8639 26.927 22.5105 26.345C22.536 27.212 22.623 28.16 22.92 28.9745C23.142 29.585 23.496 30.1685 24.066 30.5945L24.075 30.6035C23.6182 30.7471 23.2192 31.0328 22.936 31.4188C22.6527 31.8048 22.5 32.2712 22.5 32.75V33.5H16.5V32.75C16.5 32.1533 16.2629 31.581 15.841 31.159C15.419 30.7371 14.8467 30.5 14.25 30.5H13.5V15.5H14.25C14.8467 15.5 15.419 15.2629 15.841 14.841C16.2629 14.419 16.5 13.8467 16.5 13.25V12.5H22.5V13.25C22.5 13.8467 22.7371 14.419 23.159 14.841C23.581 15.2629 24.1533 15.5 24.75 15.5H25.5V16.25ZM25.5 32.75V32.7635C25.4965 32.9601 25.4159 33.1474 25.2756 33.2851C25.1353 33.4229 24.9466 33.5 24.75 33.5H24V32.75C24 32.5511 24.079 32.3603 24.2197 32.2197C24.3603 32.079 24.5511 32 24.75 32H25.5V32.75ZM16.5 23C16.5 22.2371 16.7907 21.5028 17.3129 20.9466C17.8351 20.3904 18.5496 20.0541 19.311 20.006C19.125 20.351 19.0305 20.771 19.1025 21.2555C19.209 21.9785 19.6695 22.73 20.469 23.5295L21.8295 24.89C21.4389 25.3713 20.9089 25.7198 20.3122 25.8876C19.7155 26.0554 19.0815 26.0343 18.4973 25.8271C17.9131 25.6199 17.4074 25.2369 17.0498 24.7307C16.6921 24.2244 16.5001 23.6198 16.5 23ZM15 12.5V13.25C15 13.4489 14.921 13.6397 14.7803 13.7803C14.6397 13.921 14.4489 14 14.25 14H13.5V13.25C13.5 13.0511 13.579 12.8603 13.7197 12.7197C13.8603 12.579 14.0511 12.5 14.25 12.5H15ZM13.5 32H14.25C14.4489 32 14.6397 32.079 14.7803 32.2197C14.921 32.3603 15 32.5511 15 32.75V33.5H14.25C14.0511 33.5 13.8603 33.421 13.7197 33.2803C13.579 33.1397 13.5 32.9489 13.5 32.75V32ZM25.5 14H24.75C24.5511 14 24.3603 13.921 24.2197 13.7803C24.079 13.6397 24 13.4489 24 13.25V12.5H24.75C24.9489 12.5 25.1397 12.579 25.2803 12.7197C25.421 12.8603 25.5 13.0511 25.5 13.25V14Z" fill="#FF1919"/>
</svg>
