<svg width="1233" height="78" viewBox="0 0 1233 78" fill="none" xmlns="http://www.w3.org/2000/svg">
<rect x="0.5" y="0.5" width="1232" height="77" rx="4.5" fill="#FEFCE8"/>
<rect x="0.5" y="0.5" width="1232" height="77" rx="4.5" stroke="#FDE047"/>
<g clip-path="url(#clip0_38294_34377)">
<path d="M27.0001 35.3346C31.6025 35.3346 35.3334 31.6037 35.3334 27.0013C35.3334 22.3989 31.6025 18.668 27.0001 18.668C22.3977 18.668 18.6667 22.3989 18.6667 27.0013C18.6667 31.6037 22.3977 35.3346 27.0001 35.3346Z" stroke="#854D0E" stroke-width="1.66667" stroke-linecap="round" stroke-linejoin="round"/>
<path d="M27 30.3333V27" stroke="#854D0E" stroke-width="1.66667" stroke-linecap="round" stroke-linejoin="round"/>
<path d="M27 23.668H27.0083" stroke="#854D0E" stroke-width="1.66667" stroke-linecap="round" stroke-linejoin="round"/>
<g clip-path="url(#clip1_38294_34377)">
<path d="M49.5938 21.0469C50.3594 21.0469 51.0156 21.1631 51.5625 21.3955C52.1139 21.6234 52.5378 21.9606 52.834 22.4072C53.1302 22.8493 53.2783 23.3984 53.2783 24.0547C53.2783 24.5924 53.1872 25.0527 53.0049 25.4355C52.8271 25.8138 52.5742 26.1305 52.2461 26.3857C51.9225 26.6364 51.5397 26.8392 51.0977 26.9941L50.4414 27.3564H47.2627V25.6885H49.5938C49.9492 25.6885 50.2454 25.627 50.4824 25.5039C50.724 25.3809 50.904 25.21 51.0225 24.9912C51.1455 24.7679 51.207 24.5081 51.207 24.2119C51.207 23.7516 51.0749 23.3893 50.8105 23.125C50.5462 22.8561 50.1406 22.7217 49.5938 22.7217H47.96V31H45.8887V21.0469H49.5938ZM49.1699 26.5566H51.3574L53.6475 30.9043V31H51.4326L49.1699 26.5566ZM59.0615 23.6035H61.0508V31H59.1846L59.0615 29.2227V23.6035ZM59.8818 27.6777C59.8818 28.3431 59.7816 28.9355 59.5811 29.4551C59.3805 29.9746 59.0752 30.3848 58.665 30.6855C58.2549 30.9863 57.7354 31.1367 57.1064 31.1367C56.3773 31.1367 55.7848 30.9248 55.3291 30.501C54.8779 30.0726 54.6523 29.3685 54.6523 28.3887V23.6035H56.6416V28.4023C56.6416 28.6712 56.6849 28.89 56.7715 29.0586C56.8626 29.2227 56.9857 29.3411 57.1406 29.4141C57.3001 29.487 57.4801 29.5234 57.6807 29.5234C58.0908 29.5234 58.4121 29.4437 58.6445 29.2842C58.8815 29.1247 59.0479 28.9059 59.1436 28.6279C59.2438 28.3499 59.2939 28.0378 59.2939 27.6914L59.8818 27.6777ZM64.6465 31H62.6572V20.5H64.6465V31ZM69.6777 31.1367C68.9121 31.1367 68.2536 30.9749 67.7021 30.6514C67.1553 30.3278 66.736 29.8971 66.4443 29.3594C66.1527 28.8171 66.0068 28.2155 66.0068 27.5547V27.2881C66.0068 26.5452 66.1458 25.8867 66.4238 25.3125C66.7064 24.7337 67.1051 24.2826 67.6201 23.959C68.1396 23.6309 68.7526 23.4668 69.459 23.4668C70.1745 23.4668 70.7738 23.6195 71.2568 23.9248C71.7399 24.2256 72.1045 24.6494 72.3506 25.1963C72.5967 25.7386 72.7197 26.3743 72.7197 27.1035V27.9512H66.8613V26.5908H70.7646V26.4336C70.7601 26.1738 70.7122 25.9414 70.6211 25.7363C70.5299 25.5267 70.3887 25.3626 70.1973 25.2441C70.0059 25.1257 69.7552 25.0664 69.4453 25.0664C69.1035 25.0664 68.8255 25.1644 68.6113 25.3604C68.3971 25.5518 68.2399 25.8138 68.1396 26.1465C68.0394 26.4792 67.9893 26.8597 67.9893 27.2881V27.5547C67.9893 27.9421 68.0599 28.2839 68.2012 28.5801C68.347 28.8763 68.5566 29.1087 68.8301 29.2773C69.1035 29.446 69.4294 29.5303 69.8076 29.5303C70.1676 29.5303 70.5003 29.4642 70.8057 29.332C71.111 29.1953 71.373 28.9857 71.5918 28.7031L72.5625 29.7969C72.3301 30.1341 71.9723 30.4417 71.4893 30.7197C71.0107 30.9977 70.4069 31.1367 69.6777 31.1367ZM80.7383 31.1367C79.9727 31.1367 79.3141 30.9749 78.7627 30.6514C78.2158 30.3278 77.7965 29.8971 77.5049 29.3594C77.2132 28.8171 77.0674 28.2155 77.0674 27.5547V27.2881C77.0674 26.5452 77.2064 25.8867 77.4844 25.3125C77.7669 24.7337 78.1657 24.2826 78.6807 23.959C79.2002 23.6309 79.8132 23.4668 80.5195 23.4668C81.235 23.4668 81.8343 23.6195 82.3174 23.9248C82.8005 24.2256 83.165 24.6494 83.4111 25.1963C83.6572 25.7386 83.7803 26.3743 83.7803 27.1035V27.9512H77.9219V26.5908H81.8252V26.4336C81.8206 26.1738 81.7728 25.9414 81.6816 25.7363C81.5905 25.5267 81.4492 25.3626 81.2578 25.2441C81.0664 25.1257 80.8158 25.0664 80.5059 25.0664C80.1641 25.0664 79.8861 25.1644 79.6719 25.3604C79.4577 25.5518 79.3005 25.8138 79.2002 26.1465C79.0999 26.4792 79.0498 26.8597 79.0498 27.2881V27.5547C79.0498 27.9421 79.1204 28.2839 79.2617 28.5801C79.4076 28.8763 79.6172 29.1087 79.8906 29.2773C80.1641 29.446 80.4899 29.5303 80.8682 29.5303C81.2282 29.5303 81.5609 29.4642 81.8662 29.332C82.1715 29.1953 82.4336 28.9857 82.6523 28.7031L83.623 29.7969C83.3906 30.1341 83.0329 30.4417 82.5498 30.7197C82.0713 30.9977 81.4674 31.1367 80.7383 31.1367ZM87.7246 25.7979L88.9551 23.6035H91.0811L88.9824 27.2197L91.1699 31H89.0371L87.7246 28.6826L86.4326 31H84.2861L86.4805 27.2197L84.3818 23.6035H86.5215L87.7246 25.7979ZM95.832 31.1367C95.3763 31.1367 94.9798 31.0433 94.6426 30.8564C94.3099 30.6696 94.0296 30.4098 93.8018 30.0771C93.5785 29.7445 93.3962 29.3594 93.2549 28.9219C93.1182 28.4844 93.0156 28.0127 92.9473 27.5068V27.1787C93.0384 26.4632 93.1934 25.8275 93.4121 25.2715C93.6309 24.7109 93.9362 24.2712 94.3281 23.9521C94.7201 23.6286 95.2168 23.4668 95.8184 23.4668C96.4427 23.4668 96.9691 23.624 97.3975 23.9385C97.8258 24.2484 98.1494 24.6859 98.3682 25.251C98.5915 25.8161 98.7031 26.4723 98.7031 27.2197V27.3633C98.7031 28.0788 98.5915 28.7214 98.3682 29.291C98.1494 29.8607 97.8258 30.3118 97.3975 30.6445C96.9736 30.9727 96.4518 31.1367 95.832 31.1367ZM92.0381 33.8438V23.6035H93.8838L94.0273 25.0254V33.8438H92.0381ZM95.3057 29.5371C95.652 29.5371 95.9277 29.4391 96.1328 29.2432C96.3379 29.0426 96.486 28.7783 96.5771 28.4502C96.6683 28.1221 96.7139 27.7598 96.7139 27.3633V27.2197C96.7139 26.8141 96.666 26.4495 96.5703 26.126C96.4792 25.8024 96.3288 25.5472 96.1191 25.3604C95.9095 25.1735 95.6338 25.0801 95.292 25.0801C95.0322 25.0801 94.8089 25.1234 94.6221 25.21C94.4398 25.292 94.2871 25.4128 94.1641 25.5723C94.0456 25.7272 93.9544 25.9186 93.8906 26.1465C93.8314 26.3743 93.7949 26.6318 93.7812 26.9189V27.7734C93.804 28.1061 93.8678 28.4069 93.9727 28.6758C94.0775 28.9401 94.237 29.1497 94.4512 29.3047C94.6654 29.4596 94.9502 29.5371 95.3057 29.5371ZM101.034 20.6641C101.376 20.6641 101.647 20.762 101.848 20.958C102.048 21.1494 102.148 21.3955 102.148 21.6963C102.148 21.988 102.048 22.2318 101.848 22.4277C101.647 22.6191 101.376 22.7148 101.034 22.7148C100.697 22.7148 100.428 22.6191 100.228 22.4277C100.027 22.2318 99.9268 21.988 99.9268 21.6963C99.9268 21.3955 100.027 21.1494 100.228 20.958C100.428 20.762 100.697 20.6641 101.034 20.6641ZM102.032 31H100.043V23.6035H102.032V31ZM105.662 31H103.673V23.6035H105.553L105.662 25.251V31ZM107.836 25.4629C107.736 25.4492 107.617 25.4378 107.48 25.4287C107.348 25.415 107.23 25.4082 107.125 25.4082C106.76 25.4082 106.46 25.4674 106.223 25.5859C105.986 25.7044 105.808 25.8753 105.689 26.0986C105.576 26.3219 105.514 26.5977 105.505 26.9258L105.102 26.7891C105.102 26.1465 105.184 25.5768 105.348 25.0801C105.512 24.5788 105.753 24.1846 106.072 23.8975C106.396 23.6104 106.788 23.4668 107.248 23.4668C107.353 23.4668 107.465 23.4759 107.583 23.4941C107.701 23.5078 107.795 23.5283 107.863 23.5557L107.836 25.4629ZM112.197 31.1367C111.432 31.1367 110.773 30.9749 110.222 30.6514C109.675 30.3278 109.256 29.8971 108.964 29.3594C108.672 28.8171 108.526 28.2155 108.526 27.5547V27.2881C108.526 26.5452 108.665 25.8867 108.943 25.3125C109.226 24.7337 109.625 24.2826 110.14 23.959C110.659 23.6309 111.272 23.4668 111.979 23.4668C112.694 23.4668 113.293 23.6195 113.776 23.9248C114.259 24.2256 114.624 24.6494 114.87 25.1963C115.116 25.7386 115.239 26.3743 115.239 27.1035V27.9512H109.381V26.5908H113.284V26.4336C113.28 26.1738 113.232 25.9414 113.141 25.7363C113.049 25.5267 112.908 25.3626 112.717 25.2441C112.525 25.1257 112.275 25.0664 111.965 25.0664C111.623 25.0664 111.345 25.1644 111.131 25.3604C110.917 25.5518 110.759 25.8138 110.659 26.1465C110.559 26.4792 110.509 26.8597 110.509 27.2881V27.5547C110.509 27.9421 110.579 28.2839 110.721 28.5801C110.867 28.8763 111.076 29.1087 111.35 29.2773C111.623 29.446 111.949 29.5303 112.327 29.5303C112.687 29.5303 113.02 29.4642 113.325 29.332C113.631 29.1953 113.893 28.9857 114.111 28.7031L115.082 29.7969C114.85 30.1341 114.492 30.4417 114.009 30.7197C113.53 30.9977 112.926 31.1367 112.197 31.1367ZM118.944 31.1367C118.334 31.1367 117.812 30.9749 117.379 30.6514C116.951 30.3232 116.622 29.8766 116.395 29.3115C116.167 28.7464 116.053 28.1061 116.053 27.3906V27.2471C116.053 26.4951 116.167 25.8366 116.395 25.2715C116.622 24.7018 116.953 24.2598 117.386 23.9453C117.819 23.6263 118.343 23.4668 118.958 23.4668C119.541 23.4668 120.029 23.6309 120.421 23.959C120.813 24.2826 121.12 24.7269 121.344 25.292C121.567 25.8525 121.722 26.4906 121.809 27.2061V27.4795C121.722 28.1631 121.565 28.7806 121.337 29.332C121.114 29.8835 120.806 30.3232 120.414 30.6514C120.022 30.9749 119.532 31.1367 118.944 31.1367ZM119.45 29.5234C119.783 29.5234 120.056 29.4482 120.271 29.2979C120.489 29.1475 120.656 28.9378 120.77 28.6689C120.888 28.4001 120.959 28.0924 120.981 27.7461V26.9463C120.968 26.6546 120.927 26.3949 120.858 26.167C120.79 25.9346 120.694 25.7386 120.571 25.5791C120.448 25.4196 120.293 25.2965 120.106 25.21C119.924 25.1234 119.71 25.0801 119.464 25.0801C119.122 25.0801 118.846 25.1758 118.637 25.3672C118.427 25.5586 118.274 25.8184 118.179 26.1465C118.088 26.4701 118.042 26.8369 118.042 27.2471V27.3906C118.042 27.7871 118.088 28.1471 118.179 28.4707C118.27 28.7897 118.418 29.0449 118.623 29.2363C118.828 29.4277 119.104 29.5234 119.45 29.5234ZM120.927 31L120.729 29.373V20.5H122.725V31H120.927ZM125.466 31.0752C125.129 31.0752 124.857 30.9749 124.652 30.7744C124.447 30.5693 124.345 30.3164 124.345 30.0156C124.345 29.7148 124.447 29.4619 124.652 29.2568C124.857 29.0518 125.129 28.9492 125.466 28.9492C125.812 28.9492 126.086 29.0518 126.286 29.2568C126.491 29.4619 126.594 29.7148 126.594 30.0156C126.594 30.3164 126.491 30.5693 126.286 30.7744C126.086 30.9749 125.812 31.0752 125.466 31.0752ZM125.473 25.4834C125.135 25.4834 124.864 25.3831 124.659 25.1826C124.454 24.9775 124.352 24.7246 124.352 24.4238C124.352 24.123 124.454 23.8701 124.659 23.665C124.864 23.46 125.135 23.3574 125.473 23.3574C125.819 23.3574 126.092 23.46 126.293 23.665C126.498 23.8701 126.601 24.123 126.601 24.4238C126.601 24.7246 126.498 24.9775 126.293 25.1826C126.092 25.3831 125.819 25.4834 125.473 25.4834Z" fill="#854D0E"/>
<path d="M45.7178 46.8311C45.7178 46.5531 45.7633 46.2637 45.8545 45.9629C45.9502 45.6621 46.0869 45.3727 46.2646 45.0947C46.4469 44.8122 46.6657 44.5684 46.9209 44.3633L47.6455 44.8555C47.4313 45.1562 47.2673 45.4661 47.1533 45.7852C47.0394 46.0996 46.9824 46.4414 46.9824 46.8105V47.6582H45.7178V46.8311ZM47.8779 46.8311C47.8779 46.5531 47.9235 46.2637 48.0146 45.9629C48.1104 45.6621 48.2471 45.3727 48.4248 45.0947C48.6071 44.8122 48.8258 44.5684 49.0811 44.3633L49.8057 44.8555C49.5915 45.1562 49.4274 45.4661 49.3135 45.7852C49.1995 46.0996 49.1426 46.4414 49.1426 46.8105V47.6582H47.8779V46.8311ZM54.5635 44.8555C54.0257 45.0286 53.6543 45.334 53.4492 45.7715C53.2441 46.2044 53.1416 46.7012 53.1416 47.2617V48.6768C53.1416 49.1325 53.0482 49.5472 52.8613 49.9209C52.6745 50.29 52.3805 50.584 51.9795 50.8027C51.583 51.0215 51.0612 51.1309 50.4141 51.1309V50.3037C50.929 50.3037 51.2982 50.1579 51.5215 49.8662C51.7493 49.57 51.8633 49.1735 51.8633 48.6768V47.2617C51.8633 46.7832 51.9362 46.3366 52.082 45.9219C52.2324 45.5026 52.4831 45.1357 52.834 44.8213C53.1895 44.5023 53.6771 44.2562 54.2969 44.083L54.5635 44.8555ZM54.2969 57.5088C53.6771 57.3311 53.1895 57.085 52.834 56.7705C52.4831 56.4561 52.2324 56.0892 52.082 55.6699C51.9362 55.2552 51.8633 54.8086 51.8633 54.3301V52.915C51.8633 52.4229 51.7493 52.0286 51.5215 51.7324C51.2982 51.4362 50.929 51.2881 50.4141 51.2881V50.4609C51.0612 50.4609 51.583 50.5703 51.9795 50.7891C52.3805 51.0078 52.6745 51.3018 52.8613 51.6709C53.0482 52.04 53.1416 52.4548 53.1416 52.915V54.3301C53.1416 54.8906 53.2441 55.3874 53.4492 55.8203C53.6543 56.2533 54.0257 56.5563 54.5635 56.7295L54.2969 57.5088ZM59.3076 44.8555C58.7699 45.0286 58.3984 45.334 58.1934 45.7715C57.9883 46.2044 57.8857 46.7012 57.8857 47.2617V48.6768C57.8857 49.1325 57.7923 49.5472 57.6055 49.9209C57.4186 50.29 57.1247 50.584 56.7236 50.8027C56.3271 51.0215 55.8053 51.1309 55.1582 51.1309V50.3037C55.6732 50.3037 56.0423 50.1579 56.2656 49.8662C56.4935 49.57 56.6074 49.1735 56.6074 48.6768V47.2617C56.6074 46.7832 56.6803 46.3366 56.8262 45.9219C56.9766 45.5026 57.2272 45.1357 57.5781 44.8213C57.9336 44.5023 58.4212 44.2562 59.041 44.083L59.3076 44.8555ZM59.041 57.5088C58.4212 57.3311 57.9336 57.085 57.5781 56.7705C57.2272 56.4561 56.9766 56.0892 56.8262 55.6699C56.6803 55.2552 56.6074 54.8086 56.6074 54.3301V52.915C56.6074 52.4229 56.4935 52.0286 56.2656 51.7324C56.0423 51.4362 55.6732 51.2881 55.1582 51.2881V50.4609C55.8053 50.4609 56.3271 50.5703 56.7236 50.7891C57.1247 51.0078 57.4186 51.3018 57.6055 51.6709C57.7923 52.04 57.8857 52.4548 57.8857 52.915V54.3301C57.8857 54.8906 57.9883 55.3874 58.1934 55.8203C58.3984 56.2533 58.7699 56.5563 59.3076 56.7295L59.041 57.5088ZM61.7002 55H60.4219V47.6035H61.666L61.7002 48.7656V55ZM64.0039 48.7314C63.8945 48.7087 63.792 48.695 63.6963 48.6904C63.6051 48.6813 63.5003 48.6768 63.3818 48.6768C62.9945 48.6768 62.6663 48.7565 62.3975 48.916C62.1331 49.0755 61.9281 49.2965 61.7822 49.5791C61.6364 49.8571 61.5452 50.1761 61.5088 50.5361L61.1465 50.7412C61.1465 50.1442 61.2262 49.5996 61.3857 49.1074C61.5452 48.6107 61.7936 48.2142 62.1309 47.918C62.4727 47.6172 62.9102 47.4668 63.4434 47.4668C63.5299 47.4668 63.6325 47.4782 63.751 47.501C63.874 47.5192 63.9583 47.5397 64.0039 47.5625V48.7314ZM69.6914 47.6035H70.9697V55H69.7529L69.6914 53.291V47.6035ZM70.4639 51.7188C70.4639 52.375 70.3704 52.9606 70.1836 53.4756C69.9967 53.9906 69.6914 54.3962 69.2676 54.6924C68.8438 54.9886 68.2764 55.1367 67.5654 55.1367C66.8408 55.1367 66.2552 54.9225 65.8086 54.4941C65.362 54.0658 65.1387 53.3594 65.1387 52.375V47.6035H66.417V52.3887C66.417 52.8353 66.4808 53.1816 66.6084 53.4277C66.7406 53.6693 66.9092 53.8379 67.1143 53.9336C67.3239 54.0247 67.5426 54.0703 67.7705 54.0703C68.3083 54.0703 68.7344 53.9678 69.0488 53.7627C69.3633 53.5531 69.5889 53.2705 69.7256 52.915C69.8623 52.5596 69.9307 52.1654 69.9307 51.7324L70.4639 51.7188ZM74.2783 55H73V44.5H74.2783V55ZM79.3711 55.1367C78.6829 55.1367 78.0837 54.984 77.5732 54.6787C77.0674 54.3688 76.6732 53.945 76.3906 53.4072C76.1126 52.8695 75.9736 52.2542 75.9736 51.5615V51.2676C75.9736 50.4655 76.1263 49.7819 76.4316 49.2168C76.7415 48.6471 77.1426 48.2142 77.6348 47.918C78.1315 47.6172 78.6556 47.4668 79.207 47.4668C79.918 47.4668 80.4967 47.6263 80.9434 47.9453C81.3945 48.2598 81.7249 48.6904 81.9346 49.2373C82.1488 49.7796 82.2559 50.3949 82.2559 51.083V51.6504H76.7324V50.625H80.9775V50.5293C80.9593 50.2012 80.8932 49.8822 80.7793 49.5723C80.6654 49.2578 80.4831 49.0003 80.2324 48.7998C79.9818 48.5947 79.64 48.4922 79.207 48.4922C78.8242 48.4922 78.4847 48.6016 78.1885 48.8203C77.8968 49.0345 77.6667 49.349 77.498 49.7637C77.334 50.1738 77.252 50.6751 77.252 51.2676V51.5615C77.252 52.0309 77.3385 52.4593 77.5117 52.8467C77.6849 53.2295 77.9355 53.5371 78.2637 53.7695C78.5918 53.9974 78.9837 54.1113 79.4395 54.1113C79.8861 54.1113 80.2643 54.0202 80.5742 53.8379C80.8841 53.6556 81.1553 53.4118 81.3877 53.1064L82.1602 53.708C81.9232 54.0726 81.5814 54.403 81.1348 54.6992C80.6927 54.9909 80.1048 55.1367 79.3711 55.1367ZM89.0713 56.0254H82.8027V55H89.0713V56.0254ZM91.3408 55H90.0625V47.6035H91.2725L91.3408 49.1826V55ZM90.5068 50.9941C90.516 50.3197 90.6458 49.7181 90.8965 49.1895C91.1471 48.6562 91.4958 48.237 91.9424 47.9316C92.3936 47.6217 92.9176 47.4668 93.5146 47.4668C94.0023 47.4668 94.4215 47.5579 94.7725 47.7402C95.1279 47.918 95.4014 48.2028 95.5928 48.5947C95.7887 48.9867 95.8867 49.5062 95.8867 50.1533V55H94.6084V50.1396C94.6084 49.7523 94.5514 49.4401 94.4375 49.2031C94.3281 48.9661 94.1641 48.7952 93.9453 48.6904C93.7266 48.5811 93.4577 48.5264 93.1387 48.5264C92.8242 48.5264 92.5394 48.5924 92.2842 48.7246C92.029 48.8568 91.8079 49.0391 91.6211 49.2715C91.4342 49.5039 91.2907 49.7705 91.1904 50.0713C91.0902 50.3675 91.04 50.682 91.04 51.0146L90.5068 50.9941ZM102.162 49.9277C102.162 49.4857 102.03 49.1348 101.766 48.875C101.506 48.6107 101.121 48.4785 100.61 48.4785C100.296 48.4785 100.018 48.5332 99.7764 48.6426C99.5394 48.752 99.3548 48.8955 99.2227 49.0732C99.0905 49.251 99.0244 49.4447 99.0244 49.6543H97.7461C97.7461 49.2988 97.8669 48.9548 98.1084 48.6221C98.3499 48.2848 98.6895 48.0091 99.127 47.7949C99.569 47.5762 100.089 47.4668 100.686 47.4668C101.223 47.4668 101.7 47.5579 102.114 47.7402C102.529 47.9225 102.853 48.1982 103.085 48.5674C103.322 48.932 103.44 49.39 103.44 49.9414V53.3867C103.44 53.6328 103.461 53.8949 103.502 54.1729C103.548 54.4508 103.614 54.6901 103.7 54.8906V55H102.367C102.303 54.8542 102.253 54.6605 102.217 54.4189C102.18 54.1729 102.162 53.945 102.162 53.7354V49.9277ZM102.381 51.4043H101.123C100.403 51.4043 99.847 51.5182 99.4551 51.7461C99.0632 51.974 98.8672 52.3158 98.8672 52.7715C98.8672 53.127 98.9857 53.4277 99.2227 53.6738C99.4642 53.9199 99.8151 54.043 100.275 54.043C100.663 54.043 101.005 53.9609 101.301 53.7969C101.597 53.6328 101.832 53.43 102.005 53.1885C102.178 52.9469 102.271 52.7145 102.285 52.4912L102.832 53.0996C102.8 53.291 102.714 53.5029 102.572 53.7354C102.431 53.9678 102.242 54.1911 102.005 54.4053C101.772 54.6149 101.494 54.7904 101.171 54.9316C100.852 55.0684 100.492 55.1367 100.091 55.1367C99.5895 55.1367 99.1497 55.041 98.7715 54.8496C98.3978 54.6536 98.1061 54.3893 97.8965 54.0566C97.6914 53.724 97.5889 53.3548 97.5889 52.9492C97.5889 52.1517 97.8896 51.5479 98.4912 51.1377C99.0928 50.723 99.9017 50.5156 100.918 50.5156H102.381V51.4043ZM106.701 55H105.423V47.6035H106.633L106.701 49.0732V55ZM105.847 50.9941C105.851 50.3197 105.965 49.7181 106.188 49.1895C106.416 48.6562 106.751 48.237 107.193 47.9316C107.64 47.6217 108.194 47.4668 108.854 47.4668C109.547 47.4668 110.119 47.6696 110.57 48.0752C111.021 48.4808 111.247 49.1462 111.247 50.0713V55H109.969V50.1328C109.969 49.7454 109.903 49.4355 109.771 49.2031C109.643 48.9661 109.461 48.7952 109.224 48.6904C108.987 48.5811 108.709 48.5264 108.39 48.5264C108.021 48.5264 107.711 48.5924 107.46 48.7246C107.214 48.8568 107.016 49.0391 106.865 49.2715C106.715 49.5039 106.605 49.7705 106.537 50.0713C106.473 50.3675 106.441 50.682 106.441 51.0146L105.847 50.9941ZM110.379 50.5771C110.383 50.0394 110.497 49.5335 110.721 49.0596C110.949 48.5856 111.281 48.2028 111.719 47.9111C112.156 47.6149 112.689 47.4668 113.318 47.4668C113.847 47.4668 114.296 47.5602 114.665 47.7471C115.034 47.9339 115.314 48.2233 115.506 48.6152C115.697 49.0072 115.793 49.5153 115.793 50.1396V55H114.515V50.126C114.515 49.7113 114.449 49.3877 114.316 49.1553C114.189 48.9229 114.007 48.7611 113.77 48.6699C113.537 48.5742 113.261 48.5264 112.942 48.5264C112.664 48.5264 112.418 48.5742 112.204 48.6699C111.994 48.7656 111.817 48.8978 111.671 49.0664C111.53 49.2305 111.42 49.4196 111.343 49.6338C111.27 49.848 111.233 50.0758 111.233 50.3174L110.379 50.5771ZM120.783 55.1367C120.095 55.1367 119.496 54.984 118.985 54.6787C118.479 54.3688 118.085 53.945 117.803 53.4072C117.525 52.8695 117.386 52.2542 117.386 51.5615V51.2676C117.386 50.4655 117.538 49.7819 117.844 49.2168C118.154 48.6471 118.555 48.2142 119.047 47.918C119.544 47.6172 120.068 47.4668 120.619 47.4668C121.33 47.4668 121.909 47.6263 122.355 47.9453C122.807 48.2598 123.137 48.6904 123.347 49.2373C123.561 49.7796 123.668 50.3949 123.668 51.083V51.6504H118.145V50.625H122.39V50.5293C122.371 50.2012 122.305 49.8822 122.191 49.5723C122.077 49.2578 121.895 49.0003 121.645 48.7998C121.394 48.5947 121.052 48.4922 120.619 48.4922C120.236 48.4922 119.897 48.6016 119.601 48.8203C119.309 49.0345 119.079 49.349 118.91 49.7637C118.746 50.1738 118.664 50.6751 118.664 51.2676V51.5615C118.664 52.0309 118.751 52.4593 118.924 52.8467C119.097 53.2295 119.348 53.5371 119.676 53.7695C120.004 53.9974 120.396 54.1113 120.852 54.1113C121.298 54.1113 121.676 54.0202 121.986 53.8379C122.296 53.6556 122.567 53.4118 122.8 53.1064L123.572 53.708C123.335 54.0726 122.993 54.403 122.547 54.6992C122.105 54.9909 121.517 55.1367 120.783 55.1367ZM124.591 44.083C125.215 44.2562 125.703 44.5023 126.054 44.8213C126.409 45.1357 126.66 45.5026 126.806 45.9219C126.951 46.3366 127.024 46.7832 127.024 47.2617V48.6768C127.024 49.1735 127.138 49.57 127.366 49.8662C127.594 50.1579 127.963 50.3037 128.474 50.3037V51.0693C127.831 51.0693 127.309 50.9668 126.908 50.7617C126.507 50.5521 126.213 50.2673 126.026 49.9072C125.84 49.5426 125.746 49.1325 125.746 48.6768V47.2617C125.746 46.7012 125.644 46.2044 125.438 45.7715C125.238 45.334 124.867 45.0286 124.324 44.8555L124.591 44.083ZM124.324 56.7295C124.867 56.5563 125.238 56.2533 125.438 55.8203C125.644 55.3874 125.746 54.8906 125.746 54.3301V52.915C125.746 52.4548 125.84 52.0469 126.026 51.6914C126.213 51.3314 126.507 51.0488 126.908 50.8438C127.309 50.6341 127.831 50.5293 128.474 50.5293V51.2881C127.963 51.2881 127.594 51.4362 127.366 51.7324C127.138 52.0286 127.024 52.4229 127.024 52.915V54.3301C127.024 54.8086 126.951 55.2552 126.806 55.6699C126.66 56.0892 126.409 56.4561 126.054 56.7705C125.703 57.085 125.215 57.3311 124.591 57.5088L124.324 56.7295ZM129.335 44.083C129.959 44.2562 130.447 44.5023 130.798 44.8213C131.153 45.1357 131.404 45.5026 131.55 45.9219C131.696 46.3366 131.769 46.7832 131.769 47.2617V48.6768C131.769 49.1735 131.882 49.57 132.11 49.8662C132.338 50.1579 132.707 50.3037 133.218 50.3037V51.0693C132.575 51.0693 132.053 50.9668 131.652 50.7617C131.251 50.5521 130.957 50.2673 130.771 49.9072C130.584 49.5426 130.49 49.1325 130.49 48.6768V47.2617C130.49 46.7012 130.388 46.2044 130.183 45.7715C129.982 45.334 129.611 45.0286 129.068 44.8555L129.335 44.083ZM129.068 56.7295C129.611 56.5563 129.982 56.2533 130.183 55.8203C130.388 55.3874 130.49 54.8906 130.49 54.3301V52.915C130.49 52.4548 130.584 52.0469 130.771 51.6914C130.957 51.3314 131.251 51.0488 131.652 50.8438C132.053 50.6341 132.575 50.5293 133.218 50.5293V51.2881C132.707 51.2881 132.338 51.4362 132.11 51.7324C131.882 52.0286 131.769 52.4229 131.769 52.915V54.3301C131.769 54.8086 131.696 55.2552 131.55 55.6699C131.404 56.0892 131.153 56.4561 130.798 56.7705C130.447 57.085 129.959 57.3311 129.335 57.5088L129.068 56.7295ZM136.007 45.375C136.007 45.6484 135.959 45.9378 135.863 46.2432C135.772 46.5439 135.638 46.8333 135.46 47.1113C135.282 47.3893 135.066 47.6331 134.811 47.8428L134.086 47.3506C134.3 47.0498 134.462 46.7422 134.571 46.4277C134.685 46.1087 134.742 45.7624 134.742 45.3887V44.5H136.007V45.375ZM138.112 45.375C138.112 45.6484 138.064 45.9378 137.969 46.2432C137.878 46.5439 137.743 46.8333 137.565 47.1113C137.388 47.3893 137.171 47.6331 136.916 47.8428L136.191 47.3506C136.406 47.0498 136.567 46.7422 136.677 46.4277C136.791 46.1087 136.848 45.7624 136.848 45.3887V44.5H138.112V45.375ZM144.401 55H143.123V44.5H144.401V55ZM143.567 50.9941C143.576 50.3197 143.706 49.7181 143.957 49.1895C144.208 48.6562 144.556 48.237 145.003 47.9316C145.454 47.6217 145.978 47.4668 146.575 47.4668C147.063 47.4668 147.482 47.5579 147.833 47.7402C148.188 47.918 148.462 48.2028 148.653 48.5947C148.849 48.9867 148.947 49.5062 148.947 50.1533V55H147.669V50.1396C147.669 49.7523 147.612 49.4401 147.498 49.2031C147.389 48.9661 147.225 48.7952 147.006 48.6904C146.787 48.5811 146.518 48.5264 146.199 48.5264C145.885 48.5264 145.6 48.5924 145.345 48.7246C145.09 48.8568 144.868 49.0391 144.682 49.2715C144.495 49.5039 144.351 49.7705 144.251 50.0713C144.151 50.3675 144.101 50.682 144.101 51.0146L143.567 50.9941ZM155.195 49.9277C155.195 49.4857 155.063 49.1348 154.799 48.875C154.539 48.6107 154.154 48.4785 153.644 48.4785C153.329 48.4785 153.051 48.5332 152.81 48.6426C152.573 48.752 152.388 48.8955 152.256 49.0732C152.124 49.251 152.058 49.4447 152.058 49.6543H150.779C150.779 49.2988 150.9 48.9548 151.142 48.6221C151.383 48.2848 151.723 48.0091 152.16 47.7949C152.602 47.5762 153.122 47.4668 153.719 47.4668C154.257 47.4668 154.733 47.5579 155.147 47.7402C155.562 47.9225 155.886 48.1982 156.118 48.5674C156.355 48.932 156.474 49.39 156.474 49.9414V53.3867C156.474 53.6328 156.494 53.8949 156.535 54.1729C156.581 54.4508 156.647 54.6901 156.733 54.8906V55H155.4C155.337 54.8542 155.286 54.6605 155.25 54.4189C155.214 54.1729 155.195 53.945 155.195 53.7354V49.9277ZM155.414 51.4043H154.156C153.436 51.4043 152.88 51.5182 152.488 51.7461C152.096 51.974 151.9 52.3158 151.9 52.7715C151.9 53.127 152.019 53.4277 152.256 53.6738C152.497 53.9199 152.848 54.043 153.309 54.043C153.696 54.043 154.038 53.9609 154.334 53.7969C154.63 53.6328 154.865 53.43 155.038 53.1885C155.211 52.9469 155.305 52.7145 155.318 52.4912L155.865 53.0996C155.833 53.291 155.747 53.5029 155.605 53.7354C155.464 53.9678 155.275 54.1911 155.038 54.4053C154.806 54.6149 154.528 54.7904 154.204 54.9316C153.885 55.0684 153.525 55.1367 153.124 55.1367C152.623 55.1367 152.183 55.041 151.805 54.8496C151.431 54.6536 151.139 54.3893 150.93 54.0566C150.725 53.724 150.622 53.3548 150.622 52.9492C150.622 52.1517 150.923 51.5479 151.524 51.1377C152.126 50.723 152.935 50.5156 153.951 50.5156H155.414V51.4043ZM161.184 55.1367C160.532 55.1367 159.98 55.0205 159.529 54.7881C159.078 54.5557 158.736 54.2572 158.504 53.8926C158.271 53.5234 158.155 53.1338 158.155 52.7236H159.434C159.456 53.07 159.557 53.3457 159.734 53.5508C159.917 53.7513 160.138 53.8949 160.397 53.9814C160.662 54.068 160.924 54.1113 161.184 54.1113C161.53 54.1113 161.819 54.0658 162.052 53.9746C162.289 53.8789 162.466 53.7513 162.585 53.5918C162.708 53.4277 162.77 53.2432 162.77 53.0381C162.77 52.8558 162.729 52.6872 162.646 52.5322C162.569 52.3727 162.41 52.2292 162.168 52.1016C161.926 51.9694 161.562 51.8532 161.074 51.7529C160.527 51.639 160.053 51.4954 159.652 51.3223C159.256 51.1445 158.948 50.9189 158.729 50.6455C158.515 50.3721 158.408 50.0326 158.408 49.627C158.408 49.235 158.52 48.8773 158.743 48.5537C158.971 48.2256 159.29 47.9635 159.7 47.7676C160.115 47.5671 160.598 47.4668 161.149 47.4668C161.742 47.4668 162.248 47.5716 162.667 47.7812C163.091 47.9863 163.414 48.2643 163.638 48.6152C163.861 48.9616 163.973 49.3467 163.973 49.7705H162.694C162.694 49.4652 162.56 49.1758 162.291 48.9023C162.027 48.6289 161.646 48.4922 161.149 48.4922C160.803 48.4922 160.521 48.5469 160.302 48.6562C160.088 48.7611 159.93 48.8978 159.83 49.0664C159.734 49.2305 159.687 49.4036 159.687 49.5859C159.687 49.7682 159.732 49.9277 159.823 50.0645C159.914 50.1966 160.081 50.3151 160.322 50.4199C160.568 50.5247 160.924 50.6296 161.389 50.7344C161.995 50.8711 162.494 51.0352 162.886 51.2266C163.278 51.418 163.569 51.6527 163.761 51.9307C163.952 52.2087 164.048 52.5482 164.048 52.9492C164.048 53.3776 163.929 53.7581 163.692 54.0908C163.455 54.4189 163.123 54.6764 162.694 54.8633C162.266 55.0456 161.762 55.1367 161.184 55.1367ZM172.135 55.1367C171.392 55.1367 170.777 54.9681 170.289 54.6309C169.801 54.2891 169.437 53.8379 169.195 53.2773C168.958 52.7168 168.84 52.1061 168.84 51.4453V51.1582C168.84 50.4928 168.961 49.8822 169.202 49.3262C169.444 48.7656 169.808 48.3167 170.296 47.9795C170.784 47.6377 171.396 47.4668 172.135 47.4668C172.714 47.4668 173.219 47.5853 173.652 47.8223C174.09 48.0547 174.432 48.3737 174.678 48.7793C174.928 49.1803 175.065 49.6361 175.088 50.1465H173.878C173.855 49.8411 173.769 49.5632 173.618 49.3125C173.472 49.0618 173.272 48.8636 173.017 48.7178C172.766 48.5674 172.472 48.4922 172.135 48.4922C171.62 48.4922 171.214 48.6243 170.918 48.8887C170.626 49.153 170.419 49.4902 170.296 49.9004C170.177 50.306 170.118 50.7253 170.118 51.1582V51.4453C170.118 51.8783 170.177 52.2998 170.296 52.71C170.414 53.1201 170.619 53.4574 170.911 53.7217C171.207 53.9814 171.615 54.1113 172.135 54.1113C172.436 54.1113 172.714 54.0498 172.969 53.9268C173.224 53.7992 173.434 53.626 173.598 53.4072C173.762 53.1885 173.855 52.9401 173.878 52.6621H175.088C175.065 53.0996 174.917 53.5075 174.644 53.8857C174.37 54.2594 174.015 54.5625 173.577 54.7949C173.14 55.0228 172.659 55.1367 172.135 55.1367ZM176.182 51.2266C176.182 50.5111 176.318 49.8708 176.592 49.3057C176.865 48.7406 177.253 48.2939 177.754 47.9658C178.255 47.6331 178.85 47.4668 179.538 47.4668C180.235 47.4668 180.837 47.6331 181.343 47.9658C181.849 48.2939 182.236 48.7406 182.505 49.3057C182.778 49.8708 182.915 50.5111 182.915 51.2266V51.3838C182.915 52.0947 182.778 52.735 182.505 53.3047C182.236 53.8698 181.849 54.3164 181.343 54.6445C180.841 54.9727 180.244 55.1367 179.552 55.1367C178.859 55.1367 178.26 54.9727 177.754 54.6445C177.253 54.3164 176.865 53.8698 176.592 53.3047C176.318 52.735 176.182 52.0947 176.182 51.3838V51.2266ZM177.46 51.3838C177.46 51.8714 177.537 52.3226 177.692 52.7373C177.847 53.152 178.077 53.4847 178.383 53.7354C178.693 53.986 179.082 54.1113 179.552 54.1113C180.017 54.1113 180.402 53.986 180.707 53.7354C181.017 53.4847 181.249 53.152 181.404 52.7373C181.559 52.3226 181.637 51.8714 181.637 51.3838V51.2266C181.637 50.7389 181.559 50.2878 181.404 49.873C181.249 49.4583 181.017 49.1257 180.707 48.875C180.397 48.6198 180.007 48.4922 179.538 48.4922C179.078 48.4922 178.693 48.6198 178.383 48.875C178.073 49.1257 177.84 49.4583 177.686 49.873C177.535 50.2878 177.46 50.7389 177.46 51.2266V51.3838ZM185.779 55H184.501V47.6035H185.711L185.779 49.0732V55ZM184.925 50.9941C184.929 50.3197 185.043 49.7181 185.267 49.1895C185.494 48.6562 185.829 48.237 186.271 47.9316C186.718 47.6217 187.272 47.4668 187.933 47.4668C188.625 47.4668 189.197 47.6696 189.648 48.0752C190.1 48.4808 190.325 49.1462 190.325 50.0713V55H189.047V50.1328C189.047 49.7454 188.981 49.4355 188.849 49.2031C188.721 48.9661 188.539 48.7952 188.302 48.6904C188.065 48.5811 187.787 48.5264 187.468 48.5264C187.099 48.5264 186.789 48.5924 186.538 48.7246C186.292 48.8568 186.094 49.0391 185.943 49.2715C185.793 49.5039 185.684 49.7705 185.615 50.0713C185.551 50.3675 185.52 50.682 185.52 51.0146L184.925 50.9941ZM189.457 50.5771C189.462 50.0394 189.576 49.5335 189.799 49.0596C190.027 48.5856 190.359 48.2028 190.797 47.9111C191.234 47.6149 191.768 47.4668 192.396 47.4668C192.925 47.4668 193.374 47.5602 193.743 47.7471C194.112 47.9339 194.393 48.2233 194.584 48.6152C194.775 49.0072 194.871 49.5153 194.871 50.1396V55H193.593V50.126C193.593 49.7113 193.527 49.3877 193.395 49.1553C193.267 48.9229 193.085 48.7611 192.848 48.6699C192.615 48.5742 192.34 48.5264 192.021 48.5264C191.743 48.5264 191.496 48.5742 191.282 48.6699C191.073 48.7656 190.895 48.8978 190.749 49.0664C190.608 49.2305 190.498 49.4196 190.421 49.6338C190.348 49.848 190.312 50.0758 190.312 50.3174L189.457 50.5771ZM200.176 55.1367C199.702 55.1367 199.285 55.0592 198.925 54.9043C198.565 54.7493 198.259 54.526 198.009 54.2344C197.758 53.9382 197.558 53.585 197.407 53.1748C197.261 52.7601 197.161 52.293 197.106 51.7734V50.9805C197.179 50.2559 197.337 49.6315 197.578 49.1074C197.824 48.5833 198.159 48.18 198.583 47.8975C199.011 47.6104 199.535 47.4668 200.155 47.4668C200.775 47.4668 201.299 47.624 201.728 47.9385C202.156 48.2529 202.482 48.695 202.705 49.2646C202.928 49.8298 203.04 50.4883 203.04 51.2402V51.3838C203.04 52.1038 202.928 52.7464 202.705 53.3115C202.482 53.8766 202.156 54.3232 201.728 54.6514C201.304 54.9749 200.786 55.1367 200.176 55.1367ZM196.785 57.8438V47.6035H197.947L198.063 49.0254V57.8438H196.785ZM199.786 54.1113C200.242 54.1113 200.616 53.986 200.907 53.7354C201.199 53.4847 201.413 53.1543 201.55 52.7441C201.691 52.3294 201.762 51.876 201.762 51.3838V51.2402C201.762 50.748 201.691 50.2969 201.55 49.8867C201.413 49.472 201.197 49.1416 200.9 48.8955C200.609 48.6494 200.233 48.5264 199.772 48.5264C199.458 48.5264 199.185 48.5811 198.952 48.6904C198.72 48.7998 198.521 48.9479 198.357 49.1348C198.193 49.3171 198.059 49.5267 197.954 49.7637C197.854 49.9961 197.779 50.2376 197.729 50.4883V52.2725C197.82 52.5915 197.945 52.8923 198.104 53.1748C198.269 53.4528 198.485 53.6784 198.754 53.8516C199.027 54.0247 199.371 54.1113 199.786 54.1113ZM206.034 55H204.756V44.5H206.034V55ZM211.127 55.1367C210.439 55.1367 209.84 54.984 209.329 54.6787C208.823 54.3688 208.429 53.945 208.146 53.4072C207.868 52.8695 207.729 52.2542 207.729 51.5615V51.2676C207.729 50.4655 207.882 49.7819 208.188 49.2168C208.497 48.6471 208.898 48.2142 209.391 47.918C209.887 47.6172 210.411 47.4668 210.963 47.4668C211.674 47.4668 212.253 47.6263 212.699 47.9453C213.15 48.2598 213.481 48.6904 213.69 49.2373C213.905 49.7796 214.012 50.3949 214.012 51.083V51.6504H208.488V50.625H212.733V50.5293C212.715 50.2012 212.649 49.8822 212.535 49.5723C212.421 49.2578 212.239 49.0003 211.988 48.7998C211.738 48.5947 211.396 48.4922 210.963 48.4922C210.58 48.4922 210.241 48.6016 209.944 48.8203C209.653 49.0345 209.423 49.349 209.254 49.7637C209.09 50.1738 209.008 50.6751 209.008 51.2676V51.5615C209.008 52.0309 209.094 52.4593 209.268 52.8467C209.441 53.2295 209.691 53.5371 210.02 53.7695C210.348 53.9974 210.74 54.1113 211.195 54.1113C211.642 54.1113 212.02 54.0202 212.33 53.8379C212.64 53.6556 212.911 53.4118 213.144 53.1064L213.916 53.708C213.679 54.0726 213.337 54.403 212.891 54.6992C212.449 54.9909 211.861 55.1367 211.127 55.1367ZM218.599 48.5674H214.593V47.6035H218.599V48.5674ZM217.218 45.8057V53.168C217.218 53.4232 217.257 53.6146 217.334 53.7422C217.411 53.8698 217.512 53.9541 217.635 53.9951C217.758 54.0361 217.89 54.0566 218.031 54.0566C218.136 54.0566 218.245 54.0475 218.359 54.0293C218.478 54.0111 218.564 53.9951 218.619 53.9814V55C218.519 55.0319 218.389 55.0615 218.229 55.0889C218.07 55.1208 217.876 55.1367 217.648 55.1367C217.339 55.1367 217.054 55.0752 216.794 54.9521C216.534 54.8291 216.327 54.624 216.172 54.3369C216.017 54.0452 215.939 53.6533 215.939 53.1611V45.8057H217.218ZM223.145 55.1367C222.456 55.1367 221.857 54.984 221.347 54.6787C220.841 54.3688 220.447 53.945 220.164 53.4072C219.886 52.8695 219.747 52.2542 219.747 51.5615V51.2676C219.747 50.4655 219.9 49.7819 220.205 49.2168C220.515 48.6471 220.916 48.2142 221.408 47.918C221.905 47.6172 222.429 47.4668 222.98 47.4668C223.691 47.4668 224.27 47.6263 224.717 47.9453C225.168 48.2598 225.498 48.6904 225.708 49.2373C225.922 49.7796 226.029 50.3949 226.029 51.083V51.6504H220.506V50.625H224.751V50.5293C224.733 50.2012 224.667 49.8822 224.553 49.5723C224.439 49.2578 224.257 49.0003 224.006 48.7998C223.755 48.5947 223.413 48.4922 222.98 48.4922C222.598 48.4922 222.258 48.6016 221.962 48.8203C221.67 49.0345 221.44 49.349 221.271 49.7637C221.107 50.1738 221.025 50.6751 221.025 51.2676V51.5615C221.025 52.0309 221.112 52.4593 221.285 52.8467C221.458 53.2295 221.709 53.5371 222.037 53.7695C222.365 53.9974 222.757 54.1113 223.213 54.1113C223.66 54.1113 224.038 54.0202 224.348 53.8379C224.658 53.6556 224.929 53.4118 225.161 53.1064L225.934 53.708C225.697 54.0726 225.355 54.403 224.908 54.6992C224.466 54.9909 223.878 55.1367 223.145 55.1367ZM230.11 55.1367C229.532 55.1367 229.023 54.9749 228.586 54.6514C228.148 54.3232 227.807 53.8766 227.561 53.3115C227.319 52.7464 227.198 52.1038 227.198 51.3838V51.2402C227.198 50.4883 227.319 49.8298 227.561 49.2646C227.807 48.695 228.148 48.2529 228.586 47.9385C229.023 47.624 229.536 47.4668 230.124 47.4668C230.744 47.4668 231.261 47.6104 231.676 47.8975C232.09 48.18 232.414 48.5833 232.646 49.1074C232.883 49.6315 233.036 50.2559 233.104 50.9805V51.6436C233.036 52.359 232.886 52.9788 232.653 53.5029C232.421 54.0225 232.095 54.4258 231.676 54.7129C231.261 54.9954 230.739 55.1367 230.11 55.1367ZM230.425 54.0703C230.844 54.0703 231.188 53.9814 231.457 53.8037C231.73 53.626 231.949 53.3913 232.113 53.0996C232.277 52.8079 232.405 52.4912 232.496 52.1494V50.4883C232.441 50.2376 232.362 49.9961 232.257 49.7637C232.157 49.5267 232.024 49.3171 231.86 49.1348C231.701 48.9479 231.503 48.7998 231.266 48.6904C231.033 48.5811 230.757 48.5264 230.438 48.5264C229.978 48.5264 229.602 48.6494 229.311 48.8955C229.023 49.1416 228.812 49.472 228.675 49.8867C228.543 50.2969 228.477 50.748 228.477 51.2402V51.3838C228.477 51.876 228.543 52.3249 228.675 52.7305C228.812 53.1361 229.023 53.4619 229.311 53.708C229.598 53.9495 229.969 54.0703 230.425 54.0703ZM232.277 55L232.168 53.5645V44.5H233.446V55H232.277ZM236.222 55.0752C235.966 55.0752 235.771 55.0046 235.634 54.8633C235.502 54.722 235.436 54.5465 235.436 54.3369C235.436 54.1227 235.502 53.9427 235.634 53.7969C235.771 53.6465 235.966 53.5713 236.222 53.5713C236.481 53.5713 236.677 53.6465 236.81 53.7969C236.946 53.9427 237.015 54.1227 237.015 54.3369C237.015 54.5465 236.946 54.722 236.81 54.8633C236.677 55.0046 236.481 55.0752 236.222 55.0752Z" fill="#A16207"/>
</g>
</g>
<defs>
<clipPath id="clip0_38294_34377">
<rect width="222" height="44" fill="white" transform="translate(17 17)"/>
</clipPath>
<clipPath id="clip1_38294_34377">
<rect width="194" height="44" fill="white" transform="translate(45 17)"/>
</clipPath>
</defs>
</svg>
