<svg width="40" height="40" viewBox="0 0 40 40" fill="none" xmlns="http://www.w3.org/2000/svg">
<rect width="40" height="40" rx="10" fill="white"/>
<path fill-rule="evenodd" clip-rule="evenodd" d="M20 10C14.477 10 10 14.477 10 20C10 25.523 14.477 30 20 30C25.523 30 30 25.523 30 20C30 14.477 25.523 10 20 10ZM23.423 15.424C23.5287 15.502 23.618 15.6001 23.6857 15.7127C23.7535 15.8253 23.7984 15.9501 23.8179 16.08C23.8374 16.2099 23.8311 16.3424 23.7994 16.4699C23.7676 16.5974 23.7111 16.7174 23.633 16.823L22.024 19H23C23.2652 19 23.5196 19.1054 23.7071 19.2929C23.8946 19.4804 24 19.7348 24 20C24 20.2652 23.8946 20.5196 23.7071 20.7071C23.5196 20.8946 23.2652 21 23 21H21V22H23C23.2652 22 23.5196 22.1054 23.7071 22.2929C23.8946 22.4804 24 22.7348 24 23C24 23.2652 23.8946 23.5196 23.7071 23.7071C23.5196 23.8946 23.2652 24 23 24H21V25C21 25.2652 20.8946 25.5196 20.7071 25.7071C20.5196 25.8946 20.2652 26 20 26C19.7348 26 19.4804 25.8946 19.2929 25.7071C19.1054 25.5196 19 25.2652 19 25V24H17C16.7348 24 16.4804 23.8946 16.2929 23.7071C16.1054 23.5196 16 23.2652 16 23C16 22.7348 16.1054 22.4804 16.2929 22.2929C16.4804 22.1054 16.7348 22 17 22H19V21H17C16.7348 21 16.4804 20.8946 16.2929 20.7071C16.1054 20.5196 16 20.2652 16 20C16 19.7348 16.1054 19.4804 16.2929 19.2929C16.4804 19.1054 16.7348 19 17 19H17.976L16.367 16.823C16.2093 16.6096 16.1429 16.3424 16.1823 16.08C16.2216 15.8176 16.3636 15.5817 16.577 15.424C16.7904 15.2663 17.0576 15.1999 17.32 15.2393C17.5824 15.2786 17.8183 15.4206 17.976 15.634L20 18.374L22.024 15.634C22.102 15.5283 22.2001 15.439 22.3127 15.3713C22.4253 15.3035 22.5501 15.2586 22.68 15.2391C22.8099 15.2196 22.9424 15.2259 23.0699 15.2576C23.1974 15.2894 23.3174 15.3459 23.423 15.424Z" fill="#1D4ED8"/>
</svg>
