<svg width="45" height="46" viewBox="0 0 45 46" fill="none" xmlns="http://www.w3.org/2000/svg">
<rect y="0.5" width="45" height="45" rx="10" fill="#F7F8FD"/>
<path fill-rule="evenodd" clip-rule="evenodd" d="M21.9154 13.887C21.9746 13.7844 22.0598 13.6992 22.1624 13.64C22.265 13.5807 22.3814 13.5496 22.4999 13.5496C22.6184 13.5496 22.7348 13.5807 22.8374 13.64C22.94 13.6992 23.0252 13.7844 23.0844 13.887L26.4729 19.7614C28.5 24 29.5 25.483 31.2059 27.9673L33.2072 31.438C33.2665 31.5407 33.2977 31.6572 33.2977 31.7757C33.2976 31.8942 33.2664 32.0107 33.2071 32.1133C33.1477 32.216 33.0624 32.3011 32.9597 32.3603C32.857 32.4195 32.7406 32.4506 32.622 32.4505H12.3771C12.2586 32.4505 12.1422 32.4193 12.0396 32.3601C11.937 32.3008 11.8518 32.2156 11.7926 32.113C11.7333 32.0104 11.7021 31.894 11.7021 31.7755C11.7021 31.6571 11.7333 31.5407 11.7926 31.438L21.9154 13.887ZM21.6555 28.7705V27.083H23.3443V28.7705H21.6555ZM22.4999 20.3298C22.0342 20.3298 21.6562 20.7078 21.6562 21.1735V24.8859C21.6562 25.1099 21.7451 25.3247 21.9035 25.483C22.0618 25.6414 22.2766 25.7304 22.5006 25.7304C22.7245 25.7304 22.9393 25.6414 23.0977 25.483C23.256 25.3247 23.345 25.1099 23.345 24.8859V21.1735C23.345 20.7078 22.9663 20.3298 22.4999 20.3298Z" fill="#F09C00"/>
</svg>
