<svg width="23" height="23" viewBox="0 0 23 23" fill="none" xmlns="http://www.w3.org/2000/svg">
<g clip-path="url(#clip0_39972_39720)">
<path d="M49.6103 0.25H-12.1396V22.75H49.6103V0.25Z" fill="white"/>
<path d="M49.6103 0.25H-12.1396V2.75H49.6103V0.25Z" fill="#B22234"/>
<path d="M49.6103 5.25H-12.1396V7.75002H49.6103V5.25Z" fill="#B22234"/>
<path d="M49.6103 10.25H-12.1396V12.75H49.6103V10.25Z" fill="#B22234"/>
<path d="M49.6103 15.25H-12.1396V17.75H49.6103V15.25Z" fill="#B22234"/>
<path d="M49.6103 20.25H-12.1396V22.75H49.6103V20.25Z" fill="#B22234"/>
<path d="M12.5603 0.25H-12.1396V12.75H12.5603V0.25Z" fill="#3C3B6E"/>
<path d="M8.40044 1.24219L8.17569 1.93415H7.44824L8.03668 2.36161L7.81204 3.05326L8.40044 2.6258L8.98882 3.05326L8.76413 2.36154L9.3523 1.93415H8.62517L8.40044 1.24219Z" fill="white"/>
<path d="M6.35281 3L6.12812 3.69167H5.40088L5.9893 4.11915L5.76443 4.81082L6.3529 4.38332L6.94121 4.81082L6.7165 4.11915L7.30494 3.69167H6.57752L6.35281 3Z" fill="white"/>
<path d="M10.4477 3L10.223 3.69167H9.49585L10.0842 4.11913L9.85934 4.81082L10.4478 4.38332L11.0361 4.81082L10.8114 4.11919L11.3999 3.69167H10.6726L10.4477 3Z" fill="white"/>
<path d="M4.3054 4.75391L4.0807 5.44558H3.35327L3.94176 5.87308L3.71703 6.56495L4.30531 6.13748L4.89376 6.56495L4.66885 5.87308L5.25731 5.44558H4.53007L4.3054 4.75391ZM4.30527 5.75504H4.30525L4.30531 5.75493L4.30534 5.755L4.30527 5.75504Z" fill="white"/>
<path d="M8.40044 4.75391L8.17573 5.44558H7.44824L8.03677 5.8731L7.81204 6.56495L8.40042 6.13752L8.98879 6.56495L8.76402 5.87303L9.35228 5.44558H8.62513L8.40044 4.75391ZM8.40044 5.75504L8.40037 5.755L8.40042 5.75493L8.40049 5.75504H8.40044Z" fill="white"/>
<path d="M2.25777 6.50781L2.03311 7.19942H1.30591L1.89413 7.62685L1.6694 8.31857L2.25777 7.89109L2.84615 8.31857L2.62146 7.62694L3.20995 7.19942H2.48248L2.25777 6.50781Z" fill="white"/>
<path d="M6.35281 6.50781L6.12812 7.19942H5.40088L5.98932 7.6269L5.76443 8.31857L6.3529 7.89105L6.94121 8.31857L6.7165 7.6269L7.30494 7.19942H6.57752L6.35281 6.50781Z" fill="white"/>
<path d="M10.4477 6.50781L10.223 7.19942H9.49585L10.0842 7.62685L9.85934 8.31857L10.4478 7.89105L11.0361 8.31857L10.8114 7.62694L11.3999 7.19942H10.6726L10.4477 6.50781Z" fill="white"/>
<path d="M4.53009 8.95725L4.3054 8.26562L4.0807 8.95725H3.35327L3.94171 9.38475L3.71701 10.0763L4.30531 9.64886L4.89376 10.0763L4.66891 9.38473L5.25731 8.95725H4.53009Z" fill="white"/>
<path d="M8.62513 8.95725L8.40044 8.26562L8.17573 8.95725H7.44824L8.03675 9.3848L7.81204 10.0763L8.40044 9.64892L8.98882 10.0763L8.76411 9.38468L9.3523 8.95725H8.62513Z" fill="white"/>
<path d="M2.48248 10.7111L2.25777 10.0195L2.03309 10.7111H1.30591L1.8941 11.1386L1.6694 11.8303L2.25777 11.4028L2.84615 11.8303L2.62146 11.1387L3.20995 10.7111H2.48248Z" fill="white"/>
<path d="M6.57752 10.7111L6.35281 10.0195L6.12812 10.7111H5.40088L5.98932 11.1387L5.76443 11.8303L6.3529 11.4028L6.94121 11.8303L6.7165 11.1387L7.30494 10.7111H6.57752Z" fill="white"/>
<path d="M10.6726 10.7111L10.4477 10.0195L10.223 10.7111H9.49585L10.0842 11.1386L9.85934 11.8303L10.4478 11.4028L11.0361 11.8303L10.8114 11.1387L11.3999 10.7111H10.6726Z" fill="white"/>
</g>
<defs>
<clipPath id="clip0_39972_39720">
<rect x="0.25" y="0.25" width="22.5" height="22.5" rx="11.25" fill="white"/>
</clipPath>
</defs>
</svg>
