<svg width="594" height="233" viewBox="0 0 594 233" fill="none" xmlns="http://www.w3.org/2000/svg">
<g clip-path="url(#clip0_37365_34608)">
<rect width="594" height="233" rx="8" fill="#ECEEF7"/>
<g filter="url(#filter0_d_37365_34608)">
<path d="M294.169 125C321.112 125 345.239 137.955 361.451 158.386C380.087 181.871 403.945 206 433.925 206H646.5C678.256 206 704 231.744 704 263.5C704 295.256 678.256 321 646.5 321H-72.5C-104.256 321 -130 295.256 -130 263.5C-130 231.744 -104.256 206 -72.5 206H154.411C184.392 206 208.25 181.871 226.886 158.386C243.099 137.955 267.226 125 294.169 125Z" fill="white"/>
</g>
</g>
<defs>
<filter id="filter0_d_37365_34608" x="-166" y="29" width="906" height="292" filterUnits="userSpaceOnUse" color-interpolation-filters="sRGB">
<feFlood flood-opacity="0" result="BackgroundImageFix"/>
<feColorMatrix in="SourceAlpha" type="matrix" values="0 0 0 0 0 0 0 0 0 0 0 0 0 0 0 0 0 0 127 0" result="hardAlpha"/>
<feOffset dy="-60"/>
<feGaussianBlur stdDeviation="18"/>
<feColorMatrix type="matrix" values="0 0 0 0 0.0509804 0 0 0 0 0.203922 0 0 0 0 0.807843 0 0 0 0.05 0"/>
<feBlend mode="normal" in2="BackgroundImageFix" result="effect1_dropShadow_37365_34608"/>
<feBlend mode="normal" in="SourceGraphic" in2="effect1_dropShadow_37365_34608" result="shape"/>
</filter>
<clipPath id="clip0_37365_34608">
<rect width="594" height="233" rx="8" fill="white"/>
</clipPath>
</defs>
</svg>
