<svg width="22" height="22" viewBox="0 0 22 22" fill="none" xmlns="http://www.w3.org/2000/svg">
<path d="M16.5 8.08708C16.5 7.84397 16.4034 7.61081 16.2315 7.4389C16.0596 7.26699 15.8264 7.17042 15.5833 7.17042H4.95913L7.06747 5.07125C7.24008 4.89864 7.33705 4.66453 7.33705 4.42042C7.33705 4.17631 7.24008 3.9422 7.06747 3.76958C6.89485 3.59697 6.66074 3.5 6.41663 3.5C6.17252 3.5 5.93841 3.59697 5.7658 3.76958L2.09913 7.43625C1.97194 7.56516 1.88577 7.72885 1.85151 7.90667C1.81725 8.0845 1.83643 8.26848 1.90663 8.43542C1.9754 8.60282 2.09218 8.74612 2.24226 8.84726C2.39234 8.9484 2.56899 9.00285 2.74997 9.00375H15.5833C15.8264 9.00375 16.0596 8.90717 16.2315 8.73526C16.4034 8.56336 16.5 8.3302 16.5 8.08708ZM20.0933 11.4054C20.0245 11.238 19.9077 11.0947 19.7577 10.9936C19.6076 10.8924 19.4309 10.838 19.25 10.8371H6.41663C6.17352 10.8371 5.94036 10.9337 5.76845 11.1056C5.59654 11.2775 5.49996 11.5106 5.49996 11.7537C5.49996 11.9969 5.59654 12.23 5.76845 12.4019C5.94036 12.5738 6.17352 12.6704 6.41663 12.6704H17.0408L14.9325 14.7696C14.8465 14.8548 14.7784 14.9562 14.7318 15.0679C14.6853 15.1796 14.6613 15.2994 14.6613 15.4204C14.6613 15.5414 14.6853 15.6612 14.7318 15.7729C14.7784 15.8846 14.8465 15.986 14.9325 16.0712C15.0177 16.1572 15.1191 16.2254 15.2308 16.2719C15.3425 16.3184 15.4623 16.3424 15.5833 16.3424C15.7043 16.3424 15.8241 16.3184 15.9358 16.2719C16.0475 16.2254 16.1489 16.1572 16.2341 16.0712L19.9008 12.4046C20.028 12.2757 20.1142 12.112 20.1484 11.9342C20.1827 11.7563 20.1635 11.5724 20.0933 11.4054Z" fill="#1D4ED8"/>
<path d="M16.5 8.08708C16.5 7.84397 16.4034 7.61081 16.2315 7.4389C16.0596 7.26699 15.8264 7.17042 15.5833 7.17042H4.95913L7.06747 5.07125C7.24008 4.89864 7.33705 4.66453 7.33705 4.42042C7.33705 4.17631 7.24008 3.9422 7.06747 3.76958C6.89485 3.59697 6.66074 3.5 6.41663 3.5C6.17252 3.5 5.93841 3.59697 5.7658 3.76958L2.09913 7.43625C1.97194 7.56516 1.88577 7.72885 1.85151 7.90667C1.81725 8.0845 1.83643 8.26848 1.90663 8.43542C1.9754 8.60282 2.09218 8.74612 2.24226 8.84726C2.39234 8.9484 2.56899 9.00285 2.74997 9.00375H15.5833C15.8264 9.00375 16.0596 8.90717 16.2315 8.73526C16.4034 8.56336 16.5 8.3302 16.5 8.08708ZM20.0933 11.4054C20.0245 11.238 19.9077 11.0947 19.7577 10.9936C19.6076 10.8924 19.4309 10.838 19.25 10.8371H6.41663C6.17352 10.8371 5.94036 10.9337 5.76845 11.1056C5.59654 11.2775 5.49996 11.5106 5.49996 11.7537C5.49996 11.9969 5.59654 12.23 5.76845 12.4019C5.94036 12.5738 6.17352 12.6704 6.41663 12.6704H17.0408L14.9325 14.7696C14.8465 14.8548 14.7784 14.9562 14.7318 15.0679C14.6853 15.1796 14.6613 15.2994 14.6613 15.4204C14.6613 15.5414 14.6853 15.6612 14.7318 15.7729C14.7784 15.8846 14.8465 15.986 14.9325 16.0712C15.0177 16.1572 15.1191 16.2254 15.2308 16.2719C15.3425 16.3184 15.4623 16.3424 15.5833 16.3424C15.7043 16.3424 15.8241 16.3184 15.9358 16.2719C16.0475 16.2254 16.1489 16.1572 16.2341 16.0712L19.9008 12.4046C20.028 12.2757 20.1142 12.112 20.1484 11.9342C20.1827 11.7563 20.1635 11.5724 20.0933 11.4054Z" fill="url(#paint0_linear_35416_78228)"/>
<defs>
<linearGradient id="paint0_linear_35416_78228" x1="11" y1="3.5" x2="11" y2="16.3424" gradientUnits="userSpaceOnUse">
<stop stop-color="#1D4ED8"/>
<stop offset="1" stop-color="#A60DAE"/>
</linearGradient>
</defs>
</svg>
