<svg width="23" height="22" viewBox="0 0 23 22" fill="none" xmlns="http://www.w3.org/2000/svg">
<path d="M17 8.08708C17 7.84397 16.9034 7.61081 16.7315 7.4389C16.5596 7.26699 16.3264 7.17042 16.0833 7.17042H5.45913L7.56747 5.07125C7.74008 4.89864 7.83705 4.66453 7.83705 4.42042C7.83705 4.17631 7.74008 3.9422 7.56747 3.76958C7.39485 3.59697 7.16074 3.5 6.91663 3.5C6.67252 3.5 6.43841 3.59697 6.2658 3.76958L2.59913 7.43625C2.47194 7.56516 2.38577 7.72885 2.35151 7.90667C2.31725 8.0845 2.33643 8.26848 2.40663 8.43542C2.4754 8.60282 2.59218 8.74612 2.74226 8.84726C2.89234 8.9484 3.06899 9.00285 3.24997 9.00375H16.0833C16.3264 9.00375 16.5596 8.90717 16.7315 8.73526C16.9034 8.56336 17 8.3302 17 8.08708ZM20.5933 11.4054C20.5245 11.238 20.4077 11.0947 20.2577 10.9936C20.1076 10.8924 19.9309 10.838 19.75 10.8371H6.91663C6.67352 10.8371 6.44036 10.9337 6.26845 11.1056C6.09654 11.2775 5.99996 11.5106 5.99996 11.7537C5.99996 11.9969 6.09654 12.23 6.26845 12.4019C6.44036 12.5738 6.67352 12.6704 6.91663 12.6704H17.5408L15.4325 14.7696C15.3465 14.8548 15.2784 14.9562 15.2318 15.0679C15.1853 15.1796 15.1613 15.2994 15.1613 15.4204C15.1613 15.5414 15.1853 15.6612 15.2318 15.7729C15.2784 15.8846 15.3465 15.986 15.4325 16.0712C15.5177 16.1572 15.6191 16.2254 15.7308 16.2719C15.8425 16.3184 15.9623 16.3424 16.0833 16.3424C16.2043 16.3424 16.3241 16.3184 16.4358 16.2719C16.5475 16.2254 16.6489 16.1572 16.7341 16.0712L20.4008 12.4046C20.528 12.2757 20.6142 12.112 20.6484 11.9342C20.6827 11.7563 20.6635 11.5724 20.5933 11.4054Z" fill="#1D4ED8"/>
<path d="M17 8.08708C17 7.84397 16.9034 7.61081 16.7315 7.4389C16.5596 7.26699 16.3264 7.17042 16.0833 7.17042H5.45913L7.56747 5.07125C7.74008 4.89864 7.83705 4.66453 7.83705 4.42042C7.83705 4.17631 7.74008 3.9422 7.56747 3.76958C7.39485 3.59697 7.16074 3.5 6.91663 3.5C6.67252 3.5 6.43841 3.59697 6.2658 3.76958L2.59913 7.43625C2.47194 7.56516 2.38577 7.72885 2.35151 7.90667C2.31725 8.0845 2.33643 8.26848 2.40663 8.43542C2.4754 8.60282 2.59218 8.74612 2.74226 8.84726C2.89234 8.9484 3.06899 9.00285 3.24997 9.00375H16.0833C16.3264 9.00375 16.5596 8.90717 16.7315 8.73526C16.9034 8.56336 17 8.3302 17 8.08708ZM20.5933 11.4054C20.5245 11.238 20.4077 11.0947 20.2577 10.9936C20.1076 10.8924 19.9309 10.838 19.75 10.8371H6.91663C6.67352 10.8371 6.44036 10.9337 6.26845 11.1056C6.09654 11.2775 5.99996 11.5106 5.99996 11.7537C5.99996 11.9969 6.09654 12.23 6.26845 12.4019C6.44036 12.5738 6.67352 12.6704 6.91663 12.6704H17.5408L15.4325 14.7696C15.3465 14.8548 15.2784 14.9562 15.2318 15.0679C15.1853 15.1796 15.1613 15.2994 15.1613 15.4204C15.1613 15.5414 15.1853 15.6612 15.2318 15.7729C15.2784 15.8846 15.3465 15.986 15.4325 16.0712C15.5177 16.1572 15.6191 16.2254 15.7308 16.2719C15.8425 16.3184 15.9623 16.3424 16.0833 16.3424C16.2043 16.3424 16.3241 16.3184 16.4358 16.2719C16.5475 16.2254 16.6489 16.1572 16.7341 16.0712L20.4008 12.4046C20.528 12.2757 20.6142 12.112 20.6484 11.9342C20.6827 11.7563 20.6635 11.5724 20.5933 11.4054Z" fill="#C5C5C5"/>
</svg>
