<svg width="28" height="24" viewBox="0 0 28 24" fill="none" xmlns="http://www.w3.org/2000/svg">
<path d="M15.3672 12.1838L12.0866 10.975L10.8778 7.69438C10.8163 7.52746 10.705 7.38343 10.5591 7.2817C10.4131 7.17997 10.2395 7.12543 10.0616 7.12543C9.88367 7.12543 9.71004 7.17997 9.5641 7.2817C9.41815 7.38343 9.30689 7.52746 9.24533 7.69438L8.03658 10.975L4.75595 12.1838C4.58904 12.2453 4.44501 12.3566 4.34328 12.5025C4.24155 12.6485 4.18701 12.8221 4.18701 13C4.18701 13.1779 4.24155 13.3515 4.34328 13.4975C4.44501 13.6434 4.58904 13.7547 4.75595 13.8162L8.03658 15.025L9.24533 18.3056C9.30689 18.4725 9.41815 18.6166 9.5641 18.7183C9.71004 18.82 9.88367 18.8746 10.0616 18.8746C10.2395 18.8746 10.4131 18.82 10.5591 18.7183C10.705 18.6166 10.8163 18.4725 10.8778 18.3056L12.0866 15.025L15.3672 13.8162C15.5341 13.7547 15.6781 13.6434 15.7799 13.4975C15.8816 13.3515 15.9361 13.1779 15.9361 13C15.9361 12.8221 15.8816 12.6485 15.7799 12.5025C15.6781 12.3566 15.5341 12.2453 15.3672 12.1838ZM15.1078 13.1125L11.6653 14.3813C11.6143 14.4 11.568 14.4296 11.5296 14.468C11.4912 14.5065 11.4616 14.5528 11.4428 14.6038L10.1741 18.0463C10.1656 18.0692 10.1502 18.089 10.1301 18.103C10.11 18.117 10.0861 18.1245 10.0616 18.1245C10.0371 18.1245 10.0132 18.117 9.99306 18.103C9.97295 18.089 9.9576 18.0692 9.94908 18.0463L8.68033 14.6038C8.66157 14.5528 8.63196 14.5065 8.59354 14.468C8.55513 14.4296 8.50882 14.4 8.45783 14.3813L5.01533 13.1125C4.99236 13.104 4.97256 13.0886 4.95857 13.0685C4.94458 13.0484 4.93709 13.0245 4.93709 13C4.93709 12.9755 4.94458 12.9516 4.95857 12.9315C4.97256 12.9114 4.99236 12.896 5.01533 12.8875L8.45783 11.6188C8.50882 11.6 8.55513 11.5704 8.59354 11.532C8.63196 11.4935 8.66157 11.4472 8.68033 11.3962L9.94908 7.95375C9.9576 7.93078 9.97295 7.91098 9.99306 7.89699C10.0132 7.88301 10.0371 7.87551 10.0616 7.87551C10.0861 7.87551 10.11 7.88301 10.1301 7.89699C10.1502 7.91098 10.1656 7.93078 10.1741 7.95375L11.4428 11.3962C11.4616 11.4472 11.4912 11.4935 11.5296 11.532C11.568 11.5704 11.6143 11.6 11.6653 11.6188L15.1078 12.8875C15.1308 12.896 15.1506 12.9114 15.1646 12.9315C15.1786 12.9516 15.1861 12.9755 15.1861 13C15.1861 13.0245 15.1786 13.0484 15.1646 13.0685C15.1506 13.0886 15.1308 13.104 15.1078 13.1125ZM12.1866 6.5C12.1866 6.40054 12.2261 6.30516 12.2964 6.23483C12.3667 6.16451 12.4621 6.125 12.5616 6.125H13.6866V5C13.6866 4.90054 13.7261 4.80516 13.7964 4.73483C13.8667 4.66451 13.9621 4.625 14.0616 4.625C14.161 4.625 14.2564 4.66451 14.3267 4.73483C14.3971 4.80516 14.4366 4.90054 14.4366 5V6.125H15.5616C15.661 6.125 15.7564 6.16451 15.8267 6.23483C15.8971 6.30516 15.9366 6.40054 15.9366 6.5C15.9366 6.59946 15.8971 6.69484 15.8267 6.76517C15.7564 6.83549 15.661 6.875 15.5616 6.875H14.4366V8C14.4366 8.09946 14.3971 8.19484 14.3267 8.26516C14.2564 8.33549 14.161 8.375 14.0616 8.375C13.9621 8.375 13.8667 8.33549 13.7964 8.26516C13.7261 8.19484 13.6866 8.09946 13.6866 8V6.875H12.5616C12.4621 6.875 12.3667 6.83549 12.2964 6.76517C12.2261 6.69484 12.1866 6.59946 12.1866 6.5ZM18.4366 9.5C18.4366 9.59946 18.3971 9.69484 18.3267 9.76516C18.2564 9.83549 18.161 9.875 18.0616 9.875H17.4366V10.5C17.4366 10.5995 17.3971 10.6948 17.3267 10.7652C17.2564 10.8355 17.161 10.875 17.0616 10.875C16.9621 10.875 16.8667 10.8355 16.7964 10.7652C16.7261 10.6948 16.6866 10.5995 16.6866 10.5V9.875H16.0616C15.9621 9.875 15.8667 9.83549 15.7964 9.76516C15.7261 9.69484 15.6866 9.59946 15.6866 9.5C15.6866 9.40054 15.7261 9.30516 15.7964 9.23484C15.8667 9.16451 15.9621 9.125 16.0616 9.125H16.6866V8.5C16.6866 8.40054 16.7261 8.30516 16.7964 8.23484C16.8667 8.16451 16.9621 8.125 17.0616 8.125C17.161 8.125 17.2564 8.16451 17.3267 8.23484C17.3971 8.30516 17.4366 8.40054 17.4366 8.5V9.125H18.0616C18.161 9.125 18.2564 9.16451 18.3267 9.23484C18.3971 9.30516 18.4366 9.40054 18.4366 9.5Z" fill="black"/>
</svg>
