<svg width="16" height="18" viewBox="0 0 16 18" fill="none" xmlns="http://www.w3.org/2000/svg">
<path d="M8 1.66602V16.3327" stroke="#9CA3AF" stroke-width="2" stroke-linecap="round" stroke-linejoin="round"/>
<path d="M8 1.66602V16.3327" stroke="black" stroke-opacity="0.2" stroke-width="2" stroke-linecap="round" stroke-linejoin="round"/>
<path d="M11.3333 4.33398H6.33333C5.71449 4.33398 5.121 4.57982 4.68342 5.0174C4.24583 5.45499 4 6.04848 4 6.66732C4 7.28616 4.24583 7.87965 4.68342 8.31723C5.121 8.75482 5.71449 9.00065 6.33333 9.00065H9.66667C10.2855 9.00065 10.879 9.24648 11.3166 9.68407C11.7542 10.1217 12 10.7151 12 11.334C12 11.9528 11.7542 12.5463 11.3166 12.9839C10.879 13.4215 10.2855 13.6673 9.66667 13.6673H4" stroke="#9CA3AF" stroke-width="2" stroke-linecap="round" stroke-linejoin="round"/>
<path d="M11.3333 4.33398H6.33333C5.71449 4.33398 5.121 4.57982 4.68342 5.0174C4.24583 5.45499 4 6.04848 4 6.66732C4 7.28616 4.24583 7.87965 4.68342 8.31723C5.121 8.75482 5.71449 9.00065 6.33333 9.00065H9.66667C10.2855 9.00065 10.879 9.24648 11.3166 9.68407C11.7542 10.1217 12 10.7151 12 11.334C12 11.9528 11.7542 12.5463 11.3166 12.9839C10.879 13.4215 10.2855 13.6673 9.66667 13.6673H4" stroke="black" stroke-opacity="0.2" stroke-width="2" stroke-linecap="round" stroke-linejoin="round"/>
</svg>
