<svg width="34" height="34" viewBox="0 0 34 34" fill="none" xmlns="http://www.w3.org/2000/svg">
<rect x="0.5" y="0.5" width="33" height="33" rx="8.5" stroke="#CACACA"/>
<path d="M11.6667 22.8333H12.8542L21 14.6875L19.8125 13.5L11.6667 21.6458V22.8333ZM10 24.5V20.9583L21 9.97917C21.1667 9.82639 21.3508 9.70833 21.5525 9.625C21.7542 9.54167 21.9658 9.5 22.1875 9.5C22.4092 9.5 22.6244 9.54167 22.8333 9.625C23.0422 9.70833 23.2228 9.83333 23.375 10L24.5208 11.1667C24.6875 11.3194 24.8092 11.5 24.8858 11.7083C24.9625 11.9167 25.0005 12.125 25 12.3333C25 12.5556 24.9619 12.7675 24.8858 12.9692C24.8097 13.1708 24.688 13.3547 24.5208 13.5208L13.5417 24.5H10ZM20.3958 14.1042L19.8125 13.5L21 14.6875L20.3958 14.1042Z" fill="black"/>
</svg>
