<svg width="22" height="22" viewBox="0 0 22 22" fill="none" xmlns="http://www.w3.org/2000/svg">
<g clip-path="url(#clip0_36120_67098)">
<path fill-rule="evenodd" clip-rule="evenodd" d="M21.3538 2.10342C21.5359 1.90793 21.6351 1.64936 21.6304 1.3822C21.6257 1.11503 21.5174 0.86013 21.3285 0.671187C21.1396 0.482244 20.8847 0.374015 20.6175 0.369301C20.3503 0.364587 20.0918 0.463757 19.8963 0.645917L18.1225 2.41967C16.9994 1.63748 15.6368 1.27538 14.2735 1.3968C12.9102 1.51823 11.6331 2.11542 10.6659 3.08379L9.8684 3.88129C9.62238 4.12863 9.48428 4.46331 9.48428 4.81217C9.48428 5.16103 9.62238 5.4957 9.8684 5.74304L16.2566 12.1313C16.504 12.3773 16.8387 12.5154 17.1875 12.5154C17.5364 12.5154 17.8711 12.3773 18.1184 12.1313L18.9159 11.3338C19.8845 10.3667 20.4819 9.0897 20.6036 7.72641C20.7253 6.36312 20.3634 5.00048 19.5814 3.87717L21.3538 2.10342ZM9.66627 8.89592C9.85939 9.08928 9.96786 9.35139 9.96786 9.62467C9.96786 9.89795 9.85939 10.1601 9.66627 10.3534L7.94752 12.0722L9.92752 14.0522L11.6463 12.3334C11.8418 12.1513 12.1003 12.0521 12.3675 12.0568C12.6347 12.0615 12.8896 12.1697 13.0785 12.3587C13.2674 12.5476 13.3757 12.8025 13.3804 13.0697C13.3851 13.3369 13.2859 13.5954 13.1038 13.7909L11.385 15.5097L12.1316 16.2563C12.3777 16.5036 12.5158 16.8383 12.5158 17.1872C12.5158 17.536 12.3777 17.8707 12.1316 18.118L11.3341 18.9155C10.3671 19.8841 9.09006 20.4816 7.72676 20.6032C6.36347 20.7249 5.00083 20.3631 3.87752 19.581L2.10377 21.3548C1.90919 21.5426 1.64864 21.6464 1.37825 21.6439C1.10786 21.6414 0.849261 21.5328 0.658148 21.3416C0.467035 21.1503 0.358701 20.8916 0.35648 20.6212C0.354259 20.3508 0.458328 20.0903 0.646272 19.8959L2.42002 18.1222C1.63783 16.999 1.27574 15.6365 1.39716 14.2732C1.51858 12.9099 2.11578 11.6328 3.08415 10.6655L3.88165 9.86804C4.12899 9.62202 4.46366 9.48392 4.81252 9.48392C5.16138 9.48392 5.49606 9.62202 5.7434 9.86804L6.49002 10.6147L8.20877 8.89592C8.40213 8.7028 8.66424 8.59432 8.93752 8.59432C9.2108 8.59432 9.47291 8.7028 9.66627 8.89592ZM4.81252 11.8522L4.54165 12.123C3.84582 12.8327 3.45823 13.7883 3.46312 14.7822C3.46801 15.776 3.86499 16.7278 4.56776 17.4306C5.27053 18.1333 6.22229 18.5303 7.21615 18.5352C8.21 18.5401 9.16562 18.1525 9.87527 17.4567L10.1461 17.1858L4.81252 11.8522ZM17.4584 9.87354L17.1875 10.1444L11.8539 4.81217L12.1248 4.54129C12.8344 3.84547 13.79 3.45788 14.7839 3.46277C15.7778 3.46766 16.7295 3.86463 17.4323 4.56741C18.1351 5.27018 18.532 6.22193 18.5369 7.21579C18.5418 8.20965 18.1542 9.16389 17.4584 9.87354Z" fill="black"/>
<path fill-rule="evenodd" clip-rule="evenodd" d="M21.3538 2.10342C21.5359 1.90793 21.6351 1.64936 21.6304 1.3822C21.6257 1.11503 21.5174 0.86013 21.3285 0.671187C21.1396 0.482244 20.8847 0.374015 20.6175 0.369301C20.3503 0.364587 20.0918 0.463757 19.8963 0.645917L18.1225 2.41967C16.9994 1.63748 15.6368 1.27538 14.2735 1.3968C12.9102 1.51823 11.6331 2.11542 10.6659 3.08379L9.8684 3.88129C9.62238 4.12863 9.48428 4.46331 9.48428 4.81217C9.48428 5.16103 9.62238 5.4957 9.8684 5.74304L16.2566 12.1313C16.504 12.3773 16.8387 12.5154 17.1875 12.5154C17.5364 12.5154 17.8711 12.3773 18.1184 12.1313L18.9159 11.3338C19.8845 10.3667 20.4819 9.0897 20.6036 7.72641C20.7253 6.36312 20.3634 5.00048 19.5814 3.87717L21.3538 2.10342ZM9.66627 8.89592C9.85939 9.08928 9.96786 9.35139 9.96786 9.62467C9.96786 9.89795 9.85939 10.1601 9.66627 10.3534L7.94752 12.0722L9.92752 14.0522L11.6463 12.3334C11.8418 12.1513 12.1003 12.0521 12.3675 12.0568C12.6347 12.0615 12.8896 12.1697 13.0785 12.3587C13.2674 12.5476 13.3757 12.8025 13.3804 13.0697C13.3851 13.3369 13.2859 13.5954 13.1038 13.7909L11.385 15.5097L12.1316 16.2563C12.3777 16.5036 12.5158 16.8383 12.5158 17.1872C12.5158 17.536 12.3777 17.8707 12.1316 18.118L11.3341 18.9155C10.3671 19.8841 9.09006 20.4816 7.72676 20.6032C6.36347 20.7249 5.00083 20.3631 3.87752 19.581L2.10377 21.3548C1.90919 21.5426 1.64864 21.6464 1.37825 21.6439C1.10786 21.6414 0.849261 21.5328 0.658148 21.3416C0.467035 21.1503 0.358701 20.8916 0.35648 20.6212C0.354259 20.3508 0.458328 20.0903 0.646272 19.8959L2.42002 18.1222C1.63783 16.999 1.27574 15.6365 1.39716 14.2732C1.51858 12.9099 2.11578 11.6328 3.08415 10.6655L3.88165 9.86804C4.12899 9.62202 4.46366 9.48392 4.81252 9.48392C5.16138 9.48392 5.49606 9.62202 5.7434 9.86804L6.49002 10.6147L8.20877 8.89592C8.40213 8.7028 8.66424 8.59432 8.93752 8.59432C9.2108 8.59432 9.47291 8.7028 9.66627 8.89592ZM4.81252 11.8522L4.54165 12.123C3.84582 12.8327 3.45823 13.7883 3.46312 14.7822C3.46801 15.776 3.86499 16.7278 4.56776 17.4306C5.27053 18.1333 6.22229 18.5303 7.21615 18.5352C8.21 18.5401 9.16562 18.1525 9.87527 17.4567L10.1461 17.1858L4.81252 11.8522ZM17.4584 9.87354L17.1875 10.1444L11.8539 4.81217L12.1248 4.54129C12.8344 3.84547 13.79 3.45788 14.7839 3.46277C15.7778 3.46766 16.7295 3.86463 17.4323 4.56741C18.1351 5.27018 18.532 6.22193 18.5369 7.21579C18.5418 8.20965 18.1542 9.16389 17.4584 9.87354Z" fill="url(#paint0_linear_36120_67098)"/>
</g>
<defs>
<linearGradient id="paint0_linear_36120_67098" x1="10.9935" y1="0.369141" x2="10.9935" y2="21.6439" gradientUnits="userSpaceOnUse">
<stop stop-color="#1D4ED8"/>
<stop offset="1" stop-color="#A60DAE"/>
</linearGradient>
<clipPath id="clip0_36120_67098">
<rect width="22" height="22" fill="white"/>
</clipPath>
</defs>
</svg>
