<svg width="23" height="22" viewBox="0 0 23 22" fill="none" xmlns="http://www.w3.org/2000/svg">
<g clip-path="url(#clip0_36462_11166)">
<path fill-rule="evenodd" clip-rule="evenodd" d="M21.8538 2.10342C22.0359 1.90793 22.1351 1.64936 22.1304 1.3822C22.1257 1.11503 22.0174 0.86013 21.8285 0.671187C21.6396 0.482244 21.3847 0.374015 21.1175 0.369301C20.8503 0.364587 20.5918 0.463757 20.3963 0.645917L18.6225 2.41967C17.4994 1.63748 16.1368 1.27538 14.7735 1.3968C13.4102 1.51823 12.1331 2.11542 11.1659 3.08379L10.3684 3.88129C10.1224 4.12863 9.98428 4.46331 9.98428 4.81217C9.98428 5.16103 10.1224 5.4957 10.3684 5.74304L16.7566 12.1313C17.004 12.3773 17.3387 12.5154 17.6875 12.5154C18.0364 12.5154 18.3711 12.3773 18.6184 12.1313L19.4159 11.3338C20.3845 10.3667 20.9819 9.0897 21.1036 7.72641C21.2253 6.36312 20.8634 5.00048 20.0814 3.87717L21.8538 2.10342ZM10.1663 8.89592C10.3594 9.08928 10.4679 9.35139 10.4679 9.62467C10.4679 9.89795 10.3594 10.1601 10.1663 10.3534L8.44752 12.0722L10.4275 14.0522L12.1463 12.3334C12.3418 12.1513 12.6003 12.0521 12.8675 12.0568C13.1347 12.0615 13.3896 12.1697 13.5785 12.3587C13.7674 12.5476 13.8757 12.8025 13.8804 13.0697C13.8851 13.3369 13.7859 13.5954 13.6038 13.7909L11.885 15.5097L12.6316 16.2563C12.8777 16.5036 13.0158 16.8383 13.0158 17.1872C13.0158 17.536 12.8777 17.8707 12.6316 18.118L11.8341 18.9155C10.8671 19.8841 9.59006 20.4816 8.22676 20.6032C6.86347 20.7249 5.50083 20.3631 4.37752 19.581L2.60377 21.3548C2.40919 21.5426 2.14864 21.6464 1.87825 21.6439C1.60786 21.6414 1.34926 21.5328 1.15815 21.3416C0.967035 21.1503 0.858701 20.8916 0.85648 20.6212C0.854259 20.3508 0.958328 20.0903 1.14627 19.8959L2.92002 18.1222C2.13783 16.999 1.77574 15.6365 1.89716 14.2732C2.01858 12.9099 2.61578 11.6328 3.58415 10.6655L4.38165 9.86804C4.62899 9.62202 4.96366 9.48392 5.31252 9.48392C5.66138 9.48392 5.99606 9.62202 6.2434 9.86804L6.99002 10.6147L8.70877 8.89592C8.90213 8.7028 9.16424 8.59432 9.43752 8.59432C9.7108 8.59432 9.97291 8.7028 10.1663 8.89592ZM5.31252 11.8522L5.04165 12.123C4.34582 12.8327 3.95823 13.7883 3.96312 14.7822C3.96801 15.776 4.36499 16.7278 5.06776 17.4306C5.77053 18.1333 6.72229 18.5303 7.71615 18.5352C8.71 18.5401 9.66562 18.1525 10.3753 17.4567L10.6461 17.1858L5.31252 11.8522ZM17.9584 9.87354L17.6875 10.1444L12.3539 4.81217L12.6248 4.54129C13.3344 3.84547 14.29 3.45788 15.2839 3.46277C16.2778 3.46766 17.2295 3.86463 17.9323 4.56741C18.6351 5.27018 19.032 6.22193 19.0369 7.21579C19.0418 8.20965 18.6542 9.16389 17.9584 9.87354Z" fill="#1D4ED8"/>
<path fill-rule="evenodd" clip-rule="evenodd" d="M21.8538 2.10342C22.0359 1.90793 22.1351 1.64936 22.1304 1.3822C22.1257 1.11503 22.0174 0.86013 21.8285 0.671187C21.6396 0.482244 21.3847 0.374015 21.1175 0.369301C20.8503 0.364587 20.5918 0.463757 20.3963 0.645917L18.6225 2.41967C17.4994 1.63748 16.1368 1.27538 14.7735 1.3968C13.4102 1.51823 12.1331 2.11542 11.1659 3.08379L10.3684 3.88129C10.1224 4.12863 9.98428 4.46331 9.98428 4.81217C9.98428 5.16103 10.1224 5.4957 10.3684 5.74304L16.7566 12.1313C17.004 12.3773 17.3387 12.5154 17.6875 12.5154C18.0364 12.5154 18.3711 12.3773 18.6184 12.1313L19.4159 11.3338C20.3845 10.3667 20.9819 9.0897 21.1036 7.72641C21.2253 6.36312 20.8634 5.00048 20.0814 3.87717L21.8538 2.10342ZM10.1663 8.89592C10.3594 9.08928 10.4679 9.35139 10.4679 9.62467C10.4679 9.89795 10.3594 10.1601 10.1663 10.3534L8.44752 12.0722L10.4275 14.0522L12.1463 12.3334C12.3418 12.1513 12.6003 12.0521 12.8675 12.0568C13.1347 12.0615 13.3896 12.1697 13.5785 12.3587C13.7674 12.5476 13.8757 12.8025 13.8804 13.0697C13.8851 13.3369 13.7859 13.5954 13.6038 13.7909L11.885 15.5097L12.6316 16.2563C12.8777 16.5036 13.0158 16.8383 13.0158 17.1872C13.0158 17.536 12.8777 17.8707 12.6316 18.118L11.8341 18.9155C10.8671 19.8841 9.59006 20.4816 8.22676 20.6032C6.86347 20.7249 5.50083 20.3631 4.37752 19.581L2.60377 21.3548C2.40919 21.5426 2.14864 21.6464 1.87825 21.6439C1.60786 21.6414 1.34926 21.5328 1.15815 21.3416C0.967035 21.1503 0.858701 20.8916 0.85648 20.6212C0.854259 20.3508 0.958328 20.0903 1.14627 19.8959L2.92002 18.1222C2.13783 16.999 1.77574 15.6365 1.89716 14.2732C2.01858 12.9099 2.61578 11.6328 3.58415 10.6655L4.38165 9.86804C4.62899 9.62202 4.96366 9.48392 5.31252 9.48392C5.66138 9.48392 5.99606 9.62202 6.2434 9.86804L6.99002 10.6147L8.70877 8.89592C8.90213 8.7028 9.16424 8.59432 9.43752 8.59432C9.7108 8.59432 9.97291 8.7028 10.1663 8.89592ZM5.31252 11.8522L5.04165 12.123C4.34582 12.8327 3.95823 13.7883 3.96312 14.7822C3.96801 15.776 4.36499 16.7278 5.06776 17.4306C5.77053 18.1333 6.72229 18.5303 7.71615 18.5352C8.71 18.5401 9.66562 18.1525 10.3753 17.4567L10.6461 17.1858L5.31252 11.8522ZM17.9584 9.87354L17.6875 10.1444L12.3539 4.81217L12.6248 4.54129C13.3344 3.84547 14.29 3.45788 15.2839 3.46277C16.2778 3.46766 17.2295 3.86463 17.9323 4.56741C18.6351 5.27018 19.032 6.22193 19.0369 7.21579C19.0418 8.20965 18.6542 9.16389 17.9584 9.87354Z" fill="#C5C5C5"/>
</g>
<defs>
<clipPath id="clip0_36462_11166">
<rect width="22" height="22" fill="white" transform="translate(0.5)"/>
</clipPath>
</defs>
</svg>
