<svg width="20" height="21" viewBox="0 0 20 21" fill="none" xmlns="http://www.w3.org/2000/svg">
<g clip-path="url(#clip0_36462_6566)">
<path d="M9.99998 20.3996C15.4676 20.3996 19.9 15.9672 19.9 10.4996C19.9 5.03199 15.4676 0.599609 9.99998 0.599609C4.53236 0.599609 0.0999756 5.03199 0.0999756 10.4996C0.0999756 15.9672 4.53236 20.3996 9.99998 20.3996Z" fill="#1E3796"/>
<path d="M9.99999 4.93584L9.37242 5.37268L9.59378 4.6407L8.98462 4.17911L9.74893 4.16333L9.99999 3.44141L10.2509 4.16333L11.0154 4.17911L10.406 4.6407L10.6277 5.37268L9.99999 4.93584Z" fill="#FFE100"/>
<path d="M13.046 5.75209L12.4184 6.18893L12.64 5.45726L12.0306 4.99536L12.7951 4.97943L13.046 4.25781L13.2969 4.97943L14.0615 4.99536L13.4521 5.45726L13.6737 6.18893L13.046 5.75209Z" fill="#FFE100"/>
<path d="M15.2762 7.98272L14.6487 8.41955L14.8702 7.68773L14.2609 7.22599L15.025 7.21021L15.2762 6.48828L15.527 7.21021L16.2916 7.22599L15.6823 7.68773L15.904 8.41955L15.2762 7.98272Z" fill="#FFE100"/>
<path d="M9.99999 17.1199L9.37242 17.5566L9.59378 16.8248L8.98462 16.3632L9.74893 16.3474L9.99999 15.625L10.2509 16.3474L11.0154 16.3632L10.406 16.8248L10.6277 17.5566L9.99999 17.1199Z" fill="#FFE100"/>
<path d="M6.95384 16.3051L6.32628 16.742L6.54764 16.0101L5.93848 15.5484L6.70279 15.5326L6.95384 14.8105L7.20475 15.5326L7.96921 15.5484L7.36005 16.0101L7.58157 16.742L6.95384 16.3051Z" fill="#FFE100"/>
<path d="M4.72405 14.0747L4.09649 14.5118L4.31769 13.7797L3.70837 13.3179L4.47284 13.3023L4.72405 12.5801L4.97511 13.3023L5.73911 13.3179L5.12995 13.7797L5.35162 14.5118L4.72405 14.0747Z" fill="#FFE100"/>
<path d="M16.0923 11.0279L15.4646 11.4646L15.6863 10.7326L15.0768 10.2709L15.8414 10.2553L16.0923 9.5332L16.3432 10.2553L17.1075 10.2709L16.4984 10.7326L16.7199 11.4646L16.0923 11.0279Z" fill="#FFE100"/>
<path d="M15.2759 14.0753L14.6486 14.5118L14.8701 13.78L14.2605 13.3184L15.0248 13.3025L15.2759 12.5801L15.5269 13.3025L16.2914 13.3184L15.6819 13.78L15.9033 14.5118L15.2759 14.0753Z" fill="#FFE100"/>
<path d="M13.046 16.3054L12.4184 16.742L12.64 16.0101L12.0306 15.5484L12.7951 15.5326L13.046 14.8105L13.2969 15.5326L14.0615 15.5484L13.4521 16.0101L13.6737 16.742L13.046 16.3054Z" fill="#FFE100"/>
<path d="M3.90758 11.0283L3.28017 11.4649L3.50153 10.733L2.89221 10.2712L3.65668 10.2556L3.90758 9.5332L4.15864 10.2556L4.9231 10.2712L4.31379 10.733L4.53546 11.4649L3.90758 11.0283Z" fill="#FFE100"/>
<path d="M4.72405 7.98318L4.09649 8.41986L4.31769 7.68788L3.70837 7.2263L4.47284 7.21052L4.72405 6.48828L4.97511 7.21052L5.73911 7.2263L5.12995 7.68788L5.35162 8.41986L4.72405 7.98318Z" fill="#FFE100"/>
<path d="M6.95384 5.75256L6.32628 6.18924L6.54764 5.45757L5.93848 4.99536L6.70279 4.97974L6.95384 4.25781L7.20475 4.97974L7.96921 4.99536L7.36005 5.45757L7.58157 6.18924L6.95384 5.75256Z" fill="#FFE100"/>
</g>
<defs>
<clipPath id="clip0_36462_6566">
<rect width="19.8" height="19.8" fill="white" transform="translate(0.0999756 0.599609)"/>
</clipPath>
</defs>
</svg>
