<svg width="20" height="21" viewBox="0 0 20 21" fill="none" xmlns="http://www.w3.org/2000/svg">
<path fill-rule="evenodd" clip-rule="evenodd" d="M5.29303 7.79357C5.48056 7.6061 5.73487 7.50078 6.00003 7.50078C6.26519 7.50078 6.5195 7.6061 6.70703 7.79357L10 11.0866L13.293 7.79357C13.3853 7.69806 13.4956 7.62188 13.6176 7.56947C13.7396 7.51706 13.8709 7.48947 14.0036 7.48832C14.1364 7.48717 14.2681 7.51247 14.391 7.56275C14.5139 7.61303 14.6255 7.68728 14.7194 7.78117C14.8133 7.87507 14.8876 7.98672 14.9379 8.10962C14.9881 8.23251 15.0134 8.36419 15.0123 8.49697C15.0111 8.62975 14.9835 8.76097 14.9311 8.88297C14.8787 9.00498 14.8025 9.11532 14.707 9.20757L10.707 13.2076C10.5195 13.395 10.2652 13.5004 10 13.5004C9.73487 13.5004 9.48056 13.395 9.29303 13.2076L5.29303 9.20757C5.10556 9.02004 5.00024 8.76573 5.00024 8.50057C5.00024 8.23541 5.10556 7.9811 5.29303 7.79357Z" fill="white"/>
</svg>
