<svg width="33" height="21" viewBox="0 0 33 21" fill="none" xmlns="http://www.w3.org/2000/svg">
<path d="M5.37704 7.16672C4.53935 6.46382 4.42274 5.20457 5.22086 4.45704C7.42343 2.39407 10.1512 0.974075 13.1044 0.353107C14.1746 0.128098 15.1392 0.945892 15.2345 2.03525C15.3298 3.12462 14.5171 4.06953 13.4563 4.33494C11.5436 4.81349 9.76985 5.73685 8.28078 7.02913C7.4549 7.74587 6.21473 7.86962 5.37704 7.16672Z" fill="#FF2727"/>
<path d="M16.5731 18.8943C16.4204 18.9589 16.2484 18.9602 16.0948 18.8979C15.9411 18.8356 15.8186 18.7149 15.754 18.5622L11.7744 9.35831L10.9021 11.5099C10.836 11.6577 10.7151 11.7741 10.5649 11.8346C10.4147 11.895 10.2468 11.8948 10.0968 11.834C9.94667 11.7731 9.82607 11.6564 9.76035 11.5084C9.69463 11.3604 9.68893 11.1927 9.74444 11.0405L11.1835 7.49098C11.2458 7.33753 11.3665 7.21509 11.519 7.15056C11.6716 7.08603 11.8435 7.08468 11.997 7.14681L15.5465 8.58584C15.6254 8.61461 15.6976 8.65897 15.759 8.71627C15.8203 8.77356 15.8695 8.84263 15.9035 8.91934C15.9376 8.99605 15.9559 9.07883 15.9572 9.16275C15.9586 9.24667 15.9431 9.33001 15.9115 9.40779C15.88 9.48558 15.8331 9.55621 15.7737 9.61548C15.7143 9.67476 15.6435 9.72145 15.5656 9.75279C15.4878 9.78412 15.4044 9.79945 15.3205 9.79786C15.2366 9.79627 15.1538 9.7778 15.0772 9.74354L12.9256 8.87127L16.9052 18.0752C17.0396 18.3929 16.8908 18.7599 16.5731 18.8943Z" fill="black"/>
<path d="M2.15877 18.7714C1.0787 18.9425 0.0518765 18.2044 0.0113402 17.1117C-0.0442303 15.6136 0.104503 14.1118 0.455897 12.6481C0.80729 11.1845 1.35656 9.77887 2.08619 8.46931C2.61841 7.51405 3.8684 7.3226 4.75308 7.96535C5.63775 8.60811 5.81779 9.84134 5.32214 10.8161C4.87779 11.6899 4.5364 12.6149 4.30648 13.5726C4.07656 14.5303 3.9608 15.5094 3.96 16.4898C3.95911 17.5833 3.23883 18.6004 2.15877 18.7714Z" fill="#AE0000"/>
<path d="M28.2469 7.96536C29.1316 7.3226 30.3817 7.5141 30.9139 8.46935C32.3827 11.1056 33.1007 14.0959 32.9887 17.1116C32.9482 18.2044 31.9213 18.9425 30.8412 18.7714C29.7612 18.6004 29.0409 17.5832 29.04 16.4897C29.0384 14.518 28.5716 12.5736 27.6779 10.8161C27.1823 9.84139 27.3622 8.60812 28.2469 7.96536Z" fill="#33BF00"/>
<path d="M17.2599 1.9999C17.3171 0.907875 18.2526 0.0569382 19.3299 0.244488C20.8068 0.501595 22.2448 0.959316 23.6034 1.60734C24.962 2.25537 26.2228 3.08488 27.352 4.07083C28.1757 4.79004 28.1031 6.05251 27.2905 6.78422C26.4778 7.51593 25.2341 7.43563 24.3837 6.74815C23.6214 6.13183 22.7876 5.60559 21.8986 5.18158C21.0097 4.75757 20.076 4.44077 19.1172 4.23616C18.0478 4.00793 17.2027 3.09192 17.2599 1.9999Z" fill="#60FF27"/>
</svg>
