<svg width="13" height="14" viewBox="0 0 13 14" fill="none" xmlns="http://www.w3.org/2000/svg">
<path d="M6.96899 2.125L12.1289 11.0625C12.1765 11.1448 12.2015 11.2382 12.2015 11.3333C12.2015 11.4284 12.1765 11.5218 12.1289 11.6042C12.0814 11.6865 12.013 11.7549 11.9307 11.8024C11.8483 11.85 11.7549 11.875 11.6598 11.875H1.33999C1.24491 11.875 1.15151 11.85 1.06916 11.8024C0.986822 11.7549 0.918446 11.6865 0.870906 11.6042C0.823366 11.5218 0.798339 11.4284 0.79834 11.3333C0.79834 11.2382 0.823369 11.1448 0.870909 11.0625L6.03083 2.125C6.07837 2.04266 6.14675 1.97429 6.22909 1.92675C6.31143 1.87921 6.40483 1.85419 6.49991 1.85419C6.59499 1.85419 6.68839 1.87921 6.77073 1.92675C6.85307 1.97429 6.92145 2.04266 6.96899 2.125ZM5.95824 9.16666V10.25H7.04158V9.16666H5.95824ZM5.95824 5.375V8.08333H7.04158V5.375H5.95824Z" fill="#DC2626"/>
</svg>
