<svg width="16" height="16" viewBox="0 0 16 16" fill="none" xmlns="http://www.w3.org/2000/svg">
<g clip-path="url(#clip0_35687_37770)">
<path fill-rule="evenodd" clip-rule="evenodd" d="M8 0C5.87827 0 3.84344 0.842855 2.34315 2.34315C0.842855 3.84344 0 5.87827 0 8C0 10.1217 0.842855 12.1566 2.34315 13.6569C3.84344 15.1571 5.87827 16 8 16C10.1217 16 12.1566 15.1571 13.6569 13.6569C15.1571 12.1566 16 10.1217 16 8C16 5.87827 15.1571 3.84344 13.6569 2.34315C12.1566 0.842855 10.1217 0 8 0ZM5.42857 4.57143C5.61617 4.57143 5.80194 4.60838 5.97526 4.68017C6.14858 4.75196 6.30607 4.85719 6.43872 4.98985C6.57138 5.1225 6.67661 5.27999 6.7484 5.45331C6.82019 5.62663 6.85714 5.8124 6.85714 6C6.85714 6.1876 6.82019 6.37337 6.7484 6.54669C6.67661 6.72001 6.57138 6.8775 6.43872 7.01015C6.30607 7.14281 6.14858 7.24804 5.97526 7.31983C5.80194 7.39162 5.61617 7.42857 5.42857 7.42857C5.24097 7.42857 5.0552 7.39162 4.88188 7.31983C4.70856 7.24804 4.55107 7.14281 4.41842 7.01015C4.28576 6.8775 4.18054 6.72001 4.10874 6.54669C4.03695 6.37337 4 6.1876 4 6C4 5.8124 4.03695 5.62663 4.10874 5.45331C4.18054 5.27999 4.28576 5.1225 4.41842 4.98985C4.55107 4.85719 4.70856 4.75196 4.88188 4.68017C5.0552 4.60838 5.24097 4.57143 5.42857 4.57143ZM10.5714 4.57143C10.759 4.57143 10.9448 4.60838 11.1181 4.68017C11.2914 4.75196 11.4489 4.85719 11.5816 4.98985C11.7142 5.1225 11.8195 5.27999 11.8913 5.45331C11.963 5.62663 12 5.8124 12 6C12 6.1876 11.963 6.37337 11.8913 6.54669C11.8195 6.72001 11.7142 6.8775 11.5816 7.01015C11.4489 7.14281 11.2914 7.24804 11.1181 7.31983C10.9448 7.39162 10.759 7.42857 10.5714 7.42857C10.3838 7.42857 10.1981 7.39162 10.0247 7.31983C9.85142 7.24804 9.69393 7.14281 9.56128 7.01015C9.42862 6.8775 9.32339 6.72001 9.2516 6.54669C9.17981 6.37337 9.14286 6.1876 9.14286 6C9.14286 5.8124 9.17981 5.62663 9.2516 5.45331C9.32339 5.27999 9.42862 5.1225 9.56128 4.98985C9.69393 4.85719 9.85142 4.75196 10.0247 4.68017C10.1981 4.60838 10.3838 4.57143 10.5714 4.57143ZM4.33594 9.14286C4.48892 9.1418 4.6397 9.18274 4.77441 9.26191C4.90913 9.34109 5.02347 9.45596 5.10693 9.59598C5.10693 9.59598 6.03275 11.1488 8.00077 11.1488C9.96878 11.1488 10.8947 9.59598 10.8947 9.59598C10.961 9.48602 11.0466 9.3915 11.1466 9.31787C11.2465 9.24424 11.3589 9.19296 11.4771 9.16699C11.5953 9.14102 11.717 9.14087 11.8353 9.16656C11.9535 9.19225 12.066 9.24327 12.1661 9.31666C12.2662 9.39005 12.352 9.48437 12.4185 9.59418C12.4851 9.70398 12.5311 9.82709 12.5538 9.9564C12.5766 10.0857 12.5756 10.2187 12.5511 10.3476C12.5265 10.4765 12.4789 10.5988 12.4108 10.7075C12.4108 10.7075 10.885 13.1429 8.00077 13.1429C5.11657 13.1429 3.59089 10.7075 3.59089 10.7075C3.49634 10.5583 3.44084 10.3838 3.43039 10.2027C3.41993 10.0217 3.45491 9.84091 3.53156 9.67994C3.60821 9.51897 3.72362 9.38389 3.86537 9.28925C4.00711 9.19461 4.16981 9.14399 4.33594 9.14286Z" fill="#9CA3AF"/>
<path fill-rule="evenodd" clip-rule="evenodd" d="M8 0C5.87827 0 3.84344 0.842855 2.34315 2.34315C0.842855 3.84344 0 5.87827 0 8C0 10.1217 0.842855 12.1566 2.34315 13.6569C3.84344 15.1571 5.87827 16 8 16C10.1217 16 12.1566 15.1571 13.6569 13.6569C15.1571 12.1566 16 10.1217 16 8C16 5.87827 15.1571 3.84344 13.6569 2.34315C12.1566 0.842855 10.1217 0 8 0ZM5.42857 4.57143C5.61617 4.57143 5.80194 4.60838 5.97526 4.68017C6.14858 4.75196 6.30607 4.85719 6.43872 4.98985C6.57138 5.1225 6.67661 5.27999 6.7484 5.45331C6.82019 5.62663 6.85714 5.8124 6.85714 6C6.85714 6.1876 6.82019 6.37337 6.7484 6.54669C6.67661 6.72001 6.57138 6.8775 6.43872 7.01015C6.30607 7.14281 6.14858 7.24804 5.97526 7.31983C5.80194 7.39162 5.61617 7.42857 5.42857 7.42857C5.24097 7.42857 5.0552 7.39162 4.88188 7.31983C4.70856 7.24804 4.55107 7.14281 4.41842 7.01015C4.28576 6.8775 4.18054 6.72001 4.10874 6.54669C4.03695 6.37337 4 6.1876 4 6C4 5.8124 4.03695 5.62663 4.10874 5.45331C4.18054 5.27999 4.28576 5.1225 4.41842 4.98985C4.55107 4.85719 4.70856 4.75196 4.88188 4.68017C5.0552 4.60838 5.24097 4.57143 5.42857 4.57143ZM10.5714 4.57143C10.759 4.57143 10.9448 4.60838 11.1181 4.68017C11.2914 4.75196 11.4489 4.85719 11.5816 4.98985C11.7142 5.1225 11.8195 5.27999 11.8913 5.45331C11.963 5.62663 12 5.8124 12 6C12 6.1876 11.963 6.37337 11.8913 6.54669C11.8195 6.72001 11.7142 6.8775 11.5816 7.01015C11.4489 7.14281 11.2914 7.24804 11.1181 7.31983C10.9448 7.39162 10.759 7.42857 10.5714 7.42857C10.3838 7.42857 10.1981 7.39162 10.0247 7.31983C9.85142 7.24804 9.69393 7.14281 9.56128 7.01015C9.42862 6.8775 9.32339 6.72001 9.2516 6.54669C9.17981 6.37337 9.14286 6.1876 9.14286 6C9.14286 5.8124 9.17981 5.62663 9.2516 5.45331C9.32339 5.27999 9.42862 5.1225 9.56128 4.98985C9.69393 4.85719 9.85142 4.75196 10.0247 4.68017C10.1981 4.60838 10.3838 4.57143 10.5714 4.57143ZM4.33594 9.14286C4.48892 9.1418 4.6397 9.18274 4.77441 9.26191C4.90913 9.34109 5.02347 9.45596 5.10693 9.59598C5.10693 9.59598 6.03275 11.1488 8.00077 11.1488C9.96878 11.1488 10.8947 9.59598 10.8947 9.59598C10.961 9.48602 11.0466 9.3915 11.1466 9.31787C11.2465 9.24424 11.3589 9.19296 11.4771 9.16699C11.5953 9.14102 11.717 9.14087 11.8353 9.16656C11.9535 9.19225 12.066 9.24327 12.1661 9.31666C12.2662 9.39005 12.352 9.48437 12.4185 9.59418C12.4851 9.70398 12.5311 9.82709 12.5538 9.9564C12.5766 10.0857 12.5756 10.2187 12.5511 10.3476C12.5265 10.4765 12.4789 10.5988 12.4108 10.7075C12.4108 10.7075 10.885 13.1429 8.00077 13.1429C5.11657 13.1429 3.59089 10.7075 3.59089 10.7075C3.49634 10.5583 3.44084 10.3838 3.43039 10.2027C3.41993 10.0217 3.45491 9.84091 3.53156 9.67994C3.60821 9.51897 3.72362 9.38389 3.86537 9.28925C4.00711 9.19461 4.16981 9.14399 4.33594 9.14286Z" fill="black" fill-opacity="0.2"/>
</g>
<defs>
<clipPath id="clip0_35687_37770">
<rect width="16" height="16" fill="white"/>
</clipPath>
</defs>
</svg>
