<svg width="24" height="24" viewBox="0 0 24 24" fill="none" xmlns="http://www.w3.org/2000/svg">
<path d="M23.0311 8.03104L20.0311 11.031C19.8903 11.1718 19.6995 11.2508 19.5004 11.2508C19.3014 11.2508 19.1105 11.1718 18.9698 11.031C18.8291 10.8903 18.75 10.6994 18.75 10.5004C18.75 10.3014 18.8291 10.1105 18.9698 9.96979L20.6901 8.25042H19.5004C15.8751 8.25042 15.1326 10.0317 14.1923 12.2892C13.2239 14.6142 12.1251 17.2504 7.50044 17.2504H7.40669C7.22415 17.9574 6.79002 18.5736 6.18568 18.9834C5.58135 19.3932 4.8483 19.5685 4.12394 19.4765C3.39958 19.3845 2.73364 19.0315 2.25095 18.4836C1.76826 17.9357 1.50195 17.2306 1.50195 16.5004C1.50195 15.7702 1.76826 15.0651 2.25095 14.5172C2.73364 13.9694 3.39958 13.6163 4.12394 13.5243C4.8483 13.4323 5.58135 13.6077 6.18568 14.0175C6.79002 14.4273 7.22415 15.0434 7.40669 15.7504H7.50044C11.1258 15.7504 11.8683 13.9692 12.8086 11.7117C13.7817 9.38667 14.8758 6.75042 19.5004 6.75042H20.6901L18.9698 5.03104C18.8291 4.89031 18.75 4.69944 18.75 4.50042C18.75 4.30139 18.8291 4.11052 18.9698 3.96979C19.1105 3.82906 19.3014 3.75 19.5004 3.75C19.6995 3.75 19.8903 3.82906 20.0311 3.96979L23.0311 6.96979C23.1008 7.03945 23.1561 7.12216 23.1939 7.21321C23.2316 7.30426 23.251 7.40186 23.251 7.50042C23.251 7.59898 23.2316 7.69657 23.1939 7.78762C23.1561 7.87867 23.1008 7.96139 23.0311 8.03104Z" fill="#2320E6"/>
</svg>
