<svg width="44" height="43" viewBox="0 0 44 43" fill="none" xmlns="http://www.w3.org/2000/svg">
<rect x="0.561523" y="0.5" width="42" height="42" rx="9.5" fill="#E1E5F9"/>
<rect x="0.561523" y="0.5" width="42" height="42" rx="9.5" stroke="#D2DCF9"/>
<path d="M21.5615 31.5C19.2449 30.9167 17.3322 29.5873 15.8235 27.512C14.3149 25.4367 13.5609 23.1327 13.5615 20.6V14.5L21.5615 11.5L29.5615 14.5V20.6C29.5615 23.1333 28.8075 25.4377 27.2995 27.513C25.7915 29.5883 23.8789 30.9173 21.5615 31.5ZM21.5615 29.4C23.2949 28.85 24.7282 27.75 25.8615 26.1C26.9949 24.45 27.5615 22.6167 27.5615 20.6V15.875L21.5615 13.625L15.5615 15.875V20.6C15.5615 22.6167 16.1282 24.45 17.2615 26.1C18.3949 27.75 19.8282 28.85 21.5615 29.4Z" fill="url(#paint0_linear_36060_63184)"/>
<defs>
<linearGradient id="paint0_linear_36060_63184" x1="21.5615" y1="11.5" x2="21.5615" y2="31.5" gradientUnits="userSpaceOnUse">
<stop stop-color="#1D4ED8"/>
<stop offset="1" stop-color="#A60DAE"/>
</linearGradient>
</defs>
</svg>
