<svg width="19" height="18" viewBox="0 0 19 18" fill="none" xmlns="http://www.w3.org/2000/svg">
<path d="M13.6367 7.49916C13.6367 7.30025 13.5577 7.10949 13.417 6.96883C13.2764 6.82818 13.0856 6.74916 12.8867 6.74916H4.1942L5.9192 5.03166C6.06043 4.89043 6.13977 4.69889 6.13977 4.49916C6.13977 4.29944 6.06043 4.10789 5.9192 3.96666C5.77797 3.82543 5.58643 3.74609 5.3867 3.74609C5.18698 3.74609 4.99543 3.82543 4.8542 3.96666L1.8542 6.96666C1.75013 7.07213 1.67964 7.20606 1.65161 7.35155C1.62357 7.49704 1.63927 7.64758 1.6967 7.78416C1.75297 7.92113 1.84851 8.03837 1.9713 8.12112C2.0941 8.20387 2.23863 8.24842 2.3867 8.24916H12.8867C13.0856 8.24916 13.2764 8.17015 13.417 8.02949C13.5577 7.88884 13.6367 7.69808 13.6367 7.49916ZM16.5767 10.2142C16.5204 10.0772 16.4249 9.95995 16.3021 9.8772C16.1793 9.79445 16.0348 9.7499 15.8867 9.74916H5.3867C5.18779 9.74916 4.99702 9.82818 4.85637 9.96883C4.71572 10.1095 4.6367 10.3003 4.6367 10.4992C4.6367 10.6981 4.71572 10.8888 4.85637 11.0295C4.99702 11.1701 5.18779 11.2492 5.3867 11.2492H14.0792L12.3542 12.9667C12.2839 13.0364 12.2281 13.1193 12.19 13.2107C12.152 13.3021 12.1324 13.4002 12.1324 13.4992C12.1324 13.5982 12.152 13.6962 12.19 13.7876C12.2281 13.879 12.2839 13.9619 12.3542 14.0317C12.4239 14.102 12.5069 14.1578 12.5983 14.1958C12.6897 14.2339 12.7877 14.2535 12.8867 14.2535C12.9857 14.2535 13.0837 14.2339 13.1751 14.1958C13.2665 14.1578 13.3495 14.102 13.4192 14.0317L16.4192 11.0317C16.5233 10.9262 16.5938 10.7923 16.6218 10.6468C16.6498 10.5013 16.6341 10.3507 16.5767 10.2142Z" fill="#A6A6A6"/>
</svg>
