<svg width="14" height="14" viewBox="0 0 14 14" fill="none" xmlns="http://www.w3.org/2000/svg">
<path d="M8.16663 5.83427L6.41663 7.58427M11.8346 1.76903C11.89 1.74992 11.9496 1.74678 12.0066 1.75995C12.0637 1.77313 12.1159 1.80209 12.1573 1.84352C12.1986 1.88496 12.2275 1.9372 12.2406 1.99427C12.2537 2.05135 12.2505 2.11095 12.2313 2.16628L8.77563 12.0421C8.75495 12.1011 8.71701 12.1526 8.66672 12.1898C8.61644 12.227 8.55614 12.2483 8.49364 12.2508C8.43114 12.2533 8.36932 12.237 8.31621 12.2039C8.2631 12.1709 8.22115 12.1226 8.19579 12.0654L6.31804 7.84094C6.28645 7.77069 6.23021 7.71445 6.15996 7.68286L1.93546 5.80453C1.87847 5.77908 1.83041 5.73713 1.7975 5.68409C1.7646 5.63105 1.74835 5.56936 1.75086 5.50699C1.75338 5.44463 1.77453 5.38445 1.8116 5.33423C1.84866 5.28401 1.89994 5.24606 1.95879 5.22528L11.8346 1.76903Z" stroke="#A6A6A6" stroke-width="0.875" stroke-linecap="round" stroke-linejoin="round"/>
</svg>
