<svg width="33" height="21" viewBox="0 0 33 21" fill="none" xmlns="http://www.w3.org/2000/svg">
<path d="M5.37704 7.16672C4.53935 6.46382 4.42274 5.20457 5.22086 4.45704C7.42343 2.39407 10.1512 0.974075 13.1044 0.353107C14.1746 0.128098 15.1392 0.945892 15.2345 2.03525C15.3298 3.12462 14.5171 4.06953 13.4563 4.33494C11.5436 4.81349 9.76985 5.73685 8.28078 7.02913C7.4549 7.74587 6.21473 7.86962 5.37704 7.16672Z" fill="#FF2727"/>
<g clip-path="url(#clip0_37470_15312)">
<path d="M15.893 18.8943C16.0456 18.9589 16.2177 18.9602 16.3713 18.8979C16.5249 18.8356 16.6475 18.7149 16.7121 18.5622L20.6917 9.35831L21.5639 11.5099C21.63 11.6577 21.7509 11.7741 21.9012 11.8346C22.0514 11.895 22.2192 11.8948 22.3693 11.834C22.5194 11.7731 22.64 11.6564 22.7057 11.5084C22.7714 11.3604 22.7771 11.1927 22.7216 11.0405L21.2826 7.49098C21.2203 7.33753 21.0996 7.21509 20.9471 7.15056C20.7945 7.08603 20.6226 7.08468 20.4691 7.14681L16.9195 8.58584C16.8407 8.61461 16.7684 8.65897 16.7071 8.71627C16.6458 8.77356 16.5966 8.84263 16.5625 8.91934C16.5285 8.99605 16.5102 9.07883 16.5088 9.16275C16.5075 9.24667 16.523 9.33001 16.5545 9.40779C16.5861 9.48558 16.633 9.55621 16.6924 9.61548C16.7518 9.67476 16.8226 9.72145 16.9004 9.75279C16.9783 9.78412 17.0617 9.79945 17.1456 9.79786C17.2295 9.79627 17.3122 9.7778 17.3889 9.74354L19.5404 8.87127L15.5609 18.0752C15.4264 18.3929 15.5752 18.7599 15.893 18.8943Z" fill="black"/>
</g>
<path d="M2.15877 18.7714C1.0787 18.9425 0.0518765 18.2044 0.0113402 17.1117C-0.0442303 15.6136 0.104503 14.1118 0.455897 12.6481C0.80729 11.1845 1.35656 9.77887 2.08619 8.46931C2.61841 7.51405 3.8684 7.3226 4.75308 7.96535C5.63775 8.60811 5.81779 9.84134 5.32214 10.8161C4.87779 11.6899 4.5364 12.6149 4.30648 13.5726C4.07656 14.5303 3.9608 15.5094 3.96 16.4898C3.95911 17.5833 3.23883 18.6004 2.15877 18.7714Z" fill="#AE0000"/>
<path d="M28.2469 7.96536C29.1316 7.3226 30.3817 7.5141 30.9139 8.46935C32.3827 11.1056 33.1007 14.0959 32.9887 17.1116C32.9482 18.2044 31.9213 18.9425 30.8412 18.7714C29.7612 18.6004 29.0409 17.5832 29.04 16.4897C29.0384 14.518 28.5716 12.5736 27.6779 10.8161C27.1823 9.84139 27.3622 8.60812 28.2469 7.96536Z" fill="#33BF00"/>
<path d="M17.2599 1.9999C17.3171 0.907875 18.2526 0.0569382 19.3299 0.244488C20.8068 0.501595 22.2448 0.959316 23.6034 1.60734C24.962 2.25537 26.2228 3.08488 27.352 4.07083C28.1757 4.79004 28.1031 6.05251 27.2905 6.78422C26.4778 7.51593 25.2341 7.43563 24.3837 6.74815C23.6214 6.13183 22.7876 5.60559 21.8986 5.18158C21.0097 4.75757 20.076 4.44077 19.1172 4.23616C18.0478 4.00793 17.2027 3.09192 17.2599 1.9999Z" fill="#60FF27"/>
<defs>
<clipPath id="clip0_37470_15312">
<rect width="10" height="16.057" fill="white" transform="translate(17.2563 2) rotate(22.9317)"/>
</clipPath>
</defs>
</svg>
