<svg width="24" height="24" viewBox="0 0 24 24" fill="none" xmlns="http://www.w3.org/2000/svg">
<path d="M2 6C2 5.45 2.196 4.97933 2.588 4.588C2.98 4.19667 3.45067 4.00067 4 4H20C20.55 4 21.021 4.196 21.413 4.588C21.805 4.98 22.0007 5.45067 22 6V8C22 8.28333 21.904 8.521 21.712 8.713C21.52 8.905 21.2827 9.00067 21 9C20.7173 8.99933 20.48 8.90333 20.288 8.712C20.096 8.52067 20 8.28333 20 8V6H4V8C4 8.28333 3.904 8.521 3.712 8.713C3.52 8.905 3.28267 9.00067 3 9C2.71734 8.99933 2.48 8.90333 2.288 8.712C2.096 8.52067 2 8.28333 2 8V6ZM4 20C3.45 20 2.97934 19.8043 2.588 19.413C2.19667 19.0217 2.00067 18.5507 2 18V16C2 15.7167 2.096 15.4793 2.288 15.288C2.48 15.0967 2.71734 15.0007 3 15C3.28267 14.9993 3.52034 15.0953 3.713 15.288C3.90567 15.4807 4.00134 15.718 4 16V18H20V16C20 15.7167 20.096 15.4793 20.288 15.288C20.48 15.0967 20.7173 15.0007 21 15C21.2827 14.9993 21.5203 15.0953 21.713 15.288C21.9057 15.4807 22.0013 15.718 22 16V18C22 18.55 21.8043 19.021 21.413 19.413C21.0217 19.805 20.5507 20.0007 20 20H4ZM10 17C10.1833 17 10.3583 16.9543 10.525 16.863C10.6917 16.7717 10.8167 16.634 10.9 16.45L14 10.25L15.1 12.45C15.1833 12.6333 15.3083 12.771 15.475 12.863C15.6417 12.955 15.8167 13.0007 16 13H21C21.2833 13 21.521 12.904 21.713 12.712C21.905 12.52 22.0007 12.2827 22 12C21.9993 11.7173 21.9033 11.48 21.712 11.288C21.5207 11.096 21.2833 11 21 11H16.625L14.9 7.55C14.8167 7.36667 14.6917 7.23767 14.525 7.163C14.3583 7.08833 14.1833 7.05067 14 7.05C13.8167 7.04933 13.6417 7.087 13.475 7.163C13.3083 7.239 13.1833 7.368 13.1 7.55L10 13.75L8.9 11.55C8.81667 11.3667 8.69167 11.229 8.525 11.137C8.35834 11.045 8.18334 10.9993 8 11H3C2.71667 11 2.47934 11.096 2.288 11.288C2.09667 11.48 2.00067 11.7173 2 12C1.99934 12.2827 2.09534 12.5203 2.288 12.713C2.48067 12.9057 2.718 13.0013 3 13H7.375L9.1 16.45C9.18334 16.6333 9.30834 16.771 9.475 16.863C9.64167 16.955 9.81667 17.0007 10 17Z" fill="#2320E6"/>
</svg>
