<svg width="15" height="14" viewBox="0 0 15 14" fill="none" xmlns="http://www.w3.org/2000/svg">
<path opacity="0.3" d="M4 3.72754V6.46921C4 8.80254 5.4875 10.9609 7.5 11.62C9.5125 10.9609 11 8.80837 11 6.46921V3.72754L7.5 2.41504L4 3.72754Z" fill="#083373"/>
<path d="M7.49967 1.16699L2.83301 2.91699V6.46949C2.83301 9.41533 4.82217 12.1628 7.49967 12.8337C10.1772 12.1628 12.1663 9.41533 12.1663 6.46949V2.91699L7.49967 1.16699ZM10.9997 6.46949C10.9997 8.80283 9.51217 10.9612 7.49967 11.6203C5.48717 10.9612 3.99967 8.80866 3.99967 6.46949V3.72783L7.49967 2.41533L10.9997 3.72783V6.46949Z" fill="#2320E6"/>
</svg>
