<svg width="16" height="16" viewBox="0 0 16 16" fill="none" xmlns="http://www.w3.org/2000/svg">
<path d="M6.66667 6C6.66667 5.73629 6.74487 5.47851 6.8914 5.25924C7.03787 5.03997 7.24613 4.86908 7.48973 4.76816C7.7334 4.66725 8.00147 4.64084 8.26013 4.69229C8.51873 4.74373 8.75633 4.87072 8.9428 5.05719C9.12927 5.24366 9.25627 5.48124 9.30773 5.73988C9.35913 5.99852 9.33273 6.26661 9.23187 6.51025C9.13093 6.75387 8.96 6.96213 8.74073 7.1086C8.52147 7.25513 8.26373 7.33333 8 7.33333V8M9.5 12.6667L8.53333 13.9555C8.26667 14.3111 7.73333 14.3111 7.46667 13.9555L6.5 12.6667H4.66667C3.19391 12.6667 2 11.4727 2 10V4.66667C2 3.19391 3.19391 2 4.66667 2H11.3333C12.8061 2 14 3.19391 14 4.66667V10C14 11.4727 12.8061 12.6667 11.3333 12.6667H9.5Z" stroke="#9CA3AF" stroke-width="1.46766" stroke-linecap="round" stroke-linejoin="round"/>
<path d="M6.66667 6C6.66667 5.73629 6.74487 5.47851 6.8914 5.25924C7.03787 5.03997 7.24613 4.86908 7.48973 4.76816C7.7334 4.66725 8.00147 4.64084 8.26013 4.69229C8.51873 4.74373 8.75633 4.87072 8.9428 5.05719C9.12927 5.24366 9.25627 5.48124 9.30773 5.73988C9.35913 5.99852 9.33273 6.26661 9.23187 6.51025C9.13093 6.75387 8.96 6.96213 8.74073 7.1086C8.52147 7.25513 8.26373 7.33333 8 7.33333V8M9.5 12.6667L8.53333 13.9555C8.26667 14.3111 7.73333 14.3111 7.46667 13.9555L6.5 12.6667H4.66667C3.19391 12.6667 2 11.4727 2 10V4.66667C2 3.19391 3.19391 2 4.66667 2H11.3333C12.8061 2 14 3.19391 14 4.66667V10C14 11.4727 12.8061 12.6667 11.3333 12.6667H9.5Z" stroke="black" stroke-opacity="0.2" stroke-width="1.46766" stroke-linecap="round" stroke-linejoin="round"/>
<path d="M8.00004 10.6673C8.36823 10.6673 8.66671 10.3688 8.66671 10.0007C8.66671 9.63246 8.36823 9.33398 8.00004 9.33398C7.63185 9.33398 7.33337 9.63246 7.33337 10.0007C7.33337 10.3688 7.63185 10.6673 8.00004 10.6673Z" fill="#9CA3AF"/>
<path d="M8.00004 10.6673C8.36823 10.6673 8.66671 10.3688 8.66671 10.0007C8.66671 9.63246 8.36823 9.33398 8.00004 9.33398C7.63185 9.33398 7.33337 9.63246 7.33337 10.0007C7.33337 10.3688 7.63185 10.6673 8.00004 10.6673Z" fill="black" fill-opacity="0.2"/>
</svg>
