<svg width="20" height="21" viewBox="0 0 20 21" fill="none" xmlns="http://www.w3.org/2000/svg">
<path d="M16.68 2.16602C15.7525 2.16602 15 4.40435 15 7.16602H16.68C17.49 7.16602 17.8942 7.16602 18.145 6.88685C18.395 6.60685 18.3517 6.23852 18.265 5.50268C18.0333 3.55768 17.4117 2.16602 16.68 2.16602Z" stroke="#2320E6" stroke-width="1.5" stroke-linecap="round" stroke-linejoin="round"/>
<path d="M15.0003 7.21102V16.0377C15.0003 17.2968 15.0003 17.9268 14.6153 18.1752C13.9862 18.5802 13.0137 17.7302 12.5245 17.4218C12.1203 17.1668 11.9187 17.0402 11.6945 17.0327C11.452 17.0243 11.2462 17.1468 10.8095 17.4218L9.21699 18.426C8.78699 18.6968 8.57283 18.8327 8.33366 18.8327C8.09449 18.8327 7.87949 18.6968 7.45033 18.426L5.85866 17.4218C5.45366 17.1668 5.25199 17.0402 5.02783 17.0327C4.78533 17.0243 4.57949 17.1468 4.14283 17.4218C3.65366 17.7302 2.68116 18.5802 2.05116 18.1752C1.66699 17.9268 1.66699 17.2977 1.66699 16.0377V7.21102C1.66699 4.83268 1.66699 3.64435 2.39949 2.90518C3.13116 2.16602 4.31033 2.16602 6.66699 2.16602H16.667" stroke="#2320E6" stroke-width="1.5" stroke-linecap="round" stroke-linejoin="round"/>
<path d="M8.33366 7.16536C7.41283 7.16536 6.66699 7.72536 6.66699 8.41536C6.66699 9.10536 7.41283 9.66536 8.33366 9.66536C9.25449 9.66536 10.0003 10.2254 10.0003 10.9154C10.0003 11.6054 9.25449 12.1654 8.33366 12.1654M8.33366 7.16536C9.05866 7.16536 9.67699 7.51286 9.90533 7.9987M8.33366 7.16536V6.33203M8.33366 12.1654C7.60866 12.1654 6.99033 11.8179 6.76199 11.332M8.33366 12.1654V12.9987" stroke="#2320E6" stroke-width="1.5" stroke-linecap="round" stroke-linejoin="round"/>
</svg>
