<svg width="24" height="24" viewBox="0 0 24 24" fill="none" xmlns="http://www.w3.org/2000/svg">
<g clip-path="url(#clip0_0_3)">
<path d="M12 23C9.53854 22.3875 7.50633 20.9917 5.90338 18.8126C4.30042 16.6335 3.49929 14.2143 3.5 11.555V5.15L12 2L20.5 5.15V11.555C20.5 14.215 19.6989 16.6345 18.0966 18.8136C16.4944 20.9927 14.4622 22.3882 12 23ZM12 20.795C13.8417 20.2175 15.3646 19.0625 16.5687 17.33C17.7729 15.5975 18.375 13.6725 18.375 11.555V6.59375L12 4.23125L5.625 6.59375V11.555C5.625 13.6725 6.22708 15.5975 7.43125 17.33C8.63542 19.0625 10.1583 20.2175 12 20.795Z" fill="#1E40AF"/>
<path d="M12 23C9.53854 22.3875 7.50633 20.9917 5.90338 18.8126C4.30042 16.6335 3.49929 14.2143 3.5 11.555V5.15L12 2L20.5 5.15V11.555C20.5 14.215 19.6989 16.6345 18.0966 18.8136C16.4944 20.9927 14.4622 22.3882 12 23ZM12 20.795C13.8417 20.2175 15.3646 19.0625 16.5687 17.33C17.7729 15.5975 18.375 13.6725 18.375 11.555V6.59375L12 4.23125L5.625 6.59375V11.555C5.625 13.6725 6.22708 15.5975 7.43125 17.33C8.63542 19.0625 10.1583 20.2175 12 20.795Z" fill="url(#paint0_linear_0_3)"/>
<rect width="13" height="14" transform="translate(13 11)" fill="#EEF3FC"/>
<path d="M16.125 24C15.8156 24 15.5509 23.8975 15.3307 23.6925C15.1106 23.4875 15.0004 23.2408 15 22.9524V17.7143C15 17.4262 15.1102 17.1797 15.3307 16.9747C15.5512 16.7697 15.816 16.667 16.125 16.6667H16.6875V15.619C16.6875 14.8944 16.9618 14.2769 17.5104 13.7663C18.0591 13.2558 18.7222 13.0003 19.5 13C20.2777 12.9997 20.9411 13.2551 21.4901 13.7663C22.0391 14.2776 22.3132 14.8951 22.3125 15.619V16.6667H22.875C23.1844 16.6667 23.4493 16.7693 23.6698 16.9747C23.8903 17.18 24.0004 17.4265 24 17.7143V22.9524C24 23.2405 23.8899 23.4872 23.6698 23.6925C23.4497 23.8979 23.1847 24.0003 22.875 24H16.125ZM16.125 22.9524H22.875V17.7143H16.125V22.9524ZM19.5 21.381C19.8094 21.381 20.0743 21.2785 20.2948 21.0735C20.5153 20.8685 20.6254 20.6218 20.625 20.3333C20.6246 20.0449 20.5146 19.7983 20.2948 19.5937C20.0751 19.3891 19.8101 19.2864 19.5 19.2857C19.1899 19.285 18.9251 19.3877 18.7057 19.5937C18.4864 19.7997 18.3761 20.0463 18.375 20.3333C18.3739 20.6204 18.4841 20.8671 18.7057 21.0735C18.9274 21.2799 19.1921 21.3823 19.5 21.381ZM17.8125 16.6667H21.1875V15.619C21.1875 15.1825 21.0234 14.8115 20.6953 14.506C20.3672 14.2004 19.9687 14.0476 19.5 14.0476C19.0312 14.0476 18.6328 14.2004 18.3047 14.506C17.9766 14.8115 17.8125 15.1825 17.8125 15.619V16.6667Z" fill="black"/>
<path d="M16.125 24C15.8156 24 15.5509 23.8975 15.3307 23.6925C15.1106 23.4875 15.0004 23.2408 15 22.9524V17.7143C15 17.4262 15.1102 17.1797 15.3307 16.9747C15.5512 16.7697 15.816 16.667 16.125 16.6667H16.6875V15.619C16.6875 14.8944 16.9618 14.2769 17.5104 13.7663C18.0591 13.2558 18.7222 13.0003 19.5 13C20.2777 12.9997 20.9411 13.2551 21.4901 13.7663C22.0391 14.2776 22.3132 14.8951 22.3125 15.619V16.6667H22.875C23.1844 16.6667 23.4493 16.7693 23.6698 16.9747C23.8903 17.18 24.0004 17.4265 24 17.7143V22.9524C24 23.2405 23.8899 23.4872 23.6698 23.6925C23.4497 23.8979 23.1847 24.0003 22.875 24H16.125ZM16.125 22.9524H22.875V17.7143H16.125V22.9524ZM19.5 21.381C19.8094 21.381 20.0743 21.2785 20.2948 21.0735C20.5153 20.8685 20.6254 20.6218 20.625 20.3333C20.6246 20.0449 20.5146 19.7983 20.2948 19.5937C20.0751 19.3891 19.8101 19.2864 19.5 19.2857C19.1899 19.285 18.9251 19.3877 18.7057 19.5937C18.4864 19.7997 18.3761 20.0463 18.375 20.3333C18.3739 20.6204 18.4841 20.8671 18.7057 21.0735C18.9274 21.2799 19.1921 21.3823 19.5 21.381ZM17.8125 16.6667H21.1875V15.619C21.1875 15.1825 21.0234 14.8115 20.6953 14.506C20.3672 14.2004 19.9687 14.0476 19.5 14.0476C19.0312 14.0476 18.6328 14.2004 18.3047 14.506C17.9766 14.8115 17.8125 15.1825 17.8125 15.619V16.6667Z" fill="url(#paint1_linear_0_3)"/>
</g>
<defs>
<linearGradient id="paint0_linear_0_3" x1="12" y1="2" x2="12" y2="23" gradientUnits="userSpaceOnUse">
<stop stop-color="#1D4ED8"/>
<stop offset="1" stop-color="#A60DAE"/>
</linearGradient>
<linearGradient id="paint1_linear_0_3" x1="19.5" y1="13" x2="19.5" y2="24" gradientUnits="userSpaceOnUse">
<stop stop-color="#1D4ED8"/>
<stop offset="1" stop-color="#A60DAE"/>
</linearGradient>
<clipPath id="clip0_0_3">
<rect width="24" height="24" fill="white"/>
</clipPath>
</defs>
</svg>
