<svg width="26" height="25" viewBox="0 0 26 25" fill="none" xmlns="http://www.w3.org/2000/svg">
<path d="M12 23.5C9.53854 22.8875 7.50633 21.4917 5.90338 19.3126C4.30042 17.1335 3.49929 14.7143 3.5 12.055V5.65L12 2.5L20.5 5.65V12.055C20.5 14.715 19.6989 17.1345 18.0966 19.3136C16.4944 21.4927 14.4622 22.8882 12 23.5ZM12 21.295C13.8417 20.7175 15.3646 19.5625 16.5687 17.83C17.7729 16.0975 18.375 14.1725 18.375 12.055V7.09375L12 4.73125L5.625 7.09375V12.055C5.625 14.1725 6.22708 16.0975 7.43125 17.83C8.63542 19.5625 10.1583 20.7175 12 21.295Z" fill="#1D4ED8"/>
<path d="M12 23.5C9.53854 22.8875 7.50633 21.4917 5.90338 19.3126C4.30042 17.1335 3.49929 14.7143 3.5 12.055V5.65L12 2.5L20.5 5.65V12.055C20.5 14.715 19.6989 17.1345 18.0966 19.3136C16.4944 21.4927 14.4622 22.8882 12 23.5ZM12 21.295C13.8417 20.7175 15.3646 19.5625 16.5687 17.83C17.7729 16.0975 18.375 14.1725 18.375 12.055V7.09375L12 4.73125L5.625 7.09375V12.055C5.625 14.1725 6.22708 16.0975 7.43125 17.83C8.63542 19.5625 10.1583 20.7175 12 21.295Z" fill="#C5C5C5"/>
<rect width="13" height="14" transform="translate(12.5 11)" fill="white"/>
<path d="M15.625 24C15.3156 24 15.0509 23.8975 14.8307 23.6925C14.6106 23.4875 14.5004 23.2408 14.5 22.9524V17.7143C14.5 17.4262 14.6102 17.1797 14.8307 16.9747C15.0512 16.7697 15.316 16.667 15.625 16.6667H16.1875V15.619C16.1875 14.8944 16.4618 14.2769 17.0104 13.7663C17.5591 13.2558 18.2222 13.0003 19 13C19.7777 12.9997 20.4411 13.2551 20.9901 13.7663C21.5391 14.2776 21.8132 14.8951 21.8125 15.619V16.6667H22.375C22.6844 16.6667 22.9493 16.7693 23.1698 16.9747C23.3903 17.18 23.5004 17.4265 23.5 17.7143V22.9524C23.5 23.2405 23.3899 23.4872 23.1698 23.6925C22.9497 23.8979 22.6847 24.0003 22.375 24H15.625ZM15.625 22.9524H22.375V17.7143H15.625V22.9524ZM19 21.381C19.3094 21.381 19.5743 21.2785 19.7948 21.0735C20.0153 20.8685 20.1254 20.6218 20.125 20.3333C20.1246 20.0449 20.0146 19.7983 19.7948 19.5937C19.5751 19.3891 19.3101 19.2864 19 19.2857C18.6899 19.285 18.4251 19.3877 18.2057 19.5937C17.9864 19.7997 17.8761 20.0463 17.875 20.3333C17.8739 20.6204 17.9841 20.8671 18.2057 21.0735C18.4274 21.2799 18.6921 21.3823 19 21.381ZM17.3125 16.6667H20.6875V15.619C20.6875 15.1825 20.5234 14.8115 20.1953 14.506C19.8672 14.2004 19.4687 14.0476 19 14.0476C18.5312 14.0476 18.1328 14.2004 17.8047 14.506C17.4766 14.8115 17.3125 15.1825 17.3125 15.619V16.6667Z" fill="#C5C5C5"/>
</svg>
