<svg width="33" height="24" viewBox="0 0 33 24" fill="none" xmlns="http://www.w3.org/2000/svg">
<path d="M5.37704 7.16672C4.53935 6.46382 4.42274 5.20457 5.22086 4.45704C7.42343 2.39407 10.1512 0.974075 13.1044 0.353107C14.1746 0.128098 15.1392 0.945892 15.2345 2.03525C15.3298 3.12462 14.5171 4.06953 13.4563 4.33494C11.5436 4.81349 9.76985 5.73685 8.28078 7.02913C7.4549 7.74587 6.21473 7.86962 5.37704 7.16672Z" fill="#FF2727"/>
<g clip-path="url(#clip0_37470_15304)">
<path d="M19.2708 19.2244C19.1879 19.3679 19.0514 19.4727 18.8913 19.5156C18.7312 19.5585 18.5606 19.536 18.4171 19.4531L9.69388 14.5079L10.2948 16.7505C10.3311 16.9083 10.3048 17.074 10.2214 17.2128C10.138 17.3516 10.0039 17.4526 9.8475 17.4945C9.69108 17.5365 9.52449 17.516 9.38284 17.4375C9.24118 17.359 9.13553 17.2286 9.08812 17.0738L8.0968 13.3741C8.05403 13.2141 8.07653 13.0437 8.15934 12.9003C8.24215 12.7568 8.37851 12.6521 8.53847 12.6091L12.2381 11.6178C12.3184 11.5933 12.4028 11.5851 12.4862 11.5939C12.5697 11.6026 12.6506 11.6281 12.724 11.6688C12.7974 11.7094 12.8619 11.7645 12.9135 11.8306C12.9652 11.8968 13.0031 11.9726 13.0248 12.0537C13.0465 12.1348 13.0517 12.2194 13.04 12.3025C13.0283 12.3856 13 12.4655 12.9567 12.5375C12.9135 12.6094 12.8562 12.6719 12.7883 12.7212C12.7204 12.7705 12.6432 12.8056 12.5614 12.8245L10.3189 13.4254L19.0421 18.3706C19.3408 18.5431 19.4433 18.9256 19.2708 19.2244Z" fill="black"/>
</g>
<path d="M2.15877 18.7714C1.0787 18.9425 0.0518765 18.2044 0.0113402 17.1117C-0.0442303 15.6136 0.104503 14.1118 0.455897 12.6481C0.80729 11.1845 1.35656 9.77887 2.08619 8.46931C2.61841 7.51405 3.8684 7.3226 4.75308 7.96535C5.63775 8.60811 5.81779 9.84134 5.32214 10.8161C4.87779 11.6899 4.5364 12.6149 4.30648 13.5726C4.07656 14.5303 3.9608 15.5094 3.96 16.4898C3.95911 17.5833 3.23883 18.6004 2.15877 18.7714Z" fill="#AE0000"/>
<path d="M28.2469 7.96536C29.1316 7.3226 30.3817 7.5141 30.9139 8.46935C32.3827 11.1056 33.1007 14.0959 32.9887 17.1116C32.9482 18.2044 31.9213 18.9425 30.8412 18.7714C29.7612 18.6004 29.0409 17.5832 29.04 16.4897C29.0384 14.518 28.5716 12.5736 27.6779 10.8161C27.1823 9.84139 27.3622 8.60812 28.2469 7.96536Z" fill="#33BF00"/>
<path d="M17.2599 1.9999C17.3171 0.907875 18.2526 0.0569382 19.3299 0.244488C20.8068 0.501595 22.2448 0.959316 23.6034 1.60734C24.962 2.25537 26.2228 3.08488 27.352 4.07083C28.1757 4.79004 28.1031 6.05251 27.2905 6.78422C26.4778 7.51593 25.2341 7.43563 24.3837 6.74815C23.6214 6.13183 22.7876 5.60559 21.8986 5.18158C21.0097 4.75757 20.076 4.44077 19.1172 4.23616C18.0478 4.00793 17.2027 3.09192 17.2599 1.9999Z" fill="#60FF27"/>
<defs>
<clipPath id="clip0_37470_15304">
<rect width="10" height="16.057" fill="white" transform="matrix(-0.5 0.866025 0.866025 0.5 8 6.56641)"/>
</clipPath>
</defs>
</svg>
