<svg width="16" height="16" viewBox="0 0 16 16" fill="none" xmlns="http://www.w3.org/2000/svg">
<path d="M5.06373 7.71602C6.57216 7.71602 7.69935 6.1207 7.69935 4.69445C7.69935 3.98414 7.41748 3.33008 6.90591 2.85195C6.41623 2.39445 5.76216 2.14258 5.06373 2.14258C4.3656 2.14258 3.71123 2.39445 3.22154 2.85195C2.70998 3.32977 2.4281 3.98414 2.4281 4.69445C2.4281 6.1207 3.55529 7.71602 5.06373 7.71602ZM3.90435 3.58258C4.2081 3.29883 4.61998 3.14258 5.06373 3.14258C5.50748 3.14258 5.91935 3.29883 6.2231 3.58258C6.52998 3.86945 6.69904 4.26414 6.69904 4.69445C6.69904 5.16102 6.50873 5.67977 6.19029 6.08227C6.0031 6.31883 5.60748 6.71602 5.06373 6.71602C4.51998 6.71602 4.12435 6.31883 3.93716 6.08227C3.61841 5.67977 3.42841 5.1607 3.42841 4.69445C3.4281 4.26414 3.59716 3.86945 3.90435 3.58258Z" fill="#333333"/>
<path d="M10.9363 2.14258C10.2382 2.14258 9.58378 2.39445 9.0941 2.85195C8.58253 3.32977 8.30066 3.98414 8.30066 4.69445C8.30066 6.1207 9.42785 7.71602 10.936 7.71602C12.4441 7.71602 13.5716 6.1207 13.5716 4.69445C13.5716 3.98414 13.2897 3.33008 12.7782 2.85195C12.2888 2.39445 11.6347 2.14258 10.9363 2.14258ZM12.0632 6.08227C11.876 6.31883 11.4803 6.71602 10.9366 6.71602C10.3928 6.71602 9.99722 6.31883 9.81003 6.08227C9.49128 5.67977 9.30128 5.1607 9.30128 4.69445C9.30128 4.26445 9.47035 3.86945 9.77722 3.58258C10.081 3.29883 10.4928 3.14258 10.9366 3.14258C11.3803 3.14258 11.7922 3.29883 12.096 3.58258C12.4028 3.86945 12.5719 4.26414 12.5719 4.69445C12.5719 5.1607 12.3816 5.67977 12.0632 6.08227Z" fill="#333333"/>
<path d="M13.4578 7.99404C13.3194 7.92123 13.1734 7.85466 13.0241 7.79623C12.8794 7.73966 12.7166 7.75341 12.5834 7.83373C12.0731 8.14185 11.5037 8.30466 10.9366 8.30466C10.3691 8.30466 9.79969 8.14185 9.28937 7.83373C9.15625 7.75341 8.99312 7.73935 8.84844 7.79623C8.69781 7.85529 8.55187 7.92185 8.41531 7.99373C8.26969 8.07029 8.13094 8.15466 8.00031 8.24623C7.86969 8.15498 7.73094 8.0706 7.58562 7.99404C7.44844 7.92185 7.3025 7.85529 7.15187 7.79623C7.00718 7.73935 6.84406 7.75341 6.71094 7.83373C6.20062 8.14185 5.63125 8.30466 5.06375 8.30466C4.49656 8.30466 3.92719 8.14185 3.41687 7.83373C3.28375 7.75341 3.12093 7.73966 2.97625 7.79623C2.82687 7.85466 2.68094 7.92123 2.5425 7.99404C1.9075 8.32748 1.40531 8.81248 1.12875 9.35998C0.858123 9.89529 0.770935 10.5334 0.862185 11.3112C0.959998 12.1465 1.08969 12.8584 1.25844 13.4878C1.31719 13.7062 1.515 13.8584 1.74125 13.8584H8.38656H14.2594C14.4856 13.8584 14.6837 13.7062 14.7425 13.4878C14.9112 12.8572 15.0406 12.145 15.1378 11.3115C15.2294 10.534 15.1422 9.8956 14.8716 9.36029C14.5947 8.81216 14.0925 8.32685 13.4578 7.99404ZM1.85531 11.1947C1.78687 10.61 1.83937 10.1703 2.02125 9.81091C2.20469 9.44779 2.555 9.11685 3.0075 8.87935C3.04718 8.85841 3.0875 8.83841 3.12875 8.81904C3.73531 9.13748 4.39906 9.30498 5.06375 9.30498C5.72875 9.30498 6.3925 9.13779 6.99906 8.81904C7.04031 8.83841 7.08062 8.85873 7.12 8.87935C7.32437 8.98654 7.50844 9.1131 7.66719 9.25529C7.69125 9.27654 7.71437 9.29841 7.73687 9.31998C7.89469 9.4731 8.01875 9.63779 8.10625 9.81091C8.14031 9.87841 8.17 9.94841 8.195 10.0219C8.30343 10.34 8.32781 10.7194 8.27218 11.1944C8.26687 11.2403 8.26125 11.2853 8.25594 11.3303C8.25469 11.3412 8.25312 11.3522 8.25187 11.3631C8.2475 11.3969 8.24343 11.4303 8.23906 11.4637C8.2375 11.4769 8.23562 11.49 8.23406 11.5031C8.22968 11.5362 8.22531 11.569 8.22062 11.6019C8.21906 11.6125 8.21781 11.6231 8.21625 11.6337C8.21031 11.6769 8.20406 11.7197 8.19781 11.7622C8.1975 11.7644 8.19718 11.7662 8.19687 11.7684C8.19093 11.8078 8.18531 11.8469 8.17906 11.8856C8.17719 11.8978 8.17531 11.91 8.17343 11.9222C8.16875 11.9515 8.16437 11.9803 8.15968 12.0094C8.1575 12.0225 8.15531 12.0356 8.15344 12.0484C8.14844 12.0787 8.14344 12.1087 8.13843 12.1384C8.13687 12.1484 8.135 12.1584 8.13343 12.1684C8.12656 12.2078 8.11968 12.2472 8.11281 12.2859C8.11187 12.2919 8.11062 12.2978 8.10969 12.3037C8.10375 12.3362 8.09781 12.3684 8.09156 12.4006C8.08937 12.4128 8.08687 12.425 8.08468 12.4372C8.07968 12.4634 8.07469 12.4894 8.06937 12.5153C8.06687 12.5278 8.06437 12.5403 8.06187 12.5528C8.05625 12.5812 8.05031 12.6094 8.04437 12.6375C8.0425 12.6462 8.04094 12.6547 8.03906 12.6634C8.03125 12.6997 8.02375 12.7356 8.01562 12.7712C8.01375 12.7797 8.01187 12.7878 8.01 12.7962C8.00531 12.8169 8.00062 12.8372 7.99593 12.8575H2.13219C2.01969 12.3675 1.92844 11.8194 1.85531 11.1947ZM14.1447 11.1944C14.1447 11.1947 14.1447 11.1947 14.1447 11.195C14.0719 11.8187 13.9809 12.3669 13.8684 12.8581H9.01937C9.02125 12.85 9.02281 12.8412 9.02437 12.8331C9.03312 12.7909 9.04187 12.7481 9.05031 12.705C9.05375 12.6884 9.05687 12.6715 9.06 12.655C9.06812 12.6128 9.07625 12.57 9.08437 12.5269C9.08656 12.5147 9.08906 12.5025 9.09125 12.4903C9.10125 12.4356 9.11094 12.3806 9.12062 12.3247C9.12281 12.3112 9.125 12.2978 9.1275 12.2844C9.135 12.2403 9.14219 12.1956 9.14937 12.1506C9.15219 12.1334 9.155 12.1165 9.1575 12.0994C9.16531 12.049 9.17312 11.9984 9.18094 11.9475C9.18219 11.9394 9.18344 11.9312 9.18469 11.9231C9.19344 11.864 9.20187 11.804 9.21031 11.7434C9.2125 11.7275 9.21469 11.7115 9.21687 11.6953C9.22312 11.6484 9.22937 11.6009 9.23562 11.5531C9.23781 11.5359 9.24 11.5184 9.24219 11.5012C9.25 11.4387 9.25781 11.3756 9.26531 11.3112C9.35656 10.5334 9.26937 9.89498 8.99875 9.35998C8.98 9.3231 8.96031 9.28623 8.93969 9.24998C8.93281 9.2381 8.92562 9.22623 8.91844 9.21435C8.90406 9.19029 8.89 9.16591 8.87469 9.14216C8.86562 9.1281 8.85625 9.11404 8.84719 9.10029C8.83312 9.07904 8.81906 9.05779 8.80437 9.03654C8.79406 9.02185 8.78344 9.00716 8.7725 8.99248C8.76344 8.97998 8.75469 8.96716 8.74531 8.95466C8.78937 8.92841 8.83437 8.90341 8.88062 8.87904C8.91969 8.85841 8.96 8.83841 9.00094 8.81904C9.6075 9.13748 10.2712 9.30498 10.9362 9.30498C11.6009 9.30498 12.265 9.13779 12.8712 8.81904C12.9125 8.83841 12.9528 8.85873 12.9925 8.87935C13.4447 9.11654 13.795 9.44748 13.9787 9.81091C14.1609 10.1706 14.2134 10.61 14.1447 11.1944Z" fill="#333333"/>
</svg>
