<svg width="42" height="40" viewBox="0 0 42 40" fill="none" xmlns="http://www.w3.org/2000/svg">
<rect x="0.5" y="0.5" width="41" height="39" rx="19.5" fill="white" fill-opacity="0.5"/>
<rect x="0.5" y="0.5" width="41" height="39" rx="19.5" stroke="white"/>
<path d="M31.9483 16.5835C31.9248 16.5325 31.8963 16.4842 31.8632 16.4391C31.8382 16.3143 31.8046 16.1914 31.7628 16.0713C31.7577 16.0574 31.7526 16.0435 31.7458 16.0296L29.4031 10.5217C29.3369 10.3666 29.2277 10.2346 29.0891 10.1419C28.9505 10.0492 28.7884 9.99992 28.6228 10H13.3058C13.1401 9.99992 12.978 10.0492 12.8394 10.1419C12.7008 10.2346 12.5917 10.3666 12.5254 10.5217L10.1683 16.0704C9.9439 16.6524 9.9439 17.2997 10.1683 17.8817C10.3851 18.3882 10.6992 18.845 11.092 19.2252C11.4847 19.6053 11.9482 19.901 12.4548 20.0948V29.1304C12.4548 29.3611 12.5445 29.5822 12.704 29.7453C12.8636 29.9084 13.0801 30 13.3058 30H28.6228C28.8485 30 29.0649 29.9084 29.2245 29.7453C29.3841 29.5822 29.4737 29.3611 29.4737 29.1304V20.0948C29.9803 19.9013 30.4436 19.6058 30.8364 19.226C31.2291 18.8462 31.5433 18.3896 31.7602 17.8835C31.8304 17.7005 31.877 17.5091 31.8989 17.3139C31.9557 17.2021 31.9894 17.0796 31.9979 16.9539C32.0064 16.8283 31.9895 16.7022 31.9483 16.5835ZM18.4114 28.2609V23.0435H20.1133V28.2609H18.4114ZM21.8152 28.2609V23.0435H23.5171V28.2609H21.8152ZM27.7718 28.2609H25.219V22.1739C25.219 21.9433 25.1294 21.7221 24.9698 21.559C24.8102 21.396 24.5937 21.3043 24.3681 21.3043H17.5605C17.3348 21.3043 17.1184 21.396 16.9588 21.559C16.7992 21.7221 16.7095 21.9433 16.7095 22.1739V28.2609H14.1567V20.4348C14.8014 20.443 15.44 20.3072 16.028 20.0369C16.6159 19.7665 17.139 19.3681 17.5605 18.8696C17.9868 19.3623 18.5107 19.7569 19.0975 20.0272C19.6843 20.2974 20.3206 20.4372 20.9643 20.4372C21.6079 20.4372 22.2442 20.2974 22.831 20.0272C23.4178 19.7569 23.9417 19.3623 24.3681 18.8696C24.7896 19.3681 25.3126 19.7665 25.9005 20.0369C26.4885 20.3072 27.1272 20.443 27.7718 20.4348V28.2609ZM30.186 17.2174C29.9683 17.6774 29.6239 18.0623 29.195 18.325C28.7661 18.5876 28.2714 18.7164 27.7718 18.6957C27.1525 18.7471 26.5381 18.5482 26.0608 18.1417C25.5834 17.7352 25.2812 17.1535 25.219 16.5217C25.219 16.2911 25.1294 16.0699 24.9698 15.9069C24.8102 15.7438 24.5937 15.6522 24.3681 15.6522C24.1424 15.6522 23.9259 15.7438 23.7663 15.9069C23.6068 16.0699 23.5171 16.2911 23.5171 16.5217C23.455 17.1535 23.1527 17.7352 22.6754 18.1417C22.198 18.5482 21.5836 18.7471 20.9643 18.6957C20.3449 18.7471 19.7305 18.5482 19.2532 18.1417C18.7758 17.7352 18.4736 17.1535 18.4114 16.5217C18.4114 16.2911 18.3218 16.0699 18.1622 15.9069C18.0026 15.7438 17.7862 15.6522 17.5605 15.6522C17.3348 15.6522 17.1184 15.7438 16.9588 15.9069C16.7992 16.0699 16.7095 16.2911 16.7095 16.5217C16.6474 17.1535 16.3452 17.7352 15.8678 18.1417C15.3904 18.5482 14.776 18.7471 14.1567 18.6957C13.657 18.7165 13.1622 18.5877 12.7332 18.3251C12.3041 18.0624 11.9595 17.6774 11.7417 17.2174C11.6847 17.057 11.6847 16.8812 11.7417 16.7209L13.864 11.7391H28.0646L30.1724 16.6957C30.2382 16.8622 30.2431 17.0475 30.186 17.2174Z" fill="black"/>
</svg>
