<svg width="14" height="13" viewBox="0 0 14 13" fill="none" xmlns="http://www.w3.org/2000/svg">
<path d="M7.54159 3.25H6.45825V3.79167C6.45825 3.93533 6.51532 4.0731 6.6169 4.17468C6.71848 4.27627 6.85626 4.33333 6.99992 4.33333C7.14358 4.33333 7.28135 4.27627 7.38293 4.17468C7.48452 4.0731 7.54159 3.93533 7.54159 3.79167V3.25Z" fill="#CA8A04"/>
<path fill-rule="evenodd" clip-rule="evenodd" d="M3.75 1.08331V2.16665H4.29167V3.79165C4.29167 4.50994 4.57701 5.19882 5.08492 5.70673C5.59283 6.21464 6.28171 6.49998 7 6.49998C6.28171 6.49998 5.59283 6.78532 5.08492 7.29323C4.57701 7.80114 4.29167 8.49002 4.29167 9.20831V10.8333H3.75V11.9166H10.25V10.8333H9.70833V9.20831C9.70833 8.49002 9.42299 7.80114 8.91508 7.29323C8.40717 6.78532 7.71829 6.49998 7 6.49998C7.35566 6.49998 7.70784 6.42993 8.03643 6.29382C8.36502 6.15771 8.66359 5.95822 8.91508 5.70673C9.16657 5.45524 9.36607 5.15667 9.50217 4.82808C9.63828 4.49949 9.70833 4.14731 9.70833 3.79165V2.16665H10.25V1.08331H3.75ZM5.375 2.16665H8.625V3.79165C8.625 4.22262 8.4538 4.63595 8.14905 4.94069C7.8443 5.24544 7.43098 5.41665 7 5.41665C6.56902 5.41665 6.1557 5.24544 5.85095 4.94069C5.5462 4.63595 5.375 4.22262 5.375 3.79165V2.16665ZM5.375 9.20831V10.8333H8.625V9.20831C8.625 8.77734 8.4538 8.36401 8.14905 8.05926C7.8443 7.75452 7.43098 7.58331 7 7.58331C6.56902 7.58331 6.1557 7.75452 5.85095 8.05926C5.5462 8.36401 5.375 8.77734 5.375 9.20831Z" fill="#CA8A04"/>
</svg>
