<svg width="24" height="24" viewBox="0 0 24 24" fill="none" xmlns="http://www.w3.org/2000/svg">
<path fill-rule="evenodd" clip-rule="evenodd" d="M17.9909 6.01058L5.39895 10.5636L9.59394 12.9916L13.2929 9.29158C13.4806 9.10407 13.735 8.99878 14.0003 8.99888C14.2656 8.99897 14.5199 9.10444 14.7074 9.29208C14.895 9.47972 15.0002 9.73416 15.0001 9.99943C15.0001 10.2647 14.8946 10.5191 14.7069 10.7066L11.0069 14.4066L13.4369 18.6006L17.9909 6.01058ZM18.3139 3.76658C19.5089 3.33358 20.6669 4.49158 20.2339 5.68658L14.9519 20.2916C14.5179 21.4896 12.8819 21.6356 12.2429 20.5326L9.02594 14.9746L3.46794 11.7576C2.36494 11.1186 2.51095 9.48258 3.70895 9.04858L18.3139 3.76658Z" fill="#1F2937"/>
</svg>
