<svg width="33" height="22" viewBox="0 0 33 22" fill="none" xmlns="http://www.w3.org/2000/svg">
<path d="M5.37704 7.16672C4.53935 6.46382 4.42274 5.20457 5.22086 4.45704C7.42343 2.39407 10.1512 0.974075 13.1044 0.353107C14.1746 0.128098 15.1392 0.945892 15.2345 2.03525C15.3298 3.12462 14.5171 4.06953 13.4563 4.33494C11.5436 4.81349 9.76985 5.73685 8.28078 7.02913C7.4549 7.74587 6.21473 7.86962 5.37704 7.16672Z" fill="#FF2727"/>
<g clip-path="url(#clip0_37470_15319)">
<path d="M14.635 17.658C14.7179 17.8015 14.8544 17.9063 15.0145 17.9492C15.1746 17.9921 15.3452 17.9696 15.4888 17.8867L24.2119 12.9415L23.611 15.1841C23.5747 15.3419 23.601 15.5076 23.6844 15.6464C23.7678 15.7852 23.9019 15.8862 24.0583 15.9281C24.2147 15.97 24.3813 15.9496 24.523 15.8711C24.6646 15.7926 24.7703 15.6622 24.8177 15.5074L25.809 11.8077C25.8518 11.6477 25.8293 11.4773 25.7465 11.3338C25.6637 11.1904 25.5273 11.0857 25.3674 11.0427L21.6677 10.0514C21.5874 10.0269 21.5031 10.0187 21.4196 10.0275C21.3361 10.0362 21.2553 10.0617 21.1818 10.1024C21.1084 10.143 21.044 10.1981 20.9923 10.2642C20.9406 10.3303 20.9028 10.4062 20.881 10.4873C20.8593 10.5684 20.8541 10.653 20.8658 10.7361C20.8775 10.8192 20.9058 10.8991 20.9491 10.971C20.9923 11.043 21.0496 11.1055 21.1175 11.1548C21.1854 11.2041 21.2626 11.2392 21.3444 11.2581L23.5869 11.859L14.8638 16.8042C14.565 16.9767 14.4625 17.3592 14.635 17.658Z" fill="black"/>
</g>
<path d="M2.15877 18.7714C1.0787 18.9425 0.0518765 18.2044 0.0113402 17.1117C-0.0442303 15.6136 0.104503 14.1118 0.455897 12.6481C0.80729 11.1845 1.35656 9.77887 2.08619 8.46931C2.61841 7.51405 3.8684 7.3226 4.75308 7.96535C5.63775 8.60811 5.81779 9.84134 5.32214 10.8161C4.87779 11.6899 4.5364 12.6149 4.30648 13.5726C4.07656 14.5303 3.9608 15.5094 3.96 16.4898C3.95911 17.5833 3.23883 18.6004 2.15877 18.7714Z" fill="#AE0000"/>
<path d="M28.2469 7.96536C29.1316 7.3226 30.3817 7.5141 30.9139 8.46935C32.3827 11.1056 33.1007 14.0959 32.9887 17.1116C32.9482 18.2044 31.9213 18.9425 30.8412 18.7714C29.7612 18.6004 29.0409 17.5832 29.04 16.4897C29.0384 14.518 28.5716 12.5736 27.6779 10.8161C27.1823 9.84139 27.3622 8.60812 28.2469 7.96536Z" fill="#33BF00"/>
<path d="M17.2599 1.9999C17.3171 0.907875 18.2526 0.0569382 19.3299 0.244488C20.8068 0.501595 22.2448 0.959316 23.6034 1.60734C24.962 2.25537 26.2228 3.08488 27.352 4.07083C28.1757 4.79004 28.1031 6.05251 27.2905 6.78422C26.4778 7.51593 25.2341 7.43563 24.3837 6.74815C23.6214 6.13183 22.7876 5.60559 21.8986 5.18158C21.0097 4.75757 20.076 4.44077 19.1172 4.23616C18.0478 4.00793 17.2027 3.09192 17.2599 1.9999Z" fill="#60FF27"/>
<defs>
<clipPath id="clip0_37470_15319">
<rect width="10" height="16.057" fill="white" transform="translate(25.9058 5) rotate(60)"/>
</clipPath>
</defs>
</svg>
