<svg width="24" height="24" viewBox="0 0 24 24" fill="none" xmlns="http://www.w3.org/2000/svg">
<path d="M12 20C10.2625 19.5625 8.828 18.5655 7.6965 17.009C6.565 15.4525 5.9995 13.7245 6 11.825V7.25L12 5L18 7.25V11.825C18 13.725 17.4345 15.4532 16.3035 17.0098C15.1725 18.5663 13.738 19.563 12 20ZM12 18.425C13.3 18.0125 14.375 17.1875 15.225 15.95C16.075 14.7125 16.5 13.3375 16.5 11.825V8.28125L12 6.59375L7.5 8.28125V11.825C7.5 13.3375 7.925 14.7125 8.775 15.95C9.625 17.1875 10.7 18.0125 12 18.425Z" fill="#1E40AF"/>
<path d="M12 20C10.2625 19.5625 8.828 18.5655 7.6965 17.009C6.565 15.4525 5.9995 13.7245 6 11.825V7.25L12 5L18 7.25V11.825C18 13.725 17.4345 15.4532 16.3035 17.0098C15.1725 18.5663 13.738 19.563 12 20ZM12 18.425C13.3 18.0125 14.375 17.1875 15.225 15.95C16.075 14.7125 16.5 13.3375 16.5 11.825V8.28125L12 6.59375L7.5 8.28125V11.825C7.5 13.3375 7.925 14.7125 8.775 15.95C9.625 17.1875 10.7 18.0125 12 18.425Z" fill="url(#paint0_linear_35373_68585)"/>
<defs>
<linearGradient id="paint0_linear_35373_68585" x1="12" y1="5" x2="12" y2="20" gradientUnits="userSpaceOnUse">
<stop stop-color="#1D4ED8"/>
<stop offset="1" stop-color="#A60DAE"/>
</linearGradient>
</defs>
</svg>
