<svg width="34" height="34" viewBox="0 0 34 34" fill="none" xmlns="http://www.w3.org/2000/svg">
<rect x="0.5" y="0.5" width="33" height="33" rx="8.5" stroke="#EBEBEB"/>
<path d="M19.388 21.4961C19.2505 21.4968 19.1142 21.4653 18.9872 21.4033C18.8601 21.3412 18.7449 21.25 18.6482 21.1349L15.2005 17.0792L11.7528 21.1349C11.5543 21.3524 11.2918 21.4708 11.0206 21.4652C10.7494 21.4595 10.4906 21.3303 10.2988 21.1047C10.107 20.8791 9.99714 20.5747 9.99235 20.2556C9.98757 19.9366 10.0882 19.6278 10.2732 19.3944L14.4607 14.4686C14.657 14.2379 14.9231 14.1084 15.2005 14.1084C15.4779 14.1084 15.744 14.2379 15.9403 14.4686L19.388 18.5242L24.2316 12.8266C24.4301 12.6091 24.6926 12.4907 24.9638 12.4963C25.235 12.5019 25.4938 12.6312 25.6856 12.8568C25.8774 13.0824 25.9872 13.3868 25.992 13.7058C25.9968 14.0249 25.8961 14.3336 25.7112 14.5671L20.1278 21.1349C20.0312 21.25 19.9159 21.3412 19.7889 21.4033C19.6619 21.4653 19.5256 21.4968 19.388 21.4961Z" fill="black"/>
<path d="M25.0922 19.4961C24.8545 19.4925 24.6273 19.3827 24.4592 19.1901C24.2911 18.9974 24.1953 18.7371 24.1922 18.4647V14.559H20.8922C20.6535 14.559 20.4246 14.4503 20.2558 14.2569C20.087 14.0634 19.9922 13.8011 19.9922 13.5275C19.9922 13.254 20.087 12.9916 20.2558 12.7982C20.4246 12.6048 20.6535 12.4961 20.8922 12.4961H25.0922C25.3299 12.4997 25.557 12.6095 25.7251 12.8021C25.8933 12.9948 25.9891 13.2551 25.9922 13.5275V18.4647C25.9891 18.7371 25.8933 18.9974 25.7251 19.1901C25.557 19.3827 25.3299 19.4925 25.0922 19.4961Z" fill="black"/>
</svg>
