<svg width="22" height="22" viewBox="0 0 22 22" fill="none" xmlns="http://www.w3.org/2000/svg">
<rect width="22" height="22" rx="11" fill="white"/>
<rect x="0.5" y="0.5" width="21" height="21" rx="10.5" stroke="#ABB5C5" stroke-opacity="0.7"/>
<path d="M7.23237 7.23237C7.3751 7.08968 7.56866 7.00952 7.77049 7.00952C7.97232 7.00952 8.16588 7.08968 8.30862 7.23237L11 9.92375L13.6914 7.23237C13.7616 7.15967 13.8456 7.10168 13.9384 7.06179C14.0313 7.0219 14.1312 7.00091 14.2322 7.00003C14.3333 6.99915 14.4335 7.01841 14.5271 7.05668C14.6206 7.09495 14.7056 7.15147 14.7771 7.22293C14.8485 7.2944 14.905 7.37938 14.9433 7.47292C14.9816 7.56646 15.0008 7.66669 15 7.76775C14.9991 7.86882 14.9781 7.96869 14.9382 8.06155C14.8983 8.15442 14.8403 8.2384 14.7676 8.30862L12.0762 11L14.7676 13.6914C14.8403 13.7616 14.8983 13.8456 14.9382 13.9384C14.9781 14.0313 14.9991 14.1312 15 14.2322C15.0008 14.3333 14.9816 14.4335 14.9433 14.5271C14.905 14.6206 14.8485 14.7056 14.7771 14.7771C14.7056 14.8485 14.6206 14.905 14.5271 14.9433C14.4335 14.9816 14.3333 15.0008 14.2322 15C14.1312 14.9991 14.0313 14.9781 13.9384 14.9382C13.8456 14.8983 13.7616 14.8403 13.6914 14.7676L11 12.0762L8.30862 14.7676C8.2384 14.8403 8.15442 14.8983 8.06155 14.9382C7.96869 14.9781 7.86882 14.9991 7.76775 15C7.66669 15.0008 7.56646 14.9816 7.47292 14.9433C7.37938 14.905 7.2944 14.8485 7.22293 14.7771C7.15147 14.7056 7.09495 14.6206 7.05668 14.5271C7.01841 14.4335 6.99915 14.3333 7.00003 14.2322C7.00091 14.1312 7.0219 14.0313 7.06179 13.9384C7.10168 13.8456 7.15967 13.7616 7.23237 13.6914L9.92375 11L7.23237 8.30862C7.08968 8.16588 7.00952 7.97232 7.00952 7.77049C7.00952 7.56866 7.08968 7.3751 7.23237 7.23237Z" fill="#E60000"/>
</svg>
