<svg width="22" height="22" viewBox="0 0 22 22" fill="none" xmlns="http://www.w3.org/2000/svg">
<rect width="22" height="22" rx="11" fill="white"/>
<rect x="0.5" y="0.5" width="21" height="21" rx="10.5" stroke="#ABB5C5" stroke-opacity="0.7"/>
<path d="M7.11111 14.8889H7.90278L13.3333 9.45833L12.5417 8.66667L7.11111 14.0972V14.8889ZM6 16V13.6389L13.3333 6.31944C13.4444 6.21759 13.5672 6.13889 13.7017 6.08333C13.8361 6.02778 13.9772 6 14.125 6C14.2728 6 14.4163 6.02778 14.5556 6.08333C14.6948 6.13889 14.8152 6.22222 14.9167 6.33333L15.6806 7.11111C15.7917 7.21296 15.8728 7.33333 15.9239 7.47222C15.975 7.61111 16.0004 7.75 16 7.88889C16 8.03704 15.9746 8.17833 15.9239 8.31278C15.8731 8.44722 15.792 8.56981 15.6806 8.68056L8.36111 16H6ZM12.9306 9.06944L12.5417 8.66667L13.3333 9.45833L12.9306 9.06944Z" fill="#2947F2"/>
</svg>
