<svg width="23" height="22" viewBox="0 0 23 22" fill="none" xmlns="http://www.w3.org/2000/svg">
<path d="M20.8863 0.701483C20.7589 0.595708 20.604 0.528317 20.4398 0.507161C20.2755 0.486005 20.1086 0.511954 19.9586 0.581987L1.94971 9.03497V10.6706L9.5138 13.6962L14.3657 21.1608H16.0016L21.1708 1.59278C21.2127 1.43253 21.2082 1.26367 21.1579 1.10587C21.1075 0.948064 21.0133 0.807823 20.8863 0.701483ZM14.9916 19.6007L10.8212 13.1845L17.2387 6.15555L16.2233 5.22846L9.75554 12.3122L3.51893 9.81752L19.5653 2.28544L14.9916 19.6007Z" fill="#1D4ED8"/>
<path d="M20.8863 0.701483C20.7589 0.595708 20.604 0.528317 20.4398 0.507161C20.2755 0.486005 20.1086 0.511954 19.9586 0.581987L1.94971 9.03497V10.6706L9.5138 13.6962L14.3657 21.1608H16.0016L21.1708 1.59278C21.2127 1.43253 21.2082 1.26367 21.1579 1.10587C21.1075 0.948064 21.0133 0.807823 20.8863 0.701483ZM14.9916 19.6007L10.8212 13.1845L17.2387 6.15555L16.2233 5.22846L9.75554 12.3122L3.51893 9.81752L19.5653 2.28544L14.9916 19.6007Z" fill="url(#paint0_linear_35416_78178)"/>
<defs>
<linearGradient id="paint0_linear_35416_78178" x1="11.5745" y1="0.5" x2="11.5745" y2="21.1608" gradientUnits="userSpaceOnUse">
<stop stop-color="#1D4ED8"/>
<stop offset="1" stop-color="#A60DAE"/>
</linearGradient>
</defs>
</svg>
