<svg width="22" height="22" viewBox="0 0 22 22" fill="none" xmlns="http://www.w3.org/2000/svg">
<path d="M20.3863 0.701483C20.2589 0.595708 20.104 0.528317 19.9398 0.507161C19.7755 0.486005 19.6086 0.511954 19.4586 0.581987L1.44971 9.03497V10.6706L9.0138 13.6962L13.8657 21.1608H15.5016L20.6708 1.59278C20.7127 1.43253 20.7082 1.26367 20.6579 1.10587C20.6075 0.948064 20.5133 0.807823 20.3863 0.701483ZM14.4916 19.6007L10.3212 13.1845L16.7387 6.15555L15.7233 5.22846L9.25554 12.3122L3.01893 9.81752L19.0653 2.28544L14.4916 19.6007Z" fill="#1D4ED8"/>
<path d="M20.3863 0.701483C20.2589 0.595708 20.104 0.528317 19.9398 0.507161C19.7755 0.486005 19.6086 0.511954 19.4586 0.581987L1.44971 9.03497V10.6706L9.0138 13.6962L13.8657 21.1608H15.5016L20.6708 1.59278C20.7127 1.43253 20.7082 1.26367 20.6579 1.10587C20.6075 0.948064 20.5133 0.807823 20.3863 0.701483ZM14.4916 19.6007L10.3212 13.1845L16.7387 6.15555L15.7233 5.22846L9.25554 12.3122L3.01893 9.81752L19.0653 2.28544L14.4916 19.6007Z" fill="#C5C5C5"/>
</svg>
