<svg width="6" height="8" viewBox="0 0 6 8" fill="none" xmlns="http://www.w3.org/2000/svg">
<path d="M5.66666 3C5.80148 3 5.92302 2.92692 5.97462 2.8148C6.02621 2.70272 5.99769 2.57368 5.90236 2.48788L3.2357 0.0878801C3.17321 0.0316 3.08841 2.22298e-07 3.00001 2.1457e-07C2.91161 2.06841e-07 2.82681 0.0316 2.76428 0.0878801L0.0976167 2.48788C0.00228409 2.57368 -0.026205 2.70272 0.0253949 2.8148C0.0769944 2.92692 0.198505 3 0.333349 3L5.66666 3Z" fill="#6B7280"/>
<path d="M0.333341 5C0.198519 5 0.0769775 5.07308 0.0253821 5.1852C-0.0262088 5.29728 0.00230664 5.42632 0.0976397 5.51212L2.7643 7.91212C2.82679 7.9684 2.91159 8 2.99999 8C3.08839 8 3.17319 7.9684 3.23572 7.91212L5.90238 5.51212C5.99772 5.42632 6.0262 5.29728 5.97461 5.1852C5.92301 5.07308 5.80149 5 5.66665 5H0.333341Z" fill="#6B7280"/>
</svg>
