<svg width="34" height="34" viewBox="0 0 34 34" fill="none" xmlns="http://www.w3.org/2000/svg">
<rect x="0.5" y="0.5" width="33" height="33" rx="8.5" stroke="#EBEBEB"/>
<path d="M11 12.1111H23M15.5 15.2222V19.8889M18.5 15.2222V19.8889M11.75 12.1111L12.5 21.4444C12.5 21.857 12.658 22.2527 12.9393 22.5444C13.2206 22.8361 13.6022 23 14 23H20C20.3978 23 20.7794 22.8361 21.0607 22.5444C21.342 22.2527 21.5 21.857 21.5 21.4444L22.25 12.1111M14.75 12.1111V9.77778C14.75 9.5715 14.829 9.37367 14.9697 9.22781C15.1103 9.08194 15.3011 9 15.5 9H18.5C18.6989 9 18.8897 9.08194 19.0303 9.22781C19.171 9.37367 19.25 9.5715 19.25 9.77778V12.1111" stroke="#F00000" stroke-linecap="round" stroke-linejoin="round"/>
</svg>
