<svg width="24" height="24" viewBox="0 0 24 24" fill="none" xmlns="http://www.w3.org/2000/svg">
<path d="M7.5 7.1L7.43286 7.13111C7.30429 7.19113 7.19473 7.29093 7.11778 7.41813C7.04083 7.54534 6.99988 7.69435 7 7.84667V13.1807C6.99992 14.0034 7.1996 14.8116 7.57881 15.5232C7.95801 16.2348 8.50326 16.8247 9.15929 17.2329L12 19L14.8407 17.2321C15.2476 16.9791 15.6137 16.6551 15.9243 16.2731M10.3286 5.78011L12 5L16.5671 7.13111C16.6957 7.19113 16.8053 7.29093 16.8822 7.41813C16.9592 7.54534 17.0001 7.69435 17 7.84667V13.0446" stroke="#D21216" stroke-width="1.5" stroke-linecap="round" stroke-linejoin="round"/>
<path d="M6 6L18 18" stroke="#D21216" stroke-width="1.5" stroke-linecap="round"/>
</svg>
