<svg width="21" height="21" viewBox="0 0 21 21" fill="none" xmlns="http://www.w3.org/2000/svg">
<path d="M15.1873 8.83414C15.1873 8.61313 15.0995 8.40116 14.9432 8.24488C14.7869 8.0886 14.575 8.00081 14.354 8.00081H4.69562L6.61229 6.09247C6.76921 5.93555 6.85737 5.72272 6.85737 5.50081C6.85737 5.27889 6.76921 5.06606 6.61229 4.90914C6.45537 4.75222 6.24254 4.66406 6.02062 4.66406C5.79871 4.66406 5.58588 4.75222 5.42896 4.90914L2.09562 8.24247C1.97999 8.35966 1.90166 8.50847 1.87052 8.67013C1.83937 8.83179 1.85681 8.99905 1.92062 9.15081C1.98314 9.30299 2.08931 9.43326 2.22574 9.5252C2.36217 9.61715 2.52277 9.66665 2.68729 9.66747H14.354C14.575 9.66747 14.7869 9.57967 14.9432 9.42339C15.0995 9.26711 15.1873 9.05515 15.1873 8.83414ZM18.454 11.8508C18.3914 11.6986 18.2853 11.5684 18.1488 11.4764C18.0124 11.3845 17.8518 11.335 17.6873 11.3341H6.02062C5.79961 11.3341 5.58765 11.4219 5.43137 11.5782C5.27509 11.7345 5.18729 11.9465 5.18729 12.1675C5.18729 12.3885 5.27509 12.6004 5.43137 12.7567C5.58765 12.913 5.79961 13.0008 6.02062 13.0008H15.679L13.7623 14.9091C13.6842 14.9866 13.6222 15.0788 13.5799 15.1803C13.5376 15.2819 13.5158 15.3908 13.5158 15.5008C13.5158 15.6108 13.5376 15.7197 13.5799 15.8213C13.6222 15.9228 13.6842 16.015 13.7623 16.0925C13.8398 16.1706 13.9319 16.2326 14.0335 16.2749C14.135 16.3172 14.2439 16.339 14.354 16.339C14.464 16.339 14.5729 16.3172 14.6744 16.2749C14.776 16.2326 14.8682 16.1706 14.9456 16.0925L18.279 12.7591C18.3946 12.642 18.4729 12.4931 18.5041 12.3315C18.5352 12.1698 18.5178 12.0026 18.454 11.8508Z" fill="#CA8A04"/>
</svg>
