<svg width="23" height="23" viewBox="0 0 23 23" fill="none" xmlns="http://www.w3.org/2000/svg">
<path d="M12.6895 6.70703H20.3561" stroke="#1D4ED8" stroke-width="2" stroke-linecap="round"/>
<path d="M3.17188 6.70703H7.00521" stroke="#1D4ED8" stroke-width="2" stroke-linecap="round"/>
<path d="M6.84054 6.70766C6.84054 8.22247 8.06854 9.45047 9.58336 9.45047C11.0982 9.45047 12.3262 8.22247 12.3262 6.70766C12.3262 5.19284 11.0982 3.96484 9.58336 3.96484C8.06854 3.96484 6.84054 5.19284 6.84054 6.70766Z" stroke="#1D4ED8" stroke-width="2" stroke-linecap="round"/>
<path d="M10.8379 15.4336L3.17122 15.4336" stroke="#1D4ED8" stroke-width="2" stroke-linecap="round"/>
<path d="M20.3555 15.4336L16.5221 15.4336" stroke="#1D4ED8" stroke-width="2" stroke-linecap="round"/>
<path d="M16.6868 15.433C16.6868 13.9182 15.4588 12.6902 13.944 12.6902C12.4292 12.6902 11.2012 13.9182 11.2012 15.433C11.2012 16.9478 12.4292 18.1758 13.944 18.1758C15.4588 18.1758 16.6868 16.9478 16.6868 15.433Z" stroke="#1D4ED8" stroke-width="2" stroke-linecap="round"/>
</svg>
