<svg width="15" height="16" viewBox="0 0 15 16" fill="none" xmlns="http://www.w3.org/2000/svg">
<path d="M5.525 8L2.45 11.075L1.5625 10.1875L3.125 8.625H0V7.375H3.125L1.5625 5.8125L2.45 4.925L5.525 8ZM7.5 2.375C5.36875 2.375 3.55 3.04375 2.83125 3.98125L3.125 4.25L3.76875 4.91875C3.75 4.90625 3.75 4.875 3.75 4.875C3.75 4.5625 5.08125 3.625 7.5 3.625C9.91875 3.625 11.25 4.5625 11.25 4.875C11.25 5.1875 9.91875 6.125 7.5 6.125C5.8625 6.125 4.7375 5.69375 4.175 5.325L6.125 7.275C6.5625 7.3375 7.025 7.375 7.5 7.375C8.99375 7.375 10.3313 7.04375 11.25 6.525V8.28125C10.4375 8.875 9.0125 9.25 7.5 9.25C6.9 9.25 6.3125 9.1875 5.775 9.08125L4.74375 10.1062C5.56875 10.3562 6.50625 10.5 7.5 10.5C8.925 10.5 10.2437 10.2188 11.25 9.73125V11.125C11.25 11.4375 9.91875 12.375 7.5 12.375C5.08125 12.375 3.75 11.4375 3.75 11.125V11.1L3.125 11.75L2.8375 12.0188C3.55625 12.9563 5.375 13.625 7.5 13.625C10.2563 13.625 12.5 12.5063 12.5 11.125V4.875C12.5 3.49375 10.2625 2.375 7.5 2.375Z" fill="#6B7280"/>
</svg>
