<svg width="25" height="25" viewBox="0 0 25 25" fill="none" xmlns="http://www.w3.org/2000/svg">
<path d="M16.04 6.04L14.27 7.8L12.5 6.04L10.73 7.8L8.96 6.04L12.5 2.5L16.04 6.04ZM18.96 16.04L17.2 14.27L18.96 12.5L17.2 10.73L18.96 8.96L22.5 12.5L18.96 16.04ZM8.96 18.96L10.73 17.2L12.5 18.96L14.27 17.2L16.04 18.96L12.5 22.5L8.96 18.96ZM6.04 8.96L7.8 10.73L6.04 12.5L7.8 14.27L6.04 16.04L2.5 12.5L6.04 8.96Z" fill="black"/>
<path d="M12.5 15.5C14.1569 15.5 15.5 14.1569 15.5 12.5C15.5 10.8431 14.1569 9.5 12.5 9.5C10.8431 9.5 9.5 10.8431 9.5 12.5C9.5 14.1569 10.8431 15.5 12.5 15.5Z" fill="black"/>
</svg>
