<svg width="24" height="24" viewBox="0 0 24 24" fill="none" xmlns="http://www.w3.org/2000/svg">
<path d="M12.6458 16.75C12.5083 16.7507 12.372 16.7226 12.245 16.6675C12.1179 16.6123 12.0027 16.5312 11.906 16.4289L8.45831 12.8239L5.01057 16.4289C4.81211 16.6223 4.54963 16.7275 4.27842 16.7225C4.0072 16.7175 3.74843 16.6026 3.55663 16.4021C3.36482 16.2015 3.25495 15.9309 3.25016 15.6474C3.24538 15.3638 3.34605 15.0893 3.53097 14.8818L7.71851 10.5033C7.9148 10.2983 8.18088 10.1832 8.45831 10.1832C8.73573 10.1832 9.00181 10.2983 9.19811 10.5033L12.6458 14.1083L17.4894 9.04379C17.6879 8.85043 17.9504 8.74517 18.2216 8.75017C18.4928 8.75517 18.7516 8.87006 18.9434 9.07061C19.1352 9.27117 19.2451 9.54174 19.2498 9.82532C19.2546 10.1089 19.154 10.3834 18.969 10.5909L13.3856 16.4289C13.289 16.5312 13.1738 16.6123 13.0467 16.6675C12.9197 16.7226 12.7834 16.7507 12.6458 16.75Z" fill="black"/>
<path d="M18.2 15.75C17.9226 15.7464 17.6577 15.6366 17.4615 15.444C17.2654 15.2513 17.1536 14.991 17.15 14.7186V10.8129H13.3C13.0215 10.8129 12.7545 10.7042 12.5575 10.5108C12.3606 10.3173 12.25 10.055 12.25 9.78143C12.25 9.50788 12.3606 9.24553 12.5575 9.0521C12.7545 8.85867 13.0215 8.75 13.3 8.75H18.2C18.4773 8.75356 18.7423 8.86337 18.9385 9.05604C19.1346 9.2487 19.2464 9.50899 19.25 9.78143V14.7186C19.2464 14.991 19.1346 15.2513 18.9385 15.444C18.7423 15.6366 18.4773 15.7464 18.2 15.75Z" fill="black"/>
</svg>
