<svg width="24" height="24" viewBox="0 0 24 24" fill="none" xmlns="http://www.w3.org/2000/svg">
<path d="M20.016 2C18.903 2 18 4.686 18 8H20.016C20.988 8 21.473 8 21.774 7.665C22.074 7.329 22.022 6.887 21.918 6.004C21.64 3.67 20.894 2 20.016 2Z" stroke="black" stroke-width="1.5" stroke-linecap="round" stroke-linejoin="round"/>
<path d="M18 8.054V18.646C18 20.157 18 20.913 17.538 21.211C16.783 21.697 15.616 20.677 15.029 20.307C14.544 20.001 14.302 19.849 14.033 19.84C13.742 19.83 13.495 19.977 12.971 20.307L11.06 21.512C10.544 21.837 10.287 22 10 22C9.713 22 9.455 21.837 8.94 21.512L7.03 20.307C6.544 20.001 6.302 19.849 6.033 19.84C5.742 19.83 5.495 19.977 4.971 20.307C4.384 20.677 3.217 21.697 2.461 21.211C2 20.913 2 20.158 2 18.646V8.054C2 5.2 2 3.774 2.879 2.887C3.757 2 5.172 2 8 2H20" stroke="black" stroke-width="1.5" stroke-linecap="round" stroke-linejoin="round"/>
<path d="M10 8C8.895 8 8 8.672 8 9.5C8 10.328 8.895 11 10 11C11.105 11 12 11.672 12 12.5C12 13.328 11.105 14 10 14M10 8C10.87 8 11.612 8.417 11.886 9M10 8V7M10 14C9.13 14 8.388 13.583 8.114 13M10 14V15" stroke="black" stroke-width="1.5" stroke-linecap="round" stroke-linejoin="round"/>
</svg>
