<svg width="15" height="16" viewBox="0 0 15 16" fill="none" xmlns="http://www.w3.org/2000/svg">
<path d="M3.75 14.25C3.40625 14.25 3.11208 14.1277 2.8675 13.8831C2.62292 13.6385 2.50042 13.3442 2.5 13V6.75C2.5 6.40625 2.6225 6.11208 2.8675 5.8675C3.1125 5.62292 3.40667 5.50042 3.75 5.5H4.375V4.25C4.375 3.38542 4.67979 2.64854 5.28938 2.03938C5.89896 1.43021 6.63583 1.12542 7.5 1.125C8.36417 1.12458 9.10125 1.42938 9.71125 2.03938C10.3212 2.64938 10.6258 3.38625 10.625 4.25V5.5H11.25C11.5938 5.5 11.8881 5.6225 12.1331 5.8675C12.3781 6.1125 12.5004 6.40667 12.5 6.75V13C12.5 13.3438 12.3777 13.6381 12.1331 13.8831C11.8885 14.1281 11.5942 14.2504 11.25 14.25H3.75ZM3.75 13H11.25V6.75H3.75V13ZM7.5 11.125C7.84375 11.125 8.13812 11.0027 8.38313 10.7581C8.62813 10.5135 8.75042 10.2192 8.75 9.875C8.74958 9.53083 8.62729 9.23667 8.38313 8.9925C8.13896 8.74833 7.84458 8.62583 7.5 8.625C7.15542 8.62417 6.86125 8.74667 6.6175 8.9925C6.37375 9.23833 6.25125 9.5325 6.25 9.875C6.24875 10.2175 6.37125 10.5119 6.6175 10.7581C6.86375 11.0044 7.15792 11.1267 7.5 11.125ZM5.625 5.5H9.375V4.25C9.375 3.72917 9.19271 3.28646 8.82812 2.92188C8.46354 2.55729 8.02083 2.375 7.5 2.375C6.97917 2.375 6.53646 2.55729 6.17188 2.92188C5.80729 3.28646 5.625 3.72917 5.625 4.25V5.5Z" fill="#6B7280"/>
</svg>
