<svg width="24" height="24" viewBox="0 0 24 24" fill="none" xmlns="http://www.w3.org/2000/svg">
<path d="M7.04943 7.05138C7.23696 6.86391 7.49126 6.7586 7.75643 6.7586C8.02159 6.7586 8.2759 6.86391 8.46343 7.05138L11.9994 10.5874L15.5354 7.05138C15.6277 6.95587 15.738 6.87969 15.86 6.82728C15.982 6.77487 16.1132 6.74729 16.246 6.74613C16.3788 6.74498 16.5105 6.77028 16.6334 6.82056C16.7563 6.87084 16.8679 6.94509 16.9618 7.03899C17.0557 7.13288 17.13 7.24453 17.1803 7.36743C17.2305 7.49032 17.2558 7.622 17.2547 7.75478C17.2535 7.88756 17.2259 8.01878 17.1735 8.14079C17.1211 8.26279 17.0449 8.37313 16.9494 8.46538L13.4134 12.0014L16.9494 15.5374C17.0449 15.6296 17.1211 15.74 17.1735 15.862C17.2259 15.984 17.2535 16.1152 17.2547 16.248C17.2558 16.3808 17.2305 16.5124 17.1803 16.6353C17.13 16.7582 17.0557 16.8699 16.9618 16.9638C16.8679 17.0577 16.7563 17.1319 16.6334 17.1822C16.5105 17.2325 16.3788 17.2578 16.246 17.2566C16.1132 17.2555 15.982 17.2279 15.86 17.1755C15.738 17.1231 15.6277 17.0469 15.5354 16.9514L11.9994 13.4154L8.46343 16.9514C8.37118 17.0469 8.26084 17.1231 8.13883 17.1755C8.01683 17.2279 7.88561 17.2555 7.75283 17.2566C7.62005 17.2578 7.48837 17.2325 7.36547 17.1822C7.24258 17.1319 7.13093 17.0577 7.03703 16.9638C6.94314 16.8699 6.86889 16.7582 6.81861 16.6353C6.76833 16.5124 6.74302 16.3808 6.74418 16.248C6.74533 16.1152 6.77292 15.984 6.82533 15.862C6.87774 15.74 6.95392 15.6296 7.04943 15.5374L10.5854 12.0014L7.04943 8.46538C6.86196 8.27785 6.75664 8.02355 6.75664 7.75838C6.75664 7.49322 6.86196 7.23891 7.04943 7.05138Z" fill="black"/>
</svg>
