<svg width="25" height="25" viewBox="0 0 25 25" fill="none" xmlns="http://www.w3.org/2000/svg">
<path d="M12.5 22.5C10.1833 21.9167 8.27067 20.5873 6.762 18.512C5.25333 16.4367 4.49933 14.1327 4.5 11.6V5.5L12.5 2.5L20.5 5.5V11.6C20.5 14.1333 19.746 16.4377 18.238 18.513C16.73 20.5883 14.8173 21.9173 12.5 22.5ZM12.5 20.4C14.2333 19.85 15.6667 18.75 16.8 17.1C17.9333 15.45 18.5 13.6167 18.5 11.6V6.875L12.5 4.625L6.5 6.875V11.6C6.5 13.6167 7.06667 15.45 8.2 17.1C9.33333 18.75 10.7667 19.85 12.5 20.4Z" fill="black"/>
</svg>
