<svg width="1081" height="918" viewBox="0 0 1081 918" fill="none" xmlns="http://www.w3.org/2000/svg">
<g clip-path="url(#clip0_36361_11068)">
<rect width="1081" height="918" rx="10" fill="white"/>
<g opacity="0.44">
<path d="M-711.442 1247.33C-711.442 1247.33 -375.842 913.905 -119.934 1001.39C135.976 1088.87 153.105 1179.32 260.609 1072.03C368.114 964.737 346.04 801.715 534.439 859.256C722.838 916.797 1300.87 1112.11 1307.65 369.05" stroke="url(#paint0_linear_36361_11068)" stroke-width="0.6" stroke-miterlimit="10"/>
<path d="M-710.995 1241.28C-710.995 1241.28 -373.995 914.757 -117.21 1006.37C139.576 1097.99 154.119 1169.74 263.4 1062.77C372.682 955.812 358.039 812.79 549.597 865.336C741.152 917.888 1304.83 1093.61 1311.39 374.52" stroke="url(#paint1_linear_36361_11068)" stroke-width="0.6" stroke-miterlimit="10"/>
<path d="M-710.552 1235.24C-710.552 1235.24 -372.144 915.609 -114.483 1011.36C143.177 1107.11 155.137 1160.15 266.196 1053.53C377.258 946.907 370.047 823.879 564.756 871.433C759.466 918.987 1308.79 1075.13 1315.13 380.006" stroke="url(#paint2_linear_36361_11068)" stroke-width="0.6" stroke-miterlimit="10"/>
<path d="M-710.11 1229.19C-710.11 1229.19 -370.297 916.466 -111.759 1016.35C146.774 1116.23 156.151 1150.56 268.987 1044.28C381.824 937.992 382.046 834.958 579.911 877.523C777.777 920.087 1312.74 1056.64 1318.86 385.49" stroke="url(#paint3_linear_36361_11068)" stroke-width="0.6" stroke-miterlimit="10"/>
<path d="M-709.667 1223.15C-709.667 1223.15 -368.446 917.319 -109.038 1021.34C150.37 1125.36 157.156 1140.98 271.772 1035.03C386.389 929.083 394.039 846.041 595.063 883.61C796.082 921.178 1316.69 1038.15 1322.59 390.968" stroke="url(#paint4_linear_36361_11068)" stroke-width="0.6" stroke-miterlimit="10"/>
<path d="M-709.227 1217.1C-709.227 1217.1 -366.6 918.171 -106.315 1026.32C153.971 1134.47 158.17 1131.38 274.559 1025.78C390.951 920.168 406.036 857.128 610.214 889.701C814.391 922.273 1320.64 1019.66 1326.32 396.448" stroke="url(#paint5_linear_36361_11068)" stroke-width="0.6" stroke-miterlimit="10"/>
<path d="M-708.785 1211.06C-708.785 1211.06 -364.75 919.024 -103.594 1031.31C157.567 1143.6 159.181 1121.8 277.352 1016.53C395.523 911.256 418.036 868.208 625.37 895.791C832.699 923.371 1324.59 1001.17 1330.06 401.93" stroke="url(#paint6_linear_36361_11068)" stroke-width="0.6" stroke-miterlimit="10"/>
<path d="M-708.344 1205.01C-708.344 1205.01 -362.903 919.876 -100.87 1036.29C161.161 1152.71 160.194 1112.21 280.14 1007.28C400.087 902.341 430.036 879.29 640.524 901.875C851.012 924.461 1328.55 982.673 1333.8 407.404" stroke="url(#paint7_linear_36361_11068)" stroke-width="0.6" stroke-miterlimit="10"/>
<path d="M-707.9 1198.97C-707.9 1198.97 -361.056 920.729 -98.1482 1041.28C164.76 1161.83 161.205 1102.63 282.929 998.025C404.655 893.43 442.032 890.37 655.672 907.964C869.311 925.557 1332.49 964.183 1337.52 412.887" stroke="url(#paint8_linear_36361_11068)" stroke-width="0.6" stroke-miterlimit="10"/>
<path d="M-707.46 1192.92C-707.46 1192.92 -359.209 921.574 -95.4256 1046.26C168.358 1170.95 162.214 1093.03 285.72 988.775C409.222 884.516 454.029 901.456 670.827 914.055C887.625 926.654 1336.45 945.698 1341.26 418.368" stroke="url(#paint9_linear_36361_11068)" stroke-width="0.6" stroke-miterlimit="10"/>
<path d="M-707.019 1186.88C-707.019 1186.88 -357.362 922.433 -92.7036 1051.26C171.955 1180.09 163.225 1083.45 288.506 979.535C413.788 875.615 466.028 912.549 685.98 920.151C905.931 927.753 1340.4 927.216 1344.99 423.854" stroke="url(#paint10_linear_36361_11068)" stroke-width="0.6" stroke-miterlimit="10"/>
<path d="M-706.578 1180.83C-706.578 1180.83 -355.513 923.282 -89.9845 1056.24C175.546 1189.2 164.233 1073.87 291.292 970.278C418.351 866.69 478.021 923.623 701.129 926.235C924.237 928.847 1344.35 908.717 1348.72 429.327" stroke="url(#paint11_linear_36361_11068)" stroke-width="0.6" stroke-miterlimit="10"/>
<path d="M-706.135 1174.79C-706.135 1174.79 -353.664 924.143 -87.2586 1061.24C179.147 1198.33 165.251 1064.28 294.087 961.038C422.926 857.789 490.028 934.717 716.29 932.332C942.552 929.946 1348.31 890.236 1352.46 434.814" stroke="url(#paint12_linear_36361_11068)" stroke-width="0.6" stroke-miterlimit="10"/>
<path d="M-705.693 1168.74C-705.693 1168.74 -351.815 924.987 -84.539 1066.21C182.742 1207.44 166.26 1054.69 296.873 951.776C427.487 848.864 502.02 945.79 731.44 938.411C960.858 931.036 1352.25 871.737 1356.19 440.287" stroke="url(#paint13_linear_36361_11068)" stroke-width="0.6" stroke-miterlimit="10"/>
<path d="M-705.25 1162.7C-705.25 1162.7 -349.971 925.847 -81.8124 1071.21C186.346 1216.57 167.271 1045.11 299.664 942.535C432.058 839.962 514.023 956.883 746.595 944.511C979.166 932.139 1356.21 853.259 1359.92 445.777" stroke="url(#paint14_linear_36361_11068)" stroke-width="0.6" stroke-miterlimit="10"/>
<path d="M-704.811 1156.65C-704.811 1156.65 -348.124 926.694 -79.0905 1076.19C189.938 1225.69 168.284 1035.52 302.45 933.283C436.619 831.047 526.016 967.962 761.747 950.595C997.477 933.228 1360.16 834.765 1363.66 451.254" stroke="url(#paint15_linear_36361_11068)" stroke-width="0.6" stroke-miterlimit="10"/>
<path d="M-704.364 1150.6C-704.364 1150.6 -346.271 927.548 -76.3655 1081.17C193.54 1234.8 169.298 1025.93 305.247 924.028C441.195 822.131 538.02 979.038 776.907 956.681C1015.79 934.323 1364.12 816.271 1367.4 456.73" stroke="url(#paint16_linear_36361_11068)" stroke-width="0.6" stroke-miterlimit="10"/>
<path d="M-703.926 1144.56C-703.926 1144.56 -344.426 928.398 -73.645 1086.16C197.136 1243.92 170.308 1016.34 308.031 914.78C445.755 813.219 550.018 990.122 792.056 962.774C1034.1 935.42 1368.07 797.785 1371.13 462.212" stroke="url(#paint17_linear_36361_11068)" stroke-width="0.6" stroke-miterlimit="10"/>
<path d="M-703.483 1138.51C-703.483 1138.51 -342.577 929.253 -70.924 1091.15C200.727 1253.04 171.318 1006.75 310.819 905.524C450.323 804.303 562.01 1001.2 807.21 968.855C1052.4 936.509 1372.02 779.289 1374.86 467.687" stroke="url(#paint18_linear_36361_11068)" stroke-width="0.6" stroke-miterlimit="10"/>
<path d="M-703.038 1132.47C-703.038 1132.47 -340.724 930.108 -68.1953 1096.14C204.333 1262.17 172.334 997.166 313.617 896.284C454.895 795.398 574.02 1012.3 822.366 974.953C1070.72 937.612 1375.97 760.809 1378.59 473.175" stroke="url(#paint19_linear_36361_11068)" stroke-width="0.6" stroke-miterlimit="10"/>
<path d="M-702.596 1126.43C-702.596 1126.43 -338.874 930.956 -65.4708 1101.12C207.932 1271.29 173.347 987.579 316.406 887.033C459.464 786.487 586.016 1023.38 837.518 981.043C1089.02 938.706 1379.92 742.321 1382.33 478.655" stroke="url(#paint20_linear_36361_11068)" stroke-width="0.6" stroke-miterlimit="10"/>
<path d="M-702.155 1120.38C-702.155 1120.38 -337.033 931.813 -62.7545 1106.12C211.524 1280.42 174.353 978.001 319.189 877.787C464.025 777.572 598.007 1034.46 852.667 987.133C1107.33 939.806 1383.87 723.828 1386.06 484.134" stroke="url(#paint21_linear_36361_11068)" stroke-width="0.6" stroke-miterlimit="10"/>
<path d="M-701.716 1114.34C-701.716 1114.34 -335.185 932.661 -60.0319 1111.1C215.119 1289.53 175.367 968.409 321.975 868.536C468.591 768.66 610.003 1045.55 867.817 993.223C1125.63 940.899 1387.82 705.34 1389.79 489.614" stroke="url(#paint22_linear_36361_11068)" stroke-width="0.6" stroke-miterlimit="10"/>
<path d="M-701.272 1108.3C-701.272 1108.3 -333.336 933.522 -57.3103 1116.09C218.715 1298.66 176.378 958.827 324.768 859.288C473.159 759.749 622.004 1056.63 882.974 999.316C1143.94 942.002 1391.77 686.856 1393.52 495.105" stroke="url(#paint23_linear_36361_11068)" stroke-width="0.6" stroke-miterlimit="10"/>
<path d="M-700.831 1102.25C-700.831 1102.25 -331.487 934.366 -54.5865 1121.07C222.314 1307.78 177.386 949.234 327.556 850.035C477.727 750.835 634.004 1067.71 898.128 1005.4C1162.25 943.088 1395.73 668.363 1397.26 500.577" stroke="url(#paint24_linear_36361_11068)" stroke-width="0.6" stroke-miterlimit="10"/>
<path d="M-700.388 1096.21C-700.388 1096.21 -329.638 935.229 -51.865 1126.06C225.913 1316.9 178.399 939.649 330.342 840.791C482.288 741.928 645.997 1078.8 913.277 1011.5C1180.56 944.19 1399.68 649.878 1400.99 506.064" stroke="url(#paint25_linear_36361_11068)" stroke-width="0.6" stroke-miterlimit="10"/>
<path d="M-699.947 1090.16C-699.947 1090.16 -327.79 936.073 -49.1416 1131.04C229.507 1326.01 179.412 930.058 333.137 831.534C486.863 733.01 658.002 1089.88 928.438 1017.57C1198.87 945.277 1403.64 631.379 1404.73 511.533" stroke="url(#paint26_linear_36361_11068)" stroke-width="0.6" stroke-miterlimit="10"/>
<path d="M-699.504 1084.12C-699.504 1084.12 -325.941 936.933 -46.4152 1136.04C233.108 1335.14 180.427 920.479 335.928 822.291C491.428 724.104 670 1100.97 943.592 1023.67C1217.19 946.381 1407.59 612.899 1408.46 517.02" stroke="url(#paint27_linear_36361_11068)" stroke-width="0.6" stroke-miterlimit="10"/>
<path d="M-699.065 1078.07C-699.065 1078.07 -324.098 937.778 -43.6976 1141.02C236.703 1344.26 181.434 910.889 338.712 813.033C495.992 715.185 681.992 1112.04 958.741 1029.76C1235.48 947.472 1411.53 594.405 1412.19 522.498" stroke="url(#paint28_linear_36361_11068)" stroke-width="0.6" stroke-miterlimit="10"/>
<path d="M-698.624 1072.02C-698.624 1072.02 -322.252 938.636 -40.9738 1146.01C240.302 1353.38 182.445 901.299 341.505 803.79C500.56 706.278 693.997 1123.13 973.899 1035.85C1253.8 948.57 1415.49 575.919 1415.93 527.98" stroke="url(#paint29_linear_36361_11068)" stroke-width="0.6" stroke-miterlimit="10"/>
<path d="M-698.18 1065.98C-698.18 1065.98 -320.4 939.485 -38.2522 1150.99C243.896 1362.49 183.455 891.711 344.291 794.538C505.126 697.366 705.987 1134.21 989.048 1041.94C1272.1 949.662 1419.44 557.427 1419.66 533.459" stroke="url(#paint30_linear_36361_11068)" stroke-width="0.6" stroke-miterlimit="10"/>
<path d="M-697.738 1059.93C-697.738 1059.93 -318.551 940.337 -35.5302 1155.98C247.493 1371.62 184.467 882.133 347.079 785.292C509.692 688.451 717.988 1145.3 1004.2 1048.03C1290.41 950.764 1423.39 538.943 1423.39 538.943" stroke="url(#paint31_linear_36361_11068)" stroke-width="0.6" stroke-miterlimit="10"/>
<path d="M-686.648 1061.58C-686.648 1061.58 -311.951 948.429 -30.7559 1156.66C234.006 1352.72 195.423 935.009 329.121 807.916C336.19 801.203 343.759 795.346 351.863 790.43C514.749 691.695 721.37 1132.64 1002.88 1039.61C1285.85 946.93 1419.26 553.163 1421.17 555.095" stroke="url(#paint32_linear_36361_11068)" stroke-width="0.65" stroke-miterlimit="10"/>
<path d="M-675.562 1063.24C-675.562 1063.24 -305.417 956.513 -25.9902 1157.34C234.789 1344.76 200.872 940.137 334.184 812.958C341.174 806.303 348.656 800.494 356.639 795.572C519.798 694.917 724.506 1119.26 1001.55 1031.2C1281.03 942.359 1415.12 567.387 1418.94 571.241" stroke="url(#paint33_linear_36361_11068)" stroke-width="0.71" stroke-miterlimit="10"/>
<path d="M-664.476 1064.89C-664.476 1064.89 -298.948 964.589 -21.2225 1158.02C235.505 1336.83 206.325 945.267 339.255 818.009C346.165 811.413 353.557 805.657 361.417 800.722C524.846 698.127 727.786 1106.27 1000.22 1022.79C1276.36 938.176 1410.98 581.615 1416.72 587.401" stroke="url(#paint34_linear_36361_11068)" stroke-width="0.77" stroke-miterlimit="10"/>
<path d="M-653.385 1066.54C-653.385 1066.54 -292.535 972.656 -16.4519 1158.7C236.153 1328.92 211.781 950.382 344.326 823.038C351.156 816.5 358.461 810.793 366.197 805.855C529.888 701.304 731.075 1093.28 998.901 1014.37C1271.71 933.99 1406.84 595.829 1414.5 603.545" stroke="url(#paint35_linear_36361_11068)" stroke-width="0.83" stroke-miterlimit="10"/>
<path d="M-642.297 1068.19C-642.297 1068.19 -286.2 980.732 -11.682 1159.38C236.734 1321.05 217.234 955.519 349.399 828.091C356.149 821.612 363.367 815.953 370.976 811.007C534.926 704.478 734.374 1080.31 997.574 1005.96C1267.06 929.834 1402.7 610.064 1412.28 619.702" stroke="url(#paint36_linear_36361_11068)" stroke-width="0.89" stroke-miterlimit="10"/>
<path d="M-631.211 1069.84C-631.211 1069.84 -279.941 988.802 -6.91211 1160.06C237.24 1313.21 222.69 960.641 354.472 833.134C361.142 826.713 368.27 821.095 375.756 816.147C539.953 707.617 737.689 1067.36 996.249 997.545C1262.43 925.675 1398.56 624.282 1410.05 635.853" stroke="url(#paint37_linear_36361_11068)" stroke-width="0.94" stroke-miterlimit="10"/>
<path d="M-620.124 1071.49C-620.124 1071.49 -273.76 996.878 -2.14835 1160.74C237.665 1305.42 228.137 965.768 359.537 838.169C366.127 831.807 373.163 826.235 380.532 821.283C544.967 710.734 741.012 1054.42 994.919 989.123C1257.8 921.523 1394.43 638.499 1407.82 651.994" stroke="url(#paint38_linear_36361_11068)" stroke-miterlimit="10"/>
<path d="M-609.038 1073.14C-609.038 1073.14 -267.659 1004.97 2.62263 1161.42C238.017 1297.68 233.593 970.89 364.61 843.212C371.118 836.913 378.067 831.377 385.313 826.424C549.98 713.829 744.355 1041.5 993.599 980.709C1253.2 917.392 1390.29 652.725 1405.61 668.15" stroke="url(#paint39_linear_36361_11068)" stroke-width="1.06" stroke-miterlimit="10"/>
<path d="M-597.951 1074.8C-597.951 1074.8 -261.65 1013.08 7.38555 1162.1C238.279 1290 239.042 976.017 369.671 848.258C376.099 842.018 382.956 836.527 390.078 831.573C554.968 716.914 747.691 1028.6 992.259 972.3C1248.59 913.285 1386.14 666.952 1403.37 684.304" stroke="url(#paint40_linear_36361_11068)" stroke-width="1.12" stroke-miterlimit="10"/>
<path d="M-586.862 1076.44C-586.862 1076.44 -255.722 1021.21 12.1595 1162.78C238.468 1282.37 244.494 981.139 374.748 853.299C381.096 847.117 387.863 841.667 394.867 836.713C559.965 719.971 751.066 1015.72 990.942 963.883C1244.02 909.191 1382.01 681.171 1401.15 700.455" stroke="url(#paint41_linear_36361_11068)" stroke-width="1.17" stroke-miterlimit="10"/>
<path d="M-575.771 1078.09C-575.771 1078.09 -249.892 1029.39 16.9316 1163.46C238.564 1274.83 249.695 986.002 379.826 858.341C386.082 852.205 392.767 846.806 399.651 841.853C564.949 722.997 754.448 1002.86 989.625 955.468C1239.45 905.117 1377.88 695.391 1398.94 716.603" stroke="url(#paint42_linear_36361_11068)" stroke-width="1.23" stroke-miterlimit="10"/>
<path d="M-564.687 1079.75C-564.687 1079.75 -244.159 1037.61 21.6951 1164.14C238.564 1267.35 255.129 991.118 384.887 863.383C391.063 857.305 397.654 851.945 404.42 846.993C569.901 726.004 757.827 990.03 988.288 947.051C1234.89 901.059 1373.73 709.614 1396.71 732.755" stroke="url(#paint43_linear_36361_11068)" stroke-width="1.29" stroke-miterlimit="10"/>
<path d="M-553.595 1081.4C-553.595 1081.4 -238.52 1045.89 26.4689 1164.82C238.489 1259.97 260.582 996.232 389.964 868.429C396.06 862.409 402.559 857.082 409.206 852.144C574.852 728.999 761.235 977.232 986.969 938.644C1230.35 897.04 1369.6 723.843 1394.49 748.911" stroke="url(#paint44_linear_36361_11068)" stroke-width="1.35" stroke-miterlimit="10"/>
<path d="M-542.508 1083.05C-542.508 1083.05 -232.985 1054.25 31.2405 1165.5C238.317 1252.7 266.029 1001.35 395.041 873.471C401.058 867.51 407.461 862.222 413.99 857.285C579.788 731.958 764.658 964.452 985.646 930.227C1225.83 893.033 1365.47 738.064 1392.27 765.062" stroke="url(#paint45_linear_36361_11068)" stroke-width="1.41" stroke-miterlimit="10"/>
<path d="M-531.421 1084.7C-531.421 1084.7 -227.551 1062.69 36.0041 1166.19C238.052 1245.53 271.468 1006.47 400.103 878.516C406.039 872.613 412.344 867.361 418.763 862.429C584.697 734.895 768.073 951.708 984.319 921.817C1221.3 889.063 1361.33 752.295 1390.04 781.217" stroke="url(#paint46_linear_36361_11068)" stroke-width="1.46" stroke-miterlimit="10"/>
<path d="M-520.333 1086.35C-520.333 1086.35 -222.216 1071.24 40.7767 1166.86C237.71 1238.47 276.922 1011.59 405.178 883.556C411.032 877.717 417.242 872.491 423.545 867.568C589.596 737.802 771.508 938.983 982.996 913.398C1216.8 885.116 1357.19 766.511 1387.82 797.365" stroke="url(#paint47_linear_36361_11068)" stroke-width="1.52" stroke-miterlimit="10"/>
<path d="M-509.245 1088.01C-509.245 1088.01 -216.985 1079.92 45.5411 1167.54C237.281 1231.54 282.369 1016.72 410.243 888.596C416.017 882.815 422.135 877.623 428.314 872.711C594.464 740.687 774.943 926.299 981.659 904.984C1212.29 881.203 1353.05 780.732 1385.59 813.513" stroke="url(#paint48_linear_36361_11068)" stroke-width="1.58" stroke-miterlimit="10"/>
<path d="M-498.157 1089.66C-498.157 1089.66 -211.844 1088.75 50.3137 1168.22C236.782 1224.75 287.827 1021.84 415.319 893.639C421.013 887.916 427.027 882.757 433.102 877.853C599.324 743.551 778.402 913.65 980.339 896.574C1207.8 877.338 1348.91 794.962 1383.37 829.666" stroke="url(#paint49_linear_36361_11068)" stroke-width="1.64" stroke-miterlimit="10"/>
<path d="M-487.069 1091.31C-487.069 1091.31 -206.796 1097.76 55.0838 1168.91C236.218 1218.11 293.285 1026.98 420.392 898.688C426.006 893.024 431.923 887.896 437.882 883.001C604.161 746.388 781.859 901.046 979.018 888.167C1203.32 873.514 1344.78 809.19 1381.15 845.829" stroke="url(#paint50_linear_36361_11068)" stroke-width="1.69" stroke-miterlimit="10"/>
<path d="M-475.979 1092.96C-475.979 1092.96 -201.816 1106.98 59.8531 1169.58C235.591 1211.62 298.748 1032.11 425.462 903.724C430.996 898.118 436.816 893.021 442.658 888.134C608.963 749.188 785.316 888.467 977.689 879.743C1198.84 869.713 1340.64 823.402 1378.92 861.967" stroke="url(#paint51_linear_36361_11068)" stroke-width="1.75" stroke-miterlimit="10"/>
<path d="M-464.894 1094.62C-464.894 1094.62 -196.914 1116.44 64.6198 1170.27C234.917 1205.32 304.207 1037.25 430.532 908.776C435.986 903.228 441.704 898.159 447.437 893.291C613.751 751.984 788.781 875.952 976.362 871.343C1194.36 865.989 1336.5 837.644 1376.7 878.134" stroke="url(#paint52_linear_36361_11068)" stroke-width="1.81" stroke-miterlimit="10"/>
<path d="M-453.805 1096.26C-453.805 1096.26 -192.052 1126.18 69.3882 1170.94C234.218 1199.16 309.671 1042.38 435.598 913.809C440.972 908.32 446.589 903.279 452.211 898.422C618.499 754.724 792.237 863.452 975.035 862.919C1189.88 862.29 1332.36 851.856 1374.47 894.273" stroke="url(#paint53_linear_36361_11068)" stroke-width="1.87" stroke-miterlimit="10"/>
<path d="M-442.713 1097.92C-442.713 1097.92 -187.212 1136.23 74.1614 1171.63C233.512 1193.21 315.399 1047.78 440.674 918.86C445.981 913.442 451.483 908.417 456.993 903.571C623.232 757.457 795.697 851.018 973.712 854.511C1185.4 858.663 1328.23 866.082 1372.25 910.434" stroke="url(#paint54_linear_36361_11068)" stroke-width="1.93" stroke-miterlimit="10"/>
<path d="M-431.635 1099.56C-431.635 1099.56 -182.375 1146.63 78.9244 1172.3C232.803 1187.42 320.847 1052.9 445.743 923.897C450.967 918.542 456.37 913.542 461.774 908.709C627.928 760.149 799.149 838.619 972.387 846.092C1180.91 855.087 1324.09 880.298 1370.03 926.577" stroke="url(#paint55_linear_36361_11068)" stroke-width="1.98" stroke-miterlimit="10"/>
<path d="M-420.542 1101.21C-420.542 1101.21 -177.482 1157.43 83.6944 1172.98C232.141 1181.83 326.3 1058.03 450.811 928.937C455.955 923.641 461.251 918.665 466.546 913.851C632.589 762.813 802.58 826.274 971.053 837.677C1176.4 851.575 1319.94 894.523 1367.8 942.729" stroke="url(#paint56_linear_36361_11068)" stroke-width="2.04" stroke-miterlimit="10"/>
<path d="M-409.457 1102.87C-409.457 1102.87 -172.508 1168.65 88.4635 1173.66C231.546 1176.42 331.755 1063.15 455.883 933.984C460.947 928.746 466.142 923.8 471.33 918.999C637.225 765.456 806.009 813.984 969.737 829.27C1171.89 848.142 1315.81 908.751 1365.58 958.884" stroke="url(#paint57_linear_36361_11068)" stroke-width="2.1" stroke-miterlimit="10"/>
<path d="M-398.37 1104.52C-398.37 1104.52 -167.389 1180.34 93.2329 1174.35C231.045 1171.18 337.208 1068.28 460.953 939.026C465.937 933.847 471.028 928.921 476.106 924.139C641.82 768.062 809.406 801.736 968.408 820.853C1167.33 844.773 1311.67 922.969 1363.36 975.036" stroke="url(#paint58_linear_36361_11068)" stroke-width="2.16" stroke-miterlimit="10"/>
<path d="M-387.279 1106.17C-387.279 1106.17 -162.066 1192.52 98.0036 1175.02C230.67 1166.1 342.664 1073.4 466.026 944.066C470.931 938.945 475.915 934.045 480.887 929.276C646.379 770.633 812.782 789.533 967.083 812.433C1162.75 841.473 1307.54 937.192 1361.13 991.179" stroke="url(#paint59_linear_36361_11068)" stroke-width="2.21" stroke-miterlimit="10"/>
<path d="M-376.193 1107.82C-376.193 1107.82 -156.474 1205.21 102.771 1175.71C230.465 1161.17 348.118 1078.53 471.097 949.113C475.922 944.05 480.799 939.177 485.667 934.429C650.902 773.194 816.125 777.398 965.758 804.029C1158.13 838.269 1303.4 951.422 1358.91 1007.34" stroke="url(#paint60_linear_36361_11068)" stroke-width="2.27" stroke-miterlimit="10"/>
<path d="M-365.102 1109.47C-365.102 1109.47 -150.534 1218.4 107.542 1176.38C230.465 1156.37 353.571 1083.66 476.169 954.147C480.914 949.143 485.679 944.293 490.445 939.561C655.378 775.699 819.427 765.292 964.435 795.606C1153.46 835.126 1299.27 965.634 1356.69 1023.48" stroke="url(#paint61_linear_36361_11068)" stroke-width="2.33" stroke-miterlimit="10"/>
<path d="M-354.012 1111.12C-354.012 1111.12 94.2472 1369.52 481.244 959.193C868.243 548.859 1248.97 933.357 1354.47 1039.64" stroke="url(#paint62_linear_36361_11068)" stroke-width="2.39" stroke-miterlimit="10"/>
</g>
</g>
<defs>
<linearGradient id="paint0_linear_36361_11068" x1="1349.1" y1="665.872" x2="-750.656" y2="950.357" gradientUnits="userSpaceOnUse">
<stop offset="0.02" stop-color="#EA5F33"/>
<stop offset="0.32" stop-color="#3F6AB3"/>
<stop offset="0.59" stop-color="#0D84AE"/>
<stop offset="0.83" stop-color="#9B2E21" stop-opacity="0"/>
<stop offset="0.99" stop-color="#E77D32" stop-opacity="0"/>
</linearGradient>
<linearGradient id="paint1_linear_36361_11068" x1="1352.04" y1="665.476" x2="-749.414" y2="950.189" gradientUnits="userSpaceOnUse">
<stop offset="0.02" stop-color="#EA5F33"/>
<stop offset="0.32" stop-color="#3F6AB3"/>
<stop offset="0.59" stop-color="#0D84AE"/>
<stop offset="0.83" stop-color="#9B2E21" stop-opacity="0"/>
<stop offset="0.99" stop-color="#E77D32" stop-opacity="0"/>
</linearGradient>
<linearGradient id="paint2_linear_36361_11068" x1="1354.98" y1="665.075" x2="-748.172" y2="950.019" gradientUnits="userSpaceOnUse">
<stop offset="0.02" stop-color="#EA5F33"/>
<stop offset="0.32" stop-color="#3F6AB3"/>
<stop offset="0.59" stop-color="#0D84AE"/>
<stop offset="0.83" stop-color="#9B2E21" stop-opacity="0"/>
<stop offset="0.99" stop-color="#E77D32" stop-opacity="0"/>
</linearGradient>
<linearGradient id="paint3_linear_36361_11068" x1="1357.92" y1="664.682" x2="-746.929" y2="949.856" gradientUnits="userSpaceOnUse">
<stop offset="0.02" stop-color="#EA5F33"/>
<stop offset="0.32" stop-color="#3F6AB3"/>
<stop offset="0.59" stop-color="#0D84AE"/>
<stop offset="0.83" stop-color="#9B2E21" stop-opacity="0"/>
<stop offset="0.99" stop-color="#E77D32" stop-opacity="0"/>
</linearGradient>
<linearGradient id="paint4_linear_36361_11068" x1="1360.91" y1="664.683" x2="-745.634" y2="950.087" gradientUnits="userSpaceOnUse">
<stop offset="0.02" stop-color="#EA5F33"/>
<stop offset="0.32" stop-color="#3F6AB3"/>
<stop offset="0.59" stop-color="#0D84AE"/>
<stop offset="0.83" stop-color="#9B2E21" stop-opacity="0"/>
<stop offset="0.99" stop-color="#E77D32" stop-opacity="0"/>
</linearGradient>
<linearGradient id="paint5_linear_36361_11068" x1="1364.1" y1="666.152" x2="-744.14" y2="951.786" gradientUnits="userSpaceOnUse">
<stop offset="0.02" stop-color="#EA5F33"/>
<stop offset="0.32" stop-color="#3F6AB3"/>
<stop offset="0.59" stop-color="#0D84AE"/>
<stop offset="0.83" stop-color="#9B2E21" stop-opacity="0"/>
<stop offset="0.99" stop-color="#E77D32" stop-opacity="0"/>
</linearGradient>
<linearGradient id="paint6_linear_36361_11068" x1="1367.35" y1="668.082" x2="-742.583" y2="953.945" gradientUnits="userSpaceOnUse">
<stop offset="0.02" stop-color="#EA5F33"/>
<stop offset="0.32" stop-color="#3F6AB3"/>
<stop offset="0.59" stop-color="#0D84AE"/>
<stop offset="0.83" stop-color="#9B2E21" stop-opacity="0"/>
<stop offset="0.99" stop-color="#E77D32" stop-opacity="0"/>
</linearGradient>
<linearGradient id="paint7_linear_36361_11068" x1="1370.67" y1="670.463" x2="-740.965" y2="956.556" gradientUnits="userSpaceOnUse">
<stop offset="0.02" stop-color="#EA5F33"/>
<stop offset="0.32" stop-color="#3F6AB3"/>
<stop offset="0.59" stop-color="#0D84AE"/>
<stop offset="0.83" stop-color="#9B2E21" stop-opacity="0"/>
<stop offset="0.99" stop-color="#E77D32" stop-opacity="0"/>
</linearGradient>
<linearGradient id="paint8_linear_36361_11068" x1="1374.03" y1="673.236" x2="-739.294" y2="959.558" gradientUnits="userSpaceOnUse">
<stop offset="0.02" stop-color="#EA5F33"/>
<stop offset="0.32" stop-color="#3F6AB3"/>
<stop offset="0.59" stop-color="#0D84AE"/>
<stop offset="0.83" stop-color="#9B2E21" stop-opacity="0"/>
<stop offset="0.99" stop-color="#E77D32" stop-opacity="0"/>
</linearGradient>
<linearGradient id="paint9_linear_36361_11068" x1="1377.45" y1="676.375" x2="-737.574" y2="962.928" gradientUnits="userSpaceOnUse">
<stop offset="0.02" stop-color="#EA5F33"/>
<stop offset="0.32" stop-color="#3F6AB3"/>
<stop offset="0.59" stop-color="#0D84AE"/>
<stop offset="0.83" stop-color="#9B2E21" stop-opacity="0"/>
<stop offset="0.99" stop-color="#E77D32" stop-opacity="0"/>
</linearGradient>
<linearGradient id="paint10_linear_36361_11068" x1="1380.9" y1="679.823" x2="-735.813" y2="966.605" gradientUnits="userSpaceOnUse">
<stop offset="0.02" stop-color="#EA5F33"/>
<stop offset="0.32" stop-color="#3F6AB3"/>
<stop offset="0.59" stop-color="#0D84AE"/>
<stop offset="0.83" stop-color="#9B2E21" stop-opacity="0"/>
<stop offset="0.99" stop-color="#E77D32" stop-opacity="0"/>
</linearGradient>
<linearGradient id="paint11_linear_36361_11068" x1="1384.4" y1="683.539" x2="-734.014" y2="970.551" gradientUnits="userSpaceOnUse">
<stop offset="0.02" stop-color="#EA5F33"/>
<stop offset="0.32" stop-color="#3F6AB3"/>
<stop offset="0.59" stop-color="#0D84AE"/>
<stop offset="0.83" stop-color="#9B2E21" stop-opacity="0"/>
<stop offset="0.99" stop-color="#E77D32" stop-opacity="0"/>
</linearGradient>
<linearGradient id="paint12_linear_36361_11068" x1="1387.92" y1="687.482" x2="-732.185" y2="974.723" gradientUnits="userSpaceOnUse">
<stop offset="0.02" stop-color="#EA5F33"/>
<stop offset="0.32" stop-color="#3F6AB3"/>
<stop offset="0.59" stop-color="#0D84AE"/>
<stop offset="0.83" stop-color="#9B2E21" stop-opacity="0"/>
<stop offset="0.99" stop-color="#E77D32" stop-opacity="0"/>
</linearGradient>
<linearGradient id="paint13_linear_36361_11068" x1="1391.48" y1="691.604" x2="-730.33" y2="979.075" gradientUnits="userSpaceOnUse">
<stop offset="0.02" stop-color="#EA5F33"/>
<stop offset="0.32" stop-color="#3F6AB3"/>
<stop offset="0.59" stop-color="#0D84AE"/>
<stop offset="0.83" stop-color="#9B2E21" stop-opacity="0"/>
<stop offset="0.99" stop-color="#E77D32" stop-opacity="0"/>
</linearGradient>
<linearGradient id="paint14_linear_36361_11068" x1="1395.04" y1="695.897" x2="-728.453" y2="983.597" gradientUnits="userSpaceOnUse">
<stop offset="0.02" stop-color="#EA5F33"/>
<stop offset="0.32" stop-color="#3F6AB3"/>
<stop offset="0.59" stop-color="#0D84AE"/>
<stop offset="0.83" stop-color="#9B2E21" stop-opacity="0"/>
<stop offset="0.99" stop-color="#E77D32" stop-opacity="0"/>
</linearGradient>
<linearGradient id="paint15_linear_36361_11068" x1="1398.64" y1="700.318" x2="-726.56" y2="988.249" gradientUnits="userSpaceOnUse">
<stop offset="0.02" stop-color="#EA5F33"/>
<stop offset="0.32" stop-color="#3F6AB3"/>
<stop offset="0.59" stop-color="#0D84AE"/>
<stop offset="0.83" stop-color="#9B2E21" stop-opacity="0"/>
<stop offset="0.99" stop-color="#E77D32" stop-opacity="0"/>
</linearGradient>
<linearGradient id="paint16_linear_36361_11068" x1="1402.24" y1="704.854" x2="-724.649" y2="993.014" gradientUnits="userSpaceOnUse">
<stop offset="0.02" stop-color="#EA5F33"/>
<stop offset="0.32" stop-color="#3F6AB3"/>
<stop offset="0.59" stop-color="#0D84AE"/>
<stop offset="0.83" stop-color="#9B2E21" stop-opacity="0"/>
<stop offset="0.99" stop-color="#E77D32" stop-opacity="0"/>
</linearGradient>
<linearGradient id="paint17_linear_36361_11068" x1="1405.86" y1="709.489" x2="-722.726" y2="997.879" gradientUnits="userSpaceOnUse">
<stop offset="0.02" stop-color="#EA5F33"/>
<stop offset="0.32" stop-color="#3F6AB3"/>
<stop offset="0.59" stop-color="#0D84AE"/>
<stop offset="0.83" stop-color="#9B2E21" stop-opacity="0"/>
<stop offset="0.99" stop-color="#E77D32" stop-opacity="0"/>
</linearGradient>
<linearGradient id="paint18_linear_36361_11068" x1="1409.5" y1="714.209" x2="-720.794" y2="1002.83" gradientUnits="userSpaceOnUse">
<stop offset="0.02" stop-color="#EA5F33"/>
<stop offset="0.32" stop-color="#3F6AB3"/>
<stop offset="0.59" stop-color="#0D84AE"/>
<stop offset="0.83" stop-color="#9B2E21" stop-opacity="0"/>
<stop offset="0.99" stop-color="#E77D32" stop-opacity="0"/>
</linearGradient>
<linearGradient id="paint19_linear_36361_11068" x1="1413.13" y1="719.003" x2="-718.847" y2="1007.85" gradientUnits="userSpaceOnUse">
<stop offset="0.02" stop-color="#EA5F33"/>
<stop offset="0.32" stop-color="#3F6AB3"/>
<stop offset="0.59" stop-color="#0D84AE"/>
<stop offset="0.83" stop-color="#9B2E21" stop-opacity="0"/>
<stop offset="0.99" stop-color="#E77D32" stop-opacity="0"/>
</linearGradient>
<linearGradient id="paint20_linear_36361_11068" x1="1416.79" y1="723.856" x2="-716.893" y2="1012.94" gradientUnits="userSpaceOnUse">
<stop offset="0.02" stop-color="#EA5F33"/>
<stop offset="0.32" stop-color="#3F6AB3"/>
<stop offset="0.59" stop-color="#0D84AE"/>
<stop offset="0.83" stop-color="#9B2E21" stop-opacity="0"/>
<stop offset="0.99" stop-color="#E77D32" stop-opacity="0"/>
</linearGradient>
<linearGradient id="paint21_linear_36361_11068" x1="1420.44" y1="728.771" x2="-714.924" y2="1018.08" gradientUnits="userSpaceOnUse">
<stop offset="0.02" stop-color="#EA5F33"/>
<stop offset="0.32" stop-color="#3F6AB3"/>
<stop offset="0.59" stop-color="#0D84AE"/>
<stop offset="0.83" stop-color="#9B2E21" stop-opacity="0"/>
<stop offset="0.99" stop-color="#E77D32" stop-opacity="0"/>
</linearGradient>
<linearGradient id="paint22_linear_36361_11068" x1="1424.1" y1="733.727" x2="-712.959" y2="1023.27" gradientUnits="userSpaceOnUse">
<stop offset="0.02" stop-color="#EA5F33"/>
<stop offset="0.32" stop-color="#3F6AB3"/>
<stop offset="0.59" stop-color="#0D84AE"/>
<stop offset="0.83" stop-color="#9B2E21" stop-opacity="0"/>
<stop offset="0.99" stop-color="#E77D32" stop-opacity="0"/>
</linearGradient>
<linearGradient id="paint23_linear_36361_11068" x1="1427.77" y1="738.726" x2="-710.986" y2="1028.49" gradientUnits="userSpaceOnUse">
<stop offset="0.02" stop-color="#EA5F33"/>
<stop offset="0.32" stop-color="#3F6AB3"/>
<stop offset="0.59" stop-color="#0D84AE"/>
<stop offset="0.83" stop-color="#9B2E21" stop-opacity="0"/>
<stop offset="0.99" stop-color="#E77D32" stop-opacity="0"/>
</linearGradient>
<linearGradient id="paint24_linear_36361_11068" x1="1431.45" y1="743.761" x2="-709.008" y2="1033.76" gradientUnits="userSpaceOnUse">
<stop offset="0.02" stop-color="#EA5F33"/>
<stop offset="0.32" stop-color="#3F6AB3"/>
<stop offset="0.59" stop-color="#0D84AE"/>
<stop offset="0.83" stop-color="#9B2E21" stop-opacity="0"/>
<stop offset="0.99" stop-color="#E77D32" stop-opacity="0"/>
</linearGradient>
<linearGradient id="paint25_linear_36361_11068" x1="1435.12" y1="748.833" x2="-707.025" y2="1039.06" gradientUnits="userSpaceOnUse">
<stop offset="0.02" stop-color="#EA5F33"/>
<stop offset="0.32" stop-color="#3F6AB3"/>
<stop offset="0.59" stop-color="#0D84AE"/>
<stop offset="0.83" stop-color="#9B2E21" stop-opacity="0"/>
<stop offset="0.99" stop-color="#E77D32" stop-opacity="0"/>
</linearGradient>
<linearGradient id="paint26_linear_36361_11068" x1="1438.8" y1="753.928" x2="-705.039" y2="1044.39" gradientUnits="userSpaceOnUse">
<stop offset="0.02" stop-color="#EA5F33"/>
<stop offset="0.32" stop-color="#3F6AB3"/>
<stop offset="0.59" stop-color="#0D84AE"/>
<stop offset="0.83" stop-color="#9B2E21" stop-opacity="0"/>
<stop offset="0.99" stop-color="#E77D32" stop-opacity="0"/>
</linearGradient>
<linearGradient id="paint27_linear_36361_11068" x1="1442.49" y1="759.06" x2="-703.049" y2="1049.75" gradientUnits="userSpaceOnUse">
<stop offset="0.02" stop-color="#EA5F33"/>
<stop offset="0.32" stop-color="#3F6AB3"/>
<stop offset="0.59" stop-color="#0D84AE"/>
<stop offset="0.83" stop-color="#9B2E21" stop-opacity="0"/>
<stop offset="0.99" stop-color="#E77D32" stop-opacity="0"/>
</linearGradient>
<linearGradient id="paint28_linear_36361_11068" x1="1446.18" y1="764.211" x2="-701.057" y2="1055.13" gradientUnits="userSpaceOnUse">
<stop offset="0.02" stop-color="#EA5F33"/>
<stop offset="0.32" stop-color="#3F6AB3"/>
<stop offset="0.59" stop-color="#0D84AE"/>
<stop offset="0.83" stop-color="#9B2E21" stop-opacity="0"/>
<stop offset="0.99" stop-color="#E77D32" stop-opacity="0"/>
</linearGradient>
<linearGradient id="paint29_linear_36361_11068" x1="1449.86" y1="769.381" x2="-699.053" y2="1060.53" gradientUnits="userSpaceOnUse">
<stop offset="0.02" stop-color="#EA5F33"/>
<stop offset="0.32" stop-color="#3F6AB3"/>
<stop offset="0.59" stop-color="#0D84AE"/>
<stop offset="0.83" stop-color="#9B2E21" stop-opacity="0"/>
<stop offset="0.99" stop-color="#E77D32" stop-opacity="0"/>
</linearGradient>
<linearGradient id="paint30_linear_36361_11068" x1="1453.56" y1="774.574" x2="-697.051" y2="1065.95" gradientUnits="userSpaceOnUse">
<stop offset="0.02" stop-color="#EA5F33"/>
<stop offset="0.32" stop-color="#3F6AB3"/>
<stop offset="0.59" stop-color="#0D84AE"/>
<stop offset="0.83" stop-color="#9B2E21" stop-opacity="0"/>
<stop offset="0.99" stop-color="#E77D32" stop-opacity="0"/>
</linearGradient>
<linearGradient id="paint31_linear_36361_11068" x1="1457.23" y1="779.746" x2="-695.057" y2="1071.35" gradientUnits="userSpaceOnUse">
<stop offset="0.02" stop-color="#EA5F33"/>
<stop offset="0.32" stop-color="#3F6AB3"/>
<stop offset="0.59" stop-color="#0D84AE"/>
<stop offset="0.83" stop-color="#9B2E21" stop-opacity="0"/>
<stop offset="0.99" stop-color="#E77D32" stop-opacity="0"/>
</linearGradient>
<linearGradient id="paint32_linear_36361_11068" x1="1453.81" y1="787.152" x2="-683.471" y2="1076.72" gradientUnits="userSpaceOnUse">
<stop offset="0.02" stop-color="#EA5F33"/>
<stop offset="0.32" stop-color="#3F6AB3"/>
<stop offset="0.59" stop-color="#0D84AE"/>
<stop offset="0.83" stop-color="#9B2E21" stop-opacity="0"/>
<stop offset="0.99" stop-color="#E77D32" stop-opacity="0"/>
</linearGradient>
<linearGradient id="paint33_linear_36361_11068" x1="1450.44" y1="794.626" x2="-671.867" y2="1082.17" gradientUnits="userSpaceOnUse">
<stop offset="0.02" stop-color="#EA5F33"/>
<stop offset="0.32" stop-color="#3F6AB3"/>
<stop offset="0.59" stop-color="#0D84AE"/>
<stop offset="0.83" stop-color="#9B2E21" stop-opacity="0"/>
<stop offset="0.99" stop-color="#E77D32" stop-opacity="0"/>
</linearGradient>
<linearGradient id="paint34_linear_36361_11068" x1="1447.07" y1="802.111" x2="-660.262" y2="1087.62" gradientUnits="userSpaceOnUse">
<stop offset="0.02" stop-color="#EA5F33"/>
<stop offset="0.32" stop-color="#3F6AB3"/>
<stop offset="0.59" stop-color="#0D84AE"/>
<stop offset="0.83" stop-color="#9B2E21" stop-opacity="0"/>
<stop offset="0.99" stop-color="#E77D32" stop-opacity="0"/>
</linearGradient>
<linearGradient id="paint35_linear_36361_11068" x1="1443.69" y1="809.583" x2="-648.665" y2="1093.06" gradientUnits="userSpaceOnUse">
<stop offset="0.02" stop-color="#EA5F33"/>
<stop offset="0.32" stop-color="#3F6AB3"/>
<stop offset="0.59" stop-color="#0D84AE"/>
<stop offset="0.83" stop-color="#9B2E21" stop-opacity="0"/>
<stop offset="0.99" stop-color="#E77D32" stop-opacity="0"/>
</linearGradient>
<linearGradient id="paint36_linear_36361_11068" x1="1440.32" y1="817.039" x2="-637.062" y2="1098.49" gradientUnits="userSpaceOnUse">
<stop offset="0.02" stop-color="#EA5F33"/>
<stop offset="0.32" stop-color="#3F6AB3"/>
<stop offset="0.59" stop-color="#0D84AE"/>
<stop offset="0.83" stop-color="#9B2E21" stop-opacity="0"/>
<stop offset="0.99" stop-color="#E77D32" stop-opacity="0"/>
</linearGradient>
<linearGradient id="paint37_linear_36361_11068" x1="1436.94" y1="824.489" x2="-625.461" y2="1103.91" gradientUnits="userSpaceOnUse">
<stop offset="0.02" stop-color="#EA5F33"/>
<stop offset="0.32" stop-color="#3F6AB3"/>
<stop offset="0.59" stop-color="#0D84AE"/>
<stop offset="0.83" stop-color="#9B2E21" stop-opacity="0"/>
<stop offset="0.99" stop-color="#E77D32" stop-opacity="0"/>
</linearGradient>
<linearGradient id="paint38_linear_36361_11068" x1="1433.56" y1="831.934" x2="-613.858" y2="1109.33" gradientUnits="userSpaceOnUse">
<stop offset="0.02" stop-color="#EA5F33"/>
<stop offset="0.32" stop-color="#3F6AB3"/>
<stop offset="0.59" stop-color="#0D84AE"/>
<stop offset="0.83" stop-color="#9B2E21" stop-opacity="0"/>
<stop offset="0.99" stop-color="#E77D32" stop-opacity="0"/>
</linearGradient>
<linearGradient id="paint39_linear_36361_11068" x1="1430.18" y1="839.364" x2="-602.258" y2="1114.73" gradientUnits="userSpaceOnUse">
<stop offset="0.02" stop-color="#EA5F33"/>
<stop offset="0.32" stop-color="#3F6AB3"/>
<stop offset="0.59" stop-color="#0D84AE"/>
<stop offset="0.83" stop-color="#9B2E21" stop-opacity="0"/>
<stop offset="0.99" stop-color="#E77D32" stop-opacity="0"/>
</linearGradient>
<linearGradient id="paint40_linear_36361_11068" x1="1426.5" y1="844.561" x2="-590.963" y2="1117.9" gradientUnits="userSpaceOnUse">
<stop offset="0.02" stop-color="#EA5F33"/>
<stop offset="0.32" stop-color="#3F6AB3"/>
<stop offset="0.59" stop-color="#0D84AE"/>
<stop offset="0.83" stop-color="#9B2E21" stop-opacity="0"/>
<stop offset="0.99" stop-color="#E77D32" stop-opacity="0"/>
</linearGradient>
<linearGradient id="paint41_linear_36361_11068" x1="1422.38" y1="846.528" x2="-580.093" y2="1117.83" gradientUnits="userSpaceOnUse">
<stop offset="0.02" stop-color="#EA5F33"/>
<stop offset="0.32" stop-color="#3F6AB3"/>
<stop offset="0.59" stop-color="#0D84AE"/>
<stop offset="0.83" stop-color="#9B2E21" stop-opacity="0"/>
<stop offset="0.99" stop-color="#E77D32" stop-opacity="0"/>
</linearGradient>
<linearGradient id="paint42_linear_36361_11068" x1="1418.25" y1="848.43" x2="-569.239" y2="1117.7" gradientUnits="userSpaceOnUse">
<stop offset="0.02" stop-color="#EA5F33"/>
<stop offset="0.32" stop-color="#3F6AB3"/>
<stop offset="0.59" stop-color="#0D84AE"/>
<stop offset="0.83" stop-color="#9B2E21" stop-opacity="0"/>
<stop offset="0.99" stop-color="#E77D32" stop-opacity="0"/>
</linearGradient>
<linearGradient id="paint43_linear_36361_11068" x1="1414.12" y1="850.306" x2="-558.386" y2="1117.55" gradientUnits="userSpaceOnUse">
<stop offset="0.02" stop-color="#EA5F33"/>
<stop offset="0.32" stop-color="#3F6AB3"/>
<stop offset="0.59" stop-color="#0D84AE"/>
<stop offset="0.83" stop-color="#9B2E21" stop-opacity="0"/>
<stop offset="0.99" stop-color="#E77D32" stop-opacity="0"/>
</linearGradient>
<linearGradient id="paint44_linear_36361_11068" x1="1409.98" y1="852.108" x2="-547.567" y2="1117.33" gradientUnits="userSpaceOnUse">
<stop offset="0.02" stop-color="#EA5F33"/>
<stop offset="0.32" stop-color="#3F6AB3"/>
<stop offset="0.59" stop-color="#0D84AE"/>
<stop offset="0.83" stop-color="#9B2E21" stop-opacity="0"/>
<stop offset="0.99" stop-color="#E77D32" stop-opacity="0"/>
</linearGradient>
<linearGradient id="paint45_linear_36361_11068" x1="1405.83" y1="853.862" x2="-536.757" y2="1117.05" gradientUnits="userSpaceOnUse">
<stop offset="0.02" stop-color="#EA5F33"/>
<stop offset="0.32" stop-color="#3F6AB3"/>
<stop offset="0.59" stop-color="#0D84AE"/>
<stop offset="0.83" stop-color="#9B2E21" stop-opacity="0"/>
<stop offset="0.99" stop-color="#E77D32" stop-opacity="0"/>
</linearGradient>
<linearGradient id="paint46_linear_36361_11068" x1="1401.67" y1="855.53" x2="-525.959" y2="1116.69" gradientUnits="userSpaceOnUse">
<stop offset="0.02" stop-color="#EA5F33"/>
<stop offset="0.32" stop-color="#3F6AB3"/>
<stop offset="0.59" stop-color="#0D84AE"/>
<stop offset="0.83" stop-color="#9B2E21" stop-opacity="0"/>
<stop offset="0.99" stop-color="#E77D32" stop-opacity="0"/>
</linearGradient>
<linearGradient id="paint47_linear_36361_11068" x1="1397.49" y1="857.117" x2="-515.173" y2="1116.26" gradientUnits="userSpaceOnUse">
<stop offset="0.02" stop-color="#EA5F33"/>
<stop offset="0.32" stop-color="#3F6AB3"/>
<stop offset="0.59" stop-color="#0D84AE"/>
<stop offset="0.83" stop-color="#9B2E21" stop-opacity="0"/>
<stop offset="0.99" stop-color="#E77D32" stop-opacity="0"/>
</linearGradient>
<linearGradient id="paint48_linear_36361_11068" x1="1393.31" y1="858.602" x2="-504.41" y2="1115.71" gradientUnits="userSpaceOnUse">
<stop offset="0.02" stop-color="#EA5F33"/>
<stop offset="0.32" stop-color="#3F6AB3"/>
<stop offset="0.59" stop-color="#0D84AE"/>
<stop offset="0.83" stop-color="#9B2E21" stop-opacity="0"/>
<stop offset="0.99" stop-color="#E77D32" stop-opacity="0"/>
</linearGradient>
<linearGradient id="paint49_linear_36361_11068" x1="1389.12" y1="859.979" x2="-493.66" y2="1115.07" gradientUnits="userSpaceOnUse">
<stop offset="0.02" stop-color="#EA5F33"/>
<stop offset="0.32" stop-color="#3F6AB3"/>
<stop offset="0.59" stop-color="#0D84AE"/>
<stop offset="0.83" stop-color="#9B2E21" stop-opacity="0"/>
<stop offset="0.99" stop-color="#E77D32" stop-opacity="0"/>
</linearGradient>
<linearGradient id="paint50_linear_36361_11068" x1="1384.9" y1="861.232" x2="-482.93" y2="1114.3" gradientUnits="userSpaceOnUse">
<stop offset="0.02" stop-color="#EA5F33"/>
<stop offset="0.32" stop-color="#3F6AB3"/>
<stop offset="0.59" stop-color="#0D84AE"/>
<stop offset="0.83" stop-color="#9B2E21" stop-opacity="0"/>
<stop offset="0.99" stop-color="#E77D32" stop-opacity="0"/>
</linearGradient>
<linearGradient id="paint51_linear_36361_11068" x1="1380.67" y1="862.337" x2="-472.216" y2="1113.38" gradientUnits="userSpaceOnUse">
<stop offset="0.02" stop-color="#EA5F33"/>
<stop offset="0.32" stop-color="#3F6AB3"/>
<stop offset="0.59" stop-color="#0D84AE"/>
<stop offset="0.83" stop-color="#9B2E21" stop-opacity="0"/>
<stop offset="0.99" stop-color="#E77D32" stop-opacity="0"/>
</linearGradient>
<linearGradient id="paint52_linear_36361_11068" x1="1376.41" y1="863.27" x2="-461.54" y2="1112.28" gradientUnits="userSpaceOnUse">
<stop offset="0.02" stop-color="#EA5F33"/>
<stop offset="0.32" stop-color="#3F6AB3"/>
<stop offset="0.59" stop-color="#0D84AE"/>
<stop offset="0.83" stop-color="#9B2E21" stop-opacity="0"/>
<stop offset="0.99" stop-color="#E77D32" stop-opacity="0"/>
</linearGradient>
<linearGradient id="paint53_linear_36361_11068" x1="1372.12" y1="864.003" x2="-450.889" y2="1110.99" gradientUnits="userSpaceOnUse">
<stop offset="0.02" stop-color="#EA5F33"/>
<stop offset="0.32" stop-color="#3F6AB3"/>
<stop offset="0.59" stop-color="#0D84AE"/>
<stop offset="0.83" stop-color="#9B2E21" stop-opacity="0"/>
<stop offset="0.99" stop-color="#E77D32" stop-opacity="0"/>
</linearGradient>
<linearGradient id="paint54_linear_36361_11068" x1="1367.81" y1="864.515" x2="-440.264" y2="1109.48" gradientUnits="userSpaceOnUse">
<stop offset="0.02" stop-color="#EA5F33"/>
<stop offset="0.32" stop-color="#3F6AB3"/>
<stop offset="0.59" stop-color="#0D84AE"/>
<stop offset="0.83" stop-color="#9B2E21" stop-opacity="0"/>
<stop offset="0.99" stop-color="#E77D32" stop-opacity="0"/>
</linearGradient>
<linearGradient id="paint55_linear_36361_11068" x1="1363.45" y1="864.779" x2="-429.69" y2="1107.72" gradientUnits="userSpaceOnUse">
<stop offset="0.02" stop-color="#EA5F33"/>
<stop offset="0.32" stop-color="#3F6AB3"/>
<stop offset="0.59" stop-color="#0D84AE"/>
<stop offset="0.83" stop-color="#9B2E21" stop-opacity="0"/>
<stop offset="0.99" stop-color="#E77D32" stop-opacity="0"/>
</linearGradient>
<linearGradient id="paint56_linear_36361_11068" x1="1359.06" y1="864.745" x2="-419.15" y2="1105.67" gradientUnits="userSpaceOnUse">
<stop offset="0.02" stop-color="#EA5F33"/>
<stop offset="0.32" stop-color="#3F6AB3"/>
<stop offset="0.59" stop-color="#0D84AE"/>
<stop offset="0.83" stop-color="#9B2E21" stop-opacity="0"/>
<stop offset="0.99" stop-color="#E77D32" stop-opacity="0"/>
</linearGradient>
<linearGradient id="paint57_linear_36361_11068" x1="1354.63" y1="864.416" x2="-408.666" y2="1103.32" gradientUnits="userSpaceOnUse">
<stop offset="0.02" stop-color="#EA5F33"/>
<stop offset="0.32" stop-color="#3F6AB3"/>
<stop offset="0.59" stop-color="#0D84AE"/>
<stop offset="0.83" stop-color="#9B2E21" stop-opacity="0"/>
<stop offset="0.99" stop-color="#E77D32" stop-opacity="0"/>
</linearGradient>
<linearGradient id="paint58_linear_36361_11068" x1="1350.15" y1="863.757" x2="-398.224" y2="1100.64" gradientUnits="userSpaceOnUse">
<stop offset="0.02" stop-color="#EA5F33"/>
<stop offset="0.32" stop-color="#3F6AB3"/>
<stop offset="0.59" stop-color="#0D84AE"/>
<stop offset="0.83" stop-color="#9B2E21" stop-opacity="0"/>
<stop offset="0.99" stop-color="#E77D32" stop-opacity="0"/>
</linearGradient>
<linearGradient id="paint59_linear_36361_11068" x1="1345.64" y1="862.813" x2="-387.82" y2="1097.67" gradientUnits="userSpaceOnUse">
<stop offset="0.02" stop-color="#EA5F33"/>
<stop offset="0.32" stop-color="#3F6AB3"/>
<stop offset="0.59" stop-color="#0D84AE"/>
<stop offset="0.83" stop-color="#9B2E21" stop-opacity="0"/>
<stop offset="0.99" stop-color="#E77D32" stop-opacity="0"/>
</linearGradient>
<linearGradient id="paint60_linear_36361_11068" x1="1341.15" y1="862.028" x2="-377.406" y2="1094.87" gradientUnits="userSpaceOnUse">
<stop offset="0.02" stop-color="#EA5F33"/>
<stop offset="0.32" stop-color="#3F6AB3"/>
<stop offset="0.59" stop-color="#0D84AE"/>
<stop offset="0.83" stop-color="#9B2E21" stop-opacity="0"/>
<stop offset="0.99" stop-color="#E77D32" stop-opacity="0"/>
</linearGradient>
<linearGradient id="paint61_linear_36361_11068" x1="1337.56" y1="867.87" x2="-366.09" y2="1098.69" gradientUnits="userSpaceOnUse">
<stop offset="0.02" stop-color="#EA5F33"/>
<stop offset="0.32" stop-color="#3F6AB3"/>
<stop offset="0.59" stop-color="#0D84AE"/>
<stop offset="0.83" stop-color="#9B2E21" stop-opacity="0"/>
<stop offset="0.99" stop-color="#E77D32" stop-opacity="0"/>
</linearGradient>
<linearGradient id="paint62_linear_36361_11068" x1="1333.92" y1="873.354" x2="-354.836" y2="1102.16" gradientUnits="userSpaceOnUse">
<stop offset="0.02" stop-color="#EA5F33"/>
<stop offset="0.32" stop-color="#3F6AB3"/>
<stop offset="0.59" stop-color="#0D84AE"/>
<stop offset="0.83" stop-color="#9B2E21" stop-opacity="0"/>
<stop offset="0.99" stop-color="#E77D32" stop-opacity="0"/>
</linearGradient>
<clipPath id="clip0_36361_11068">
<rect width="1081" height="918" rx="10" fill="white"/>
</clipPath>
</defs>
</svg>
