<svg width="16" height="16" viewBox="0 0 16 16" fill="none" xmlns="http://www.w3.org/2000/svg">
<path d="M11.2852 8.30659C11.1077 9.78472 10.1396 10.3753 9.72147 10.8041C9.30272 11.2341 9.37772 11.3197 9.40585 11.9503C9.41054 12.0284 9.39921 12.1065 9.37254 12.18C9.34588 12.2535 9.30446 12.3207 9.25082 12.3776C9.19718 12.4344 9.13247 12.4797 9.06067 12.5106C8.98887 12.5415 8.91151 12.5574 8.83335 12.5572H7.1721C7.09398 12.5571 7.01672 12.541 6.94502 12.5101C6.87331 12.4791 6.80867 12.4338 6.75504 12.377C6.70141 12.3202 6.65991 12.2531 6.63308 12.1797C6.60625 12.1064 6.59464 12.0283 6.59897 11.9503C6.59897 11.3316 6.65647 11.1878 6.28397 10.8041C5.80897 10.3291 4.69147 9.65847 4.69147 7.81409C4.68862 7.35597 4.7807 6.90222 4.96192 6.48145C5.14313 6.06068 5.40955 5.68201 5.74437 5.36931C6.0792 5.05662 6.47517 4.81667 6.90734 4.66461C7.3395 4.51254 7.79847 4.45165 8.25534 4.48578C8.7122 4.5199 9.15704 4.6483 9.56181 4.86288C9.96659 5.07745 10.3225 5.37356 10.6072 5.73252C10.8918 6.09149 11.099 6.50554 11.2157 6.94856C11.3324 7.39158 11.3561 7.85397 11.2852 8.30659Z" stroke="#6B7280" stroke-width="0.9375" stroke-linecap="round" stroke-linejoin="round"/>
<path d="M7.03906 12.5232V13.4682C7.03906 13.7263 7.18281 13.9382 7.35969 13.9382H8.64281C8.82094 13.9382 8.96406 13.7257 8.96406 13.4682V12.5232M7.51406 5.9357C7.14502 5.93587 6.79115 6.08259 6.53026 6.3436C6.26937 6.6046 6.12281 6.95854 6.12281 7.32758M12.5841 7.9407H13.7303M11.4303 4.1832L12.2434 3.37008M12.0553 11.1257L12.8684 11.9382M8.00156 1.98633V2.9132M3.77656 3.36945L4.58406 4.1832M3.15156 11.9382L3.95906 11.1257M3.41906 7.9407H2.27344" stroke="#6B7280" stroke-width="0.9375" stroke-linecap="round" stroke-linejoin="round"/>
</svg>
