<svg width="19" height="19" viewBox="0 0 19 19" fill="none" xmlns="http://www.w3.org/2000/svg">
<g clip-path="url(#clip0_40280_44007)">
<path d="M22.5197 0.0507812H-3.51978V18.9886H22.5197V0.0507812Z" fill="white"/>
<path d="M22.5197 1.82812H-3.51978V4.78715H22.5197V1.82812Z" fill="#2A499F"/>
<path d="M22.5197 14.2539H-3.51978V17.2129H22.5197V14.2539Z" fill="#2A499F"/>
<path d="M11.8672 9.51808L13.0508 7.46803H10.6836L9.49989 5.41797L8.31626 7.46803H5.94897L7.13261 9.51808L5.94897 11.5681H8.31626L9.49989 13.6182L10.6836 11.5681H13.0508L11.8672 9.51808ZM11.9233 8.11904L11.4914 8.86714L11.0594 8.11904H11.9233ZM11.1155 9.5181L10.3077 10.9172H8.6921L7.88432 9.5181L8.69208 8.11904H10.3077L11.1155 9.5181ZM9.49989 6.71991L9.93185 7.46803H9.06795L9.49989 6.71991ZM7.07653 8.11904H7.94037L7.50845 8.86714L7.07653 8.11904ZM7.07653 10.9172L7.50847 10.169L7.94043 10.9172H7.07653ZM9.49989 12.3163L9.06793 11.5681H9.93185L9.49989 12.3163ZM11.4913 10.169L11.9232 10.9172H11.0593L11.4913 10.169Z" fill="#2A499F"/>
</g>
<defs>
<clipPath id="clip0_40280_44007">
<rect x="0.0500488" y="0.0507812" width="18.9" height="18.9" rx="9.45" fill="white"/>
</clipPath>
</defs>
</svg>
