<svg width="20" height="20" viewBox="0 0 20 20" fill="none" xmlns="http://www.w3.org/2000/svg">
<path d="M2.5 2.5V16.6667C2.5 16.8877 2.5878 17.0996 2.74408 17.2559C2.90036 17.4122 3.11232 17.5 3.33333 17.5H17.5V15.8333H4.16667V2.5H2.5Z" fill="black"/>
<path d="M12.7448 12.2552C12.9011 12.4114 13.113 12.4991 13.334 12.4991C13.5549 12.4991 13.7669 12.4114 13.9231 12.2552L18.0898 8.08849L16.9115 6.91016L13.334 10.4877L11.4231 8.57682C11.2669 8.4206 11.0549 8.33283 10.834 8.33283C10.613 8.33283 10.4011 8.4206 10.2448 8.57682L6.07812 12.7435L7.25646 13.9218L10.834 10.3443L12.7448 12.2552Z" fill="black"/>
</svg>
