<svg width="15" height="15" viewBox="0 0 15 15" fill="none" xmlns="http://www.w3.org/2000/svg">
<path d="M2.82652 11.6602C2.82652 11.9194 3.036 12.1289 3.29527 12.1289H11.7035C11.9628 12.1289 12.1722 11.9194 12.1722 11.6602V8.24707C12.1722 5.66602 10.0804 3.57422 7.49938 3.57422C4.91832 3.57422 2.82652 5.66602 2.82652 8.24707V11.6602ZM3.88121 8.24707C3.88121 6.24902 5.50133 4.62891 7.49938 4.62891C9.49742 4.62891 11.1175 6.24902 11.1175 8.24707V11.0742H5.91734V8.56934C5.91734 8.48877 5.85143 8.42285 5.77086 8.42285H5.12633C5.04576 8.42285 4.97984 8.48877 4.97984 8.56934V11.0742H3.88121V8.24707ZM3.17662 4.54834L3.7567 3.96826C3.80211 3.92285 3.80211 3.84814 3.7567 3.80273L2.76207 2.80811C2.74005 2.7863 2.7103 2.77406 2.67931 2.77406C2.64831 2.77406 2.61857 2.7863 2.59654 2.80811L2.01646 3.38818C1.99466 3.41021 1.98242 3.43995 1.98242 3.47095C1.98242 3.50194 1.99466 3.53169 2.01646 3.55371L3.01109 4.54834C3.0565 4.59375 3.12975 4.59375 3.17662 4.54834ZM12.9852 3.38818L12.4051 2.80811C12.3831 2.7863 12.3534 2.77406 12.3224 2.77406C12.2914 2.77406 12.2616 2.7863 12.2396 2.80811L11.245 3.80273C11.2232 3.82476 11.2109 3.8545 11.2109 3.8855C11.2109 3.91649 11.2232 3.94624 11.245 3.96826L11.8251 4.54834C11.8705 4.59375 11.9452 4.59375 11.9906 4.54834L12.9852 3.55371C13.0306 3.50684 13.0306 3.43359 12.9852 3.38818ZM12.1869 13.0664H2.81188C2.5526 13.0664 2.34313 13.2759 2.34313 13.5352V13.8867C2.34313 13.9512 2.39586 14.0039 2.46031 14.0039H12.5384C12.6029 14.0039 12.6556 13.9512 12.6556 13.8867V13.5352C12.6556 13.2759 12.4462 13.0664 12.1869 13.0664ZM7.08922 2.63672H7.90953C7.97398 2.63672 8.02672 2.58398 8.02672 2.51953V1.11328C8.02672 1.04883 7.97398 0.996094 7.90953 0.996094H7.08922C7.02477 0.996094 6.97203 1.04883 6.97203 1.11328V2.51953C6.97203 2.58398 7.02477 2.63672 7.08922 2.63672Z" fill="#6B7280"/>
</svg>
