<svg width="20" height="20" viewBox="0 0 20 20" fill="none" xmlns="http://www.w3.org/2000/svg">
<path d="M6.66732 5.83464C5.56225 5.83464 4.50244 6.27362 3.72104 7.05502C2.93964 7.83643 2.50065 8.89623 2.50065 10.0013C2.50065 11.1064 2.93964 12.1662 3.72104 12.9476C4.50244 13.729 5.56225 14.168 6.66732 14.168H13.334C14.4391 14.168 15.4989 13.729 16.2803 12.9476C17.0617 12.1662 17.5006 11.1064 17.5006 10.0013C17.5006 8.89623 17.0617 7.83643 16.2803 7.05502C15.4989 6.27362 14.4391 5.83464 13.334 5.83464H6.66732ZM6.66732 4.16797H13.334C14.1 4.16797 14.8586 4.31885 15.5663 4.612C16.274 4.90516 16.9171 5.33484 17.4588 5.87651C18.0004 6.41819 18.4301 7.06125 18.7233 7.76898C19.0164 8.47671 19.1673 9.23526 19.1673 10.0013C19.1673 10.7673 19.0164 11.5259 18.7233 12.2336C18.4301 12.9414 18.0004 13.5844 17.4588 14.1261C16.9171 14.6678 16.274 15.0974 15.5663 15.3906C14.8586 15.6838 14.1 15.8346 13.334 15.8346H6.66732C5.90127 15.8346 5.14273 15.6838 4.435 15.3906C3.72726 15.0974 3.0842 14.6678 2.54253 14.1261C2.00085 13.5844 1.57117 12.9414 1.27802 12.2336C0.984868 11.5259 0.833984 10.7673 0.833984 10.0013C0.833984 9.23526 0.984868 8.47671 1.27802 7.76898C1.57117 7.06125 2.00085 6.41819 2.54253 5.87651C3.0842 5.33484 3.72726 4.90516 4.435 4.612C5.14273 4.31885 5.90127 4.16797 6.66732 4.16797ZM6.66732 12.5013C6.00428 12.5013 5.36839 12.2379 4.89955 11.7691C4.43071 11.3002 4.16732 10.6643 4.16732 10.0013C4.16732 9.33826 4.43071 8.70238 4.89955 8.23353C5.36839 7.76469 6.00428 7.5013 6.66732 7.5013C7.33036 7.5013 7.96624 7.76469 8.43508 8.23353C8.90392 8.70238 9.16732 9.33826 9.16732 10.0013C9.16732 10.6643 8.90392 11.3002 8.43508 11.7691C7.96624 12.2379 7.33036 12.5013 6.66732 12.5013Z" fill="black"/>
</svg>
