<svg width="19" height="19" viewBox="0 0 19 19" fill="none" xmlns="http://www.w3.org/2000/svg">
<g clip-path="url(#clip0_40280_34600)">
<path d="M41.5128 0.0507812H-10.3572V18.9508H41.5128V0.0507812Z" fill="white"/>
<path d="M41.5128 0.0507812H-10.3572V2.15078H41.5128V0.0507812Z" fill="#B22234"/>
<path d="M41.5128 4.25H-10.3572V6.35002H41.5128V4.25Z" fill="#B22234"/>
<path d="M41.5128 8.44922H-10.3572V10.5493H41.5128V8.44922Z" fill="#B22234"/>
<path d="M41.5128 12.6523H-10.3572V14.7523H41.5128V12.6523Z" fill="#B22234"/>
<path d="M41.5128 16.8516H-10.3572V18.9516H41.5128V16.8516Z" fill="#B22234"/>
<path d="M10.3908 0.0507812H-10.3572V10.5508H10.3908V0.0507812Z" fill="#3C3B6E"/>
<path d="M6.89653 0.886719L6.70774 1.46797H6.09668L6.59097 1.82703L6.40227 2.40802L6.89653 2.04896L7.39076 2.40802L7.20203 1.82697L7.69609 1.46797H7.0853L6.89653 0.886719Z" fill="white"/>
<path d="M5.17633 2.35938L4.98759 2.94038H4.37671L4.87098 3.29946L4.6821 3.88047L5.17641 3.52137L5.67058 3.88047L5.48183 3.29946L5.97612 2.94038H5.36508L5.17633 2.35938Z" fill="white"/>
<path d="M8.61621 2.35938L8.42748 2.94038H7.81665L8.31089 3.29944L8.12198 3.88047L8.61631 3.52137L9.11047 3.88047L8.92173 3.2995L9.41606 2.94038H8.80514L8.61621 2.35938Z" fill="white"/>
<path d="M3.45677 3.83594L3.26802 4.41694H2.65698L3.15131 4.77604L2.96254 5.35722L3.4567 4.99814L3.95099 5.35722L3.76207 4.77604L4.25638 4.41694H3.64549L3.45677 3.83594ZM3.45666 4.67689H3.45664L3.4567 4.6768L3.45672 4.67686L3.45666 4.67689Z" fill="white"/>
<path d="M6.89653 3.83594L6.70777 4.41694H6.09668L6.59105 4.77606L6.40227 5.35722L6.89651 4.99817L7.39074 5.35722L7.20193 4.776L7.69607 4.41694H7.08526L6.89653 3.83594ZM6.89653 4.67689L6.89647 4.67686L6.89651 4.6768L6.89657 4.67689H6.89653Z" fill="white"/>
<path d="M1.73658 5.30859L1.54786 5.88954H0.937012L1.43111 6.24859L1.24234 6.82963L1.73658 6.47055L2.23081 6.82963L2.04208 6.24866L2.53641 5.88954H1.92533L1.73658 5.30859Z" fill="white"/>
<path d="M5.17633 5.30859L4.98759 5.88954H4.37671L4.871 6.24862L4.6821 6.82963L5.17641 6.47051L5.67058 6.82963L5.48183 6.24862L5.97612 5.88954H5.36508L5.17633 5.30859Z" fill="white"/>
<path d="M8.61621 5.30859L8.42748 5.88954H7.81665L8.31089 6.24859L8.12198 6.82963L8.61631 6.47051L9.11047 6.82963L8.92171 6.24866L9.41606 5.88954H8.80514L8.61621 5.30859Z" fill="white"/>
<path d="M3.64551 7.36222L3.45677 6.78125L3.26802 7.36222H2.65698L3.15127 7.72132L2.96252 8.30225L3.4567 7.94317L3.95099 8.30225L3.76212 7.7213L4.25638 7.36222H3.64551Z" fill="white"/>
<path d="M7.08526 7.36222L6.89653 6.78125L6.70777 7.36222H6.09668L6.59103 7.72135L6.40227 8.30225L6.89653 7.94322L7.39076 8.30225L7.20201 7.72126L7.69609 7.36222H7.08526Z" fill="white"/>
<path d="M1.92533 8.83876L1.73658 8.25781L1.54784 8.83876H0.937012L1.4311 9.19784L1.24234 9.77885L1.73658 9.41977L2.23081 9.77885L2.04208 9.19792L2.53641 8.83876H1.92533Z" fill="white"/>
<path d="M5.36508 8.83876L5.17633 8.25781L4.98759 8.83876H4.37671L4.871 9.19788L4.6821 9.77885L5.17641 9.41973L5.67058 9.77885L5.48183 9.19788L5.97612 8.83876H5.36508Z" fill="white"/>
<path d="M8.80514 8.83876L8.61621 8.25781L8.42748 8.83876H7.81665L8.31089 9.19784L8.12198 9.77885L8.61631 9.41973L9.11047 9.77885L8.92171 9.19792L9.41606 8.83876H8.80514Z" fill="white"/>
</g>
<defs>
<clipPath id="clip0_40280_34600">
<rect x="0.0500488" y="0.0507812" width="18.9" height="18.9" rx="9.45" fill="white"/>
</clipPath>
</defs>
</svg>
